<svg width="30" height="19" viewBox="0 0 30 19" fill="none" xmlns="http://www.w3.org/2000/svg"><path d="M28.8042 16.2143V2.61464C28.8041 2.49943 28.7741 2.38628 28.7173 2.28654C28.6604 2.18681 28.5787 2.10401 28.4803 2.04646C28.382 1.9889 28.2704 1.95862 28.1569 1.95865C28.0433 1.95868 27.9318 1.98902 27.8334 2.04662L20.6495 6.25259V3.76382C20.6495 2.89302 20.3086 2.05789 19.7017 1.44214C19.0949 0.826392 18.2718 0.480469 17.4135 0.480469H3.92593C3.06769 0.480469 2.24461 0.826392 1.63774 1.44214C1.03088 2.05789 0.689941 2.89302 0.689941 3.76382V15.0651C0.689941 15.9359 1.03088 16.771 1.63774 17.3868C2.24461 18.0025 3.06769 18.3484 3.92593 18.3484H17.4135C17.8385 18.3484 18.2593 18.2635 18.6519 18.0985C19.0445 17.9335 19.4012 17.6917 19.7017 17.3868C20.0022 17.0819 20.2406 16.7199 20.4032 16.3216C20.5658 15.9232 20.6495 15.4963 20.6495 15.0651V12.5763L27.8334 16.7856C27.9318 16.8432 28.0433 16.8735 28.1569 16.8735C28.2704 16.8736 28.382 16.8433 28.4803 16.7857C28.5787 16.7282 28.6604 16.6454 28.7173 16.5456C28.7741 16.4459 28.8041 16.3328 28.8042 16.2175V16.2143ZM19.3551 15.0651C19.3551 15.5876 19.1506 16.0887 18.7865 16.4581C18.4223 16.8275 17.9285 17.0351 17.4135 17.0351H3.92593C3.41099 17.0351 2.91714 16.8275 2.55302 16.4581C2.1889 16.0887 1.98434 15.5876 1.98434 15.0651V3.76382C1.98434 3.24134 2.1889 2.74026 2.55302 2.37081C2.91714 2.00136 3.41099 1.79381 3.92593 1.79381H17.4135C17.9285 1.79381 18.4223 2.00136 18.7865 2.37081C19.1506 2.74026 19.3551 3.24134 19.3551 3.76382V15.0651ZM27.5098 15.0651L20.6495 11.0561V7.77278L27.5098 3.75396V15.0651Z" fill="#fff" stroke="#fff" stroke-width=".5"/></svg>