<svg xmlns="http://www.w3.org/2000/svg" width="64" height="26" viewBox="0 0 64 26" fill="none" version="1.1" id="svg4"><path d="M 63.9973,-0.5693984 0.00300825,-0.569404 1.56331,-0.1221101 c 0.39335,0.157868 0.77797,0.315737 1.1451,0.482375 2.91956,1.29364 4.86448,2.80654 6.70013,5.06932 1.83566,2.2671601 3.56636,5.2841601 5.18786,7.8758601 1.6215,2.5873 3.1338,4.7448 4.9738,6.6875 1.8356,1.9426 3.9991,3.666 6.1625,4.5299 3.0201,1.206 9.9169,1.206 12.9326,0 2.1635,-0.8639 4.3269,-2.5873 6.1626,-4.5299 1.8356,-1.9427 3.3522,-4.1002 4.9737,-6.6875 1.6215,-2.5873 3.3523,-5.60869 5.1879,-7.8758601 1.8357,-2.26716 3.785,-3.77567 6.7045,-5.069315 0.7255,-0.32012 1.5122,-0.631474 2.3033,-0.9296683 z" id="path2" clip-rule="evenodd" fill="#efefef" fill-opacity="1" fill-rule="evenodd" stroke="#c4c4c4" stroke-opacity="1"/></svg>