<svg width="27" height="64" viewBox="0 0 27 64" fill="none" xmlns="http://www.w3.org/2000/svg"><path fill-rule="evenodd" clip-rule="evenodd" d="M26.9954 64.0002L26.9954 0.00593908L26.5481 1.56624C26.3902 1.95959 26.2323 2.34421 26.0657 2.71134C24.7721 5.6309 23.2592 7.57582 20.9964 9.41147C18.7292 11.2471 15.7122 12.9779 13.1205 14.5994C10.5332 16.2209 8.37571 17.7331 6.43305 19.5731C4.4904 21.4088 2.767 23.5722 1.90311 25.7356C0.697178 28.7557 0.697177 35.6525 1.90311 38.6683C2.767 40.8317 4.4904 42.9951 6.43305 44.8308C8.37571 46.6664 10.5332 48.183 13.1205 49.8045C15.7078 51.426 18.7292 53.1568 20.9964 54.9924C23.2635 56.8281 24.7721 58.7774 26.0657 61.6969C26.3858 62.4225 26.6972 63.2092 26.9954 64.0002V64.0002Z" fill="#72C4FE"/><path d="M19.9957 36.9985L13.9957 30.5129L19.9627 23.9985" stroke="#fff" stroke-width="1.5" stroke-miterlimit="22.926" stroke-linecap="round" stroke-linejoin="round"/></svg>