<svg width="9" height="10" viewBox="0 0 9 10" fill="none" xmlns="http://www.w3.org/2000/svg"><g clip-path="url(#clip0)" fill="#D9DADA"><path d="M0.0543537 4.73971C0.158991 4.50282 0.461752 3.88589 1.01176 3.2748C1.42374 2.81704 1.89188 2.45199 2.40319 2.18975C3.0417 1.86232 3.7472 1.69629 4.50005 1.69629C5.24865 1.69629 5.9505 1.86045 6.5861 2.18423C7.09605 2.44399 7.56338 2.80597 7.97513 3.26012C8.53021 3.87244 8.83856 4.49855 8.94536 4.73933C9.01817 4.90345 9.01829 5.09581 8.94575 5.26005C8.84111 5.49694 8.53835 6.11386 7.98834 6.72498C7.57638 7.18272 7.10822 7.54779 6.59691 7.81003C5.9584 8.13746 5.2529 8.30349 4.50005 8.30349C3.75145 8.30349 3.0496 8.13933 2.414 7.81555C1.90405 7.55579 1.43672 7.19381 1.02497 6.73966C0.469886 6.12734 0.16154 5.50124 0.0547361 5.26045C-0.0180445 5.09631 -0.0181932 4.90397 0.0543537 4.73971ZM4.50005 7.59558C5.79027 7.59558 6.83617 6.43346 6.83617 4.99989C6.83617 3.56632 5.79027 2.4042 4.50005 2.4042C3.20983 2.4042 2.16393 3.56634 2.16393 4.99989C2.16393 6.43344 3.20983 7.59558 4.50005 7.59558Z"/><path d="M4.50023 6.88786C3.5619 6.88786 2.80123 6.04267 2.80123 5.00008C2.80123 3.95749 3.5619 3.1123 4.50023 3.1123C5.43855 3.1123 6.19922 3.95749 6.19922 5.00008C6.19922 6.04267 5.43855 6.88786 4.50023 6.88786Z"/></g><defs><clipPath id="clip0"><path fill="#fff" transform="matrix(-1 0 0 1 9 0)" d="M0 0H9V10H0z"/></clipPath></defs></svg>