<svg width="14" height="11" viewBox="0 0 14 11" fill="none" xmlns="http://www.w3.org/2000/svg"><path d="M13.7208 7.83844L13.7942 7.76361L13.7208 7.83844C13.8309 7.95069 13.886 8.10035 13.886 8.25001V8.94218C13.886 10.0085 13.0046 10.8878 11.9028 10.8878H9.16664V0.112251H11.9028C13.0046 0.112251 13.886 0.991503 13.886 2.05783V2.75001C13.886 2.89967 13.8309 3.04933 13.7208 3.16157L13.7942 3.2364L13.7208 3.16157L13.1331 3.7228C12.7108 4.13436 12.4904 4.67688 12.4904 5.25681V5.7245C12.4904 6.30443 12.7291 6.86565 13.1331 7.25851L13.7208 7.81973V7.83844ZM7.77102 10.8691H2.11508C1.01328 10.8691 0.131836 9.9898 0.131836 8.92348V8.2313C0.131836 8.08164 0.186926 7.93198 0.297107 7.81973L0.884736 7.25851C1.30709 6.84694 1.52746 6.30443 1.52746 5.7245V5.25681C1.52746 4.67688 1.28873 4.11565 0.884736 3.7228L0.297107 3.16157C0.186926 3.04933 0.131836 2.89967 0.131836 2.75001V2.05783C0.131836 0.991503 1.01328 0.112251 2.11508 0.112251H7.77102V10.8878V10.8691Z" fill="#D9DADA"/></svg>