<svg width="19" height="12" viewBox="0 0 19 12" fill="none" xmlns="http://www.w3.org/2000/svg"><path d="M2.27465 8.85464H16.7157C16.8695 8.85464 17.0153 8.76915 17.1123 8.6495C17.2096 8.52985 17.2479 8.36461 17.2169 8.21345C16.8561 6.45644 15.8829 4.85303 14.4958 3.70567C13.2228 2.65274 11.6542 2.02405 9.99089 1.91512C10.3108 1.73726 10.5133 1.40617 10.5133 1.02705C10.5133 0.460761 10.0595 0 9.49505 0C8.93059 0 8.46347 0.460761 8.46347 1.02705C8.46347 1.40617 8.71137 1.73718 8.96727 1.91512V1.9145C7.36794 2.02136 5.74879 2.64644 4.47303 3.70169C3.08598 4.84898 2.12875 6.44841 1.768 8.20542C1.73697 8.35658 1.77799 8.52985 1.87516 8.6495C1.97241 8.76915 2.12075 8.85464 2.27461 8.85464H2.27465ZM9.00713 3.91893C9.29209 3.90456 9.52901 4.12465 9.54213 4.40801C9.55525 4.69136 9.33706 4.93166 9.05475 4.94482C7.52696 5.01612 6.05371 5.98003 5.20979 7.46019C5.11522 7.62592 4.94262 7.71874 4.76503 7.71874C4.67888 7.71874 4.59153 7.69692 4.5114 7.65089C4.26606 7.51004 4.18098 7.19629 4.32127 6.95012C5.33741 5.16794 7.13295 4.00649 9.00713 3.91893Z" fill="#5F73F1"/><path d="M17.9444 9.88159H1.05555C0.47261 9.88159 0 10.3558 0 10.9407C0 11.5257 0.472651 11.9999 1.05555 11.9999C6.71606 11.9999 14.9862 11.9999 17.9444 11.9999C18.5274 11.9999 19 11.5256 19 10.9407C19 10.3558 18.5273 9.88159 17.9444 9.88159Z" fill="#5F73F1"/></svg>