<svg width="15" height="15" viewBox="0 0 15 15" fill="none" xmlns="http://www.w3.org/2000/svg"><g clip-path="url(#clip0)"><path d="M11.8151 0.938356H8.21367C8.10172 0.938274 7.99428 0.982512 7.91484 1.0614L0.714845 8.25964C0.557232 8.41803 0.46875 8.63239 0.46875 8.85583C0.46875 9.07928 0.557232 9.29364 0.714845 9.45202L4.14258 12.8798C4.30102 13.0374 4.51542 13.1259 4.73892 13.1259C4.96241 13.1259 5.17682 13.0374 5.33525 12.8798L12.5332 5.68445C12.6121 5.60501 12.6563 5.49758 12.6562 5.38562V1.78211C12.6568 1.67137 12.6354 1.56163 12.5934 1.45919C12.5513 1.35675 12.4894 1.26363 12.4113 1.18521C12.3331 1.10679 12.2402 1.0446 12.1379 1.00224C12.0355 0.959872 11.9259 0.938161 11.8151 0.938356Z" stroke="#fff" stroke-linecap="round" stroke-linejoin="round"/><path d="M10 5C9.80222 5 9.60888 4.94135 9.44443 4.83147C9.27998 4.72159 9.15181 4.56541 9.07612 4.38268C9.00043 4.19996 8.98063 3.99889 9.01922 3.80491C9.0578 3.61093 9.15304 3.43275 9.29289 3.29289C9.43275 3.15304 9.61093 3.0578 9.80491 3.01922C9.99889 2.98063 10.2 3.00043 10.3827 3.07612C10.5654 3.15181 10.7216 3.27998 10.8315 3.44443C10.9414 3.60888 11 3.80222 11 4C11 4.26522 10.8946 4.51957 10.7071 4.70711C10.5196 4.89464 10.2652 5 10 5Z" fill="#fff"/><path d="M6.73828 14.0624L14.4141 6.3866C14.4522 6.3481 14.4823 6.30233 14.5024 6.25201C14.5225 6.20168 14.5323 6.14782 14.5312 6.09363V2.34363" stroke="#fff" stroke-linecap="round" stroke-linejoin="round"/></g><defs><clipPath id="clip0"><path fill="#fff" d="M0 0H15V15H0z"/></clipPath></defs></svg>