<svg width="19" height="19" viewBox="0 0 19 19" fill="none" xmlns="http://www.w3.org/2000/svg"><g clip-path="url(#clip0)"><path d="M12.6878 2.17188C9.79184 -0.72396 5.06788 -0.72396 2.17191 2.17188C-0.723971 5.06764 -0.723971 9.79139 2.17191 12.6872C4.75865 15.2738 8.77977 15.5551 11.6758 13.5311C11.7323 13.8124 11.8726 14.0937 12.0972 14.3184L16.3152 18.5362C16.9336 19.1545 17.9178 19.1545 18.5362 18.5362C19.1545 17.9178 19.1545 16.9337 18.5362 16.3153L14.3182 12.0975C14.0935 11.8728 13.8122 11.7318 13.5309 11.676C15.555 8.78021 15.2745 4.75926 12.687 2.17262L12.6878 2.17187L12.6878 2.17188ZM11.3665 11.3381C9.20135 13.5032 5.68709 13.5032 3.52192 11.3381C1.35675 9.17305 1.35675 5.65894 3.52192 3.49387C5.68709 1.32879 9.20135 1.32879 11.3665 3.49387C13.5317 5.65894 13.5317 9.17305 11.3665 11.3381Z" fill="#D9DADA"/></g><defs><clipPath id="clip0"><path fill="#fff" d="M0 0H19V19H0z"/></clipPath></defs></svg>