<svg width="21" height="22" viewBox="0 0 21 22" fill="none" xmlns="http://www.w3.org/2000/svg"><path fill-rule="evenodd" clip-rule="evenodd" d="M20.7332 13.414C20.6936 13.0689 20.8126 12.6326 20.8562 12.3708C20.9236 11.9861 20.9117 10.6296 20.8879 10.1973C20.8641 9.75705 20.7769 9.52701 20.7531 9.18194C18.0996 9.27317 14.3515 9.18194 11.464 9.18987C11.2181 9.18987 11.0198 9.16211 10.8056 9.24144C10.6668 9.63806 10.7303 12.1487 10.7818 12.7397L16.7392 12.7437C16.8978 13.1363 16.6718 13.3624 16.6559 13.6956C16.6123 13.7313 16.5488 13.7352 16.4893 13.7551C16.3822 14.235 15.8944 14.9965 15.5572 15.3693L14.8909 16.0317C14.76 16.1467 14.641 16.2102 14.5101 16.3094C13.9668 16.7218 13.1576 17.0748 12.4953 17.1978C11.9915 17.293 11.6227 17.4001 11.0436 17.4239C10.528 17.4437 10.2464 17.4159 9.79819 17.3406C9.05253 17.2176 7.80315 16.8567 7.20027 16.3887C6.09765 15.5399 5.25283 14.6316 4.63409 13.3545C4.52303 13.1244 4.57459 13.057 4.48337 12.8309C4.40008 12.6207 4.33265 12.6167 4.30489 12.3669C4.26919 12.0575 4.23349 12.0615 4.19383 11.8711C4.07088 11.2682 4.1383 10.4987 4.1621 9.89191C4.2097 8.74962 5.07038 6.8458 5.9033 6.08428L6.6093 5.44967C6.75208 5.35051 6.68069 5.42587 6.81951 5.30688C7.18837 4.99751 7.58897 4.77937 8.01733 4.56916C8.14028 4.5057 8.13235 4.50173 8.22754 4.47C8.34256 4.42637 8.38619 4.43034 8.50518 4.38274C9.36586 4.04164 10.2821 3.82746 11.3411 3.95042C12.3564 4.06544 13.8517 4.51759 14.5815 5.27912C15.0535 5.77094 15.3232 5.32672 15.7397 4.87456L16.4536 4.20029C16.6837 4.02181 17.8537 2.95885 17.8299 2.77243C17.7902 2.46306 16.3029 1.52305 15.9578 1.30491L15.6286 1.15022C15.5414 1.11056 15.5017 1.09866 15.4025 1.06296L15.2042 0.963805C14.6846 0.666334 14.2087 0.559244 13.6019 0.380762C13.1973 0.261773 12.2454 0.035695 11.7694 0.0158636C11.0555 -0.0119004 10.3059 -0.0158666 9.59194 0.0198299C9.19928 0.0396613 8.65987 0.174515 8.23547 0.269706C8.14028 0.293503 8.09665 0.29747 8.00146 0.333166C7.89041 0.372829 7.99353 0.364896 7.78332 0.404559C6.66483 0.614772 4.527 1.71343 3.70994 2.62171C3.70201 2.62964 3.69011 2.64551 3.68218 2.65344L3.59492 2.7407C3.05947 3.20475 2.88099 3.45066 2.40107 3.96628C2.38917 3.97818 2.35348 4.01784 2.34158 4.02974C1.95685 4.4462 1.61971 5.15617 1.34604 5.5052C1.116 5.7987 0.937512 6.34208 0.806625 6.65145C0.187885 8.09518 -0.0659572 9.78482 0.0173347 11.3436L0.152188 12.2598C0.263244 12.7437 0.287042 13.1403 0.461558 13.5924C0.62021 14.0049 0.687636 14.473 0.878018 14.8656L1.95685 16.8131C2.02427 16.9083 2.05204 16.9241 2.0917 16.9757L2.54782 17.6143C3.00395 18.2727 4.24143 19.1809 4.90776 19.6569L7.14078 20.7476C7.41842 20.8864 8.11648 21.0451 8.44172 21.1006C9.49675 21.287 9.79819 21.3386 10.992 21.3426C12.3763 21.3465 14.296 21.0173 15.5533 20.3629C16.2593 19.994 16.9573 19.5617 17.5602 19.058C18.0203 18.6733 18.5319 18.1576 18.873 17.65C18.9167 17.5825 18.9246 17.5548 18.9643 17.4992L19.0158 17.4358C19.4006 16.9717 19.6306 16.472 19.932 15.9405C20.2057 15.4606 20.8046 13.9216 20.7412 13.414H20.7332Z" fill="#fff"/></svg>