<svg width="20" height="16" viewBox="0 0 20 16" fill="none" xmlns="http://www.w3.org/2000/svg"><path d="M17.1208 1H2.881C2.38227 1.00047 1.90411 1.19546 1.55146 1.54217C1.19881 1.88889 1.00048 2.359 1 2.84932V10.774C1.00048 11.2643 1.19881 11.7344 1.55146 12.0811C1.90411 12.4278 2.38227 12.6228 2.881 12.6233H6.7222L9.838 14.9469C9.88486 14.9811 9.94162 14.9997 10 15C10.0585 15.0003 10.1154 14.9816 10.162 14.9469L13.2796 12.6233H17.1208C17.3677 12.6233 17.6122 12.5755 17.8404 12.4825C18.0685 12.3895 18.2757 12.2533 18.4502 12.0815C18.6248 11.9098 18.7631 11.7059 18.8575 11.4816C18.9518 11.2572 19.0002 11.0168 19 10.774V2.84932C19.0002 2.60655 18.9518 2.36611 18.8575 2.14175C18.7631 1.91739 18.6248 1.71351 18.4502 1.54176C18.2757 1.37001 18.0685 1.23376 17.8404 1.14081C17.6122 1.04785 17.3677 1 17.1208 1ZM18.4636 10.774C18.4638 10.9474 18.4293 11.1192 18.3619 11.2795C18.2945 11.4398 18.1956 11.5854 18.0708 11.708C17.9461 11.8307 17.798 11.9279 17.6349 11.9942C17.4719 12.0604 17.2972 12.0944 17.1208 12.0942H13.1914C13.1324 12.0942 13.075 12.1128 13.0276 12.1473L12.6676 12.4109L12.646 12.4286L12.4318 12.6056H12.4048L12.628 12.4163L12.3814 12.5932H12.3976L10 14.4054L7.6114 12.6233H7.5952L7.3594 12.4463L7.2082 12.3207L7.111 12.2481L7.0984 12.2375L6.9274 12.0924H2.881C2.52487 12.0924 2.18332 11.9533 1.9315 11.7057C1.67967 11.4581 1.5382 11.1223 1.5382 10.7722V2.84932C1.5382 2.49919 1.67967 2.16339 1.9315 1.91581C2.18332 1.66823 2.52487 1.52914 2.881 1.52914H17.1208C17.2972 1.5289 17.4719 1.56289 17.6349 1.62916C17.798 1.69542 17.9461 1.79265 18.0708 1.91529C18.1956 2.03793 18.2945 2.18356 18.3619 2.34383C18.4293 2.50411 18.4638 2.67589 18.4636 2.84932V10.774Z" fill="#5F73F1" stroke="#5F73F1" stroke-width=".6"/></svg>