<svg width="31" height="13" viewBox="0 0 31 13" fill="none" xmlns="http://www.w3.org/2000/svg"><path fill-rule="evenodd" clip-rule="evenodd" d="M1.63855 1.08455C2.49462 0.836365 10.742 1.02505 12.3613 1.02505L28.7266 1.01577C30.3991 1.02803 29.9698 2.15281 29.9637 5.06221C29.9599 6.842 29.9639 8.6226 29.9796 10.4019C29.9888 11.438 30.0566 11.9909 28.9231 12.052C27.4612 12.1308 22.5071 12.0447 20.7868 12.0449C18.3001 12.0451 18.8128 12.1574 17.8933 10.8402C17.7289 10.6047 17.5556 10.3443 17.3896 10.0784C17.0606 9.55171 16.6328 8.97017 15.8812 8.84064C14.3074 8.56953 13.6225 9.96611 12.8125 11.2372C12.2666 12.0936 12.2999 12.0522 10.9902 12.0468L2.76012 12.0464C1.86819 12.0492 1.0673 12.1733 1.01154 11.1827C0.902677 9.24369 1.0024 5.39556 1.00483 3.12043C1.00656 1.52772 0.831415 1.31828 1.63855 1.08432V1.08455ZM1.36935 0.156933C-0.430366 0.597584 0.0614125 2.81012 0.0614125 4.67383C0.0614125 6.61526 0.0671968 8.5576 0.0608341 10.4989C0.0525048 13.0298 0.949298 12.9782 3.34804 12.9781C4.30071 12.9781 11.5794 13.05 12.1738 12.9321C13.703 12.6289 14.1091 10.3773 14.9708 9.88047C15.919 9.3339 16.3577 10.2616 16.7011 10.7575C17.8385 12.3995 17.6434 13.0076 20.2968 12.9815C22.2861 12.962 24.2828 12.9788 26.273 12.9782C32.096 12.9766 30.8726 13.3959 30.9291 3.02357C30.9346 2.00723 31.0809 1.2158 30.3857 0.601023C29.3606 -0.305498 26.4419 0.0827654 24.9015 0.0824215C23.4154 0.0820776 2.23908 -0.0559409 1.36935 0.156933Z" fill="#C4C4C4"/><path fill-rule="evenodd" clip-rule="evenodd" d="M3.68196 3.38218L12.7674 3.39215C12.9452 7.90745 12.8417 6.2111 10.8272 9.67968L3.68092 9.68117L3.68196 3.38218ZM13.6296 7.101C13.8592 6.47235 13.8598 3.11394 13.4545 2.71582C12.9708 2.24112 9.81387 2.44115 8.93246 2.44115C1.83782 2.44115 2.73658 1.74785 2.7242 5.83889C2.72142 6.74919 2.46969 9.85816 2.99189 10.3612C3.45279 10.8053 8.63318 10.6185 10.0106 10.6286C11.6781 10.6409 11.568 10.0985 12.7138 8.51294C12.8685 8.2988 13.5491 7.3219 13.6298 7.101H13.6296Z" fill="#C4C4C4"/><path fill-rule="evenodd" clip-rule="evenodd" d="M18.2168 3.38744L27.3048 3.38228L27.3079 9.68321L21.5701 9.68207C19.4774 9.68906 20.4749 9.75486 18.8403 7.5766C18.7112 7.40453 18.5341 7.21023 18.4215 7.01913C18.0714 6.42419 18.1902 4.20282 18.2168 3.38744ZM18.0259 2.48287C17.2343 2.64037 17.262 3.30135 17.2642 4.09094C17.2757 8.06092 17.0281 6.37891 19.0145 9.53327C19.3691 10.0962 19.4767 10.5339 20.2933 10.6156C21.18 10.7043 27.1345 10.657 27.5272 10.5787C28.3253 10.4195 28.2524 9.80484 28.2493 8.94566C28.2464 8.13635 28.2596 7.32968 28.2605 6.51842C28.2614 5.74166 28.2593 4.96502 28.2609 4.18838C28.2629 3.31373 28.3339 2.65952 27.5133 2.48539C27.0248 2.38176 18.5202 2.3844 18.0257 2.48275L18.0259 2.48287Z" fill="#C4C4C4"/></svg>