<svg width="19" height="16" viewBox="0 0 19 16" fill="none" xmlns="http://www.w3.org/2000/svg"><path d="M16.1062 1H2.88473C2.38484 1.00188 1.90597 1.21085 1.55281 1.58123C1.19964 1.95161 1.0009 2.45329 1 2.97661V13.0222C1.0006 13.5466 1.19984 14.0492 1.55402 14.42C1.90819 14.7908 2.38839 14.9994 2.88927 15H16.1062C16.3546 15.0003 16.6006 14.9494 16.8302 14.8502C17.0598 14.751 17.2685 14.6054 17.4444 14.4217C17.6202 14.238 17.7598 14.0199 17.8551 13.7798C17.9505 13.5397 17.9997 13.2822 18 13.0222V2.97661C17.9991 2.45164 17.7991 1.94853 17.444 1.57788C17.0889 1.20723 16.6077 0.999371 16.1062 1ZM17.32 9.97186H12.1452C11.6455 9.97186 11.1662 9.76405 10.8129 9.39415C10.4595 9.02424 10.261 8.52254 10.261 7.99941C10.261 7.47628 10.4595 6.97458 10.8129 6.60467C11.1662 6.23476 11.6455 6.02695 12.1452 6.02695H17.32V9.97186ZM12.1452 5.31509C11.4651 5.31509 10.8129 5.5979 10.3321 6.10131C9.85119 6.60471 9.58103 7.28748 9.58103 7.99941C9.58103 8.71133 9.85119 9.3941 10.3321 9.89751C10.8129 10.4009 11.4651 10.6837 12.1452 10.6837H17.32V13.0222C17.3197 13.3579 17.1922 13.6797 16.9655 13.917C16.7388 14.1543 16.4314 14.2878 16.1107 14.2881H2.88473C2.56489 14.2866 2.25865 14.1525 2.03291 13.9153C1.80717 13.6781 1.6803 13.357 1.68 13.0222V2.97661C1.6806 2.64199 1.80761 2.32119 2.03331 2.08425C2.25902 1.8473 2.56509 1.71343 2.88473 1.71187H16.1062C16.2652 1.7114 16.4228 1.74375 16.5699 1.80707C16.717 1.87039 16.8508 1.96344 16.9635 2.0809C17.0762 2.19836 17.1657 2.33792 17.2269 2.49161C17.2881 2.6453 17.3197 2.81011 17.32 2.97661V5.31509H12.1452Z" fill="#5F73F1" stroke="#5F73F1" stroke-width=".5"/></svg>