<svg width="34" height="34" viewBox="0 0 34 34" fill="none" xmlns="http://www.w3.org/2000/svg"><g clip-path="url(#clip0)" fill="#2B2A29"><path d="M16.9991 0C21.6911 0 25.9444 1.90464 29.0208 4.98096C32.0971 8.05728 34.0017 12.3053 34.0017 17.0027C34.0017 21.6947 32.0971 25.9481 29.0208 29.0244C25.9444 32.1007 21.6965 34.0053 16.9991 34.0053C12.307 34.0053 8.05365 32.1007 4.97734 29.0244C1.90102 25.9481 -0.00362396 21.7001 -0.00362396 17.0027C-0.00362396 12.3106 1.90102 8.05728 4.97734 4.98096C8.05365 1.90464 12.3016 0 16.9991 0V0ZM27.9668 6.02958C25.158 3.22077 21.2845 1.48733 16.9991 1.48733C12.7136 1.48733 8.83477 3.22612 6.03131 6.02958C3.2225 8.8384 1.48906 12.7172 1.48906 16.9973C1.48906 21.2828 3.22785 25.1616 6.03131 27.9651C8.84012 30.7739 12.719 32.5073 16.9991 32.5073C21.2845 32.5073 25.1633 30.7685 27.9668 27.9651C30.7756 25.1563 32.509 21.2828 32.509 16.9973C32.509 12.7119 30.7703 8.83304 27.9668 6.02958Z"/><path fill-rule="evenodd" clip-rule="evenodd" d="M18.2385 24.9367H15.3174L15.296 17.7194L12.867 17.714L12.8831 14.8892L15.3067 14.8945C15.3869 12.8294 15.0124 11.3581 16.3232 10.0366C17.5698 8.78468 19.1802 9.06824 21.1276 9.16989V11.7112C17.864 11.6737 18.2653 11.8075 18.2278 14.8945L21.026 14.8999L20.6675 17.7247L18.2278 17.714L18.2332 24.942L18.2385 24.9367Z"/></g><defs><clipPath id="clip0"><path fill="#fff" d="M0 0H34V34H0z"/></clipPath></defs></svg>