<svg width="15" height="15" viewBox="0 0 15 15" fill="none" xmlns="http://www.w3.org/2000/svg"><path d="M7.04199 0.66667C3.17618 0.66667 0.0419922 3.80085 0.0419922 7.66667C0.0419922 11.5264 3.18257 14.6667 7.04199 14.6667C10.9075 14.6667 14.042 11.5322 14.042 7.66667C14.042 3.80691 10.9018 0.66667 7.04199 0.66667ZM10.6766 8.74359H6.63815C6.60244 8.74359 6.5682 8.72941 6.54296 8.70417C6.51771 8.67892 6.50353 8.64468 6.50353 8.60898V2.95513C6.50353 2.91943 6.51771 2.88519 6.54296 2.85994C6.5682 2.8347 6.60244 2.82052 6.63815 2.82052H7.44584C7.48154 2.82052 7.51578 2.8347 7.54103 2.85994C7.56627 2.88519 7.58045 2.91943 7.58045 2.95513V7.66667H10.6766C10.7123 7.66667 10.7466 7.68085 10.7718 7.7061C10.797 7.73134 10.8112 7.76558 10.8112 7.80129V8.60898C10.8112 8.64468 10.797 8.67892 10.7718 8.70417C10.7466 8.72941 10.7123 8.74359 10.6766 8.74359Z" fill="#B1B7DE"/></svg>