<svg width="8" height="13" viewBox="0 0 8 13" fill="none" xmlns="http://www.w3.org/2000/svg"><path d="M4.84114 11.8605C4.84114 12.4065 4.39698 12.85 3.84811 12.85C3.29924 12.85 2.85508 12.4065 2.85508 11.8605C2.85508 11.3144 3.29924 10.8709 3.84811 10.8709C4.39698 10.8709 4.84114 11.3144 4.84114 11.8605Z" fill="#fff" stroke="#5F73F1" stroke-width=".3"/><path d="M4.70202 6.0371L4.70283 6.03678C5.63899 5.67159 6.24838 4.73942 6.20795 3.72645C6.16703 2.51037 5.19177 1.49673 3.93147 1.45503C3.27738 1.41493 2.66786 1.66051 2.18487 2.10189C1.73223 2.51553 1.48963 3.06753 1.45466 3.65794H0.152898C0.190304 2.69235 0.588667 1.80283 1.28427 1.14403C2.01756 0.449554 3.00533 0.0866016 3.95103 0.159124L3.95102 0.159229L3.95664 0.159448C5.82195 0.232373 7.3972 1.80334 7.47031 3.6619L7.4703 3.6619L7.47035 3.66299C7.54358 5.23241 6.6289 6.65503 5.16427 7.23908L5.16423 7.23898L5.15907 7.24127C4.75775 7.41908 4.46022 7.8935 4.46022 8.36598V8.74776H3.15997V8.36598C3.15997 7.32215 3.77342 6.39315 4.70202 6.0371Z" fill="#fff" stroke="#5F73F1" stroke-width=".3"/></svg>