<svg width="19" height="20" viewBox="0 0 19 20" fill="none" xmlns="http://www.w3.org/2000/svg"><path d="M13.085 14.6495L13.1654 14.709L13.085 14.6495L13.085 14.6495C12.7492 15.1032 12.621 15.6796 12.7331 16.2304C12.9239 17.1698 13.769 17.8495 14.7408 17.8495C15.43 17.8495 15.9935 17.2985 15.9935 16.6168C15.9935 16.0527 16.4592 15.592 17.0377 15.592C17.616 15.592 18.0818 16.0526 18.0818 16.6172C18.0818 18.4253 16.5847 19.9 14.7408 19.9C12.7751 19.9 11.07 18.5245 10.6848 16.6321C10.4591 15.5225 10.7181 14.3607 11.395 13.4453L12.9052 11.4042L12.9054 11.4039C13.6068 10.4496 14.2246 9.02865 14.477 7.58133C14.7291 6.13608 14.6199 4.64387 13.8398 3.56403L13.8398 3.56402C13.205 2.68551 12.1577 2.15049 11.0616 2.15049C9.18555 2.15049 7.65582 3.65143 7.65582 5.50035V9.87502C7.65582 9.87603 7.65569 9.87843 7.65459 9.88653C7.65375 9.89276 7.65174 9.90608 7.65102 9.91958L7.64889 9.95936L7.6747 9.98971C8.29713 10.7216 8.67286 11.662 8.67286 12.6872C8.67286 15.0085 6.75165 16.8996 4.38665 16.8996C2.0212 16.8996 0.1 15.0085 0.1 12.6872C0.1 10.366 2.0212 8.47485 4.38665 8.47485C4.75083 8.47485 5.1038 8.52439 5.44312 8.60962L5.56748 8.64086V8.51263V5.49991C5.56748 2.52414 8.03046 0.1 11.0616 0.1C12.732 0.1 14.0073 0.594053 14.9279 1.39972C15.8493 2.20616 16.4231 3.33166 16.6769 4.60711C17.1853 7.16095 16.4068 10.2986 14.597 12.6061L14.5864 12.6195L14.5859 12.6211L14.5782 12.6316L14.5302 12.6965L14.3591 12.9278L13.8399 13.6294L13.3209 14.3307L13.1499 14.5618L13.1019 14.6266L13.0893 14.6436L13.0861 14.648L13.0853 14.6491L13.085 14.6494L13.085 14.6495ZM2.18834 12.6877C2.18834 13.8817 3.17632 14.85 4.38665 14.85C5.59701 14.85 6.58452 13.8817 6.58452 12.6877C6.58452 11.4937 5.59701 10.5253 4.38665 10.5253C3.17632 10.5253 2.18834 11.4937 2.18834 12.6877Z" fill="#5F73F1" stroke="#fff" stroke-width=".2"/></svg>