<svg width="17" height="17" viewBox="0 0 17 17" fill="none" xmlns="http://www.w3.org/2000/svg"><path fill-rule="evenodd" clip-rule="evenodd" d="M11.1569 5.31256C11.1569 6.01704 10.877 6.69266 10.3789 7.1908C9.88073 7.68895 9.2051 7.96881 8.50062 7.96881C7.79614 7.96881 7.12051 7.68895 6.62237 7.1908C6.12422 6.69266 5.84437 6.01704 5.84437 5.31256C5.84437 4.60808 6.12422 3.93244 6.62237 3.4343C7.12051 2.93616 7.79614 2.65631 8.50062 2.65631C9.2051 2.65631 9.88073 2.93616 10.3789 3.4343C10.877 3.93244 11.1569 4.60808 11.1569 5.31256ZM11.2217 8.57762C11.8924 8.01836 12.3746 7.26605 12.6027 6.42302C12.8307 5.57998 12.7934 4.68717 12.496 3.86605C12.1986 3.04493 11.6555 2.33536 10.9405 1.83387C10.2255 1.33239 9.37341 1.06335 8.50008 1.06335C7.62676 1.06335 6.77464 1.33239 6.05965 1.83387C5.34466 2.33536 4.80151 3.04493 4.50412 3.86605C4.20671 4.68717 4.16948 5.57998 4.39751 6.42302C4.62553 7.26605 5.10772 8.01836 5.77849 8.57762C4.73256 9.07211 3.84078 9.84173 3.19864 10.8041C2.55649 11.7665 2.18815 12.8853 2.13305 14.041C2.12793 14.2492 2.20454 14.4512 2.34649 14.6036C2.48843 14.7561 2.68442 14.8469 2.8925 14.8566C3.10057 14.8663 3.30417 14.7942 3.45971 14.6557C3.61525 14.5171 3.71037 14.3232 3.72468 14.1154C3.78261 12.8877 4.31107 11.7294 5.2004 10.8811C6.08971 10.0327 7.27156 9.55944 8.50062 9.55944C9.72967 9.55944 10.9115 10.0327 11.8008 10.8811C12.6902 11.7294 13.2186 12.8877 13.2766 14.1154C13.2792 14.2215 13.3029 14.326 13.3465 14.4228C13.39 14.5195 13.4525 14.6067 13.5302 14.6789C13.6078 14.7513 13.6992 14.8074 13.7988 14.8439C13.8984 14.8805 14.0044 14.8967 14.1104 14.8917C14.2164 14.8869 14.3204 14.8607 14.4162 14.815C14.5119 14.7693 14.5977 14.7051 14.6682 14.6258C14.7389 14.5465 14.7928 14.454 14.8272 14.3536C14.8616 14.2532 14.8755 14.1468 14.8682 14.041C14.8129 12.8852 14.4445 11.7663 13.8022 10.8039C13.1598 9.84152 12.2678 9.07196 11.2217 8.57762Z" fill="#fff"/></svg>