<svg width="14" height="11" viewBox="0 0 14 11" fill="none" xmlns="http://www.w3.org/2000/svg"><path d="M13.7208 7.83844L13.7942 7.76361L13.7208 7.83844C13.8309 7.95068 13.886 8.10034 13.886 8.25V8.94218C13.886 10.0085 13.0046 10.8878 11.9028 10.8878H9.16664V0.112248H11.9028C13.0046 0.112248 13.886 0.9915 13.886 2.05783V2.75C13.886 2.89966 13.8309 3.04932 13.7208 3.16157L13.7942 3.2364L13.7208 3.16157L13.1331 3.72279C12.7108 4.13436 12.4904 4.67687 12.4904 5.25681V5.72449C12.4904 6.30442 12.7291 6.86565 13.1331 7.25851L13.7208 7.81973V7.83844ZM7.77102 10.869H2.11508C1.01328 10.869 0.131836 9.9898 0.131836 8.92347V8.2313C0.131836 8.08164 0.186926 7.93198 0.297107 7.81973L0.884736 7.25851C1.30709 6.84694 1.52746 6.30442 1.52746 5.72449V5.25681C1.52746 4.67687 1.28873 4.11565 0.884736 3.72279L0.297107 3.16157C0.186926 3.04932 0.131836 2.89966 0.131836 2.75V2.05783C0.131836 0.9915 1.01328 0.112248 2.11508 0.112248H7.77102V10.8878V10.869Z" fill="#D9DADA"/><path fill="#D9DADA" d="M13.7208 7.83844L13.7942 7.76361L13.7208 7.83844ZM13.7208 7.83844C13.8309 7.95068 13.886 8.10034 13.886 8.25V8.94218C13.886 10.0085 13.0046 10.8878 11.9028 10.8878H9.16664V0.112248H11.9028C13.0046 0.112248 13.886 0.9915 13.886 2.05783V2.75C13.886 2.89966 13.8309 3.04932 13.7208 3.16157L13.7942 3.2364L13.7208 3.16157L13.1331 3.72279C12.7108 4.13436 12.4904 4.67687 12.4904 5.25681V5.72449C12.4904 6.30442 12.7291 6.86565 13.1331 7.25851L13.7208 7.81973V7.83844ZM7.77102 10.8691H2.11508C1.01328 10.8691 0.131836 9.9898 0.131836 8.92347V8.2313C0.131836 8.08164 0.186926 7.93198 0.297107 7.81973L0.884736 7.25851C1.30709 6.84694 1.52746 6.30442 1.52746 5.72449V5.25681C1.52746 4.67687 1.28873 4.11565 0.884736 3.72279L0.297107 3.16157C0.186926 3.04932 0.131836 2.89966 0.131836 2.75V2.05783C0.131836 0.9915 1.01328 0.112248 2.11508 0.112248H7.77102V10.8878V10.8691Z" stroke="#fff" stroke-width=".104" stroke-miterlimit="22.926"/></svg>