<svg width="19" height="19" viewBox="0 0 19 19" fill="none" xmlns="http://www.w3.org/2000/svg"><g clip-path="url(#clip0)" stroke="#5F73F1" stroke-linecap="round" stroke-linejoin="round"><path d="M9.2915 14.25V17.4167"/><path d="M9.2915 6.33334V9.50001"/><path d="M9.2915 0V1.58333"/><path d="M15.7835 6.33334H3.37927C3.29604 6.33336 3.21364 6.31799 3.13675 6.28813C3.05987 6.25827 2.99001 6.21449 2.93118 6.1593L0.583496 3.95834L2.93118 1.75739C2.99001 1.7022 3.05987 1.65842 3.13675 1.62856C3.21364 1.5987 3.29604 1.58333 3.37927 1.58334H15.7835C15.9515 1.58334 16.1126 1.6459 16.2313 1.75725C16.3501 1.8686 16.4168 2.01962 16.4168 2.17709V5.73959C16.4168 5.89707 16.3501 6.04809 16.2313 6.15944C16.1126 6.27079 15.9515 6.33334 15.7835 6.33334Z"/><path d="M2.8315 14.25H15.8559C15.9433 14.25 16.0299 14.2346 16.1106 14.2048C16.1913 14.1749 16.2647 14.1311 16.3264 14.076L18.7915 11.875L16.3264 9.67404C16.2647 9.61886 16.1913 9.57508 16.1106 9.54522C16.0299 9.51535 15.9433 9.49999 15.8559 9.5H2.8315C2.65514 9.5 2.48599 9.56256 2.36128 9.6739C2.23657 9.78525 2.1665 9.93628 2.1665 10.0938V13.6563C2.1665 13.8137 2.23657 13.9647 2.36128 14.0761C2.48599 14.1874 2.65514 14.25 2.8315 14.25Z"/></g><defs><clipPath id="clip0"><path fill="#fff" d="M0 0H19V19H0z"/></clipPath></defs></svg>