<svg width="14" height="14" viewBox="0 0 14 14" fill="none" xmlns="http://www.w3.org/2000/svg"><path d="M7 0C3.13418 0 0 3.13418 0 7C0 10.8598 3.14058 14 7 14C10.8655 14 14 10.8655 14 7C14 3.14024 10.8598 0 7 0ZM10.6346 8.07692H6.59615C6.56045 8.07692 6.52621 8.06274 6.50097 8.0375C6.47572 8.01225 6.46154 7.97801 6.46154 7.94231V2.28846C6.46154 2.25276 6.47572 2.21852 6.50097 2.19327C6.52621 2.16803 6.56045 2.15385 6.59615 2.15385H7.40385C7.43955 2.15385 7.47379 2.16803 7.49903 2.19327C7.52428 2.21852 7.53846 2.25276 7.53846 2.28846V7H10.6346C10.6703 7 10.7046 7.01418 10.7298 7.03943C10.755 7.06467 10.7692 7.09891 10.7692 7.13462V7.94231C10.7692 7.97801 10.755 8.01225 10.7298 8.0375C10.7046 8.06274 10.6703 8.07692 10.6346 8.07692Z" fill="#C4C4C4"/></svg>