<svg width="25" height="25" viewBox="0 0 25 25" fill="none" xmlns="http://www.w3.org/2000/svg"><path d="M8.92438 10.4699L8.9219 10.4689C8.64568 10.3599 8.48752 10.2099 8.39243 10.0326C8.29343 9.84788 8.25 9.60953 8.25 9.30481V9.28513C8.25 9.02194 8.3952 8.7477 8.63942 8.54192C8.88278 8.33686 9.19672 8.22407 9.49238 8.25513L9.49432 8.25532C9.98225 8.30272 10.2768 8.51533 10.4373 8.77283C10.6024 9.03774 10.6427 9.37802 10.5639 9.70028C10.485 10.0224 10.2928 10.3036 10.0228 10.4594C9.76001 10.6111 9.3941 10.6612 8.92438 10.4699Z" fill="#fff" stroke="#fff" stroke-width=".5"/><path d="M14.8969 14.3866L15.3453 14.2995C15.3552 14.2976 15.3658 14.2953 15.3767 14.2924C15.3867 14.2898 15.4019 14.2855 15.4187 14.2785C15.4261 14.2754 15.4357 14.271 15.4466 14.265C15.4507 14.2647 15.4551 14.2643 15.4596 14.2639L15.4667 14.2634L15.4738 14.2624C15.4954 14.2594 15.5126 14.2568 15.5264 14.2545C15.5344 14.2563 15.5434 14.2582 15.5537 14.2602L15.5626 14.2619L15.5716 14.263C16.2573 14.3452 16.62 14.8618 16.6346 15.3888C16.6489 15.9069 16.3251 16.4431 15.5636 16.561C15.094 16.6315 14.655 16.3774 14.4194 15.9798C14.1878 15.5891 14.1697 15.0878 14.5158 14.6691C14.6142 14.558 14.6913 14.4972 14.8495 14.4118C14.8667 14.4025 14.8825 14.3942 14.8969 14.3866ZM15.4813 14.2432L15.4814 14.2432L15.4813 14.2432Z" fill="#fff" stroke="#fff" stroke-width=".5"/><path d="M23.963 9.99702L22.3761 8.4102V6.16428C22.3751 5.22547 22.0018 4.3254 21.3379 3.66155C20.674 2.99771 19.774 2.62433 18.8351 2.62333H16.5906L15.0023 1.03698C14.3383 0.373009 13.4376 0 12.4986 0C11.5595 0 10.6589 0.373009 9.99484 1.03698L8.40799 2.62333H6.16487C5.22604 2.62433 4.32595 2.99771 3.6621 3.66155C2.99824 4.3254 2.62485 5.22547 2.62385 6.16428V8.40878L1.037 9.99702C0.373016 10.6611 0 11.5617 0 12.5007C0 13.4398 0.373016 14.3404 1.037 15.0044L2.62385 16.5912V18.8357C2.62485 19.7745 2.99824 20.6746 3.6621 21.3384C4.32595 22.0023 5.22604 22.3757 6.16487 22.3767H8.40941L9.99626 23.963C10.6603 24.627 11.5609 25 12.5 25C13.4391 25 14.3397 24.627 15.0037 23.963L16.5906 22.3767H18.8351C19.774 22.3757 20.674 22.0023 21.3379 21.3384C22.0018 20.6746 22.3751 19.7745 22.3761 18.8357V16.5898L23.963 15.0016C24.627 14.3375 25 13.4369 25 12.4979C25 11.5588 24.627 10.6582 23.963 9.99418V9.99702ZM22.9616 14.003L21.1675 15.7971C21.1017 15.8629 21.0496 15.941 21.014 16.0269C20.9785 16.1129 20.9602 16.205 20.9602 16.298V18.8357C20.9596 19.399 20.7355 19.939 20.3372 20.3373C19.9389 20.7356 19.3989 20.9597 18.8356 20.9603H16.2974C16.2044 20.9602 16.1123 20.9785 16.0263 21.0141C15.9404 21.0497 15.8623 21.1018 15.7965 21.1676L14.0023 22.9616C13.805 23.1589 13.5708 23.3154 13.3131 23.4222C13.0553 23.529 12.779 23.5839 12.5 23.5839C12.221 23.5839 11.9447 23.529 11.6869 23.4222C11.4292 23.3154 11.195 23.1589 10.9977 22.9616L9.20354 21.1676C9.13775 21.1018 9.05964 21.0497 8.97369 21.0141C8.88774 20.9785 8.79563 20.9602 8.70261 20.9603H6.16487C5.60158 20.9597 5.06154 20.7356 4.66323 20.3373C4.26493 19.939 4.04088 19.399 4.04026 18.8357V16.2966C4.0403 16.2036 4.02202 16.1115 3.98646 16.0255C3.95089 15.9396 3.89874 15.8615 3.83299 15.7957L2.03887 14.0016C1.84158 13.8043 1.68508 13.5701 1.57831 13.3123C1.47153 13.0546 1.41658 12.7783 1.41658 12.4993C1.41658 12.2203 1.47153 11.944 1.57831 11.6862C1.68508 11.4285 1.84158 11.1943 2.03887 10.997L3.83299 9.2029C3.89874 9.1371 3.95089 9.059 3.98646 8.97305C4.02202 8.8871 4.0403 8.79499 4.04026 8.70197V6.16428C4.04088 5.601 4.26493 5.06097 4.66323 4.66267C5.06154 4.26437 5.60158 4.04034 6.16487 4.03971H8.70261C8.79563 4.03975 8.88774 4.02147 8.97369 3.98591C9.05964 3.95035 9.13775 3.8982 9.20354 3.83245L10.9977 2.03836C11.195 1.84107 11.4292 1.68458 11.6869 1.57781C11.9447 1.47103 12.221 1.41608 12.5 1.41608C12.779 1.41608 13.0553 1.47103 13.3131 1.57781C13.5708 1.68458 13.805 1.84107 14.0023 2.03836L15.7965 3.83245C15.8623 3.8982 15.9404 3.95035 16.0263 3.98591C16.1123 4.02147 16.2044 4.03975 16.2974 4.03971H18.8351C19.3984 4.04034 19.9385 4.26437 20.3368 4.66267C20.7351 5.06097 20.9591 5.601 20.9597 6.16428V8.70197C20.9597 8.79499 20.978 8.8871 21.0135 8.97305C21.0491 9.059 21.1013 9.1371 21.167 9.2029L22.9611 10.997C23.1584 11.1943 23.3149 11.4285 23.4217 11.6862C23.5285 11.944 23.5834 12.2203 23.5834 12.4993C23.5834 12.7783 23.5285 13.0546 23.4217 13.3123C23.3149 13.5701 23.1584 13.8043 22.9611 14.0016L22.9616 14.003ZM16.8031 9.1977L9.19835 16.8023C9.06478 16.9313 8.88589 17.0026 8.7002 17.001C8.51451 16.9994 8.33688 16.9249 8.20557 16.7936C8.07427 16.6623 7.99979 16.4847 7.99817 16.299C7.99656 16.1133 8.06794 15.9344 8.19695 15.8009L15.8017 8.19632C15.9352 8.06732 16.1141 7.99594 16.2998 7.99755C16.4855 7.99916 16.6631 8.07364 16.7944 8.20495C16.9257 8.33625 17.0002 8.51388 17.0018 8.69956C17.0034 8.88525 16.9321 9.06414 16.8031 9.1977Z" fill="#fff"/></svg>