<svg width="26" height="25" viewBox="0 0 26 25" fill="none" xmlns="http://www.w3.org/2000/svg"><path d="M19.4886 12.6742V12.8516L19.6404 12.7598L23.5827 10.376C23.5829 10.3759 23.5831 10.3758 23.5832 10.3757C23.8638 10.2109 24.1935 10.2104 24.4757 10.3598C24.7524 10.5063 24.9177 10.8009 24.9177 11.1152V14.7285V15.4622V15.4806V15.5356V20.3595V20.3778V21.4784V22.5789C24.9177 22.8931 24.7524 23.1877 24.4757 23.3342C24.1923 23.4843 23.8454 23.4822 23.5851 23.3194L23.5832 23.3183L19.6398 20.9706L19.4886 20.8806V21.0565V21.0932C19.4886 23.184 17.7726 24.9 15.6819 24.9H3.90672C1.81601 24.9 0.1 23.184 0.1 21.0932V12.6926C0.1 11.4773 0.671814 10.3871 1.5655 9.69L1.66064 9.61579L1.57006 9.53608C0.673866 8.74741 0.1 7.56389 0.1 6.27293C0.1 3.85226 2.07252 1.89751 4.47531 1.89751C6.573 1.89751 8.33033 3.38579 8.74268 5.35796L8.94057 5.33812C8.95856 2.45825 11.3168 0.1 14.2146 0.1C17.1305 0.1 19.4886 2.47613 19.4886 5.37417C19.4886 6.93997 18.8049 8.3438 17.7066 9.31617L17.6077 9.40366L17.7187 9.47512C18.7744 10.1551 19.4886 11.3351 19.4886 12.6742ZM23.0224 20.8856L23.1735 20.9756V20.7997V20.3228V20.3045V20.2495V15.4255V15.4072V14.6735V12.7843V12.607L23.0218 12.6987L19.0794 15.0826C19.0793 15.0826 19.0791 15.0827 19.0789 15.0828C18.7983 15.2477 18.4686 15.2481 18.1865 15.0987C17.9098 14.9522 17.7444 14.6576 17.7444 14.3434V12.6376C17.7444 11.5191 16.8382 10.5933 15.7003 10.5933H3.92506C2.80665 10.5933 1.88087 11.4996 1.88087 12.6376V21.0382C1.88087 22.1566 2.78708 23.0824 3.92506 23.0824H15.7003C16.8187 23.0824 17.7444 22.1762 17.7444 21.0382V19.2773C17.7444 18.9631 17.9098 18.6685 18.1865 18.522C18.4699 18.3719 18.8168 18.374 19.0771 18.5368L19.0789 18.5379L23.0224 20.8856ZM8.09774 8.69262L7.99069 8.84908H8.18027H10.0878H10.302L10.1644 8.68486C9.60644 8.01884 9.21078 7.20921 9.04897 6.32823L8.85064 6.34421C8.83271 7.2048 8.56386 8.01135 8.09774 8.69262ZM1.88087 6.23624C1.88087 7.66664 3.044 8.84908 4.49365 8.84908C5.92401 8.84908 7.10642 7.68593 7.10642 6.23624C7.10642 4.80585 5.9433 3.6234 4.49365 3.6234C3.06329 3.6234 1.88087 4.78656 1.88087 6.23624ZM10.7214 5.33749C10.7214 7.26324 12.2882 8.84908 14.2329 8.84908C16.1586 8.84908 17.7444 7.28228 17.7444 5.33749C17.7444 3.41174 16.1777 1.8259 14.2329 1.8259C12.3072 1.8259 10.7214 3.3927 10.7214 5.33749Z" fill="#fff" stroke="#fff" stroke-width=".2"/></svg>