<svg width="25" height="25" viewBox="0 0 25 25" fill="none" xmlns="http://www.w3.org/2000/svg"><mask id="path-1-inside-1" fill="#fff"><path d="M12.5 7.5C11.5111 7.5 10.5444 7.79325 9.72216 8.34265C8.89991 8.89206 8.25904 9.67296 7.88061 10.5866C7.50217 11.5002 7.40315 12.5056 7.59608 13.4755C7.789 14.4454 8.26521 15.3363 8.96447 16.0356C9.66374 16.7348 10.5547 17.211 11.5246 17.4039C12.4945 17.5969 13.4998 17.4979 14.4134 17.1194C15.3271 16.741 16.108 16.1001 16.6574 15.2779C17.2068 14.4556 17.5 13.4889 17.5 12.5C17.4986 11.1744 16.9714 9.90341 16.034 8.96603C15.0966 8.02865 13.8257 7.50141 12.5 7.5ZM12.5 16.25C11.7583 16.25 11.0333 16.0301 10.4166 15.618C9.79994 15.206 9.31929 14.6203 9.03546 13.9351C8.75163 13.2499 8.67737 12.4959 8.82206 11.7684C8.96676 11.041 9.32391 10.3728 9.84836 9.84835C10.3728 9.32391 11.041 8.96675 11.7684 8.82206C12.4959 8.67736 13.2499 8.75163 13.9351 9.03545C14.6203 9.31928 15.206 9.79993 15.618 10.4166C16.0301 11.0333 16.25 11.7583 16.25 12.5C16.2489 13.4942 15.8535 14.4474 15.1505 15.1505C14.4474 15.8535 13.4942 16.2489 12.5 16.25Z"/></mask><path d="M12.5 7.5C11.5111 7.5 10.5444 7.79325 9.72216 8.34265C8.89991 8.89206 8.25904 9.67296 7.88061 10.5866C7.50217 11.5002 7.40315 12.5056 7.59608 13.4755C7.789 14.4454 8.26521 15.3363 8.96447 16.0356C9.66374 16.7348 10.5547 17.211 11.5246 17.4039C12.4945 17.5969 13.4998 17.4979 14.4134 17.1194C15.3271 16.741 16.108 16.1001 16.6574 15.2779C17.2068 14.4556 17.5 13.4889 17.5 12.5C17.4986 11.1744 16.9714 9.90341 16.034 8.96603C15.0966 8.02865 13.8257 7.50141 12.5 7.5ZM12.5 16.25C11.7583 16.25 11.0333 16.0301 10.4166 15.618C9.79994 15.206 9.31929 14.6203 9.03546 13.9351C8.75163 13.2499 8.67737 12.4959 8.82206 11.7684C8.96676 11.041 9.32391 10.3728 9.84836 9.84835C10.3728 9.32391 11.041 8.96675 11.7684 8.82206C12.4959 8.67736 13.2499 8.75163 13.9351 9.03545C14.6203 9.31928 15.206 9.79993 15.618 10.4166C16.0301 11.0333 16.25 11.7583 16.25 12.5C16.2489 13.4942 15.8535 14.4474 15.1505 15.1505C14.4474 15.8535 13.4942 16.2489 12.5 16.25Z" fill="#5B9B60"/><path d="M17.5 12.5H20.5L20.5 12.4968L17.5 12.5ZM12.5 16.25V19.25L12.5033 19.25L12.5 16.25ZM16.25 12.5L19.25 12.5033V12.5H16.25ZM12.5 4.5C10.9178 4.5 9.37104 4.96919 8.05545 5.84825L11.3889 10.8371C11.7178 10.6173 12.1045 10.5 12.5 10.5V4.5ZM8.05545 5.84825C6.73985 6.7273 5.71447 7.97673 5.10897 9.43854L10.6522 11.7346C10.8036 11.3692 11.06 11.0568 11.3889 10.8371L8.05545 5.84825ZM5.10897 9.43854C4.50346 10.9004 4.34504 12.5089 4.65372 14.0607L10.5384 12.8902C10.4613 12.5022 10.5009 12.1001 10.6522 11.7346L5.10897 9.43854ZM4.65372 14.0607C4.9624 15.6126 5.72433 17.0381 6.84315 18.1569L11.0858 13.9142C10.8061 13.6345 10.6156 13.2782 10.5384 12.8902L4.65372 14.0607ZM6.84315 18.1569C7.96197 19.2757 9.38744 20.0376 10.9393 20.3463L12.1098 14.4616C11.7219 14.3844 11.3655 14.1939 11.0858 13.9142L6.84315 18.1569ZM10.9393 20.3463C12.4911 20.655 14.0997 20.4966 15.5615 19.8911L13.2654 14.3478C12.8999 14.4992 12.4978 14.5388 12.1098 14.4616L10.9393 20.3463ZM15.5615 19.8911C17.0233 19.2856 18.2727 18.2602 19.1518 16.9446L14.163 13.6112C13.9432 13.9401 13.6308 14.1964 13.2654 14.3478L15.5615 19.8911ZM19.1518 16.9446C20.0308 15.629 20.5 14.0823 20.5 12.5H14.5C14.5 12.8956 14.3827 13.2823 14.163 13.6112L19.1518 16.9446ZM20.5 12.4968C20.4978 10.3766 19.6545 8.34391 18.1553 6.84471L13.9127 11.0874C14.2882 11.4629 14.4995 11.9721 14.5 12.5032L20.5 12.4968ZM18.1553 6.84471C16.6561 5.34551 14.6234 4.50226 12.5032 4.5L12.4968 10.5C13.0279 10.5006 13.5371 10.7118 13.9127 11.0874L18.1553 6.84471ZM12.5 13.25C12.3517 13.25 12.2067 13.206 12.0833 13.1236L8.74991 18.1124C9.85994 18.8541 11.165 19.25 12.5 19.25V13.25ZM12.0833 13.1236C11.96 13.0412 11.8639 12.9241 11.8071 12.787L6.26382 15.0831C6.77471 16.3165 7.63988 17.3707 8.74991 18.1124L12.0833 13.1236ZM11.8071 12.787C11.7503 12.65 11.7355 12.4992 11.7644 12.3537L5.8797 11.1832C5.61925 12.4925 5.75293 13.8497 6.26382 15.0831L11.8071 12.787ZM11.7644 12.3537C11.7934 12.2082 11.8648 12.0746 11.9697 11.9697L7.72704 7.72703C6.78303 8.67104 6.14016 9.87378 5.8797 11.1832L11.7644 12.3537ZM11.9697 11.9697C12.0746 11.8648 12.2082 11.7934 12.3537 11.7644L11.1832 5.8797C9.87378 6.14015 8.67104 6.78303 7.72704 7.72703L11.9697 11.9697ZM12.3537 11.7644C12.4992 11.7355 12.65 11.7503 12.787 11.8071L15.0831 6.26382C13.8497 5.75292 12.4925 5.61925 11.1832 5.8797L12.3537 11.7644ZM12.787 11.8071C12.9241 11.8639 13.0412 11.96 13.1236 12.0833L18.1124 8.74991C17.3707 7.63987 16.3165 6.77471 15.0831 6.26382L12.787 11.8071ZM13.1236 12.0833C13.206 12.2067 13.25 12.3517 13.25 12.5H19.25C19.25 11.165 18.8541 9.85994 18.1124 8.74991L13.1236 12.0833ZM13.25 12.4967C13.2498 12.6965 13.1704 12.8879 13.0292 13.0292L17.2718 17.2718C18.5366 16.007 19.2481 14.292 19.25 12.5033L13.25 12.4967ZM13.0292 13.0292C12.8879 13.1704 12.6965 13.2498 12.4967 13.25L12.5033 19.25C14.292 19.2481 16.007 18.5366 17.2718 17.2718L13.0292 13.0292Z" fill="#fff" mask="url(#path-1-inside-1)"/><mask id="path-3-inside-2" fill="#fff"><path d="M22.9664 9.6179C22.7278 9.53317 22.5098 9.39931 22.3262 9.22497C22.1427 9.05064 21.9978 8.83972 21.9009 8.60586C21.804 8.372 21.7573 8.12041 21.7638 7.86735C21.7703 7.6143 21.8298 7.36543 21.9385 7.13683C22.2098 6.5664 22.2978 5.92598 22.1904 5.30353C22.083 4.68109 21.7856 4.10715 21.3389 3.66055C20.8923 3.21395 20.3183 2.91659 19.6958 2.80933C19.0733 2.70207 18.4329 2.79017 17.8626 3.06151C17.634 3.17024 17.3852 3.22978 17.1322 3.23626C16.8791 3.24274 16.6276 3.19603 16.3938 3.09914C16.1599 3.00225 15.9491 2.85735 15.7748 2.67381C15.6005 2.49027 15.4667 2.27218 15.3821 2.03366C15.1702 1.43856 14.7794 0.92361 14.2632 0.55949C13.747 0.19537 13.1308 -6.84597e-05 12.4991 1.79887e-08C11.8675 6.84956e-05 11.2513 0.195641 10.7352 0.559872C10.2191 0.924104 9.82837 1.43914 9.61666 2.03429C9.53209 2.27271 9.3984 2.49072 9.22422 2.67419C9.05005 2.85766 8.83929 3.0025 8.60558 3.09934C8.37187 3.19618 8.12043 3.24285 7.86753 3.23633C7.61464 3.22981 7.36594 3.17025 7.13752 3.06151C6.56707 2.79015 5.92659 2.70208 5.30407 2.80938C4.68154 2.91669 4.10751 3.21411 3.66083 3.66079C3.21414 4.10747 2.91672 4.68151 2.80942 5.30403C2.70211 5.92656 2.79019 6.56704 3.06155 7.13749C3.17016 7.36598 3.22964 7.61472 3.23613 7.86763C3.24262 8.12055 3.19598 8.37201 3.09923 8.60577C3.00248 8.83954 2.85776 9.05041 2.67444 9.22476C2.49111 9.39911 2.27324 9.53306 2.03492 9.61796C1.4397 9.82939 0.924537 10.2199 0.560177 10.7359C0.195818 11.2519 0.000133622 11.868 6.84078e-08 12.4996C-0.000133485 13.1313 0.19529 13.7475 0.559432 14.2636C0.923573 14.7797 1.43857 15.1705 2.0337 15.3822C2.27223 15.4669 2.49032 15.6008 2.67386 15.7751C2.8574 15.9494 3.00229 16.1603 3.09918 16.3942C3.19606 16.6281 3.24277 16.8797 3.23629 17.1327C3.22981 17.3858 3.17028 17.6346 3.06155 17.8632C2.79031 18.4337 2.70234 19.0741 2.80971 19.6965C2.91708 20.3189 3.21453 20.8929 3.6612 21.3395C4.10786 21.786 4.68184 22.0834 5.3043 22.1906C5.92675 22.2979 6.56715 22.2098 7.13752 21.9385C7.36608 21.8298 7.61491 21.7702 7.86792 21.7637C8.12094 21.7573 8.37249 21.804 8.60631 21.9009C8.84013 21.9977 9.051 22.1427 9.22527 22.3262C9.39955 22.5097 9.53334 22.7278 9.618 22.9663C9.82984 23.5614 10.2207 24.0764 10.7368 24.4405C11.253 24.8046 11.8692 25.0001 12.5009 25C13.1326 24.9999 13.7488 24.8044 14.2649 24.4401C14.781 24.0759 15.1717 23.5609 15.3834 22.9657C15.468 22.7273 15.6017 22.5093 15.7759 22.3258C15.95 22.1423 16.1608 21.9975 16.3945 21.9007C16.6282 21.8038 16.8796 21.7572 17.1325 21.7637C17.3854 21.7702 17.6341 21.8297 17.8626 21.9385C18.433 22.2099 19.0735 22.2979 19.696 22.1906C20.3185 22.0833 20.8926 21.7859 21.3392 21.3392C21.7859 20.8925 22.0834 20.3185 22.1907 19.696C22.298 19.0734 22.2099 18.433 21.9385 17.8625C21.8299 17.634 21.7704 17.3853 21.7639 17.1324C21.7575 16.8795 21.8041 16.628 21.9008 16.3942C21.9976 16.1605 22.1423 15.9496 22.3256 15.7752C22.509 15.6009 22.7268 15.4669 22.9652 15.382C23.5604 15.1706 24.0755 14.7801 24.4399 14.2641C24.8043 13.7481 24.9999 13.132 25.0001 12.5004C25.0002 11.8687 24.8048 11.2525 24.4406 10.7364C24.0765 10.2203 23.5615 9.82952 22.9664 9.61784V9.6179ZM22.5464 14.2041C22.1433 14.3476 21.7748 14.5741 21.4647 14.869C21.1546 15.1638 20.9099 15.5205 20.7463 15.9158C20.5827 16.3112 20.5039 16.7365 20.5149 17.1643C20.526 17.592 20.6268 18.0127 20.8106 18.3991C20.9708 18.7365 21.0226 19.1152 20.959 19.4832C20.8954 19.8512 20.7195 20.1906 20.4553 20.4546C20.1912 20.7187 19.8518 20.8945 19.4838 20.9581C19.1157 21.0216 18.7371 20.9696 18.3997 20.8094C18.0132 20.6255 17.5925 20.5249 17.1646 20.5139C16.7368 20.503 16.3114 20.582 15.916 20.7458C15.5206 20.9097 15.1641 21.1547 14.8694 21.4651C14.5747 21.7755 14.3485 22.1443 14.2054 22.5476C14.08 22.8994 13.8489 23.2038 13.5438 23.4191C13.2386 23.6343 12.8743 23.7499 12.5009 23.75C12.1274 23.75 11.7631 23.6346 11.4579 23.4194C11.1526 23.2043 10.9214 22.9 10.796 22.5482C10.6524 22.1451 10.4259 21.7765 10.1311 21.4662C9.83625 21.156 9.47964 20.9111 9.08427 20.7472C8.6889 20.5833 8.26357 20.5042 7.83573 20.5149C7.40788 20.5256 6.98704 20.626 6.60037 20.8094C6.26308 20.9697 5.88444 21.0217 5.51642 20.9583C5.1484 20.8948 4.80904 20.719 4.5449 20.455C4.28077 20.191 4.10481 19.8517 4.04117 19.4838C3.97754 19.1158 4.02935 18.7371 4.18949 18.3997C4.37345 18.0133 4.47422 17.5925 4.48529 17.1646C4.49636 16.7367 4.41747 16.3112 4.25374 15.9158C4.09 15.5203 3.84506 15.1636 3.53477 14.8687C3.22447 14.5739 2.85574 14.3475 2.45242 14.2042C2.10061 14.079 1.79616 13.848 1.58087 13.5429C1.36558 13.2378 1.25 12.8735 1.25 12.5001C1.25 12.1266 1.36558 11.7624 1.58087 11.4573C1.79616 11.1521 2.10061 10.9211 2.45242 10.796H2.45364C2.85676 10.6525 3.22528 10.426 3.53537 10.1311C3.84546 9.83624 4.09022 9.47959 4.25382 9.0842C4.41743 8.68881 4.49624 8.26349 4.48515 7.83574C4.47407 7.40798 4.37335 6.98731 4.18949 6.60092C4.02932 6.26353 3.97749 5.88484 4.04109 5.51681C4.1047 5.14879 4.28064 4.80946 4.54476 4.5454C4.80889 4.28134 5.14825 4.10548 5.51629 4.04196C5.88433 3.97844 6.26301 4.03036 6.60037 4.19061C6.98685 4.37446 7.40762 4.47512 7.83546 4.48607C8.26331 4.49701 8.68868 4.418 9.08406 4.25415C9.47943 4.0903 9.836 3.84526 10.1307 3.53489C10.4254 3.22451 10.6516 2.85572 10.7947 2.45238C10.9201 2.1006 11.1512 1.79621 11.4563 1.58095C11.7615 1.36569 12.1257 1.2501 12.4992 1.25003C12.8726 1.24996 13.237 1.36542 13.5422 1.58057C13.8474 1.79572 14.0786 2.10003 14.2041 2.45176C14.3473 2.85518 14.5737 3.22404 14.8684 3.53447C15.1632 3.84491 15.5199 4.09 15.9153 4.25391C16.3108 4.41781 16.7363 4.49686 17.1642 4.48596C17.5922 4.47506 18.0131 4.37444 18.3997 4.19061C18.737 4.0303 19.1156 3.97831 19.4836 4.04176C19.8517 4.10521 20.191 4.281 20.4552 4.545C20.7193 4.809 20.8953 5.14827 20.9589 5.51625C21.0225 5.88423 20.9707 6.2629 20.8106 6.60027C20.6267 6.98675 20.5259 7.40755 20.5148 7.83543C20.5037 8.26332 20.5826 8.68877 20.7463 9.08425C20.9101 9.47972 21.155 9.83642 21.4653 10.1313C21.7756 10.4261 22.1443 10.6525 22.5477 10.7958C22.8996 10.921 23.2041 11.1521 23.4194 11.4573C23.6347 11.7625 23.7502 12.1269 23.7501 12.5004C23.75 12.8739 23.6342 13.2382 23.4186 13.5432C23.2031 13.8483 22.8984 14.0791 22.5464 14.204V14.2041Z"/></mask><path d="M22.9664 9.6179C22.7278 9.53317 22.5098 9.39931 22.3262 9.22497C22.1427 9.05064 21.9978 8.83972 21.9009 8.60586C21.804 8.372 21.7573 8.12041 21.7638 7.86735C21.7703 7.6143 21.8298 7.36543 21.9385 7.13683C22.2098 6.5664 22.2978 5.92598 22.1904 5.30353C22.083 4.68109 21.7856 4.10715 21.3389 3.66055C20.8923 3.21395 20.3183 2.91659 19.6958 2.80933C19.0733 2.70207 18.4329 2.79017 17.8626 3.06151C17.634 3.17024 17.3852 3.22978 17.1322 3.23626C16.8791 3.24274 16.6276 3.19603 16.3938 3.09914C16.1599 3.00225 15.9491 2.85735 15.7748 2.67381C15.6005 2.49027 15.4667 2.27218 15.3821 2.03366C15.1702 1.43856 14.7794 0.92361 14.2632 0.55949C13.747 0.19537 13.1308 -6.84597e-05 12.4991 1.79887e-08C11.8675 6.84956e-05 11.2513 0.195641 10.7352 0.559872C10.2191 0.924104 9.82837 1.43914 9.61666 2.03429C9.53209 2.27271 9.3984 2.49072 9.22422 2.67419C9.05005 2.85766 8.83929 3.0025 8.60558 3.09934C8.37187 3.19618 8.12043 3.24285 7.86753 3.23633C7.61464 3.22981 7.36594 3.17025 7.13752 3.06151C6.56707 2.79015 5.92659 2.70208 5.30407 2.80938C4.68154 2.91669 4.10751 3.21411 3.66083 3.66079C3.21414 4.10747 2.91672 4.68151 2.80942 5.30403C2.70211 5.92656 2.79019 6.56704 3.06155 7.13749C3.17016 7.36598 3.22964 7.61472 3.23613 7.86763C3.24262 8.12055 3.19598 8.37201 3.09923 8.60577C3.00248 8.83954 2.85776 9.05041 2.67444 9.22476C2.49111 9.39911 2.27324 9.53306 2.03492 9.61796C1.4397 9.82939 0.924537 10.2199 0.560177 10.7359C0.195818 11.2519 0.000133622 11.868 6.84078e-08 12.4996C-0.000133485 13.1313 0.19529 13.7475 0.559432 14.2636C0.923573 14.7797 1.43857 15.1705 2.0337 15.3822C2.27223 15.4669 2.49032 15.6008 2.67386 15.7751C2.8574 15.9494 3.00229 16.1603 3.09918 16.3942C3.19606 16.6281 3.24277 16.8797 3.23629 17.1327C3.22981 17.3858 3.17028 17.6346 3.06155 17.8632C2.79031 18.4337 2.70234 19.0741 2.80971 19.6965C2.91708 20.3189 3.21453 20.8929 3.6612 21.3395C4.10786 21.786 4.68184 22.0834 5.3043 22.1906C5.92675 22.2979 6.56715 22.2098 7.13752 21.9385C7.36608 21.8298 7.61491 21.7702 7.86792 21.7637C8.12094 21.7573 8.37249 21.804 8.60631 21.9009C8.84013 21.9977 9.051 22.1427 9.22527 22.3262C9.39955 22.5097 9.53334 22.7278 9.618 22.9663C9.82984 23.5614 10.2207 24.0764 10.7368 24.4405C11.253 24.8046 11.8692 25.0001 12.5009 25C13.1326 24.9999 13.7488 24.8044 14.2649 24.4401C14.781 24.0759 15.1717 23.5609 15.3834 22.9657C15.468 22.7273 15.6017 22.5093 15.7759 22.3258C15.95 22.1423 16.1608 21.9975 16.3945 21.9007C16.6282 21.8038 16.8796 21.7572 17.1325 21.7637C17.3854 21.7702 17.6341 21.8297 17.8626 21.9385C18.433 22.2099 19.0735 22.2979 19.696 22.1906C20.3185 22.0833 20.8926 21.7859 21.3392 21.3392C21.7859 20.8925 22.0834 20.3185 22.1907 19.696C22.298 19.0734 22.2099 18.433 21.9385 17.8625C21.8299 17.634 21.7704 17.3853 21.7639 17.1324C21.7575 16.8795 21.8041 16.628 21.9008 16.3942C21.9976 16.1605 22.1423 15.9496 22.3256 15.7752C22.509 15.6009 22.7268 15.4669 22.9652 15.382C23.5604 15.1706 24.0755 14.7801 24.4399 14.2641C24.8043 13.7481 24.9999 13.132 25.0001 12.5004C25.0002 11.8687 24.8048 11.2525 24.4406 10.7364C24.0765 10.2203 23.5615 9.82952 22.9664 9.61784V9.6179ZM22.5464 14.2041C22.1433 14.3476 21.7748 14.5741 21.4647 14.869C21.1546 15.1638 20.9099 15.5205 20.7463 15.9158C20.5827 16.3112 20.5039 16.7365 20.5149 17.1643C20.526 17.592 20.6268 18.0127 20.8106 18.3991C20.9708 18.7365 21.0226 19.1152 20.959 19.4832C20.8954 19.8512 20.7195 20.1906 20.4553 20.4546C20.1912 20.7187 19.8518 20.8945 19.4838 20.9581C19.1157 21.0216 18.7371 20.9696 18.3997 20.8094C18.0132 20.6255 17.5925 20.5249 17.1646 20.5139C16.7368 20.503 16.3114 20.582 15.916 20.7458C15.5206 20.9097 15.1641 21.1547 14.8694 21.4651C14.5747 21.7755 14.3485 22.1443 14.2054 22.5476C14.08 22.8994 13.8489 23.2038 13.5438 23.4191C13.2386 23.6343 12.8743 23.7499 12.5009 23.75C12.1274 23.75 11.7631 23.6346 11.4579 23.4194C11.1526 23.2043 10.9214 22.9 10.796 22.5482C10.6524 22.1451 10.4259 21.7765 10.1311 21.4662C9.83625 21.156 9.47964 20.9111 9.08427 20.7472C8.6889 20.5833 8.26357 20.5042 7.83573 20.5149C7.40788 20.5256 6.98704 20.626 6.60037 20.8094C6.26308 20.9697 5.88444 21.0217 5.51642 20.9583C5.1484 20.8948 4.80904 20.719 4.5449 20.455C4.28077 20.191 4.10481 19.8517 4.04117 19.4838C3.97754 19.1158 4.02935 18.7371 4.18949 18.3997C4.37345 18.0133 4.47422 17.5925 4.48529 17.1646C4.49636 16.7367 4.41747 16.3112 4.25374 15.9158C4.09 15.5203 3.84506 15.1636 3.53477 14.8687C3.22447 14.5739 2.85574 14.3475 2.45242 14.2042C2.10061 14.079 1.79616 13.848 1.58087 13.5429C1.36558 13.2378 1.25 12.8735 1.25 12.5001C1.25 12.1266 1.36558 11.7624 1.58087 11.4573C1.79616 11.1521 2.10061 10.9211 2.45242 10.796H2.45364C2.85676 10.6525 3.22528 10.426 3.53537 10.1311C3.84546 9.83624 4.09022 9.47959 4.25382 9.0842C4.41743 8.68881 4.49624 8.26349 4.48515 7.83574C4.47407 7.40798 4.37335 6.98731 4.18949 6.60092C4.02932 6.26353 3.97749 5.88484 4.04109 5.51681C4.1047 5.14879 4.28064 4.80946 4.54476 4.5454C4.80889 4.28134 5.14825 4.10548 5.51629 4.04196C5.88433 3.97844 6.26301 4.03036 6.60037 4.19061C6.98685 4.37446 7.40762 4.47512 7.83546 4.48607C8.26331 4.49701 8.68868 4.418 9.08406 4.25415C9.47943 4.0903 9.836 3.84526 10.1307 3.53489C10.4254 3.22451 10.6516 2.85572 10.7947 2.45238C10.9201 2.1006 11.1512 1.79621 11.4563 1.58095C11.7615 1.36569 12.1257 1.2501 12.4992 1.25003C12.8726 1.24996 13.237 1.36542 13.5422 1.58057C13.8474 1.79572 14.0786 2.10003 14.2041 2.45176C14.3473 2.85518 14.5737 3.22404 14.8684 3.53447C15.1632 3.84491 15.5199 4.09 15.9153 4.25391C16.3108 4.41781 16.7363 4.49686 17.1642 4.48596C17.5922 4.47506 18.0131 4.37444 18.3997 4.19061C18.737 4.0303 19.1156 3.97831 19.4836 4.04176C19.8517 4.10521 20.191 4.281 20.4552 4.545C20.7193 4.809 20.8953 5.14827 20.9589 5.51625C21.0225 5.88423 20.9707 6.2629 20.8106 6.60027C20.6267 6.98675 20.5259 7.40755 20.5148 7.83543C20.5037 8.26332 20.5826 8.68877 20.7463 9.08425C20.9101 9.47972 21.155 9.83642 21.4653 10.1313C21.7756 10.4261 22.1443 10.6525 22.5477 10.7958C22.8996 10.921 23.2041 11.1521 23.4194 11.4573C23.6347 11.7625 23.7502 12.1269 23.7501 12.5004C23.75 12.8739 23.6342 13.2382 23.4186 13.5432C23.2031 13.8483 22.8984 14.0791 22.5464 14.204V14.2041Z" fill="#fff" stroke="#fff" stroke-width="6" mask="url(#path-3-inside-2)"/></svg>