<svg width="20" height="20" viewBox="0 0 20 20" fill="none" xmlns="http://www.w3.org/2000/svg"><path d="M10 1.87469C6.89453 1.87469 4.375 4.27274 4.375 7.22626C4.375 10.6247 8.125 16.0102 9.50195 17.8704C9.55911 17.9489 9.63402 18.0128 9.72058 18.0569C9.80713 18.1009 9.90288 18.1239 10 18.1239C10.0971 18.1239 10.1929 18.1009 10.2794 18.0569C10.366 18.0128 10.4409 17.9489 10.498 17.8704C11.875 16.011 15.625 10.6274 15.625 7.22626C15.625 4.27274 13.1055 1.87469 10 1.87469Z" stroke="#5F73F1" stroke-width="1.8" stroke-linecap="round" fill="#fff" stroke-linejoin="round"/><path d="M10 9.375C11.0355 9.375 11.875 8.53553 11.875 7.5C11.875 6.46447 11.0355 5.625 10 5.625C8.96447 5.625 8.125 6.46447 8.125 7.5C8.125 8.53553 8.96447 9.375 10 9.375Z" stroke="#5F73F1" stroke-width="1.8" stroke-linecap="round" fill="#fff" stroke-linejoin="round"/></svg>