<svg xmlns:dc="http://purl.org/dc/elements/1.1/" xmlns:cc="http://creativecommons.org/ns#" xmlns:rdf="http://www.w3.org/1999/02/22-rdf-syntax-ns#" xmlns:svg="http://www.w3.org/2000/svg" xmlns="http://www.w3.org/2000/svg" xmlns:sodipodi="http://sodipodi.sourceforge.net/DTD/sodipodi-0.dtd" xmlns:inkscape="http://www.inkscape.org/namespaces/inkscape" width="64" height="26" viewBox="0 0 64 26" fill="none" version="1.1" id="svg4" sodipodi:docname="1.svg" inkscape:version="0.92.5 (2060ec1f9f, 2020-04-08)">
  <metadata id="metadata10">
    <rdf:RDF>
      <cc:Work rdf:about="">
        <dc:format>image/svg+xml</dc:format>
        <dc:type rdf:resource="http://purl.org/dc/dcmitype/StillImage"/>
      </cc:Work>
    </rdf:RDF>
  </metadata>
  <defs id="defs8"/>
  <sodipodi:namedview pagecolor="#EFEFEF" bordercolor="#666666" borderopacity="1" objecttolerance="10" gridtolerance="10" guidetolerance="10" inkscape:pageopacity="0" inkscape:pageshadow="2" inkscape:window-width="1920" inkscape:window-height="1019" id="namedview6" showgrid="false" inkscape:zoom="17.375" inkscape:cx="26.612492" inkscape:cy="14.532356" inkscape:window-x="0" inkscape:window-y="0" inkscape:window-maximized="1" inkscape:current-layer="svg4"/>
  <path d="M 63.9973,-0.5693984 0.00300825,-0.569404 1.56331,-0.1221101 c 0.39335,0.157868 0.77797,0.315737 1.1451,0.482375 2.91956,1.29364 4.86448,2.80654 6.70013,5.06932 1.83566,2.2671601 3.56636,5.2841601 5.18786,7.8758601 1.6215,2.5873 3.1338,4.7448 4.9738,6.6875 1.8356,1.9426 3.9991,3.666 6.1625,4.5299 3.0201,1.206 9.9169,1.206 12.9326,0 2.1635,-0.8639 4.3269,-2.5873 6.1626,-4.5299 1.8356,-1.9427 3.3522,-4.1002 4.9737,-6.6875 1.6215,-2.5873 3.3523,-5.60869 5.1879,-7.8758601 1.8357,-2.26716 3.785,-3.77567 6.7045,-5.069315 0.7255,-0.32012 1.5122,-0.631474 2.3033,-0.9296683 z" id="path2" style="clip-rule:evenodd;fill:#EFEFEF;fill-opacity:1;fill-rule:evenodd;stroke:#c4c4c4;stroke-opacity:1" inkscape:connector-curvature="0"/>
</svg>