<svg width="25" height="20" viewBox="0 0 25 20" fill="none" xmlns="http://www.w3.org/2000/svg">
<path d="M24.495 13.7533L24.6328 13.6104L24.4951 13.7533C24.6912 13.9424 24.8 14.1973 24.8 14.4614L24.8 15.6666C24.8 17.546 23.2176 19.0819 21.25 19.0819L3.75 19.0819C1.78243 19.0819 0.2 17.546 0.2 15.6666L0.2 14.4614C0.2 14.1973 0.30879 13.9424 0.504947 13.7533L1.54045 12.7549C2.28198 12.04 2.7 11.0688 2.7 10.0545L2.7 9.22743C2.7 8.21313 2.28198 7.24189 1.54045 6.52698L0.504949 5.52863C0.30879 5.33951 0.200001 5.08463 0.200001 4.82048L0.200001 3.61536C0.200001 1.73594 1.78243 0.199999 3.75 0.199999L21.25 0.2C23.2176 0.2 24.8 1.73594 24.8 3.61536L24.8 4.82048C24.8 5.08463 24.6912 5.33951 24.4951 5.52863L24.6334 5.67208L24.495 5.52863L23.4595 6.52699C22.718 7.24189 22.3 8.21313 22.3 9.22743L22.3 10.0545C22.3 11.0688 22.718 12.04 23.4596 12.7549L24.495 13.7533ZM22.6389 4.46422L22.7 4.40525L22.7 4.32034L22.7 3.61536C22.7 2.8886 22.1339 2.29974 21.418 2.21957L21.4181 2.21926L21.4068 2.21864L21.2611 2.21055L21.2611 2.21024L21.25 2.21024L16.25 2.21024L16.05 2.21024L16.05 2.41024L16.05 4.82048C16.05 5.36876 15.5869 5.8256 15 5.8256C14.4131 5.8256 13.95 5.36876 13.95 4.82048L13.95 2.41024L13.95 2.21024L13.75 2.21024L3.75 2.21024C2.95614 2.21024 2.3 2.8325 2.3 3.61536L2.3 4.31917L2.3 4.40396L2.36095 4.46292L3.03035 5.11042L3.03059 5.11065C4.08818 6.13027 4.71225 7.48739 4.79142 8.91706L4.8 9.23013L4.8 10.0545C4.8 11.5971 4.16442 13.0781 3.03059 14.1712L3.03048 14.1713L2.36108 14.8177L2.3 14.8766L2.3 14.9615L2.3 15.6666C2.3 16.3933 2.86609 16.9822 3.58198 17.0623L3.58195 17.0627L3.59315 17.0633L3.73891 17.0714L3.7389 17.0717L3.75 17.0717L13.75 17.0717L13.95 17.0717L13.95 16.8717L13.95 14.4614C13.95 13.9132 14.4131 13.4563 15 13.4563C15.5869 13.4563 16.05 13.9132 16.05 14.4614L16.05 16.8717L16.05 17.0717L16.25 17.0717L21.25 17.0717C22.0439 17.0717 22.7 16.4494 22.7 15.6666L22.7 14.9604L22.7 14.8753L22.6388 14.8164L21.9694 14.1712C21.9694 14.1712 21.9694 14.1712 21.9694 14.1712C20.8356 13.0781 20.2 11.5971 20.2 10.0545L20.2 9.22743C20.2 7.6848 20.8356 6.20377 21.9694 5.11065L21.9695 5.11055L22.6389 4.46422ZM16.05 10.8461C16.05 11.3944 15.5869 11.8512 15 11.8512C14.4577 11.8512 14.0199 11.4601 13.9577 10.9684L13.95 10.8401L13.95 8.43584C13.95 7.88755 14.4131 7.43072 15 7.43072C15.5423 7.43072 15.9801 7.8218 16.0423 8.31354L16.05 8.4418L16.05 10.8461Z" fill="white" stroke="#5F73F1" stroke-width="0.4"/>
</svg>
