<svg width="26" height="64" viewBox="0 0 26 64" fill="none" xmlns="http://www.w3.org/2000/svg">
<path fill-rule="evenodd" clip-rule="evenodd" d="M-0.000123978 0.000238459L-0.000137964 63.9945L0.447157 62.4342C0.605024 62.0409 0.762894 61.6563 0.929531 61.2891C2.22317 58.3696 3.73608 56.4247 5.99885 54.589C8.26601 52.7534 11.2831 51.0226 13.8747 49.4011C16.462 47.7796 18.6195 46.2674 20.5622 44.4274C22.5048 42.5917 24.2282 40.4283 25.0921 38.2648C26.2981 35.2448 26.2981 28.3479 25.0921 25.3322C24.2282 23.1688 22.5048 21.0053 20.5622 19.1697C18.6195 17.334 16.462 15.8174 13.8747 14.1959C11.2874 12.5745 8.26602 10.8437 5.99886 9.00804C3.7317 7.17239 2.22319 5.2231 0.929544 2.30354C0.609424 1.57802 0.298071 0.791317 -0.000123978 0.000238459V0.000238459Z" fill="#72C4FE"/>
<path d="M6.99952 27.002L12.9995 33.4876L7.03255 40.002" stroke="white" stroke-width="1.5" stroke-miterlimit="22.9256" stroke-linecap="round" stroke-linejoin="round"/>
</svg>
