<svg width="26" height="64" viewBox="0 0 26 64" fill="none" xmlns="http://www.w3.org/2000/svg">
<path fill-rule="evenodd" clip-rule="evenodd" d="M-9.53674e-06 -5.68176e-06L-2.35231e-05 63.9943L0.447271 62.434C0.605139 62.0406 0.763008 61.656 0.929645 61.2889C2.22329 58.3693 3.73619 56.4244 5.99897 54.5888C8.26613 52.7531 11.2832 51.0224 13.8748 49.4009C16.4621 47.7794 18.6196 46.2672 20.5623 44.4271C22.505 42.5915 24.2284 40.428 25.0922 38.2646C26.2982 35.2445 26.2982 28.3477 25.0922 25.332C24.2284 23.1685 22.505 21.0051 20.5623 19.1694C18.6197 17.3338 16.4621 15.8172 13.8748 14.1957C11.2876 12.5742 8.26614 10.8435 5.99898 9.0078C3.73182 7.17215 2.2233 5.22286 0.929658 2.3033C0.609539 1.57778 0.298185 0.791073 -9.53674e-06 -5.68176e-06V-5.68176e-06Z" fill="#5F73F1"/>
<path d="M6.99963 25.001L12.9996 31.4866L7.03267 38.001" stroke="white" stroke-width="1.5" stroke-miterlimit="22.9256" stroke-linecap="round" stroke-linejoin="round"/>
</svg>
