<svg width="34" height="26" viewBox="0 0 34 26" fill="none" xmlns="http://www.w3.org/2000/svg">
<path d="M32.9427 3.01617C33.1823 3.50053 33.3167 4.03049 33.3374 4.57049L33.3402 4.71798V11.9447C33.3402 16.8225 29.4272 20.7767 24.6002 20.7767C23.2617 20.7767 21.9934 20.4727 20.8594 19.9291C20.1513 21.8141 18.8272 23.407 17.06 24.4381C12.9215 26.8526 7.64119 25.4582 5.1942 21.3312L5.12092 21.2053L1.54518 14.9468C0.505302 13.1267 1.12241 10.7994 2.92354 9.74853C3.42982 9.45314 3.99722 9.28094 4.58078 9.24554C6.79396 9.1113 8.8258 7.97599 10.1096 6.17019L10.1959 6.04603L10.342 5.82799C11.5087 4.15015 13.7924 3.70451 15.497 4.84182C15.6239 4.92653 15.7453 5.0187 15.8607 5.11774L15.8602 4.71798C15.8602 2.61633 17.5462 0.912608 19.626 0.912608C20.2106 0.912608 20.7872 1.05015 21.3101 1.31435C23.3331 2.33652 25.706 2.36029 27.7453 1.38567L27.8904 1.31435L27.9887 1.26645C29.8296 0.401543 32.0289 1.16937 32.9427 3.01617ZM11.2854 6.47526L11.2309 6.55547L11.1413 6.68979C9.65962 8.86728 7.26539 10.2368 4.64908 10.3955C4.24218 10.4201 3.84656 10.5402 3.49354 10.7462C2.26497 11.463 1.82647 13.0315 2.4868 14.2875L2.53245 14.3708L6.10818 20.6293C8.20687 24.3026 12.855 25.5612 16.49 23.4404C18.1192 22.4899 19.2684 21.0218 19.8515 19.3606L19.8363 19.3506C19.7149 19.2707 19.5956 19.1878 19.4785 19.1021C19.4675 19.0941 19.4566 19.0861 19.4458 19.0781C19.3905 19.0372 19.3354 18.9955 19.2808 18.9531C19.2704 18.945 19.26 18.9369 19.2496 18.9288C19.0712 18.789 18.8981 18.6422 18.731 18.489C18.7225 18.4813 18.7141 18.4736 18.7058 18.4659C18.661 18.4245 18.6165 18.3825 18.5724 18.3401C18.5576 18.3259 18.5428 18.3115 18.5281 18.2972C18.4805 18.2507 18.4333 18.2036 18.3867 18.1559C18.3824 18.1515 18.3781 18.1472 18.3739 18.1428L18.3508 18.1191C18.3072 18.074 18.264 18.0284 18.2212 17.9823L18.2088 17.9688L17.9092 19.0652L17.7718 19.0277C14.45 18.1423 12.6411 19.1971 12.0638 22.3186L12.0408 22.448L10.9174 22.2519L10.9415 22.1163C11.6447 18.3041 14.1165 16.8616 18.0724 17.9165L18.1898 17.9483L18.1556 17.9107C18.1409 17.8945 18.1263 17.8783 18.1117 17.862L18.1901 17.9485C18.148 17.9027 18.1064 17.8564 18.0653 17.8097C18.0367 17.7771 18.0085 17.7446 17.9805 17.7118C17.9572 17.6845 17.9343 17.6573 17.9115 17.6299C17.8974 17.6131 17.8833 17.596 17.8693 17.5789C17.859 17.5664 17.849 17.5542 17.8391 17.5419C17.7837 17.4737 17.7292 17.4044 17.6757 17.3343C17.6622 17.3166 17.6488 17.299 17.6354 17.2812C17.5764 17.2026 17.5185 17.1229 17.462 17.0422C17.4495 17.0244 17.437 17.0064 17.4246 16.9884C17.3077 16.8189 17.1967 16.6453 17.0917 16.4677C17.0807 16.4491 17.0698 16.4304 17.0589 16.4117C17.0425 16.3836 17.0264 16.3554 17.0103 16.3271C17.0021 16.3125 16.9939 16.2979 16.9857 16.2833C16.9698 16.2548 16.954 16.2263 16.9384 16.1976C16.9202 16.1642 16.9021 16.1305 16.8843 16.0967C16.8438 16.0201 16.8045 15.9429 16.7663 15.865C16.7547 15.8415 16.7433 15.818 16.732 15.7945C16.7182 15.7658 16.7046 15.737 16.6911 15.7081C16.6861 15.6973 16.6811 15.6866 16.6761 15.6758C16.6598 15.6405 16.6438 15.6052 16.6279 15.5697C16.6239 15.5605 16.6198 15.5514 16.6158 15.5423L16.6011 15.5088C16.5367 15.3615 16.4762 15.212 16.4196 15.0605C16.418 15.0561 16.4164 15.0517 16.4148 15.0474L16.4196 15.0605C16.3613 14.9042 16.3073 14.7458 16.2576 14.5855C16.2508 14.5636 16.2442 14.5417 16.2376 14.5199C16.2282 14.4888 16.219 14.4577 16.21 14.4265C16.2049 14.4089 16.1998 14.3911 16.1948 14.3733C16.185 14.3386 16.1754 14.304 16.1661 14.2692C16.1607 14.2491 16.1554 14.2291 16.1501 14.2091C16.1254 14.1145 16.1021 14.0191 16.0803 13.9231C16.0717 13.8851 16.0634 13.847 16.0553 13.8088C16.0504 13.7861 16.0457 13.7636 16.0411 13.741C16.0372 13.7219 16.0333 13.7026 16.0295 13.6832C15.9883 13.4747 15.9544 13.2638 15.9281 13.0505C15.926 13.0334 15.9239 13.0161 15.9218 12.9988C15.9172 12.9597 15.9129 12.9207 15.9088 12.8816C15.9058 12.8522 15.9028 12.8227 15.9 12.793C15.8912 12.6993 15.8838 12.6053 15.8779 12.5108C15.8758 12.4773 15.8739 12.4436 15.8721 12.4099C15.8709 12.3864 15.8698 12.3631 15.8688 12.3398C15.8678 12.3173 15.8669 12.2948 15.8661 12.2722C15.864 12.212 15.8624 12.1515 15.8614 12.0908L15.8602 11.9447L15.86 9.48573L15.8598 6.97774L15.696 6.69076C15.4922 6.33403 15.209 6.03014 14.8688 5.80318C13.6856 5.01369 12.1021 5.31816 11.2854 6.47526ZM17.0002 11.9447L17.0015 12.0847C17.002 12.1147 17.0027 12.1447 17.0036 12.1746C17.0042 12.1973 17.005 12.2198 17.0058 12.2423L17.0036 12.1746C17.005 12.2236 17.0069 12.2724 17.0092 12.3211L17.0058 12.2423C17.0106 12.3678 17.0183 12.4928 17.029 12.6171C17.0306 12.6361 17.0323 12.655 17.034 12.674L17.029 12.6171C17.0395 12.7396 17.0529 12.8616 17.0691 12.9828C17.071 12.9971 17.073 13.0116 17.075 13.0261C17.0807 13.0673 17.0868 13.1082 17.0931 13.1491L17.075 13.0261C17.0838 13.0891 17.0933 13.1518 17.1036 13.2143L17.0931 13.1491C17.1113 13.2655 17.132 13.3812 17.1553 13.4962C17.1599 13.5182 17.1645 13.5404 17.1692 13.5626L17.1553 13.4962C17.1653 13.5455 17.1758 13.5946 17.1867 13.6436L17.1692 13.5626C17.1792 13.6099 17.1896 13.657 17.2005 13.7039L17.1867 13.6436C17.1991 13.6989 17.212 13.7539 17.2255 13.8088L17.2005 13.7039C17.2156 13.7689 17.2315 13.8336 17.2482 13.8979C17.2576 13.9347 17.2674 13.9713 17.2774 14.0079L17.2482 13.8979C17.2599 13.943 17.272 13.9879 17.2844 14.0326L17.2774 14.0079C17.2905 14.0554 17.304 14.1028 17.318 14.15L17.2844 14.0326C17.3003 14.0895 17.3168 14.1462 17.334 14.2026L17.318 14.15C17.3316 14.196 17.3456 14.2419 17.3601 14.2876L17.334 14.2026C17.5426 14.8889 17.8438 15.5342 18.2228 16.1238C18.2278 16.1322 18.2331 16.1404 18.2384 16.1486L18.2228 16.1238C18.2828 16.217 18.3447 16.3088 18.4085 16.3992C18.4194 16.4152 18.4308 16.4313 18.4423 16.4472L18.4085 16.3992C18.506 16.5374 18.6079 16.6721 18.714 16.8032C18.7307 16.8241 18.7478 16.845 18.765 16.8658L18.714 16.8032C18.7468 16.8437 18.78 16.8839 18.8136 16.9237L18.765 16.8658C18.8092 16.9192 18.8542 16.972 18.8998 17.0243L18.8136 16.9237C18.8852 17.0086 18.9586 17.092 19.0337 17.1736L19.1862 17.3346L19.3272 17.4755C19.3343 17.4824 19.3414 17.4893 19.3485 17.4961C19.4352 17.5799 19.5239 17.6617 19.6144 17.7413C19.6294 17.7544 19.6443 17.7675 19.6593 17.7804L19.6144 17.7413C19.668 17.7884 19.7222 17.8347 19.777 17.8803L19.6593 17.7804C19.7128 17.8267 19.7668 17.8722 19.8215 17.9169L19.777 17.8803C19.8857 17.9705 19.9967 18.0578 20.1101 18.1418C21.368 19.074 22.9205 19.6247 24.6002 19.6247C28.7539 19.6247 32.1293 16.2575 32.1991 12.077L32.2002 11.9447V4.71798C32.2002 4.30606 32.1053 3.89979 31.923 3.53136C31.2886 2.24914 29.7654 1.71284 28.4852 2.30367L28.4002 2.34473L28.247 2.42024C25.8884 3.55285 23.1415 3.52768 20.8002 2.34473C20.4356 2.16051 20.0336 2.06461 19.626 2.06461C18.206 2.06461 17.0493 3.20358 17.0018 4.62676L17.0002 4.71798V11.9447ZM27.9941 13.4606L28.8063 14.2689C25.867 17.2848 22.9748 17.3195 20.4503 14.3387L20.3623 14.2335L21.2381 13.496C23.3093 16.0076 25.4216 16.0411 27.8937 13.5624L27.9941 13.4606ZM8.16947 13.1264L9.29212 13.3266L9.26917 13.4477C8.98264 14.8476 8.03247 15.8407 6.48804 16.399L6.35023 16.4471L6.2133 16.4918L5.87428 15.3919L6.00079 15.3506C7.20582 14.9423 7.89258 14.2767 8.12733 13.327L8.15 13.2277L8.16947 13.1264ZM14.844 10.1638L15.7172 10.9044L15.6374 10.9977C14.6966 12.0652 13.3823 12.4452 11.7686 12.1484L11.6254 12.1204L11.4847 12.0899L11.7354 10.9661L11.8654 10.9942C13.111 11.2495 14.035 11.0201 14.7083 10.3162L14.777 10.2417L14.844 10.1638ZM30.0184 6.8973L30.1336 6.93776L29.7439 8.02034L29.6474 7.98672C28.6826 7.66971 27.7387 7.92641 26.7535 8.80617L26.6548 8.89623L25.8817 8.0496L25.9884 7.95208C27.2712 6.80347 28.6359 6.43491 30.0184 6.8973ZM23.2911 7.99314L23.3709 8.08641L22.4977 8.82702L22.4307 8.74913C21.7521 7.98715 20.8077 7.73254 19.5191 7.99662L19.3891 8.02476L19.1385 6.90094L19.2792 6.8704C20.9584 6.52384 22.3227 6.89419 23.2911 7.99314Z" fill="#5F73F1" stroke="#5F73F1" stroke-width="0.5"/>
</svg>
