<svg width="25" height="25" viewBox="0 0 25 25" fill="none" xmlns="http://www.w3.org/2000/svg">
<path d="M23.4668 0.537109H7.51465C6.96289 0.537109 6.51855 0.981445 6.51855 1.5332V3.6084L1.96777 1.41113C1.61133 1.22559 0.649414 1.23047 0.537109 2.30957V11.8408C0.571289 12.8857 1.69434 12.9443 1.96777 12.7393L6.51855 10.542V12.6172C6.51855 13.1689 6.96289 13.6133 7.51465 13.6133H13.8623L10.5322 23.1348C10.3516 23.6523 10.6201 24.2285 11.1426 24.4043C11.7676 24.6143 12.2705 24.2041 12.4121 23.7939L15.4883 15.0049L18.5645 23.7939C18.916 24.6533 19.7266 24.4434 19.834 24.4043C20.3516 24.2236 20.6299 23.6523 20.4443 23.1348L17.1143 13.6133H23.4619C24.0137 13.6133 24.458 13.1689 24.458 12.6172V1.5332C24.4629 0.981445 24.0186 0.537109 23.4668 0.537109ZM6.51855 8.33008L2.5293 10.2539V3.89648L6.51855 5.82031V8.33008ZM22.4707 11.6211H8.51074V2.5293H22.4658V11.6211H22.4707Z" fill="#5F73F1"/>
</svg>
