<svg width="27" height="25" viewBox="0 0 27 25" fill="none" xmlns="http://www.w3.org/2000/svg">
<path d="M4.24843 10.6557L4.24861 10.6553L4.67375 9.80977L3.96588 9.18102C3.17288 8.47709 2.71745 7.46854 2.71745 6.41685C2.71745 4.37589 4.37693 2.71745 6.41685 2.71745C7.92417 2.71745 9.26878 3.62225 9.84029 5.01813L9.8403 5.01815L10.2194 5.94425L11.2036 5.76434C12.5518 5.51763 13.9631 5.51763 15.3032 5.75947L16.2845 5.93622L16.6636 5.01329L4.24843 10.6557ZM4.24843 10.6557C3.72746 11.6958 3.46178 12.7986 3.46178 13.9303C3.46178 18.5721 7.90194 22.2818 13.2674 22.2818C18.6331 22.2818 23.0721 18.572 23.0721 13.9292C23.0721 12.7889 22.8045 11.6819 22.2772 10.6394C22.2772 10.6394 22.2772 10.6394 22.2772 10.6394L21.8508 9.79607L22.5534 9.16588L22.5537 9.16565M4.24843 10.6557L22.5537 9.16565M22.5537 9.16565C23.335 8.4628 23.785 7.46049 23.785 6.41605C23.785 4.37609 22.1256 2.71666 20.0856 2.71666C18.5798 2.71666 17.2354 3.61839 16.6637 5.01311L22.5537 9.16565ZM24.9325 10.2222L24.8449 10.3337L24.8957 10.4661C25.3223 11.5784 25.5379 12.74 25.5379 13.9303C25.5379 19.8679 20.0626 24.75 13.2666 24.75C6.47067 24.75 0.995274 19.8679 0.995274 13.9302C0.995274 12.75 1.20706 11.5969 1.62849 10.4915L1.67926 10.3583L1.59054 10.2468C0.729335 9.16419 0.25 7.8145 0.25 6.41685C0.25 3.01668 3.01654 0.25 6.41685 0.25C8.54459 0.25 10.4758 1.32921 11.5962 3.07278L11.6794 3.20228L11.8325 3.18627C12.776 3.08766 13.73 3.08763 14.6716 3.18256L14.824 3.19792L14.9069 3.06914C16.0282 1.32727 17.9587 0.250157 20.0859 0.250157C23.4861 0.250157 26.2528 3.01685 26.2528 6.417C26.2528 7.80232 25.7805 9.14207 24.9325 10.2222Z" fill="#5F73F1" stroke="white" stroke-width="0.5"/>
<path d="M9.96737 14.9019H9.96735C9.5334 14.9019 9.2248 14.7365 9.02124 14.4998C8.81321 14.2578 8.70312 13.9269 8.70312 13.5866C8.70312 13.2463 8.81321 12.9153 9.02124 12.6734C9.2248 12.4367 9.5334 12.2712 9.96735 12.2712C10.401 12.2712 10.7094 12.4366 10.9128 12.6734C11.1207 12.9153 11.2307 13.2463 11.2307 13.5866C11.2307 13.927 11.1207 14.258 10.9128 14.4999C10.7094 14.7366 10.401 14.902 9.96737 14.9019Z" fill="#5F73F1" stroke="white" stroke-width="0.5"/>
<path d="M16.6198 12.14H16.6198C17.0538 12.14 17.3624 12.3055 17.5659 12.5423C17.774 12.7843 17.8841 13.1154 17.8841 13.4558C17.8841 13.7962 17.774 14.1273 17.5659 14.3694C17.3624 14.6062 17.0538 14.7717 16.6198 14.7717C16.1862 14.7717 15.8779 14.6062 15.6744 14.3694C15.4665 14.1274 15.3564 13.7962 15.3564 13.4558C15.3564 13.1153 15.4665 12.7842 15.6744 12.5422C15.8779 12.3054 16.1862 12.14 16.6198 12.14Z" fill="#5F73F1" stroke="white" stroke-width="0.5"/>
</svg>
