<svg width="24" height="24" viewBox="0 0 24 24" fill="none" xmlns="http://www.w3.org/2000/svg">
<path d="M16.6465 6.46721C17.3842 7.44733 18.5567 8.08222 19.8747 8.08222C22.1021 8.08222 23.9141 6.26944 23.9141 4.04117C23.9141 1.8129 22.1021 0 19.8747 0C18.1685 0 16.7071 1.06432 16.116 2.5637C14.6103 2.57179 9.92266 2.87037 6.51713 6.09453C4.12247 8.36151 2.89509 11.5691 2.86557 15.6288C1.29185 15.883 0.0859375 17.2508 0.0859375 18.8952V20.6907C0.0859375 22.5154 1.57038 24 3.39501 24H18.908C20.7326 24 22.2171 22.5154 22.2171 20.6907V18.8952C22.2171 17.2789 21.052 15.9305 19.5179 15.6432C19.4765 13.2006 18.3178 11.5447 17.2926 10.081C16.8821 9.49506 16.4945 8.94164 16.2183 8.38865C15.9243 7.80084 15.9341 7.32061 16.2488 6.87739C16.3717 6.70426 16.5199 6.56687 16.6465 6.46721ZM19.8747 1.65472C21.1897 1.65472 22.2596 2.72534 22.2596 4.04129C22.2596 5.35724 21.1898 6.42771 19.8747 6.42771C18.5597 6.42771 17.4898 5.35724 17.4898 4.04129C17.4898 2.72534 18.5597 1.65472 19.8747 1.65472ZM20.5625 18.8952V20.6907C20.5625 21.6031 19.8203 22.3453 18.9079 22.3453H3.39505C2.48266 22.3453 1.74042 21.6031 1.74042 20.6907V18.8952C1.74042 17.9827 2.48266 17.2405 3.39505 17.2405H18.908C19.8204 17.2405 20.5625 17.9827 20.5625 18.8952ZM17.8621 15.586H4.52056C4.55694 12.0256 5.60727 9.23991 7.64525 7.30499C10.4057 4.68415 14.2988 4.28036 15.8398 4.22734C15.851 4.47088 15.8844 4.70832 15.9368 4.93879C14.8465 5.61109 13.7539 7.15929 14.7382 9.1284C15.0691 9.79063 15.5105 10.4209 15.9375 11.0303C16.8546 12.3396 17.8018 13.6922 17.8621 15.586Z" fill="white" stroke="#5F73F1" stroke-width="0.4"/>
</svg>
