<svg width="32" height="22" viewBox="0 0 32 22" fill="none" xmlns="http://www.w3.org/2000/svg">
<path d="M30.8389 6.05046L16.278 0.371722C16.0915 0.294631 15.882 0.294631 15.6956 0.371722L1.13469 6.05046C0.988669 6.10731 0.862166 6.20512 0.770386 6.33213C0.678605 6.45914 0.625451 6.60995 0.61731 6.76644C0.609169 6.92293 0.646387 7.07844 0.724493 7.21429C0.802599 7.35014 0.918269 7.46054 1.05761 7.53224L6.29095 10.1532V16.9454C6.32263 17.4764 6.48855 17.9907 6.77317 18.4401C7.0578 18.8895 7.45182 19.2594 7.91834 19.515C9.78556 20.7741 12.9633 21.425 16.0296 21.425C19.0959 21.425 22.2736 20.7741 24.1409 19.515C24.6074 19.2594 25.0014 18.8895 25.286 18.4401C25.5707 17.9907 25.7366 17.4764 25.7682 16.9454V10.1532L27.3871 9.29667V17.3137C27.4434 17.4851 27.5524 17.6343 27.6985 17.7401C27.8446 17.8458 28.0204 17.9028 28.2008 17.9028C28.3812 17.9028 28.5569 17.8458 28.703 17.7401C28.8492 17.6343 28.9581 17.4851 29.0145 17.3137V8.52581L31.0016 7.53224C31.1409 7.46054 31.2566 7.35014 31.3347 7.21429C31.4128 7.07844 31.45 6.92293 31.4419 6.76644C31.4337 6.60995 31.3806 6.45914 31.2888 6.33213C31.197 6.20512 31.0705 6.10731 30.9245 6.05046H30.8389ZM3.33595 6.90698L15.9439 1.99055L28.5519 6.89841L17.2801 12.5772L15.9439 13.2024L14.6078 12.5772L3.33595 6.90698ZM24.0552 14.4101V16.9797C24.0552 18.1702 20.9717 19.8233 15.9439 19.8233C10.9162 19.8233 7.83269 18.136 7.83269 16.9454V10.9498L11.7384 12.9112L14.2309 14.1703L15.5414 14.8298C15.6544 14.8913 15.781 14.9235 15.9097 14.9235C16.0383 14.9235 16.165 14.8913 16.278 14.8298L17.657 14.1703L20.1837 12.9198L24.0895 10.9583L24.0552 14.4101Z" fill="white" stroke="#5F73F1" stroke-width="0.5"/>
</svg>
