<svg width="27" height="23" viewBox="0 0 27 23" fill="none" xmlns="http://www.w3.org/2000/svg">
<path d="M23.4941 0.768616H3.63255C2.10381 0.768616 0.857422 2.02423 0.857422 3.5643V14.3082C0.857422 15.8482 2.10381 17.1039 3.63255 17.1039H23.4941C25.0228 17.1039 26.2692 15.8482 26.2692 14.3082V3.5643C26.2692 2.02423 25.0228 0.768616 23.4941 0.768616ZM25.0591 14.3082C25.0591 15.1778 24.3573 15.8848 23.4941 15.8848H3.63255C2.76935 15.8848 2.06751 15.1778 2.06751 14.3082V3.5643C2.06751 2.69471 2.76935 1.98766 3.63255 1.98766H23.4941C24.3573 1.98766 25.0591 2.69471 25.0591 3.5643V14.3082Z" fill="white"/>
<path d="M17.4521 8.39175L11.8373 5.5148C11.6518 5.41727 11.4259 5.42946 11.2484 5.53918C11.0709 5.64889 10.958 5.848 10.958 6.05931V11.8132C10.958 12.0245 11.0669 12.2236 11.2484 12.3333C11.3452 12.3943 11.4541 12.4227 11.563 12.4227C11.6558 12.4227 11.7526 12.4024 11.8373 12.3577L17.4521 9.48077C17.6538 9.37512 17.7829 9.16788 17.7829 8.93626C17.7829 8.70464 17.6538 8.4974 17.4521 8.39175ZM12.1681 10.8177V7.0508L15.8427 8.9322L12.1681 10.8177Z" fill="white"/>
<path d="M25.6641 19.2982H6.71826C6.45608 18.4408 5.67356 17.8109 4.73776 17.8109C3.80196 17.8109 3.01944 18.4408 2.75725 19.2982H1.46246C1.12767 19.2982 0.857422 19.5704 0.857422 19.9077C0.857422 20.2449 1.12767 20.5172 1.46246 20.5172H2.75725C3.01944 21.3746 3.80196 22.0044 4.73776 22.0044C5.67356 22.0044 6.45608 21.3746 6.71826 20.5172H25.6641C25.9989 20.5172 26.2692 20.2449 26.2692 19.9077C26.2692 19.5704 25.9989 19.2982 25.6641 19.2982ZM4.73776 20.7854C4.25776 20.7854 3.8665 20.3912 3.8665 19.9077C3.8665 19.4241 4.25776 19.03 4.73776 19.03C5.21776 19.03 5.60902 19.4241 5.60902 19.9077C5.60902 20.3912 5.21776 20.7854 4.73776 20.7854Z" fill="white"/>
</svg>
