<svg width="20" height="21" viewBox="0 0 20 21" fill="none" xmlns="http://www.w3.org/2000/svg">
<path d="M17.1058 0.0321717C16.7969 0.0321717 16.4794 0.0857677 16.1618 0.191404C16.1471 0.196212 16.1317 0.201939 16.1174 0.207879C16.09 0.218838 13.349 1.31112 9.76277 1.31112C7.65825 1.31112 5.67993 0.94005 3.8827 0.208091C3.54366 0.07 3.20024 0 2.86197 0C1.50928 0 0.489258 1.12035 0.489258 2.60598V11.1204C0.489258 16.4757 4.84446 21 9.99957 21C15.1548 21 19.51 16.4757 19.51 11.1204V2.60598C19.51 1.1147 18.4988 0.0321717 17.1058 0.0321717ZM18.0356 11.1204C18.0356 15.6765 14.3556 19.5256 9.99957 19.5256C5.64366 19.5256 1.96364 15.6765 1.96364 11.1204V2.60598C1.96364 1.9291 2.3246 1.47431 2.86197 1.47431C3.00869 1.47431 3.16503 1.50769 3.32666 1.57352C5.3013 2.37767 7.46677 2.78543 9.76277 2.78543C13.5026 2.78543 16.3274 1.7104 16.6465 1.58398C16.8067 1.53265 16.961 1.50648 17.1058 1.50648C17.6793 1.50648 18.0356 1.92783 18.0356 2.60598V11.1204Z" fill="white" stroke="#5F73F1" stroke-width="0.5"/>
<path d="M13.6546 14.5058L13.6545 14.5057C13.6175 14.4728 13.5609 14.4761 13.5281 14.5131L13.528 14.5132C12.7417 15.3972 11.3799 15.8961 10.0001 15.8961C8.62026 15.8961 7.25838 15.3972 6.47216 14.5132L6.47208 14.5131C6.43933 14.4763 6.38266 14.4728 6.34553 14.5058C6.3085 14.5388 6.30519 14.5954 6.33811 14.6324L6.33815 14.6325C7.12082 15.5125 8.48065 16.0756 10.0001 16.0756C11.5196 16.0756 12.8795 15.5125 13.6621 14.6326L13.6546 14.5058ZM13.6546 14.5058C13.6916 14.5387 13.695 14.5955 13.6621 14.6325L13.6546 14.5058Z" fill="white" stroke="white"/>
<path d="M12.4531 9.04564L12.4531 9.04558C12.4334 9.06462 12.427 9.0843 12.4268 9.10195C12.4265 9.11991 12.4327 9.14234 12.4541 9.16464L12.4541 9.16464C12.4898 9.20178 12.5475 9.20144 12.5818 9.16826L12.5882 9.16207L12.5883 9.16213C12.658 9.09716 12.9885 8.81804 13.595 8.70238C14.208 8.58548 15.0533 8.64522 16.1295 9.18319C16.1743 9.20558 16.228 9.18727 16.25 9.1433L16.25 9.14322C16.2722 9.09895 16.2543 9.04502 16.21 9.02276L12.4531 9.04564ZM12.4531 9.04564L12.4593 9.03943M12.4531 9.04564L12.4593 9.03943M12.4593 9.03943C12.4594 9.03944 13.0318 8.47198 14.1454 8.47198C14.6845 8.47198 15.3725 8.60405 16.2099 9.02269L12.4593 9.03943Z" fill="white" stroke="white"/>
<path d="M7.50586 9.09743L7.50582 9.09747C7.54037 9.13082 7.59802 9.131 7.63363 9.09396L7.99404 9.44053L7.63364 9.09396C7.65508 9.07166 7.66124 9.04923 7.661 9.03126C7.66076 9.01362 7.65438 8.99394 7.63468 8.9749L7.62825 8.96869L7.62831 8.96863M7.50586 9.09743L3.87792 8.95201C4.71532 8.53337 5.40325 8.40131 5.9424 8.40131C7.04687 8.40131 7.61899 8.95949 7.62831 8.96863M7.50586 9.09743L7.50014 9.09208M7.50586 9.09743L7.50014 9.09208M7.62831 8.96863L7.62843 8.96875C7.62843 8.96875 7.62839 8.96871 7.62831 8.96863ZM7.50014 9.09208C7.42983 9.0263 7.09911 8.74728 6.49281 8.63166C5.87978 8.51476 5.03446 8.5745 3.95829 9.11244C3.91353 9.1348 3.85979 9.11658 3.83773 9.07247C3.81561 9.02823 3.83345 8.97436 3.87777 8.95208L7.50014 9.09208Z" fill="white" stroke="white"/>
</svg>
