<svg width="18" height="25" viewBox="0 0 18 25" fill="none" xmlns="http://www.w3.org/2000/svg">
<path fill-rule="evenodd" clip-rule="evenodd" d="M16.2338 22.1806C16.2205 22.2114 16.1867 22.2681 16.1098 22.2981C14.3254 22.9983 11.7411 23.4 9.02066 23.4C6.30147 23.4 3.71797 22.9987 1.93356 22.2993C1.85674 22.2694 1.82292 22.2127 1.80956 22.1815C1.79453 22.1457 1.78201 22.0899 1.80914 22.0254L3.23366 18.6541C3.25829 18.6603 3.28418 18.6652 3.30965 18.6713C3.41235 18.6964 3.51756 18.719 3.62236 18.7424C3.74886 18.7703 3.87453 18.7987 4.00354 18.8245C4.11125 18.8463 4.22064 18.8664 4.32961 18.8865C4.46112 18.9108 4.59305 18.935 4.72707 18.9568C4.83729 18.9748 4.94876 18.9921 5.06024 19.0089C5.19843 19.0299 5.33787 19.0496 5.47857 19.0681C5.59005 19.0824 5.70152 19.0968 5.81466 19.11C5.96079 19.1272 6.10858 19.1428 6.25721 19.1576C6.36744 19.1683 6.47807 19.1794 6.58955 19.1892C6.74736 19.2028 6.90643 19.2139 7.06633 19.2249C7.17238 19.2319 7.27759 19.2406 7.38447 19.2459C7.56191 19.2566 7.74227 19.2631 7.92221 19.2701C8.01365 19.2734 8.10341 19.2787 8.19568 19.2808C8.46831 19.2886 8.74344 19.2931 9.02066 19.2931C9.29872 19.2931 9.57427 19.2886 9.84773 19.2808C9.94 19.2783 10.0306 19.2734 10.122 19.2701C10.3024 19.2631 10.4823 19.2562 10.6602 19.2459C10.7683 19.2401 10.8752 19.2315 10.9825 19.2245C11.1416 19.2134 11.3002 19.2024 11.4568 19.1888C11.5691 19.1789 11.6802 19.1679 11.7916 19.1568C11.9403 19.142 12.0885 19.1264 12.235 19.1091C12.3469 19.096 12.458 19.0816 12.569 19.0672C12.7114 19.0483 12.8529 19.0286 12.9936 19.0073C13.103 18.9909 13.212 18.9736 13.3197 18.9559C13.4583 18.9334 13.5948 18.9083 13.7305 18.8833C13.8349 18.864 13.9393 18.8447 14.0415 18.8237C14.1797 18.7958 14.3146 18.7658 14.4499 18.7354C14.5451 18.7141 14.6419 18.6935 14.7354 18.6705C14.7626 18.6639 14.791 18.6586 14.8177 18.6516L16.2338 22.0246C16.261 22.0891 16.2489 22.1453 16.2338 22.1806ZM6.3165 11.3616C6.55823 11.3854 6.80748 11.3973 7.05339 11.4145C7.20954 11.4256 7.36234 11.44 7.51974 11.4482C8.01448 11.4741 8.51465 11.4901 9.01983 11.4901C9.23651 11.4901 9.45403 11.4868 9.66988 11.4823C9.71372 11.4815 9.75714 11.4807 9.80139 11.4794C10.0064 11.4745 10.2093 11.4675 10.4089 11.4589C10.4527 11.4568 10.4953 11.4544 10.5387 11.4519C10.7216 11.4429 10.9003 11.4326 11.0735 11.4207C11.099 11.4191 11.1257 11.4174 11.1512 11.4158C11.337 11.4022 11.5127 11.3866 11.6831 11.3698C11.7056 11.3677 11.7319 11.3661 11.7545 11.3636L14.3334 17.4992C14.1288 17.5469 13.9196 17.5917 13.7055 17.634C13.6387 17.6467 13.5685 17.6578 13.5009 17.6709C13.3451 17.6997 13.1886 17.7276 13.0287 17.7535C12.9406 17.7674 12.8508 17.7797 12.7623 17.7933C12.617 17.8147 12.4713 17.8356 12.3235 17.8545C12.2279 17.8668 12.1319 17.8779 12.035 17.889C11.8889 17.9062 11.7415 17.9218 11.5933 17.9362C11.4948 17.9457 11.3967 17.9551 11.2977 17.9633C11.1449 17.9765 10.9904 17.9876 10.8355 17.9978C10.7399 18.0044 10.6443 18.0118 10.5479 18.0167C10.3784 18.0266 10.2068 18.0331 10.0356 18.0397C9.95294 18.043 9.8707 18.0475 9.78803 18.0492C9.53294 18.0565 9.27743 18.0611 9.02066 18.0611C8.76515 18.0611 8.51131 18.0565 8.25788 18.0496C8.17397 18.0475 8.09088 18.043 8.00738 18.0397C7.83871 18.0335 7.66962 18.027 7.50262 18.0171C7.40535 18.0122 7.30848 18.0052 7.21162 17.9982C7.05924 17.9884 6.9081 17.9773 6.7578 17.9646C6.65718 17.9563 6.5574 17.9465 6.45803 17.937C6.31191 17.9231 6.16787 17.9079 6.02466 17.8915C5.92655 17.88 5.82844 17.8685 5.73158 17.8561C5.58712 17.8377 5.44476 17.8175 5.30322 17.7966C5.21221 17.7834 5.11994 17.7703 5.02976 17.7559C4.87653 17.7317 4.72665 17.7046 4.57677 17.6771C4.50329 17.6635 4.42855 17.6516 4.35591 17.6372C4.14006 17.5953 3.92839 17.5506 3.72214 17.5021L6.3165 11.3616ZM8.52216 6.1356C8.68875 6.16558 8.85951 6.18365 9.03444 6.18365C9.21355 6.18365 9.38806 6.16517 9.55799 6.13396L11.2535 10.171C11.2355 10.1726 11.2176 10.1743 11.1996 10.1755C11.0593 10.1866 10.9149 10.1965 10.7654 10.2059C10.7487 10.2067 10.7333 10.208 10.717 10.2088C10.55 10.2186 10.3775 10.2273 10.2034 10.2338L10.1028 10.2375C9.96255 10.2424 9.8206 10.2466 9.67739 10.2498C9.6323 10.2507 9.58721 10.2519 9.54212 10.2527C9.36761 10.256 9.19309 10.2581 9.01983 10.2581C8.27292 10.2581 7.54145 10.2178 6.82251 10.1591L8.52216 6.1356ZM9.03444 1.86407C9.8995 1.86407 10.6034 2.5569 10.6034 3.40784C10.6034 4.25878 9.8995 4.9516 9.03444 4.9516C8.16937 4.9516 7.46505 4.25878 7.46505 3.40784C7.46505 2.5569 8.16937 1.86407 9.03444 1.86407ZM17.3916 21.5543L15.7654 17.6816C15.7654 17.6812 15.765 17.6812 15.7646 17.6804L12.7306 10.463C12.7306 10.4622 12.7302 10.4613 12.7302 10.4609L10.7057 5.63909C11.4017 5.13312 11.8559 4.32284 11.8559 3.40784C11.8559 1.87722 10.5901 0.632019 9.03444 0.632019C7.47841 0.632019 6.21254 1.87722 6.21254 3.40784C6.21254 4.32695 6.67138 5.14093 7.37278 5.64648L5.33787 10.463C5.33537 10.4691 5.33453 10.4757 5.33203 10.4823L2.29345 17.6738C2.29178 17.6775 2.28969 17.6795 2.28802 17.6828L0.653081 21.5523C0.501528 21.9096 0.502363 22.303 0.655587 22.6595C0.809645 23.0201 1.09856 23.2985 1.47013 23.4439C3.39649 24.1987 6.14866 24.632 9.02066 24.632C11.8939 24.632 14.6473 24.1983 16.5737 23.4427C16.9444 23.2973 17.2333 23.0193 17.3874 22.6599C17.5402 22.3043 17.5419 21.9116 17.3916 21.5543Z" fill="white"/>
</svg>
