<svg width="22" height="24" viewBox="0 0 22 24" fill="none" xmlns="http://www.w3.org/2000/svg">
<path d="M21.9877 11.55C21.9877 10.8 21.7331 10.05 21.2747 9.5C21.4784 9.05 21.5803 8.6 21.5803 8.1C21.5803 6.65 20.7146 5.4 19.3396 4.8C19.3396 4.65 19.3905 4.55 19.3905 4.4C19.3905 2.7 17.659 1.35 15.5201 1.35C15.0109 1.35 14.5016 1.45 14.0433 1.6C13.2794 0.6 11.9044 0 10.4275 0C8.44141 0 6.76085 1.05 6.30252 2.55C6.04789 2.5 5.84419 2.5 5.64048 2.5C3.29789 2.5 1.41363 4.25 1.41363 6.4C1.41363 6.75 1.46455 7.1 1.56641 7.4C0.751592 7.95 0.191406 8.85 0.191406 9.85C0.191406 10.3 0.293258 10.7 0.496962 11.1C0.344184 11.45 0.293258 11.8 0.293258 12.1C0.293258 13.25 1.00622 14.25 1.97381 14.65C1.97381 14.75 1.97381 14.9 1.97381 15C1.97381 19.95 6.04789 24 11.0896 24C16.1312 24 20.2562 19.95 20.2562 15.05C20.2562 14.9 20.2562 14.7 20.2562 14.55C21.2747 14 21.9877 12.85 21.9877 11.55ZM11.0896 23C6.60807 23 2.99233 19.4 2.99233 15.05C2.99233 15 2.99233 14.95 2.99233 14.9C3.04326 14.9 3.09418 14.9 3.09418 14.9C3.14511 14.9 5.43678 14.8 5.58956 12.15C5.58956 12.1 5.58956 12 5.58956 11.95C6.04789 11.5 6.35344 10.95 6.4553 10.35C7.77937 10.1 8.89974 9.25 9.51085 8.15C10.2238 8.85 11.1405 9.25 12.2099 9.25C12.821 9.25 13.4321 9.1 13.9923 8.85C14.196 9.85 14.8071 10.75 15.7238 11.3C15.7238 11.45 15.7238 11.55 15.7238 11.7C16.0294 15.4 19.2886 15 19.3396 15C19.3396 15.05 19.3396 15.1 19.3396 15.2C19.2377 19.4 15.571 23 11.0896 23ZM18.8303 13.85C17.6081 13.85 16.6405 12.8 16.6405 11.55C16.6405 11.35 16.6405 11.15 16.6914 11C16.7423 10.75 16.6405 10.55 16.4368 10.4C15.4692 9.95 14.8581 9.05 14.8581 8.05C14.8581 7.95 14.8581 7.85 14.8581 7.8C14.8581 7.6 14.7562 7.4 14.5525 7.3C14.5016 7.25 14.3997 7.25 14.3488 7.25C14.247 7.25 14.0942 7.3 13.9923 7.4C13.4831 7.85 12.821 8.1 12.1081 8.1C11.0896 8.1 10.1729 7.55 9.71456 6.7C9.6127 6.5 9.409 6.4 9.2053 6.45C9.00159 6.5 8.79789 6.65 8.79789 6.85C8.54326 8.15 7.37196 9.15 5.94604 9.3C5.69141 9.3 5.4877 9.55 5.4877 9.8C5.4877 10.35 5.23307 10.9 4.77474 11.25C4.62196 11.35 4.57104 11.55 4.57104 11.7C4.57104 11.8 4.62196 11.95 4.62196 12.05C4.62196 13 3.909 13.8 2.99233 13.8C2.07567 13.8 1.3627 13 1.3627 12.05C1.3627 11.75 1.41363 11.5 1.56641 11.25C1.66826 11.1 1.61733 10.9 1.56641 10.75C1.41363 10.45 1.31178 10.15 1.31178 9.8C1.31178 9.05 1.77011 8.4 2.48307 8.05C2.7377 7.95 2.83955 7.65 2.7377 7.4C2.48307 7.15 2.43215 6.8 2.43215 6.4C2.43215 4.8 3.85807 3.5 5.64048 3.5C5.94604 3.5 6.25159 3.55 6.55715 3.65C6.70993 3.7 6.8627 3.65 6.96456 3.6C7.06641 3.5 7.16826 3.4 7.16826 3.25C7.27011 2.05 8.69604 1.1 10.3766 1.1C11.7007 1.1 12.872 1.7 13.3303 2.55C13.4831 2.8 13.7377 2.9 13.9923 2.75C14.3997 2.55 14.909 2.45 15.4692 2.45C17.0479 2.45 18.321 3.4 18.321 4.5C18.321 4.7 18.2701 4.85 18.2192 5.05C18.1683 5.2 18.1683 5.3 18.2192 5.45C18.2701 5.55 18.372 5.65 18.5247 5.7C19.696 6.05 20.5109 7.05 20.5109 8.2C20.5109 8.6 20.409 9.05 20.2053 9.4C20.1034 9.6 20.1544 9.8 20.3071 10C20.7146 10.45 20.9692 11 20.9692 11.65C20.9692 12.85 20.0016 13.85 18.8303 13.85Z" fill="white"/>
<path d="M12.3627 13.15C12.159 13.35 12.159 13.65 12.3627 13.85C12.5664 14.05 12.872 14.05 13.0757 13.85C13.585 13.35 14.3998 13.35 14.8581 13.85C14.96 13.95 15.0618 14 15.2146 14C15.3674 14 15.4692 13.95 15.5711 13.85C15.7748 13.65 15.7748 13.35 15.5711 13.15C14.7053 12.25 13.2285 12.25 12.3627 13.15Z" fill="white"/>
<path d="M9.10337 13.85C9.20522 13.95 9.30707 14 9.45985 14C9.61263 14 9.71448 13.95 9.81633 13.85C10.02 13.65 10.02 13.35 9.81633 13.15C8.95059 12.3 7.47374 12.3 6.55707 13.15C6.35337 13.35 6.35337 13.65 6.55707 13.85C6.76078 14.05 7.06633 14.05 7.27004 13.85C7.83022 13.35 8.64504 13.35 9.10337 13.85Z" fill="white"/>
<path d="M13.9926 19.15C13.2287 19.9 12.2102 20.3 11.0898 20.3C9.96944 20.3 8.95092 19.9 8.18703 19.15C7.98333 18.95 7.67777 18.95 7.47407 19.15C7.27036 19.35 7.27036 19.65 7.47407 19.85C8.44166 20.8 9.71481 21.3 11.0898 21.3C12.4648 21.3 13.738 20.8 14.7056 19.85C14.9093 19.65 14.9093 19.35 14.7056 19.15C14.5018 18.95 14.1963 18.95 13.9926 19.15Z" fill="white"/>
<path d="M9.00195 16.75C9.00195 17.85 9.91862 18.7999 11.0899 18.7999C12.2103 18.7999 13.1779 17.9 13.1779 16.75C13.1779 15.65 12.2612 14.7 11.0899 14.7C9.96955 14.75 9.00195 15.65 9.00195 16.75ZM11.0899 15.75C11.6501 15.75 12.1594 16.2 12.1594 16.8C12.1594 17.35 11.701 17.85 11.0899 17.85C10.5297 17.85 10.0205 17.4 10.0205 16.8C10.0205 16.2 10.5297 15.75 11.0899 15.75Z" fill="white"/>
</svg>
