<svg width="17" height="25" viewBox="0 0 17 25" fill="none" xmlns="http://www.w3.org/2000/svg">
<path d="M8.66283 17.3246C11.4009 17.3246 13.6411 15.0604 13.6411 12.2803V5.49836C13.6411 2.71819 11.4009 0.454041 8.66283 0.454041C5.92479 0.454041 3.68457 2.71819 3.68457 5.49836V12.2803C3.68457 15.0604 5.92479 17.3246 8.66283 17.3246ZM4.92914 5.49836C4.92914 3.41323 6.6093 1.71775 8.66283 1.71775C10.7164 1.71775 12.3965 3.41323 12.3965 5.49836V12.2803C12.3965 14.3654 10.7164 16.0609 8.66283 16.0609C6.6093 16.0609 4.92914 14.3654 4.92914 12.2803V5.49836Z" fill="white"/>
<path d="M1.4133 12.5541C1.07104 12.5541 0.791016 12.8384 0.791016 13.1859C0.791016 17.3825 3.99058 20.8314 8.04061 21.1578V23.1903H6.12709C5.78483 23.1903 5.5048 23.4747 5.5048 23.8222C5.5048 24.1697 5.78483 24.454 6.12709 24.454H11.2039C11.5461 24.454 11.8262 24.1697 11.8262 23.8222C11.8262 23.4747 11.5461 23.1903 11.2039 23.1903H9.28517V21.1578C13.3352 20.8367 16.5348 17.3825 16.5348 13.1859C16.5348 12.8384 16.2547 12.5541 15.9125 12.5541C15.5702 12.5541 15.2902 12.8384 15.2902 13.1859C15.2902 16.8981 12.3188 19.9152 8.66289 19.9152C5.00698 19.9152 2.03558 16.8981 2.03558 13.1859C2.03558 12.8384 1.75555 12.5541 1.4133 12.5541Z" fill="white"/>
</svg>
