<svg width="25" height="23" viewBox="0 0 25 23" fill="none" xmlns="http://www.w3.org/2000/svg">
<path d="M7.28661 15.0538C7.83484 15.0538 8.27927 14.6094 8.27927 14.0611C8.27927 13.5129 7.83484 13.0685 7.28661 13.0685C6.73838 13.0685 6.29395 13.5129 6.29395 14.0611C6.29395 14.6094 6.73838 15.0538 7.28661 15.0538Z" fill="white"/>
<path d="M17.7134 15.0538C18.2616 15.0538 18.706 14.6094 18.706 14.0611C18.706 13.5129 18.2616 13.0685 17.7134 13.0685C17.1651 13.0685 16.7207 13.5129 16.7207 14.0611C16.7207 14.6094 17.1651 15.0538 17.7134 15.0538Z" fill="white"/>
<path d="M25 13.6399C25 12.2019 23.9577 11.0037 22.5891 10.7589V10.325C22.5891 4.76181 18.0632 0.23584 12.5 0.23584C6.93683 0.23584 2.41087 4.76181 2.41087 10.325V10.7589C1.04227 11.0038 0 12.202 0 13.6399C0 15.0902 1.06023 16.2968 2.4462 16.5272C2.64127 18.7501 3.65829 20.392 5.47832 21.4138C7.09689 22.3225 9.39363 22.7642 12.5 22.7642C15.6064 22.7642 17.9032 22.3224 19.5217 21.4138C21.3417 20.392 22.3587 18.7501 22.5538 16.5272C23.9398 16.2969 25 15.0902 25 13.6399ZM1.03349 13.6399C1.03349 12.7746 1.61689 12.0436 2.4108 11.818V15.4617C1.61689 15.2362 1.03349 14.5051 1.03349 13.6399ZM21.5556 15.7139C21.5556 17.9834 20.7248 19.5531 19.0158 20.5126C17.5558 21.3323 15.4245 21.7307 12.5 21.7307C9.57559 21.7307 7.44421 21.3323 5.98428 20.5126C4.27515 19.5531 3.44436 17.9834 3.44436 15.7139V10.325C3.44436 6.23569 6.16921 2.77144 9.89836 1.65081C12.7393 1.68673 14.2524 3.73755 14.2524 5.22255C14.2524 6.3599 13.3271 7.28526 12.1897 7.28526C11.3368 7.28526 10.6429 6.59134 10.6429 5.73845C10.6429 5.11313 11.1516 4.60433 11.777 4.60433C12.0624 4.60433 12.2937 4.37296 12.2937 4.08758C12.2937 3.80221 12.0624 3.57084 11.777 3.57084C10.5817 3.57084 9.60937 4.54322 9.60937 5.73845C9.60937 7.16124 10.7669 8.31875 12.1897 8.31875C13.8969 8.31875 15.2859 6.9298 15.2859 5.22255C15.2859 4.14998 14.747 2.99603 13.8443 2.13565C13.4833 1.7915 13.0725 1.50219 12.6242 1.27094C17.5604 1.33773 21.5556 5.37324 21.5556 10.325V15.7139ZM22.5891 15.4618V11.8181C23.3831 12.0436 23.9665 12.7747 23.9665 13.6399C23.9665 14.5051 23.383 15.2362 22.5891 15.4618Z" fill="white"/>
<path d="M14.4992 15.4843C13.3973 16.5864 11.6042 16.5864 10.5023 15.4843C10.3004 15.2826 9.97331 15.2826 9.77146 15.4843C9.56967 15.6861 9.56967 16.0134 9.77146 16.2152C10.5239 16.9676 11.5124 17.3439 12.5008 17.3439C13.4892 17.3439 14.4776 16.9676 15.2301 16.2152C15.4319 16.0134 15.4319 15.6861 15.2301 15.4843C15.0282 15.2826 14.7011 15.2826 14.4992 15.4843Z" fill="white"/>
</svg>
