<svg width="26" height="24" viewBox="0 0 26 24" fill="none" xmlns="http://www.w3.org/2000/svg">
<path fill-rule="evenodd" clip-rule="evenodd" d="M13.125 5.17095C14.2022 4.8928 15 3.91301 15 2.75C15 1.37125 13.8787 0.25 12.5 0.25C11.1213 0.25 10 1.37125 10 2.75C10 3.91301 10.7978 4.8928 11.875 5.17095V7.75H5.625C3.90125 7.75 2.5 9.15125 2.5 10.875V15.25H1.25V13.375C1.25 13.03 0.97 12.75 0.625 12.75C0.28 12.75 0 13.03 0 13.375V15.875V18.375C0 18.72 0.28 19 0.625 19C0.97 19 1.25 18.72 1.25 18.375V16.5H2.5V20.875C2.5 22.5988 3.90125 24 5.625 24H19.375C21.0988 24 22.5 22.5988 22.5 20.875V16.5H23.75V18.375C23.75 18.72 24.03 19 24.375 19C24.72 19 25 18.72 25 18.375V15.8772C25 15.8765 25 15.8757 25 15.875C25 15.8743 25 15.8735 25 15.8728V13.375C25 13.03 24.72 12.75 24.375 12.75C24.03 12.75 23.75 13.03 23.75 13.375V15.25H22.5V10.875C22.5 9.15125 21.0988 7.75 19.375 7.75H13.125V5.17095ZM21.25 15.8728V10.875C21.25 9.84125 20.4088 9 19.375 9H5.625C4.59125 9 3.75 9.84125 3.75 10.875L3.75 15.875L3.75 20.875C3.75 21.9088 4.59125 22.75 5.625 22.75H19.375C20.4088 22.75 21.25 21.9088 21.25 20.875V15.8772L21.25 15.875L21.25 15.8728ZM12.5 4C13.19 4 13.75 3.44 13.75 2.75C13.75 2.06 13.19 1.5 12.5 1.5C11.81 1.5 11.25 2.06 11.25 2.75C11.25 3.43979 11.8097 3.99966 12.4994 4L12.5 4ZM6.25 14C6.25 15.3787 7.37125 16.5 8.75 16.5C10.1287 16.5 11.25 15.3787 11.25 14C11.25 12.6213 10.1287 11.5 8.75 11.5C7.37125 11.5 6.25 12.6213 6.25 14ZM7.5 14C7.5 13.31 8.06 12.75 8.75 12.75C9.44 12.75 10 13.31 10 14C10 14.69 9.44 15.25 8.75 15.25C8.06 15.25 7.5 14.69 7.5 14ZM13.75 14C13.75 15.3787 14.8713 16.5 16.25 16.5C17.6288 16.5 18.75 15.3787 18.75 14C18.75 12.6213 17.6288 11.5 16.25 11.5C14.8713 11.5 13.75 12.6213 13.75 14ZM15 14C15 13.31 15.56 12.75 16.25 12.75C16.94 12.75 17.5 13.31 17.5 14C17.5 14.69 16.94 15.25 16.25 15.25C15.56 15.25 15 14.69 15 14ZM9.375 20.25C9.03 20.25 8.75 19.97 8.75 19.625C8.75 19.28 9.03 19 9.375 19H15.625C15.97 19 16.25 19.28 16.25 19.625C16.25 19.97 15.97 20.25 15.625 20.25H9.375Z" fill="#FEFEFE"/>
<path d="M13.125 5.17095L13.0875 5.02571L12.975 5.05476V5.17095H13.125ZM11.875 5.17095H12.025V5.05476L11.9125 5.02571L11.875 5.17095ZM11.875 7.75V7.9H12.025V7.75H11.875ZM2.5 15.25V15.4H2.65V15.25H2.5ZM1.25 15.25H1.1V15.4H1.25V15.25ZM1.25 16.5V16.35H1.1V16.5H1.25ZM2.5 16.5H2.65V16.35H2.5V16.5ZM22.5 16.5V16.35H22.35V16.5H22.5ZM23.75 16.5H23.9V16.35H23.75V16.5ZM23.75 15.25V15.4H23.9V15.25H23.75ZM22.5 15.25H22.35V15.4H22.5V15.25ZM13.125 7.75H12.975V7.9H13.125V7.75ZM21.25 15.8728L21.4 15.8731V15.8728H21.25ZM3.75 10.875H3.9H3.75ZM3.75 15.875H3.6H3.75ZM3.75 20.875H3.9H3.75ZM21.25 15.8772H21.4V15.8769L21.25 15.8772ZM21.25 15.875L21.1 15.8747L21.1 15.8753L21.25 15.875ZM12.5 4L12.4999 4.15H12.5V4ZM12.4994 4L12.4993 4.15H12.4993L12.4994 4ZM14.85 2.75C14.85 3.84283 14.1002 4.76421 13.0875 5.02571L13.1625 5.31618C14.3042 5.02138 15.15 3.98319 15.15 2.75H14.85ZM12.5 0.4C13.7959 0.4 14.85 1.45409 14.85 2.75H15.15C15.15 1.28841 13.9616 0.1 12.5 0.1V0.4ZM10.15 2.75C10.15 1.45409 11.2041 0.4 12.5 0.4V0.1C11.0384 0.1 9.85 1.28841 9.85 2.75H10.15ZM11.9125 5.02571C10.8998 4.76421 10.15 3.84283 10.15 2.75H9.85C9.85 3.98319 10.6958 5.02138 11.8375 5.31618L11.9125 5.02571ZM12.025 7.75V5.17095H11.725V7.75H12.025ZM5.625 7.9H11.875V7.6H5.625V7.9ZM2.65 10.875C2.65 9.23409 3.98409 7.9 5.625 7.9V7.6C3.81841 7.6 2.35 9.06841 2.35 10.875H2.65ZM2.65 15.25V10.875H2.35V15.25H2.65ZM1.25 15.4H2.5V15.1H1.25V15.4ZM1.1 13.375V15.25H1.4V13.375H1.1ZM0.625 12.9C0.887157 12.9 1.1 13.1128 1.1 13.375H1.4C1.4 12.9472 1.05284 12.6 0.625 12.6V12.9ZM0.15 13.375C0.15 13.1128 0.362843 12.9 0.625 12.9V12.6C0.197157 12.6 -0.15 12.9472 -0.15 13.375H0.15ZM0.15 15.875V13.375H-0.15V15.875H0.15ZM0.15 18.375V15.875H-0.15V18.375H0.15ZM0.625 18.85C0.362843 18.85 0.15 18.6372 0.15 18.375H-0.15C-0.15 18.8028 0.197157 19.15 0.625 19.15V18.85ZM1.1 18.375C1.1 18.6372 0.887157 18.85 0.625 18.85V19.15C1.05284 19.15 1.4 18.8028 1.4 18.375H1.1ZM1.1 16.5V18.375H1.4V16.5H1.1ZM2.5 16.35H1.25V16.65H2.5V16.35ZM2.65 20.875V16.5H2.35V20.875H2.65ZM5.625 23.85C3.98409 23.85 2.65 22.5159 2.65 20.875H2.35C2.35 22.6816 3.81841 24.15 5.625 24.15V23.85ZM19.375 23.85H5.625V24.15H19.375V23.85ZM22.35 20.875C22.35 22.5159 21.0159 23.85 19.375 23.85V24.15C21.1816 24.15 22.65 22.6816 22.65 20.875H22.35ZM22.35 16.5V20.875H22.65V16.5H22.35ZM23.75 16.35H22.5V16.65H23.75V16.35ZM23.9 18.375V16.5H23.6V18.375H23.9ZM24.375 18.85C24.1128 18.85 23.9 18.6372 23.9 18.375H23.6C23.6 18.8028 23.9472 19.15 24.375 19.15V18.85ZM24.85 18.375C24.85 18.6372 24.6372 18.85 24.375 18.85V19.15C24.8028 19.15 25.15 18.8028 25.15 18.375H24.85ZM24.85 15.8772V18.375H25.15V15.8772H24.85ZM24.85 15.875C24.85 15.8751 24.85 15.8753 24.85 15.8757C24.85 15.876 24.85 15.8766 24.85 15.8772H25.15C25.15 15.8771 25.15 15.8769 25.15 15.8765C25.15 15.8762 25.15 15.8756 25.15 15.875H24.85ZM24.85 15.8728C24.85 15.8734 24.85 15.874 24.85 15.8743C24.85 15.8747 24.85 15.8749 24.85 15.875H25.15C25.15 15.8744 25.15 15.8738 25.15 15.8735C25.15 15.8731 25.15 15.8729 25.15 15.8728H24.85ZM24.85 13.375V15.8728H25.15V13.375H24.85ZM24.375 12.9C24.6372 12.9 24.85 13.1128 24.85 13.375H25.15C25.15 12.9472 24.8028 12.6 24.375 12.6V12.9ZM23.9 13.375C23.9 13.1128 24.1128 12.9 24.375 12.9V12.6C23.9472 12.6 23.6 12.9472 23.6 13.375H23.9ZM23.9 15.25V13.375H23.6V15.25H23.9ZM22.5 15.4H23.75V15.1H22.5V15.4ZM22.35 10.875V15.25H22.65V10.875H22.35ZM19.375 7.9C21.0159 7.9 22.35 9.23409 22.35 10.875H22.65C22.65 9.06841 21.1816 7.6 19.375 7.6V7.9ZM13.125 7.9H19.375V7.6H13.125V7.9ZM12.975 5.17095V7.75H13.275V5.17095H12.975ZM21.1 10.875V15.8728H21.4V10.875H21.1ZM19.375 9.15C20.3259 9.15 21.1 9.92409 21.1 10.875H21.4C21.4 9.75841 20.4916 8.85 19.375 8.85V9.15ZM5.625 9.15H19.375V8.85H5.625V9.15ZM3.9 10.875C3.9 9.92409 4.67409 9.15 5.625 9.15V8.85C4.50841 8.85 3.6 9.75841 3.6 10.875H3.9ZM3.9 15.875L3.9 10.875H3.6L3.6 15.875H3.9ZM3.9 20.875L3.9 15.875H3.6L3.6 20.875H3.9ZM5.625 22.6C4.67409 22.6 3.9 21.8259 3.9 20.875H3.6C3.6 21.9916 4.50841 22.9 5.625 22.9V22.6ZM19.375 22.6H5.625V22.9H19.375V22.6ZM21.1 20.875C21.1 21.8259 20.3259 22.6 19.375 22.6V22.9C20.4916 22.9 21.4 21.9916 21.4 20.875H21.1ZM21.1 15.8772V20.875H21.4V15.8772H21.1ZM21.1 15.8753L21.1 15.8775L21.4 15.8769L21.4 15.8747L21.1 15.8753ZM21.1 15.8725L21.1 15.8747L21.4 15.8753L21.4 15.8731L21.1 15.8725ZM13.6 2.75C13.6 3.35716 13.1072 3.85 12.5 3.85V4.15C13.2728 4.15 13.9 3.52284 13.9 2.75H13.6ZM12.5 1.65C13.1072 1.65 13.6 2.14284 13.6 2.75H13.9C13.9 1.97716 13.2728 1.35 12.5 1.35V1.65ZM11.4 2.75C11.4 2.14284 11.8928 1.65 12.5 1.65V1.35C11.7272 1.35 11.1 1.97716 11.1 2.75H11.4ZM12.4994 3.85C11.8925 3.8497 11.4 3.35697 11.4 2.75H11.1C11.1 3.52261 11.7268 4.14961 12.4993 4.15L12.4994 3.85ZM12.5001 3.85L12.4994 3.85L12.4993 4.15L12.4999 4.15L12.5001 3.85ZM8.75 16.35C7.45409 16.35 6.4 15.2959 6.4 14H6.1C6.1 15.4616 7.28841 16.65 8.75 16.65V16.35ZM11.1 14C11.1 15.2959 10.0459 16.35 8.75 16.35V16.65C10.2116 16.65 11.4 15.4616 11.4 14H11.1ZM8.75 11.65C10.0459 11.65 11.1 12.7041 11.1 14H11.4C11.4 12.5384 10.2116 11.35 8.75 11.35V11.65ZM6.4 14C6.4 12.7041 7.45409 11.65 8.75 11.65V11.35C7.28841 11.35 6.1 12.5384 6.1 14H6.4ZM8.75 12.6C7.97716 12.6 7.35 13.2272 7.35 14H7.65C7.65 13.3928 8.14284 12.9 8.75 12.9V12.6ZM10.15 14C10.15 13.2272 9.52284 12.6 8.75 12.6V12.9C9.35716 12.9 9.85 13.3928 9.85 14H10.15ZM8.75 15.4C9.52284 15.4 10.15 14.7728 10.15 14H9.85C9.85 14.6072 9.35716 15.1 8.75 15.1V15.4ZM7.35 14C7.35 14.7728 7.97716 15.4 8.75 15.4V15.1C8.14284 15.1 7.65 14.6072 7.65 14H7.35ZM16.25 16.35C14.9541 16.35 13.9 15.2959 13.9 14H13.6C13.6 15.4616 14.7884 16.65 16.25 16.65V16.35ZM18.6 14C18.6 15.2959 17.5459 16.35 16.25 16.35V16.65C17.7116 16.65 18.9 15.4616 18.9 14H18.6ZM16.25 11.65C17.5459 11.65 18.6 12.7041 18.6 14H18.9C18.9 12.5384 17.7116 11.35 16.25 11.35V11.65ZM13.9 14C13.9 12.7041 14.9541 11.65 16.25 11.65V11.35C14.7884 11.35 13.6 12.5384 13.6 14H13.9ZM16.25 12.6C15.4772 12.6 14.85 13.2272 14.85 14H15.15C15.15 13.3928 15.6428 12.9 16.25 12.9V12.6ZM17.65 14C17.65 13.2272 17.0228 12.6 16.25 12.6V12.9C16.8572 12.9 17.35 13.3928 17.35 14H17.65ZM16.25 15.4C17.0228 15.4 17.65 14.7728 17.65 14H17.35C17.35 14.6072 16.8572 15.1 16.25 15.1V15.4ZM14.85 14C14.85 14.7728 15.4772 15.4 16.25 15.4V15.1C15.6428 15.1 15.15 14.6072 15.15 14H14.85ZM8.6 19.625C8.6 20.0528 8.94716 20.4 9.375 20.4V20.1C9.11284 20.1 8.9 19.8872 8.9 19.625H8.6ZM9.375 18.85C8.94716 18.85 8.6 19.1972 8.6 19.625H8.9C8.9 19.3628 9.11284 19.15 9.375 19.15V18.85ZM15.625 18.85H9.375V19.15H15.625V18.85ZM16.4 19.625C16.4 19.1972 16.0528 18.85 15.625 18.85V19.15C15.8872 19.15 16.1 19.3628 16.1 19.625H16.4ZM15.625 20.4C16.0528 20.4 16.4 20.0528 16.4 19.625H16.1C16.1 19.8872 15.8872 20.1 15.625 20.1V20.4ZM9.375 20.4H15.625V20.1H9.375V20.4Z" fill="#5F73F1"/>
</svg>
