<svg width="21" height="24" viewBox="0 0 21 24" fill="none" xmlns="http://www.w3.org/2000/svg">
<path d="M11.4332 2.90909C9.94878 2.90898 8.48694 3.27237 7.17536 3.96749C5.86378 4.66262 4.74237 5.66833 3.9091 6.89679C3.07583 8.12524 2.55605 9.53905 2.39516 11.0147C2.23428 12.4904 2.43719 13.983 2.98616 15.3621C3.53514 16.7413 4.41348 17.965 5.54445 18.9264C6.67543 19.8878 8.02462 20.5577 9.47416 20.8775C10.9237 21.1972 12.4295 21.1572 13.86 20.7608C15.2905 20.3644 16.6022 19.6238 17.6805 18.6036L11.0768 12L17.6805 5.39636C15.9943 3.79643 13.7576 2.90592 11.4332 2.90909ZM19.7277 5.75636L13.4877 12L19.6695 18.1818C19.7699 18.2817 19.8291 18.4157 19.8351 18.5572C19.8412 18.6987 19.7938 18.8373 19.7023 18.9455L19.6659 18.9891C18.2316 20.6793 16.3117 21.8871 14.1671 22.4482C12.0225 23.0094 9.75717 22.8968 7.67879 22.1257C5.60041 21.3547 3.80977 19.9625 2.5501 18.1384C1.29044 16.3143 0.622823 14.1466 0.637947 11.9299C0.65307 9.71312 1.3502 7.55476 2.63464 5.74799C3.91907 3.94122 5.72855 2.57363 7.81725 1.831C9.90595 1.08837 12.1726 1.00669 14.3094 1.59707C16.4461 2.18745 18.3493 3.42127 19.7605 5.13091C19.8338 5.22055 19.8711 5.33431 19.865 5.44997C19.859 5.56562 19.81 5.67487 19.7277 5.75636Z" fill="white" stroke="#5F73F1" stroke-width="0.5"/>
</svg>
