<svg width="23" height="24" viewBox="0 0 23 24" fill="none" xmlns="http://www.w3.org/2000/svg">
<path d="M22.933 12.4349C22.9378 12.3612 22.9395 12.2836 22.9395 12.211C22.9395 8.11791 20.7777 4.29596 17.2969 2.23731C17.2942 2.23566 17.2915 2.23621 17.2888 2.23456C17.2882 2.23401 17.2877 2.23346 17.2872 2.23291C15.5609 1.20441 13.5822 0.661011 11.5645 0.661011C9.51208 0.661011 7.50358 1.22256 5.75562 2.28461C5.7502 2.28791 5.7475 2.29341 5.74316 2.29616C5.73883 2.29836 5.73341 2.29836 5.72962 2.30111C2.31224 4.37186 0.189453 8.16906 0.189453 12.211C0.189453 12.2759 0.19162 12.3458 0.195953 12.4129C0.195953 12.4167 0.196495 12.42 0.196495 12.4244C0.196495 12.4288 0.196495 12.4332 0.196495 12.4371C0.196495 12.4409 0.19487 12.4442 0.19487 12.4475C0.271787 16.4845 2.46608 20.2355 5.923 22.2375C5.9257 22.2392 5.92841 22.2392 5.93112 22.2408L5.93166 22.2414C7.63304 23.2363 9.58033 23.7616 11.5645 23.7616C13.4955 23.7616 15.4022 23.26 17.077 22.3112C17.0802 22.3096 17.0824 22.3057 17.0857 22.3035C17.0911 22.3008 17.097 22.2991 17.103 22.2958C17.103 22.2958 17.1035 22.2953 17.1041 22.2953C20.6173 20.312 22.8517 16.545 22.9346 12.4646C22.9346 12.4618 22.933 12.4591 22.933 12.4558C22.9335 12.4519 22.933 12.4481 22.9335 12.4442C22.933 12.4409 22.933 12.4382 22.933 12.4349ZM8.80629 17.161L6.11095 12.4283L6.12883 12.3969L8.81495 7.69001H14.1926L16.8874 12.4228L14.1948 17.1407L14.1834 17.1605H8.80629V17.161ZM21.8502 11.8651L17.8234 11.87L15.2911 7.42161L15.1313 7.14001L17.2146 3.47866C19.9966 5.33326 21.7391 8.47706 21.8502 11.8651ZM16.2688 2.91766L14.4743 6.08016L14.1845 6.59001H8.82904L6.77558 2.96331C9.68108 1.40241 13.3503 1.38591 16.2688 2.91766ZM5.82062 3.54466L7.86758 7.13946L7.71212 7.41226L5.1755 11.8585L1.27929 11.8491C1.39466 8.51501 3.10037 5.40366 5.82062 3.54466ZM1.30366 12.986L5.17441 12.9816L7.86758 17.711L5.99883 20.9978C3.2932 19.2312 1.54037 16.2403 1.30366 12.986ZM6.94945 21.5489L8.81495 18.2605H14.1726L16.063 21.6078C13.236 23.0103 9.745 22.985 6.94945 21.5489ZM17.0364 21.0583L15.1313 17.7105L17.8229 12.9926L21.8247 13.0019C21.5815 16.2948 19.7935 19.3038 17.0364 21.0583Z" fill="white"/>
</svg>
