<svg width="20" height="25" viewBox="0 0 20 25" fill="none" xmlns="http://www.w3.org/2000/svg"><path d="M9.85551 23.9976L9.84813 24.0032L9.84087 24.009C9.66307 24.1507 9.35518 24.1368 9.17126 23.8872C9.17123 23.8872 9.1712 23.8871 9.17117 23.8871L2.91528 15.3674L2.9066 15.3556L2.89754 15.3441L2.79326 15.2113L2.78772 15.2043L2.78204 15.1974C2.5564 14.9217 2.34752 14.6161 2.13101 14.2487L2.11289 14.2179L2.0924 14.1887L1.96205 14.0029L1.95608 13.9944L1.94991 13.986C1.93574 13.9668 1.91926 13.9413 1.88925 13.8676L1.87204 13.8151L1.85131 13.7517L1.82148 13.6921C1.20903 12.4689 0.9 11.1212 0.9 9.71525C0.9 4.83495 4.78771 0.9 9.54145 0.9C14.2952 0.9 18.1829 4.83495 18.1829 9.71525C18.1829 11.1212 17.8739 12.4689 17.2614 13.6921L17.2316 13.7517L17.2109 13.815L17.2028 13.8396C17.1967 13.8527 17.1911 13.8649 17.1862 13.8755L17.1839 13.8804C17.17 13.9103 17.1603 13.9312 17.1508 13.9506C17.1383 13.9761 17.1316 13.9875 17.1301 13.9899L17.1105 14.0166L17.0906 14.049L16.9603 14.2613L16.9602 14.2613L16.957 14.2666C16.7665 14.5819 16.5512 14.8989 16.2848 15.2441L16.2787 15.2521L16.2727 15.2602L16.1945 15.3663L16.1926 15.3689L9.96387 23.8871C9.96364 23.8874 9.96341 23.8877 9.96318 23.888C9.93524 23.9257 9.89138 23.9702 9.85551 23.9976ZM14.1173 10.0072C14.1173 7.48165 12.0872 5.39102 9.56752 5.39102C7.04786 5.39102 5.01779 7.48165 5.01779 10.0072C5.01779 12.5328 7.04786 14.6235 9.56752 14.6235C12.0872 14.6235 14.1173 12.5328 14.1173 10.0072Z" stroke="#5F73F1" stroke-width="1.8"/></svg>