<svg width="27" height="20" viewBox="0 0 27 20" fill="none" xmlns="http://www.w3.org/2000/svg"><path fill-rule="evenodd" clip-rule="evenodd" d="M24.0833 19.8013H2.55783C1.30652 19.8013 0.291992 18.7868 0.291992 17.5355V2.80753C0.291992 1.55622 1.30652 0.541687 2.55783 0.541687H24.0833C25.3346 0.541687 26.3491 1.55622 26.3491 2.80753V17.5355C26.3491 18.7868 25.3346 19.8013 24.0833 19.8013ZM25.2162 2.80753C25.2162 2.18215 24.7087 1.67461 24.0833 1.67461H2.55783C1.93246 1.67461 1.42491 2.18215 1.42491 2.80753V17.5355C1.42491 18.1609 1.93246 18.6684 2.55783 18.6684H24.0833C24.7087 18.6684 25.2162 18.1609 25.2162 17.5355V2.80753ZM23.1396 16.2411L19.5516 12.6532L17.5016 14.7032L19.3902 16.5918C19.606 16.8076 19.606 17.1576 19.3902 17.374C19.1738 17.5899 18.8237 17.5899 18.6079 17.374L10.4883 9.2544L3.50155 16.2411C3.28573 16.4569 2.93566 16.4569 2.71927 16.2411C2.50345 16.0247 2.50345 15.6747 2.71927 15.4588L10.0294 8.14867C10.0476 8.12148 10.0595 8.09146 10.0832 8.0671C10.1948 7.95551 10.3421 7.90453 10.4883 7.90793C10.6344 7.90453 10.7817 7.95551 10.8933 8.0671C10.9171 8.09146 10.9284 8.12148 10.9471 8.14867L16.7193 13.9209L19.0928 11.5474C19.1115 11.5208 19.1228 11.4902 19.1466 11.4659C19.2582 11.3548 19.4055 11.3033 19.5516 11.3067C19.6978 11.3033 19.845 11.3548 19.9566 11.4659C19.9804 11.4902 19.9918 11.5208 20.0105 11.5474L23.9219 15.4588C24.1377 15.6747 24.1377 16.0247 23.9219 16.2411C23.7055 16.4569 23.3554 16.4569 23.1396 16.2411ZM16.1529 7.3392C14.9016 7.3392 13.887 6.32467 13.887 5.07336C13.887 3.82206 14.9016 2.80753 16.1529 2.80753C17.4042 2.80753 18.4187 3.82206 18.4187 5.07336C18.4187 6.32467 17.4042 7.3392 16.1529 7.3392ZM16.1529 3.94045C15.5275 3.94045 15.0199 4.44799 15.0199 5.07336C15.0199 5.69874 15.5275 6.20628 16.1529 6.20628C16.7782 6.20628 17.2858 5.69874 17.2858 5.07336C17.2858 4.44799 16.7782 3.94045 16.1529 3.94045Z" fill="#fff"/></svg>