<svg width="31" height="22" viewBox="0 0 31 22" fill="none" xmlns="http://www.w3.org/2000/svg"><path d="M25.1874 11C25.1968 12.7657 26.3124 14.3219 27.9561 14.9376C28.4061 15.1063 28.8936 15.1844 29.3749 15.1876C29.1655 14.9782 28.9593 14.7719 28.7499 14.5626C28.7499 15.8657 28.7499 17.1688 28.7499 18.4719C28.7499 18.6532 28.753 18.8376 28.7499 19.0188C28.7499 19.0813 28.7468 19.1407 28.7405 19.2032C28.728 19.3532 28.7718 19.0626 28.7374 19.2063C28.7311 19.2344 28.7249 19.2626 28.7186 19.2875C28.6999 19.3688 28.6561 19.4469 28.6436 19.5282C28.6718 19.3876 28.6655 19.4751 28.6374 19.5313C28.6249 19.5563 28.6124 19.5813 28.5968 19.6032C28.5874 19.6188 28.5061 19.7782 28.4843 19.775C28.4999 19.7532 28.5155 19.7344 28.5311 19.7125C28.5155 19.7344 28.4968 19.7563 28.478 19.775C28.4593 19.7969 28.4405 19.8157 28.4218 19.8344C28.3968 19.8626 28.2811 20.0001 28.2405 20.0001C28.2905 20.0001 28.3405 19.9344 28.2499 19.9876C28.2218 20.0063 28.1936 20.0251 28.1624 20.0438C28.1436 20.0532 27.9968 20.1501 27.978 20.1407C27.9999 20.1532 28.1061 20.0907 27.9936 20.1313C27.9593 20.1438 27.928 20.1532 27.8936 20.1625C27.8593 20.1719 27.8249 20.1813 27.7905 20.1907C27.7374 20.2032 27.5968 20.2001 27.7686 20.2001C27.6936 20.2001 27.6155 20.2125 27.5374 20.2125C27.4843 20.2125 27.4311 20.2125 27.378 20.2125C26.6436 20.2125 25.9061 20.2125 25.1718 20.2125C23.8249 20.2125 22.4749 20.2125 21.128 20.2125C19.4561 20.2125 17.7843 20.2125 16.1124 20.2125C14.4061 20.2125 12.6999 20.2125 10.9936 20.2125C9.54052 20.2125 8.09052 20.2125 6.63739 20.2125C5.73114 20.2125 4.82177 20.2125 3.91552 20.2125C3.75614 20.2125 3.59677 20.2125 3.43739 20.2125C3.43427 20.2125 3.43114 20.2125 3.42802 20.2125C3.41239 20.2125 3.40302 20.2125 3.38427 20.2125C3.35614 20.2125 3.32489 20.2094 3.29677 20.2094C3.26864 20.2063 3.24052 20.2032 3.21239 20.2001C3.30614 20.2126 3.32177 20.2157 3.25302 20.2032C3.18427 20.1844 3.11552 20.1719 3.04989 20.15C3.02177 20.1407 2.99677 20.1313 2.97177 20.1219C2.83427 20.0751 3.09364 20.1875 2.96864 20.1188C2.90927 20.0844 2.84677 20.0563 2.78739 20.0188C2.76552 20.0032 2.74052 19.9876 2.71864 19.9719C2.61552 19.9063 2.81239 20.0626 2.69989 19.9563C2.64989 19.9094 2.59989 19.8657 2.55302 19.8157C2.53114 19.7907 2.50927 19.7657 2.48427 19.7376C2.39364 19.6376 2.53114 19.8251 2.49364 19.7501C2.46552 19.6907 2.41552 19.6344 2.38427 19.5751C2.36864 19.5438 2.35302 19.5126 2.33739 19.4844C2.27489 19.3688 2.37489 19.5969 2.33427 19.4813C2.31239 19.4157 2.29052 19.3501 2.27177 19.2813C2.26864 19.2719 2.24052 19.1594 2.24677 19.1563C2.23739 19.1626 2.26239 19.3063 2.24989 19.1719C2.24677 19.1157 2.24364 19.0625 2.24364 19.0063C2.23427 17.6625 2.24364 16.3188 2.24364 14.9782C2.24364 14.8376 2.24364 14.6938 2.24364 14.5532C2.03427 14.7626 1.82802 14.9688 1.61864 15.1782C3.38427 15.1688 4.94052 14.0532 5.55614 12.4094C6.15614 10.8094 5.64052 8.8813 4.32177 7.79692C3.55927 7.17505 2.62489 6.8188 1.62489 6.81255C1.83427 7.02192 2.04052 7.22817 2.24989 7.43755C2.24989 6.13442 2.24989 4.8313 2.24989 3.52817C2.24989 3.34692 2.24677 3.16255 2.24989 2.9813C2.24989 2.9188 2.25302 2.85942 2.25927 2.79692C2.27177 2.64692 2.22802 2.93755 2.26239 2.7938C2.26864 2.76567 2.27489 2.73755 2.28114 2.71255C2.29989 2.6313 2.34364 2.55317 2.35614 2.47192C2.32802 2.61255 2.33427 2.52505 2.36239 2.4688C2.37489 2.4438 2.38739 2.4188 2.40302 2.39692C2.41239 2.3813 2.49364 2.22192 2.51552 2.22505C2.49989 2.24692 2.48427 2.26567 2.46864 2.28755C2.48427 2.26567 2.50302 2.2438 2.52177 2.22505C2.54052 2.20317 2.55927 2.18442 2.57802 2.16567C2.60302 2.13755 2.71864 2.00005 2.75927 2.00005C2.70927 2.00005 2.65927 2.06567 2.74989 2.01255C2.77802 1.9938 2.80614 1.97505 2.83739 1.9563C2.85614 1.94692 3.00302 1.85005 3.02177 1.85942C2.99989 1.84692 2.89364 1.90942 3.00614 1.8688C3.04052 1.8563 3.07177 1.84692 3.10614 1.83755C3.14052 1.82817 3.17489 1.8188 3.20927 1.80942C3.26239 1.79692 3.40302 1.80005 3.23114 1.80005C3.30614 1.80005 3.38427 1.78755 3.46239 1.78755C3.51552 1.78755 3.56864 1.78755 3.62177 1.78755C4.35614 1.78755 5.09364 1.78755 5.82802 1.78755C7.17489 1.78755 8.52489 1.78755 9.87177 1.78755C11.5436 1.78755 13.2155 1.78755 14.8874 1.78755C16.5936 1.78755 18.2999 1.78755 20.0061 1.78755C21.4593 1.78755 22.9093 1.78755 24.3624 1.78755C25.2686 1.78755 26.178 1.78755 27.0843 1.78755C27.2436 1.78755 27.403 1.78755 27.5624 1.78755C27.5655 1.78755 27.5686 1.78755 27.5718 1.78755C27.5874 1.78755 27.5968 1.78755 27.6155 1.78755C27.6436 1.78755 27.6749 1.79067 27.703 1.79067C27.7311 1.7938 27.7593 1.79692 27.7874 1.80005C27.6936 1.78755 27.678 1.78442 27.7468 1.79692C27.8155 1.81567 27.8843 1.82817 27.9499 1.85005C27.978 1.85942 28.003 1.8688 28.028 1.87817C28.1655 1.92505 27.9061 1.81255 28.0311 1.8813C28.0905 1.91567 28.153 1.9438 28.2124 1.9813C28.2343 1.99692 28.2593 2.01255 28.2811 2.02817C28.3843 2.0938 28.1874 1.93755 28.2999 2.0438C28.3499 2.09067 28.3999 2.13442 28.4468 2.18442C28.4686 2.20942 28.4905 2.23442 28.5155 2.26255C28.6061 2.36255 28.4686 2.17505 28.5061 2.25005C28.5343 2.30942 28.5843 2.36567 28.6155 2.42505C28.6311 2.4563 28.6468 2.48755 28.6624 2.51567C28.7249 2.6313 28.6249 2.40317 28.6655 2.5188C28.6874 2.58442 28.7093 2.65005 28.728 2.7188C28.7311 2.72817 28.7593 2.84067 28.753 2.8438C28.7624 2.83755 28.7374 2.6938 28.7499 2.82817C28.753 2.88442 28.7561 2.93755 28.7561 2.9938C28.7655 4.33755 28.7561 5.6813 28.7561 7.02192C28.7561 7.16255 28.7561 7.3063 28.7561 7.44692C28.9655 7.23755 29.1718 7.0313 29.3811 6.82192C27.6155 6.8313 26.0593 7.94692 25.4436 9.59067C25.2686 10.0313 25.1905 10.5219 25.1874 11C25.1843 11.3282 25.4749 11.6407 25.8124 11.625C26.153 11.6094 26.4343 11.35 26.4374 11C26.4374 10.8844 26.4436 10.7688 26.453 10.6532C26.4561 10.625 26.4593 10.5969 26.4624 10.5688C26.4499 10.6625 26.4468 10.6782 26.4593 10.6063C26.4686 10.55 26.478 10.4938 26.4905 10.4375C26.5124 10.3282 26.5405 10.2188 26.5749 10.1125C26.5905 10.0594 26.6093 10.0063 26.628 9.95317C26.6374 9.92817 26.6468 9.90005 26.6561 9.87505C26.6811 9.81255 26.6749 9.82193 26.6405 9.90942C26.6436 9.82193 26.7436 9.68755 26.7843 9.61255C26.8374 9.51567 26.8936 9.42192 26.953 9.3313C26.9843 9.28442 27.0155 9.24067 27.0468 9.19692C27.0874 9.1438 27.078 9.15318 27.0249 9.22505C27.0405 9.20317 27.0593 9.1813 27.078 9.16255C27.1468 9.07817 27.2218 8.99692 27.2968 8.92192C27.3718 8.84692 27.453 8.77192 27.5374 8.70317C27.5593 8.68442 27.578 8.6688 27.5999 8.65005C27.528 8.7063 27.5186 8.71255 27.5718 8.67192C27.6155 8.64067 27.6593 8.60942 27.7061 8.57817C27.7968 8.51567 27.8905 8.45942 27.9874 8.40942C28.0624 8.3688 28.1968 8.2688 28.2843 8.26567C28.1999 8.30005 28.1874 8.3063 28.2499 8.2813C28.2749 8.27192 28.303 8.26255 28.328 8.25317C28.3811 8.23442 28.4343 8.21567 28.4874 8.20005C28.5936 8.16567 28.703 8.13755 28.8124 8.11567C28.8686 8.10317 28.9249 8.0938 28.9811 8.08442C29.0499 8.07505 29.0374 8.07505 28.9436 8.08755C28.9718 8.08442 28.9999 8.0813 29.028 8.07817C29.1436 8.06567 29.2593 8.06255 29.3749 8.06255C29.7124 8.05942 29.9999 7.77817 29.9999 7.43755C29.9999 6.11567 29.9999 4.7938 29.9999 3.47505C29.9999 3.3063 30.003 3.14067 29.9999 2.97192C29.9936 2.30005 29.7155 1.62817 29.2093 1.17817C28.7093 0.731299 28.0936 0.534424 27.4311 0.534424C26.7155 0.534424 25.9968 0.534424 25.2811 0.534424C23.928 0.534424 22.578 0.534424 21.2249 0.534424C19.5249 0.534424 17.8249 0.534424 16.1249 0.534424C14.3999 0.534424 12.6718 0.534424 10.9468 0.534424C9.48114 0.534424 8.01552 0.534424 6.54989 0.534424C5.65302 0.534424 4.75614 0.534424 3.85927 0.534424C3.71864 0.534424 3.57802 0.534424 3.43739 0.534424C2.09989 0.546924 1.00927 1.64067 0.996766 2.97505C0.984266 4.32192 0.996766 5.6688 0.996766 7.01255C0.996766 7.15317 0.996766 7.29692 0.996766 7.43755C0.996766 7.77817 1.28427 8.05942 1.62177 8.06255C1.70927 8.06255 1.79677 8.06567 1.88427 8.07192C1.92802 8.07505 1.97177 8.0813 2.01239 8.08442C2.16239 8.09692 1.86864 8.05942 2.01552 8.08442C2.19677 8.11567 2.37489 8.1563 2.54989 8.21255C2.58739 8.22505 2.76864 8.26255 2.78427 8.29692C2.75927 8.28755 2.73427 8.27505 2.71239 8.26567C2.73739 8.27505 2.76239 8.28755 2.78739 8.30005C2.82489 8.3188 2.86239 8.33442 2.89989 8.35317C3.05927 8.43442 3.21239 8.52505 3.35614 8.62817C3.37802 8.6438 3.44364 8.67817 3.45614 8.70005C3.43427 8.68442 3.41552 8.6688 3.39364 8.65317C3.41552 8.6688 3.43739 8.68755 3.45614 8.7063C3.51864 8.75943 3.58114 8.81255 3.63739 8.8688C3.69677 8.92505 3.75302 8.98442 3.80927 9.0438C3.83739 9.07505 3.86239 9.10317 3.89052 9.13442C3.90927 9.1563 3.92489 9.17505 3.94364 9.19692C3.98427 9.25005 3.97802 9.24067 3.92177 9.16567C3.97177 9.19067 4.03114 9.3188 4.06239 9.36567C4.10614 9.43443 4.14989 9.50317 4.19052 9.57505C4.23114 9.64692 4.26864 9.7188 4.30302 9.7938C4.31552 9.82192 4.35302 9.87505 4.35302 9.9063C4.31864 9.82193 4.31239 9.80942 4.33739 9.87192C4.34677 9.89692 4.35614 9.92505 4.36552 9.95005C4.42177 10.1094 4.46864 10.2688 4.50302 10.4344C4.51239 10.475 4.51864 10.5188 4.52802 10.5594C4.53114 10.5719 4.53114 10.5876 4.53427 10.6C4.54364 10.6688 4.54364 10.6563 4.53114 10.5625C4.57177 10.6063 4.55302 10.8032 4.55614 10.8657C4.56239 11.0407 4.55302 11.2126 4.53739 11.3876C4.52489 11.5376 4.56239 11.2438 4.53739 11.3907C4.53114 11.4313 4.52489 11.475 4.51552 11.5157C4.49677 11.6125 4.47489 11.7094 4.44677 11.8032C4.42489 11.8844 4.39677 11.9625 4.36864 12.0407C4.36239 12.0563 4.34052 12.1501 4.32489 12.1563C4.33427 12.1313 4.34677 12.1063 4.35614 12.0844C4.34677 12.1094 4.33427 12.1344 4.32177 12.1594C4.24677 12.3219 4.16239 12.4782 4.06239 12.6282C4.03114 12.675 3.97177 12.8032 3.92177 12.8282C3.93739 12.8063 3.95302 12.7875 3.96864 12.7657C3.95302 12.7875 3.93427 12.8094 3.91552 12.8282C3.89052 12.8594 3.86239 12.8907 3.83427 12.9219C3.71552 13.0532 3.58739 13.1782 3.45302 13.2907C3.44364 13.3 3.43114 13.3094 3.42177 13.3157C3.36864 13.3563 3.37802 13.3501 3.45302 13.2938C3.43739 13.3282 3.34989 13.3688 3.32177 13.3907C3.24364 13.4438 3.16239 13.4969 3.07802 13.5438C2.99364 13.5907 2.90927 13.6376 2.82177 13.6782C2.79364 13.6907 2.74052 13.7282 2.70927 13.7282C2.79364 13.6938 2.80614 13.6875 2.74364 13.7126C2.71864 13.7219 2.69052 13.7313 2.66552 13.7407C2.48114 13.8063 2.29052 13.8594 2.09677 13.8938C2.07489 13.8969 1.99052 13.925 1.97177 13.9157C2.06864 13.9032 2.08114 13.9 2.00927 13.9094C1.98114 13.9125 1.95302 13.9157 1.92489 13.9188C1.82489 13.9282 1.72177 13.9313 1.61864 13.9313C1.28114 13.9344 0.993641 14.2157 0.993641 14.5563C0.993641 15.8782 0.993641 17.2001 0.993641 18.5188C0.993641 18.6876 0.990516 18.8532 0.993641 19.0219C0.999891 19.6938 1.27802 20.3657 1.78427 20.8157C2.28427 21.2626 2.89989 21.4594 3.56239 21.4594C4.27802 21.4594 4.99677 21.4594 5.71239 21.4594C7.06552 21.4594 8.41552 21.4594 9.76864 21.4594C11.4686 21.4594 13.1686 21.4594 14.8686 21.4594C16.5936 21.4594 18.3218 21.4594 20.0468 21.4594C21.5124 21.4594 22.978 21.4594 24.4436 21.4594C25.3405 21.4594 26.2374 21.4594 27.1343 21.4594C27.2749 21.4594 27.4155 21.4594 27.5561 21.4594C28.8936 21.4469 29.9843 20.3532 29.9968 19.0188C30.0093 17.6719 29.9968 16.3251 29.9968 14.9813C29.9968 14.8407 29.9968 14.6969 29.9968 14.5563C29.9968 14.2157 29.7093 13.9344 29.3718 13.9313C29.2561 13.9313 29.1405 13.925 29.0249 13.9157C28.9968 13.9125 28.9686 13.9094 28.9405 13.9063C29.0343 13.9188 29.0499 13.9219 28.978 13.9094C28.9218 13.9 28.8655 13.8907 28.8093 13.8782C28.6999 13.8563 28.5905 13.8282 28.4843 13.7938C28.4311 13.7782 28.378 13.7594 28.3249 13.7407C28.2999 13.7313 28.2718 13.7219 28.2468 13.7126C28.1843 13.6875 28.1936 13.6938 28.2811 13.7282C28.1936 13.725 28.0593 13.6251 27.9843 13.5844C27.8874 13.5313 27.7936 13.475 27.703 13.4157C27.6561 13.3844 27.6124 13.3532 27.5686 13.3219C27.5155 13.2813 27.5249 13.2907 27.5968 13.3438C27.5749 13.3282 27.553 13.3094 27.5343 13.2907C27.4499 13.2219 27.3686 13.1469 27.2936 13.0719C27.2186 12.9969 27.1436 12.9157 27.0749 12.8313C27.0561 12.8094 27.0405 12.7907 27.0218 12.7688C27.078 12.8407 27.0843 12.85 27.0436 12.7969C27.0124 12.7532 26.9811 12.7094 26.9499 12.6626C26.8874 12.5719 26.8311 12.4782 26.7811 12.3813C26.7405 12.3063 26.6405 12.1719 26.6374 12.0844C26.6718 12.1688 26.678 12.1813 26.653 12.1188C26.6436 12.0938 26.6343 12.0657 26.6249 12.0407C26.6061 11.9875 26.5874 11.9344 26.5718 11.8813C26.5374 11.7751 26.5093 11.6657 26.4874 11.5563C26.4749 11.5 26.4655 11.4438 26.4561 11.3876C26.4468 11.3188 26.4468 11.3313 26.4593 11.425C26.4561 11.3969 26.453 11.3688 26.4499 11.3407C26.4374 11.2251 26.4343 11.1094 26.4343 10.9938C26.4311 10.6657 26.1468 10.3532 25.8093 10.3688C25.4749 10.3907 25.1843 10.6501 25.1874 11Z" fill="#fff"/></svg>