<svg width="29" height="19" viewBox="0 0 29 19" fill="none" xmlns="http://www.w3.org/2000/svg"><path d="M28.3037 16.2144V2.61483C28.3036 2.49961 28.2736 2.38646 28.2168 2.28673C28.1599 2.187 28.0782 2.10419 27.9799 2.04664C27.8815 1.98908 27.7699 1.9588 27.6564 1.95883C27.5428 1.95886 27.4313 1.9892 27.3329 2.04681L20.149 6.25277V3.764C20.149 2.8932 19.8081 2.05807 19.2012 1.44232C18.5944 0.826575 17.7713 0.480652 16.9131 0.480652H3.42544C2.56721 0.480652 1.74412 0.826575 1.13725 1.44232C0.530387 2.05807 0.189453 2.8932 0.189453 3.764V15.0653C0.189453 15.9361 0.530387 16.7712 1.13725 17.387C1.74412 18.0027 2.56721 18.3486 3.42544 18.3486H16.9131C17.338 18.3486 17.7588 18.2637 18.1514 18.0987C18.544 17.9337 18.9008 17.6918 19.2012 17.387C19.5017 17.0821 19.7401 16.7201 19.9027 16.3218C20.0653 15.9234 20.149 15.4965 20.149 15.0653V12.5765L27.3329 16.7857C27.4313 16.8434 27.5428 16.8737 27.6564 16.8737C27.7699 16.8738 27.8815 16.8435 27.9799 16.7859C28.0782 16.7284 28.1599 16.6456 28.2168 16.5458C28.2736 16.4461 28.3036 16.3329 28.3037 16.2177V16.2144ZM18.8546 15.0653C18.8546 15.5878 18.6501 16.0888 18.286 16.4583C17.9218 16.8277 17.428 17.0353 16.9131 17.0353H3.42544C2.9105 17.0353 2.41665 16.8277 2.05253 16.4583C1.68841 16.0888 1.48385 15.5878 1.48385 15.0653V3.764C1.48385 3.24152 1.68841 2.74044 2.05253 2.37099C2.41665 2.00154 2.9105 1.79399 3.42544 1.79399H16.9131C17.428 1.79399 17.9218 2.00154 18.286 2.37099C18.6501 2.74044 18.8546 3.24152 18.8546 3.764V15.0653ZM27.0093 15.0653L20.149 11.0563V7.77296L27.0093 3.75415V15.0653Z" fill="#fff"/></svg>