<svg width="24" height="23" viewBox="0 0 24 23" fill="none" xmlns="http://www.w3.org/2000/svg"><path d="M20.9262 2.57958H19.1629V1.09795C19.1629 0.505294 18.5843 0.15509 17.9782 0.15509H16.3527C15.7466 0.15509 15.3058 0.505294 15.3058 1.09795V2.57958H8.69353V1.09795C8.69353 0.505294 8.25272 0.15509 7.64659 0.15509H6.02108C5.41496 0.15509 4.83639 0.505294 4.83639 1.09795V2.57958H3.07313C2.79369 2.57196 2.51564 2.62062 2.25624 2.72252C1.99685 2.82442 1.76166 2.97739 1.56529 3.17192C1.36892 3.36646 1.21556 3.5984 1.11474 3.85334C1.01393 4.10828 0.967806 4.38076 0.979248 4.65387V20.2245C0.979248 21.4098 1.86088 22.5143 3.07313 22.5143H20.9262C22.1384 22.5143 23.0201 21.4098 23.0201 20.2245V4.65387C23.0315 4.38076 22.9854 4.10828 22.8846 3.85334C22.7838 3.5984 22.6304 3.36646 22.434 3.17192C22.2376 2.97739 22.0025 2.82442 21.7431 2.72252C21.4837 2.62062 21.2056 2.57196 20.9262 2.57958ZM16.3527 1.23264H18.0609V4.19591H16.3527V1.23264ZM6.02108 1.23264H7.59149V4.19591H6.02108V1.23264ZM3.07313 3.65713H4.83639V4.24978C4.83639 4.84244 5.41496 5.27346 6.02108 5.27346H7.64659C7.78511 5.27717 7.92295 5.25323 8.05169 5.2031C8.18043 5.15297 8.29736 5.0777 8.39534 4.98189C8.49333 4.88609 8.57031 4.77175 8.62158 4.64588C8.67285 4.52 8.69733 4.38522 8.69353 4.24978V3.65713H15.3058V4.24978C15.302 4.38522 15.3265 4.52 15.3777 4.64588C15.429 4.77175 15.506 4.88609 15.604 4.98189C15.702 5.0777 15.8189 5.15297 15.9476 5.2031C16.0764 5.25323 16.2142 5.27717 16.3527 5.27346H17.9782C18.5843 5.27346 19.1629 4.84244 19.1629 4.24978V3.65713H20.9262C21.061 3.64882 21.1961 3.66913 21.3222 3.71666C21.4482 3.7642 21.5623 3.83783 21.6565 3.93252C21.7507 4.0272 21.8229 4.14069 21.868 4.2652C21.9131 4.38971 21.9302 4.5223 21.918 4.65387V7.69795H2.08129V4.65387C2.0691 4.5223 2.08616 4.38971 2.13131 4.2652C2.17645 4.14069 2.2486 4.0272 2.34282 3.93252C2.43704 3.83783 2.55109 3.7642 2.67715 3.71666C2.8032 3.66913 2.93829 3.64882 3.07313 3.65713ZM20.9262 21.4367H3.07313C2.467 21.4367 2.08129 20.8171 2.08129 20.2245V8.7755H21.918V20.2245C21.918 20.8171 21.5323 21.4367 20.9262 21.4367Z" fill="#fff"/><path d="M14.4512 19.4432L14.2032 19.3894L11.7236 18.1232L9.24404 19.3894C9.15324 19.4358 9.05099 19.4566 8.94878 19.4493C8.84657 19.4421 8.74845 19.4071 8.66545 19.3483C8.58245 19.2896 8.51785 19.2093 8.47892 19.1167C8.43999 19.024 8.42826 18.9225 8.44506 18.8237L8.94098 16.1298L6.92976 14.2441C6.85901 14.1693 6.80917 14.0779 6.78504 13.9789C6.76091 13.8798 6.76331 13.7763 6.792 13.6783C6.82848 13.5878 6.88822 13.5081 6.96543 13.4467C7.04265 13.3854 7.13475 13.3445 7.23282 13.3281L9.98792 12.9241L11.2277 10.4726C11.2728 10.3815 11.3433 10.3047 11.431 10.251C11.5187 10.1972 11.6201 10.1687 11.7236 10.1687C11.8271 10.1687 11.9286 10.1972 12.0163 10.251C12.104 10.3047 12.1744 10.3815 12.2196 10.4726L13.4593 12.9241L16.2145 13.3281C16.3125 13.3445 16.4046 13.3854 16.4818 13.4467C16.5591 13.5081 16.6188 13.5878 16.6553 13.6783C16.684 13.7763 16.6864 13.8798 16.6622 13.9789C16.6381 14.0779 16.5883 14.1693 16.5175 14.2441L14.5063 16.1298L15.0022 18.8237C15.0165 18.9205 15.0035 19.0193 14.9646 19.1095C14.9258 19.1996 14.8626 19.2778 14.7818 19.3355C14.6874 19.4073 14.5707 19.4453 14.4512 19.4432ZM11.7236 16.9649L11.9716 17.0188L13.7073 17.9347L13.3767 16.022C13.3634 15.9342 13.3714 15.8445 13.4001 15.7603C13.4289 15.676 13.4775 15.5996 13.542 15.5371L14.9471 14.2171L12.991 13.9477C12.9059 13.9353 12.8257 13.9014 12.758 13.8495C12.6904 13.7975 12.6378 13.7293 12.6053 13.6514L11.7236 11.9273L10.842 13.6514C10.8095 13.7293 10.7569 13.7975 10.6892 13.8495C10.6216 13.9014 10.5413 13.9353 10.4563 13.9477L8.50016 14.2171L9.90527 15.5371C9.96981 15.5996 10.0184 15.676 10.0471 15.7603C10.0758 15.8445 10.0839 15.9342 10.0706 16.022L9.73996 17.9347L11.4757 17.0188L11.7236 16.9649Z" fill="#fff"/></svg>