<svg width="27" height="24" viewBox="0 0 27 24" fill="none" xmlns="http://www.w3.org/2000/svg"><path d="M8.28661 15.8179C8.83484 15.8179 9.27927 15.3735 9.27927 14.8253C9.27927 14.277 8.83484 13.8326 8.28661 13.8326C7.73838 13.8326 7.29395 14.277 7.29395 14.8253C7.29395 15.3735 7.73838 15.8179 8.28661 15.8179Z" fill="#5F73F1" stroke="#5F73F1" stroke-width=".3"/><path d="M18.7134 15.8179C19.2616 15.8179 19.706 15.3735 19.706 14.8253C19.706 14.277 19.2616 13.8326 18.7134 13.8326C18.1651 13.8326 17.7207 14.277 17.7207 14.8253C17.7207 15.3735 18.1651 15.8179 18.7134 15.8179Z" fill="#5F73F1" stroke="#5F73F1" stroke-width=".3"/><path d="M26 14.404C26 12.9661 24.9577 11.7679 23.5891 11.523V11.0892C23.5891 5.52597 19.0632 1 13.5 1C7.93683 1 3.41087 5.52597 3.41087 11.0892V11.523C2.04227 11.768 1 12.9662 1 14.404C1 15.8543 2.06023 17.061 3.4462 17.2913C3.64127 19.5142 4.65829 21.1562 6.47832 22.178C8.09689 23.0867 10.3936 23.5284 13.5 23.5284C16.6064 23.5284 18.9032 23.0866 20.5217 22.178C22.3417 21.1562 23.3587 19.5143 23.5538 17.2913C24.9398 17.061 26 15.8543 26 14.404ZM2.03349 14.404C2.03349 13.5388 2.61689 12.8077 3.4108 12.5822V16.2259C2.61689 16.0004 2.03349 15.2693 2.03349 14.404ZM22.5556 16.4781C22.5556 18.7476 21.7248 20.3172 20.0158 21.2768C18.5558 22.0965 16.4245 22.4949 13.5 22.4949C10.5756 22.4949 8.44421 22.0965 6.98428 21.2768C5.27515 20.3172 4.44436 18.7476 4.44436 16.4781V11.0892C4.44436 6.99985 7.16921 3.5356 10.8984 2.41497C13.7393 2.45089 15.2524 4.50171 15.2524 5.98671C15.2524 7.12406 14.3271 8.04942 13.1897 8.04942C12.3368 8.04942 11.6429 7.3555 11.6429 6.50261C11.6429 5.87729 12.1516 5.36849 12.777 5.36849C13.0624 5.36849 13.2937 5.13712 13.2937 4.85174C13.2937 4.56637 13.0624 4.335 12.777 4.335C11.5817 4.335 10.6094 5.30738 10.6094 6.50261C10.6094 7.9254 11.7669 9.08291 13.1897 9.08291C14.8969 9.08291 16.2859 7.69396 16.2859 5.98671C16.2859 4.91414 15.747 3.76019 14.8443 2.89981C14.4833 2.55566 14.0725 2.26635 13.6242 2.0351C18.5604 2.10189 22.5556 6.1374 22.5556 11.0892V16.4781ZM23.5891 16.2259V12.5822C24.3831 12.8078 24.9665 13.5389 24.9665 14.4041C24.9665 15.2693 24.383 16.0004 23.5891 16.2259Z" fill="#5F73F1" stroke="#5F73F1" stroke-width=".3"/><path d="M15.4987 16.2485C14.3968 17.3505 12.6037 17.3505 11.5018 16.2485C11.2999 16.0467 10.9728 16.0467 10.771 16.2485C10.5692 16.4503 10.5692 16.7775 10.771 16.9793C11.5234 17.7318 12.5119 18.108 13.5003 18.108C14.4887 18.108 15.4771 17.7318 16.2296 16.9793C16.4314 16.7775 16.4314 16.4503 16.2296 16.2485C16.0277 16.0467 15.7006 16.0467 15.4987 16.2485Z" fill="#5F73F1" stroke="#5F73F1" stroke-width=".3"/></svg>