<svg width="26" height="24" viewBox="0 0 26 24" fill="none" xmlns="http://www.w3.org/2000/svg"><path d="M20.2899 8.24815H15.9999L11.9799 1.80335C11.6499 1.28655 11.0799 0.952148 10.4499 0.952148H8.61986C8.01986 0.952148 7.47986 1.25615 7.14986 1.74255C6.81986 2.22895 6.72986 2.86735 6.93986 3.41455L8.67986 8.24815H7.08986L5.79986 6.08975C5.49986 5.54255 4.89986 5.20815 4.26986 5.20815H2.10986C0.969856 5.20815 0.099856 6.27215 0.339856 7.39695L1.59986 13.3857C1.98986 15.3617 3.69986 16.7601 5.70986 16.7601H7.50986L6.39986 21.1985C6.27986 21.7457 6.39986 22.3233 6.72986 22.7489C7.05986 23.1745 7.59986 23.4481 8.16986 23.4481H10.0899C10.7799 23.4481 11.3799 23.0529 11.7099 22.4449L14.4999 16.7601H22.6899C24.3399 16.7601 25.6899 15.3921 25.6899 13.7201C25.6899 10.7105 23.2599 8.24815 20.2899 8.24815ZM8.04986 2.98895C7.98986 2.80655 8.01986 2.59375 8.10986 2.44175C8.22986 2.28975 8.40986 2.16815 8.58986 2.16815H10.4199C10.6299 2.16815 10.8099 2.25935 10.9299 2.44175L14.5899 8.24815H9.93986L8.04986 2.98895ZM22.6899 15.5441H15.0999L15.5799 14.6017C15.7299 14.2977 15.6099 13.9329 15.3099 13.7809C15.0099 13.6289 14.6499 13.7505 14.4999 14.0545L10.6299 21.8977C10.5399 22.1105 10.3299 22.2321 10.0899 22.2321H8.16986C7.98986 22.2321 7.80986 22.1409 7.68986 21.9889C7.56986 21.8369 7.53986 21.6545 7.56986 21.4721L9.27986 14.4801C9.36986 14.1457 9.15986 13.8113 8.82986 13.7505C8.49986 13.6593 8.16986 13.8721 8.10986 14.2065L7.77986 15.5441H5.67986C4.26986 15.5441 3.03986 14.5409 2.73986 13.1425L1.50986 7.18415C1.44986 6.94095 1.56986 6.75855 1.62986 6.66735C1.68986 6.57615 1.83986 6.45455 2.10986 6.45455H4.26986C4.47986 6.45455 4.68986 6.57615 4.77986 6.75855L6.06986 8.91695L6.39986 9.46415H7.08986H20.2899C21.6999 9.46415 22.9599 10.1937 23.7399 11.2881H20.2899C19.9599 11.2881 19.6899 11.5617 19.6899 11.8961C19.6899 12.2305 19.9599 12.5041 20.2899 12.5041H24.3099C24.4299 12.8993 24.4899 13.2945 24.4899 13.7201C24.4899 14.7233 23.6799 15.5441 22.6899 15.5441Z" fill="#5F73F1" stroke="#5F73F1" stroke-width=".2"/></svg>