<svg width="29" height="18" viewBox="0 0 29 18" fill="none" xmlns="http://www.w3.org/2000/svg"><path fill-rule="evenodd" clip-rule="evenodd" d="M1.88927 0.759205C1.76201 0.761528 1.63645 0.789065 1.51977 0.840245C1.40308 0.891424 1.29756 0.965243 1.20924 1.05748C1.12091 1.14972 1.05151 1.25857 1.00499 1.37781C0.958482 1.49706 0.935771 1.62436 0.938159 1.75244V10.5259H0.937988V12.4764H0.938159V16.3774C0.938159 16.5055 0.963223 16.6323 1.01192 16.7506C1.06061 16.869 1.13199 16.9765 1.22197 17.067C1.31195 17.1576 1.41877 17.2294 1.53633 17.2784C1.65389 17.3275 1.7799 17.3527 1.90715 17.3527C2.0344 17.3527 2.1604 17.3275 2.27796 17.2784C2.39553 17.2294 2.50235 17.1576 2.59233 17.067C2.6823 16.9765 2.75368 16.869 2.80238 16.7506C2.85107 16.6323 2.87614 16.5055 2.87614 16.3774V12.4764H26.1246V16.3776C26.1246 16.6362 26.2267 16.8843 26.4084 17.0672C26.5901 17.2501 26.8366 17.3528 27.0936 17.3528C27.3506 17.3528 27.597 17.2501 27.7787 17.0672C27.9605 16.8843 28.0626 16.6362 28.0626 16.3776V4.76131C28.0649 4.7338 28.0661 4.70615 28.0661 4.67845C28.0661 4.60117 28.0569 4.52435 28.039 4.44957C28.0271 4.39654 28.0109 4.34446 27.9903 4.29392C27.9411 4.17314 27.8684 4.06353 27.7764 3.97157C27.6843 3.87962 27.5749 3.8072 27.4545 3.7586C27.3342 3.71 27.2053 3.68621 27.0757 3.68865C27.025 3.68958 26.9749 3.69449 26.9256 3.70321H10.6278C10.5945 3.70147 10.5611 3.70147 10.5277 3.70321C10.2884 3.72729 10.0666 3.8401 9.90531 4.01968C9.74406 4.19927 9.65493 4.4328 9.65527 4.67485V5.65336H4.81387C4.78052 5.65162 4.74711 5.65162 4.71376 5.65336C4.47445 5.67744 4.25259 5.79025 4.09134 5.96983C3.93009 6.14942 3.84097 6.38295 3.84131 6.625V10.5259H2.87614V1.75244C2.87858 1.62133 2.85473 1.49107 2.806 1.36945C2.75727 1.24783 2.68467 1.13736 2.59254 1.04463C2.50041 0.951907 2.39064 0.878838 2.2698 0.829795C2.14896 0.780752 2.01954 0.756743 1.88927 0.759205ZM5.77929 10.5259H9.65527V7.59664H5.77929V10.5259ZM11.5933 7.02417V10.5259H26.1246V5.65369H11.5933V6.22583C11.5943 6.2282 11.5954 6.23058 11.5964 6.23296C11.6503 6.35654 11.6782 6.49003 11.6782 6.625C11.6782 6.75996 11.6503 6.89346 11.5964 7.01704C11.5954 7.01942 11.5943 7.0218 11.5933 7.02417Z" fill="#5F73F1"/><path d="M1.51977 0.840245L1.62018 1.06919V1.06919L1.51977 0.840245ZM1.88927 0.759205L1.89383 1.00916L1.89399 1.00916L1.88927 0.759205ZM1.20924 1.05748L1.3898 1.23039L1.3898 1.23039L1.20924 1.05748ZM1.00499 1.37781L1.2379 1.46866L1.00499 1.37781ZM0.938159 1.75244H1.1882L1.18812 1.74778L0.938159 1.75244ZM0.938159 10.5259V10.7759H1.18816V10.5259H0.938159ZM0.937988 10.5259V10.2759H0.687988V10.5259H0.937988ZM0.937988 12.4764H0.687988V12.7264H0.937988V12.4764ZM0.938159 12.4764H1.18816V12.2264H0.938159V12.4764ZM0.938159 16.3774H1.18816H0.938159ZM1.01192 16.7506L0.780732 16.8458L1.01192 16.7506ZM1.22197 17.067L1.39931 16.8908H1.39931L1.22197 17.067ZM1.53633 17.2784L1.44013 17.5092L1.44014 17.5092L1.53633 17.2784ZM2.27796 17.2784L2.37416 17.5092H2.37416L2.27796 17.2784ZM2.80238 16.7506L2.57119 16.6555V16.6555L2.80238 16.7506ZM2.87614 12.4764V12.2264H2.62614V12.4764H2.87614ZM26.1246 12.4764H26.3746V12.2264H26.1246V12.4764ZM28.0626 4.76131L27.8134 4.74021L27.8126 4.75074V4.76131H28.0626ZM28.039 4.44957L27.795 4.50411L27.7959 4.50789L28.039 4.44957ZM27.9903 4.29392L28.2218 4.19967L28.2218 4.19966L27.9903 4.29392ZM27.7764 3.97157L27.5996 4.14842V4.14842L27.7764 3.97157ZM27.4545 3.7586L27.5481 3.52678L27.5481 3.52678L27.4545 3.7586ZM27.0757 3.68865L27.0803 3.9386L27.0804 3.9386L27.0757 3.68865ZM26.9256 3.70321V3.95321H26.9476L26.9692 3.94938L26.9256 3.70321ZM10.6278 3.70321L10.6148 3.95321H10.6278V3.70321ZM10.5277 3.70321L10.5147 3.45325L10.5027 3.45446L10.5277 3.70321ZM9.65527 4.67485H9.90527V4.6745L9.65527 4.67485ZM9.65527 5.65336V5.90336H9.90527V5.65336H9.65527ZM4.81387 5.65336L4.80086 5.90336H4.81387V5.65336ZM4.71376 5.65336L4.70074 5.40341L4.68872 5.40461L4.71376 5.65336ZM4.09134 5.96983L3.90533 5.80281H3.90533L4.09134 5.96983ZM3.84131 6.625H4.09131L4.09131 6.62465L3.84131 6.625ZM3.84131 10.5259V10.7759H4.09131V10.5259H3.84131ZM2.87614 10.5259H2.62614V10.7759H2.87614V10.5259ZM2.87614 1.75244L2.62614 1.74777V1.75244H2.87614ZM2.806 1.36945L2.57393 1.46243L2.806 1.36945ZM2.59254 1.04463L2.41519 1.22084V1.22084L2.59254 1.04463ZM2.2698 0.829795L2.17579 1.06144L2.2698 0.829795ZM5.77929 10.5259H5.52929V10.7759H5.77929V10.5259ZM9.65527 10.5259V10.7759H9.90527V10.5259H9.65527ZM9.65527 7.59664H9.90527V7.34664H9.65527V7.59664ZM5.77929 7.59664V7.34664H5.52929V7.59664H5.77929ZM11.5933 7.02417L11.3649 6.92241L11.3433 6.97099V7.02417H11.5933ZM11.5933 10.5259H11.3433V10.7759H11.5933V10.5259ZM26.1246 10.5259V10.7759H26.3746V10.5259H26.1246ZM26.1246 5.65369H26.3746V5.40369H26.1246V5.65369ZM11.5933 5.65369V5.40369H11.3433V5.65369H11.5933ZM11.5933 6.22583H11.3433V6.27901L11.3649 6.32759L11.5933 6.22583ZM11.5964 6.23296L11.3673 6.33293L11.3673 6.33293L11.5964 6.23296ZM11.5964 7.01704L11.3673 6.91707L11.3673 6.91707L11.5964 7.01704ZM1.62018 1.06919C1.70665 1.03127 1.79963 1.01088 1.89383 1.00916L1.88471 0.509247C1.72438 0.512173 1.56625 0.546866 1.41935 0.6113L1.62018 1.06919ZM1.3898 1.23039C1.45542 1.16187 1.53372 1.10712 1.62018 1.06919L1.41935 0.6113C1.27245 0.675732 1.13971 0.76862 1.02867 0.884575L1.3898 1.23039ZM1.2379 1.46866C1.27254 1.37987 1.32418 1.29891 1.3898 1.23039L1.02867 0.884575C0.917637 1.00053 0.830474 1.13727 0.772085 1.28697L1.2379 1.46866ZM1.18812 1.74778C1.18634 1.65231 1.20327 1.55746 1.2379 1.46866L0.772085 1.28697C0.713698 1.43665 0.685206 1.5964 0.688202 1.7571L1.18812 1.74778ZM1.18816 10.5259V1.75244H0.688159V10.5259H1.18816ZM0.937988 10.7759H0.938159V10.2759H0.937988V10.7759ZM1.18799 12.4764V10.5259H0.687988V12.4764H1.18799ZM0.938159 12.2264H0.937988V12.7264H0.938159V12.2264ZM1.18816 16.3774V12.4764H0.688159V16.3774H1.18816ZM1.24311 16.6555C1.20684 16.5674 1.18816 16.4729 1.18816 16.3774H0.688159C0.688159 16.5381 0.719602 16.6973 0.780732 16.8458L1.24311 16.6555ZM1.39931 16.8908C1.33247 16.8236 1.27937 16.7436 1.24311 16.6555L0.780732 16.8458C0.841864 16.9943 0.931507 17.1294 1.04463 17.2432L1.39931 16.8908ZM1.63253 17.0477C1.54541 17.0114 1.46615 16.9581 1.39931 16.8908L1.04463 17.2432C1.15774 17.3571 1.29212 17.4475 1.44013 17.5092L1.63253 17.0477ZM1.90715 17.1027C1.81295 17.1027 1.71964 17.084 1.63253 17.0477L1.44014 17.5092C1.58815 17.5709 1.74684 17.6027 1.90715 17.6027V17.1027ZM2.18177 17.0477C2.09465 17.084 2.00134 17.1027 1.90715 17.1027V17.6027C2.06745 17.6027 2.22615 17.5709 2.37416 17.5092L2.18177 17.0477ZM2.41498 16.8908C2.34814 16.9581 2.26888 17.0114 2.18176 17.0477L2.37416 17.5092C2.52217 17.4475 2.65655 17.3571 2.76967 17.2432L2.41498 16.8908ZM2.57119 16.6555C2.53493 16.7436 2.48182 16.8236 2.41498 16.8908L2.76967 17.2432C2.88279 17.1294 2.97243 16.9943 3.03356 16.8458L2.57119 16.6555ZM2.62614 16.3774C2.62614 16.4729 2.60745 16.5674 2.57119 16.6555L3.03356 16.8458C3.09469 16.6973 3.12614 16.5381 3.12614 16.3774H2.62614ZM2.62614 12.4764V16.3774H3.12614V12.4764H2.62614ZM26.1246 12.2264H2.87614V12.7264H26.1246V12.2264ZM26.3746 16.3776V12.4764H25.8746V16.3776H26.3746ZM26.5857 16.891C26.4507 16.7551 26.3746 16.5704 26.3746 16.3776H25.8746C25.8746 16.702 26.0026 17.0135 26.231 17.2434L26.5857 16.891ZM27.0936 17.1028C26.9034 17.1028 26.7207 17.0268 26.5857 16.891L26.231 17.2434C26.4595 17.4733 26.7697 17.6028 27.0936 17.6028V17.1028ZM27.6014 16.891C27.4664 17.0268 27.2837 17.1028 27.0936 17.1028V17.6028C27.4174 17.6028 27.7276 17.4733 27.9561 17.2434L27.6014 16.891ZM27.8126 16.3776C27.8126 16.5704 27.7364 16.7551 27.6014 16.891L27.9561 17.2434C28.1845 17.0135 28.3126 16.702 28.3126 16.3776H27.8126ZM27.8126 4.76131V16.3776H28.3126V4.76131H27.8126ZM27.8161 4.67845C27.8161 4.69909 27.8152 4.7197 27.8134 4.74021L28.3117 4.78241C28.3146 4.74789 28.3161 4.71321 28.3161 4.67845H27.8161ZM27.7959 4.50789C27.8093 4.5636 27.8161 4.62085 27.8161 4.67845H28.3161C28.3161 4.58149 28.3046 4.48509 28.2821 4.39126L27.7959 4.50789ZM27.7587 4.38817C27.7741 4.42581 27.7862 4.4646 27.795 4.5041L28.283 4.39504C28.2681 4.32848 28.2477 4.26312 28.2218 4.19967L27.7587 4.38817ZM27.5996 4.14842C27.668 4.21673 27.7221 4.29824 27.7587 4.38817L28.2218 4.19966C28.1601 4.04804 28.0688 3.91033 27.9531 3.79472L27.5996 4.14842ZM27.3609 3.99041C27.4501 4.02642 27.5313 4.08012 27.5996 4.14842L27.9531 3.79472C27.8373 3.67912 27.6997 3.58797 27.5481 3.52678L27.3609 3.99041ZM27.0804 3.9386C27.1764 3.9368 27.2717 3.9544 27.3609 3.99041L27.5481 3.52678C27.3966 3.46559 27.2343 3.43562 27.071 3.43869L27.0804 3.9386ZM26.9692 3.94938C27.0056 3.94293 27.0428 3.93929 27.0803 3.9386L27.0711 3.43869C27.0073 3.43986 26.9441 3.44605 26.8821 3.45703L26.9692 3.94938ZM10.6278 3.95321H26.9256V3.45321H10.6278V3.95321ZM10.5407 3.95287C10.5654 3.95158 10.5901 3.95158 10.6148 3.95287L10.6408 3.45355C10.5988 3.45136 10.5567 3.45136 10.5147 3.45355L10.5407 3.95287ZM10.0913 4.18671C10.2111 4.05328 10.3757 3.96977 10.5528 3.95195L10.5027 3.45446C10.2012 3.48481 9.92199 3.62691 9.71929 3.85265L10.0913 4.18671ZM9.90527 4.6745C9.90502 4.49403 9.97148 4.32018 10.0913 4.18671L9.71929 3.85265C9.51663 4.07836 9.40485 4.37156 9.40527 4.6752L9.90527 4.6745ZM9.90527 5.65336V4.67485H9.40527V5.65336H9.90527ZM9.65527 5.40336H4.81387V5.90336H9.65527V5.40336ZM4.82687 5.4037C4.78486 5.40151 4.74277 5.40151 4.70076 5.4037L4.72676 5.90302C4.75145 5.90173 4.77618 5.90173 4.80087 5.90302L4.82687 5.4037ZM4.68872 5.40461C4.38721 5.43496 4.10803 5.57706 3.90533 5.80281L4.27736 6.13686C4.39716 6.00343 4.56169 5.91993 4.73879 5.9021L4.68872 5.40461ZM3.90533 5.80281C3.70266 6.02851 3.59088 6.32171 3.59131 6.62535L4.09131 6.62465C4.09106 6.44418 4.15752 6.27033 4.27736 6.13686L3.90533 5.80281ZM3.59131 6.625V10.5259H4.09131V6.625H3.59131ZM2.87614 10.7759H3.84131V10.2759H2.87614V10.7759ZM2.62614 1.75244V10.5259H3.12614V1.75244H2.62614ZM2.57393 1.46243C2.61022 1.553 2.628 1.65005 2.62618 1.74777L3.12609 1.7571C3.12916 1.59261 3.09924 1.42914 3.03806 1.27647L2.57393 1.46243ZM2.41519 1.22084C2.48363 1.28972 2.53765 1.37187 2.57393 1.46243L3.03806 1.27647C2.97689 1.12379 2.88571 0.984998 2.76988 0.868425L2.41519 1.22084ZM2.17579 1.06144C2.26532 1.09778 2.34676 1.15197 2.41519 1.22084L2.76988 0.868425C2.65405 0.751849 2.51596 0.659894 2.36382 0.598147L2.17579 1.06144ZM1.89399 1.00916C1.99042 1.00734 2.08625 1.02511 2.17579 1.06144L2.36382 0.598147C2.21167 0.536397 2.04866 0.506148 1.88455 0.50925L1.89399 1.00916ZM5.77929 10.7759H9.65527V10.2759H5.77929V10.7759ZM9.90527 10.5259V7.59664H9.40527V10.5259H9.90527ZM5.77929 7.84664H9.65527V7.34664H5.77929V7.84664ZM6.02929 10.5259V7.59664H5.52929V10.5259H6.02929ZM11.3433 7.02417V10.5259H11.8433V7.02417H11.3433ZM11.5933 10.7759H26.1246V10.2759H11.5933V10.7759ZM26.3746 10.5259V5.65369H25.8746V10.5259H26.3746ZM26.1246 5.40369H11.5933V5.90369H26.1246V5.40369ZM11.3433 5.65369V6.22583H11.8433V5.65369H11.3433ZM11.8255 6.133C11.8242 6.12998 11.8229 6.127 11.8216 6.12406L11.3649 6.32759C11.3657 6.32941 11.3665 6.33118 11.3673 6.33293L11.8255 6.133ZM11.9282 6.625C11.9282 6.45567 11.8932 6.28813 11.8255 6.13299L11.3673 6.33293C11.4074 6.42494 11.4282 6.5244 11.4282 6.625H11.9282ZM11.8255 7.11701C11.8932 6.96186 11.9282 6.79433 11.9282 6.625H11.4282C11.4282 6.7256 11.4074 6.82506 11.3673 6.91707L11.8255 7.11701ZM11.8216 7.12594C11.8229 7.123 11.8242 7.12002 11.8255 7.117L11.3673 6.91707C11.3665 6.91882 11.3657 6.92059 11.3649 6.92241L11.8216 7.12594Z" fill="#fff"/></svg>