<svg width="27" height="25" viewBox="0 0 27 25" fill="none" xmlns="http://www.w3.org/2000/svg"><path d="M5.07513 6.06438L5.07534 6.06438L21.2945 6.06438H21.2947C22.2125 6.06624 23.0922 6.43167 23.7412 7.08067C24.3902 7.72967 24.7556 8.60936 24.7575 9.52719V9.52739V13.6746V13.7804L24.6519 13.7745C23.6326 13.7176 22.6276 13.5077 21.6706 13.1519C20.2903 12.6416 18.8262 12.3963 17.3549 12.4287L17.3505 12.4288L17.3505 12.4287C15.8782 12.396 14.4128 12.6414 13.0315 13.1519L5.07513 6.06438ZM5.07513 6.06438C4.15731 6.06624 3.27762 6.43167 2.62862 7.08067C1.97962 7.72967 1.61419 8.60936 1.61233 9.52719V9.52739V12.3288V12.4254L1.70892 12.4287C2.95214 12.4711 4.18021 12.7153 5.34504 13.1518L5.34526 13.1519C6.57374 13.6091 7.87792 13.8285 9.18834 13.7986M5.07513 6.06438L5.38013 13.0582M9.18835 13.6986C7.88982 13.7285 6.59745 13.5112 5.38013 13.0582M9.18835 13.6986L9.18602 13.7986C9.18679 13.7986 9.18757 13.7986 9.18834 13.7986M9.18835 13.6986C10.4869 13.7289 11.7793 13.5115 12.9966 13.0582L9.18835 13.6986ZM5.38013 13.0582C4.20515 12.6179 2.96638 12.3715 1.71233 12.3288L5.38013 13.0582ZM9.18834 13.7986C10.4987 13.8289 11.8029 13.6094 13.0312 13.152L9.18834 13.7986ZM13.9411 4.45205V4.55205H14.0411L21.2942 4.55205C21.2942 4.55205 21.2943 4.55205 21.2943 4.55205C22.6115 4.55652 23.8734 5.08247 24.8039 6.01484C25.7344 6.94725 26.2578 8.21023 26.2596 9.52752V22.7842C26.2596 23.3454 26.0367 23.8835 25.6399 24.2803C25.2431 24.6771 24.7049 24.9 24.1438 24.9H2.22603L2.22556 24.9C1.94689 24.9013 1.67071 24.8475 1.41289 24.7418C1.15506 24.636 0.920659 24.4804 0.723154 24.2838C0.525648 24.0872 0.368925 23.8535 0.261985 23.5962C0.155046 23.3388 0.099997 23.0629 0.1 22.7842V9.52746C0.101794 8.20845 0.626563 6.94398 1.55924 6.0113C2.49194 5.0786 3.75644 4.55383 5.07547 4.55205H12.3288H12.4288V4.45205V0.856164C12.4288 0.655616 12.5084 0.463283 12.6502 0.321475C12.792 0.179667 12.9844 0.1 13.1849 0.1C13.3855 0.1 13.5778 0.179667 13.7196 0.321475C13.8614 0.463283 13.9411 0.655616 13.9411 0.856164V4.45205ZM1.72638 13.9412L1.6226 13.9372V14.0411V22.7842C1.6226 22.9443 1.68618 23.0977 1.79934 23.2109C1.9125 23.3241 2.06599 23.3876 2.22603 23.3876H24.1428C24.2228 23.3891 24.3022 23.3747 24.3765 23.3453C24.4511 23.3157 24.5191 23.2715 24.5764 23.2153C24.6338 23.1591 24.6793 23.092 24.7104 23.018C24.7415 22.944 24.7575 22.8645 24.7575 22.7842V15.3904V15.2949L24.6621 15.2905C23.4774 15.2361 22.3082 14.999 21.1958 14.5878C19.9673 14.1306 18.6632 13.9112 17.3528 13.9411C16.0367 13.9097 14.7267 14.1292 13.4927 14.5877C12.1167 15.0967 10.6572 15.342 9.19046 15.311L9.19047 15.3109L9.1865 15.311C7.71774 15.3381 6.25702 15.0881 4.88088 14.5741C3.87004 14.1956 2.80498 13.9819 1.72638 13.9412Z" fill="#5F73F1" stroke="#fff" stroke-width=".2"/></svg>