<svg width="26" height="25" viewBox="0 0 26 25" fill="none" xmlns="http://www.w3.org/2000/svg"><path d="M13.3903 24.6205C13.6226 24.3959 13.762 24.0784 13.762 23.7299V22.3358C13.762 21.9873 13.6149 21.6698 13.3903 21.4452C13.1657 21.2128 12.8482 21.0734 12.4997 21.0734C12.1512 21.0734 11.8337 21.2206 11.6091 21.4452L13.3903 24.6205ZM13.3903 24.6205C13.1657 24.8451 12.8482 24.9923 12.4997 24.9923C12.1512 24.9923 11.8337 24.8529 11.6091 24.6205H13.3903ZM13.2938 3.43924L13.2938 3.43923L13.292 3.44102C13.0935 3.63951 12.8134 3.76884 12.5074 3.76884C12.1994 3.76884 11.9208 3.6458 11.7247 3.44284L11.7247 3.44282L11.7229 3.44102C11.5244 3.24254 11.3951 2.96241 11.3951 2.65644V1.26239C11.3951 0.954339 11.5181 0.675788 11.7211 0.479594L11.7211 0.47961L11.7229 0.477812C11.9214 0.27933 12.2015 0.15 12.5074 0.15C12.8155 0.15 13.094 0.27304 13.2902 0.475999L13.2902 0.476014L13.292 0.477812C13.4905 0.676294 13.6198 0.956423 13.6198 1.26239V2.65644C13.6198 2.9645 13.4968 3.24305 13.2938 3.43924ZM24.5275 11.7136L24.5275 11.7136L24.5293 11.7154C24.7278 11.9139 24.8571 12.194 24.8571 12.5C24.8571 12.8081 24.7341 13.0866 24.5311 13.2828L24.5311 13.2828L24.5293 13.2846C24.3308 13.4831 24.0507 13.6124 23.7448 13.6124H22.3507C22.0427 13.6124 21.7642 13.4894 21.568 13.2864L21.568 13.2864L21.5662 13.2846C21.3677 13.0861 21.2384 12.806 21.2384 12.5C21.2384 12.1919 21.3614 11.9134 21.5644 11.7172L21.5644 11.7172L21.5662 11.7154C21.7647 11.5169 22.0448 11.3876 22.3507 11.3876H23.7448C24.0528 11.3876 24.3313 11.5106 24.5275 11.7136ZM11.7133 21.553L11.7133 21.553L11.7151 21.5512C11.9136 21.3528 12.1937 21.2234 12.4997 21.2234C12.8077 21.2234 13.0863 21.3465 13.2825 21.5494L13.2842 21.5512C13.4827 21.7497 13.612 22.0298 13.612 22.3358V23.7299C13.612 24.0379 13.489 24.3165 13.2861 24.5127L13.2842 24.5144C13.0858 24.7129 12.8056 24.8423 12.4997 24.8423C12.1916 24.8423 11.9131 24.7192 11.7169 24.5163L11.7169 24.5162L11.7151 24.5144C11.5167 24.316 11.3873 24.0358 11.3873 23.7299V22.3358C11.3873 22.0278 11.5104 21.7492 11.7133 21.553ZM3.43915 11.7136L3.43913 11.7136L3.44093 11.7154C3.63941 11.9139 3.76874 12.194 3.76874 12.5C3.76874 12.8081 3.6457 13.0866 3.44274 13.2828L3.44273 13.2828L3.44093 13.2846C3.24246 13.4831 2.96234 13.6124 2.65638 13.6124H1.26236C0.954318 13.6124 0.675776 13.4894 0.479588 13.2864L0.479603 13.2864L0.477805 13.2846C0.279328 13.0861 0.15 12.806 0.15 12.5C0.15 12.1919 0.273038 11.9134 0.475993 11.7172L0.476007 11.7172L0.477805 11.7154C0.676282 11.5169 0.956402 11.3876 1.26236 11.3876H2.65638C2.96442 11.3876 3.24296 11.5106 3.43915 11.7136ZM4.97485 12.5C4.97485 8.34647 8.35402 4.96722 12.5074 4.96722C16.6608 4.96722 20.04 8.34647 20.04 12.5C20.04 16.6535 16.6608 20.0328 12.5074 20.0328C8.35402 20.0328 4.97485 16.6535 4.97485 12.5ZM21.2379 5.33848L20.2543 6.32206C20.0355 6.54091 19.7487 6.64988 19.4698 6.64988C19.1908 6.64988 18.9041 6.54091 18.6852 6.32206C18.4664 6.10322 18.3574 5.81646 18.3574 5.53749C18.3574 5.25125 18.466 4.97209 18.6852 4.75291L19.6688 3.76932C19.888 3.55014 20.1671 3.44151 20.4533 3.44151C20.7396 3.44151 21.0187 3.55014 21.2379 3.76932C21.4567 3.98817 21.5657 4.27493 21.5657 4.5539C21.5657 4.84014 21.4571 5.1193 21.2379 5.33848ZM19.462 18.3424C19.7483 18.3424 20.0274 18.451 20.2466 18.6702L21.2301 19.6538C21.449 19.8726 21.5579 20.1594 21.5579 20.4384C21.5579 20.7246 21.4493 21.0037 21.2301 21.2229C21.0113 21.4418 20.7246 21.5507 20.4456 21.5507C20.1594 21.5507 19.8802 21.4421 19.661 21.2229L18.6775 20.2394C18.4586 20.0205 18.3497 19.7337 18.3497 19.4548C18.3497 19.1685 18.4583 18.8894 18.6775 18.6702C18.8963 18.4513 19.1831 18.3424 19.462 18.3424ZM3.76923 19.6538L4.75279 18.6702C4.97163 18.4513 5.25838 18.3424 5.53735 18.3424C5.81631 18.3424 6.10306 18.4513 6.3219 18.6702C6.54074 18.889 6.64971 19.1758 6.64971 19.4548C6.64971 19.741 6.54108 20.0202 6.3219 20.2394L5.33834 21.2229C5.1195 21.4418 4.83276 21.5507 4.55379 21.5507C4.26757 21.5507 3.98841 21.4421 3.76923 21.2229C3.55039 21.0041 3.44143 20.7173 3.44143 20.4384C3.44143 20.1521 3.55006 19.873 3.76923 19.6538ZM5.54509 6.64988C5.25887 6.64988 4.97972 6.54125 4.76054 6.32206L3.77698 5.33848C3.55814 5.11964 3.44917 4.83288 3.44917 4.5539C3.44917 4.26767 3.5578 3.98851 3.77698 3.76932C3.99582 3.55048 4.28257 3.44151 4.56153 3.44151C4.84776 3.44151 5.12691 3.55014 5.34609 3.76932L6.32965 4.75291C6.54849 4.97175 6.65745 5.25851 6.65745 5.53749C6.65745 5.82372 6.54883 6.10288 6.32965 6.32206C6.11047 6.54125 5.83131 6.64988 5.54509 6.64988ZM6.71941 12.4923C6.71941 15.6886 9.31916 18.2804 12.5074 18.2804C15.7037 18.2804 18.2955 15.6806 18.2955 12.4923C18.2955 9.2959 15.6957 6.70409 12.5074 6.70409C9.31115 6.70409 6.71941 9.30391 6.71941 12.4923Z" fill="#5F73F1" stroke="#fff" stroke-width=".3"/></svg>