<svg width="32" height="26" viewBox="0 0 32 26" fill="none" xmlns="http://www.w3.org/2000/svg"><path d="M12.8322 20.7441C13.1202 20.7441 13.3762 20.6481 13.5682 20.4561L19.9362 14.0881C20.1282 13.8961 20.2242 13.6401 20.2242 13.3521C20.2242 13.0641 20.1282 12.8081 19.9362 12.6161C19.5202 12.2001 18.8802 12.2001 18.4642 12.6161L12.0962 18.9841C11.6802 19.4001 11.6802 20.0401 12.0962 20.4561C12.2882 20.6481 12.5442 20.7441 12.8322 20.7441Z" fill="#5F73F1" stroke="#fff" stroke-width=".6"/><path d="M13.3441 15.4001C14.1747 15.4001 14.8481 14.7267 14.8481 13.8961C14.8481 13.0655 14.1747 12.3921 13.3441 12.3921C12.5135 12.3921 11.8401 13.0655 11.8401 13.8961C11.8401 14.7267 12.5135 15.4001 13.3441 15.4001Z" fill="#5F73F1" stroke="#fff" stroke-width=".6"/><path d="M18.6561 20.7121C19.4867 20.7121 20.1601 20.0387 20.1601 19.2081C20.1601 18.3775 19.4867 17.7041 18.6561 17.7041C17.8255 17.7041 17.1521 18.3775 17.1521 19.2081C17.1521 20.0387 17.8255 20.7121 18.6561 20.7121Z" fill="#5F73F1" stroke="#fff" stroke-width=".6"/><path d="M30.08 7.81605H27.904L22.464 1.16005C22.08 0.680046 21.344 0.616046 20.864 1.00005C20.384 1.38405 20.32 2.12005 20.704 2.60005L24.992 7.84805H7.00805L11.296 2.60005C11.68 2.12005 11.616 1.41605 11.136 1.00005C10.656 0.616046 9.95205 0.680046 9.53605 1.16005L4.09605 7.81605H1.92005C1.31205 7.81605 0.800049 8.32805 0.800049 8.93605C0.800049 9.54405 1.31205 10.056 1.92005 10.056H3.29605L5.50405 24.264C5.60005 24.808 6.04805 25.224 6.62405 25.224H25.376C25.92 25.224 26.4 24.808 26.496 24.264L28.704 10.056H30.08C30.688 10.056 31.2 9.54405 31.2 8.93605C31.2 8.32805 30.688 7.81605 30.08 7.81605ZM24.416 23.016H7.58405L5.56805 10.088H26.432L24.416 23.016Z" fill="#5F73F1" stroke="#fff" stroke-width=".6"/></svg>