<svg width="28" height="25" viewBox="0 0 28 25" fill="none" xmlns="http://www.w3.org/2000/svg"><path d="M24.159 1.34619H18.45C16.8851 1.35044 15.3612 1.84386 14.094 2.75659H14.028C12.7507 1.83932 11.2148 1.34578 9.639 1.34619H3.963C3.26283 1.34619 2.59133 1.62265 2.09624 2.11474C1.60114 2.60684 1.323 3.27426 1.323 3.97019V19.1238C1.323 19.8197 1.60114 20.4871 2.09624 20.9792C2.59133 21.4713 3.26283 21.7478 3.963 21.7478H9.639C10.6655 21.7379 11.6695 22.0475 12.51 22.6334L13.302 23.191C13.5179 23.3613 13.7854 23.454 14.061 23.454C14.3366 23.454 14.6041 23.3613 14.82 23.191L15.612 22.6334C16.4433 22.054 17.4347 21.7447 18.45 21.7478H24.159C24.8592 21.7478 25.5307 21.4713 26.0258 20.9792C26.5209 20.4871 26.799 19.8197 26.799 19.1238V3.97019C26.799 3.27426 26.5209 2.60684 26.0258 2.11474C25.5307 1.62265 24.8592 1.34619 24.159 1.34619ZM9.639 19.1238H3.963V3.97019H9.639C10.6688 3.97203 11.6724 4.29307 12.51 4.88859L12.741 5.05259V19.7798C11.765 19.3465 10.7079 19.1229 9.639 19.1238ZM18.45 19.1238C17.3921 19.1265 16.3465 19.35 15.381 19.7798V5.05259L15.612 4.88859C16.4404 4.29953 17.4315 3.97881 18.45 3.97019H24.159V19.1238H18.45Z" fill="#5F73F1" stroke="#fff" stroke-width="1.2"/></svg>