<svg width="31" height="22" viewBox="0 0 31 22" fill="none" xmlns="http://www.w3.org/2000/svg"><path d="M30.2226 5.73655L15.6618 0.0578184C15.4753 -0.0192728 15.2658 -0.0192728 15.0793 0.0578184L0.518482 5.73655C0.372458 5.79341 0.245955 5.89121 0.154175 6.01822C0.0623944 6.14523 0.0092402 6.29605 0.00109912 6.45253C-0.00704196 6.60902 0.0301764 6.76454 0.108282 6.90038C0.186388 7.03623 0.302058 7.14664 0.441395 7.21834L5.67474 9.83929V16.6315C5.70642 17.1625 5.87234 17.6768 6.15696 18.1262C6.44159 18.5756 6.83561 18.9455 7.30213 19.2011C9.16935 20.4602 12.347 21.1111 15.4134 21.1111C18.4797 21.1111 21.6574 20.4602 23.5246 19.2011C23.9912 18.9455 24.3852 18.5756 24.6698 18.1262C24.9544 17.6768 25.1204 17.1625 25.152 16.6315V9.83929L26.7709 8.98277V16.9998C26.8272 17.1712 26.9362 17.3204 27.0823 17.4262C27.2284 17.5319 27.4042 17.5889 27.5846 17.5889C27.7649 17.5889 27.9407 17.5319 28.0868 17.4262C28.2329 17.3204 28.3419 17.1712 28.3983 16.9998V8.2119L30.3854 7.21834C30.5247 7.14664 30.6404 7.03623 30.7185 6.90038C30.7966 6.76454 30.8338 6.60902 30.8257 6.45253C30.8175 6.29605 30.7644 6.14523 30.6726 6.01822C30.5808 5.89121 30.4543 5.79341 30.3083 5.73655H30.2226ZM2.71974 6.59308L15.3277 1.67664L27.9357 6.58451L16.6639 12.2632L15.3277 12.8885L13.9916 12.2632L2.71974 6.59308ZM23.439 14.0962V16.6658C23.439 17.8563 20.3555 19.5094 15.3277 19.5094C10.3 19.5094 7.21648 17.8221 7.21648 16.6315V10.6359L11.1222 12.5973L13.6147 13.8564L14.9252 14.5159C15.0382 14.5774 15.1648 14.6096 15.2935 14.6096C15.4221 14.6096 15.5488 14.5774 15.6618 14.5159L17.0408 13.8564L19.5675 12.6059L23.4733 10.6444L23.439 14.0962Z" fill="#5F73F1"/></svg>