<svg width="26" height="15" viewBox="0 0 26 15" fill="none" xmlns="http://www.w3.org/2000/svg"><path d="M6.29908 9.53874C3.57877 9.53874 3.57877 13.6551 6.29908 13.6551C9.01611 13.6551 9.01611 9.53874 6.29908 9.53874ZM16.7422 12.1873H9.50982C8.8559 15.6939 3.74225 15.6939 3.08833 12.1873C2.63713 12.1873 2.11726 12.255 1.84588 12.0744C-1.37794 9.95489 0.992518 4.69328 6.72085 4.97072C7.55133 3.95775 8.90495 1.82214 9.54252 1.49309C10.3468 1.08016 12.75 0.667231 15.4082 0.812402C18.838 1.00274 22.7778 2.10925 24.465 5.30945C25.521 7.30957 26.2698 12.1873 24.7298 12.1873H23.1637C22.5097 15.6939 17.3961 15.6939 16.7422 12.1873ZM9.50982 11.0033H16.7422C17.3961 7.4999 22.5097 7.4999 23.1637 11.0033H24.3505C24.6709 9.80327 24.0334 7.05149 23.4023 5.85464C20.6559 0.64465 10.5986 1.98344 10.0591 2.55767C9.73215 2.9093 9.44116 3.319 9.0815 3.82226C8.68261 4.38036 8.20525 5.04814 7.4794 5.92239C7.36169 6.08691 7.16225 6.19015 6.94319 6.17079C4.64139 5.99013 2.50307 6.80309 1.7903 8.57416C1.6072 9.03548 1.55489 9.50325 1.64317 9.9194C1.73472 10.3485 1.9734 10.7324 2.36902 11.0033H3.08833C3.74225 7.4999 8.8559 7.4999 9.50982 11.0033ZM19.9529 9.53874C17.2326 9.53874 17.2326 13.6551 19.9529 13.6551C22.67 13.6551 22.67 9.53874 19.9529 9.53874Z" fill="#5F73F1" stroke="#5F73F1" stroke-width=".3"/></svg>