<svg width="28" height="25" viewBox="0 0 28 25" fill="none" xmlns="http://www.w3.org/2000/svg"><path d="M24.159 1.34631H18.45C16.8851 1.35056 15.3612 1.84398 14.094 2.75671H14.028C12.7507 1.83944 11.2148 1.3459 9.639 1.34631H3.963C3.26283 1.34631 2.59133 1.62277 2.09624 2.11487C1.60114 2.60696 1.323 3.27439 1.323 3.97031V19.1239C1.323 19.8198 1.60114 20.4873 2.09624 20.9794C2.59133 21.4715 3.26283 21.7479 3.963 21.7479H9.639C10.6655 21.738 11.6695 22.0477 12.51 22.6335L13.302 23.1911C13.5179 23.3614 13.7854 23.4541 14.061 23.4541C14.3366 23.4541 14.6041 23.3614 14.82 23.1911L15.612 22.6335C16.4433 22.0542 17.4347 21.7448 18.45 21.7479H24.159C24.8592 21.7479 25.5307 21.4715 26.0258 20.9794C26.5209 20.4873 26.799 19.8198 26.799 19.1239V3.97031C26.799 3.27439 26.5209 2.60696 26.0258 2.11487C25.5307 1.62277 24.8592 1.34631 24.159 1.34631ZM9.639 19.1239H3.963V3.97031H9.639C10.6688 3.97216 11.6724 4.2932 12.51 4.88871L12.741 5.05271V19.7799C11.765 19.3466 10.7079 19.123 9.639 19.1239ZM18.45 19.1239C17.3921 19.1267 16.3465 19.3501 15.381 19.7799V5.05271L15.612 4.88871C16.4404 4.29965 17.4315 3.97893 18.45 3.97031H24.159V19.1239H18.45Z" fill="#5F73F1" stroke="#fff" stroke-width="1.2"/></svg>