<svg width="23" height="28" viewBox="0 0 23 28" fill="none" xmlns="http://www.w3.org/2000/svg"><path fill-rule="evenodd" clip-rule="evenodd" d="M12.4962 11.9H10.5038L9.79574 15.4665C9.71643 15.8711 9.36375 16.1499 8.96887 16.1499C8.91487 16.1499 8.85918 16.1448 8.80181 16.1329C8.34618 16.0428 8.05087 15.594 8.142 15.1333L8.78391 11.9H7.02221L2.48195 24.0992C4.10195 24.5633 7.82626 25.5 11.4999 25.5C15.1736 25.5 18.8979 24.5633 20.5196 24.0992L15.9794 11.9H14.2161L14.858 15.1334C14.9508 15.5941 14.6538 16.0412 14.1948 16.133C14.1408 16.1449 14.0851 16.15 14.0294 16.15C13.6362 16.15 13.2852 15.8712 13.2042 15.4666L12.4962 11.9ZM13.1458 10.2H9.86043C9.82072 10.1971 9.7814 10.1972 9.74267 10.2H6.82715C6.37996 9.6322 5.42484 8.2433 5.58853 6.9037C5.7944 5.1918 5.26453 3.57 4.91859 2.7319L5.9429 1.7H6.75121C7.26084 2.6078 8.58721 4.25 11.4998 4.25C14.4125 4.25 15.7388 2.6078 16.2485 1.7H17.0568L18.0811 2.7319C17.7351 3.57 17.2053 5.1935 17.4111 6.9037C17.5748 8.2518 16.6214 9.6339 16.1725 10.2H13.2302C13.2022 10.1985 13.174 10.1985 13.1458 10.2ZM5.47373 11.2182C4.85843 10.431 3.67842 8.63668 3.91115 6.6963C4.13896 4.8093 3.17203 2.9699 3.1619 2.9512C2.9864 2.6214 3.04546 2.2151 3.30871 1.9482L4.99621 0.2482C5.15484 0.0901 5.36915 0 5.59359 0H7.28109C7.6439 0 7.96621 0.2346 8.08096 0.5814C8.10796 0.6545 8.80996 2.55 11.4998 2.55C14.2353 2.55 14.9103 0.6018 14.917 0.5814C15.0335 0.2346 15.3558 0 15.7186 0H17.4061C17.6305 0 17.8448 0.0901 18.0035 0.2482L19.691 1.9482C19.9525 2.2117 20.0116 2.6214 19.8378 2.9495C19.8277 2.9682 18.8624 4.8246 19.0885 6.6963C19.3238 8.63543 18.1434 10.4305 17.5278 11.218L22.4164 24.3508C22.4974 24.5667 22.4873 24.8081 22.3877 25.0155C22.2881 25.2246 22.1109 25.3844 21.8933 25.4575C21.6789 25.5289 16.6401 27.2 11.4999 27.2C6.35982 27.2 1.31926 25.5289 1.10832 25.4575C0.890633 25.3844 0.713446 25.2246 0.613883 25.0155C0.514321 24.8081 0.505883 24.5667 0.585195 24.3508L5.47373 11.2182Z" fill="#5F73F1"/><path d="M10.5038 11.9V11.75H10.3807L10.3567 11.8708L10.5038 11.9ZM12.4962 11.9L12.6433 11.8708L12.6193 11.75H12.4962V11.9ZM9.79574 15.4665L9.64862 15.4373L9.64855 15.4377L9.79574 15.4665ZM8.80181 16.1329L8.83227 15.9861L8.83091 15.9858L8.80181 16.1329ZM8.142 15.1333L7.99487 15.1041L7.99485 15.1042L8.142 15.1333ZM8.78391 11.9L8.93104 11.9292L8.96662 11.75H8.78391V11.9ZM7.02221 11.9V11.75H6.91798L6.88163 11.8477L7.02221 11.9ZM2.48195 24.0992L2.34137 24.0469L2.28484 24.1988L2.44063 24.2434L2.48195 24.0992ZM20.5196 24.0992L20.5609 24.2434L20.7168 24.1988L20.6602 24.0469L20.5196 24.0992ZM15.9794 11.9L16.1199 11.8477L16.0836 11.75H15.9794V11.9ZM14.2161 11.9V11.75H14.0334L14.0689 11.9292L14.2161 11.9ZM14.858 15.1334L14.7109 15.1626L14.7109 15.163L14.858 15.1334ZM14.1948 16.133L14.1654 15.9859L14.1625 15.9865L14.1948 16.133ZM13.2042 15.4666L13.0571 15.4958L13.0572 15.4961L13.2042 15.4666ZM9.86043 10.2L9.84963 10.35H9.86043V10.2ZM13.1458 10.2V10.3502L13.154 10.3498L13.1458 10.2ZM9.74267 10.2V10.3504L9.7535 10.3496L9.74267 10.2ZM6.82715 10.2L6.70931 10.2928L6.75435 10.35H6.82715V10.2ZM5.58853 6.9037L5.73742 6.92189L5.73745 6.92161L5.58853 6.9037ZM4.91859 2.7319L4.81213 2.62623L4.7419 2.69698L4.77994 2.78913L4.91859 2.7319ZM5.9429 1.7V1.55H5.88044L5.83644 1.59433L5.9429 1.7ZM6.75121 1.7L6.88201 1.62657L6.83903 1.55H6.75121V1.7ZM16.2485 1.7V1.55H16.1607L16.1177 1.62657L16.2485 1.7ZM17.0568 1.7L17.1632 1.59433L17.1192 1.55H17.0568V1.7ZM18.0811 2.7319L18.2197 2.78913L18.2578 2.69698L18.1875 2.62623L18.0811 2.7319ZM17.4111 6.9037L17.2622 6.92163L17.2622 6.92178L17.4111 6.9037ZM16.1725 10.2V10.35H16.245L16.2901 10.2932L16.1725 10.2ZM13.2302 10.2L13.2221 10.35H13.2302V10.2ZM3.91115 6.6963L3.76223 6.67832L3.76222 6.67844L3.91115 6.6963ZM5.47373 11.2182L5.61431 11.2705L5.64357 11.1919L5.59191 11.1258L5.47373 11.2182ZM3.1619 2.9512L3.02948 3.02167L3.02999 3.02262L3.1619 2.9512ZM3.30871 1.9482L3.20226 1.84253L3.20192 1.84287L3.30871 1.9482ZM4.99621 0.2482L4.89032 0.141957L4.88976 0.142526L4.99621 0.2482ZM8.08096 0.5814L7.93847 0.628548L7.94025 0.633372L8.08096 0.5814ZM14.917 0.5814L14.7748 0.533656L14.7746 0.534285L14.917 0.5814ZM18.0035 0.2482L18.1099 0.142525L18.1094 0.141958L18.0035 0.2482ZM19.691 1.9482L19.7974 1.84253L19.691 1.9482ZM19.8378 2.9495L19.9697 3.02092L19.9703 3.01972L19.8378 2.9495ZM19.0885 6.6963L18.9396 6.71429L18.9396 6.71437L19.0885 6.6963ZM17.5278 11.218L17.4096 11.1256L17.3579 11.1917L17.3872 11.2703L17.5278 11.218ZM22.4164 24.3508L22.2758 24.4032L22.2759 24.4035L22.4164 24.3508ZM22.3877 25.0155L22.2525 24.9506L22.2523 24.951L22.3877 25.0155ZM21.8933 25.4575L21.9407 25.5998L21.941 25.5997L21.8933 25.4575ZM1.10832 25.4575L1.15641 25.3154L1.15607 25.3153L1.10832 25.4575ZM0.613883 25.0155L0.749315 24.951L0.749109 24.9506L0.613883 25.0155ZM0.585195 24.3508L0.444618 24.2985L0.444395 24.2991L0.585195 24.3508ZM10.5038 12.05H12.4962V11.75H10.5038V12.05ZM9.94287 15.4958L10.6509 11.9292L10.3567 11.8708L9.64862 15.4373L9.94287 15.4958ZM8.96887 16.2999C9.43433 16.2999 9.84962 15.9715 9.94294 15.4954L9.64855 15.4377C9.58325 15.7708 9.29316 15.9999 8.96887 15.9999V16.2999ZM8.77135 16.2798C8.83939 16.2939 8.90532 16.2999 8.96887 16.2999V15.9999C8.92442 15.9999 8.87897 15.9958 8.83227 15.9861L8.77135 16.2798ZM7.99485 15.1042C7.88804 15.6442 8.23383 16.1735 8.77271 16.2801L8.83091 15.9858C8.45853 15.9122 8.2137 15.5439 8.28914 15.1625L7.99485 15.1042ZM8.63678 11.8708L7.99487 15.1041L8.28912 15.1626L8.93104 11.9292L8.63678 11.8708ZM7.02221 12.05H8.78391V11.75H7.02221V12.05ZM2.62252 24.1515L7.16279 11.9523L6.88163 11.8477L2.34137 24.0469L2.62252 24.1515ZM11.4999 25.35C7.84743 25.35 4.13917 24.418 2.52326 23.955L2.44063 24.2434C4.06472 24.7087 7.80508 25.65 11.4999 25.65V25.35ZM20.4784 23.955C18.8607 24.418 15.1525 25.35 11.4999 25.35V25.65C15.1948 25.65 18.9352 24.7087 20.5609 24.2434L20.4784 23.955ZM15.8388 11.9523L20.3791 24.1515L20.6602 24.0469L16.1199 11.8477L15.8388 11.9523ZM14.2161 12.05H15.9794V11.75H14.2161V12.05ZM14.0689 11.9292L14.7109 15.1626L15.0051 15.1042L14.3632 11.8708L14.0689 11.9292ZM14.7109 15.163C14.7875 15.5428 14.5427 15.9105 14.1654 15.9859L14.2242 16.2801C14.7649 16.172 15.1141 15.6454 15.005 15.1038L14.7109 15.163ZM14.1625 15.9865C14.1208 15.9957 14.0761 16 14.0294 16V16.3C14.0941 16.3 14.1608 16.2941 14.2271 16.2795L14.1625 15.9865ZM14.0294 16C13.7075 16 13.4182 15.7714 13.3513 15.4372L13.0572 15.4961C13.1522 15.971 13.565 16.3 14.0294 16.3V16ZM13.3514 15.4374L12.6433 11.8708L12.349 11.9292L13.0571 15.4958L13.3514 15.4374ZM9.86043 10.35H13.1458V10.05H9.86043V10.35ZM9.7535 10.3496C9.78507 10.3473 9.81718 10.3473 9.84966 10.3496L9.8712 10.0504C9.82427 10.047 9.77773 10.0471 9.73184 10.0504L9.7535 10.3496ZM6.82715 10.35H9.74267V10.05H6.82715V10.35ZM5.43963 6.88551C5.35297 7.59478 5.56288 8.30682 5.84291 8.90488C6.12377 9.5047 6.48177 10.0039 6.70931 10.2928L6.94499 10.1072C6.72534 9.8283 6.38219 9.34915 6.11461 8.77767C5.8462 8.20443 5.6604 7.55222 5.73742 6.92189L5.43963 6.88551ZM4.77994 2.78913C5.12216 3.61823 5.64094 5.21158 5.4396 6.88579L5.73745 6.92161C5.94786 5.17202 5.40689 3.52177 5.05724 2.67467L4.77994 2.78913ZM5.83644 1.59433L4.81213 2.62623L5.02504 2.83757L6.04936 1.80567L5.83644 1.59433ZM6.75121 1.55H5.9429V1.85H6.75121V1.55ZM11.4998 4.1C8.65758 4.1 7.37406 2.50306 6.88201 1.62657L6.62041 1.77343C7.14762 2.71254 8.51684 4.4 11.4998 4.4V4.1ZM16.1177 1.62657C15.6256 2.50306 14.3421 4.1 11.4998 4.1V4.4C14.4828 4.4 15.8521 2.71254 16.3793 1.77343L16.1177 1.62657ZM17.0568 1.55H16.2485V1.85H17.0568V1.55ZM18.1875 2.62623L17.1632 1.59433L16.9503 1.80567L17.9746 2.83757L18.1875 2.62623ZM17.5601 6.88577C17.3587 5.21327 17.8775 3.61822 18.2197 2.78913L17.9424 2.67467C17.5928 3.52178 17.0518 5.17373 17.2622 6.92163L17.5601 6.88577ZM16.2901 10.2932C16.5186 10.005 16.8767 9.50784 17.1574 8.90874C17.4373 8.31127 17.6467 7.59892 17.5601 6.88562L17.2622 6.92178C17.3393 7.55658 17.1538 8.20933 16.8857 8.78146C16.6184 9.35195 16.2754 9.82888 16.055 10.1068L16.2901 10.2932ZM13.2302 10.35H16.1725V10.05H13.2302V10.35ZM13.154 10.3498C13.1767 10.3485 13.1994 10.3486 13.2221 10.3498L13.2383 10.0502C13.2049 10.0484 13.1713 10.0484 13.1376 10.0502L13.154 10.3498ZM3.76222 6.67844C3.52182 8.68273 4.73716 10.5194 5.35555 11.3105L5.59191 11.1258C4.9797 10.3426 3.83502 8.59063 4.06008 6.71416L3.76222 6.67844ZM3.02999 3.02262C3.02981 3.02227 3.04494 3.05086 3.0713 3.10538C3.09743 3.15943 3.13426 3.23827 3.17761 3.33847C3.26437 3.53897 3.37702 3.82439 3.48237 4.1672C3.69367 4.85477 3.87265 5.76372 3.76223 6.67832L4.06007 6.71428C4.17746 5.74188 3.98688 4.78763 3.76913 4.07907C3.55108 3.36951 3.30246 2.89576 3.29381 2.87978L3.02999 3.02262ZM3.20192 1.84287C2.89267 2.15641 2.82313 2.6339 3.02948 3.02167L3.29432 2.88073C3.14967 2.6089 3.19826 2.27379 3.41551 2.05353L3.20192 1.84287ZM4.88976 0.142526L3.20226 1.84253L3.41517 2.05387L5.10267 0.353874L4.88976 0.142526ZM5.59359 -0.15C5.3288 -0.15 5.0766 -0.0437012 4.89032 0.141958L5.1021 0.354442C5.23308 0.223901 5.4095 0.15 5.59359 0.15V-0.15ZM7.28109 -0.15H5.59359V0.15H7.28109V-0.15ZM8.22337 0.53428C8.08854 0.126794 7.70935 -0.15 7.28109 -0.15V0.15C7.57845 0.15 7.84389 0.342406 7.93856 0.62852L8.22337 0.53428ZM11.4998 2.4C10.1943 2.4 9.38266 1.94151 8.89442 1.48369C8.40298 1.02287 8.23102 0.554732 8.22167 0.529428L7.94025 0.633372C7.95791 0.681168 8.15045 1.19733 8.68922 1.70253C9.2312 2.21074 10.1155 2.7 11.4998 2.7V2.4ZM14.7746 0.534285C14.7761 0.529746 14.6163 0.997617 14.128 1.46499C13.6434 1.92876 12.8276 2.4 11.4998 2.4V2.7C12.9075 2.7 13.7969 2.19714 14.3354 1.68171C14.8702 1.16988 15.0512 0.653453 15.0594 0.628515L14.7746 0.534285ZM15.7186 -0.15C15.2902 -0.15 14.9114 0.126833 14.7748 0.533657L15.0592 0.629143C15.1555 0.342367 15.4213 0.15 15.7186 0.15V-0.15ZM17.4061 -0.15H15.7186V0.15H17.4061V-0.15ZM18.1094 0.141958C17.9231 -0.0437011 17.6709 -0.15 17.4061 -0.15V0.15C17.5902 0.15 17.7666 0.223901 17.8976 0.354442L18.1094 0.141958ZM19.7974 1.84253L18.1099 0.142526L17.897 0.353874L19.5845 2.05387L19.7974 1.84253ZM19.9703 3.01972C20.1746 2.63412 20.1057 2.15305 19.7974 1.84253L19.5845 2.05387C19.7994 2.27035 19.8486 2.60868 19.7052 2.87928L19.9703 3.01972ZM19.2374 6.67831C19.1279 5.77146 19.3068 4.86211 19.518 4.17191C19.6233 3.82784 19.7358 3.5407 19.8225 3.33878C19.9094 3.13624 19.9697 3.0209 19.9697 3.02091L19.7059 2.87808C19.6969 2.89457 19.4488 3.37257 19.2311 4.08414C19.0137 4.79474 18.823 5.74944 18.9396 6.71429L19.2374 6.67831ZM17.646 11.3104C18.2646 10.5189 19.4805 8.68142 19.2374 6.67823L18.9396 6.71437C19.1671 8.58944 18.0222 10.342 17.4096 11.1256L17.646 11.3104ZM22.557 24.2985L17.6684 11.1657L17.3872 11.2703L22.2758 24.4032L22.557 24.2985ZM22.5229 25.0804C22.6403 24.8359 22.6521 24.552 22.5568 24.2981L22.2759 24.4035C22.3427 24.5814 22.3342 24.7804 22.2525 24.9506L22.5229 25.0804ZM21.941 25.5997C22.1984 25.5133 22.4066 25.3248 22.5231 25.08L22.2523 24.951C22.1697 25.1245 22.0235 25.2555 21.8455 25.3153L21.941 25.5997ZM11.4999 27.35C16.6657 27.35 21.7239 25.672 21.9407 25.5998L21.8458 25.3152C21.634 25.3858 16.6145 27.05 11.4999 27.05V27.35ZM1.06023 25.5996C1.27447 25.6721 6.33425 27.35 11.4999 27.35V27.05C6.38539 27.05 1.36405 25.3857 1.15641 25.3154L1.06023 25.5996ZM0.478452 25.08C0.594988 25.3248 0.803219 25.5133 1.06057 25.5997L1.15607 25.3153C0.978047 25.2555 0.831903 25.1245 0.749314 24.951L0.478452 25.08ZM0.444395 24.2991C0.351623 24.5516 0.360924 24.8352 0.478657 25.0804L0.749109 24.9506C0.667717 24.7811 0.660142 24.5818 0.725995 24.4025L0.444395 24.2991ZM5.33316 11.1658L0.444619 24.2985L0.725772 24.4032L5.61431 11.2705L5.33316 11.1658Z" fill="#fff"/></svg>