<svg width="26" height="26" viewBox="0 0 26 26" fill="none" xmlns="http://www.w3.org/2000/svg"><path d="M25.5976 6.18128C25.6225 5.90044 25.4324 5.72124 25.0312 5.64928C22.9023 5.27044 21.4097 3.86036 20.0925 2.61632C18.9398 1.52768 17.9444 0.587158 16.7619 0.587158C15.2474 0.587158 13.8247 1.18468 12.9999 2.15684C12.1747 1.18468 10.752 0.587158 9.23778 0.587158C8.05506 0.587158 7.05966 1.5274 5.90662 2.61632C4.58978 3.86008 3.0971 5.27016 0.967415 5.64928C0.567015 5.72096 0.376895 5.89988 0.401535 6.181C0.432055 6.52904 0.450815 6.74128 3.93878 7.14224C3.38662 8.75112 3.12874 11.6222 3.12874 13.1188C3.12874 17.0657 5.73218 20.2597 7.28422 21.812C9.5371 24.066 12.0596 25.4128 13.1967 25.4128C14.3335 25.4128 16.856 24.066 19.1092 21.812C20.6609 20.2594 23.2644 17.0654 23.2644 13.1188C23.2644 11.2734 22.9068 8.66992 22.2228 7.12376C25.5486 6.73484 25.5677 6.52456 25.5976 6.18128ZM13.1973 9.86748C11.5052 9.86748 9.88598 8.63968 8.45014 7.52696C8.75982 7.54068 9.02386 7.54768 9.23806 7.54768C10.7523 7.54768 12.1747 6.95044 12.9999 5.978C13.825 6.95016 15.2477 7.54768 16.7622 7.54768C16.9731 7.54768 17.2332 7.54096 17.5389 7.52752C16.2131 8.63716 14.7179 9.86748 13.1973 9.86748ZM4.75638 7.23268C5.52694 7.31332 6.3045 7.38388 7.01486 7.43764C7.2859 7.63588 7.56758 7.85344 7.86522 8.08444C9.3481 9.23496 11.193 10.6666 13.197 10.6666C15.0366 10.6666 16.6768 9.29208 18.1239 8.07912C18.3929 7.85372 18.6475 7.64148 18.8953 7.44408C19.6818 7.38556 20.5386 7.30772 21.3831 7.21784C22.0867 8.57584 22.4655 11.2496 22.4655 13.1188C22.4655 19.5874 15.0727 24.6137 13.197 24.6137C11.3213 24.6137 3.92814 19.5874 3.92814 13.1188C3.92842 11.51 4.21598 8.61448 4.75638 7.23268ZM12.9945 3.23764C13.0183 3.23708 13.048 3.23764 13.0785 3.2312C13.1012 3.22672 13.1219 3.21916 13.1421 3.21132C13.1541 3.20824 13.1763 3.20264 13.2219 3.17156C13.2373 3.1612 13.2505 3.14972 13.272 3.129C13.2871 3.11444 13.307 3.09512 13.3252 3.06964L13.3454 3.04192C13.9264 2.03644 15.267 1.38656 16.7617 1.38656C17.626 1.38656 18.5142 2.22544 19.5432 3.19732C20.629 4.22296 21.9557 5.47624 23.7152 6.11856C23.2798 6.18576 22.752 6.2566 22.1595 6.32744C21.966 6.3504 21.7664 6.37364 21.5606 6.39632C21.555 6.39688 21.5499 6.39744 21.5443 6.39828C19.6233 6.61108 17.7459 6.74884 16.7617 6.74884C15.267 6.74884 13.9258 6.09896 13.3319 5.0764C13.3137 5.0484 13.293 5.02796 13.2717 5.00724C13.2561 4.99156 13.2398 4.97672 13.2367 4.97672L13.2012 4.94872C13.1785 4.935 13.1575 4.9294 13.1539 4.9294C13.1351 4.92156 13.1074 4.9098 13.0732 4.90336C13.0491 4.89888 13.0256 4.89776 13.0038 4.89776C12.9791 4.89748 12.952 4.89804 12.9209 4.90392C12.8963 4.90896 12.8736 4.91736 12.8548 4.92492C12.8431 4.928 12.8218 4.93332 12.8013 4.94508L12.7778 4.96328C12.761 4.97448 12.7465 4.98764 12.7266 5.00696C12.7103 5.02236 12.6919 5.04056 12.6742 5.06548L12.6535 5.09348C12.0725 6.09896 10.7316 6.74884 9.2375 6.74884C8.76066 6.74884 8.0657 6.71664 7.25174 6.65924L7.22206 6.65504C6.3871 6.59428 5.46086 6.5086 4.52902 6.4064C3.65766 6.31064 2.8843 6.21124 2.2837 6.11856C4.04322 5.47624 5.36986 4.22296 6.45598 3.19676C7.4847 2.22544 8.37314 1.38656 9.2375 1.38656C10.7321 1.38656 12.0731 2.03644 12.6669 3.059C12.6851 3.087 12.7059 3.10744 12.7246 3.1262C12.7381 3.13936 12.7565 3.15784 12.7638 3.16036L12.7999 3.18864C12.8221 3.20124 12.8433 3.20544 12.8433 3.20544C12.8655 3.21496 12.8918 3.2256 12.9265 3.23288C12.9497 3.23708 12.9721 3.23792 12.9934 3.23792L12.9945 3.23764Z" fill="#5F73F1" stroke="#5F73F1" stroke-width=".6"/></svg>