<svg width="28" height="21" viewBox="0 0 28 21" fill="none" xmlns="http://www.w3.org/2000/svg"><path fill-rule="evenodd" clip-rule="evenodd" d="M24.7913 20.2596H3.26584C2.01453 20.2596 1 19.2451 1 17.9938V3.26584C1 2.01453 2.01453 1 3.26584 1H24.7913C26.0426 1 27.0571 2.01453 27.0571 3.26584V17.9938C27.0571 19.2451 26.0426 20.2596 24.7913 20.2596ZM25.9242 3.26584C25.9242 2.64047 25.4167 2.13292 24.7913 2.13292H3.26584C2.64047 2.13292 2.13292 2.64047 2.13292 3.26584V17.9938C2.13292 18.6192 2.64047 19.1267 3.26584 19.1267H24.7913C25.4167 19.1267 25.9242 18.6192 25.9242 17.9938V3.26584ZM23.8476 16.6994L20.2596 13.1115L18.2096 15.1615L20.0982 17.0501C20.314 17.2659 20.314 17.616 20.0982 17.8323C19.8818 18.0482 19.5317 18.0482 19.3159 17.8323L11.1963 9.71272L4.20956 16.6994C3.99374 16.9153 3.64367 16.9153 3.42728 16.6994C3.21146 16.483 3.21146 16.133 3.42728 15.9171L10.7374 8.60699C10.7556 8.5798 10.7675 8.54978 10.7913 8.52542C10.9028 8.41382 11.0501 8.36284 11.1963 8.36624C11.3424 8.36284 11.4897 8.41382 11.6013 8.52542C11.6251 8.54978 11.6364 8.5798 11.6551 8.60699L17.4273 14.3792L19.8008 12.0057C19.8195 11.9791 19.8308 11.9485 19.8546 11.9242C19.9662 11.8131 20.1135 11.7616 20.2596 11.765C20.4058 11.7616 20.5531 11.8131 20.6646 11.9242C20.6884 11.9485 20.6998 11.9791 20.7185 12.0057L24.6299 15.9171C24.8457 16.133 24.8457 16.483 24.6299 16.6994C24.4135 16.9153 24.0634 16.9153 23.8476 16.6994ZM16.8609 7.79752C15.6096 7.79752 14.595 6.78299 14.595 5.53168C14.595 4.28037 15.6096 3.26584 16.8609 3.26584C18.1122 3.26584 19.1267 4.28037 19.1267 5.53168C19.1267 6.78299 18.1122 7.79752 16.8609 7.79752ZM16.8609 4.39876C16.2355 4.39876 15.7279 4.90631 15.7279 5.53168C15.7279 6.15705 16.2355 6.6646 16.8609 6.6646C17.4862 6.6646 17.9938 6.15705 17.9938 5.53168C17.9938 4.90631 17.4862 4.39876 16.8609 4.39876Z" fill="#5F73F1" stroke="#5F73F1" stroke-width=".3"/></svg>