<svg width="24" height="24" viewBox="0 0 24 24" fill="none" xmlns="http://www.w3.org/2000/svg"><path d="M20.9486 3.42449H19.1854V1.94286C19.1854 1.3502 18.6068 1 18.0007 1H16.3752C15.7691 1 15.3282 1.3502 15.3282 1.94286V3.42449H8.71599V1.94286C8.71599 1.3502 8.27518 1 7.66906 1H6.04354C5.43742 1 4.85885 1.3502 4.85885 1.94286V3.42449H3.09559C2.81615 3.41687 2.5381 3.46553 2.2787 3.56743C2.01931 3.66933 1.78412 3.8223 1.58775 4.01683C1.39138 4.21137 1.23802 4.44331 1.1372 4.69825C1.03639 4.95319 0.990267 5.22567 1.00171 5.49878V21.0694C1.00171 22.2547 1.88334 23.3592 3.09559 23.3592H20.9486C22.1609 23.3592 23.0425 22.2547 23.0425 21.0694V5.49878C23.054 5.22567 23.0078 4.95319 22.907 4.69825C22.8062 4.44331 22.6529 4.21137 22.4565 4.01683C22.2601 3.8223 22.0249 3.66933 21.7655 3.56743C21.5061 3.46553 21.2281 3.41687 20.9486 3.42449ZM16.3752 2.07755H18.0833V5.04082H16.3752V2.07755ZM6.04354 2.07755H7.61395V5.04082H6.04354V2.07755ZM3.09559 4.50204H4.85885V5.09469C4.85885 5.68735 5.43742 6.11837 6.04354 6.11837H7.66906C7.80757 6.12208 7.94541 6.09814 8.07415 6.04801C8.20289 5.99788 8.31982 5.92261 8.4178 5.8268C8.51579 5.731 8.59277 5.61666 8.64404 5.49079C8.69531 5.36491 8.71979 5.23013 8.71599 5.09469V4.50204H15.3282V5.09469C15.3244 5.23013 15.3489 5.36491 15.4002 5.49079C15.4515 5.61666 15.5284 5.731 15.6264 5.8268C15.7244 5.92261 15.8413 5.99788 15.9701 6.04801C16.0988 6.09814 16.2367 6.12208 16.3752 6.11837H18.0007C18.6068 6.11837 19.1854 5.68735 19.1854 5.09469V4.50204H20.9486C21.0835 4.49373 21.2186 4.51404 21.3446 4.56157C21.4707 4.60911 21.5847 4.68274 21.679 4.77743C21.7732 4.87211 21.8453 4.9856 21.8905 5.11011C21.9356 5.23462 21.9527 5.36721 21.9405 5.49878V8.54286H2.10375V5.49878C2.09156 5.36721 2.10862 5.23462 2.15377 5.11011C2.19891 4.9856 2.27106 4.87211 2.36528 4.77743C2.4595 4.68274 2.57355 4.60911 2.69961 4.56157C2.82566 4.51404 2.96075 4.49373 3.09559 4.50204ZM20.9486 22.2816H3.09559C2.48946 22.2816 2.10375 21.662 2.10375 21.0694V9.62041H21.9405V21.0694C21.9405 21.662 21.5548 22.2816 20.9486 22.2816Z" fill="#5F73F1" stroke="#5F73F1" stroke-width=".3"/><path d="M14.4739 20.2882L14.2259 20.2343L11.7463 18.9682L9.26675 20.2343C9.17594 20.2808 9.07369 20.3015 8.97148 20.2943C8.86927 20.2871 8.77116 20.2521 8.68816 20.1933C8.60516 20.1345 8.54056 20.0543 8.50163 19.9616C8.4627 19.8689 8.45097 19.7675 8.46777 19.6686L8.96369 16.9747L6.95246 15.089C6.88171 15.0143 6.83187 14.9229 6.80774 14.8238C6.78361 14.7247 6.78601 14.6212 6.81471 14.5233C6.85119 14.4328 6.91092 14.353 6.98814 14.2917C7.06536 14.2303 7.15745 14.1895 7.25552 14.1731L10.0106 13.769L11.2504 11.3176C11.2955 11.2265 11.366 11.1497 11.4537 11.0959C11.5414 11.0422 11.6428 11.0137 11.7463 11.0137C11.8499 11.0137 11.9513 11.0422 12.039 11.0959C12.1267 11.1497 12.1971 11.2265 12.2423 11.3176L13.4821 13.769L16.2372 14.1731C16.3352 14.1895 16.4273 14.2303 16.5045 14.2917C16.5818 14.353 16.6415 14.4328 16.678 14.5233C16.7067 14.6212 16.7091 14.7247 16.6849 14.8238C16.6608 14.9229 16.611 15.0143 16.5402 15.089L14.529 16.9747L15.0249 19.6686C15.0392 19.7655 15.0262 19.8643 14.9873 19.9544C14.9485 20.0446 14.8853 20.1228 14.8045 20.1805C14.7101 20.2522 14.5934 20.2903 14.4739 20.2882ZM11.7463 17.8098L11.9943 17.8637L13.73 18.7796L13.3994 16.867C13.3861 16.7792 13.3941 16.6895 13.4229 16.6052C13.4516 16.521 13.5002 16.4446 13.5647 16.3821L14.9698 15.0621L13.0137 14.7927C12.9286 14.7803 12.8484 14.7464 12.7807 14.6944C12.7131 14.6425 12.6605 14.5742 12.628 14.4964L11.7463 12.7723L10.8647 14.4964C10.8322 14.5742 10.7796 14.6425 10.7119 14.6944C10.6443 14.7464 10.564 14.7803 10.479 14.7927L8.52287 15.0621L9.92797 16.3821C9.99251 16.4446 10.0411 16.521 10.0698 16.6052C10.0985 16.6895 10.1066 16.7792 10.0933 16.867L9.76267 18.7796L11.4984 17.8637L11.7463 17.8098Z" fill="#5F73F1" stroke="#5F73F1" stroke-width=".3"/></svg>