<svg width="32" height="26" viewBox="0 0 32 26" fill="none" xmlns="http://www.w3.org/2000/svg"><path d="M12.8322 20.744C13.1202 20.744 13.3762 20.648 13.5682 20.456L19.9362 14.088C20.1282 13.896 20.2242 13.64 20.2242 13.352C20.2242 13.064 20.1282 12.808 19.9362 12.616C19.5202 12.2 18.8802 12.2 18.4642 12.616L12.0962 18.984C11.6802 19.4 11.6802 20.04 12.0962 20.456C12.2882 20.648 12.5442 20.744 12.8322 20.744Z" fill="#5F73F1" stroke="#fff" stroke-width=".6"/><path d="M13.3441 15.4C14.1747 15.4 14.8481 14.7266 14.8481 13.896C14.8481 13.0654 14.1747 12.392 13.3441 12.392C12.5135 12.392 11.8401 13.0654 11.8401 13.896C11.8401 14.7266 12.5135 15.4 13.3441 15.4Z" fill="#5F73F1" stroke="#fff" stroke-width=".6"/><path d="M18.6561 20.712C19.4867 20.712 20.1601 20.0386 20.1601 19.208C20.1601 18.3773 19.4867 17.704 18.6561 17.704C17.8255 17.704 17.1521 18.3773 17.1521 19.208C17.1521 20.0386 17.8255 20.712 18.6561 20.712Z" fill="#5F73F1" stroke="#fff" stroke-width=".6"/><path d="M30.08 7.81598H27.904L22.464 1.15999C22.08 0.679985 21.344 0.615985 20.864 0.999985C20.384 1.38399 20.32 2.11998 20.704 2.59998L24.992 7.84798H7.00805L11.296 2.59998C11.68 2.11998 11.616 1.41598 11.136 0.999985C10.656 0.615985 9.95205 0.679985 9.53605 1.15999L4.09605 7.81598H1.92005C1.31205 7.81598 0.800049 8.32798 0.800049 8.93598C0.800049 9.54398 1.31205 10.056 1.92005 10.056H3.29605L5.50405 24.264C5.60005 24.808 6.04805 25.224 6.62405 25.224H25.376C25.92 25.224 26.4 24.808 26.496 24.264L28.704 10.056H30.08C30.688 10.056 31.2 9.54398 31.2 8.93598C31.2 8.32798 30.688 7.81598 30.08 7.81598ZM24.416 23.016H7.58405L5.56805 10.088H26.432L24.416 23.016Z" fill="#5F73F1" stroke="#fff" stroke-width=".6"/></svg>