<svg width="19" height="26" viewBox="0 0 19 26" fill="none" xmlns="http://www.w3.org/2000/svg"><path fill-rule="evenodd" clip-rule="evenodd" d="M16.6938 22.5486C16.6805 22.5794 16.6466 22.6361 16.5698 22.6661C14.7854 23.3663 12.2011 23.7679 9.48062 23.7679C6.76143 23.7679 4.17793 23.3667 2.39352 22.6673C2.3167 22.6373 2.28288 22.5807 2.26952 22.5494C2.25449 22.5137 2.24197 22.4579 2.26911 22.3934L3.69362 19.0221C3.71826 19.0282 3.74414 19.0332 3.76961 19.0393C3.87231 19.0644 3.97753 19.087 4.08232 19.1104C4.20882 19.1383 4.33449 19.1666 4.4635 19.1925C4.57121 19.2143 4.6806 19.2344 4.78957 19.2545C4.92108 19.2787 5.05301 19.303 5.18703 19.3247C5.29725 19.3428 5.40872 19.3601 5.5202 19.3769C5.65839 19.3979 5.79783 19.4176 5.93853 19.436C6.05001 19.4504 6.16148 19.4648 6.27462 19.4779C6.42075 19.4952 6.56854 19.5108 6.71718 19.5256C6.8274 19.5363 6.93803 19.5473 7.04951 19.5572C7.20732 19.5707 7.36639 19.5818 7.52629 19.5929C7.63234 19.5999 7.73755 19.6085 7.84443 19.6139C8.02187 19.6245 8.20223 19.6311 8.38217 19.6381C8.47361 19.6414 8.56337 19.6467 8.65564 19.6488C8.92827 19.6566 9.2034 19.6611 9.48062 19.6611C9.75868 19.6611 10.0342 19.6566 10.3077 19.6488C10.4 19.6463 10.4906 19.6414 10.582 19.6381C10.7624 19.6311 10.9423 19.6241 11.1202 19.6139C11.2283 19.6081 11.3352 19.5995 11.4425 19.5925C11.6015 19.5814 11.7602 19.5703 11.9167 19.5568C12.0291 19.5469 12.1401 19.5358 12.2516 19.5247C12.4002 19.51 12.5484 19.4944 12.695 19.4771C12.8069 19.464 12.9179 19.4496 13.029 19.4352C13.1713 19.4163 13.3129 19.3966 13.4536 19.3753C13.563 19.3588 13.6719 19.3416 13.7796 19.3239C13.9183 19.3013 14.0548 19.2763 14.1905 19.2512C14.2948 19.2319 14.3992 19.2126 14.5015 19.1917C14.6397 19.1638 14.7746 19.1338 14.9098 19.1034C15.005 19.082 15.1019 19.0615 15.1954 19.0385C15.2225 19.0319 15.2509 19.0266 15.2776 19.0196L16.6938 22.3926C16.7209 22.457 16.7088 22.5133 16.6938 22.5486ZM6.77646 11.7295C7.01819 11.7534 7.26744 11.7653 7.51335 11.7825C7.6695 11.7936 7.8223 11.808 7.9797 11.8162C8.47444 11.8421 8.97461 11.8581 9.47979 11.8581C9.69647 11.8581 9.91399 11.8548 10.1298 11.8503C10.1737 11.8495 10.2171 11.8486 10.2614 11.8474C10.4663 11.8425 10.6693 11.8355 10.8688 11.8269C10.9127 11.8248 10.9552 11.8224 10.9987 11.8199C11.1815 11.8109 11.3602 11.8006 11.5335 11.7887C11.5589 11.787 11.5857 11.7854 11.6111 11.7838C11.7969 11.7702 11.9727 11.7546 12.143 11.7378C12.1656 11.7357 12.1919 11.7341 12.2144 11.7316L14.7933 17.8672C14.5888 17.9149 14.3796 17.9596 14.1654 18.0019C14.0986 18.0147 14.0285 18.0258 13.9608 18.0389C13.8051 18.0676 13.6485 18.0956 13.4886 18.1214C13.4006 18.1354 13.3108 18.1477 13.2223 18.1613C13.077 18.1826 12.9313 18.2036 12.7835 18.2225C12.6879 18.2348 12.5918 18.2459 12.495 18.257C12.3489 18.2742 12.2015 18.2898 12.0533 18.3042C11.9547 18.3136 11.8566 18.3231 11.7577 18.3313C11.6049 18.3444 11.4504 18.3555 11.2955 18.3658C11.1999 18.3724 11.1043 18.3798 11.0078 18.3847C10.8383 18.3945 10.6667 18.4011 10.4956 18.4077C10.4129 18.411 10.3307 18.4155 10.248 18.4171C9.9929 18.4245 9.73739 18.429 9.48062 18.429C9.22511 18.429 8.97127 18.4245 8.71785 18.4175C8.63393 18.4155 8.55084 18.411 8.46734 18.4077C8.29867 18.4015 8.12959 18.395 7.96258 18.3851C7.86531 18.3802 7.76845 18.3732 7.67158 18.3662C7.5192 18.3564 7.36806 18.3453 7.21776 18.3325C7.11714 18.3243 7.01736 18.3145 6.91799 18.305C6.77187 18.2911 6.62783 18.2759 6.48463 18.2594C6.38651 18.2479 6.2884 18.2364 6.19154 18.2241C6.04708 18.2056 5.90472 18.1855 5.76318 18.1646C5.67217 18.1514 5.5799 18.1383 5.48972 18.1239C5.3365 18.0997 5.18661 18.0726 5.03673 18.0451C4.96325 18.0315 4.88852 18.0196 4.81587 18.0052C4.60002 17.9633 4.38835 17.9186 4.1821 17.8701L6.77646 11.7295ZM8.98212 6.50358C9.14871 6.53356 9.31947 6.55164 9.4944 6.55164C9.67351 6.55164 9.84802 6.53315 10.0179 6.50194L11.7134 10.539C11.6955 10.5406 11.6775 10.5423 11.6596 10.5435C11.5193 10.5546 11.3748 10.5644 11.2254 10.5739C11.2087 10.5747 11.1932 10.5759 11.1769 10.5768C11.0099 10.5866 10.8375 10.5952 10.6634 10.6018L10.5628 10.6055C10.4225 10.6104 10.2806 10.6145 10.1374 10.6178C10.0923 10.6186 10.0472 10.6199 10.0021 10.6207C9.82757 10.624 9.65305 10.626 9.47979 10.626C8.73288 10.626 8.00141 10.5858 7.28247 10.5271L8.98212 6.50358ZM9.4944 2.23205C10.3595 2.23205 11.0634 2.92488 11.0634 3.77582C11.0634 4.62676 10.3595 5.31958 9.4944 5.31958C8.62934 5.31958 7.92501 4.62676 7.92501 3.77582C7.92501 2.92488 8.62934 2.23205 9.4944 2.23205ZM17.8515 21.9223L16.2254 18.0496C16.2254 18.0492 16.225 18.0492 16.2245 18.0483L13.1905 10.831C13.1905 10.8301 13.1901 10.8293 13.1901 10.8289L11.1657 6.00707C11.8616 5.5011 12.3159 4.69082 12.3159 3.77582C12.3159 2.2452 11.05 1 9.4944 1C7.93837 1 6.6725 2.2452 6.6725 3.77582C6.6725 4.69493 7.13134 5.50891 7.83274 6.01446L5.79784 10.831C5.79533 10.8371 5.79449 10.8437 5.79199 10.8503L2.75341 18.0418C2.75174 18.0455 2.74965 18.0475 2.74798 18.0508L1.11304 21.9203C0.961489 22.2776 0.962324 22.671 1.11555 23.0275C1.26961 23.3881 1.55852 23.6665 1.93009 23.8119C3.85645 24.5667 6.60862 25 9.48062 25C12.3539 25 15.1073 24.5663 17.0337 23.8107C17.4044 23.6653 17.6933 23.3872 17.8474 23.0279C18.0002 22.6722 18.0018 22.2796 17.8515 21.9223Z" fill="#5F73F1" stroke="#5F73F1" stroke-width=".1"/></svg>