<svg width="28" height="30" viewBox="0 0 28 30" fill="none" xmlns="http://www.w3.org/2000/svg"><path d="M2.04 21.64C2.6105 22.6193 3.4949 23.3816 4.5526 23.8054C5.61031 24.2293 6.78059 24.2905 7.8774 23.9792L8.7974 23.7193L9.0274 24.6313C9.30341 25.7292 9.94192 26.7041 10.8413 27.4008C11.7408 28.0974 12.8494 28.4759 13.9908 28.4759C15.1322 28.4759 16.2409 28.0974 17.1403 27.4008C18.0397 26.7041 18.6782 25.7292 18.9542 24.6313L19.1842 23.7193L20.1042 23.9792C21.2022 24.2948 22.3752 24.2367 23.436 23.8141C24.4968 23.3915 25.3842 22.6289 25.9565 21.6479C26.5289 20.6668 26.7533 19.524 26.5938 18.4018C26.4344 17.2796 25.9003 16.2427 25.0768 15.4566L24.3914 14.8L25.0768 14.1433C25.8983 13.3575 26.4309 12.3218 26.59 11.2012C26.7491 10.0806 26.5254 8.9394 25.9547 7.95934C25.3839 6.97927 24.4988 6.21665 23.4403 5.79285C22.3818 5.36905 21.2107 5.30845 20.1134 5.62068L19.1934 5.8806L18.9634 4.9686C18.6874 3.87068 18.0489 2.89581 17.1495 2.19914C16.2501 1.50247 15.1414 1.12402 14 1.12402C12.8586 1.12402 11.75 1.50247 10.8505 2.19914C9.95113 2.89581 9.31261 3.87068 9.0366 4.9686L8.8066 5.8806L7.8866 5.62068C6.78932 5.30845 5.61822 5.36905 4.5597 5.79285C3.50119 6.21665 2.6161 6.97927 2.04534 7.95934C1.47457 8.9394 1.25093 10.0806 1.41001 11.2012C1.56909 12.3218 2.10175 13.3575 2.9232 14.1433L3.6086 14.8L2.9232 15.4566C2.10034 16.2413 1.56627 17.2766 1.40619 18.3973C1.24612 19.518 1.46925 20.6596 2.04 21.64ZM4.8322 12.1734C4.44954 11.8114 4.20092 11.3323 4.12641 10.8132C4.05189 10.2941 4.15582 9.76525 4.42143 9.31183C4.68705 8.85841 5.09891 8.50682 5.59065 8.3137C6.0824 8.12058 6.6254 8.09717 7.1322 8.24724L10.8122 9.28692L11.7322 5.63892C11.8586 5.13259 12.1525 4.68282 12.5668 4.36134C12.9812 4.03986 13.4922 3.86519 14.0184 3.86519C14.5446 3.86519 15.0556 4.03986 15.47 4.36134C15.8843 4.68282 16.1782 5.13259 16.3046 5.63892L17.2246 9.28692L20.9046 8.24724C21.4114 8.09717 21.9544 8.12058 22.4462 8.3137C22.9379 8.50682 23.3498 8.85841 23.6154 9.31183C23.881 9.76525 23.9849 10.2941 23.9104 10.8132C23.8359 11.3323 23.5873 11.8114 23.2046 12.1734L20.44 14.8L23.2 17.4265C23.5827 17.7885 23.8313 18.2676 23.9058 18.7867C23.9803 19.3058 23.8764 19.8347 23.6108 20.2881C23.3452 20.7415 22.9333 21.0931 22.4416 21.2862C21.9498 21.4793 21.4068 21.5027 20.9 21.3527L17.22 20.313L16.3 23.961C16.1736 24.4673 15.8797 24.9171 15.4654 25.2386C15.051 25.5601 14.54 25.7347 14.0138 25.7347C13.4876 25.7347 12.9766 25.5601 12.5622 25.2386C12.1479 24.9171 11.854 24.4673 11.7276 23.961L10.8076 20.313L7.1276 21.3527C6.6208 21.5027 6.0778 21.4793 5.58605 21.2862C5.09431 21.0931 4.68245 20.7415 4.41683 20.2881C4.15122 19.8347 4.04729 19.3058 4.12181 18.7867C4.19632 18.2676 4.44494 17.7885 4.8276 17.4265L7.56 14.8L4.8322 12.1734Z" fill="#5F73F1" stroke="#fff" stroke-width="1.2"/></svg>