<svg width="23" height="27" viewBox="0 0 23 27" fill="none" xmlns="http://www.w3.org/2000/svg"><path d="M21.659 14.192L19.3118 11.861C19.2271 11.7776 19.1267 11.7116 19.0163 11.6669C18.9059 11.6221 18.7877 11.5994 18.6684 11.6H15.9496C16.0551 11.3114 16.1103 11.0071 16.1128 10.7V7.10005C16.1123 6.70268 16.0235 6.3103 15.8528 5.95093C15.682 5.59156 15.4335 5.27404 15.1249 5.02105V3.50005C15.1249 2.78396 14.8385 2.09721 14.3286 1.59086C13.8188 1.08451 13.1273 0.800049 12.4062 0.800049H11.4999C10.7789 0.800049 10.0874 1.08451 9.5775 1.59086C9.06764 2.09721 8.7812 2.78396 8.7812 3.50005V4.40005H4.33151C4.21224 4.39936 4.09401 4.42207 3.9836 4.46685C3.87318 4.51164 3.77275 4.57764 3.68807 4.66105L1.34089 6.99205C0.834516 7.49793 0.550293 8.18225 0.550293 8.89555C0.550293 9.60885 0.834516 10.2932 1.34089 10.799L3.68807 13.13C3.77275 13.2135 3.87318 13.2795 3.9836 13.3242C4.09401 13.369 4.21224 13.3917 4.33151 13.391H7.05026C6.94475 13.6797 6.88959 13.984 6.88714 14.291V17.891C6.8888 18.4627 7.07308 19.019 7.41346 19.4799C7.75384 19.9409 8.23274 20.2827 8.7812 20.456V24.2001C8.7812 24.6774 8.97216 25.1353 9.31207 25.4728C9.65198 25.8104 10.113 26 10.5937 26H13.3124C13.7932 26 14.2542 25.8104 14.5941 25.4728C14.934 25.1353 15.1249 24.6774 15.1249 24.2001V20.6H18.6684C18.7877 20.6007 18.9059 20.578 19.0163 20.5332C19.1267 20.4885 19.2271 20.4225 19.3118 20.339L21.659 18.0081C22.1681 17.5018 22.4541 16.8156 22.4541 16.1C22.4541 15.3845 22.1681 14.6983 21.659 14.192ZM10.5937 3.50005C10.5937 3.26135 10.6892 3.03244 10.8591 2.86365C11.0291 2.69487 11.2596 2.60005 11.4999 2.60005H12.4062C12.6466 2.60005 12.8771 2.69487 13.047 2.86365C13.217 3.03244 13.3124 3.26135 13.3124 3.50005V4.40005H10.5937V3.50005ZM2.62776 9.53005C2.45897 9.36142 2.36423 9.13332 2.36423 8.89555C2.36423 8.65778 2.45897 8.42968 2.62776 8.26105L4.70307 6.20005H13.394C13.5389 6.19947 13.6819 6.23342 13.8109 6.29905C13.9586 6.37507 14.0825 6.49003 14.1688 6.63132C14.2551 6.77261 14.3006 6.93478 14.3003 7.10005V10.7C14.3003 10.9387 14.2048 11.1677 14.0348 11.3364C13.8649 11.5052 13.6344 11.6 13.394 11.6H4.70307L2.62776 9.53005ZM13.3124 24.2001H10.5937V20.6H13.3124V24.2001ZM20.3721 16.7301L18.2968 18.8H9.60589C9.36553 18.8 9.13503 18.7052 8.96507 18.5364C8.79512 18.3677 8.69964 18.1387 8.69964 17.9V14.3C8.69964 14.0614 8.79512 13.8324 8.96507 13.6637C9.13503 13.4949 9.36553 13.4 9.60589 13.4H18.2968L20.3812 15.47C20.546 15.6395 20.6374 15.8663 20.6357 16.1019C20.634 16.3375 20.5394 16.563 20.3721 16.7301Z" fill="#5F73F1" stroke="#fff" stroke-width=".5"/></svg>