<svg width="20" height="25" viewBox="0 0 20 25" fill="none" xmlns="http://www.w3.org/2000/svg"><path d="M13.3626 24.8001C12.5515 24.8011 11.7478 24.6407 10.9954 24.3278C10.3568 24.0617 9.64324 24.0617 9.00467 24.3278C8.2523 24.6407 7.44861 24.8011 6.63751 24.8001C2.94404 24.8001 0.243408 16.4712 0.243408 12.9304C0.244746 11.1793 0.918839 9.50037 2.11768 8.26217C3.31651 7.02396 4.9421 6.32773 6.63751 6.32634C7.44844 6.32449 8.25213 6.48395 9.00467 6.79602C9.64324 7.06213 10.3568 7.06213 10.9954 6.79602C11.7478 6.48306 12.5515 6.32271 13.3626 6.32374C15.0584 6.32512 16.6844 7.02171 17.8833 8.26048C19.0822 9.49925 19.756 11.1789 19.7567 12.9304C19.7567 16.4712 17.056 24.8001 13.3626 24.8001ZM10 22.8248C10.5021 22.8246 10.9995 22.9238 11.4653 23.1171C12.0685 23.3674 12.7125 23.4958 13.3626 23.4954C15.9192 23.4954 18.4935 16.2521 18.4935 12.9304C18.4922 11.5254 17.9512 10.1782 16.9892 9.18469C16.0273 8.19115 14.723 7.63237 13.3626 7.63099C12.7125 7.63058 12.0685 7.75902 11.4653 8.00933C10.5252 8.40082 9.47485 8.40082 8.53478 8.00933C7.93161 7.75902 7.28755 7.63058 6.63751 7.63099C5.27711 7.63237 3.97281 8.19115 3.01086 9.18469C2.04891 10.1782 1.5079 11.5254 1.50657 12.9304C1.50657 16.2521 4.08088 23.4954 6.63751 23.4954C7.28755 23.4958 7.93161 23.3674 8.53478 23.1171C9.00062 22.9238 9.49802 22.8246 10 22.8248Z" fill="#5F73F1" stroke="#5F73F1" stroke-width=".3"/><path d="M9.60345 7.60218C9.60345 7.50825 9.71209 5.26948 8.44135 3.91787C7.74409 3.17684 6.73608 2.81675 5.42998 2.85067C4.58787 2.87329 4.55503 1.56865 5.39714 1.54603C7.06451 1.49907 8.39335 1.99222 9.3483 3.00723C10.9727 4.73458 10.8818 7.37517 10.8641 7.67263L9.60345 7.60218Z" fill="#5F73F1" stroke="#5F73F1" stroke-width=".3"/><path d="M11.3062 5.57219C10.6897 5.57001 10.0775 5.46697 9.49227 5.2669C9.34383 5.21694 9.21857 5.11195 9.14066 4.97222C9.06275 4.83248 9.03771 4.66789 9.07038 4.51021C9.2141 3.72524 9.5205 2.98166 9.96858 2.33048C10.4167 1.67929 10.9958 1.13591 11.6663 0.737609C12.3368 0.339304 13.0828 0.0954976 13.853 0.0229127C14.6233 -0.0496722 15.3997 0.0506817 16.1289 0.317091C16.2771 0.366522 16.4024 0.471005 16.4803 0.610311C16.5582 0.749617 16.5834 0.913836 16.5508 1.07117C16.4021 1.85449 16.0936 2.59611 15.6458 3.24668C15.198 3.89725 14.6212 4.44184 13.9537 4.8442C13.1485 5.3229 12.2353 5.57399 11.3062 5.57219ZM10.4674 4.18666C11.4435 4.39196 12.4585 4.22511 13.3247 3.71699C14.1859 3.19888 14.8358 2.37557 15.1537 1.39994C14.1776 1.18882 13.1603 1.3562 12.296 1.87017C11.4317 2.38414 10.7808 3.20872 10.4674 4.18666Z" fill="#5F73F1" stroke="#5F73F1" stroke-width=".3"/></svg>