<svg width="27" height="27" viewBox="0 0 27 27" fill="none" xmlns="http://www.w3.org/2000/svg"><path d="M13.5 0.439941C6.30795 0.439941 0.449951 6.25754 0.449951 13.3999C0.449951 20.5423 6.30795 26.3599 13.5 26.3599C20.692 26.3599 26.55 20.5423 26.55 13.3999C26.55 6.25754 20.692 0.439941 13.5 0.439941ZM24.578 9.07994H18.72C18.256 5.91194 17.299 3.34874 16.052 1.87994C19.938 2.71514 23.128 5.47994 24.578 9.07994ZM17.85 13.3999C17.85 14.4367 17.792 15.5311 17.676 16.5679H9.32395C9.20795 15.5311 9.14995 14.4367 9.14995 13.3999C9.14995 12.3631 9.20795 11.2687 9.32395 10.2319H17.647C17.792 11.2687 17.85 12.3631 17.85 13.3999ZM13.5 1.59194C15.414 1.59194 16.893 5.01914 17.502 9.07994H9.49795C10.107 5.01914 11.586 1.59194 13.5 1.59194ZM10.948 1.87994C9.70095 3.34874 8.74395 5.91194 8.27995 9.07994H2.42195C3.87195 5.47994 7.06195 2.71514 10.948 1.87994ZM1.60995 13.3999C1.60995 12.3055 1.75495 11.2399 2.04495 10.2319H8.13495C8.01895 11.2399 7.98995 12.3055 7.98995 13.3999C7.98995 14.4943 8.04795 15.5599 8.13495 16.5679H2.04495C1.75495 15.5599 1.60995 14.4943 1.60995 13.3999ZM2.42195 17.7199H8.27995C8.74395 20.8879 9.70095 23.4223 10.948 24.9199C7.06195 24.0847 3.87195 21.3199 2.42195 17.7199ZM13.5 25.2079C11.586 25.2079 10.107 21.7807 9.49795 17.7199H17.531C16.893 21.7807 15.414 25.2079 13.5 25.2079ZM16.052 24.9199C17.299 23.4223 18.256 20.8591 18.72 17.7199H24.578C23.128 21.3199 19.938 24.0847 16.052 24.9199ZM18.865 16.5679C18.981 15.5599 19.01 14.4943 19.01 13.3999C19.01 12.3055 18.952 11.2399 18.865 10.2319H24.955C25.245 11.2399 25.39 12.3055 25.39 13.3999C25.39 14.4943 25.245 15.5599 24.955 16.5679H18.865Z" fill="#5F73F1"/></svg>