<svg width="30" height="25" viewBox="0 0 30 25" fill="none" xmlns="http://www.w3.org/2000/svg"><path d="M28.77 10.1935L23.46 6.33272V2.41112C23.46 1.77272 22.95 1.22552 22.29 1.22552C21.63 1.22552 21.12 1.74232 21.12 2.41112V4.63032L15.69 0.647922C15.27 0.343922 14.73 0.343922 14.34 0.647922L1.22996 10.1935C0.719957 10.5887 0.599957 11.3183 0.959957 11.8351C1.34996 12.3519 2.06996 12.4735 2.57996 12.1087L4.25996 10.8927V22.8095C4.25996 23.4479 4.76996 23.9951 5.42996 23.9951H12.06C12.36 23.9951 12.66 23.8735 12.87 23.6607C13.08 23.4479 13.2 23.1439 13.2 22.8399V14.9663H16.8V22.8399C16.8 23.1439 16.92 23.4479 17.13 23.6607C17.34 23.8735 17.64 23.9951 17.94 23.9951H24.54C25.17 23.9951 25.71 23.4783 25.71 22.8095V10.8927L27.39 12.1087C27.6 12.2607 27.84 12.3215 28.08 12.3215C28.44 12.3215 28.8 12.1391 29.01 11.8351C29.4 11.3183 29.28 10.5887 28.77 10.1935ZM23.4 21.6239H19.11V13.7503C19.11 13.4463 18.99 13.1423 18.78 12.9295C18.57 12.7167 18.27 12.5951 17.97 12.5951H12.06C11.76 12.5951 11.46 12.7167 11.25 12.9295C11.04 13.1423 10.92 13.4463 10.92 13.7503V21.6239H6.59996V9.19032L15 3.04952L23.4 9.19032V21.6239Z" fill="#5F73F1" stroke="#fff" stroke-width=".7"/></svg>