<svg width="27" height="23" viewBox="0 0 27 23" fill="none" xmlns="http://www.w3.org/2000/svg"><path d="M23.6366 1H3.77513C2.24639 1 1 2.25562 1 3.79568V14.5396C1 16.0796 2.24639 17.3352 3.77513 17.3352H23.6366C25.1654 17.3352 26.4118 16.0796 26.4118 14.5396V3.79568C26.4118 2.25562 25.1654 1 23.6366 1ZM25.2017 14.5396C25.2017 15.4091 24.4998 16.1162 23.6366 16.1162H3.77513C2.91193 16.1162 2.21008 15.4091 2.21008 14.5396V3.79568C2.21008 2.92609 2.91193 2.21905 3.77513 2.21905H23.6366C24.4998 2.21905 25.2017 2.92609 25.2017 3.79568V14.5396Z" fill="#5F73F1" stroke="#5F73F1" stroke-width=".3"/><path d="M17.5947 8.62313L11.9799 5.74618C11.7944 5.64866 11.5685 5.66085 11.391 5.77056C11.2135 5.88028 11.1006 6.07939 11.1006 6.29069V12.0446C11.1006 12.2559 11.2095 12.455 11.391 12.5647C11.4878 12.6257 11.5967 12.6541 11.7056 12.6541C11.7984 12.6541 11.8952 12.6338 11.9799 12.5891L17.5947 9.71215C17.7964 9.6065 17.9255 9.39926 17.9255 9.16764C17.9255 8.93602 17.7964 8.72878 17.5947 8.62313ZM12.3107 11.049V7.28218L15.9853 9.16358L12.3107 11.049Z" fill="#5F73F1" stroke="#5F73F1" stroke-width=".3"/><path d="M25.8067 19.5295H6.86084C6.59866 18.6721 5.81613 18.0423 4.88034 18.0423C3.94454 18.0423 3.16202 18.6721 2.89983 19.5295H1.60504C1.27025 19.5295 1 19.8018 1 20.1391C1 20.4763 1.27025 20.7486 1.60504 20.7486H2.89983C3.16202 21.606 3.94454 22.2358 4.88034 22.2358C5.81613 22.2358 6.59866 21.606 6.86084 20.7486H25.8067C26.1415 20.7486 26.4118 20.4763 26.4118 20.1391C26.4118 19.8018 26.1415 19.5295 25.8067 19.5295ZM4.88034 21.0168C4.40034 21.0168 4.00908 20.6226 4.00908 20.1391C4.00908 19.6555 4.40034 19.2613 4.88034 19.2613C5.36034 19.2613 5.7516 19.6555 5.7516 20.1391C5.7516 20.6226 5.36034 21.0168 4.88034 21.0168Z" fill="#5F73F1" stroke="#5F73F1" stroke-width=".3"/></svg>