<svg width="31" height="20" viewBox="0 0 31 20" fill="none" xmlns="http://www.w3.org/2000/svg"><path d="M29.2019 15.152C27.6829 15.152 26.9079 15.824 26.2569 16.4C25.7299 16.848 25.3889 17.136 24.6139 17.136C23.8389 17.136 23.4979 16.848 22.9709 16.4C22.5369 16.016 21.9789 15.568 21.1729 15.344V4.27195C21.1729 3.50395 21.7929 2.86395 22.5369 2.86395C23.0949 2.86395 23.5599 2.38395 23.5599 1.80795C23.5599 1.23195 23.0949 0.751953 22.5369 0.751953C20.6459 0.751953 19.1269 2.31995 19.1269 4.27195V6.15995H11.8109V4.27195C11.8109 3.50395 12.4309 2.86395 13.1749 2.86395C13.7329 2.86395 14.1979 2.38395 14.1979 1.80795C14.1979 1.23195 13.7329 0.751953 13.1749 0.751953C11.2839 0.751953 9.76489 2.31995 9.76489 4.27195V15.312C8.95889 15.536 8.40089 15.984 7.96689 16.368C7.43989 16.816 7.09889 17.104 6.32389 17.104C5.54889 17.104 5.20789 16.816 4.68089 16.368C4.06089 15.824 3.25489 15.12 1.73589 15.12C1.17789 15.12 0.712891 15.6 0.712891 16.176C0.712891 16.752 1.17789 17.232 1.73589 17.232C2.51089 17.232 2.85189 17.52 3.37889 17.968C3.99889 18.512 4.80489 19.216 6.32389 19.216C7.84289 19.216 8.61789 18.544 9.26889 17.968C9.79589 17.52 10.1369 17.232 10.9119 17.232C11.6869 17.232 12.0279 17.52 12.5549 17.968C13.1749 18.512 13.9809 19.216 15.4999 19.216C17.0189 19.216 17.7939 18.544 18.4449 17.968C18.9719 17.52 19.3129 17.232 20.0879 17.232C20.8629 17.232 21.2039 17.52 21.7309 17.968C22.3819 18.512 23.1569 19.216 24.6759 19.216C26.1949 19.216 26.9699 18.544 27.6209 17.968C28.1479 17.52 28.4889 17.232 29.2639 17.232C29.8219 17.232 30.2869 16.752 30.2869 16.176C30.2249 15.632 29.7599 15.152 29.2019 15.152ZM19.1889 8.27195V11.024H11.8109V8.27195H19.1889ZM17.1119 16.4C16.5849 16.848 16.2439 17.136 15.4689 17.136C14.6939 17.136 14.3529 16.848 13.8259 16.4C13.3299 15.984 12.7409 15.472 11.7799 15.28V13.168H19.1269V15.28C18.2279 15.472 17.6079 15.952 17.1119 16.4Z" fill="#5F73F1" stroke="#fff" stroke-width=".5"/></svg>