<svg width="27" height="27" viewBox="0 0 27 27" fill="none" xmlns="http://www.w3.org/2000/svg"><path d="M18.6681 12.3077L11.0682 6.98656C10.9274 6.88805 10.7623 6.83005 10.5909 6.81888C10.4194 6.80771 10.2482 6.8438 10.0958 6.92321C9.94348 7.00262 9.81583 7.12231 9.72678 7.26925C9.63773 7.41619 9.5907 7.58474 9.59082 7.75656V18.3988C9.5907 18.5706 9.63773 18.7392 9.72678 18.8861C9.81583 19.0331 9.94348 19.1528 10.0958 19.2322C10.2482 19.3116 10.4194 19.3477 10.5909 19.3365C10.7623 19.3253 10.9274 19.2673 11.0682 19.1688L18.6681 13.8477C18.792 13.7612 18.8933 13.646 18.9632 13.5119C19.0331 13.3778 19.0696 13.2289 19.0696 13.0777C19.0696 12.9265 19.0331 12.7775 18.9632 12.6435C18.8933 12.5094 18.792 12.3942 18.6681 12.3077ZM11.4689 16.5959V9.55948L16.477 13.0777L11.4689 16.5959Z" fill="#5F73F1" stroke="#fff" stroke-width=".4"/><path d="M13.0777 0.244385C10.5395 0.244385 8.05834 0.997047 5.94791 2.40719C3.83747 3.81734 2.19259 5.82163 1.22127 8.16661C0.249945 10.5116 -0.00419749 13.092 0.490979 15.5814C0.986156 18.0708 2.20841 20.3575 4.00319 22.1523C5.79796 23.947 8.08464 25.1693 10.5741 25.6645C13.0635 26.1596 15.6438 25.9055 17.9888 24.9342C20.3338 23.9628 22.3381 22.318 23.7482 20.2075C25.1584 18.0971 25.9111 15.6159 25.9111 13.0777C25.9061 9.67563 24.5524 6.41431 22.1468 4.00867C19.7411 1.60303 16.4798 0.249353 13.0777 0.244385ZM13.0777 24.033C10.911 24.033 8.79288 23.3905 6.99129 22.1867C5.18971 20.9829 3.78554 19.2719 2.95636 17.2701C2.12718 15.2683 1.91023 13.0656 2.33294 10.9404C2.75565 8.81533 3.79904 6.86329 5.33117 5.33116C6.86329 3.79904 8.81533 2.75565 10.9405 2.33294C13.0656 1.91022 15.2683 2.12718 17.2701 2.95635C19.2719 3.78553 20.9829 5.1897 22.1867 6.99129C23.3905 8.79287 24.033 10.911 24.033 13.0777C24.0297 15.9822 22.8744 18.7668 20.8206 20.8206C18.7668 22.8744 15.9822 24.0297 13.0777 24.033Z" fill="#5F73F1" stroke="#fff" stroke-width=".4"/></svg>