<svg width="23" height="22" viewBox="0 0 23 22" fill="none" xmlns="http://www.w3.org/2000/svg"><path fill-rule="evenodd" clip-rule="evenodd" d="M6.53766 2.76034C7.84924 2.06521 9.31108 1.70183 10.7955 1.70194C13.1199 1.69876 15.3566 2.58927 17.0428 4.18921L10.4391 10.7928L17.0428 17.3965C15.9645 18.4167 14.6528 19.1573 13.2223 19.5537C11.7918 19.95 10.286 19.9901 8.83647 19.6703C7.38692 19.3505 6.03773 18.6807 4.90676 17.7193C3.77579 16.7578 2.89745 15.5341 2.34847 14.1549C1.79949 12.7758 1.59658 11.2832 1.75747 9.80755C1.91835 8.33189 2.43813 6.91808 3.2714 5.68963C4.10468 4.46118 5.22609 3.45546 6.53766 2.76034ZM12.85 10.7928L19.09 4.54921C19.1723 4.46772 19.2213 4.35847 19.2273 4.24281C19.2334 4.12715 19.1961 4.0134 19.1228 3.92376C17.7116 2.21412 15.8084 0.980301 13.6717 0.38992C11.5349 -0.200461 9.26826 -0.118787 7.17955 0.623846C5.09085 1.36648 3.28138 2.73407 1.99694 4.54084C0.712505 6.34761 0.0153749 8.50597 0.000251452 10.7227C-0.014872 12.9395 0.652745 15.1071 1.91241 16.9312C3.17207 18.7554 4.96272 20.1475 7.0411 20.9186C9.11947 21.6896 11.3848 21.8022 13.5294 21.2411C15.674 20.6799 17.5939 19.4722 19.0282 17.7819L19.0646 17.7383C19.1561 17.6302 19.2035 17.4916 19.1974 17.3501C19.1914 17.2086 19.1322 17.0746 19.0318 16.9747L12.85 10.7928ZM7.66816 7.95289C8.4534 7.95289 9.08997 7.31632 9.08997 6.53107C9.08997 5.74582 8.4534 5.10925 7.66816 5.10925C6.88291 5.10925 6.24634 5.74582 6.24634 6.53107C6.24634 7.31632 6.88291 7.95289 7.66816 7.95289ZM21.5915 11.931C22.2201 11.931 22.7297 11.4214 22.7297 10.7928C22.7297 10.1642 22.2201 9.65466 21.5915 9.65466C20.9629 9.65466 20.4534 10.1642 20.4534 10.7928C20.4534 11.4214 20.9629 11.931 21.5915 11.931Z" fill="#5F73F1"/></svg>