<svg width="27" height="28" viewBox="0 0 27 28" fill="none" xmlns="http://www.w3.org/2000/svg"><path d="M23.0001 4.54001C21.0997 2.59901 18.5484 1.42982 15.8374 1.25761C13.1265 1.08541 10.4477 1.92238 8.31701 3.60731C6.18631 5.29225 4.75441 7.70598 4.2971 10.3836C3.83979 13.0613 4.38941 15.8134 5.8401 18.11L1.0001 22.92C0.649565 23.2697 0.410742 23.7155 0.313908 24.2011C0.217074 24.6866 0.26659 25.19 0.456177 25.6473C0.645765 26.1047 0.966887 26.4955 1.37883 26.7701C1.79078 27.0448 2.275 27.1909 2.7701 27.19C3.09735 27.192 3.42169 27.1285 3.72397 27.0031C4.02626 26.8777 4.30036 26.6931 4.5301 26.46L9.3401 21.67C11.6324 23.1801 14.4064 23.7785 17.1174 23.3478C19.8284 22.9171 22.2803 21.4884 23.9918 19.3422C25.7032 17.1961 26.5503 14.4876 26.3668 11.7488C26.1833 9.00996 24.9825 6.43869 23.0001 4.54001ZM3.1601 25.05C3.06595 25.1442 2.93825 25.1971 2.8051 25.1971C2.67195 25.1971 2.54425 25.1442 2.4501 25.05C2.35595 24.9559 2.30305 24.8282 2.30305 24.695C2.30305 24.5619 2.35595 24.4342 2.4501 24.34L7.0601 19.72C7.1801 19.84 7.2801 19.97 7.4001 20.1C7.5201 20.23 7.6501 20.32 7.7801 20.43L3.1601 25.05ZM8.8201 18.68C7.90034 17.7582 7.19155 16.6479 6.74267 15.4255C6.29378 14.2032 6.11549 12.898 6.2201 11.6L15.9001 21.28C14.6021 21.3846 13.2969 21.2063 12.0746 20.7574C10.8523 20.3086 9.74187 19.5998 8.8201 18.68ZM21.5501 18.68C20.6052 19.6226 19.4602 20.3403 18.2001 20.78C18.2001 20.78 18.2001 20.71 18.1301 20.68L6.7201 9.27001C7.17609 8.00015 7.91176 6.84907 8.87268 5.90192C9.8336 4.95477 10.9952 4.23579 12.2715 3.79818C13.5478 3.36056 14.9061 3.21551 16.2461 3.37375C17.586 3.532 18.8732 3.98948 20.0125 4.71237C21.1517 5.43525 22.1139 6.40503 22.8277 7.54997C23.5416 8.6949 23.9889 9.98569 24.1365 11.3268C24.2841 12.668 24.1284 14.0251 23.6807 15.2979C23.233 16.5708 22.5048 17.7266 21.5501 18.68Z" fill="#5F73F1" stroke="#fff" stroke-width=".5"/></svg>