<svg width="28" height="22" viewBox="0 0 28 22" fill="none" xmlns="http://www.w3.org/2000/svg"><path fill-rule="evenodd" clip-rule="evenodd" d="M1.75 17.125V14.6925L1.83984 14.5H10.3845L10.2078 15.9175C9.93475 18.1033 8.0675 19.75 5.866 19.75H4.375C2.92775 19.75 1.75 18.5722 1.75 17.125ZM5.26377 3.0235L0.461924 13.3164C0.175306 13.628 0 14.0437 0 14.5V17.125C0 19.5382 1.9635 21.5 4.375 21.5H5.866C8.90884 21.5 11.4945 19.2514 11.9299 16.25H16.0698C16.5045 19.2505 19.0905 21.5 22.1339 21.5H23.6249C26.0382 21.5 27.9999 19.5382 27.9999 17.125V14.5611C28.0033 14.513 28.0027 14.4643 27.9979 14.4157C27.9779 13.9936 27.8081 13.6106 27.5406 13.3186L22.7378 3.0235C22.0185 1.4905 20.4627 0.5 18.7705 0.5H16.625C16.142 0.5 15.75 0.892 15.75 1.375C15.75 1.858 16.142 2.25 16.625 2.25H18.7705C19.7855 2.25 20.72 2.845 21.1505 3.76375L25.3434 12.75H17.6154C17.1132 12.75 16.6372 12.9653 16.3012 13.3415C16.0182 13.6634 15.8646 14.0762 15.8645 14.5H12.1353C12.1352 14.0756 11.9801 13.6621 11.6953 13.3397C11.3628 12.9653 10.885 12.75 10.3845 12.75H2.6565L6.84927 3.7655C7.27977 2.845 8.21427 2.25 9.22927 2.25H11.3748C11.8578 2.25 12.2498 1.858 12.2498 1.375C12.2498 0.892 11.8578 0.5 11.3748 0.5H9.22927C7.53702 0.5 5.98127 1.4905 5.26377 3.0235ZM26.16 14.5H17.6154L17.7922 15.9192C18.0669 18.1032 19.9342 19.75 22.1339 19.75H23.6249C25.0722 19.75 26.2499 18.5722 26.2499 17.125V14.6928L26.16 14.5Z" fill="#5F73F1"/><path d="M1.75 14.6925L1.61407 14.6291L1.6 14.6592V14.6925H1.75ZM1.83984 14.5V14.35H1.74431L1.70391 14.4366L1.83984 14.5ZM10.3845 14.5L10.5333 14.5186L10.5544 14.35H10.3845V14.5ZM10.2078 15.9175L10.3566 15.9361L10.3566 15.9361L10.2078 15.9175ZM0.461924 13.3164L0.572328 13.418L0.588044 13.4009L0.597859 13.3798L0.461924 13.3164ZM5.26377 3.0235L5.12791 2.95991L5.12783 2.96008L5.26377 3.0235ZM11.9299 16.25V16.1H11.8L11.7814 16.2285L11.9299 16.25ZM16.0698 16.25L16.2183 16.2285L16.1997 16.1H16.0698V16.25ZM27.9999 14.5611L27.8499 14.5506V14.5611H27.9999ZM27.9979 14.4157L27.8479 14.4228L27.8487 14.4303L27.9979 14.4157ZM27.5406 13.3186L27.4047 13.382L27.4144 13.4029L27.43 13.4199L27.5406 13.3186ZM22.7378 3.0235L22.8737 2.96008L22.8735 2.95979L22.7378 3.0235ZM21.1505 3.76375L21.2864 3.70033L21.2863 3.7001L21.1505 3.76375ZM25.3434 12.75V12.9H25.5789L25.4794 12.6866L25.3434 12.75ZM16.3012 13.3415L16.1893 13.2416L16.1885 13.2425L16.3012 13.3415ZM15.8645 14.5V14.65H16.0145L16.0145 14.5L15.8645 14.5ZM12.1353 14.5L11.9853 14.5L11.9854 14.65H12.1353V14.5ZM11.6953 13.3397L11.8077 13.2404L11.8074 13.2402L11.6953 13.3397ZM2.6565 12.75L2.52057 12.6866L2.42097 12.9H2.6565V12.75ZM6.84927 3.7655L6.71339 3.70195L6.71334 3.70207L6.84927 3.7655ZM17.6154 14.5V14.35H17.4456L17.4666 14.5185L17.6154 14.5ZM26.16 14.5L26.2959 14.4366L26.2555 14.35H26.16V14.5ZM17.7922 15.9192L17.6433 15.9378L17.6434 15.938L17.7922 15.9192ZM26.2499 14.6928H26.3999V14.6596L26.3859 14.6294L26.2499 14.6928ZM1.6 14.6925V17.125H1.9V14.6925H1.6ZM1.70391 14.4366L1.61407 14.6291L1.88593 14.7559L1.97576 14.5634L1.70391 14.4366ZM10.3845 14.35H1.83984V14.65H10.3845V14.35ZM10.3566 15.9361L10.5333 14.5186L10.2357 14.4814L10.0589 15.8989L10.3566 15.9361ZM5.866 19.9C8.14309 19.9 10.0742 18.197 10.3566 15.9361L10.0589 15.8989C9.79529 18.0095 7.99191 19.6 5.866 19.6V19.9ZM4.375 19.9H5.866V19.6H4.375V19.9ZM1.6 17.125C1.6 18.6551 2.84491 19.9 4.375 19.9V19.6C3.01059 19.6 1.9 18.4894 1.9 17.125H1.6ZM0.597859 13.3798L5.3997 3.08692L5.12783 2.96008L0.325988 13.253L0.597859 13.3798ZM0.15 14.5C0.15 14.0829 0.310093 13.7031 0.572328 13.418L0.351519 13.2149C0.0405182 13.553 -0.15 14.0045 -0.15 14.5H0.15ZM0.15 17.125V14.5H-0.15V17.125H0.15ZM4.375 21.35C2.0463 21.35 0.15 19.4554 0.15 17.125H-0.15C-0.15 19.6211 1.8807 21.65 4.375 21.65V21.35ZM5.866 21.35H4.375V21.65H5.866V21.35ZM11.7814 16.2285C11.3567 19.1563 8.83409 21.35 5.866 21.35V21.65C8.9836 21.65 11.6322 19.3464 12.0783 16.2715L11.7814 16.2285ZM16.0698 16.1H11.9299V16.4H16.0698V16.1ZM22.1339 21.35C19.1653 21.35 16.6423 19.1555 16.2183 16.2285L15.9214 16.2715C16.3667 19.3456 19.0158 21.65 22.1339 21.65V21.35ZM23.6249 21.35H22.1339V21.65H23.6249V21.35ZM27.8499 17.125C27.8499 19.4554 25.9553 21.35 23.6249 21.35V21.65C26.121 21.65 28.1499 19.6211 28.1499 17.125H27.8499ZM27.8499 14.5611V17.125H28.1499V14.5611H27.8499ZM27.8487 14.4303C27.8526 14.4705 27.8531 14.5108 27.8503 14.5506L28.1496 14.5717C28.1535 14.5152 28.1528 14.4581 28.1472 14.401L27.8487 14.4303ZM27.43 13.4199C27.6747 13.6871 27.8298 14.0371 27.8481 14.4228L28.1478 14.4085C28.126 13.9502 27.9415 13.5342 27.6512 13.2172L27.43 13.4199ZM22.6018 3.08692L27.4047 13.382L27.6765 13.2551L22.8737 2.96008L22.6018 3.08692ZM18.7705 0.65C20.4044 0.65 21.9074 1.60674 22.602 3.08721L22.8735 2.95979C22.1296 1.37426 20.5211 0.35 18.7705 0.35V0.65ZM16.625 0.65H18.7705V0.35H16.625V0.65ZM15.9 1.375C15.9 0.974843 16.2248 0.65 16.625 0.65V0.35C16.0592 0.35 15.6 0.809157 15.6 1.375H15.9ZM16.625 2.1C16.2248 2.1 15.9 1.77516 15.9 1.375H15.6C15.6 1.94084 16.0592 2.4 16.625 2.4V2.1ZM18.7705 2.1H16.625V2.4H18.7705V2.1ZM21.2863 3.7001C20.8312 2.72873 19.8438 2.1 18.7705 2.1V2.4C19.7272 2.4 20.6088 2.96127 21.0147 3.82739L21.2863 3.7001ZM25.4794 12.6866L21.2864 3.70033L21.0146 3.82717L25.2075 12.8134L25.4794 12.6866ZM17.6154 12.9H25.3434V12.6H17.6154V12.9ZM16.4131 13.4414C16.721 13.0966 17.1564 12.9 17.6154 12.9V12.6C17.0699 12.6 16.5534 12.8339 16.1893 13.2416L16.4131 13.4414ZM16.0145 14.5C16.0146 14.1124 16.1551 13.7348 16.4138 13.4405L16.1885 13.2425C15.8813 13.5919 15.7146 14.04 15.7145 14.5L16.0145 14.5ZM12.1353 14.65H15.8645V14.35H12.1353V14.65ZM11.5829 13.4391C11.8434 13.7339 11.9852 14.1121 11.9853 14.5L12.2853 14.5C12.2852 14.0391 12.1168 13.5902 11.8076 13.2404L11.5829 13.4391ZM10.3845 12.9C10.842 12.9 11.279 13.0968 11.5831 13.4393L11.8074 13.2402C11.4465 12.8337 10.928 12.6 10.3845 12.6V12.9ZM2.6565 12.9H10.3845V12.6H2.6565V12.9ZM6.71334 3.70207L2.52057 12.6866L2.79243 12.8134L6.9852 3.82893L6.71334 3.70207ZM9.22927 2.1C8.15596 2.1 7.16853 2.72878 6.71339 3.70195L6.98514 3.82905C7.39101 2.96122 8.27258 2.4 9.22927 2.4V2.1ZM11.3748 2.1H9.22927V2.4H11.3748V2.1ZM12.0998 1.375C12.0998 1.77516 11.7749 2.1 11.3748 2.1V2.4C11.9406 2.4 12.3998 1.94084 12.3998 1.375H12.0998ZM11.3748 0.65C11.7749 0.65 12.0998 0.974843 12.0998 1.375H12.3998C12.3998 0.809157 11.9406 0.35 11.3748 0.35V0.65ZM9.22927 0.65H11.3748V0.35H9.22927V0.65ZM5.39963 3.08709C6.09247 1.60676 7.5953 0.65 9.22927 0.65V0.35C7.47874 0.35 5.87007 1.37424 5.12791 2.95991L5.39963 3.08709ZM17.6154 14.65H26.16V14.35H17.6154V14.65ZM17.941 15.9007L17.7643 14.4815L17.4666 14.5185L17.6433 15.9378L17.941 15.9007ZM22.1339 19.6C20.0098 19.6 18.2063 18.0095 17.941 15.9005L17.6434 15.938C17.9275 18.197 19.8586 19.9 22.1339 19.9V19.6ZM23.6249 19.6H22.1339V19.9H23.6249V19.6ZM26.0999 17.125C26.0999 18.4894 24.9893 19.6 23.6249 19.6V19.9C25.155 19.9 26.3999 18.6551 26.3999 17.125H26.0999ZM26.0999 14.6928V17.125H26.3999V14.6928H26.0999ZM26.3859 14.6294L26.2959 14.4366L26.024 14.5634L26.114 14.7563L26.3859 14.6294Z" fill="#fff"/></svg>