<svg width="23" height="29" viewBox="0 0 23 29" fill="none" xmlns="http://www.w3.org/2000/svg"><path d="M11.4999 0.779785C8.50929 0.779785 6.06242 3.23978 6.06242 6.23978V8.48978H1.83325C1.31971 8.48978 0.927002 8.87978 0.927002 9.38978V23.4898C0.927002 25.9798 2.95096 27.9898 5.45825 27.9898H17.5416C20.0489 27.9898 22.0728 25.9798 22.0728 23.4898V9.38978C22.0728 8.87978 21.6801 8.48978 21.1666 8.48978H16.9374V6.23978C16.9374 3.23978 14.4905 0.779785 11.4999 0.779785ZM7.87492 6.23978C7.87492 4.22978 9.50617 2.57979 11.4999 2.57979C13.4937 2.57979 15.1249 4.22978 15.1249 6.23978V8.48978H7.87492V6.23978ZM20.2603 10.3198V23.5198C20.2603 25.0198 19.052 26.2198 17.5416 26.2198H5.45825C3.94783 26.2198 2.7395 25.0198 2.7395 23.5198V10.3198H6.06242V11.8798C6.06242 12.3898 6.45513 12.7798 6.96867 12.7798C7.48221 12.7798 7.87492 12.3898 7.87492 11.8798V10.3198H15.1249V11.8798C15.1249 12.3898 15.5176 12.7798 16.0312 12.7798C16.5447 12.7798 16.9374 12.3898 16.9374 11.8798V10.3198H20.2603Z" fill="#5F73F1" stroke="#fff" stroke-width=".3"/></svg>