<svg width="24" height="25" viewBox="0 0 24 25" fill="none" xmlns="http://www.w3.org/2000/svg"><path d="M23.7435 12.7739C23.7484 12.7002 23.75 12.6226 23.75 12.55C23.75 8.4569 21.5882 4.63495 18.1075 2.5763C18.1048 2.57465 18.102 2.5752 18.0993 2.57355C18.0988 2.573 18.0983 2.57245 18.0977 2.5719C16.3714 1.5434 14.3927 1 12.375 1C10.3226 1 8.31413 1.56155 6.56617 2.6236C6.56075 2.6269 6.55804 2.6324 6.55371 2.63515C6.54938 2.63735 6.54396 2.63735 6.54017 2.6401C3.12279 4.71085 1 8.50805 1 12.55C1 12.6149 1.00217 12.6847 1.0065 12.7518C1.0065 12.7557 1.00704 12.759 1.00704 12.7634C1.00704 12.7678 1.00704 12.7722 1.00704 12.776C1.00704 12.7799 1.00542 12.7832 1.00542 12.7865C1.08233 16.8235 3.27663 20.5745 6.73354 22.5765C6.73625 22.5781 6.73896 22.5781 6.74167 22.5798L6.74221 22.5804C8.44358 23.5753 10.3909 24.1005 12.375 24.1005C14.306 24.1005 16.2127 23.5989 17.8875 22.6502C17.8908 22.6486 17.893 22.6447 17.8962 22.6425C17.9016 22.6397 17.9076 22.6381 17.9135 22.6348C17.9135 22.6348 17.9141 22.6343 17.9146 22.6343C21.4279 20.6509 23.6623 16.884 23.7451 12.8036C23.7451 12.8008 23.7435 12.798 23.7435 12.7948C23.744 12.7909 23.7435 12.7871 23.744 12.7832C23.7435 12.7799 23.7435 12.7772 23.7435 12.7739ZM9.61683 17.5L6.9215 12.7673L6.93938 12.7359L9.6255 8.029H15.0032L17.698 12.7618L15.0053 17.4797L14.994 17.4995H9.61683V17.5ZM22.6607 12.2041L18.634 12.209L16.1017 7.7606L15.9419 7.479L18.0251 3.81765C20.8071 5.67225 22.5497 8.81605 22.6607 12.2041ZM17.0794 3.25665L15.2848 6.41915L14.995 6.929H9.63958L7.58613 3.3023C10.4916 1.7414 14.1609 1.7249 17.0794 3.25665ZM6.63117 3.88365L8.67813 7.47845L8.52267 7.75125L5.98604 12.1974L2.08983 12.1881C2.20521 8.854 3.91092 5.74265 6.63117 3.88365ZM2.11421 13.325L5.98496 13.3205L8.67813 18.05L6.80938 21.3368C4.10375 19.5702 2.35092 16.5793 2.11421 13.325ZM7.76 21.8879L9.6255 18.5995H14.9831L16.8735 21.9468C14.0466 23.3493 10.5555 23.324 7.76 21.8879ZM17.8469 21.3973L15.9419 18.0494L18.6334 13.3315L22.6353 13.3409C22.392 16.6337 20.604 19.6428 17.8469 21.3973Z" fill="#5F73F1" stroke="#5F73F1" stroke-width=".3"/></svg>