<svg width="26" height="26" viewBox="0 0 26 26" fill="none" xmlns="http://www.w3.org/2000/svg"><path fill-rule="evenodd" clip-rule="evenodd" d="M6.65654 1.53598C6.65654 1.80772 6.54859 2.06832 6.35645 2.26046L6.05693 2.55998C5.92225 2.69434 5.81539 2.85394 5.74248 3.02966C5.66957 3.20537 5.63205 3.39374 5.63205 3.58398C5.63205 3.77422 5.66957 3.96259 5.74248 4.13831C5.81539 4.31402 5.92225 4.47363 6.05693 4.60798L6.35645 4.9075C6.54859 5.09965 6.65654 5.36025 6.65654 5.63198C6.65654 5.90372 6.54859 6.16432 6.35645 6.35646C6.16431 6.54861 5.9037 6.65655 5.63197 6.65655C5.36024 6.65655 5.09963 6.54861 4.90749 6.35646L4.60797 6.05694C4.28317 5.73221 4.02553 5.34668 3.84975 4.92237C3.67397 4.49805 3.5835 4.04327 3.5835 3.58398C3.5835 3.1247 3.67397 2.66991 3.84975 2.2456C4.02553 1.82129 4.28317 1.43575 4.60797 1.11102L4.90749 0.811503C5.09963 0.619359 5.36024 0.511414 5.63197 0.511414C5.9037 0.511414 6.16431 0.619359 6.35645 0.811503C6.54859 1.00365 6.65654 1.26425 6.65654 1.53598ZM19.968 11.776H20.992C22.0783 11.776 23.1201 12.2075 23.8883 12.9757C24.6564 13.7438 25.088 14.7857 25.088 15.872C25.088 16.9583 24.6564 18.0001 23.8883 18.7683C23.1201 19.5364 22.0783 19.968 20.992 19.968H18.944C18.9008 19.9622 18.858 19.9536 18.816 19.9424C17.7929 21.853 16.1611 23.3673 14.1795 24.245C12.1979 25.1227 9.97989 25.3135 7.87747 24.7872C5.77505 24.2608 3.9086 23.0475 2.57425 21.3397C1.23991 19.6318 0.514094 17.5273 0.511963 15.36V9.72798C0.511963 9.4564 0.619848 9.19594 0.811886 9.0039C1.00392 8.81186 1.26438 8.70398 1.53596 8.70398H18.944C19.2155 8.70398 19.476 8.81186 19.668 9.0039C19.8601 9.19594 19.968 9.4564 19.968 9.72798V11.776ZM4.80938 20.7906C6.24966 22.2308 8.2031 23.04 10.24 23.04C11.2485 23.04 12.2472 22.8413 13.179 22.4554C14.1108 22.0694 14.9574 21.5037 15.6705 20.7906C16.3837 20.0774 16.9494 19.2308 17.3354 18.299C17.7213 17.3672 17.92 16.3685 17.92 15.36V10.752H2.55996V15.36C2.55996 17.3968 3.3691 19.3503 4.80938 20.7906ZM19.6147 17.92H20.992C21.5351 17.92 22.056 17.7042 22.4401 17.3201C22.8242 16.9361 23.04 16.4151 23.04 15.872C23.04 15.3288 22.8242 14.8079 22.4401 14.4238C22.056 14.0398 21.5351 13.824 20.992 13.824H19.968V15.36C19.9646 16.2252 19.8458 17.0862 19.6147 17.92ZM11.4766 2.26046C11.5717 2.16532 11.6472 2.05238 11.6987 1.92807C11.7502 1.80376 11.7767 1.67053 11.7767 1.53598C11.7767 1.40143 11.7502 1.2682 11.6987 1.1439C11.6472 1.01959 11.5717 0.906643 11.4766 0.811503C11.3814 0.716363 11.2685 0.640894 11.1442 0.589404C11.0199 0.537915 10.8866 0.511414 10.7521 0.511414C10.6175 0.511414 10.4843 0.537915 10.36 0.589404C10.2357 0.640894 10.1227 0.716363 10.0276 0.811503L9.72808 1.11102C9.40329 1.43575 9.14565 1.82129 8.96987 2.2456C8.79409 2.66991 8.70361 3.1247 8.70361 3.58398C8.70361 4.04327 8.79409 4.49805 8.96987 4.92237C9.14565 5.34668 9.40329 5.73221 9.72808 6.05694L10.0276 6.35646C10.2197 6.54861 10.4804 6.65655 10.7521 6.65655C11.0238 6.65655 11.2844 6.54861 11.4766 6.35646C11.6687 6.16432 11.7767 5.90372 11.7767 5.63198C11.7767 5.36025 11.6687 5.09965 11.4766 4.9075L11.177 4.60798C11.0424 4.47363 10.9355 4.31402 10.8626 4.13831C10.7897 3.96259 10.7522 3.77422 10.7522 3.58398C10.7522 3.39374 10.7897 3.20537 10.8626 3.02966C10.9355 2.85394 11.0424 2.69434 11.177 2.55998L11.4766 2.26046ZM16.8188 1.92807C16.7673 2.05238 16.6918 2.16532 16.5967 2.26046L16.2972 2.55998C16.1625 2.69434 16.0556 2.85394 15.9827 3.02966C15.9098 3.20537 15.8723 3.39374 15.8723 3.58398C15.8723 3.77422 15.9098 3.96259 15.9827 4.13831C16.0556 4.31402 16.1625 4.47363 16.2972 4.60798L16.5967 4.9075C16.7888 5.09965 16.8968 5.36025 16.8968 5.63198C16.8968 5.90372 16.7888 6.16432 16.5967 6.35646C16.4045 6.54861 16.1439 6.65655 15.8722 6.65655C15.6005 6.65655 15.3399 6.54861 15.1477 6.35646L14.8482 6.05694C14.5234 5.73221 14.2658 5.34668 14.09 4.92237C13.9142 4.49805 13.8237 4.04327 13.8237 3.58398C13.8237 3.1247 13.9142 2.66991 14.09 2.2456C14.2658 1.82129 14.5234 1.43575 14.8482 1.11102L15.1477 0.811503C15.2429 0.716363 15.3558 0.640894 15.4801 0.589404C15.6044 0.537915 15.7377 0.511414 15.8722 0.511414C16.0067 0.511414 16.14 0.537915 16.2643 0.589404C16.3886 0.640894 16.5015 0.716363 16.5967 0.811503C16.6918 0.906643 16.7673 1.01959 16.8188 1.1439C16.8703 1.2682 16.8968 1.40143 16.8968 1.53598C16.8968 1.67053 16.8703 1.80376 16.8188 1.92807Z" fill="#5F73F1"/><path d="M6.35645 2.26046L6.53323 2.43724L6.53323 2.43724L6.35645 2.26046ZM6.05693 2.55998L6.23349 2.73697L6.23371 2.73676L6.05693 2.55998ZM5.74248 3.02966L5.51157 2.93385V2.93385L5.74248 3.02966ZM5.74248 4.13831L5.51157 4.23412V4.23412L5.74248 4.13831ZM6.05693 4.60798L6.23371 4.43121L6.23349 4.43099L6.05693 4.60798ZM6.35645 4.9075L6.53323 4.73073H6.53323L6.35645 4.9075ZM6.35645 6.35646L6.53323 6.53324H6.53323L6.35645 6.35646ZM4.90749 6.35646L5.08427 6.17969H5.08427L4.90749 6.35646ZM4.60797 6.05694L4.78474 5.88017L4.78473 5.88015L4.60797 6.05694ZM3.84975 4.92237L4.08072 4.82668V4.82668L3.84975 4.92237ZM3.84975 2.2456L4.08072 2.34128V2.34128L3.84975 2.2456ZM4.60797 1.11102L4.78473 1.28782L4.78474 1.2878L4.60797 1.11102ZM4.90749 0.811503L5.08427 0.98828L5.08427 0.98828L4.90749 0.811503ZM6.35645 0.811503L6.53323 0.634726L6.53323 0.634726L6.35645 0.811503ZM19.968 11.776H19.718V12.026H19.968V11.776ZM23.8883 12.9757L24.0651 12.7989L23.8883 12.9757ZM23.8883 18.7683L24.0651 18.9451L23.8883 18.7683ZM18.944 19.968L18.9107 20.2158L18.9272 20.218H18.944V19.968ZM18.816 19.9424L18.8805 19.7009L18.6891 19.6497L18.5956 19.8244L18.816 19.9424ZM7.87747 24.7872L7.93818 24.5447L7.87747 24.7872ZM2.57425 21.3397L2.77126 21.1857L2.57425 21.3397ZM0.511963 15.36H0.261963L0.261963 15.3602L0.511963 15.36ZM0.811886 9.0039L0.635109 8.82713L0.811886 9.0039ZM19.668 9.0039L19.4913 9.18068V9.18068L19.668 9.0039ZM13.179 22.4554L13.0833 22.2244L13.179 22.4554ZM17.3354 18.299L17.1044 18.2033L17.3354 18.299ZM17.92 10.752H18.17V10.502H17.92V10.752ZM2.55996 10.752V10.502H2.30996V10.752H2.55996ZM19.6147 17.92L19.3738 17.8532L19.286 18.17H19.6147V17.92ZM22.4401 17.3201L22.6169 17.4969L22.4401 17.3201ZM22.4401 14.4238L22.6169 14.247L22.4401 14.4238ZM19.968 13.824V13.574H19.718V13.824H19.968ZM19.968 15.36L20.218 15.361V15.36H19.968ZM11.6987 1.92807L11.4677 1.8324L11.4677 1.8324L11.6987 1.92807ZM11.4766 2.26046L11.6533 2.43724V2.43724L11.4766 2.26046ZM11.6987 1.1439L11.4677 1.23957L11.4677 1.23957L11.6987 1.1439ZM11.4766 0.811503L11.6533 0.634727L11.6533 0.634726L11.4766 0.811503ZM11.1442 0.589404L11.2398 0.358434L11.1442 0.589404ZM10.36 0.589404L10.2643 0.358434L10.36 0.589404ZM10.0276 0.811503L9.85083 0.634726L9.85083 0.634727L10.0276 0.811503ZM9.72808 1.11102L9.90484 1.28782L9.90486 1.2878L9.72808 1.11102ZM8.96987 2.2456L8.7389 2.14992V2.14992L8.96987 2.2456ZM8.96987 4.92237L8.7389 5.01805V5.01805L8.96987 4.92237ZM9.72808 6.05694L9.90486 5.88017L9.90484 5.88015L9.72808 6.05694ZM10.0276 6.35646L9.85083 6.53324V6.53324L10.0276 6.35646ZM11.4766 6.35646L11.6533 6.53324V6.53324L11.4766 6.35646ZM11.4766 4.9075L11.6533 4.73073V4.73073L11.4766 4.9075ZM11.177 4.60798L11.3538 4.43121L11.3536 4.43099L11.177 4.60798ZM10.8626 4.13831L10.6317 4.23412V4.23412L10.8626 4.13831ZM11.177 2.55998L11.3536 2.73697L11.3538 2.73676L11.177 2.55998ZM16.5967 2.26046L16.4199 2.08369L16.4199 2.08369L16.5967 2.26046ZM16.8188 1.92807L16.5878 1.8324L16.8188 1.92807ZM16.2972 2.55998L16.4737 2.73697L16.4739 2.73676L16.2972 2.55998ZM15.9827 4.13831L15.7518 4.23412V4.23412L15.9827 4.13831ZM16.2972 4.60798L16.4739 4.43121L16.4737 4.43099L16.2972 4.60798ZM16.5967 4.9075L16.4199 5.08428L16.5967 4.9075ZM16.5967 6.35646L16.4199 6.17969V6.17969L16.5967 6.35646ZM15.1477 6.35646L15.3245 6.17969L15.1477 6.35646ZM14.8482 6.05694L15.025 5.88017L15.025 5.88015L14.8482 6.05694ZM14.09 4.92237L13.859 5.01805L14.09 4.92237ZM14.09 2.2456L14.3209 2.34128L14.09 2.2456ZM14.8482 1.11102L15.025 1.28782L15.025 1.2878L14.8482 1.11102ZM15.1477 0.811503L14.9709 0.634726L14.9709 0.634727L15.1477 0.811503ZM15.4801 0.589404L15.5758 0.820374L15.5758 0.820374L15.4801 0.589404ZM16.2643 0.589404L16.36 0.358435L16.36 0.358434L16.2643 0.589404ZM16.5967 0.811503L16.4199 0.988279L16.4199 0.98828L16.5967 0.811503ZM6.53323 2.43724C6.77225 2.19821 6.90654 1.87402 6.90654 1.53598H6.40654C6.40654 1.74141 6.32493 1.93843 6.17967 2.08369L6.53323 2.43724ZM6.23371 2.73676L6.53323 2.43724L6.17967 2.08369L5.88015 2.38321L6.23371 2.73676ZM5.97339 3.12547C6.0337 2.98013 6.12209 2.84811 6.23349 2.73697L5.88037 2.38299C5.72241 2.54057 5.59708 2.72776 5.51157 2.93385L5.97339 3.12547ZM5.88205 3.58398C5.88205 3.42662 5.91309 3.27081 5.97339 3.12547L5.51157 2.93385C5.42606 3.13993 5.38205 3.36086 5.38205 3.58398H5.88205ZM5.97339 4.0425C5.91309 3.89715 5.88205 3.74134 5.88205 3.58398H5.38205C5.38205 3.8071 5.42606 4.02803 5.51157 4.23412L5.97339 4.0425ZM6.23349 4.43099C6.12209 4.31986 6.0337 4.18784 5.97339 4.0425L5.51157 4.23412C5.59708 4.4402 5.72241 4.6274 5.88037 4.78497L6.23349 4.43099ZM6.53323 4.73073L6.23371 4.43121L5.88015 4.78476L6.17967 5.08428L6.53323 4.73073ZM6.90654 5.63198C6.90654 5.29395 6.77225 4.96975 6.53323 4.73073L6.17967 5.08428C6.32493 5.22954 6.40654 5.42655 6.40654 5.63198H6.90654ZM6.53323 6.53324C6.77225 6.29421 6.90654 5.97002 6.90654 5.63198H6.40654C6.40654 5.83741 6.32493 6.03443 6.17967 6.17969L6.53323 6.53324ZM5.63197 6.90655C5.97001 6.90655 6.2942 6.77227 6.53323 6.53324L6.17967 6.17969C6.03441 6.32495 5.8374 6.40655 5.63197 6.40655V6.90655ZM4.73071 6.53324C4.96974 6.77227 5.29393 6.90655 5.63197 6.90655V6.40655C5.42654 6.40655 5.22953 6.32495 5.08427 6.17969L4.73071 6.53324ZM4.43119 6.23372L4.73071 6.53324L5.08427 6.17969L4.78474 5.88017L4.43119 6.23372ZM3.61878 5.01805C3.80713 5.4727 4.0832 5.88579 4.43121 6.23374L4.78473 5.88015C4.48315 5.57863 4.24393 5.22066 4.08072 4.82668L3.61878 5.01805ZM3.3335 3.58398C3.3335 4.0761 3.43044 4.5634 3.61878 5.01805L4.08072 4.82668C3.9175 4.4327 3.8335 4.01043 3.8335 3.58398H3.3335ZM3.61878 2.14992C3.43044 2.60457 3.3335 3.09186 3.3335 3.58398H3.8335C3.8335 3.15753 3.9175 2.73526 4.08072 2.34128L3.61878 2.14992ZM4.43121 0.934229C4.0832 1.28218 3.80713 1.69527 3.61878 2.14992L4.08072 2.34128C4.24393 1.9473 4.48315 1.58933 4.78473 1.28782L4.43121 0.934229ZM4.73071 0.634726L4.43119 0.934246L4.78474 1.2878L5.08427 0.98828L4.73071 0.634726ZM5.63197 0.261414C5.29393 0.261414 4.96974 0.395698 4.73071 0.634726L5.08427 0.98828C5.22953 0.84302 5.42654 0.761414 5.63197 0.761414V0.261414ZM6.53323 0.634726C6.2942 0.395698 5.97001 0.261414 5.63197 0.261414V0.761414C5.8374 0.761414 6.03441 0.84302 6.17967 0.98828L6.53323 0.634726ZM6.90654 1.53598C6.90654 1.19795 6.77225 0.873754 6.53323 0.634726L6.17967 0.98828C6.32493 1.13354 6.40654 1.33055 6.40654 1.53598H6.90654ZM20.992 11.526H19.968V12.026H20.992V11.526ZM24.0651 12.7989C23.25 11.9839 22.1446 11.526 20.992 11.526V12.026C22.012 12.026 22.9902 12.4312 23.7115 13.1524L24.0651 12.7989ZM25.338 15.872C25.338 14.7193 24.8801 13.6139 24.0651 12.7989L23.7115 13.1524C24.4328 13.8737 24.838 14.852 24.838 15.872H25.338ZM24.0651 18.9451C24.8801 18.13 25.338 17.0246 25.338 15.872H24.838C24.838 16.892 24.4328 17.8702 23.7115 18.5915L24.0651 18.9451ZM20.992 20.218C22.1446 20.218 23.25 19.7601 24.0651 18.9451L23.7115 18.5915C22.9902 19.3128 22.012 19.718 20.992 19.718V20.218ZM18.944 20.218H20.992V19.718H18.944V20.218ZM18.7514 20.1839C18.8038 20.1979 18.857 20.2085 18.9107 20.2158L18.9773 19.7202C18.9446 19.7158 18.9123 19.7094 18.8805 19.7009L18.7514 20.1839ZM14.2807 24.4736C16.3133 23.5734 17.987 22.0201 19.0364 20.0604L18.5956 19.8244C17.5988 21.6859 16.009 23.1613 14.0783 24.0164L14.2807 24.4736ZM7.81675 25.0297C9.9732 25.5696 12.2482 25.3739 14.2807 24.4736L14.0783 24.0164C12.1476 24.8716 9.98657 25.0575 7.93818 24.5447L7.81675 25.0297ZM2.37725 21.4936C3.74589 23.2453 5.6603 24.4898 7.81675 25.0297L7.93818 24.5447C5.88979 24.0319 4.07131 22.8497 2.77126 21.1857L2.37725 21.4936ZM0.261963 15.3602C0.264148 17.5832 1.00862 19.7418 2.37725 21.4936L2.77126 21.1857C1.4712 19.5218 0.764039 17.4713 0.761963 15.3597L0.261963 15.3602ZM0.261963 9.72798V15.36H0.761963V9.72798H0.261963ZM0.635109 8.82713C0.396188 9.06605 0.261963 9.39009 0.261963 9.72798H0.761963C0.761963 9.5227 0.843509 9.32583 0.988662 9.18068L0.635109 8.82713ZM1.53596 8.45398C1.19808 8.45398 0.87403 8.5882 0.635109 8.82713L0.988662 9.18068C1.13382 9.03553 1.33069 8.95398 1.53596 8.95398V8.45398ZM18.944 8.45398H1.53596V8.95398H18.944V8.45398ZM19.8448 8.82713C19.6059 8.5882 19.2818 8.45398 18.944 8.45398V8.95398C19.1492 8.95398 19.3461 9.03553 19.4913 9.18068L19.8448 8.82713ZM20.218 9.72798C20.218 9.39009 20.0837 9.06605 19.8448 8.82713L19.4913 9.18068C19.6364 9.32583 19.718 9.5227 19.718 9.72798H20.218ZM20.218 11.776V9.72798H19.718V11.776H20.218ZM10.24 22.79C8.2694 22.79 6.37956 22.0072 4.98616 20.6138L4.63261 20.9673C6.11977 22.4545 8.1368 23.29 10.24 23.29V22.79ZM13.0833 22.2244C12.1819 22.5978 11.2157 22.79 10.24 22.79V23.29C11.2813 23.29 12.3125 23.0849 13.2746 22.6863L13.0833 22.2244ZM15.4938 20.6138C14.8038 21.3037 13.9848 21.851 13.0833 22.2244L13.2746 22.6863C14.2368 22.2878 15.111 21.7037 15.8473 20.9673L15.4938 20.6138ZM17.1044 18.2033C16.731 19.1048 16.1837 19.9238 15.4938 20.6138L15.8473 20.9673C16.5837 20.231 17.1678 19.3568 17.5663 18.3947L17.1044 18.2033ZM17.67 15.36C17.67 16.3357 17.4778 17.3019 17.1044 18.2033L17.5663 18.3947C17.9648 17.4325 18.17 16.4014 18.17 15.36H17.67ZM17.67 10.752V15.36H18.17V10.752H17.67ZM2.55996 11.002H17.92V10.502H2.55996V11.002ZM2.80996 15.36V10.752H2.30996V15.36H2.80996ZM4.98616 20.6138C3.59276 19.2204 2.80996 17.3305 2.80996 15.36H2.30996C2.30996 17.4631 3.14544 19.4802 4.63261 20.9673L4.98616 20.6138ZM20.992 17.67H19.6147V18.17H20.992V17.67ZM22.2633 17.1434C21.9262 17.4805 21.4688 17.67 20.992 17.67V18.17C21.6014 18.17 22.1859 17.9279 22.6169 17.4969L22.2633 17.1434ZM22.79 15.872C22.79 16.3488 22.6005 16.8062 22.2633 17.1434L22.6169 17.4969C23.0479 17.066 23.29 16.4814 23.29 15.872H22.79ZM22.2633 14.6006C22.6005 14.9378 22.79 15.3951 22.79 15.872H23.29C23.29 15.2625 23.0479 14.678 22.6169 14.247L22.2633 14.6006ZM20.992 14.074C21.4688 14.074 21.9262 14.2634 22.2633 14.6006L22.6169 14.247C22.1859 13.8161 21.6014 13.574 20.992 13.574V14.074ZM19.968 14.074H20.992V13.574H19.968V14.074ZM20.218 15.36V13.824H19.718V15.36H20.218ZM19.8556 17.9867C20.0926 17.1315 20.2145 16.2484 20.218 15.361L19.718 15.359C19.7147 16.202 19.5989 17.0408 19.3738 17.8532L19.8556 17.9867ZM11.4677 1.8324C11.4288 1.92637 11.3717 2.01176 11.2998 2.08369L11.6533 2.43724C11.7717 2.31889 11.8656 2.17838 11.9296 2.02374L11.4677 1.8324ZM11.5267 1.53598C11.5267 1.6377 11.5066 1.73842 11.4677 1.8324L11.9296 2.02374C11.9937 1.8691 12.0267 1.70336 12.0267 1.53598H11.5267ZM11.4677 1.23957C11.5066 1.33354 11.5267 1.43426 11.5267 1.53598H12.0267C12.0267 1.3686 11.9937 1.20286 11.9296 1.04823L11.4677 1.23957ZM11.2998 0.988279C11.3717 1.06021 11.4288 1.14559 11.4677 1.23957L11.9296 1.04823C11.8656 0.893588 11.7717 0.753081 11.6533 0.634727L11.2998 0.988279ZM11.0485 0.820374C11.1425 0.8593 11.2279 0.916354 11.2998 0.98828L11.6533 0.634726C11.535 0.516372 11.3945 0.422488 11.2398 0.358434L11.0485 0.820374ZM10.7521 0.761414C10.8538 0.761414 10.9545 0.781448 11.0485 0.820374L11.2398 0.358434C11.0852 0.294381 10.9195 0.261414 10.7521 0.261414V0.761414ZM10.4557 0.820374C10.5496 0.781448 10.6504 0.761414 10.7521 0.761414V0.261414C10.5847 0.261414 10.419 0.294381 10.2643 0.358434L10.4557 0.820374ZM10.2044 0.98828C10.2763 0.916354 10.3617 0.8593 10.4557 0.820374L10.2643 0.358434C10.1097 0.422488 9.96918 0.516372 9.85083 0.634726L10.2044 0.98828ZM9.90486 1.2878L10.2044 0.98828L9.85083 0.634727L9.55131 0.934247L9.90486 1.2878ZM9.20083 2.34128C9.36405 1.9473 9.60327 1.58933 9.90484 1.28782L9.55132 0.93423C9.20331 1.28218 8.92725 1.69527 8.7389 2.14992L9.20083 2.34128ZM8.95361 3.58398C8.95361 3.15753 9.03762 2.73526 9.20083 2.34128L8.7389 2.14992C8.55055 2.60457 8.45361 3.09187 8.45361 3.58398H8.95361ZM9.20083 4.82668C9.03762 4.4327 8.95361 4.01043 8.95361 3.58398H8.45361C8.45361 4.0761 8.55055 4.5634 8.7389 5.01805L9.20083 4.82668ZM9.90484 5.88015C9.60327 5.57863 9.36405 5.22066 9.20083 4.82668L8.7389 5.01805C8.92725 5.4727 9.20331 5.88579 9.55132 6.23374L9.90484 5.88015ZM10.2044 6.17969L9.90486 5.88017L9.55131 6.23372L9.85083 6.53324L10.2044 6.17969ZM10.7521 6.40655C10.5467 6.40655 10.3496 6.32495 10.2044 6.17969L9.85083 6.53324C10.0899 6.77227 10.414 6.90655 10.7521 6.90655V6.40655ZM11.2998 6.17969C11.1545 6.32495 10.9575 6.40655 10.7521 6.40655V6.90655C11.0901 6.90655 11.4143 6.77227 11.6533 6.53324L11.2998 6.17969ZM11.5267 5.63198C11.5267 5.83741 11.445 6.03443 11.2998 6.17969L11.6533 6.53324C11.8924 6.29421 12.0267 5.97002 12.0267 5.63198H11.5267ZM11.2998 5.08428C11.445 5.22954 11.5267 5.42655 11.5267 5.63198H12.0267C12.0267 5.29395 11.8924 4.96975 11.6533 4.73073L11.2998 5.08428ZM11.0003 4.78476L11.2998 5.08428L11.6533 4.73073L11.3538 4.43121L11.0003 4.78476ZM10.6317 4.23412C10.7172 4.4402 10.8425 4.6274 11.0005 4.78497L11.3536 4.43099C11.2422 4.31986 11.1538 4.18784 11.0935 4.0425L10.6317 4.23412ZM10.5022 3.58398C10.5022 3.8071 10.5462 4.02803 10.6317 4.23412L11.0935 4.0425C11.0332 3.89715 11.0022 3.74134 11.0022 3.58398H10.5022ZM10.6317 2.93385C10.5462 3.13993 10.5022 3.36086 10.5022 3.58398H11.0022C11.0022 3.42662 11.0332 3.27081 11.0935 3.12547L10.6317 2.93385ZM11.0005 2.38299C10.8425 2.54057 10.7172 2.72776 10.6317 2.93385L11.0935 3.12547C11.1538 2.98013 11.2422 2.84811 11.3536 2.73697L11.0005 2.38299ZM11.2998 2.08369L11.0003 2.38321L11.3538 2.73676L11.6533 2.43724L11.2998 2.08369ZM16.7735 2.43724C16.8918 2.31888 16.9857 2.17838 17.0497 2.02374L16.5878 1.8324C16.5489 1.92637 16.4918 2.01176 16.4199 2.08369L16.7735 2.43724ZM16.4739 2.73676L16.7735 2.43724L16.4199 2.08369L16.1204 2.38321L16.4739 2.73676ZM16.2136 3.12547C16.2739 2.98013 16.3623 2.84811 16.4737 2.73697L16.1206 2.38299C15.9626 2.54057 15.8373 2.72776 15.7518 2.93385L16.2136 3.12547ZM16.1223 3.58398C16.1223 3.42662 16.1533 3.27081 16.2136 3.12547L15.7518 2.93385C15.6663 3.13993 15.6223 3.36086 15.6223 3.58398H16.1223ZM16.2136 4.0425C16.1533 3.89715 16.1223 3.74134 16.1223 3.58398H15.6223C15.6223 3.8071 15.6663 4.02803 15.7518 4.23412L16.2136 4.0425ZM16.4737 4.43099C16.3623 4.31986 16.2739 4.18784 16.2136 4.0425L15.7518 4.23412C15.8373 4.4402 15.9626 4.6274 16.1206 4.78497L16.4737 4.43099ZM16.7735 4.73073L16.4739 4.43121L16.1204 4.78476L16.4199 5.08428L16.7735 4.73073ZM17.1468 5.63198C17.1468 5.29395 17.0125 4.96975 16.7735 4.73073L16.4199 5.08428C16.5652 5.22954 16.6468 5.42655 16.6468 5.63198H17.1468ZM16.7735 6.53324C17.0125 6.29421 17.1468 5.97002 17.1468 5.63198H16.6468C16.6468 5.83741 16.5652 6.03443 16.4199 6.17969L16.7735 6.53324ZM15.8722 6.90655C16.2102 6.90655 16.5344 6.77227 16.7735 6.53324L16.4199 6.17969C16.2746 6.32495 16.0776 6.40655 15.8722 6.40655V6.90655ZM14.9709 6.53324C15.21 6.77227 15.5342 6.90655 15.8722 6.90655V6.40655C15.6668 6.40655 15.4698 6.32495 15.3245 6.17969L14.9709 6.53324ZM14.6714 6.23372L14.9709 6.53324L15.3245 6.17969L15.025 5.88017L14.6714 6.23372ZM13.859 5.01805C14.0474 5.4727 14.3234 5.88579 14.6714 6.23374L15.025 5.88015C14.7234 5.57863 14.4842 5.22066 14.3209 4.82668L13.859 5.01805ZM13.5737 3.58398C13.5737 4.0761 13.6707 4.5634 13.859 5.01805L14.3209 4.82668C14.1577 4.4327 14.0737 4.01043 14.0737 3.58398H13.5737ZM13.859 2.14992C13.6707 2.60457 13.5737 3.09187 13.5737 3.58398H14.0737C14.0737 3.15753 14.1577 2.73526 14.3209 2.34128L13.859 2.14992ZM14.6714 0.93423C14.3234 1.28218 14.0474 1.69527 13.859 2.14992L14.3209 2.34128C14.4842 1.9473 14.7234 1.58933 15.025 1.28782L14.6714 0.93423ZM14.9709 0.634727L14.6714 0.934247L15.025 1.2878L15.3245 0.98828L14.9709 0.634727ZM15.3844 0.358434C15.2298 0.422488 15.0893 0.516372 14.9709 0.634726L15.3245 0.98828C15.3964 0.916354 15.4818 0.8593 15.5758 0.820374L15.3844 0.358434ZM15.8722 0.261414C15.7048 0.261414 15.5391 0.294381 15.3844 0.358435L15.5758 0.820374C15.6698 0.781448 15.7705 0.761414 15.8722 0.761414V0.261414ZM16.36 0.358434C16.2053 0.294381 16.0396 0.261414 15.8722 0.261414V0.761414C15.9739 0.761414 16.0746 0.781448 16.1686 0.820374L16.36 0.358434ZM16.7735 0.634727C16.6551 0.516371 16.5146 0.422487 16.36 0.358435L16.1686 0.820374C16.2626 0.8593 16.348 0.916355 16.4199 0.988279L16.7735 0.634727ZM17.0497 1.04823C16.9857 0.89359 16.8918 0.753082 16.7735 0.634726L16.4199 0.98828C16.4918 1.0602 16.5489 1.14559 16.5878 1.23957L17.0497 1.04823ZM17.1468 1.53598C17.1468 1.3686 17.1138 1.20286 17.0497 1.04823L16.5878 1.23957C16.6267 1.33354 16.6468 1.43427 16.6468 1.53598H17.1468ZM17.0497 2.02374C17.1138 1.8691 17.1468 1.70336 17.1468 1.53598H16.6468C16.6468 1.6377 16.6267 1.73842 16.5878 1.8324L17.0497 2.02374Z" fill="#fff"/></svg>