<svg width="28" height="16" viewBox="0 0 28 16" fill="none" xmlns="http://www.w3.org/2000/svg"><path d="M27.6347 13.3252C27.6425 13.298 27.6485 13.2709 27.6533 13.2431C27.6587 13.2106 27.6617 13.1787 27.6635 13.1456C27.6641 13.1303 27.6683 13.1149 27.6683 13.0995V3.46528C27.6683 3.44933 27.6641 3.43456 27.6635 3.41861C27.6617 3.38612 27.6587 3.35422 27.6533 3.32113C27.6485 3.29337 27.6419 3.26619 27.6347 3.23902C27.6275 3.21125 27.6197 3.18407 27.6089 3.1569C27.5975 3.12618 27.5837 3.09723 27.5693 3.06828C27.5621 3.0547 27.5579 3.03934 27.5501 3.02575C27.5447 3.01689 27.5375 3.0098 27.5321 3.00094C27.5153 2.97317 27.4955 2.94777 27.4751 2.92236C27.4583 2.90051 27.4415 2.87924 27.4229 2.86033C27.4025 2.83907 27.3809 2.82016 27.3587 2.80067C27.3371 2.78235 27.3161 2.76345 27.2927 2.74691C27.2687 2.72977 27.2429 2.7156 27.2171 2.70083C27.1931 2.68724 27.1697 2.67365 27.1445 2.66243C27.1163 2.64943 27.0869 2.63998 27.0575 2.62993C27.0317 2.62166 27.0071 2.6128 26.9807 2.6063C26.9513 2.59921 26.9213 2.59508 26.8913 2.59094C26.8619 2.58681 26.8331 2.58326 26.8037 2.58208C26.7917 2.58149 26.7809 2.57854 26.7689 2.57854C26.7509 2.57854 26.7335 2.58267 26.7155 2.58385C26.6855 2.58563 26.6561 2.58799 26.6273 2.59272C26.5955 2.59744 26.5655 2.60453 26.5355 2.6128C26.5097 2.61989 26.4845 2.62698 26.4587 2.63643C26.4269 2.64825 26.3963 2.66184 26.3663 2.6766C26.3525 2.68369 26.3375 2.68783 26.3237 2.69551L21.0419 5.66235C19.4849 3.04643 15.6485 1.23572 11.0405 1.23572C5.01228 1.23572 0.290283 4.33076 0.290283 8.28182C0.290283 12.2329 5.01228 15.3285 11.0405 15.3285C15.6479 15.3285 19.4843 13.5184 21.0413 10.9025L26.3237 13.8687C26.3345 13.8746 26.3453 13.8764 26.3561 13.8811C26.4041 13.9059 26.4545 13.926 26.5073 13.9426C26.5253 13.9479 26.5433 13.955 26.5619 13.9591C26.6279 13.9739 26.6963 13.9845 26.7671 13.9845C26.7683 13.9845 26.7689 13.9851 26.7695 13.9851C26.7701 13.9851 26.7701 13.9851 26.7701 13.9851C26.8433 13.9851 26.9129 13.9739 26.9813 13.9579C26.9999 13.9532 27.0179 13.9467 27.0359 13.9414C27.0869 13.926 27.1355 13.9065 27.1817 13.8829C27.2003 13.8729 27.2195 13.864 27.2375 13.8528C27.2921 13.8197 27.3437 13.7825 27.3899 13.7393C27.3947 13.7346 27.4013 13.7311 27.4055 13.7264C27.4571 13.6761 27.4991 13.6182 27.5375 13.5574C27.5417 13.5503 27.5483 13.545 27.5519 13.5385C27.5603 13.5249 27.5645 13.5095 27.5711 13.4954C27.5855 13.4664 27.5999 13.4375 27.6107 13.4073C27.6197 13.3796 27.6281 13.353 27.6347 13.3252ZM2.08908 8.28241C2.08908 6.34883 3.96828 4.62083 6.68388 3.70336C7.19388 5.00483 7.47288 6.54142 7.47288 8.11936C7.47288 9.82432 7.15308 11.4619 6.56808 12.8201C3.91608 11.8926 2.08908 10.1876 2.08908 8.28241ZM11.0393 13.5562C10.0931 13.5562 9.17688 13.4617 8.31228 13.2927C8.93268 11.7609 9.27288 9.96729 9.27288 8.11877C9.27288 6.37246 8.98128 4.71239 8.43228 3.2467C9.26088 3.0925 10.1369 3.00803 11.0393 3.00803C15.8921 3.00803 19.9913 5.42309 19.9913 8.28182C19.9913 11.1406 15.8921 13.5562 11.0393 13.5562ZM21.6887 7.33895L25.8683 4.99065V11.5742L21.6881 9.22646C21.7493 8.91749 21.7913 8.60379 21.7913 8.28182C21.7913 7.96104 21.7493 7.64734 21.6887 7.33895Z" fill="#5F73F1" stroke="#fff" stroke-width=".5"/></svg>