<svg width="25" height="25" viewBox="0 0 25 25" fill="none" xmlns="http://www.w3.org/2000/svg"><path fill-rule="evenodd" clip-rule="evenodd" d="M7.51953 5.93742V5.23255H9.2993H12.1509H15.0293H17.4805V5.48742V5.93742C17.4805 6.22492 17.6025 6.52992 17.8027 6.73242C17.9932 6.92742 18.3057 7.07492 18.5791 7.06242C18.8623 7.04992 19.1577 6.95492 19.3555 6.73242C19.5532 6.51242 19.6777 6.24242 19.6777 5.93742V5.23255H19.9878H21.6113C21.696 5.23255 21.7804 5.23227 21.8647 5.23199H21.8649L21.875 5.23196V6.17755V7.91755H20.8911H18.6426H15.8862H12.8662H9.83153H7.00194H4.59959H3.12498V7.56255V5.23255H4.55809H5.32227V5.48742V5.93742C5.32227 6.22492 5.44434 6.52992 5.64453 6.73242C5.83496 6.92742 6.14746 7.07492 6.4209 7.06242C6.7041 7.04992 6.99951 6.95492 7.19727 6.73242C7.39502 6.51242 7.51953 6.24242 7.51953 5.93742ZM9.79735 2.98755H7.51953V2.78742V2.33742C7.51953 2.04992 7.39746 1.74492 7.19727 1.54242C7.00684 1.34492 6.69434 1.19992 6.4209 1.21242C6.1377 1.22492 5.84229 1.31992 5.64453 1.54242C5.44678 1.76242 5.32227 2.03242 5.32227 2.33742V2.98755H3.9575H2.68065H2.60985C2.29979 2.99505 1.97752 3.07255 1.71629 3.25255C1.24266 3.57505 0.974105 4.06005 0.932602 4.63755C0.917296 4.84652 0.920944 5.05912 0.924567 5.27029C0.926145 5.36229 0.927719 5.45402 0.927719 5.54505V8.80755V8.88153C0.919695 8.93505 0.915527 8.98966 0.915527 9.04506V10.1476V12.8526V16.3301V19.6801V22.0526V22.6001C0.915527 22.6476 0.915527 22.6926 0.92041 22.7376C0.942383 23.0226 0.996094 23.2601 1.13281 23.5126C1.27197 23.7651 1.45264 23.9376 1.67725 24.1051C1.93848 24.2976 2.27783 24.3826 2.59521 24.3901C2.76943 24.3951 2.94473 24.3934 3.11967 24.3917H3.1197H3.11973H3.11976C3.2071 24.3909 3.29436 24.3901 3.38135 24.3901H5.40771H8.29102H11.6602H15.0977H18.269H20.7471H22.1851C22.2069 24.3901 22.2291 24.3903 22.2513 24.3906H22.2514H22.2515H22.2515C22.2962 24.3912 22.3413 24.3917 22.3853 24.3901C22.8296 24.3776 23.2544 24.2126 23.5718 23.8876C23.8867 23.5651 24.0527 23.1251 24.0625 22.6726V22.5926V21.0001V18.0126V14.4926V11.3076V9.32006V9.19137C24.0689 9.14337 24.0723 9.09452 24.0723 9.04505V7.57505V5.24755V4.75361C24.0726 4.73832 24.0726 4.72296 24.0723 4.70755L24.0722 4.70742C24.0722 4.67395 24.0704 4.64025 24.0671 4.60651C24.034 4.1703 23.8591 3.73998 23.5327 3.44755C23.208 3.15505 22.8271 2.99755 22.3926 2.98755H22.3242H21.8799H19.9341H19.6777V2.78742V2.33742C19.6777 2.04992 19.5557 1.74492 19.3555 1.54242C19.165 1.34492 18.8525 1.19992 18.5791 1.21242C18.2959 1.22492 18.0005 1.31992 17.8027 1.54242C17.605 1.75992 17.4805 2.03242 17.4805 2.33742V2.98755H16.9653H13.4399H9.79735ZM21.875 10.1701V10.4026V13.6676V17.6126V21.0151C21.875 21.1967 21.8755 21.3784 21.8761 21.5601C21.8767 21.7551 21.8772 21.9501 21.8772 22.1451L21.875 22.1451H20.4419H18.3032H15.7007H12.8491H9.9707H7.2876H5.01221H3.38867C3.30395 22.1451 3.21949 22.1453 3.13513 22.1456L3.11279 22.1457V21.3426V18.0951V14.1501V10.7351C3.11279 10.5501 3.11388 10.3651 3.11496 10.1801L3.11502 10.1701H4.09668H6.34521H9.10156H12.1216H15.1562H17.9858H20.3882H21.875ZM8.14453 17.7652L7.09229 16.6877C6.88233 16.4727 6.78467 16.1927 6.77002 15.8927C6.75781 15.5927 6.89942 15.3127 7.09229 15.0977C7.27783 14.8902 7.6001 14.7677 7.86865 14.7677C8.14942 14.7677 8.44483 14.8927 8.64502 15.0977L9.03076 15.4927L10.6982 17.2002L10.9741 17.4827L12.4951 15.9252L14.2651 14.1127L15.7349 12.6077L16.3477 11.9802C16.5576 11.7652 16.8335 11.6627 17.124 11.6502C17.417 11.6377 17.6904 11.7827 17.9004 11.9802C18.103 12.1702 18.2227 12.5002 18.2227 12.7752C18.2227 13.0627 18.1006 13.3652 17.9004 13.5702L17.8906 13.5802C17.7262 13.7536 17.5584 13.9237 17.391 14.0934C17.3075 14.1781 17.224 14.2628 17.1411 14.3477L15.603 15.9227L13.833 17.7352L12.3633 19.2402L11.7505 19.8677C11.3306 20.2977 10.6177 20.2977 10.1978 19.8677L9.81201 19.4727L8.14453 17.7652Z" fill="#5F73F1"/><path d="M7.51953 5.23255V4.93255H7.21953V5.23255H7.51953ZM17.4805 5.23255H17.7805V4.93255H17.4805V5.23255ZM17.8027 6.73242L18.0174 6.52281L18.0161 6.52151L17.8027 6.73242ZM18.5791 7.06242L18.5659 6.76271L18.5654 6.76273L18.5791 7.06242ZM19.3555 6.73242L19.1324 6.53187L19.1312 6.53312L19.3555 6.73242ZM19.6777 5.23255V4.93255H19.3777V5.23255H19.6777ZM21.8647 5.23199V4.93199L21.8637 4.93199L21.8647 5.23199ZM21.8649 5.23199V5.53199L21.8658 5.53199L21.8649 5.23199ZM21.875 5.23196H22.175V4.93097L21.874 4.93196L21.875 5.23196ZM21.875 7.91755V8.21755H22.175V7.91755H21.875ZM3.12498 7.91755H2.82498V8.21755H3.12498V7.91755ZM3.12498 5.23255V4.93255H2.82498V5.23255H3.12498ZM5.32227 5.23255H5.62227V4.93255H5.32227V5.23255ZM5.64453 6.73242L5.85917 6.52281L5.85787 6.52151L5.64453 6.73242ZM6.4209 7.06242L6.40767 6.76271L6.4072 6.76273L6.4209 7.06242ZM7.19727 6.73242L6.97415 6.53187L6.97303 6.53312L7.19727 6.73242ZM7.51953 2.98755H7.21953V3.28755H7.51953V2.98755ZM7.19727 1.54242L6.98129 1.75067L6.98392 1.75334L7.19727 1.54242ZM6.4209 1.21242L6.43413 1.51213L6.4346 1.51211L6.4209 1.21242ZM5.64453 1.54242L5.86765 1.74298L5.86877 1.74172L5.64453 1.54242ZM5.32227 2.98755V3.28755H5.62227V2.98755H5.32227ZM2.60985 2.98755V2.68746L2.60259 2.68764L2.60985 2.98755ZM1.71629 3.25255L1.88514 3.50053L1.88651 3.49958L1.71629 3.25255ZM0.932602 4.63755L1.2318 4.65946L1.23183 4.65905L0.932602 4.63755ZM0.924567 5.27029L0.624611 5.27544L0.924567 5.27029ZM0.927719 8.88153L1.2244 8.92601L1.22772 8.90389V8.88153H0.927719ZM0.92041 22.7376L1.21967 22.7145L1.21866 22.7052L0.92041 22.7376ZM1.13281 23.5126L0.868995 23.6554L0.870073 23.6574L1.13281 23.5126ZM1.67725 24.1051L1.4979 24.3456L1.49928 24.3466L1.67725 24.1051ZM2.59521 24.3901L2.60383 24.0902L2.6023 24.0901L2.59521 24.3901ZM3.11967 24.3917V24.0917L3.11681 24.0917L3.11967 24.3917ZM3.11976 24.3917V24.6917L3.12262 24.6917L3.11976 24.3917ZM22.2513 24.3906L22.2476 24.6906H22.2513V24.3906ZM22.2515 24.3906L22.2553 24.0906H22.2515V24.3906ZM22.3853 24.3901L22.3768 24.0902L22.3739 24.0903L22.3853 24.3901ZM23.5718 23.8876L23.7864 24.0972L23.5718 23.8876ZM24.0625 22.6726L24.3625 22.679V22.6726H24.0625ZM24.0625 9.19137L23.7652 9.15157L23.7625 9.17138V9.19137H24.0625ZM24.0723 4.75361L23.7723 4.74632V4.75361H24.0723ZM24.0723 4.70755L24.3722 4.70024L24.3721 4.69881L24.0723 4.70755ZM24.0722 4.70742L23.7721 4.70819L23.7724 4.71616L24.0722 4.70742ZM24.0671 4.60651L23.7679 4.62925L23.7685 4.63589L24.0671 4.60651ZM23.5327 3.44755L23.3319 3.67045L23.3325 3.67098L23.5327 3.44755ZM22.3926 2.98755L22.3995 2.68755H22.3926V2.98755ZM19.6777 2.98755H19.3777V3.28755H19.6777V2.98755ZM19.3555 1.54242L19.1395 1.75067L19.1421 1.75334L19.3555 1.54242ZM18.5791 1.21242L18.5923 1.51213L18.5928 1.51211L18.5791 1.21242ZM17.8027 1.54242L18.0247 1.74425L18.027 1.74172L17.8027 1.54242ZM17.4805 2.98755V3.28755H17.7805V2.98755H17.4805ZM21.875 10.1701H22.175V9.87006H21.875V10.1701ZM21.8761 21.5601L22.1761 21.5592V21.5592L21.8761 21.5601ZM21.8772 22.1451L21.8769 22.4451L22.177 22.4453L22.1772 22.1452L21.8772 22.1451ZM21.875 22.1451L21.8753 21.8451H21.875V22.1451ZM3.13513 22.1456L3.1361 22.4456H3.13612L3.13513 22.1456ZM3.11279 22.1457H2.81279V22.4467L3.11377 22.4457L3.11279 22.1457ZM3.11496 10.1801L2.81497 10.1783L3.11496 10.1801ZM3.11502 10.1701V9.87006H2.81678L2.81503 10.1683L3.11502 10.1701ZM7.09229 16.6877L7.30692 16.4781L7.09229 16.6877ZM8.14453 17.7652L8.35916 17.5556L8.14453 17.7652ZM6.77002 15.8927L6.47026 15.9049L6.47038 15.9073L6.77002 15.8927ZM7.09229 15.0977L7.3156 15.298L7.31592 15.2976L7.09229 15.0977ZM8.64502 15.0977L8.43039 15.3073H8.43039L8.64502 15.0977ZM9.03076 15.4927L9.2454 15.2831L9.03076 15.4927ZM10.6982 17.2002L10.9129 16.9906V16.9906L10.6982 17.2002ZM10.9741 17.4827L10.7595 17.6923L10.9741 17.912L11.1888 17.6923L10.9741 17.4827ZM12.4951 15.9252L12.7098 16.1348L12.4951 15.9252ZM14.2651 14.1127L14.0505 13.9031L14.2651 14.1127ZM15.7349 12.6077L15.5202 12.3981L15.7349 12.6077ZM16.3477 11.9802L16.133 11.7706L16.3477 11.9802ZM17.124 11.6502L17.1112 11.3504L17.1111 11.3504L17.124 11.6502ZM17.9004 11.9802L17.6948 12.1987L17.6952 12.199L17.9004 11.9802ZM17.9004 13.5702L17.6858 13.3606L17.6858 13.3606L17.9004 13.5702ZM17.8906 13.5802L17.676 13.3705L17.673 13.3737L17.8906 13.5802ZM17.391 14.0934L17.6047 14.304L17.391 14.0934ZM17.1411 14.3477L16.9265 14.1381L17.1411 14.3477ZM15.603 15.9227L15.3884 15.7131L15.603 15.9227ZM13.833 17.7352L14.0476 17.9448L13.833 17.7352ZM12.3633 19.2402L12.5779 19.4498L12.3633 19.2402ZM11.7505 19.8677L11.5359 19.6581L11.7505 19.8677ZM10.1978 19.8677L10.4124 19.6581L10.1978 19.8677ZM9.81201 19.4727L9.59738 19.6823L9.81201 19.4727ZM7.21953 5.23255V5.93742H7.81953V5.23255H7.21953ZM9.2993 4.93255H7.51953V5.53255H9.2993V4.93255ZM12.1509 4.93255H9.2993V5.53255H12.1509V4.93255ZM15.0293 4.93255H12.1509V5.53255H15.0293V4.93255ZM17.4805 4.93255H15.0293V5.53255H17.4805V4.93255ZM17.7805 5.48742V5.23255H17.1805V5.48742H17.7805ZM17.7805 5.93742V5.48742H17.1805V5.93742H17.7805ZM18.0161 6.52151C17.8732 6.37698 17.7805 6.14854 17.7805 5.93742H17.1805C17.1805 6.30131 17.3319 6.68286 17.5894 6.94334L18.0161 6.52151ZM18.5654 6.76273C18.3932 6.77061 18.16 6.66885 18.0174 6.52282L17.5881 6.94202C17.8264 7.18599 18.2182 7.37923 18.5928 7.36211L18.5654 6.76273ZM19.1312 6.53312C19.0051 6.6751 18.7992 6.75241 18.5659 6.76271L18.5923 7.36213C18.9254 7.34743 19.3104 7.23474 19.5797 6.93172L19.1312 6.53312ZM19.3777 5.93742C19.3777 6.15559 19.2899 6.35663 19.1324 6.53187L19.5786 6.93297C19.8166 6.66821 19.9777 6.32926 19.9777 5.93742H19.3777ZM19.3777 5.23255V5.93742H19.9777V5.23255H19.3777ZM19.9878 4.93255H19.6777V5.53255H19.9878V4.93255ZM21.6113 4.93255H19.9878V5.53255H21.6113V4.93255ZM21.8637 4.93199C21.7793 4.93227 21.6954 4.93255 21.6113 4.93255V5.53255C21.6966 5.53255 21.7815 5.53227 21.8657 5.53199L21.8637 4.93199ZM21.8649 4.93199H21.8647V5.53199H21.8649V4.93199ZM21.874 4.93196L21.8639 4.93199L21.8658 5.53199L21.876 5.53196L21.874 4.93196ZM22.175 6.17755V5.23196H21.575V6.17755H22.175ZM22.175 7.91755V6.17755H21.575V7.91755H22.175ZM20.8911 8.21755H21.875V7.61755H20.8911V8.21755ZM18.6426 8.21755H20.8911V7.61755H18.6426V8.21755ZM15.8862 8.21755H18.6426V7.61755H15.8862V8.21755ZM12.8662 8.21755H15.8862V7.61755H12.8662V8.21755ZM9.83153 8.21755H12.8662V7.61755H9.83153V8.21755ZM7.00194 8.21755H9.83153V7.61755H7.00194V8.21755ZM4.59959 8.21755H7.00194V7.61755H4.59959V8.21755ZM3.12498 8.21755H4.59959V7.61755H3.12498V8.21755ZM2.82498 7.56255V7.91755H3.42498V7.56255H2.82498ZM2.82498 5.23255V7.56255H3.42498V5.23255H2.82498ZM4.55809 4.93255H3.12498V5.53255H4.55809V4.93255ZM5.32227 4.93255H4.55809V5.53255H5.32227V4.93255ZM5.62227 5.48742V5.23255H5.02227V5.48742H5.62227ZM5.62227 5.93742V5.48742H5.02227V5.93742H5.62227ZM5.85787 6.52151C5.71499 6.37698 5.62227 6.14854 5.62227 5.93742H5.02227C5.02227 6.30131 5.17368 6.68286 5.43119 6.94334L5.85787 6.52151ZM6.4072 6.76273C6.23496 6.77061 6.00177 6.66885 5.85916 6.52282L5.4299 6.94202C5.66815 7.18599 6.05996 7.37923 6.4346 7.36211L6.4072 6.76273ZM6.97303 6.53312C6.84685 6.6751 6.64103 6.75241 6.40767 6.76271L6.43413 7.36213C6.76718 7.34743 7.15217 7.23474 7.4215 6.93172L6.97303 6.53312ZM7.21953 5.93742C7.21953 6.15559 7.13168 6.35663 6.97415 6.53187L7.42038 6.93297C7.65836 6.66821 7.81953 6.32926 7.81953 5.93742H7.21953ZM7.51953 3.28755H9.79735V2.68755H7.51953V3.28755ZM7.21953 2.78742V2.98755H7.81953V2.78742H7.21953ZM7.21953 2.33742V2.78742H7.81953V2.33742H7.21953ZM6.98392 1.75334C7.12681 1.89786 7.21953 2.1263 7.21953 2.33742H7.81953C7.81953 1.97354 7.66811 1.59198 7.41061 1.33151L6.98392 1.75334ZM6.4346 1.51211C6.60821 1.50417 6.84051 1.60463 6.9813 1.75065L7.41323 1.33419C7.17316 1.08521 6.78046 0.89567 6.4072 0.912734L6.4346 1.51211ZM5.86877 1.74172C5.99495 1.59974 6.20077 1.52243 6.43413 1.51213L6.40767 0.912712C6.07462 0.927412 5.68962 1.0401 5.4203 1.34312L5.86877 1.74172ZM5.62227 2.33742C5.62227 2.11925 5.71012 1.91821 5.86764 1.74297L5.42142 1.34187C5.18343 1.60663 5.02227 1.94559 5.02227 2.33742H5.62227ZM5.62227 2.98755V2.33742H5.02227V2.98755H5.62227ZM3.9575 3.28755H5.32227V2.68755H3.9575V3.28755ZM2.68065 3.28755H3.9575V2.68755H2.68065V3.28755ZM2.60985 3.28755H2.68065V2.68755H2.60985V3.28755ZM1.88651 3.49958C2.08714 3.36134 2.34793 3.29397 2.6171 3.28746L2.60259 2.68764C2.25164 2.69613 1.86791 2.78376 1.54607 3.00552L1.88651 3.49958ZM1.23183 4.65905C1.26708 4.1686 1.49086 3.76899 1.88514 3.50052L1.54745 3.00458C0.994456 3.38111 0.681133 3.9515 0.633373 4.61604L1.23183 4.65905ZM1.22452 5.26515C1.22086 5.05158 1.21765 4.85262 1.2318 4.65946L0.633403 4.61564C0.61694 4.84041 0.621029 5.06666 0.624611 5.27544L1.22452 5.26515ZM1.22772 5.54505C1.22772 5.45101 1.22609 5.3567 1.22452 5.26515L0.624611 5.27544C0.626197 5.36788 0.627719 5.45702 0.627719 5.54505H1.22772ZM1.22772 8.80755V5.54505H0.627719V8.80755H1.22772ZM1.22772 8.88153V8.80755H0.627719V8.88153H1.22772ZM1.21553 9.04506C1.21553 9.00473 1.21856 8.96498 1.2244 8.92601L0.631034 8.83705C0.62083 8.90511 0.615527 8.97459 0.615527 9.04506H1.21553ZM1.21553 10.1476V9.04506H0.615527V10.1476H1.21553ZM1.21553 12.8526V10.1476H0.615527V12.8526H1.21553ZM1.21553 16.3301V12.8526H0.615527V16.3301H1.21553ZM1.21553 19.6801V16.3301H0.615527V19.6801H1.21553ZM1.21553 22.0526V19.6801H0.615527V22.0526H1.21553ZM1.21553 22.6001V22.0526H0.615527V22.6001H1.21553ZM1.21866 22.7052C1.21582 22.6791 1.21553 22.6504 1.21553 22.6001H0.615527C0.615527 22.6447 0.61523 22.706 0.622161 22.7699L1.21866 22.7052ZM1.39662 23.3697C1.2853 23.1641 1.23925 22.9704 1.21952 22.7145L0.621298 22.7606C0.645511 23.0747 0.706884 23.356 0.869002 23.6554L1.39662 23.3697ZM1.85659 23.8646C1.65127 23.7115 1.50661 23.5693 1.39555 23.3678L0.870073 23.6574C1.03734 23.9609 1.254 24.1637 1.4979 24.3456L1.85659 23.8646ZM2.6023 24.0901C2.3272 24.0836 2.05327 24.0095 1.85522 23.8635L1.49928 24.3466C1.82369 24.5856 2.22846 24.6815 2.58813 24.69L2.6023 24.0901ZM3.11681 24.0917C2.94089 24.0934 2.77135 24.095 2.60383 24.0902L2.5866 24.6899C2.76752 24.6951 2.94857 24.6934 3.12253 24.6917L3.11681 24.0917ZM3.1197 24.0917H3.11967V24.6917H3.1197V24.0917ZM3.11973 24.0917H3.1197V24.6917H3.11973V24.0917ZM3.11976 24.0917H3.11973V24.6917H3.11976V24.0917ZM3.38135 24.0901C3.29269 24.0901 3.204 24.0909 3.11689 24.0917L3.12262 24.6917C3.21021 24.6909 3.29603 24.6901 3.38135 24.6901V24.0901ZM5.40771 24.0901H3.38135V24.6901H5.40771V24.0901ZM8.29102 24.0901H5.40771V24.6901H8.29102V24.0901ZM11.6602 24.0901H8.29102V24.6901H11.6602V24.0901ZM15.0977 24.0901H11.6602V24.6901H15.0977V24.0901ZM18.269 24.0901H15.0977V24.6901H18.269V24.0901ZM20.7471 24.0901H18.269V24.6901H20.7471V24.0901ZM22.1851 24.0901H20.7471V24.6901H22.1851V24.0901ZM22.2551 24.0906C22.2331 24.0904 22.2091 24.0901 22.1851 24.0901V24.6901C22.2048 24.6901 22.225 24.6903 22.2476 24.6906L22.2551 24.0906ZM22.2514 24.0906H22.2513V24.6906H22.2514V24.0906ZM22.2515 24.0906H22.2514V24.6906H22.2515V24.0906ZM22.2515 24.0906H22.2515V24.6906H22.2515V24.0906ZM22.3739 24.0903C22.3388 24.0916 22.3014 24.0912 22.2553 24.0906L22.2478 24.6906C22.2911 24.6911 22.3438 24.6919 22.3966 24.6898L22.3739 24.0903ZM23.3571 23.678C23.1 23.9412 22.7521 24.0796 22.3768 24.0902L22.3937 24.6899C22.9071 24.6755 23.4087 24.4839 23.7864 24.0972L23.3571 23.678ZM23.7626 22.6661C23.7543 23.0512 23.6131 23.4158 23.3571 23.678L23.7864 24.0972C24.1603 23.7143 24.3512 23.1989 24.3624 22.679L23.7626 22.6661ZM23.7625 22.5926V22.6726H24.3625V22.5926H23.7625ZM23.7625 21.0001V22.5926H24.3625V21.0001H23.7625ZM23.7625 18.0126V21.0001H24.3625V18.0126H23.7625ZM23.7625 14.4926V18.0126H24.3625V14.4926H23.7625ZM23.7625 11.3076V14.4926H24.3625V11.3076H23.7625ZM23.7625 9.32006V11.3076H24.3625V9.32006H23.7625ZM23.7625 9.19137V9.32006H24.3625V9.19137H23.7625ZM23.7723 9.04505C23.7723 9.08107 23.7698 9.11662 23.7652 9.15157L24.3598 9.23118C24.368 9.17013 24.3722 9.10798 24.3722 9.04505H23.7723ZM23.7723 7.57505V9.04505H24.3722V7.57505H23.7723ZM23.7723 5.24755V7.57505H24.3722V5.24755H23.7723ZM23.7723 4.75361V5.24755H24.3722V4.75361H23.7723ZM23.7723 4.71486C23.7726 4.72537 23.7726 4.73586 23.7723 4.74632L24.3722 4.76091C24.3727 4.74078 24.3727 4.72056 24.3722 4.70024L23.7723 4.71486ZM23.7724 4.71616L23.7724 4.71629L24.3721 4.69881L24.3721 4.69868L23.7724 4.71616ZM23.7685 4.63589C23.771 4.66042 23.7722 4.68457 23.7722 4.70819L24.3722 4.70665C24.3721 4.66333 24.3699 4.62008 24.3657 4.57712L23.7685 4.63589ZM23.3325 3.67098C23.5896 3.90129 23.7394 4.25297 23.768 4.62924L24.3662 4.58377C24.3285 4.08764 24.1286 3.57866 23.7329 3.22412L23.3325 3.67098ZM22.3857 3.28747C22.7453 3.29575 23.0581 3.42382 23.3319 3.67045L23.7335 3.22465C23.3579 2.88628 22.909 2.69935 22.3995 2.68763L22.3857 3.28747ZM22.3242 3.28755H22.3926V2.68755H22.3242V3.28755ZM21.8799 3.28755H22.3242V2.68755H21.8799V3.28755ZM19.9341 3.28755H21.8799V2.68755H19.9341V3.28755ZM19.6777 3.28755H19.9341V2.68755H19.6777V3.28755ZM19.3777 2.78742V2.98755H19.9777V2.78742H19.3777ZM19.3777 2.33742V2.78742H19.9777V2.33742H19.3777ZM19.1421 1.75334C19.285 1.89786 19.3777 2.1263 19.3777 2.33742H19.9777C19.9777 1.97354 19.8263 1.59198 19.5688 1.33151L19.1421 1.75334ZM18.5928 1.51211C18.7664 1.50417 18.9987 1.60463 19.1395 1.75065L19.5714 1.33419C19.3314 1.08521 18.9387 0.89567 18.5654 0.912734L18.5928 1.51211ZM18.027 1.74172C18.1532 1.59974 18.359 1.52243 18.5923 1.51213L18.5659 0.912712C18.2328 0.927412 17.8478 1.0401 17.5785 1.34312L18.027 1.74172ZM17.7805 2.33742C17.7805 2.1184 17.869 1.91553 18.0247 1.74424L17.5808 1.3406C17.341 1.60431 17.1805 1.94644 17.1805 2.33742H17.7805ZM17.7805 2.98755V2.33742H17.1805V2.98755H17.7805ZM16.9653 3.28755H17.4805V2.68755H16.9653V3.28755ZM13.4399 3.28755H16.9653V2.68755H13.4399V3.28755ZM9.79735 3.28755H13.4399V2.68755H9.79735V3.28755ZM22.175 10.4026V10.1701H21.575V10.4026H22.175ZM22.175 13.6676V10.4026H21.575V13.6676H22.175ZM22.175 17.6126V13.6676H21.575V17.6126H22.175ZM22.175 21.0151V17.6126H21.575V21.0151H22.175ZM22.1761 21.5592C22.1755 21.3774 22.175 21.1962 22.175 21.0151H21.575C21.575 21.1972 21.5755 21.3794 21.5761 21.561L22.1761 21.5592ZM22.1772 22.1452C22.1772 21.9496 22.1767 21.7541 22.1761 21.5592L21.5761 21.561C21.5767 21.756 21.5772 21.9505 21.5772 22.1449L22.1772 22.1452ZM21.8747 22.4451L21.8769 22.4451L21.8774 21.8451L21.8753 21.8451L21.8747 22.4451ZM20.4419 22.4451H21.875V21.8451H20.4419V22.4451ZM18.3032 22.4451H20.4419V21.8451H18.3032V22.4451ZM15.7007 22.4451H18.3032V21.8451H15.7007V22.4451ZM12.8491 22.4451H15.7007V21.8451H12.8491V22.4451ZM9.9707 22.4451H12.8491V21.8451H9.9707V22.4451ZM7.2876 22.4451H9.9707V21.8451H7.2876V22.4451ZM5.01221 22.4451H7.2876V21.8451H5.01221V22.4451ZM3.38867 22.4451H5.01221V21.8451H3.38867V22.4451ZM3.13612 22.4456C3.22056 22.4453 3.30452 22.4451 3.38867 22.4451V21.8451C3.30337 21.8451 3.21842 21.8453 3.13414 21.8456L3.13612 22.4456ZM3.11377 22.4457L3.1361 22.4456L3.13415 21.8456L3.11182 21.8457L3.11377 22.4457ZM2.81279 21.3426V22.1457H3.41279V21.3426H2.81279ZM2.81279 18.0951V21.3426H3.41279V18.0951H2.81279ZM2.81279 14.1501V18.0951H3.41279V14.1501H2.81279ZM2.81279 10.7351V14.1501H3.41279V10.7351H2.81279ZM2.81497 10.1783C2.81388 10.3631 2.81279 10.549 2.81279 10.7351H3.41279C3.41279 10.5511 3.41387 10.367 3.41496 10.1818L2.81497 10.1783ZM2.81503 10.1683L2.81497 10.1783L3.41496 10.1818L3.41502 10.1718L2.81503 10.1683ZM4.09668 9.87006H3.11502V10.4701H4.09668V9.87006ZM6.34521 9.87006H4.09668V10.4701H6.34521V9.87006ZM9.10156 9.87006H6.34521V10.4701H9.10156V9.87006ZM12.1216 9.87006H9.10156V10.4701H12.1216V9.87006ZM15.1562 9.87006H12.1216V10.4701H15.1562V9.87006ZM17.9858 9.87006H15.1562V10.4701H17.9858V9.87006ZM20.3882 9.87006H17.9858V10.4701H20.3882V9.87006ZM21.875 9.87006H20.3882V10.4701H21.875V9.87006ZM6.87765 16.8973L7.9299 17.9748L8.35916 17.5556L7.30692 16.4781L6.87765 16.8973ZM6.47038 15.9073C6.48775 16.2631 6.6055 16.6186 6.87765 16.8973L7.30692 16.4781C7.15915 16.3267 7.08159 16.1222 7.06966 15.878L6.47038 15.9073ZM6.86897 14.8973C6.64317 15.149 6.45388 15.502 6.47027 15.9049L7.06977 15.8805C7.06175 15.6833 7.15566 15.4763 7.3156 15.298L6.86897 14.8973ZM7.86865 14.4677C7.52825 14.4677 7.11955 14.6171 6.86865 14.8977L7.31592 15.2976C7.43611 15.1632 7.67194 15.0677 7.86865 15.0677V14.4677ZM8.85965 14.8881C8.60387 14.6261 8.23144 14.4677 7.86865 14.4677V15.0677C8.06739 15.0677 8.28578 15.1592 8.43039 15.3073L8.85965 14.8881ZM9.2454 15.2831L8.85965 14.8881L8.43039 15.3073L8.81613 15.7023L9.2454 15.2831ZM10.9129 16.9906L9.2454 15.2831L8.81613 15.7023L10.4836 17.4098L10.9129 16.9906ZM11.1888 17.2731L10.9129 16.9906L10.4836 17.4098L10.7595 17.6923L11.1888 17.2731ZM12.2805 15.7156L10.7595 17.2731L11.1888 17.6923L12.7098 16.1348L12.2805 15.7156ZM14.0505 13.9031L12.2805 15.7156L12.7098 16.1348L14.4798 14.3223L14.0505 13.9031ZM15.5202 12.3981L14.0505 13.9031L14.4798 14.3223L15.9495 12.8173L15.5202 12.3981ZM16.133 11.7706L15.5202 12.3981L15.9495 12.8173L16.5623 12.1898L16.133 11.7706ZM17.1111 11.3504C16.7578 11.3656 16.405 11.492 16.133 11.7706L16.5623 12.1898C16.7102 12.0383 16.9092 11.9597 17.1369 11.9499L17.1111 11.3504ZM18.1059 11.7616C17.8606 11.5309 17.5123 11.3333 17.1112 11.3504L17.1368 11.9499C17.3217 11.942 17.5202 12.0344 17.6948 12.1987L18.1059 11.7616ZM18.5227 12.7752C18.5227 12.4329 18.3792 12.0179 18.1056 11.7613L17.6952 12.199C17.8268 12.3224 17.9227 12.5674 17.9227 12.7752H18.5227ZM18.115 13.7798C18.3706 13.5181 18.5227 13.1401 18.5227 12.7752H17.9227C17.9227 12.9852 17.8306 13.2122 17.6858 13.3606L18.115 13.7798ZM18.1053 13.7898L18.115 13.7798L17.6858 13.3606L17.676 13.3706L18.1053 13.7898ZM17.6047 14.304C17.7717 14.1347 17.9415 13.9625 18.1083 13.7866L17.673 13.3737C17.5108 13.5447 17.3452 13.7127 17.1774 13.8827L17.6047 14.304ZM17.3557 14.5573C17.4381 14.473 17.521 14.3889 17.6047 14.304L17.1774 13.8827C17.094 13.9674 17.01 14.0525 16.9265 14.1381L17.3557 14.5573ZM15.8177 16.1323L17.3557 14.5573L16.9265 14.1381L15.3884 15.7131L15.8177 16.1323ZM14.0476 17.9448L15.8177 16.1323L15.3884 15.7131L13.6184 17.5256L14.0476 17.9448ZM12.5779 19.4498L14.0476 17.9448L13.6184 17.5256L12.1487 19.0306L12.5779 19.4498ZM11.9651 20.0773L12.5779 19.4498L12.1487 19.0306L11.5359 19.6581L11.9651 20.0773ZM9.98312 20.0773C10.5208 20.6278 11.4275 20.6278 11.9651 20.0773L11.5359 19.6581C11.2336 19.9675 10.7146 19.9675 10.4124 19.6581L9.98312 20.0773ZM9.59738 19.6823L9.98312 20.0773L10.4124 19.6581L10.0266 19.2631L9.59738 19.6823ZM7.9299 17.9748L9.59738 19.6823L10.0266 19.2631L8.35916 17.5556L7.9299 17.9748Z" fill="#fff"/></svg>