<svg width="28" height="16" viewBox="0 0 28 16" fill="none" xmlns="http://www.w3.org/2000/svg"><path d="M18.2677 0.112C17.151 0.112 16.1735 0.61305 15.5497 1.438C15.2049 1.23432 14.7815 1.048 14.1561 1.048C13.4286 1.048 12.8492 1.2433 12.4166 1.54525C12.1784 1.71147 12.0485 1.89559 11.8829 2.0815C11.3716 1.6818 10.7851 1.39682 10.0742 1.36C10.0709 1.35997 10.0676 1.35997 10.0643 1.36C9.48178 1.33822 8.78678 1.38555 8.14686 1.75C7.44189 2.15151 7.05638 2.77225 6.81256 3.4465C6.10185 3.35028 5.39732 3.53544 4.76665 3.7975C4.29077 3.46313 3.75422 3.19398 3.1655 3.10525C2.44944 2.99733 1.64093 3.1467 1.06029 3.7195C0.666438 4.10802 0.322266 4.63436 0.249828 5.26975C0.202726 5.68291 0.309724 6.13857 0.566105 6.547C0.546664 6.65155 0.554617 6.75928 0.589212 6.85995C0.623806 6.96062 0.683894 7.05089 0.763778 7.12223L6.88175 12.553V15.088C6.88177 15.2535 6.94842 15.4122 7.06704 15.5292C7.18566 15.6462 7.34654 15.712 7.5143 15.712H20.1654C20.3331 15.712 20.494 15.6462 20.6126 15.5292C20.7312 15.4122 20.7979 15.2535 20.7979 15.088V12.553L26.9159 7.12223C27.009 7.03728 27.0741 6.92667 27.1027 6.80476C27.1313 6.68286 27.1221 6.55529 27.0763 6.43861C27.0305 6.32193 26.9501 6.22153 26.8458 6.15045C26.7414 6.07937 26.6177 6.04089 26.4909 6.04H24.9095V5.728C24.9095 3.87774 23.4006 2.3756 21.5392 2.3155C21.0255 1.01228 19.7417 0.112 18.2677 0.112ZM18.2677 1.36C19.3446 1.36 20.2811 2.08617 20.4915 3.04675C20.5212 3.18779 20.5994 3.31435 20.7129 3.40499C20.8264 3.49562 20.9682 3.54474 21.1142 3.544H21.4305C22.6607 3.544 23.6444 4.51442 23.6444 5.728V6.04H1.75214C1.52045 5.80894 1.48095 5.61763 1.50505 5.40625C1.5339 5.15319 1.71391 4.83946 1.94982 4.60675C2.20619 4.35384 2.5346 4.2782 2.96783 4.3435C3.40106 4.40879 3.89443 4.64378 4.2527 4.948C4.34751 5.02992 4.46495 5.08202 4.58998 5.09766C4.71501 5.11329 4.84192 5.09174 4.95444 5.03575C5.57167 4.72558 6.53098 4.57652 6.9707 4.74325C7.05878 4.77629 7.15323 4.7895 7.24715 4.78193C7.34107 4.77435 7.43208 4.74617 7.51354 4.69945C7.59501 4.65273 7.66486 4.58864 7.718 4.51188C7.77114 4.43511 7.80623 4.3476 7.8207 4.25575C7.92813 3.57303 8.15017 3.19062 8.77941 2.83225C9.10046 2.6494 9.56537 2.59235 10.0149 2.608C10.0189 2.60821 10.0208 2.60778 10.0247 2.608C10.7177 2.64566 11.0442 2.81766 11.448 3.31C11.5073 3.38315 11.5824 3.44221 11.668 3.4828C11.7535 3.52338 11.8472 3.54446 11.9422 3.54446C12.0371 3.54446 12.1308 3.52338 12.2164 3.4828C12.3019 3.44221 12.3771 3.38315 12.4364 3.31C12.7035 2.98253 12.9058 2.7214 13.1381 2.55925C13.3704 2.3971 13.6372 2.296 14.1561 2.296C14.7604 2.296 14.883 2.50081 15.4014 2.8225C15.4789 2.87066 15.566 2.90167 15.6568 2.91339C15.7475 2.92511 15.8398 2.91727 15.9272 2.89039C16.0146 2.8635 16.095 2.81823 16.1629 2.7577C16.2309 2.69716 16.2847 2.6228 16.3206 2.53975C16.6669 1.7664 17.3154 1.36 18.2677 1.36H18.2677ZM2.83934 7.288H24.8403L19.9183 11.656H7.76139L2.83934 7.288ZM8.14686 12.904H19.5328V14.464H8.14686V12.904Z" fill="#5F73F1"/></svg>