<svg width="17" height="26" viewBox="0 0 17 26" fill="none" xmlns="http://www.w3.org/2000/svg"><path d="M8.8723 17.8706C11.6103 17.8706 13.8506 15.6064 13.8506 12.8262V6.04432C13.8506 3.26415 11.6103 1 8.8723 1C6.13426 1 3.89404 3.26415 3.89404 6.04432V12.8262C3.89404 15.6064 6.13426 17.8706 8.8723 17.8706ZM5.13861 6.04432C5.13861 3.95919 6.81877 2.26371 8.8723 2.26371C10.9258 2.26371 12.606 3.95919 12.606 6.04432V12.8262C12.606 14.9114 10.9258 16.6068 8.8723 16.6068C6.81877 16.6068 5.13861 14.9114 5.13861 12.8262V6.04432Z" fill="#5F73F1" stroke="#5F73F1" stroke-width=".3"/><path d="M1.62228 13.1C1.28003 13.1 1 13.3844 1 13.7319C1 17.9285 4.19957 21.3773 8.24959 21.7038V23.7363H6.33607C5.99382 23.7363 5.71379 24.0206 5.71379 24.3681C5.71379 24.7157 5.99382 25 6.33607 25H11.4129C11.7551 25 12.0351 24.7157 12.0351 24.3681C12.0351 24.0206 11.7551 23.7363 11.4129 23.7363H9.49415V21.7038C13.5442 21.3826 16.7437 17.9285 16.7437 13.7319C16.7437 13.3844 16.4637 13.1 16.1215 13.1C15.7792 13.1 15.4992 13.3844 15.4992 13.7319C15.4992 17.444 12.5278 20.4612 8.87187 20.4612C5.21596 20.4612 2.24456 17.444 2.24456 13.7319C2.24456 13.3844 1.96454 13.1 1.62228 13.1Z" fill="#5F73F1" stroke="#5F73F1" stroke-width=".3"/></svg>