<svg width="28" height="26" viewBox="0 0 28 26" fill="none" xmlns="http://www.w3.org/2000/svg"><path fill-rule="evenodd" clip-rule="evenodd" d="M14.2303 5.33534C15.3982 5.03377 16.2632 3.97147 16.2632 2.71053C16.2632 1.21567 15.0475 0 13.5526 0C12.0578 0 10.8421 1.21567 10.8421 2.71053C10.8421 3.97147 11.7071 5.03377 12.875 5.33534V8.13158H6.09868C4.22978 8.13158 2.71053 9.65083 2.71053 11.5197V16.2632H1.35526V14.2303C1.35526 13.8562 1.05168 13.5526 0.677632 13.5526C0.303579 13.5526 0 13.8562 0 14.2303V16.9408V19.6513C0 20.0254 0.303579 20.3289 0.677632 20.3289C1.05168 20.3289 1.35526 20.0254 1.35526 19.6513V17.6184H2.71053V22.3618C2.71053 24.2308 4.22978 25.75 6.09868 25.75H21.0066C22.8755 25.75 24.3947 24.2308 24.3947 22.3618V17.6184H25.75V19.6513C25.75 20.0254 26.0536 20.3289 26.4276 20.3289C26.8017 20.3289 27.1053 20.0254 27.1053 19.6513V16.9431C27.1053 16.9423 27.1053 16.9416 27.1053 16.9408C27.1053 16.94 27.1053 16.9393 27.1053 16.9385V14.2303C27.1053 13.8562 26.8017 13.5526 26.4276 13.5526C26.0536 13.5526 25.75 13.8562 25.75 14.2303V16.2632H24.3947V11.5197C24.3947 9.65083 22.8755 8.13158 21.0066 8.13158H14.2303V5.33534ZM23.0395 16.9385V11.5197C23.0395 10.3989 22.1274 9.48684 21.0066 9.48684H6.09868C4.97788 9.48684 4.06579 10.3989 4.06579 11.5197L4.06579 16.9408L4.06579 22.3618C4.06579 23.4826 4.97788 24.3947 6.09868 24.3947H21.0066C22.1274 24.3947 23.0395 23.4826 23.0395 22.3618V16.9431L23.0395 16.9408L23.0395 16.9385ZM13.5526 4.06579C14.3007 4.06579 14.9079 3.45863 14.9079 2.71053C14.9079 1.96242 14.3007 1.35526 13.5526 1.35526C12.8045 1.35526 12.1974 1.96242 12.1974 2.71053C12.1974 3.45841 12.8042 4.06543 13.552 4.06579H13.5526ZM6.77632 14.9079C6.77632 16.4028 7.99199 17.6184 9.48684 17.6184C10.9817 17.6184 12.1974 16.4028 12.1974 14.9079C12.1974 13.413 10.9817 12.1974 9.48684 12.1974C7.99199 12.1974 6.77632 13.413 6.77632 14.9079ZM8.13158 14.9079C8.13158 14.1598 8.73874 13.5526 9.48684 13.5526C10.2349 13.5526 10.8421 14.1598 10.8421 14.9079C10.8421 15.656 10.2349 16.2632 9.48684 16.2632C8.73874 16.2632 8.13158 15.656 8.13158 14.9079ZM14.9079 14.9079C14.9079 16.4028 16.1236 17.6184 17.6184 17.6184C19.1133 17.6184 20.3289 16.4028 20.3289 14.9079C20.3289 13.413 19.1133 12.1974 17.6184 12.1974C16.1236 12.1974 14.9079 13.413 14.9079 14.9079ZM16.2632 14.9079C16.2632 14.1598 16.8703 13.5526 17.6184 13.5526C18.3665 13.5526 18.9737 14.1598 18.9737 14.9079C18.9737 15.656 18.3665 16.2632 17.6184 16.2632C16.8703 16.2632 16.2632 15.656 16.2632 14.9079ZM16.9408 21.6842H10.1645C9.79042 21.6842 9.48684 21.3806 9.48684 21.0066C9.48684 20.6325 9.79042 20.3289 10.1645 20.3289H16.9408C17.3148 20.3289 17.6184 20.6325 17.6184 21.0066C17.6184 21.3806 17.3148 21.6842 16.9408 21.6842Z" fill="#5F73F1"/></svg>