<svg width="18" height="27" viewBox="0 0 18 27" fill="none" xmlns="http://www.w3.org/2000/svg"><path d="M4.62 0C1.71 0 0 3.2856 0 6.4528C0 9.2352 1.65 11.4552 3.87 11.8696V14.5336H2.76C2.34 14.5336 2.01 14.8592 2.01 15.2736V23.8872C2.01 25.308 3.18 26.4624 4.62 26.4624C6.06 26.4624 7.23 25.308 7.23 23.8872V15.2736C7.23 14.8592 6.9 14.5336 6.48 14.5336H5.37V11.8696C7.59 11.4552 9.24 9.2056 9.24 6.4528C9.24 3.2856 7.5 0 4.62 0ZM5.73 23.8872C5.73 24.4792 5.22 24.9824 4.62 24.9824C4.02 24.9824 3.51 24.4792 3.51 23.8872V16.0136H5.73V23.8872ZM4.62 10.4488C2.85 10.4488 1.47 8.6728 1.47 6.4232C1.47 3.3448 3.09 1.4504 4.62 1.4504C6.12 1.4504 7.77 3.3448 7.77 6.4232C7.74 8.7024 6.39 10.4488 4.62 10.4488Z" fill="#5F73F1"/><path d="M12.1499 0C11.7299 0 11.3999 0.3256 11.3999 0.74V11.1888C11.3999 11.6032 11.7299 11.9288 12.1499 11.9288H13.9199V14.5336H12.8099C12.3899 14.5336 12.0599 14.8592 12.0599 15.2736V23.8872C12.0599 25.308 13.2299 26.4624 14.6699 26.4624C16.1099 26.4624 17.2799 25.308 17.2799 23.8872V15.2736C17.2799 14.8592 16.9499 14.5336 16.5299 14.5336H15.4199V11.9288H17.1899C17.6099 11.9288 17.9399 11.6032 17.9399 11.1888V5.7128C17.9399 2.5456 15.3599 0 12.1499 0ZM15.7799 23.8872C15.7799 24.4792 15.2699 24.9824 14.6699 24.9824C14.0699 24.9824 13.5599 24.4792 13.5599 23.8872V16.0136H15.7799V23.8872ZM16.4399 10.4488H12.8999V1.5392C14.9099 1.8944 16.4399 3.6112 16.4399 5.7128V10.4488Z" fill="#5F73F1"/></svg>