<svg width="20" height="25" viewBox="0 0 20 25" fill="none" xmlns="http://www.w3.org/2000/svg"><path d="M13.3626 24.7999C12.5515 24.801 11.7478 24.6406 10.9954 24.3277C10.3568 24.0616 9.64324 24.0616 9.00467 24.3277C8.2523 24.6406 7.44861 24.801 6.63751 24.7999C2.94404 24.7999 0.243408 16.4711 0.243408 12.9303C0.244746 11.1792 0.918839 9.50025 2.11768 8.26204C3.31651 7.02383 4.9421 6.3276 6.63751 6.32622C7.44844 6.32437 8.25213 6.48383 9.00467 6.79589C9.64324 7.062 10.3568 7.062 10.9954 6.79589C11.7478 6.48294 12.5515 6.32259 13.3626 6.32361C15.0584 6.325 16.6844 7.02158 17.8833 8.26036C19.0822 9.49913 19.756 11.1788 19.7567 12.9303C19.7567 16.4711 17.056 24.7999 13.3626 24.7999ZM10 22.8247C10.5021 22.8245 10.9995 22.9237 11.4653 23.117C12.0685 23.3673 12.7125 23.4957 13.3626 23.4953C15.9192 23.4953 18.4935 16.2519 18.4935 12.9303C18.4922 11.5252 17.9512 10.1781 16.9892 9.18456C16.0273 8.19102 14.723 7.63225 13.3626 7.63086C12.7125 7.63046 12.0685 7.75889 11.4653 8.00921C10.5252 8.4007 9.47485 8.4007 8.53478 8.00921C7.93161 7.75889 7.28755 7.63046 6.63751 7.63086C5.27711 7.63225 3.97281 8.19102 3.01086 9.18456C2.04891 10.1781 1.5079 11.5252 1.50657 12.9303C1.50657 16.2519 4.08088 23.4953 6.63751 23.4953C7.28755 23.4957 7.93161 23.3673 8.53478 23.117C9.00062 22.9237 9.49802 22.8245 10 22.8247Z" fill="#5F73F1" stroke="#5F73F1" stroke-width=".3"/><path d="M9.60345 7.6023C9.60345 7.50837 9.71209 5.2696 8.44135 3.91799C7.74409 3.17696 6.73608 2.81688 5.42998 2.8508C4.58787 2.87341 4.55503 1.56877 5.39714 1.54616C7.06451 1.49919 8.39335 1.99234 9.3483 3.00735C10.9727 4.7347 10.8818 7.37529 10.8641 7.67275L9.60345 7.6023Z" fill="#5F73F1" stroke="#5F73F1" stroke-width=".3"/><path d="M11.3062 5.57219C10.6897 5.57001 10.0775 5.46697 9.49227 5.2669C9.34383 5.21694 9.21857 5.11195 9.14066 4.97222C9.06275 4.83248 9.03771 4.66789 9.07038 4.51021C9.2141 3.72524 9.5205 2.98166 9.96858 2.33048C10.4167 1.67929 10.9958 1.13591 11.6663 0.737609C12.3368 0.339304 13.0828 0.0954976 13.853 0.0229127C14.6233 -0.0496722 15.3997 0.0506817 16.1289 0.317091C16.2771 0.366522 16.4024 0.471005 16.4803 0.610311C16.5582 0.749617 16.5834 0.913836 16.5508 1.07117C16.4021 1.85449 16.0936 2.59611 15.6458 3.24668C15.198 3.89725 14.6212 4.44184 13.9537 4.8442C13.1485 5.3229 12.2353 5.57399 11.3062 5.57219ZM10.4674 4.18666C11.4435 4.39196 12.4585 4.22511 13.3247 3.71699C14.1859 3.19888 14.8358 2.37557 15.1537 1.39994C14.1776 1.18882 13.1603 1.3562 12.296 1.87017C11.4317 2.38414 10.7808 3.20872 10.4674 4.18666Z" fill="#5F73F1" stroke="#5F73F1" stroke-width=".3"/></svg>