<svg width="24" height="24" viewBox="0 0 24 24" fill="none" xmlns="http://www.w3.org/2000/svg"><path d="M15.5171 21.2254H19.8C20.7787 21.2254 21.5727 20.4574 21.5727 19.48V10.4596H19.1334L19.0484 10.5433L16.212 13.5175C16.0134 13.7269 15.7724 13.9084 15.5171 14.0482V21.2254ZM15.5171 4.63664C15.7864 4.55293 16.0844 4.52502 16.3821 4.52502C17.3748 4.52502 18.2967 4.91593 18.9491 5.57232C19.6157 6.21462 20.0268 7.1224 20.0268 8.12771C20.0268 8.21142 20.0268 8.28131 20.0125 8.36502H21.5725V4.12003C21.5725 3.64515 21.3881 3.21251 21.0618 2.89123C20.7355 2.56995 20.2964 2.37462 19.8 2.37462H15.5171V4.63664ZM13.6594 7.10832C13.39 6.80112 12.9787 6.61961 12.5247 6.61961C11.6737 6.61961 10.9931 7.276 10.9931 8.12771C10.9931 8.36502 11.0497 8.60259 11.1634 8.79792C11.1634 8.812 11.1777 8.812 11.1777 8.812L11.192 8.85398L11.3053 9.02166L11.3763 9.10537L11.4046 9.13328L14.2269 12.0937L14.4539 12.2053L14.6666 12.0796L17.4889 9.13328L17.5172 9.10537L17.5882 9.02166L17.6166 8.99376L17.6875 8.86806L17.7302 8.79817C17.8295 8.60259 17.9005 8.36528 17.9005 8.12796C17.9005 7.27625 17.2055 6.61987 16.3831 6.61987C15.9151 6.61987 15.5038 6.80137 15.2485 7.10857C15.2342 7.12265 15.2201 7.13648 15.2058 7.13648C15.2058 7.15056 15.2058 7.15056 15.1915 7.16438C15.1772 7.17846 15.1489 7.20637 15.1206 7.22019C15.1063 7.23427 15.0922 7.24809 15.0639 7.26217C15.0496 7.27625 15.0355 7.29008 15.0072 7.30416C14.9929 7.30416 14.9646 7.31824 14.9505 7.33206C14.9222 7.34614 14.8938 7.35996 14.8655 7.37404C14.8512 7.37404 14.8372 7.38812 14.8088 7.38812C14.7662 7.4022 14.7095 7.41603 14.6671 7.43011C14.5961 7.44419 14.5254 7.45801 14.4544 7.45801C14.3835 7.45801 14.3127 7.44393 14.2418 7.43011C14.1851 7.41603 14.1284 7.4022 14.0715 7.38812C14.0572 7.38812 14.0572 7.37404 14.0431 7.37404C14.0005 7.35996 13.9581 7.34614 13.9155 7.30416C13.8871 7.29008 13.8728 7.29008 13.8445 7.26217C13.8302 7.24809 13.8018 7.23427 13.7878 7.22019C13.7735 7.22019 13.7595 7.20611 13.7452 7.19228C13.716 7.16412 13.6877 7.13622 13.6594 7.10832ZM4.20005 2.37462C3.22141 2.37462 2.42737 3.17053 2.42737 4.12003V8.36502H8.88005C8.86575 8.29513 8.86575 8.21142 8.86575 8.12771C8.86575 7.1224 9.27707 6.21462 9.92941 5.57232C10.596 4.91593 11.5177 4.52502 12.5247 4.52502C12.8224 4.52502 13.1061 4.55293 13.3897 4.63664V2.37462H4.20005ZM4.20005 21.2254H13.3897V14.0482C13.1204 13.9366 12.8791 13.7551 12.6664 13.5316L9.84439 10.5433C9.81605 10.5154 9.78771 10.4875 9.75937 10.4596H2.42737V19.48C2.44141 20.4574 3.22141 21.2254 4.20005 21.2254ZM14.3543 23.32H4.20005C3.13639 23.32 2.14371 22.9012 1.44873 22.2028C0.739709 21.5047 0.300049 20.5411 0.300049 19.48V9.39824V9.38416V4.12003C0.314349 2.01161 2.04439 0.280029 4.20005 0.280029H14.8647H15.3611H19.8C21.9557 0.294109 23.7 2.01161 23.7 4.12003V9.31452V9.52393V19.48C23.7 21.6163 21.9557 23.32 19.8 23.32H15.3611H14.8647H14.567H14.3543Z" fill="#5F73F1" stroke="#fff" stroke-width=".5"/></svg>