<svg width="32" height="27" viewBox="0 0 32 27" fill="none" xmlns="http://www.w3.org/2000/svg"><path d="M30.656 11.4319L25.056 7.26632V3.10072C25.056 2.37912 24.48 1.78872 23.776 1.78872C23.072 1.78872 22.496 2.37912 22.496 3.10072V5.36392L16.768 1.13272C16.32 0.804719 15.712 0.804719 15.264 1.13272L1.34401 11.4319C0.768013 11.8583 0.640013 12.6783 1.05601 13.2687C1.47201 13.8591 2.27201 13.9903 2.84801 13.5639L4.54401 12.3175V24.5847C4.54401 25.3063 5.12001 25.8967 5.82401 25.8967H26.144C26.848 25.8967 27.424 25.3063 27.424 24.5847V12.3175L29.12 13.5639C29.344 13.7279 29.6 13.8263 29.888 13.8263C30.304 13.8263 30.688 13.6295 30.944 13.2687C31.36 12.6783 31.232 11.8583 30.656 11.4319ZM24.864 23.2727H7.13601V10.4151L16 3.85512L24.864 10.4151V23.2727Z" fill="#5F73F1" stroke="#fff"/><path d="M14.72 11.3008V13.6952H12.384C11.68 13.6952 11.104 14.2856 11.104 15.0072C11.104 15.7288 11.68 16.3192 12.384 16.3192H14.72V18.7136C14.72 19.4352 15.296 20.0256 16 20.0256C16.704 20.0256 17.28 19.4352 17.28 18.7136V16.352H19.616C20.32 16.352 20.896 15.7616 20.896 15.04C20.896 14.3184 20.32 13.728 19.616 13.728H17.28V11.3336C17.28 10.612 16.704 10.0216 16 10.0216C15.296 9.98877 14.72 10.5792 14.72 11.3008Z" fill="#5F73F1" stroke="#fff"/></svg>