<svg width="20" height="21" viewBox="0 0 20 21" fill="none" xmlns="http://www.w3.org/2000/svg"><path d="M16.6165 0.0321717C16.3076 0.0321717 15.9901 0.0857677 15.6726 0.191404C15.6578 0.196212 15.6425 0.201939 15.6281 0.207879C15.6007 0.218838 12.8598 1.31112 9.27351 1.31112C7.16899 1.31112 5.19068 0.94005 3.39344 0.208091C3.0544 0.07 2.71098 0 2.37272 0C1.02002 0 0 1.12035 0 2.60598V11.1204C0 16.4757 4.3552 21 9.51031 21C14.6655 21 19.0208 16.4757 19.0208 11.1204V2.60598C19.0208 1.1147 18.0096 0.0321717 16.6165 0.0321717ZM17.5464 11.1204C17.5464 15.6765 13.8664 19.5256 9.51031 19.5256C5.1544 19.5256 1.47438 15.6765 1.47438 11.1204V2.60598C1.47438 1.9291 1.83534 1.47431 2.37272 1.47431C2.51943 1.47431 2.67577 1.50769 2.8374 1.57352C4.81204 2.37767 6.97751 2.78543 9.27351 2.78543C13.0134 2.78543 15.8381 1.7104 16.1572 1.58398C16.3174 1.53265 16.4718 1.50648 16.6165 1.50648C17.19 1.50648 17.5464 1.92783 17.5464 2.60598V11.1204Z" fill="#5F73F1"/><path d="M13.4974 14.1322C13.254 13.9156 12.8813 13.9375 12.6649 14.1809C11.9982 14.9304 10.7896 15.3961 9.51057 15.3961C8.23155 15.3961 7.02289 14.9304 6.35626 14.1809C6.1399 13.9375 5.76713 13.9158 5.52375 14.1322C5.28038 14.3486 5.25853 14.7214 5.47504 14.9648C6.3721 15.9734 7.88063 16.5756 9.51064 16.5756C11.1407 16.5756 12.6493 15.9733 13.5463 14.9648C13.7626 14.7214 13.7408 14.3486 13.4974 14.1322Z" fill="#5F73F1"/><path d="M15.9443 8.57554C15.0446 8.1257 14.2805 7.97198 13.6561 7.97198C12.3506 7.97198 11.6582 8.64413 11.6163 8.68606C11.3821 8.91246 11.3778 9.27547 11.6045 9.51121C11.8311 9.74688 12.2058 9.75402 12.4399 9.5279C12.4795 9.49106 13.4333 8.63889 15.4168 9.63049C15.7082 9.77608 16.0624 9.65814 16.208 9.36682C16.3537 9.07551 16.2356 8.72127 15.9443 8.57554Z" fill="#5F73F1"/><path d="M6.66931 9.45721C6.90349 9.68326 7.27817 9.67619 7.50478 9.44053C7.73147 9.20479 7.72716 8.84178 7.4929 8.61538C7.45105 8.57345 6.75861 7.90131 5.45315 7.90131C4.82873 7.90131 4.06467 8.05502 3.16492 8.50486C2.87368 8.65059 2.7556 9.00476 2.90126 9.29607C3.04691 9.58739 3.40101 9.70532 3.69247 9.55974C5.67594 8.56821 6.62985 9.4203 6.66931 9.45721Z" fill="#5F73F1"/></svg>