<svg width="18" height="26" viewBox="0 0 18 26" fill="none" xmlns="http://www.w3.org/2000/svg"><path d="M8.99932 1.09985C4.21927 1.09985 0.33252 5.0464 0.33252 9.89999C0.332519 13.4292 2.43737 17.1913 4.49698 20.1191C6.5566 23.0469 8.61746 25.1393 8.61746 25.1393C8.71904 25.2424 8.85674 25.3003 9.00032 25.3003C9.1439 25.3003 9.2816 25.2424 9.38318 25.1393C9.38318 25.1393 11.444 23.0469 13.5037 20.1191C15.5633 17.1913 17.6661 13.4292 17.6661 9.89999C17.6661 5.0464 13.7794 1.09985 8.99932 1.09985ZM8.99932 2.20012C13.1939 2.20012 16.5825 5.64088 16.5825 9.89999C16.5825 12.9708 14.6249 16.6325 12.622 19.4796C10.8104 22.0549 9.32871 23.5536 8.99932 23.8949C8.66933 23.553 7.18982 22.0543 5.37866 19.4796C3.37577 16.6325 1.41612 12.9708 1.41612 9.89999C1.41612 5.64088 4.80474 2.20012 8.99932 2.20012Z" fill="#5F73F1" stroke="#5F73F1" stroke-width=".3"/><path d="M8.99934 6.04907C6.91168 6.04907 5.20874 7.78023 5.20874 9.90002C5.20874 12.0198 6.91168 13.751 8.99934 13.751C11.087 13.751 12.7919 12.0198 12.7919 9.90002C12.7919 7.78023 11.087 6.04907 8.99934 6.04907ZM8.99934 7.14934C10.5015 7.14934 11.7083 8.37472 11.7083 9.90002C11.7083 11.4253 10.5015 12.6507 8.99934 12.6507C7.49715 12.6507 6.29234 11.4253 6.29234 9.90002C6.29234 8.37472 7.49715 7.14934 8.99934 7.14934Z" fill="#5F73F1" stroke="#5F73F1" stroke-width=".3"/></svg>