<svg width="28" height="28" viewBox="0 0 28 28" fill="none" xmlns="http://www.w3.org/2000/svg"><path d="M27.1894 13.1062H23.5566C23.2109 8.44651 19.4316 4.71183 14.709 4.37651V0.792139C14.709 0.410576 14.3926 0.0983887 14.0059 0.0983887C13.6191 0.0983887 13.3027 0.410576 13.3027 0.792139V4.37651C8.58008 4.71761 4.79492 8.44651 4.45508 13.1062H0.822266C0.435547 13.1062 0.119141 13.4184 0.119141 13.8C0.119141 14.1815 0.435547 14.4937 0.822266 14.4937H4.45508C4.80078 19.1534 8.58008 22.8881 13.3027 23.2234V26.8078C13.3027 27.1893 13.6191 27.5015 14.0059 27.5015C14.3926 27.5015 14.709 27.1893 14.709 26.8078V23.2234C19.4316 22.8823 23.2168 19.1534 23.5566 14.4937H27.1894C27.5762 14.4937 27.8926 14.1815 27.8926 13.8C27.8926 13.4184 27.5762 13.1062 27.1894 13.1062ZM14.7031 21.8359V19.6621C14.7031 19.2806 14.3867 18.9684 14 18.9684C13.6133 18.9684 13.2969 19.2806 13.2969 19.6621V21.8359C9.34765 21.5006 6.19531 18.3903 5.85547 14.4937H8.05859C8.44531 14.4937 8.76172 14.1815 8.76172 13.8C8.76172 13.4184 8.44531 13.1062 8.05859 13.1062H5.85547C6.19531 9.20964 9.34765 6.09933 13.2969 5.76401V7.93776C13.2969 8.31933 13.6133 8.63151 14 8.63151C14.3867 8.63151 14.7031 8.31933 14.7031 7.93776V5.76401C18.6523 6.09933 21.8047 9.20964 22.1445 13.1062H19.9414C19.5547 13.1062 19.2383 13.4184 19.2383 13.8C19.2383 14.1815 19.5547 14.4937 19.9414 14.4937H22.1445C21.8047 18.3903 18.6523 21.5006 14.7031 21.8359Z" fill="#5F73F1"/><path d="M14 10.5913C12.207 10.5913 10.748 12.0308 10.748 13.7999C10.748 15.569 12.207 17.0085 14 17.0085C15.793 17.0085 17.252 15.569 17.252 13.7999C17.252 12.0308 15.793 10.5913 14 10.5913ZM14 15.621C12.9805 15.621 12.1543 14.8058 12.1543 13.7999C12.1543 12.794 12.9805 11.9788 14 11.9788C15.0195 11.9788 15.8457 12.794 15.8457 13.7999C15.8457 14.8058 15.0195 15.621 14 15.621Z" fill="#5F73F1"/></svg>