<svg width="21" height="27" viewBox="0 0 21 27" fill="none" xmlns="http://www.w3.org/2000/svg"><path d="M18.9708 20.9293L18.901 20.9096C17.7244 20.5977 16.8604 20.3005 16.3408 20.1038C14.4997 19.4117 14.0194 18.9123 13.8974 18.6752C13.8933 18.6671 13.8902 18.6586 13.886 18.6494L13.8835 18.2854C14.9558 17.2446 15.8915 15.8322 16.3408 14.299C17.7134 12.4985 18.4202 10.5617 18.1575 8.8144C18.0309 7.97677 17.729 7.2549 17.3763 6.65914C17.6674 6.4003 17.8442 6.04168 17.8897 5.60134C17.9787 4.72885 17.5015 3.5492 16.6132 2.44592C15.7064 1.31938 14.555 0.489328 13.4559 0.169073C13.0702 0.0568734 12.6312 0 12.1499 0C10.403 0 8.19563 0.757298 6.38869 1.97577C4.27931 3.3991 2.95109 5.25123 2.64787 7.1922C2.2193 9.93713 2.8423 11.7684 3.44041 12.8209C3.87394 13.5839 4.36068 14.067 4.66079 14.3192C5.11136 15.8458 6.04924 17.2486 7.11711 18.2855L7.11452 18.6495C7.11036 18.6586 7.10698 18.6672 7.10287 18.6753C7.02635 18.8234 6.8113 19.0731 6.21308 19.4083C6.21308 19.4083 5.24989 19.8824 4.659 20.1044C4.14067 20.3005 3.27578 20.5977 2.10966 20.9071L2.02977 20.9294C0.968701 21.2766 0.25415 22.2492 0.25415 23.3472V26.4H20.7456V23.3472C20.7456 22.2492 20.0327 21.2766 18.9708 20.9293ZM16.6019 11.8212C16.4565 9.90861 15.6273 8.35792 14.3922 7.33425C14.9682 7.24726 15.5694 7.17606 16.1966 7.12042C16.2451 7.11614 16.2922 7.11031 16.3382 7.10402C16.6562 7.61434 16.9339 8.24319 17.0445 8.97466C17.1829 9.89722 17.0345 10.8494 16.6019 11.8212ZM4.39048 12.2269C3.68189 10.9401 3.46351 9.25671 3.76025 7.35802C4.32714 3.72792 9.16473 1.09998 12.1499 1.09998C12.5216 1.09998 12.8536 1.1417 13.1343 1.22337C14.0038 1.4769 14.9738 2.18816 15.7292 3.12639C16.4203 3.98475 16.8294 4.91391 16.7698 5.49218C16.7445 5.73989 16.6453 5.97594 16.0952 6.02472C13.3799 6.26613 11.0978 6.79465 9.31286 7.59588C7.82649 8.26243 6.66966 9.12306 5.87453 10.1525C5.14685 11.0935 4.83946 12.0206 4.71928 12.7468C4.60969 12.5954 4.49774 12.422 4.39048 12.2269ZM5.90095 14.4906L5.80112 13.9719C5.80033 13.9679 5.73109 13.5712 5.821 12.9816C5.93886 12.1998 6.26587 11.4617 6.79242 10.7894C7.47876 9.9116 8.4939 9.16946 9.80814 8.58361C10.6843 8.19308 11.6945 7.87184 12.8298 7.62161C13.2687 7.8491 13.6699 8.1428 14.0194 8.4992C14.4811 8.96863 14.8424 9.53045 15.0938 10.1699C15.3636 10.8551 15.5001 11.6139 15.5001 12.4258C15.5001 13.9264 14.8006 15.5885 13.5804 16.9883C12.3997 18.3416 11.1562 18.9588 10.5004 18.9588C9.84437 18.9588 8.60021 18.3416 7.41938 16.9883C6.74311 16.2124 6.22716 15.356 5.90095 14.4906ZM13.536 19.9062C13.1173 20.4319 12.4467 21.2069 11.5688 22.0076C11.1469 22.3928 10.6485 22.8084 10.0865 23.2113C9.15803 22.7245 8.39903 21.9687 7.8257 20.9602C7.6212 20.6023 7.47307 20.2641 7.3658 19.982C7.80266 19.66 7.99445 19.3876 8.10588 19.1742L8.10667 19.1717L8.1082 19.1691C8.11574 19.1555 8.12138 19.1428 8.12734 19.1297C8.95532 19.7161 9.79417 20.0588 10.5004 20.0588C11.2058 20.0588 12.0455 19.7156 12.8732 19.1297C12.8784 19.1408 12.8851 19.154 12.8913 19.1681L12.8923 19.1701L12.8938 19.1716C12.9952 19.3688 13.1669 19.6165 13.536 19.9062ZM1.37897 25.2995V23.3472C1.37897 22.7279 1.77601 22.181 2.36927 21.9788L2.41552 21.9656C3.62583 21.6441 4.5231 21.3348 5.06363 21.1315C5.59356 20.9328 6.02941 20.7428 6.38953 20.5638C6.50064 20.8353 6.6426 21.1406 6.82227 21.4596C7.39228 22.4747 8.15276 23.2971 9.05599 23.8865C7.95427 24.5386 6.67467 25.0836 5.26972 25.2994L1.37897 25.2995ZM19.6206 25.2995H8.77829C8.97188 25.2034 9.16373 25.1018 9.35579 24.9947C9.64013 24.8344 9.92347 24.6615 10.2044 24.477C10.2111 24.479 10.2176 24.4825 10.2243 24.4851L10.2349 24.4568C10.9592 23.979 11.6701 23.4225 12.3583 22.7921C13.3292 21.9034 14.0525 21.0567 14.4894 20.5011C14.8714 20.6983 15.3455 20.9085 15.9355 21.13C16.4731 21.3332 17.3696 21.6425 18.5917 21.9671L18.628 21.9777C19.222 22.1784 19.6206 22.7259 19.6206 23.3471V25.2995Z" fill="#5F73F1" stroke="#5F73F1" stroke-width=".3"/></svg>