<svg width="25" height="24" viewBox="0 0 25 24" fill="none" xmlns="http://www.w3.org/2000/svg"><path d="M21.4101 0.366455H3.5901C2.7308 0.366455 1.90669 0.71034 1.29907 1.32246C0.691454 1.93458 0.350098 2.76479 0.350098 3.63046V13.9665C0.350098 14.8321 0.691454 15.6623 1.29907 16.2745C1.90669 16.8866 2.7308 17.2305 3.5901 17.2305H8.7201V20.6577H5.9661C5.67966 20.6577 5.40496 20.7723 5.20242 20.9763C4.99988 21.1804 4.8861 21.4571 4.8861 21.7457C4.8861 22.0342 4.99988 22.3109 5.20242 22.515C5.40496 22.719 5.67966 22.8337 5.9661 22.8337H18.7641C19.0505 22.8337 19.3252 22.719 19.5278 22.515C19.7303 22.3109 19.8441 22.0342 19.8441 21.7457C19.8441 21.4571 19.7303 21.1804 19.5278 20.9763C19.3252 20.7723 19.0505 20.6577 18.7641 20.6577H16.2801V17.2305H21.4101C22.2694 17.2305 23.0935 16.8866 23.7011 16.2745C24.3087 15.6623 24.6501 14.8321 24.6501 13.9665V3.63046C24.6501 2.76479 24.3087 1.93458 23.7011 1.32246C23.0935 0.71034 22.2694 0.366455 21.4101 0.366455ZM14.1201 20.6577H10.8801V17.2305H14.1201V20.6577ZM22.4901 13.9665C22.4901 14.255 22.3763 14.5317 22.1738 14.7358C21.9712 14.9398 21.6965 15.0545 21.4101 15.0545H3.5901C3.30366 15.0545 3.02896 14.9398 2.82642 14.7358C2.62388 14.5317 2.5101 14.255 2.5101 13.9665V3.63046C2.5101 3.3419 2.62388 3.06516 2.82642 2.86112C3.02896 2.65708 3.30366 2.54246 3.5901 2.54246H21.4101C21.6965 2.54246 21.9712 2.65708 22.1738 2.86112C22.3763 3.06516 22.4901 3.3419 22.4901 3.63046V13.9665Z" fill="#5F73F1" stroke="#fff" stroke-width=".7"/><path d="M16.6041 7.87367L10.7721 4.47367C10.6072 4.37775 10.4201 4.32746 10.2297 4.32788C10.0393 4.32831 9.85239 4.37944 9.68792 4.47609C9.52345 4.57274 9.38727 4.71148 9.29318 4.87824C9.19908 5.045 9.15043 5.23386 9.15214 5.42567V12.1985C9.15043 12.3903 9.19908 12.5791 9.29318 12.7459C9.38727 12.9127 9.52345 13.0514 9.68792 13.1481C9.85239 13.2447 10.0393 13.2958 10.2297 13.2963C10.4201 13.2967 10.6072 13.2464 10.7721 13.1505L16.6041 9.75047C16.7665 9.65448 16.9012 9.51737 16.9948 9.35277C17.0884 9.18816 17.1376 9.00176 17.1376 8.81207C17.1376 8.62238 17.0884 8.43598 16.9948 8.27138C16.9012 8.10677 16.7665 7.96967 16.6041 7.87367ZM11.3121 10.3217V7.30247L13.9041 8.79847L11.3121 10.3217Z" fill="#5F73F1" stroke="#fff" stroke-width=".7"/></svg>