<svg width="36" height="22" viewBox="0 0 36 22" fill="none" xmlns="http://www.w3.org/2000/svg"><path d="M35.5 10L32.42 5.33C32.1459 4.92102 31.7755 4.58577 31.3412 4.35382C30.907 4.12188 30.4223 4.00036 29.93 4H25C24.6589 4.0027 24.3207 4.06358 24 4.18V3C24 2.20435 23.6839 1.44129 23.1213 0.87868C22.5587 0.31607 21.7956 0 21 0L1 0C0.734784 0 0.48043 0.105357 0.292893 0.292893C0.105357 0.48043 0 0.734784 0 1C0 1.26522 0.105357 1.51957 0.292893 1.70711C0.48043 1.89464 0.734784 2 1 2H21C21.2652 2 21.5196 2.10536 21.7071 2.29289C21.8946 2.48043 22 2.73478 22 3V16H20.85C20.6197 15.1526 20.117 14.4046 19.4194 13.8713C18.7218 13.3379 17.8681 13.049 16.99 13.049C16.1119 13.049 15.2582 13.3379 14.5606 13.8713C13.863 14.4046 13.3603 15.1526 13.13 16H13C12.7348 16 12.4804 15.8946 12.2929 15.7071C12.1054 15.5196 12 15.2652 12 15V13C12 12.7348 11.8946 12.4804 11.7071 12.2929C11.5196 12.1054 11.2652 12 11 12C10.7348 12 10.4804 12.1054 10.2929 12.2929C10.1054 12.4804 10 12.7348 10 13V15C10 15.7956 10.3161 16.5587 10.8787 17.1213C11.4413 17.6839 12.2044 18 13 18H13.14C13.3703 18.8474 13.873 19.5954 14.5706 20.1287C15.2682 20.6621 16.1219 20.951 17 20.951C17.8781 20.951 18.7318 20.6621 19.4294 20.1287C20.127 19.5954 20.6297 18.8474 20.86 18H25.14C25.3703 18.8474 25.873 19.5954 26.5706 20.1287C27.2682 20.6621 28.1219 20.951 29 20.951C29.8781 20.951 30.7318 20.6621 31.4294 20.1287C32.127 19.5954 32.6297 18.8474 32.86 18H33C33.7957 18 34.5587 17.6839 35.1213 17.1213C35.6839 16.5587 36 15.7956 36 15V11.61C35.9907 11.0366 35.8171 10.4778 35.5 10ZM17 19C16.4696 19 15.9609 18.7893 15.5858 18.4142C15.2107 18.0391 15 17.5304 15 17C15 16.6044 15.1173 16.2178 15.3371 15.8889C15.5568 15.56 15.8692 15.3036 16.2346 15.1522C16.6001 15.0009 17.0022 14.9613 17.3902 15.0384C17.7781 15.1156 18.1345 15.3061 18.4142 15.5858C18.6939 15.8655 18.8844 16.2219 18.9616 16.6098C19.0387 16.9978 18.9991 17.3999 18.8478 17.7654C18.6964 18.1308 18.44 18.4432 18.1111 18.6629C17.7822 18.8827 17.3956 19 17 19ZM29 19C28.4696 19 27.9609 18.7893 27.5858 18.4142C27.2107 18.0391 27 17.5304 27 17C27 16.6044 27.1173 16.2178 27.3371 15.8889C27.5568 15.56 27.8692 15.3036 28.2346 15.1522C28.6001 15.0009 29.0022 14.9613 29.3902 15.0384C29.7781 15.1156 30.1345 15.3061 30.4142 15.5858C30.6939 15.8655 30.8844 16.2219 30.9616 16.6098C31.0387 16.9978 30.9991 17.3999 30.8478 17.7654C30.6964 18.1308 30.44 18.4432 30.1111 18.6629C29.7822 18.8827 29.3956 19 29 19ZM34 15C34 15.2652 33.8946 15.5196 33.7071 15.7071C33.5196 15.8946 33.2652 16 33 16H32.85C32.6197 15.1526 32.117 14.4046 31.4194 13.8713C30.7218 13.3379 29.8681 13.049 28.99 13.049C28.1119 13.049 27.2582 13.3379 26.5606 13.8713C25.863 14.4046 25.3603 15.1526 25.13 16H24V7C24 6.73478 24.1054 6.48043 24.2929 6.29289C24.4804 6.10536 24.7348 6 25 6H29.93C30.0938 5.99975 30.2552 6.03975 30.3999 6.11647C30.5446 6.19319 30.6683 6.30429 30.76 6.44L33.84 11.06C33.9475 11.2199 34.0065 11.4074 34.01 11.6L34 15Z" fill="#5F73F1" stroke="#fff" stroke-width=".5"/><path d="M16 5C16 4.73478 15.8946 4.48043 15.7071 4.29289C15.5196 4.10536 15.2652 4 15 4H4C3.73478 4 3.48043 4.10536 3.29289 4.29289C3.10536 4.48043 3 4.73478 3 5C3 5.26522 3.10536 5.51957 3.29289 5.70711C3.48043 5.89464 3.73478 6 4 6H15C15.2652 6 15.5196 5.89464 15.7071 5.70711C15.8946 5.51957 16 5.26522 16 5Z" fill="#5F73F1" stroke="#fff" stroke-width=".5"/><path d="M16 9C16 8.73478 15.8946 8.48043 15.7071 8.29289C15.5196 8.10536 15.2652 8 15 8H7C6.73478 8 6.48043 8.10536 6.29289 8.29289C6.10536 8.48043 6 8.73478 6 9C6 9.26522 6.10536 9.51957 6.29289 9.70711C6.48043 9.89464 6.73478 10 7 10H15C15.2652 10 15.5196 9.89464 15.7071 9.70711C15.8946 9.51957 16 9.26522 16 9Z" fill="#5F73F1" stroke="#fff" stroke-width=".5"/></svg>