<svg width="25" height="26" viewBox="0 0 25 26" fill="none" xmlns="http://www.w3.org/2000/svg"><path fill-rule="evenodd" clip-rule="evenodd" d="M21 1H14C12.3431 1 11 2.34315 11 4V5V8V14.5278C9.93849 13.5777 8.53671 13 7 13C3.68629 13 1 15.6863 1 19C1 22.3137 3.68629 25 7 25C10.3137 25 13 22.3137 13 19C13 18.8806 12.9965 18.7621 12.9896 18.6445C12.9965 18.5973 13 18.5491 13 18.5V9H21C22.6569 9 24 7.65685 24 6V4C24 2.34315 22.6569 1 21 1ZM13 7H21C21.5523 7 22 6.55228 22 6V4C22 3.44772 21.5523 3 21 3H14C13.4477 3 13 3.44772 13 4V5V7ZM7 23C4.79086 23 3 21.2091 3 19C3 16.7909 4.79086 15 7 15C9.20914 15 11 16.7909 11 19C11 21.2091 9.20914 23 7 23Z" fill="#5F73F1"/><path d="M11 14.5278L10.8333 14.7141L11.25 15.0871V14.5278H11ZM12.9896 18.6445L12.7422 18.6087L12.7386 18.6338L12.7401 18.6591L12.9896 18.6445ZM13 9V8.75H12.75V9H13ZM13 7H12.75V7.25H13V7ZM14 1.25H21V0.75H14V1.25ZM11.25 4C11.25 2.48122 12.4812 1.25 14 1.25V0.75C12.2051 0.75 10.75 2.20507 10.75 4H11.25ZM11.25 5V4H10.75V5H11.25ZM11.25 8V5H10.75V8H11.25ZM11.25 14.5278V8H10.75V14.5278H11.25ZM7 13.25C8.47284 13.25 9.81582 13.8034 10.8333 14.7141L11.1667 14.3415C10.0612 13.352 8.60058 12.75 7 12.75V13.25ZM1.25 19C1.25 15.8244 3.82436 13.25 7 13.25V12.75C3.54822 12.75 0.75 15.5482 0.75 19H1.25ZM7 24.75C3.82436 24.75 1.25 22.1756 1.25 19H0.75C0.75 22.4518 3.54822 25.25 7 25.25V24.75ZM12.75 19C12.75 22.1756 10.1756 24.75 7 24.75V25.25C10.4518 25.25 13.25 22.4518 13.25 19H12.75ZM12.7401 18.6591C12.7467 18.7718 12.75 18.8855 12.75 19H13.25C13.25 18.8758 13.2464 18.7524 13.2392 18.6299L12.7401 18.6591ZM12.75 18.5C12.75 18.537 12.7473 18.5733 12.7422 18.6087L13.2371 18.6803C13.2456 18.6213 13.25 18.5611 13.25 18.5H12.75ZM12.75 9V18.5H13.25V9H12.75ZM21 8.75H13V9.25H21V8.75ZM23.75 6C23.75 7.51878 22.5188 8.75 21 8.75V9.25C22.7949 9.25 24.25 7.79493 24.25 6H23.75ZM23.75 4V6H24.25V4H23.75ZM21 1.25C22.5188 1.25 23.75 2.48122 23.75 4H24.25C24.25 2.20507 22.7949 0.75 21 0.75V1.25ZM13 7.25H21V6.75H13V7.25ZM21 7.25C21.6904 7.25 22.25 6.69036 22.25 6H21.75C21.75 6.41421 21.4142 6.75 21 6.75V7.25ZM22.25 6V4H21.75V6H22.25ZM22.25 4C22.25 3.30964 21.6904 2.75 21 2.75V3.25C21.4142 3.25 21.75 3.58579 21.75 4H22.25ZM21 2.75H14V3.25H21V2.75ZM14 2.75C13.3096 2.75 12.75 3.30964 12.75 4H13.25C13.25 3.58579 13.5858 3.25 14 3.25V2.75ZM12.75 4V5H13.25V4H12.75ZM12.75 5V7H13.25V5H12.75ZM2.75 19C2.75 21.3472 4.65279 23.25 7 23.25V22.75C4.92893 22.75 3.25 21.0711 3.25 19H2.75ZM7 14.75C4.65279 14.75 2.75 16.6528 2.75 19H3.25C3.25 16.9289 4.92893 15.25 7 15.25V14.75ZM11.25 19C11.25 16.6528 9.34721 14.75 7 14.75V15.25C9.07107 15.25 10.75 16.9289 10.75 19H11.25ZM7 23.25C9.34721 23.25 11.25 21.3472 11.25 19H10.75C10.75 21.0711 9.07107 22.75 7 22.75V23.25Z" fill="#fff"/></svg>