<svg width="27" height="33" viewBox="0 0 27 33" fill="none" xmlns="http://www.w3.org/2000/svg"><path fill-rule="evenodd" clip-rule="evenodd" d="M23.3601 1.82886C23.1967 1.71952 22.9994 1.65517 22.7813 1.65517H22.2856H20.9382H18.9449H16.5006H13.8349H11.1455H8.6353H6.51538H4.98872C4.90786 1.65517 4.827 1.65488 4.74614 1.6546C4.58442 1.65402 4.4227 1.65345 4.26098 1.65517H4.22934C3.85756 1.65517 3.50688 1.85111 3.31967 2.16564C3.14038 2.4647 3.10874 2.91071 3.31967 3.2072C3.64511 3.66067 3.97054 4.1135 4.29598 4.56632L4.29648 4.56702L4.2966 4.5672L4.29697 4.5677C4.62247 5.02062 4.94798 5.47355 5.27348 5.92712L5.70768 6.53189L5.70771 6.53193L5.70775 6.53198C6.02267 6.97047 6.33729 7.40852 6.65092 7.84746C6.672 7.89382 6.6979 7.9388 6.72892 7.98189C6.82515 8.11593 6.92203 8.25062 7.01892 8.38531C7.11583 8.52003 7.21274 8.65476 7.309 8.78884C7.5423 9.11363 7.77561 9.43906 8.00892 9.76448C8.24231 10.09 8.4757 10.4156 8.7091 10.7405C8.98991 11.1324 9.27138 11.5242 9.55285 11.9161C9.83431 12.308 10.1158 12.6999 10.3966 13.0917C10.6405 13.432 10.885 13.7724 11.1296 14.1127C11.3742 14.453 11.6187 14.7933 11.8626 15.1336C11.9459 15.2495 12.0286 15.3653 12.1111 15.481C12.2222 15.6367 12.3331 15.7922 12.4453 15.9472V18.3537V22.6772H12.2896H9.89547C9.7653 22.6772 9.63542 22.6763 9.50563 22.6755C9.24635 22.6737 8.98747 22.672 8.72741 22.6772H8.70895C8.15788 22.6772 7.6279 23.1515 7.65426 23.7084C7.678 24.2679 8.11569 24.7397 8.70895 24.7397H9.66081H11.9468H13.4183C13.4453 24.7409 13.4726 24.7409 13.5 24.7397L14.7128 24.7397H17.1069C17.2371 24.7397 17.367 24.7405 17.4967 24.7414C17.756 24.7431 18.0149 24.7448 18.275 24.7397H18.2934C18.8445 24.7397 19.3745 24.2653 19.3481 23.7084C19.3217 23.149 18.884 22.6772 18.2934 22.6772H17.3416H15.0555H14.5547V20.9679V16.6057V15.9306C14.7308 15.6852 14.907 15.4395 15.0831 15.1938L15.0847 15.1916L15.0857 15.1902C15.3095 14.8781 15.5333 14.566 15.7571 14.2545L18.3674 10.6193C18.589 10.3111 18.8101 10.0029 19.0312 9.69477L19.0319 9.69382L19.033 9.69228C19.3969 9.18517 19.7605 8.67841 20.1251 8.1726C20.1677 8.12406 20.204 8.0748 20.2316 8.0283C20.2356 8.02149 20.2396 8.0146 20.2435 8.00761C20.6271 7.47169 21.0109 6.93771 21.397 6.40149C21.7702 5.88061 22.144 5.36038 22.5178 4.84014L22.5199 4.83731L22.521 4.83575C22.8813 4.33439 23.2415 3.83302 23.6012 3.33108C23.7547 3.15278 23.8474 2.92732 23.836 2.68642C23.8338 2.64057 23.8289 2.59531 23.8214 2.55085C23.8152 2.50325 23.8059 2.45774 23.7938 2.41571C23.7304 2.19413 23.5657 1.95714 23.3601 1.82886ZM18.7227 6.54574C19.1017 6.01807 19.4808 5.4892 19.8598 4.96032C20.1581 4.54575 20.4559 4.13168 20.7535 3.71767H20.4953H18.3753H15.8652H13.1757H10.51H8.06577H6.25147L7.39868 5.3161C7.59383 5.58835 7.78897 5.86001 7.98412 6.13165C8.36612 5.97087 8.76231 5.84247 9.16261 5.75181C10.655 5.41408 12.2133 5.53525 13.6978 5.8472C14.0925 5.93061 14.4832 6.03117 14.8739 6.13172C15.4794 6.28758 16.0849 6.44342 16.7054 6.53534C17.3767 6.6095 18.0506 6.60551 18.7227 6.54574ZM17.2186 8.64053C17.0961 8.81124 16.9736 8.98187 16.8513 9.15235C16.4149 9.7609 15.9777 10.3694 15.5406 10.978L15.5393 10.9799L15.5379 10.9818C15.1019 11.5888 14.6658 12.1959 14.2304 12.803C14.0394 13.0695 13.847 13.3353 13.6546 13.6012L13.4994 13.8156L13.0703 13.2181C12.6351 12.6121 12.2 12.0055 11.7649 11.399L11.7636 11.3971L11.7622 11.3952C11.3281 10.79 10.894 10.1849 10.4599 9.58032C10.1567 9.15747 9.85341 8.73526 9.55016 8.31306C9.44492 8.16654 9.33968 8.02002 9.23444 7.87347C9.55275 7.77492 9.87904 7.70094 10.2095 7.65046C10.9018 7.57719 11.5993 7.6067 12.2896 7.68732C13.0321 7.79406 13.7562 7.9786 14.4821 8.16359C14.5581 8.18297 14.6342 8.20236 14.7103 8.22166C15.5311 8.43104 16.3692 8.59213 17.2186 8.64053ZM10.3439 7.63127C10.3205 7.63454 10.2969 7.6378 10.2732 7.64103C10.2968 7.63766 10.3203 7.6344 10.3439 7.63127ZM10.1649 7.65533C10.1312 7.65959 10.0976 7.66364 10.0644 7.66736C10.0979 7.6631 10.1314 7.65909 10.1649 7.65533Z" fill="#5F73F1"/><path d="M23.3601 1.82886L23.221 2.03674L23.2278 2.04098L23.3601 1.82886ZM4.74614 1.6546L4.74702 1.4046L4.74614 1.6546ZM4.26098 1.65517V1.90518L4.26364 1.90515L4.26098 1.65517ZM3.31967 2.16564L3.53409 2.29419L3.5345 2.2935L3.31967 2.16564ZM3.31967 3.2072L3.11597 3.35213L3.11656 3.35296L3.31967 3.2072ZM4.29598 4.56632L4.49902 4.42047L4.49899 4.42042L4.29598 4.56632ZM4.29648 4.56702L4.09343 4.71287L4.09344 4.71288L4.29648 4.56702ZM4.2966 4.5672L4.49965 4.42134L4.49964 4.42134L4.2966 4.5672ZM4.29697 4.5677L4.09392 4.71355L4.09395 4.7136L4.29697 4.5677ZM5.27348 5.92712L5.07037 6.07288L5.0704 6.07292L5.27348 5.92712ZM5.70768 6.53189L5.91132 6.38687L5.91076 6.38608L5.70768 6.53189ZM5.70775 6.53198L5.5041 6.677L5.50469 6.67782L5.70775 6.53198ZM6.65092 7.84746L6.87849 7.74396L6.86844 7.72187L6.85433 7.70212L6.65092 7.84746ZM6.72892 7.98189L6.93201 7.8361L6.93181 7.83583L6.72892 7.98189ZM7.01892 8.38531L7.22186 8.23932L7.22186 8.23932L7.01892 8.38531ZM7.309 8.78884L7.10591 8.93464L7.10596 8.9347L7.309 8.78884ZM8.00892 9.76448L7.80574 9.91015L8.00892 9.76448ZM8.7091 10.7405L8.91231 10.5949L8.91214 10.5946L8.7091 10.7405ZM9.55285 11.9161L9.34979 12.062V12.062L9.55285 11.9161ZM10.3966 13.0917L10.1934 13.2374L10.1934 13.2374L10.3966 13.0917ZM11.1296 14.1127L11.3326 13.9668L11.1296 14.1127ZM11.8626 15.1336L11.6594 15.2792L11.6596 15.2796L11.8626 15.1336ZM12.1111 15.481L12.3146 15.3358L12.1111 15.481ZM12.4453 15.9472H12.6953V15.8662L12.6478 15.8006L12.4453 15.9472ZM12.4453 22.6772V22.9272H12.6953V22.6772H12.4453ZM9.50563 22.6755L9.50397 22.9254L9.50563 22.6755ZM8.72741 22.6772V22.9272L8.73236 22.9271L8.72741 22.6772ZM7.65426 23.7084L7.90404 23.6978L7.90399 23.6966L7.65426 23.7084ZM13.4183 24.7397L13.4297 24.4897H13.4183V24.7397ZM13.5 24.7397V24.4894L13.4887 24.4899L13.5 24.7397ZM14.7128 24.7397V24.4897V24.7397ZM17.4967 24.7414L17.4984 24.4914L17.4967 24.7414ZM18.275 24.7397V24.4896L18.27 24.4897L18.275 24.7397ZM19.3481 23.7084L19.0984 23.7202L19.0984 23.7202L19.3481 23.7084ZM14.5547 22.6772H14.3047V22.9272H14.5547V22.6772ZM14.5547 15.9306L14.3516 15.7848L14.3047 15.8501V15.9306H14.5547ZM15.0831 15.1938L14.88 15.0481L14.8799 15.0482L15.0831 15.1938ZM15.0847 15.1916L14.8816 15.0459L14.8816 15.0459L15.0847 15.1916ZM15.0857 15.1902L15.2888 15.336L15.2889 15.3359L15.0857 15.1902ZM15.7571 14.2545L15.9601 14.4003L15.9601 14.4003L15.7571 14.2545ZM18.3674 10.6193L18.1644 10.4734L18.1644 10.4735L18.3674 10.6193ZM19.0312 9.69477L19.2343 9.84052L19.2344 9.84048L19.0312 9.69477ZM19.0319 9.69382L18.8288 9.54802L18.8288 9.54811L19.0319 9.69382ZM19.033 9.69228L19.2361 9.83809L19.2361 9.83803L19.033 9.69228ZM20.1251 8.1726L19.9372 8.00771L19.9293 8.01671L19.9223 8.02641L20.1251 8.1726ZM20.2316 8.0283L20.0167 7.90051L20.0164 7.90093L20.2316 8.0283ZM20.2435 8.00761L20.0402 7.86208L20.032 7.87354L20.0251 7.88585L20.2435 8.00761ZM21.397 6.40149L21.5999 6.54758L21.6002 6.54709L21.397 6.40149ZM22.5178 4.84014L22.7209 4.98602L22.7209 4.98598L22.5178 4.84014ZM22.5199 4.83731L22.3169 4.69133L22.3168 4.69147L22.5199 4.83731ZM22.521 4.83575L22.7239 4.98173L22.724 4.98164L22.521 4.83575ZM23.6012 3.33108L23.4117 3.16798L23.4045 3.17642L23.398 3.18547L23.6012 3.33108ZM23.836 2.68642L23.5863 2.69819L23.5863 2.69824L23.836 2.68642ZM23.8214 2.55085L23.5732 2.58296L23.5749 2.59267L23.8214 2.55085ZM23.7938 2.41571L23.5534 2.48444L23.5536 2.48513L23.7938 2.41571ZM19.8598 4.96032L19.6569 4.8143L19.6566 4.81469L19.8598 4.96032ZM18.7227 6.54574L18.7449 6.79475L18.8589 6.78461L18.9257 6.69159L18.7227 6.54574ZM20.7535 3.71767L20.9565 3.86356L21.241 3.46767H20.7535V3.71767ZM6.25147 3.71767V3.46767H5.76432L6.04837 3.86344L6.25147 3.71767ZM7.39868 5.3161L7.60187 5.17045L7.60178 5.17034L7.39868 5.3161ZM7.98412 6.13165L7.78109 6.27751L7.89739 6.43939L8.0811 6.36207L7.98412 6.13165ZM9.16261 5.75181L9.10743 5.50798L9.10739 5.50799L9.16261 5.75181ZM13.6978 5.8472L13.7494 5.6026L13.7492 5.60255L13.6978 5.8472ZM14.8739 6.13172L14.9362 5.88961L14.8739 6.13172ZM16.7054 6.53534L16.6688 6.78281L16.678 6.78382L16.7054 6.53534ZM17.2186 8.64053L17.4217 8.78631L17.6869 8.41681L17.2328 8.39094L17.2186 8.64053ZM16.8513 9.15235L16.6482 9.00663L16.6482 9.00665L16.8513 9.15235ZM15.5406 10.978L15.3376 10.8321L15.3375 10.8323L15.5406 10.978ZM15.5393 10.9799L15.7423 11.1258L15.7424 11.1256L15.5393 10.9799ZM15.5379 10.9818L15.3349 10.8359L15.3349 10.8359L15.5379 10.9818ZM14.2304 12.803L14.0273 12.6573L14.0272 12.6573L14.2304 12.803ZM13.6546 13.6012L13.452 13.4546L13.452 13.4546L13.6546 13.6012ZM13.4994 13.8156L13.2963 13.9614L13.4986 14.2431L13.7019 13.9622L13.4994 13.8156ZM13.0703 13.2181L12.8672 13.3639L12.8672 13.3639L13.0703 13.2181ZM11.7649 11.399L11.9681 11.2532L11.968 11.2532L11.7649 11.399ZM11.7622 11.3952L11.5591 11.5409L11.5591 11.541L11.7622 11.3952ZM10.4599 9.58032L10.2568 9.72602L10.2568 9.72614L10.4599 9.58032ZM9.55016 8.31306L9.3471 8.4589H9.3471L9.55016 8.31306ZM9.23444 7.87347L9.1605 7.63465L8.82888 7.73732L9.03137 8.01929L9.23444 7.87347ZM10.2095 7.65046L10.1832 7.40159L10.1718 7.40333L10.2095 7.65046ZM12.2896 7.68732L12.3252 7.43978L12.3186 7.43901L12.2896 7.68732ZM14.4821 8.16359L14.4203 8.40585L14.4821 8.16359ZM14.7103 8.22166L14.7721 7.97941L14.7717 7.97933L14.7103 8.22166ZM10.3439 7.63127L10.3784 7.87886L10.3109 7.38345L10.3439 7.63127ZM10.2732 7.64103L10.2377 7.39356L10.307 7.88874L10.2732 7.64103ZM10.1649 7.65533L10.1963 7.90335L10.137 7.40689L10.1649 7.65533ZM10.0644 7.66736L10.0328 7.41936L10.0921 7.91581L10.0644 7.66736ZM22.7813 1.90517C22.949 1.90517 23.098 1.95428 23.221 2.03663L23.4991 1.62109C23.2954 1.48475 23.0499 1.40517 22.7813 1.40517V1.90517ZM22.2856 1.90517H22.7813V1.40517H22.2856V1.90517ZM20.9382 1.90517H22.2856V1.40517H20.9382V1.90517ZM18.9449 1.90517H20.9382V1.40517H18.9449V1.90517ZM16.5006 1.90517H18.9449V1.40517H16.5006V1.90517ZM13.8349 1.90517H16.5006V1.40517H13.8349V1.90517ZM11.1455 1.90517H13.8349V1.40517H11.1455V1.90517ZM8.6353 1.90517H11.1455V1.40517H8.6353V1.90517ZM6.51538 1.90517H8.6353V1.40517H6.51538V1.90517ZM4.98872 1.90517H6.51538V1.40517H4.98872V1.90517ZM4.74525 1.90459C4.82604 1.90488 4.90734 1.90517 4.98872 1.90517V1.40517C4.90837 1.40517 4.82796 1.40488 4.74702 1.4046L4.74525 1.90459ZM4.26364 1.90515C4.42329 1.90346 4.58324 1.90402 4.74525 1.90459L4.74702 1.4046C4.5856 1.40402 4.42211 1.40344 4.25833 1.40518L4.26364 1.90515ZM4.22934 1.90517H4.26098V1.40517H4.22934V1.90517ZM3.5345 2.2935C3.67544 2.0567 3.94334 1.90517 4.22934 1.90517V1.40517C3.77179 1.40517 3.33832 1.64551 3.10485 2.03777L3.5345 2.2935ZM3.52338 3.06227C3.38332 2.86541 3.39293 2.52964 3.53409 2.29419L3.10526 2.03709C2.88782 2.39976 2.83415 2.95602 3.11597 3.35213L3.52338 3.06227ZM4.49899 4.42042C4.17354 3.96759 3.84816 3.51483 3.52278 3.06144L3.11656 3.35296C3.44206 3.80651 3.76754 4.25941 4.09296 4.71222L4.49899 4.42042ZM4.49953 4.42117L4.49902 4.42047L4.09293 4.71217L4.09343 4.71287L4.49953 4.42117ZM4.49964 4.42134L4.49952 4.42116L4.09344 4.71288L4.09356 4.71305L4.49964 4.42134ZM4.50001 4.42184L4.49965 4.42134L4.09356 4.71305L4.09392 4.71355L4.50001 4.42184ZM5.47659 5.78136C5.15103 5.32771 4.82547 4.87471 4.49998 4.4218L4.09395 4.7136C4.41947 5.16653 4.74492 5.61939 5.07037 6.07288L5.47659 5.78136ZM5.91076 6.38608L5.47656 5.78132L5.0704 6.07292L5.5046 6.67769L5.91076 6.38608ZM5.91135 6.38692L5.91132 6.38687L5.50404 6.6769L5.50407 6.67695L5.91135 6.38692ZM5.91139 6.38696L5.91135 6.38692L5.50407 6.67695L5.5041 6.677L5.91139 6.38696ZM6.85433 7.70212C6.54049 7.26289 6.2257 6.82459 5.9108 6.38614L5.50469 6.67782C5.81965 7.11634 6.13409 7.55415 6.44751 7.9928L6.85433 7.70212ZM6.42335 7.95096C6.45117 8.01213 6.4853 8.07139 6.52603 8.12796L6.93181 7.83583C6.91049 7.80621 6.89284 7.77551 6.87849 7.74396L6.42335 7.95096ZM6.52583 8.12768C6.62214 8.26184 6.7191 8.39662 6.81597 8.53129L7.22186 8.23932C7.12497 8.10462 7.02815 7.97003 6.93201 7.8361L6.52583 8.12768ZM6.81597 8.53129C6.91289 8.66604 7.00974 8.80067 7.10591 8.93464L7.51209 8.64305C7.41575 8.50886 7.31877 8.37403 7.22186 8.23932L6.81597 8.53129ZM7.10596 8.9347C7.33918 9.25937 7.57242 9.5847 7.80574 9.91015L8.2121 9.61882C7.9788 9.29341 7.74543 8.96788 7.51204 8.64299L7.10596 8.9347ZM7.80574 9.91015C8.03912 10.2357 8.27258 10.5613 8.50605 10.8863L8.91214 10.5946C8.67883 10.2698 8.4455 9.94438 8.2121 9.61882L7.80574 9.91015ZM8.50588 10.8861C8.78679 11.2781 9.06834 11.6701 9.34979 12.062L9.7559 11.7703C9.47441 11.3784 9.19302 10.9866 8.91231 10.5949L8.50588 10.8861ZM9.34979 12.062C9.63128 12.4538 9.91267 12.8456 10.1934 13.2374L10.5998 12.9461C10.3189 12.5541 10.0374 12.1621 9.7559 11.7703L9.34979 12.062ZM10.1934 13.2374C10.4374 13.5778 10.682 13.9183 10.9266 14.2586L11.3326 13.9668C11.088 13.6264 10.8436 13.2863 10.5998 12.9461L10.1934 13.2374ZM10.9266 14.2586C11.1712 14.5989 11.4156 14.9391 11.6594 15.2792L12.0658 14.988C11.8218 14.6475 11.5772 14.3071 11.3326 13.9668L10.9266 14.2586ZM11.6596 15.2796C11.7426 15.395 11.825 15.5104 11.9076 15.6262L12.3146 15.3358C12.2321 15.2201 12.1492 15.1039 12.0656 14.9877L11.6596 15.2796ZM11.9076 15.6262C12.0186 15.7818 12.13 15.9379 12.2428 16.0937L12.6478 15.8006C12.5362 15.6464 12.4258 15.4916 12.3146 15.3358L11.9076 15.6262ZM12.6953 18.3537V15.9472H12.1953V18.3537H12.6953ZM12.6953 22.6772V18.3537H12.1953V22.6772H12.6953ZM12.2896 22.9272H12.4453V22.4272H12.2896V22.9272ZM9.89547 22.9272H12.2896V22.4272H9.89547V22.9272ZM9.50397 22.9254C9.63362 22.9263 9.76433 22.9272 9.89547 22.9272V22.4272C9.76626 22.4272 9.63721 22.4263 9.50729 22.4255L9.50397 22.9254ZM8.73236 22.9271C8.98857 22.922 9.24416 22.9237 9.50397 22.9254L9.50729 22.4255C9.24855 22.4237 8.98637 22.422 8.72246 22.4272L8.73236 22.9271ZM8.70895 22.9272H8.72741V22.4272H8.70895V22.9272ZM7.90399 23.6966C7.88547 23.3055 8.27627 22.9272 8.70895 22.9272V22.4272C8.03949 22.4272 7.37033 22.9976 7.40454 23.7202L7.90399 23.6966ZM8.70895 24.4897C8.26092 24.4897 7.92258 24.135 7.90404 23.6978L7.40449 23.719C7.43341 24.4007 7.97046 24.9897 8.70895 24.9897V24.4897ZM9.66081 24.4897H8.70895V24.9897H9.66081V24.4897ZM11.9468 24.4897H9.66081V24.9897H11.9468V24.4897ZM13.4183 24.4897H11.9468V24.9897H13.4183V24.4897ZM13.4887 24.4899C13.4689 24.4908 13.4492 24.4908 13.4297 24.4899L13.407 24.9894C13.4415 24.991 13.4763 24.991 13.5113 24.9894L13.4887 24.4899ZM14.7128 24.4897L13.5 24.4897V24.9897L14.7128 24.9897V24.4897ZM17.1069 24.4897H14.7128V24.9897H17.1069V24.4897ZM17.4984 24.4914C17.3687 24.4905 17.238 24.4897 17.1069 24.4897V24.9897C17.2361 24.9897 17.3652 24.9905 17.4951 24.9914L17.4984 24.4914ZM18.27 24.4897C18.0138 24.4948 17.7582 24.4931 17.4984 24.4914L17.4951 24.9914C17.7538 24.9931 18.016 24.9949 18.2799 24.9896L18.27 24.4897ZM18.2934 24.4897H18.275V24.9897H18.2934V24.4897ZM19.0984 23.7202C19.1169 24.1114 18.7261 24.4897 18.2934 24.4897V24.9897C18.9629 24.9897 19.632 24.4192 19.5978 23.6966L19.0984 23.7202ZM18.2934 22.9272C18.7382 22.9272 19.0777 23.2814 19.0984 23.7202L19.5978 23.6967C19.5658 23.0165 19.0299 22.4272 18.2934 22.4272V22.9272ZM17.3416 22.9272H18.2934V22.4272H17.3416V22.9272ZM15.0555 22.9272H17.3416V22.4272H15.0555V22.9272ZM14.5547 22.9272H15.0555V22.4272H14.5547V22.9272ZM14.3047 20.9679V22.6772H14.8047V20.9679H14.3047ZM14.3047 16.6057V20.9679H14.8047V16.6057H14.3047ZM14.3047 15.9306V16.6057H14.8047V15.9306H14.3047ZM14.8799 15.0482C14.7038 15.2939 14.5277 15.5395 14.3516 15.7848L14.7578 16.0763C14.934 15.8309 15.1102 15.5852 15.2863 15.3395L14.8799 15.0482ZM14.8816 15.0459L14.88 15.0481L15.2863 15.3395L15.2879 15.3373L14.8816 15.0459ZM14.8826 15.0445L14.8816 15.0459L15.2878 15.3374L15.2888 15.336L14.8826 15.0445ZM15.554 14.1086C15.3302 14.4202 15.1063 14.7324 14.8825 15.0446L15.2889 15.3359C15.5127 15.0237 15.7364 14.7117 15.9601 14.4003L15.554 14.1086ZM18.1644 10.4735L15.554 14.1086L15.9601 14.4003L18.5705 10.7651L18.1644 10.4735ZM18.8281 9.54901C18.607 9.85712 18.3859 10.1653 18.1644 10.4734L18.5704 10.7652C18.792 10.4569 19.0133 10.1486 19.2343 9.84052L18.8281 9.54901ZM18.8288 9.54811L18.8281 9.54905L19.2344 9.84048L19.235 9.83954L18.8288 9.54811ZM18.8299 9.54647L18.8288 9.54802L19.235 9.83963L19.2361 9.83809L18.8299 9.54647ZM19.9223 8.02641C19.5576 8.53248 19.1938 9.03945 18.8299 9.54653L19.2361 9.83803C19.6 9.33089 19.9635 8.82435 20.3279 8.31878L19.9223 8.02641ZM20.3131 8.33748C20.364 8.27939 20.41 8.21768 20.4467 8.15567L20.0164 7.90093C19.9981 7.93192 19.9714 7.96872 19.9372 8.00771L20.3131 8.33748ZM20.4464 8.15609C20.4517 8.14723 20.4568 8.13833 20.4618 8.12936L20.0251 7.88585C20.0223 7.89087 20.0195 7.89575 20.0167 7.90051L20.4464 8.15609ZM21.1941 6.25541C20.808 6.79174 20.424 7.32591 20.0402 7.86208L20.4468 8.15313C20.8302 7.61746 21.2139 7.08369 21.5999 6.54758L21.1941 6.25541ZM22.3148 4.69425C21.941 5.21447 21.5671 5.73485 21.1938 6.2559L21.6002 6.54709C21.9733 6.02638 22.347 5.50629 22.7209 4.98602L22.3148 4.69425ZM22.3168 4.69147L22.3148 4.6943L22.7209 4.98598L22.7229 4.98315L22.3168 4.69147ZM22.318 4.68977L22.3169 4.69133L22.7228 4.98329L22.7239 4.98173L22.318 4.68977ZM23.398 3.18547C23.0384 3.68725 22.6783 4.18848 22.318 4.68987L22.724 4.98164C23.0843 4.4803 23.4446 3.9788 23.8044 3.4767L23.398 3.18547ZM23.5863 2.69824C23.5942 2.86551 23.5303 3.03018 23.4117 3.16798L23.7907 3.49418C23.979 3.27538 24.1006 2.98913 24.0857 2.67459L23.5863 2.69824ZM23.5749 2.59267C23.5807 2.62722 23.5846 2.66245 23.5863 2.69819L24.0857 2.67465C24.0831 2.61869 24.0771 2.56339 24.0678 2.50903L23.5749 2.59267ZM23.5536 2.48513C23.5619 2.51368 23.5687 2.54659 23.5734 2.58294L24.0693 2.51876C24.0617 2.45991 24.05 2.40181 24.034 2.3463L23.5536 2.48513ZM23.2278 2.04098C23.3757 2.13324 23.5053 2.31621 23.5534 2.48444L24.0342 2.34699C23.9556 2.07206 23.7558 1.78104 23.4924 1.61674L23.2278 2.04098ZM19.6566 4.81469C19.2776 5.34358 18.8986 5.87235 18.5197 6.39989L18.9257 6.69159C19.3049 6.1638 19.684 5.63481 20.063 5.10596L19.6566 4.81469ZM20.5504 3.57178C20.253 3.98573 19.9552 4.39976 19.6569 4.8143L20.0627 5.10634C20.3611 4.69173 20.6589 4.27762 20.9565 3.86356L20.5504 3.57178ZM20.4953 3.96767H20.7535V3.46767H20.4953V3.96767ZM18.3753 3.96767H20.4953V3.46767H18.3753V3.96767ZM15.8652 3.96767H18.3753V3.46767H15.8652V3.96767ZM13.1757 3.96767H15.8652V3.46767H13.1757V3.96767ZM10.51 3.96767H13.1757V3.46767H10.51V3.96767ZM8.06577 3.96767H10.51V3.46767H8.06577V3.96767ZM6.25147 3.96767H8.06577V3.46767H6.25147V3.96767ZM7.60178 5.17034L6.45458 3.5719L6.04837 3.86344L7.19557 5.46187L7.60178 5.17034ZM8.18716 5.98578C7.992 5.71414 7.79693 5.44257 7.60187 5.17045L7.19549 5.46176C7.39072 5.73412 7.58594 6.00589 7.78109 6.27751L8.18716 5.98578ZM9.10739 5.50799C8.69227 5.602 8.28212 5.73499 7.88714 5.90123L8.0811 6.36207C8.45012 6.20676 8.83235 6.08294 9.21783 5.99564L9.10739 5.50799ZM13.7492 5.60255C12.2454 5.28654 10.6478 5.15938 9.10743 5.50798L9.21779 5.99565C10.6622 5.66878 12.1812 5.78397 13.6464 6.09186L13.7492 5.60255ZM14.9362 5.88961C14.5464 5.78929 14.1505 5.68733 13.7494 5.6026L13.6461 6.0918C14.0346 6.17389 14.42 6.27305 14.8115 6.37383L14.9362 5.88961ZM16.742 6.28803C16.1366 6.19836 15.5438 6.04601 14.9362 5.88961L14.8115 6.37383C15.415 6.52915 16.0331 6.68848 16.6688 6.78264L16.742 6.28803ZM18.7006 6.29672C18.0421 6.35528 17.385 6.3589 16.7329 6.28685L16.678 6.78382C17.3684 6.8601 18.0592 6.85574 18.7449 6.79475L18.7006 6.29672ZM17.0155 8.49476C16.893 8.66547 16.7705 8.83612 16.6482 9.00663L17.0544 9.29808C17.1767 9.12762 17.2992 8.95701 17.4217 8.78631L17.0155 8.49476ZM16.6482 9.00665C16.2118 9.61511 15.7747 10.2236 15.3376 10.8321L15.7437 11.1238C16.1808 10.5153 16.6179 9.90669 17.0545 9.29806L16.6482 9.00665ZM15.3375 10.8323L15.3361 10.8341L15.7424 11.1256L15.7438 11.1237L15.3375 10.8323ZM15.3363 10.834L15.3349 10.8359L15.7409 11.1277L15.7423 11.1258L15.3363 10.834ZM15.3349 10.8359C14.8988 11.443 14.4627 12.0501 14.0273 12.6573L14.4336 12.9487C14.8689 12.3417 15.3049 11.7347 15.741 11.1276L15.3349 10.8359ZM14.0272 12.6573C13.8366 12.9233 13.6445 13.1886 13.452 13.4546L13.8571 13.7477C14.0494 13.4819 14.2422 13.2157 14.4336 12.9486L14.0272 12.6573ZM13.452 13.4546L13.2968 13.6691L13.7019 13.9622L13.8571 13.7477L13.452 13.4546ZM13.7024 13.6698L13.2733 13.0722L12.8672 13.3639L13.2963 13.9614L13.7024 13.6698ZM13.2733 13.0722C12.8383 12.4664 12.4032 11.8598 11.9681 11.2532L11.5618 11.5447C11.9969 12.1512 12.432 12.7579 12.8672 13.3639L13.2733 13.0722ZM11.968 11.2532L11.9667 11.2513L11.5605 11.5428L11.5618 11.5447L11.968 11.2532ZM11.9667 11.2513L11.9653 11.2495L11.5591 11.541L11.5605 11.5428L11.9667 11.2513ZM11.9654 11.2495C11.5313 10.6443 11.0971 10.0391 10.663 9.4345L10.2568 9.72614C10.6909 10.3306 11.125 10.9357 11.5591 11.5409L11.9654 11.2495ZM10.6631 9.43463C10.3598 9.01169 10.0564 8.58941 9.75321 8.16721L9.3471 8.4589C9.65036 8.88112 9.95356 9.30325 10.2568 9.72602L10.6631 9.43463ZM9.75321 8.16721C9.64797 8.02069 9.54274 7.87418 9.4375 7.72764L9.03137 8.01929C9.13662 8.16585 9.24187 8.31238 9.3471 8.4589L9.75321 8.16721ZM9.30838 8.11228C9.61436 8.01756 9.92853 7.94628 10.2473 7.8976L10.1718 7.40333C9.82955 7.4556 9.49113 7.53229 9.1605 7.63465L9.30838 8.11228ZM10.2358 7.89908C10.9041 7.82835 11.582 7.85638 12.2606 7.93564L12.3186 7.43901C11.6166 7.35702 10.8996 7.32604 10.1832 7.40185L10.2358 7.89908ZM12.2541 7.93478C12.9811 8.0393 13.6923 8.22031 14.4203 8.40585L14.5438 7.92134C13.8201 7.73689 13.0831 7.54882 12.3252 7.43987L12.2541 7.93478ZM14.4203 8.40585C14.4963 8.42522 14.5725 8.44464 14.6488 8.46398L14.7717 7.97933C14.6958 7.96007 14.6199 7.94072 14.5438 7.92134L14.4203 8.40585ZM14.6485 8.4639C15.4784 8.6756 16.3334 8.8405 17.2044 8.89013L17.2328 8.39094C16.405 8.34377 15.5838 8.18648 14.7721 7.97941L14.6485 8.4639ZM10.3093 7.38367C10.286 7.38692 10.2627 7.39015 10.2394 7.39333L10.307 7.88874C10.331 7.88546 10.3549 7.88215 10.3784 7.87886L10.3093 7.38367ZM10.3087 7.8885C10.3314 7.88525 10.3541 7.88211 10.3769 7.87908L10.3109 7.38345C10.2865 7.3867 10.2621 7.39007 10.2377 7.39356L10.3087 7.8885ZM10.1335 7.40731C10.1008 7.41145 10.0684 7.41535 10.0366 7.41891L10.0921 7.91581C10.1268 7.91194 10.1616 7.90774 10.1963 7.90335L10.1335 7.40731ZM10.0959 7.91536C10.1282 7.91126 10.1605 7.9074 10.1928 7.90377L10.137 7.40689C10.1023 7.41079 10.0676 7.41494 10.0328 7.41936L10.0959 7.91536Z" fill="#fff"/></svg>