<svg width="22" height="21" viewBox="0 0 22 21" fill="none" xmlns="http://www.w3.org/2000/svg"><path fill-rule="evenodd" clip-rule="evenodd" d="M12.8333 5.11631V2.71129C12.2993 2.51973 11.9167 2.00288 11.9167 1.39535C11.9167 0.624719 12.5323 0 13.2917 0C14.0511 0 14.6667 0.624719 14.6667 1.39535L14.6667 1.40474V5.11631C14.6667 8.91129 11.8675 12.0428 8.25003 12.5006V13.2558C8.25003 15.953 10.4047 18.1395 13.0625 18.1395C15.536 18.1395 17.5736 16.2459 17.8445 13.8093C16.5349 13.3992 15.5833 12.1612 15.5833 10.6977C15.5833 8.89954 17.0197 7.44187 18.7916 7.44187C20.5635 7.44187 22 8.89954 22 10.6977C22 12.1812 21.0222 13.433 19.685 13.8256C19.3999 17.2836 16.5438 20 13.0625 20C9.39214 20 6.4167 16.9805 6.4167 13.2558V12.5006C2.79923 12.0428 0 8.91131 0 5.11631V1.39538V1.39535C0 0.624719 0.615608 0 1.375 0C2.13439 0 2.75 0.624719 2.75 1.39535C2.75 2.00289 2.36738 2.51975 1.83333 2.7113V5.11631C1.83333 8.19883 4.29577 10.6977 7.33333 10.6977C10.3709 10.6977 12.8333 8.19883 12.8333 5.11631ZM17.4166 10.6977C17.4166 9.92705 18.0322 9.30233 18.7916 9.30233C19.551 9.30233 20.1666 9.92705 20.1666 10.6977C20.1666 11.4683 19.551 12.093 18.7916 12.093C18.0322 12.093 17.4166 11.4683 17.4166 10.6977Z" fill="#5F73F1"/><path d="M12.8333 2.71129H12.9833V2.60574L12.884 2.5701L12.8333 2.71129ZM14.6667 1.39535L14.8167 1.39584V1.39535H14.6667ZM14.6667 1.40474L14.5167 1.40426V1.40474H14.6667ZM8.25003 12.5006L8.2312 12.3518L8.10003 12.3684V12.5006H8.25003ZM17.8445 13.8093L17.9935 13.8259L18.0072 13.7031L17.8893 13.6661L17.8445 13.8093ZM19.685 13.8256L19.6427 13.6817L19.5439 13.7107L19.5355 13.8133L19.685 13.8256ZM6.4167 12.5006H6.5667V12.3684L6.43553 12.3518L6.4167 12.5006ZM1.83333 2.7113L1.78269 2.57011L1.68333 2.60574V2.7113H1.83333ZM12.6833 2.71129V5.11631H12.9833V2.71129H12.6833ZM11.7667 1.39535C11.7667 2.06704 12.1899 2.63983 12.7827 2.85248L12.884 2.5701C12.4087 2.39963 12.0667 1.93872 12.0667 1.39535H11.7667ZM13.2917 -0.15C12.4474 -0.15 11.7667 0.543961 11.7667 1.39535H12.0667C12.0667 0.705476 12.6172 0.15 13.2917 0.15V-0.15ZM14.8167 1.39535C14.8167 0.543961 14.136 -0.15 13.2917 -0.15V0.15C13.9662 0.15 14.5167 0.705476 14.5167 1.39535H14.8167ZM14.8167 1.40523L14.8167 1.39584L14.5167 1.39486L14.5167 1.40426L14.8167 1.40523ZM14.8167 5.11631V1.40474H14.5167V5.11631H14.8167ZM8.26886 12.6494C11.962 12.182 14.8167 8.98609 14.8167 5.11631H14.5167C14.5167 8.83649 11.7729 11.9036 8.2312 12.3518L8.26886 12.6494ZM8.40003 13.2558V12.5006H8.10003V13.2558H8.40003ZM13.0625 17.9895C10.4896 17.9895 8.40003 15.8722 8.40003 13.2558H8.10003C8.10003 16.0337 10.3197 18.2895 13.0625 18.2895V17.9895ZM17.6954 13.7927C17.4327 16.156 15.457 17.9895 13.0625 17.9895V18.2895C15.615 18.2895 17.7145 16.3358 17.9935 13.8259L17.6954 13.7927ZM17.8893 13.6661C16.6417 13.2755 15.7333 12.095 15.7333 10.6977H15.4333C15.4333 12.2274 16.4281 13.523 17.7996 13.9524L17.8893 13.6661ZM15.7333 10.6977C15.7333 8.9803 17.1046 7.59187 18.7916 7.59187V7.29187C16.9348 7.29187 15.4333 8.81879 15.4333 10.6977H15.7333ZM18.7916 7.59187C20.4786 7.59187 21.85 8.9803 21.85 10.6977H22.15C22.15 8.81879 20.6485 7.29187 18.7916 7.29187V7.59187ZM21.85 10.6977C21.85 12.1141 20.9166 13.3077 19.6427 13.6817L19.7272 13.9695C21.1278 13.5583 22.15 12.2483 22.15 10.6977H21.85ZM13.0625 20.15C16.6243 20.15 19.5432 17.3713 19.8345 13.8379L19.5355 13.8133C19.2566 17.196 16.4633 19.85 13.0625 19.85V20.15ZM6.2667 13.2558C6.2667 17.0612 9.30723 20.15 13.0625 20.15V19.85C9.47705 19.85 6.5667 16.8997 6.5667 13.2558H6.2667ZM6.2667 12.5006V13.2558H6.5667V12.5006H6.2667ZM-0.15 5.11631C-0.15 8.98612 2.70468 12.1821 6.39787 12.6494L6.43553 12.3518C2.89378 11.9036 0.15 8.83651 0.15 5.11631H-0.15ZM-0.15 1.39538V5.11631H0.15V1.39538H-0.15ZM-0.15 1.39535V1.39538H0.15V1.39535H-0.15ZM1.375 -0.15C0.530696 -0.15 -0.15 0.543961 -0.15 1.39535H0.15C0.15 0.705477 0.700521 0.15 1.375 0.15V-0.15ZM2.9 1.39535C2.9 0.543961 2.2193 -0.15 1.375 -0.15V0.15C2.04948 0.15 2.6 0.705477 2.6 1.39535H2.9ZM1.88398 2.85249C2.47682 2.63985 2.9 2.06706 2.9 1.39535H2.6C2.6 1.93873 2.25794 2.39964 1.78269 2.57011L1.88398 2.85249ZM1.98333 5.11631V2.7113H1.68333V5.11631H1.98333ZM7.33333 10.5477C4.38068 10.5477 1.98333 8.11807 1.98333 5.11631H1.68333C1.68333 8.27959 4.21085 10.8477 7.33333 10.8477V10.5477ZM12.6833 5.11631C12.6833 8.11807 10.286 10.5477 7.33333 10.5477V10.8477C10.4558 10.8477 12.9833 8.27959 12.9833 5.11631H12.6833ZM18.7916 9.15233C17.9473 9.15233 17.2666 9.84629 17.2666 10.6977H17.5666C17.5666 10.0078 18.1172 9.45233 18.7916 9.45233V9.15233ZM20.3166 10.6977C20.3166 9.84629 19.6359 9.15233 18.7916 9.15233V9.45233C19.4661 9.45233 20.0166 10.0078 20.0166 10.6977H20.3166ZM18.7916 12.243C19.6359 12.243 20.3166 11.5491 20.3166 10.6977H20.0166C20.0166 11.3876 19.4661 11.943 18.7916 11.943V12.243ZM17.2666 10.6977C17.2666 11.5491 17.9473 12.243 18.7916 12.243V11.943C18.1172 11.943 17.5666 11.3876 17.5666 10.6977H17.2666Z" fill="#fff"/></svg>