<svg width="32" height="25" viewBox="0 0 32 25" fill="none" xmlns="http://www.w3.org/2000/svg"><path d="M21.2004 4.55113L21.1181 4.42575C20.8815 4.58111 20.5925 4.62844 20.3196 4.55771L20.3195 4.55769C20.0464 4.48707 19.8157 4.3034 19.6825 4.05177C19.0738 2.89721 17.8909 2.17894 16.596 2.17894C15.6983 2.17894 14.8443 2.52379 14.1925 3.14798L14.2963 3.25631L14.1925 3.14798C13.8467 3.4792 13.3188 3.51987 12.9286 3.24545L12.9284 3.24527C12.3432 2.83552 11.6546 2.61757 10.9392 2.61757C9.57238 2.61757 8.32522 3.42985 7.75857 4.68475L7.75848 4.68495C7.61359 5.00705 7.31216 5.22924 6.96518 5.2715L6.96509 5.27151C4.22477 5.60693 2.1605 7.96159 2.1605 10.7478C2.1605 13.7894 4.61317 16.2667 7.63111 16.2667C8.462 16.2667 9.25963 16.0837 10.0021 15.7229L10.0022 15.7229C10.2461 15.6043 10.5268 15.5904 10.7807 15.6837C11.0357 15.7779 11.2418 15.9706 11.3527 16.221L11.3528 16.2213C11.9158 17.4846 13.1668 18.303 14.5403 18.303C14.9214 18.303 15.2961 18.2415 15.6536 18.1208L15.6538 18.1207C16.0105 17.9997 16.406 18.0916 16.6754 18.3583C16.6754 18.3583 16.6754 18.3583 16.6754 18.3583L21.1366 22.7765L21.1805 22.82H21.2422H22.7983H22.9349L22.9477 22.684L23.35 18.3893C23.3764 18.1094 23.5154 17.8532 23.7343 17.6822C23.9535 17.5109 24.2333 17.4384 24.5073 17.4819C24.6873 17.5108 24.8715 17.5252 25.0556 17.5252C26.983 17.5252 28.5497 15.9434 28.5497 14.002C28.5497 13.8299 28.5369 13.6556 28.5114 13.4829C28.4797 13.265 28.5191 13.0417 28.6238 12.8481L28.624 12.8479L28.6339 12.8304C28.9331 12.3016 29.0917 11.6988 29.0917 11.0892C29.0917 9.72813 28.3022 8.47459 27.0782 7.89621L27.078 7.89615C26.7541 7.74346 26.5349 7.42747 26.5035 7.06608M21.2004 4.55113L21.1179 4.42587C21.6858 4.05171 22.3451 3.8543 23.0243 3.8543C24.8205 3.8543 26.3471 5.26475 26.5035 7.06608M21.2004 4.55113C20.9283 4.72978 20.5958 4.78424 20.282 4.70291L21.2004 4.55113ZM26.5035 7.06608L26.3541 7.07905L26.5035 7.06606C26.5035 7.06607 26.5035 7.06608 26.5035 7.06608ZM28.4829 6.361C30.0656 7.34872 31.0687 9.10267 31.0993 11.0005V11.0892C31.0993 11.923 30.9121 12.747 30.5554 13.4944L30.5381 13.5306L30.5412 13.5706C30.5524 13.7149 30.558 13.8585 30.558 14.002C30.558 16.9523 28.2655 19.3719 25.3863 19.5457L25.2579 19.5534L25.246 19.6814L24.8479 23.9304C24.7989 24.4529 24.3652 24.8496 23.8478 24.8496H20.7686C20.5065 24.8496 20.2537 24.7461 20.0659 24.5598L20.0658 24.5597L15.7349 20.27L15.6783 20.214L15.6003 20.2294C15.2529 20.298 14.8984 20.3326 14.5396 20.3326C12.7446 20.3326 11.0803 19.4451 10.059 18.0017L9.99544 17.9118L9.89065 17.9455C9.16513 18.1789 8.40904 18.2964 7.6304 18.2964C3.50667 18.2964 0.15 14.911 0.15 10.7471C0.15 7.14034 2.67796 4.06485 6.1218 3.35456L6.18657 3.3412L6.2204 3.28437C7.20658 1.62749 8.99782 0.587902 10.9378 0.587902C11.7737 0.587902 12.5869 0.776628 13.3271 1.13838L13.4063 1.17709L13.4786 1.12674C14.3907 0.492038 15.4708 0.15 16.5945 0.15C18.2583 0.15 19.8038 0.901895 20.8374 2.16609L20.9069 2.2511L21.009 2.21053C21.6471 1.95682 22.3286 1.82536 23.0229 1.82536C25.6853 1.82536 27.9035 3.69226 28.4152 6.26303L28.4279 6.32666L28.4829 6.361Z" fill="#5F73F1" stroke="#fff" stroke-width=".3"/></svg>