<svg width="17" height="25" viewBox="0 0 17 25" fill="none" xmlns="http://www.w3.org/2000/svg">
<path d="M8.16381 17.3247C10.9018 17.3247 13.1421 15.0605 13.1421 12.2803V5.49842C13.1421 2.71825 10.9018 0.454102 8.16381 0.454102C5.42576 0.454102 3.18555 2.71825 3.18555 5.49842V12.2803C3.18555 15.0605 5.42576 17.3247 8.16381 17.3247ZM4.43011 5.49842C4.43011 3.41329 6.11027 1.71781 8.16381 1.71781C10.2173 1.71781 11.8975 3.41329 11.8975 5.49842V12.2803C11.8975 14.3655 10.2173 16.0609 8.16381 16.0609C6.11027 16.0609 4.43011 14.3655 4.43011 12.2803V5.49842Z" fill="white" stroke="white" stroke-width="0.5"/>
<path d="M0.913786 12.5542C0.571531 12.5542 0.291504 12.8385 0.291504 13.1861C0.291504 17.3826 3.49107 20.8315 7.54109 21.158V23.1904H5.62758C5.28532 23.1904 5.00529 23.4748 5.00529 23.8223C5.00529 24.1698 5.28532 24.4542 5.62758 24.4542H10.7044C11.0466 24.4542 11.3266 24.1698 11.3266 23.8223C11.3266 23.4748 11.0466 23.1904 10.7044 23.1904H8.78566V21.158C12.8357 20.8368 16.0352 17.3826 16.0352 13.1861C16.0352 12.8385 15.7552 12.5542 15.413 12.5542C15.0707 12.5542 14.7907 12.8385 14.7907 13.1861C14.7907 16.8982 11.8193 19.9153 8.16338 19.9153C4.50747 19.9153 1.53607 16.8982 1.53607 13.1861C1.53607 12.8385 1.25604 12.5542 0.913786 12.5542Z" fill="white" stroke="white" stroke-width="0.5"/>
</svg>
