<svg width="19" height="25" viewBox="0 0 19 25" fill="none" xmlns="http://www.w3.org/2000/svg">
<path fill-rule="evenodd" clip-rule="evenodd" d="M16.7338 22.1805C16.7205 22.2113 16.6867 22.2679 16.6098 22.2979C14.8254 22.9981 12.2411 23.3998 9.52066 23.3998C6.80147 23.3998 4.21797 22.9985 2.43356 22.2991C2.35674 22.2692 2.32292 22.2125 2.30956 22.1813C2.29453 22.1455 2.28201 22.0897 2.30914 22.0252L3.73366 18.6539C3.75829 18.6601 3.78418 18.665 3.80965 18.6712C3.91235 18.6962 4.01756 18.7188 4.12236 18.7422C4.24886 18.7701 4.37453 18.7985 4.50354 18.8243C4.61125 18.8461 4.72064 18.8662 4.82961 18.8864C4.96112 18.9106 5.09305 18.9348 5.22707 18.9566C5.33729 18.9747 5.44876 18.9919 5.56024 19.0087C5.69843 19.0297 5.83787 19.0494 5.97857 19.0679C6.09005 19.0823 6.20152 19.0966 6.31466 19.1098C6.46079 19.127 6.60858 19.1426 6.75721 19.1574C6.86744 19.1681 6.97807 19.1792 7.08955 19.189C7.24736 19.2026 7.40643 19.2137 7.56633 19.2248C7.67238 19.2317 7.77759 19.2404 7.88447 19.2457C8.06191 19.2564 8.24227 19.263 8.42221 19.2699C8.51365 19.2732 8.60341 19.2786 8.69568 19.2806C8.96831 19.2884 9.24344 19.2929 9.52066 19.2929C9.79872 19.2929 10.0743 19.2884 10.3477 19.2806C10.44 19.2782 10.5306 19.2732 10.622 19.2699C10.8024 19.263 10.9823 19.256 11.1602 19.2457C11.2683 19.24 11.3752 19.2313 11.4825 19.2243C11.6416 19.2133 11.8002 19.2022 11.9568 19.1886C12.0691 19.1788 12.1802 19.1677 12.2916 19.1566C12.4403 19.1418 12.5885 19.1262 12.735 19.1089C12.8469 19.0958 12.958 19.0814 13.069 19.0671C13.2114 19.0482 13.3529 19.0285 13.4936 19.0071C13.603 18.9907 13.712 18.9734 13.8197 18.9558C13.9583 18.9332 14.0948 18.9081 14.2305 18.8831C14.3349 18.8638 14.4393 18.8445 14.5415 18.8235C14.6797 18.7956 14.8146 18.7656 14.9499 18.7352C15.0451 18.7139 15.1419 18.6933 15.2354 18.6703C15.2626 18.6638 15.291 18.6584 15.3177 18.6514L16.7338 22.0244C16.761 22.0889 16.7489 22.1451 16.7338 22.1805ZM6.8165 11.3614C7.05823 11.3852 7.30748 11.3971 7.55339 11.4144C7.70954 11.4254 7.86234 11.4398 8.01974 11.448C8.51448 11.4739 9.01465 11.4899 9.51983 11.4899C9.73651 11.4899 9.95403 11.4866 10.1699 11.4821C10.2137 11.4813 10.2571 11.4805 10.3014 11.4792C10.5064 11.4743 10.7093 11.4673 10.9089 11.4587C10.9527 11.4567 10.9953 11.4542 11.0387 11.4517C11.2216 11.4427 11.4003 11.4324 11.5735 11.4205C11.599 11.4189 11.6257 11.4172 11.6512 11.4156C11.837 11.402 12.0127 11.3864 12.1831 11.3696C12.2056 11.3675 12.2319 11.3659 12.2545 11.3634L14.8334 17.4991C14.6288 17.5467 14.4196 17.5915 14.2055 17.6338C14.1387 17.6465 14.0685 17.6576 14.0009 17.6707C13.8451 17.6995 13.6886 17.7274 13.5287 17.7533C13.4406 17.7672 13.3508 17.7796 13.2623 17.7931C13.117 17.8145 12.9713 17.8354 12.8235 17.8543C12.7279 17.8666 12.6319 17.8777 12.535 17.8888C12.3889 17.9061 12.2415 17.9217 12.0933 17.936C11.9948 17.9455 11.8967 17.9549 11.7977 17.9631C11.6449 17.9763 11.4904 17.9874 11.3355 17.9976C11.2399 18.0042 11.1443 18.0116 11.0479 18.0165C10.8784 18.0264 10.7068 18.033 10.5356 18.0395C10.4529 18.0428 10.3707 18.0473 10.288 18.049C10.0329 18.0564 9.77743 18.0609 9.52066 18.0609C9.26515 18.0609 9.01131 18.0564 8.75788 18.0494C8.67397 18.0473 8.59088 18.0428 8.50738 18.0395C8.33871 18.0334 8.16962 18.0268 8.00262 18.0169C7.90535 18.012 7.80848 18.005 7.71162 17.998C7.55924 17.9882 7.4081 17.9771 7.2578 17.9644C7.15718 17.9562 7.0574 17.9463 6.95803 17.9369C6.81191 17.9229 6.66787 17.9077 6.52466 17.8913C6.42655 17.8798 6.32844 17.8683 6.23158 17.8559C6.08712 17.8375 5.94476 17.8173 5.80322 17.7964C5.71221 17.7833 5.61994 17.7701 5.52976 17.7557C5.37653 17.7315 5.22665 17.7044 5.07677 17.6769C5.00329 17.6633 4.92855 17.6514 4.85591 17.6371C4.64006 17.5952 4.42839 17.5504 4.22214 17.5019L6.8165 11.3614ZM9.02216 6.13542C9.18875 6.1654 9.35951 6.18347 9.53444 6.18347C9.71355 6.18347 9.88806 6.16499 10.058 6.13378L11.7535 10.1708C11.7355 10.1725 11.7176 10.1741 11.6996 10.1753C11.5593 10.1864 11.4149 10.1963 11.2654 10.2057C11.2487 10.2065 11.2333 10.2078 11.217 10.2086C11.05 10.2184 10.8775 10.2271 10.7034 10.2336L10.6028 10.2373C10.4625 10.2423 10.3206 10.2464 10.1774 10.2497C10.1323 10.2505 10.0872 10.2517 10.0421 10.2525C9.86761 10.2558 9.69309 10.2579 9.51983 10.2579C8.77292 10.2579 8.04145 10.2176 7.32251 10.1589L9.02216 6.13542ZM9.53444 1.86389C10.3995 1.86389 11.1034 2.55672 11.1034 3.40765C11.1034 4.25859 10.3995 4.95142 9.53444 4.95142C8.66937 4.95142 7.96505 4.25859 7.96505 3.40765C7.96505 2.55672 8.66937 1.86389 9.53444 1.86389ZM17.8916 21.5542L16.2654 17.6814C16.2654 17.681 16.265 17.681 16.2646 17.6802L13.2306 10.4628C13.2306 10.462 13.2302 10.4612 13.2302 10.4608L11.2057 5.6389C11.9017 5.13294 12.3559 4.32266 12.3559 3.40765C12.3559 1.87703 11.0901 0.631836 9.53444 0.631836C7.97841 0.631836 6.71254 1.87703 6.71254 3.40765C6.71254 4.32677 7.17138 5.14074 7.87278 5.6463L5.83787 10.4628C5.83537 10.469 5.83453 10.4755 5.83203 10.4821L2.79345 17.6736C2.79178 17.6773 2.78969 17.6794 2.78802 17.6826L1.15308 21.5521C1.00153 21.9094 1.00236 22.3028 1.15559 22.6593C1.30964 23.0199 1.59856 23.2983 1.97013 23.4437C3.89649 24.1986 6.64866 24.6318 9.52066 24.6318C12.3939 24.6318 15.1473 24.1982 17.0737 23.4425C17.4444 23.2971 17.7333 23.0191 17.8874 22.6597C18.0402 22.3041 18.0419 21.9115 17.8916 21.5542Z" fill="white" stroke="white" stroke-width="0.5"/>
</svg>
