<svg width="27" height="25" viewBox="0 0 27 25" fill="none" xmlns="http://www.w3.org/2000/svg">
<path d="M22.9941 0.768555H3.13255C1.60381 0.768555 0.357422 2.02417 0.357422 3.56424V14.3081C0.357422 15.8482 1.60381 17.1038 3.13255 17.1038H22.9941C24.5228 17.1038 25.7692 15.8482 25.7692 14.3081V3.56424C25.7692 2.02417 24.5228 0.768555 22.9941 0.768555ZM24.5591 14.3081C24.5591 15.1777 23.8573 15.8847 22.9941 15.8847H3.13255C2.26935 15.8847 1.56751 15.1777 1.56751 14.3081V3.56424C1.56751 2.69465 2.26935 1.9876 3.13255 1.9876H22.9941C23.8573 1.9876 24.5591 2.69465 24.5591 3.56424V14.3081Z" fill="white" stroke="white" stroke-width="0.5"/>
<path d="M16.9521 8.39181L11.3373 5.51486C11.1518 5.41733 10.9259 5.42952 10.7484 5.53924C10.5709 5.64895 10.458 5.84807 10.458 6.05937V11.8133C10.458 12.0246 10.5669 12.2237 10.7484 12.3334C10.8452 12.3944 10.9541 12.4228 11.063 12.4228C11.1558 12.4228 11.2526 12.4025 11.3373 12.3578L16.9521 9.48083C17.1538 9.37518 17.2829 9.16794 17.2829 8.93632C17.2829 8.7047 17.1538 8.49746 16.9521 8.39181ZM11.6681 10.8177V7.05086L15.3427 8.93226L11.6681 10.8177Z" fill="white" stroke="white" stroke-width="0.5"/>
<path d="M25.1641 21.2983H6.21826C5.95608 20.4409 5.17356 19.811 4.23776 19.811C3.30196 19.811 2.51944 20.4409 2.25725 21.2983H0.962464C0.627674 21.2983 0.357422 21.5705 0.357422 21.9078C0.357422 22.2451 0.627674 22.5173 0.962464 22.5173H2.25725C2.51944 23.3747 3.30196 24.0046 4.23776 24.0046C5.17356 24.0046 5.95608 23.3747 6.21826 22.5173H25.1641C25.4989 22.5173 25.7692 22.2451 25.7692 21.9078C25.7692 21.5705 25.4989 21.2983 25.1641 21.2983ZM4.23776 22.7855C3.75776 22.7855 3.3665 22.3914 3.3665 21.9078C3.3665 21.4242 3.75776 21.0301 4.23776 21.0301C4.71776 21.0301 5.10902 21.4242 5.10902 21.9078C5.10902 22.3914 4.71776 22.7855 4.23776 22.7855Z" fill="white" stroke="white" stroke-width="0.5"/>
</svg>
