<svg width="23" height="23" viewBox="0 0 23 23" fill="none" xmlns="http://www.w3.org/2000/svg">
<path fill-rule="evenodd" clip-rule="evenodd" d="M18.2492 0.209633C18.597 0.093936 18.9447 0.0352357 19.283 0.0352357C20.8088 0.0352357 21.9163 1.22086 21.9163 2.85417V12.1795C21.9163 18.0449 17.1462 23 11.5 23C5.85397 23 1.08398 18.0449 1.08398 12.1795V2.85417C1.08398 1.22705 2.20115 0 3.68267 0C4.05315 0 4.42928 0.0766667 4.80061 0.227909C6.76901 1.02958 8.93573 1.43599 11.2407 1.43599C15.1685 1.43599 18.1705 0.23968 18.2005 0.227677C18.2162 0.221172 18.233 0.214899 18.2492 0.209633ZM11.5 21.3852C16.271 21.3852 20.3015 17.1695 20.3015 12.1795V2.85417C20.3015 2.11143 19.9111 1.64996 19.283 1.64996C19.1245 1.64996 18.9554 1.67861 18.78 1.73484C18.4305 1.8733 15.3367 3.05071 11.2407 3.05071C8.72602 3.05071 6.35431 2.60411 4.19162 1.72337C4.01459 1.65128 3.84336 1.61472 3.68267 1.61472C3.09412 1.61472 2.69879 2.11282 2.69879 2.85417V12.1795C2.69879 17.1695 6.72928 21.3852 11.5 21.3852ZM14.9553 15.5314C15.1923 15.2648 15.6006 15.2409 15.8671 15.4781C16.1337 15.7151 16.1576 16.1234 15.9206 16.39C14.9383 17.4946 13.2859 18.1541 11.5007 18.1541C9.71542 18.1541 8.06322 17.4947 7.08072 16.39C6.8436 16.1234 6.86753 15.7151 7.13408 15.4781C7.40063 15.241 7.8089 15.2649 8.04587 15.5314C8.77599 16.3523 10.0998 16.8623 11.5006 16.8623C12.9014 16.8623 14.2251 16.3523 14.9553 15.5314ZM18.5468 9.39229C17.5614 8.89961 16.7246 8.73125 16.0407 8.73125C14.6109 8.73125 13.8525 9.46741 13.8066 9.51333C13.5501 9.7613 13.5454 10.1589 13.7936 10.4171C14.0418 10.6752 14.4523 10.683 14.7087 10.4353C14.752 10.395 15.7967 9.46168 17.969 10.5477C18.2882 10.7072 18.6762 10.578 18.8356 10.2589C18.9951 9.93988 18.8658 9.5519 18.5468 9.39229ZM9.30351 10.3396C9.05531 10.5977 8.64495 10.6055 8.38846 10.3579C8.34525 10.3175 7.30049 9.38423 5.12812 10.4702C4.80891 10.6296 4.42108 10.5005 4.26155 10.1814C4.10202 9.86236 4.23135 9.47445 4.55033 9.31485C5.53577 8.82217 6.3726 8.65381 7.05648 8.65381C8.48627 8.65381 9.24465 9.38997 9.2905 9.43589C9.54706 9.68386 9.55178 10.0814 9.30351 10.3396Z" fill="white"/>
<path d="M18.2492 0.209633L18.3111 0.399825L18.3123 0.399408L18.2492 0.209633ZM4.80061 0.227909L4.72517 0.413135L4.72518 0.413136L4.80061 0.227909ZM18.2005 0.227677L18.2748 0.413351L18.2769 0.41248L18.2005 0.227677ZM18.78 1.73484L18.7188 1.54394L18.7063 1.5489L18.78 1.73484ZM4.19162 1.72337L4.11618 1.9086L4.11618 1.9086L4.19162 1.72337ZM15.8671 15.4781L15.7342 15.6275L15.7342 15.6275L15.8671 15.4781ZM14.9553 15.5314L15.1048 15.6644L15.1048 15.6643L14.9553 15.5314ZM15.9206 16.39L16.0701 16.5229L16.0701 16.5228L15.9206 16.39ZM7.08072 16.39L7.23017 16.257L7.23015 16.257L7.08072 16.39ZM7.13408 15.4781L7.00117 15.3286L7.13408 15.4781ZM8.04587 15.5314L7.8964 15.6643L7.89643 15.6644L8.04587 15.5314ZM18.5468 9.39229L18.6363 9.21343L18.6363 9.2134L18.5468 9.39229ZM13.8066 9.51333L13.9457 9.65717L13.9482 9.65463L13.8066 9.51333ZM13.7936 10.4171L13.9378 10.2784L13.9378 10.2784L13.7936 10.4171ZM14.7087 10.4353L14.5723 10.289L14.5697 10.2915L14.7087 10.4353ZM17.969 10.5477L17.8796 10.7266L17.8797 10.7266L17.969 10.5477ZM18.8356 10.2589L18.6567 10.1695L18.6567 10.1695L18.8356 10.2589ZM8.38846 10.3579L8.52738 10.214L8.5251 10.2118L8.38846 10.3579ZM9.30351 10.3396L9.15935 10.201L9.15935 10.201L9.30351 10.3396ZM5.12812 10.4702L5.21749 10.6491L5.21754 10.6491L5.12812 10.4702ZM4.26155 10.1814L4.44044 10.092V10.092L4.26155 10.1814ZM4.55033 9.31485L4.46089 9.13596L4.46083 9.13599L4.55033 9.31485ZM9.2905 9.43589L9.14893 9.57721L9.15151 9.5797L9.2905 9.43589ZM19.283 -0.164764C18.9215 -0.164764 18.5525 -0.10204 18.1861 0.0198583L18.3123 0.399408C18.6415 0.289912 18.9679 0.235236 19.283 0.235236V-0.164764ZM22.1163 2.85417C22.1163 1.12346 20.9318 -0.164764 19.283 -0.164764V0.235236C20.6857 0.235236 21.7163 1.31826 21.7163 2.85417H22.1163ZM22.1163 12.1795V2.85417H21.7163V12.1795H22.1163ZM11.5 23.2C17.2638 23.2 22.1163 18.1481 22.1163 12.1795H21.7163C21.7163 17.9416 17.0286 22.8 11.5 22.8V23.2ZM0.883984 12.1795C0.883984 18.1481 5.7364 23.2 11.5 23.2V22.8C5.97154 22.8 1.28398 17.9416 1.28398 12.1795H0.883984ZM0.883984 2.85417V12.1795H1.28398V2.85417H0.883984ZM3.68267 -0.2C2.07345 -0.2 0.883984 1.13466 0.883984 2.85417H1.28398C1.28398 1.31944 2.32885 0.2 3.68267 0.2V-0.2ZM4.87606 0.0426836C4.48275 -0.11751 4.08107 -0.2 3.68267 -0.2V0.2C4.02523 0.2 4.37582 0.270843 4.72517 0.413135L4.87606 0.0426836ZM11.2407 1.23599C8.95939 1.23599 6.81853 0.833798 4.87605 0.0426818L4.72518 0.413136C6.71949 1.22536 8.91207 1.63599 11.2407 1.63599V1.23599ZM18.1261 0.0420141C18.1067 0.0497911 15.132 1.23599 11.2407 1.23599V1.63599C15.2051 1.63599 18.2343 0.429569 18.2748 0.413339L18.1261 0.0420141ZM18.1873 0.0194456C18.1657 0.0264743 18.144 0.0345904 18.124 0.0428737L18.2769 0.41248C18.2884 0.407753 18.3003 0.403324 18.3111 0.39982L18.1873 0.0194456ZM20.1015 12.1795C20.1015 17.0676 16.1521 21.1852 11.5 21.1852V21.5852C16.3898 21.5852 20.5015 17.2714 20.5015 12.1795H20.1015ZM20.1015 2.85417V12.1795H20.5015V2.85417H20.1015ZM19.283 1.84996C19.5444 1.84996 19.7408 1.94392 19.8751 2.10269C20.0126 2.26533 20.1015 2.51601 20.1015 2.85417H20.5015C20.5015 2.44958 20.3951 2.09816 20.1805 1.84439C19.9626 1.58674 19.6498 1.44996 19.283 1.44996V1.84996ZM18.841 1.9253C19 1.87434 19.1484 1.84996 19.283 1.84996V1.44996C19.1006 1.44996 18.9109 1.48288 18.7189 1.54437L18.841 1.9253ZM11.2407 3.25071C15.372 3.25071 18.4924 2.0639 18.8536 1.92077L18.7063 1.5489C18.3686 1.6827 15.3014 2.85071 11.2407 2.85071V3.25071ZM4.11618 1.9086C6.30462 2.79982 8.70217 3.25071 11.2407 3.25071V2.85071C8.74988 2.85071 6.404 2.4084 4.26705 1.53814L4.11618 1.9086ZM3.68267 1.81472C3.81309 1.81472 3.95865 1.84445 4.11618 1.9086L4.26705 1.53815C4.07052 1.4581 3.87363 1.41472 3.68267 1.41472V1.81472ZM2.89879 2.85417C2.89879 2.5173 2.98866 2.25465 3.12667 2.08079C3.26164 1.91075 3.45023 1.81472 3.68267 1.81472V1.41472C3.32656 1.41472 3.02321 1.56775 2.81337 1.8321C2.60658 2.09262 2.49879 2.44969 2.49879 2.85417H2.89879ZM2.89879 12.1795V2.85417H2.49879V12.1795H2.89879ZM11.5 21.1852C6.84811 21.1852 2.89879 17.0676 2.89879 12.1795H2.49879C2.49879 17.2714 6.61045 21.5852 11.5 21.5852V21.1852ZM16.0001 15.3287C15.651 15.018 15.1162 15.0493 14.8058 15.3986L15.1048 15.6643C15.2684 15.4803 15.5501 15.4637 15.7342 15.6275L16.0001 15.3287ZM16.0701 16.5228C16.3804 16.1737 16.3491 15.6391 16 15.3286L15.7342 15.6275C15.9182 15.7912 15.9347 16.0731 15.7711 16.2571L16.0701 16.5228ZM11.5007 18.3541C13.3301 18.3541 15.042 17.6789 16.0701 16.5229L15.7712 16.257C14.8346 17.3102 13.2417 17.9541 11.5007 17.9541V18.3541ZM6.93128 16.5229C7.95953 17.679 9.67122 18.3541 11.5007 18.3541V17.9541C9.75963 17.9541 8.16691 17.3103 7.23017 16.257L6.93128 16.5229ZM7.00117 15.3286C6.65208 15.6391 6.62073 16.1738 6.93129 16.5229L7.23015 16.257C7.06646 16.073 7.08297 15.7912 7.26699 15.6275L7.00117 15.3286ZM8.19534 15.3986C7.88493 15.0494 7.35022 15.0182 7.00117 15.3286L7.26699 15.6275C7.45104 15.4639 7.73287 15.4804 7.8964 15.6643L8.19534 15.3986ZM11.5006 16.6623C10.1401 16.6623 8.87759 16.1656 8.19531 15.3985L7.89643 15.6644C8.67438 16.539 10.0594 17.0623 11.5006 17.0623V16.6623ZM14.8059 15.3985C14.1235 16.1656 12.8611 16.6623 11.5006 16.6623V17.0623C12.9418 17.0623 14.3267 16.539 15.1048 15.6644L14.8059 15.3985ZM16.0407 8.93125C16.6905 8.93125 17.4969 9.09096 18.4574 9.57118L18.6363 9.2134C17.6259 8.70827 16.7586 8.53125 16.0407 8.53125V8.93125ZM13.9482 9.65463C13.9735 9.62926 14.684 8.93125 16.0407 8.93125V8.53125C14.5378 8.53125 13.7315 9.30556 13.6651 9.37203L13.9482 9.65463ZM13.9378 10.2784C13.7647 10.0985 13.7696 9.82726 13.9456 9.65714L13.6677 9.36952C13.3305 9.69534 13.326 10.2193 13.6495 10.5557L13.9378 10.2784ZM14.5697 10.2915C14.3932 10.462 14.1096 10.4571 13.9378 10.2784L13.6495 10.5557C13.974 10.8932 14.5113 10.904 14.8476 10.5792L14.5697 10.2915ZM18.0585 10.3688C16.9385 9.80891 16.0898 9.76077 15.503 9.87268C14.9188 9.98408 14.6139 10.2502 14.5723 10.289L14.845 10.5817C14.845 10.5817 14.8488 10.5782 14.8565 10.5718C14.8642 10.5654 14.8756 10.5562 14.8908 10.545C14.9213 10.5225 14.9668 10.4918 15.0276 10.4582C15.149 10.3912 15.3316 10.3126 15.5779 10.2656C16.0674 10.1723 16.8272 10.2005 17.8796 10.7266L18.0585 10.3688ZM18.6567 10.1695C18.5467 10.3896 18.279 10.479 18.0584 10.3688L17.8797 10.7266C18.2975 10.9354 18.8056 10.7663 19.0145 10.3483L18.6567 10.1695ZM18.4573 9.57115C18.6776 9.68135 18.7668 9.94924 18.6567 10.1695L19.0145 10.3484C19.2234 9.93052 19.054 9.42244 18.6363 9.21343L18.4573 9.57115ZM8.24956 10.5018C8.5859 10.8265 9.12307 10.8158 9.44767 10.4783L9.15935 10.201C8.98755 10.3797 8.704 10.3845 8.52736 10.214L8.24956 10.5018ZM5.21754 10.6491C6.26994 10.123 7.02981 10.0948 7.51926 10.1881C7.76554 10.2351 7.94821 10.3137 8.06959 10.3807C8.13036 10.4143 8.17586 10.445 8.20631 10.4675C8.23691 10.4901 8.252 10.5041 8.25183 10.504L8.5251 10.2118C8.48325 10.1727 8.17831 9.90658 7.59419 9.79519C7.00737 9.68329 6.15867 9.73143 5.03869 10.2913L5.21754 10.6491ZM4.08267 10.2709C4.29163 10.6888 4.7996 10.8579 5.21749 10.6491L5.03874 10.2913C4.81821 10.4014 4.55053 10.3122 4.44044 10.092L4.08267 10.2709ZM4.46083 9.13599C4.04313 9.34499 3.87373 9.85299 4.08267 10.2709L4.44044 10.092C4.33031 9.87173 4.41957 9.60392 4.63982 9.49371L4.46083 9.13599ZM7.05648 8.45381C6.33851 8.45381 5.47124 8.63082 4.46089 9.13596L4.63977 9.49374C5.60029 9.01351 6.40669 8.85381 7.05648 8.85381V8.45381ZM9.43204 9.29459C9.36568 9.22811 8.55938 8.45381 7.05648 8.45381V8.85381C8.41317 8.85381 9.12363 9.55182 9.14896 9.57719L9.43204 9.29459ZM9.44767 10.4783C9.77115 10.1419 9.7666 9.61789 9.42949 9.29208L9.15151 9.5797C9.32752 9.74982 9.33242 10.021 9.15935 10.201L9.44767 10.4783Z" fill="white"/>
</svg>
