<svg width="10" height="10" viewBox="0 0 10 10" fill="none" xmlns="http://www.w3.org/2000/svg">
<path d="M5 0C2.24179 0 0 2.24178 0 5C0 7.7582 2.24179 10 5 10C7.75821 10 10 7.7582 10 5C10 2.24178 7.75821 0 5 0ZM5 0.540541C7.46608 0.540541 9.45946 2.53392 9.45946 5C9.45946 7.46608 7.46608 9.45946 5 9.45946C2.53392 9.45946 0.54054 7.46608 0.54054 5C0.54054 2.53392 2.53392 0.540541 5 0.540541ZM5 1.48649C4.85073 1.48649 4.72973 1.60749 4.72973 1.75676V5C4.73601 5.1104 4.7838 5.16231 4.84797 5.22381L6.91301 7.29307C7.01856 7.39862 7.18752 7.39862 7.29307 7.29307C7.39862 7.18753 7.39863 7.01855 7.29307 6.913L5.27027 4.8902V1.75676C5.27027 1.60749 5.14927 1.48649 5 1.48649Z" fill="#5F73F1"/>
</svg>
