<svg width="17" height="13" viewBox="0 0 17 13" fill="none" xmlns="http://www.w3.org/2000/svg">
<path d="M0.102554 6.05768C0.300203 5.65496 0.872084 4.60619 1.91099 3.56733C2.68918 2.78914 3.57344 2.16856 4.53925 1.72276C5.74531 1.16612 7.07794 0.883869 8.49998 0.883869C9.914 0.883869 11.2397 1.16295 12.4403 1.71337C13.4035 2.15496 14.2863 2.77032 15.064 3.54238C16.1125 4.58333 16.6949 5.6477 16.8967 6.05704C17.0342 6.33604 17.0344 6.66306 16.8974 6.94226C16.6998 7.34498 16.1279 8.39375 15.089 9.43265C14.3108 10.2108 13.4265 10.8314 12.4607 11.2772C11.2546 11.8339 9.92202 12.1161 8.49998 12.1161C7.08596 12.1161 5.76024 11.837 4.55967 11.2866C3.59642 10.845 2.71369 10.2297 1.93594 9.4576C0.887447 8.41665 0.305016 7.35228 0.103277 6.94294C-0.0341969 6.6639 -0.0344791 6.33692 0.102554 6.05768ZM8.49998 10.9127C10.9371 10.9127 12.9126 8.93707 12.9126 6.49999C12.9126 4.06291 10.9371 2.08732 8.49998 2.08732C6.0629 2.08732 4.08731 4.06295 4.08731 6.49999C4.08731 8.93703 6.0629 10.9127 8.49998 10.9127Z" fill="#B1B7DE"/>
<path d="M8.50075 9.70921C6.72836 9.70921 5.29155 8.2724 5.29155 6.49999C5.29155 4.72759 6.72836 3.29078 8.50075 3.29078C10.2732 3.29078 11.71 4.72759 11.71 6.49999C11.71 8.2724 10.2732 9.70921 8.50075 9.70921Z" fill="#B1B7DE"/>
</svg>
