<svg width="12" height="15" viewBox="0 0 12 15" fill="none" xmlns="http://www.w3.org/2000/svg">
<path d="M5.99828 14.5098L5.99823 14.5097L5.99177 14.5149C5.81956 14.6521 5.54503 14.6254 5.39025 14.4157C5.39016 14.4155 5.39007 14.4154 5.38998 14.4153L1.63632 9.30331L1.63649 9.30319L1.62844 9.29293L1.56587 9.2133L1.56593 9.21325L1.56088 9.20708C1.42005 9.035 1.29071 8.84552 1.15799 8.62029L1.14994 8.60663L1.14083 8.59364L1.06262 8.48216L1.06271 8.4821L1.05722 8.47465C1.03925 8.45025 1.0238 8.4229 1.00198 8.36866L0.990175 8.3326L0.98096 8.30445L0.9677 8.27797C0.590063 7.52372 0.4 6.69349 0.4 5.82915C0.4 2.82605 2.79293 0.4 5.72487 0.4C8.65681 0.4 11.0497 2.82605 11.0497 5.82915C11.0497 6.69349 10.8597 7.52372 10.482 8.27797L10.4688 8.30445L10.4596 8.3326L10.4521 8.3555C10.4472 8.36581 10.4427 8.37562 10.4387 8.3842L10.4374 8.38704C10.4291 8.40486 10.4226 8.41881 10.4161 8.43204C10.4027 8.45938 10.3954 8.47081 10.3925 8.47465L10.3825 8.48824L10.3737 8.50262L10.2955 8.63004L10.2955 8.63003L10.294 8.63239C10.1769 8.8262 10.0447 9.02075 9.88173 9.23198L9.88165 9.23192L9.87634 9.23913L9.82942 9.30283L9.8286 9.30396L6.09105 14.4153C6.09093 14.4154 6.09081 14.4156 6.09069 14.4158C6.06614 14.449 6.03042 14.4853 5.99828 14.5098ZM8.33035 6.00434C8.33035 4.56392 7.17262 3.37461 5.74051 3.37461C4.30841 3.37461 3.15067 4.56392 3.15067 6.00434C3.15067 7.44477 4.30841 8.63407 5.74051 8.63407C7.17262 8.63407 8.33035 7.44477 8.33035 6.00434Z" fill="none" stroke="#5F73F1" stroke-width="0.8"/>
</svg>
