<svg width="13" height="13" viewBox="0 0 13 13" fill="none" xmlns="http://www.w3.org/2000/svg">
<path d="M6.5 0C2.91433 0 0 2.91432 0 6.5C0 10.0857 2.91433 13 6.5 13C10.0857 13 13 10.0857 13 6.5C13 2.91432 10.0857 0 6.5 0ZM6.5 0.702703C9.7059 0.702703 12.2973 3.29409 12.2973 6.5C12.2973 9.70591 9.7059 12.2973 6.5 12.2973C3.2941 12.2973 0.702703 9.70591 0.702703 6.5C0.702703 3.29409 3.2941 0.702703 6.5 0.702703ZM6.5 1.93243C6.30595 1.93243 6.14865 2.08973 6.14865 2.28378V6.5C6.15682 6.64353 6.21894 6.711 6.30237 6.79095L8.98691 9.48099C9.12412 9.61821 9.34378 9.61821 9.481 9.48099C9.61821 9.34378 9.61821 9.12412 9.481 8.9869L6.85135 6.35726V2.28378C6.85135 2.08973 6.69405 1.93243 6.5 1.93243Z" fill="white"/>
</svg>
