<svg width="15" height="15" viewBox="0 0 15 15" fill="none" xmlns="http://www.w3.org/2000/svg">
    <path
        d="M1.875 2.03125C1.875 1.42719 2.36469 0.9375 2.96875 0.9375H6.40625C6.66513 0.9375 6.875 1.14737 6.875 1.40625C6.875 1.66513 6.66513 1.875 6.40625 1.875H2.96875C2.88246 1.875 2.8125 1.94496 2.8125 2.03125V12.9688C2.8125 13.055 2.88246 13.125 2.96875 13.125H6.40625C6.66513 13.125 6.875 13.3349 6.875 13.5938C6.875 13.8526 6.66513 14.0625 6.40625 14.0625H2.96875C2.36469 14.0625 1.875 13.5728 1.875 12.9688V2.03125Z"
        fill="#5F73F1"/>
    <path
        d="M11.879 7.96875L9.81596 10.1464C9.63792 10.3343 9.64593 10.631 9.83387 10.809C10.0218 10.9871 10.3185 10.9791 10.4965 10.7911L13.309 7.82238C13.4803 7.64159 13.4803 7.35842 13.309 7.17762L10.4965 4.20887C10.3185 4.02093 10.0218 4.01291 9.83387 4.19096C9.64593 4.36901 9.63792 4.66569 9.81596 4.85363L11.879 7.03125H6.71875C6.45987 7.03125 6.25 7.24112 6.25 7.5C6.25 7.75888 6.45987 7.96875 6.71875 7.96875H11.879Z"
        fill="#5F73F1"/>
    <path
        d="M1.875 2.03125C1.875 1.42719 2.36469 0.9375 2.96875 0.9375H6.40625C6.66513 0.9375 6.875 1.14737 6.875 1.40625C6.875 1.66513 6.66513 1.875 6.40625 1.875H2.96875C2.88246 1.875 2.8125 1.94496 2.8125 2.03125V12.9688C2.8125 13.055 2.88246 13.125 2.96875 13.125H6.40625C6.66513 13.125 6.875 13.3349 6.875 13.5938C6.875 13.8526 6.66513 14.0625 6.40625 14.0625H2.96875C2.36469 14.0625 1.875 13.5728 1.875 12.9688V2.03125Z"
        stroke="#5F73F1" fill="#5F73F1" stroke-width="0.5" stroke-linecap="round" stroke-linejoin="round"/>
    <path
        d="M11.879 7.96875L9.81596 10.1464C9.63792 10.3343 9.64593 10.631 9.83387 10.809C10.0218 10.9871 10.3185 10.9791 10.4965 10.7911L13.309 7.82238C13.4803 7.64159 13.4803 7.35842 13.309 7.17762L10.4965 4.20887C10.3185 4.02093 10.0218 4.01291 9.83387 4.19096C9.64593 4.36901 9.63792 4.66569 9.81596 4.85363L11.879 7.03125H6.71875C6.45987 7.03125 6.25 7.24112 6.25 7.5C6.25 7.75888 6.45987 7.96875 6.71875 7.96875H11.879Z"
        stroke="#5F73F1" fill="#5F73F1" stroke-width="0.5" stroke-linecap="round" stroke-linejoin="round"/>
</svg>
