<svg width="8" height="14" viewBox="0 0 8 14" fill="none" xmlns="http://www.w3.org/2000/svg">
<path d="M7.42857 11.0833V2.91667H0.571429V11.0833H7.42857ZM7.42857 11.6667H0.571429V12.2552C0.571429 12.8952 1.08404 13.4167 1.7162 13.4167H6.2838C6.91734 13.4167 7.42857 12.8966 7.42857 12.2552V11.6667ZM7.42857 2.33333V1.7448C7.42857 1.10479 6.91596 0.583333 6.2838 0.583333H1.7162C1.08266 0.583333 0.571429 1.10335 0.571429 1.7448V2.33333H7.42857ZM0 1.7448C0 0.781174 0.767077 0 1.7162 0H6.2838C7.23163 0 8 0.782699 8 1.7448V12.2552C8 13.2188 7.23292 14 6.2838 14H1.7162C0.768373 14 0 13.2173 0 12.2552V1.7448Z" fill="white"/>
</svg>
