<svg width="34" height="34" viewBox="0 0 34 34" fill="none" xmlns="http://www.w3.org/2000/svg">
<g clip-path="url(#clip0)">
<path d="M16.999 0C21.6909 0 25.9447 1.9013 29.0201 4.98106C32.0955 8.05644 34.0012 12.3103 34.0012 17.0022C34.0012 21.6941 32.0999 25.9479 29.0201 29.0233C25.9447 32.0987 21.6953 34.0044 16.999 34.0044C12.307 34.0044 8.05321 32.1031 4.97784 29.0233C1.90246 25.9479 -0.00322342 21.6985 -0.00322342 17.0022C-0.00322342 12.3103 1.89808 8.05644 4.97784 4.98106C8.05321 1.90568 12.307 0 16.999 0V0ZM27.9687 6.02809C25.1605 3.21995 21.2835 1.48512 16.999 1.48512C12.7145 1.48512 8.83739 3.21995 6.02925 6.02809C3.2211 8.83623 1.48628 12.7133 1.48628 16.9978C1.48628 21.2823 3.2211 25.1594 6.02925 27.9675C8.83739 30.7757 12.7145 32.5105 16.999 32.5105C21.2835 32.5105 25.1605 30.7757 27.9687 27.9675C30.7768 25.1594 32.5117 21.2823 32.5117 16.9978C32.5117 12.7133 30.7768 8.83623 27.9687 6.02809Z" fill="#2B2A29" fill-opacity="1"/>
<path fill-rule="evenodd" clip-rule="evenodd" d="M24.7563 11.8691C25.1594 11.5055 25.983 10.8659 26.1232 10.1036C25.65 10.235 25.1331 10.4804 24.695 10.6819C23.9546 11.0236 24.1255 11.0586 23.5866 10.6206C22.1672 9.47277 19.6701 9.54286 18.2683 11.2514C17.6199 12.04 17.6505 12.9994 17.7864 14.1296C15.8588 14.2698 11.7101 12.4167 10.3739 10.4453C9.90077 11.1769 9.83944 12.3466 10.0629 13.2973C10.3432 14.4889 10.939 14.6247 11.399 15.2117C10.6192 15.1635 10.4747 14.962 9.87449 14.8087C9.78249 15.8382 10.2556 16.5479 10.7594 17.1043C11.4998 17.9147 11.5962 17.7658 12.6213 18.3572L11.1625 18.3922C11.2107 19.7153 13.0243 20.517 14.3824 20.8631L13.9005 21.2792C12.2139 22.2737 11.2369 22.2124 9.38383 21.9232C12.2796 24.8321 18.0974 24.5386 21.0326 21.6954C22.579 20.1928 23.4114 19.1457 24.1956 16.894C24.6819 15.4965 24.7695 13.7003 24.8439 13.5251C24.9316 13.3104 24.879 13.4112 25.1112 13.2053C25.2251 13.1089 25.2645 13.0826 25.374 12.9906C25.9567 12.5087 26.2634 12.0619 26.6489 11.4047C26.1889 11.58 25.2251 12.1276 24.7563 11.8691Z" fill="#2B2A29" fill-opacity="1"/>
</g>
<defs>
<clipPath id="clip0">
<rect width="34" height="34" fill="white"/>
</clipPath>
</defs>
</svg>
