<svg width="33" height="34" viewBox="0 0 33 34" fill="none" xmlns="http://www.w3.org/2000/svg">
<g clip-path="url(#clip0)">
<path fill-rule="evenodd" clip-rule="evenodd" d="M16.1391 14.2134C17.7007 14.0514 18.9401 15.2828 19.0768 16.72C19.2329 18.3529 18.0585 19.6416 16.6596 19.7867C15.0818 19.9486 13.8391 18.7274 13.7025 17.2801C13.5463 15.6269 14.724 14.3618 16.1391 14.2134ZM20.5895 15.9002H21.9135C21.9656 16.2949 21.9233 17.0169 21.9233 17.4454V22.1044C21.9233 22.7589 21.4776 22.6206 20.905 22.6206H11.923C11.3537 22.6206 10.9047 22.7555 10.908 22.1078C10.9112 21.595 10.882 16.2308 10.9177 15.9036H12.1832C12.1344 16.6863 11.9262 17.0844 12.2125 18.164C12.3979 18.8589 12.6777 19.3751 13.0453 19.8373C15.6219 23.0794 20.648 21.2003 20.7034 17.0608C20.7099 16.6019 20.609 16.2983 20.5862 15.9036L20.5895 15.9002ZM19.5094 11.3221C19.7534 11.2513 20.6188 11.2918 20.9376 11.2884C21.2108 11.2884 21.3703 11.2749 21.572 11.4132C22.0632 11.7438 21.9005 12.5097 21.9005 13.3565C21.9038 14.598 21.0677 14.3348 19.8998 14.3382C19.6265 14.3382 19.4769 14.3416 19.285 14.2032C18.8035 13.8591 18.9629 13.1068 18.9629 12.2802C18.9629 11.7371 19.0768 11.4469 19.5094 11.3221ZM9.48958 23.2987C9.55465 23.7541 9.90924 24.1185 10.3712 24.159C10.8819 24.2029 11.5684 24.1624 12.0986 24.1624C12.9282 24.1624 22.099 24.1995 22.4568 24.1522C22.8993 24.0915 23.2539 23.7137 23.2961 23.2346C23.3384 22.7083 23.2994 21.9897 23.2994 21.4432V14.2775C23.2994 13.6803 23.2994 13.0832 23.2994 12.486C23.2994 12.0002 23.3482 11.1467 23.2896 10.7014C23.2311 10.2425 22.87 9.87144 22.408 9.83095C21.8973 9.7871 21.2108 9.82758 20.6806 9.82758C19.8543 9.82758 10.677 9.79047 10.3224 9.8377C9.87997 9.89843 9.52537 10.2763 9.48633 10.7553C9.44404 11.2816 9.48308 11.9969 9.48308 12.5468C9.48308 13.7411 9.48308 14.9353 9.48308 16.1296C9.48308 16.6559 9.44729 22.9647 9.49283 23.2953L9.48958 23.2987Z" fill="black" fill-opacity="1"/>
<path d="M16.3929 0C20.9181 0 25.0171 1.90276 27.984 4.97956C30.9509 8.05636 32.7857 12.3072 32.7857 17C32.7857 21.6928 30.9509 25.9436 27.984 29.0204C25.0171 32.0972 20.9181 34 16.3929 34C11.8677 34 7.76863 32.0972 4.80172 29.0204C1.8348 25.9436 0 21.6928 0 17C0 12.3072 1.8348 8.05636 4.80172 4.97956C7.76863 1.90276 11.8677 0 16.3929 0V0ZM26.969 6.02878C24.2623 3.22187 20.5212 1.48442 16.3929 1.48442C12.2613 1.48442 8.52012 3.22187 5.81672 6.02878C3.11006 8.83568 1.43466 12.7154 1.43466 16.9966C1.43466 21.2812 3.11006 25.1609 5.81672 27.9645C8.52337 30.7714 12.2646 32.5088 16.3929 32.5088C20.5244 32.5088 24.2656 30.7714 26.969 27.9645C29.6757 25.1576 31.3511 21.2778 31.3511 16.9966C31.3511 12.712 29.6757 8.83231 26.969 6.02878Z" fill="#2B2A29" fill-opacity="1"/>
</g>
<defs>
<clipPath id="clip0">
<rect width="32.7857" height="34" fill="white"/>
</clipPath>
</defs>
</svg>
