<svg width="10" height="14" viewBox="0 0 10 14" fill="none" xmlns="http://www.w3.org/2000/svg">
<path d="M5.26874 12.7118L5.2687 12.7118L5.26386 12.7156C5.09024 12.854 4.81856 12.824 4.66778 12.6193L1.38935 8.15456L1.38948 8.15446L1.38344 8.14677L1.3288 8.07722L1.32884 8.07719L1.32506 8.07256C1.20013 7.91992 1.08576 7.75226 0.968846 7.55386L0.962808 7.54361L0.955978 7.53388L0.887672 7.43651L0.887738 7.43646L0.883623 7.43088C0.864487 7.4049 0.849029 7.37666 0.82871 7.32592L0.817898 7.2929L0.810987 7.27179L0.801042 7.25192C0.467636 6.58602 0.3 5.85331 0.3 5.09108C0.3 2.4418 2.41121 0.3 5 0.3C7.5888 0.3 9.7 2.4418 9.7 5.09108C9.7 5.85331 9.53236 6.58602 9.19896 7.25192L9.18901 7.27179L9.1821 7.2929L9.1746 7.31582C9.16951 7.32659 9.16473 7.33693 9.16061 7.34582C9.15343 7.36134 9.14753 7.37401 9.14158 7.38615C9.12934 7.41107 9.12139 7.42407 9.11638 7.43088L9.10887 7.44107L9.10225 7.45186L9.03394 7.56313L9.03287 7.5649C8.92958 7.73581 8.81307 7.90727 8.6696 8.0932L8.66954 8.09315L8.66556 8.09856L8.62457 8.1542L8.62396 8.15504L5.35955 12.6193C5.35948 12.6194 5.35941 12.6195 5.35934 12.6196C5.33513 12.6524 5.30059 12.6875 5.26874 12.7118ZM7.22623 5.24409C7.22623 4.01246 6.23634 2.99668 5.01366 2.99668C3.79098 2.99668 2.80109 4.01246 2.80109 5.24409C2.80109 6.47572 3.79098 7.49149 5.01366 7.49149C6.23634 7.49149 7.22623 6.47572 7.22623 5.24409Z" stroke="white" fill="none" stroke-width="1"/>
</svg>
