<svg width="22" height="21" viewBox="0 0 22 21" fill="#ffffff" xmlns="http://www.w3.org/2000/svg">
    <path
        d="M16.5541 4.44793C16.2077 4.44793 15.8737 4.49676 15.5531 4.57973C15.0975 2.53145 13.2816 1 11.1072 1C8.85764 1 6.99359 2.63948 6.62052 4.79363C6.12539 4.57281 5.57825 4.44749 5.00146 4.44749C2.79141 4.44749 1 6.24859 1 8.47058C1 10.6926 2.79141 12.4937 5.00146 12.4937C6.83456 12.4937 14.8224 12.4937 16.5541 12.4937C18.7641 12.4937 20.5556 10.6926 20.5556 8.47058C20.5556 6.24859 18.7641 4.44793 16.5541 4.44793Z"
        stroke="#5F73F1" stroke-width="2" stroke-miterlimit="10" stroke-linecap="round" stroke-linejoin="round" fill="#ffffff"/>
    <path
        d="M4.99957 16.3333C4.99957 16.9469 4.5021 17.4444 3.88845 17.4444C3.27481 17.4444 2.77734 16.9469 2.77734 16.3333C2.77734 15.7196 3.27481 15.2222 3.88845 15.2222C4.5021 15.2222 4.99957 15.7196 4.99957 16.3333Z"
        fill="#5F73F1"/>
    <path
        d="M8.55621 19.8889C8.55621 20.5026 8.05875 21.0001 7.4451 21.0001C6.83145 21.0001 6.33398 20.5026 6.33398 19.8889C6.33398 19.2753 6.83145 18.7778 7.4451 18.7778C8.05875 18.7778 8.55621 19.2753 8.55621 19.8889Z"
        fill="#5F73F1"/>
    <path
        d="M15.6675 19.8889C15.6675 20.5026 15.1701 21.0001 14.5564 21.0001C13.9428 21.0001 13.4453 20.5026 13.4453 19.8889C13.4453 19.2753 13.9428 18.7778 14.5564 18.7778C15.1701 18.7778 15.6675 19.2753 15.6675 19.8889Z"
        fill="#5F73F1"/>
    <path
        d="M12.1109 16.3333C12.1109 16.9469 11.6134 17.4444 10.9998 17.4444C10.3861 17.4444 9.88867 16.9469 9.88867 16.3333C9.88867 15.7196 10.3861 15.2222 10.9998 15.2222C11.6134 15.2222 12.1109 15.7196 12.1109 16.3333Z"
        fill="#5F73F1"/>
    <path
        d="M19.2222 16.3333C19.2222 16.9469 18.7248 17.4444 18.1111 17.4444C17.4975 17.4444 17 16.9469 17 16.3333C17 15.7196 17.4975 15.2222 18.1111 15.2222C18.7248 15.2222 19.2222 15.7196 19.2222 16.3333Z"
        fill="#5F73F1"/>
</svg>
