<svg width="14" height="21" viewBox="0 0 14 21" fill="none" xmlns="http://www.w3.org/2000/svg">
<path d="M9.61675 1.00027C9.52666 1.00347 9.43983 1.03478 9.36843 1.08979C9.29703 1.1448 9.24464 1.22076 9.2186 1.30703C9.19256 1.3933 9.19418 1.48555 9.22323 1.57086C9.25227 1.65617 9.30729 1.73025 9.38058 1.78273L11.7962 3.5972H4.88664C2.86053 3.5972 1.21592 5.24123 1.21592 7.26663C1.21592 8.27933 1.66322 9.26092 2.65317 9.91752C3.64312 10.5741 5.12719 10.9361 7.26182 10.9361C9.2967 10.9361 10.6167 11.2924 11.3914 11.8062C12.1661 12.3201 12.444 12.9611 12.444 13.7421C12.444 15.3041 11.1996 16.5481 9.63699 16.5481H2.72739L5.14305 14.7336C5.22082 14.6787 5.27827 14.5997 5.30644 14.5088C5.33462 14.4178 5.33196 14.3202 5.29886 14.2309C5.26577 14.1417 5.2041 14.0659 5.12345 14.0153C5.0428 13.9647 4.94769 13.9422 4.8529 13.9512C4.7719 13.9589 4.69471 13.9893 4.63023 14.0389L1.17543 16.6291C1.12103 16.6692 1.07681 16.7216 1.04634 16.7819C1.01587 16.8422 1 16.9089 1 16.9764C1 17.044 1.01587 17.1107 1.04634 17.171C1.07681 17.2314 1.12103 17.2837 1.17543 17.3238L4.63023 19.914C4.67581 19.9485 4.72778 19.9736 4.78312 19.9878C4.83847 20.0021 4.8961 20.0052 4.95266 19.997C5.00923 19.9888 5.0636 19.9695 5.11264 19.9402C5.16168 19.9108 5.20441 19.872 5.23834 19.8261C5.27227 19.7801 5.29674 19.7278 5.31033 19.6723C5.32391 19.6168 5.32634 19.5592 5.31748 19.5028C5.30862 19.4463 5.28863 19.3922 5.25869 19.3435C5.22875 19.2949 5.18944 19.2526 5.14305 19.2193L2.72739 17.4115H9.63699C11.6631 17.4115 13.3077 15.7675 13.3077 13.7421C13.3077 12.7294 12.8604 11.7478 11.8705 11.0912C10.8805 10.4346 9.39644 10.0726 7.26182 10.0727C5.22693 10.0727 3.90695 9.70961 3.13225 9.19578C2.35755 8.68194 2.07962 8.04764 2.07962 7.26663C2.07962 5.70462 3.32408 4.4606 4.88664 4.4606H11.7962L9.38058 6.26833C9.3342 6.30171 9.2949 6.34395 9.26497 6.39261C9.23503 6.44128 9.21506 6.49539 9.2062 6.55183C9.19735 6.60826 9.19978 6.6659 9.21337 6.72139C9.22695 6.77688 9.25142 6.82911 9.28535 6.87508C9.31928 6.92105 9.362 6.95983 9.41103 6.98917C9.46006 7.01852 9.51443 7.03784 9.57099 7.04603C9.62755 7.05421 9.68517 7.05111 9.74051 7.03687C9.79585 7.02263 9.84782 6.99755 9.8934 6.96309L13.3482 4.37292C13.4026 4.33278 13.4468 4.28043 13.4773 4.22009C13.5078 4.15976 13.5236 4.09312 13.5236 4.02553C13.5236 3.95794 13.5078 3.89129 13.4773 3.83095C13.4468 3.77062 13.4026 3.71828 13.3482 3.67814L9.8934 1.08797C9.81406 1.02771 9.71632 0.996727 9.61675 1.00027Z" fill="#5F73F1" stroke="#5F73F1" stroke-width="0.3"/>
</svg>
