<svg width="9" height="16" viewBox="0 0 9 16" fill="none" xmlns="http://www.w3.org/2000/svg">
<path d="M5.67725 13.8475C5.67725 14.499 5.14736 15.0279 4.49273 15.0279C3.8381 15.0279 3.3082 14.499 3.3082 13.8475C3.3082 13.196 3.8381 12.6671 4.49273 12.6671C5.14736 12.6671 5.67725 13.196 5.67725 13.8475Z" fill="#5F73F1" stroke="white" stroke-width="0.3"/>
<path d="M5.48076 7.02504L5.48157 7.02473C6.56455 6.60226 7.26969 5.52372 7.22287 4.35166C7.17556 2.94467 6.04711 1.77196 4.58894 1.7239C3.83271 1.67743 3.12745 1.9612 2.56786 2.47258C2.03855 2.95628 1.75748 3.60369 1.72214 4.29589H0.152467C0.190169 3.15205 0.658872 2.09716 1.48215 1.31745C2.3431 0.502064 3.50321 0.0754767 4.61487 0.160726L4.61487 0.160831L4.62048 0.161051C6.81133 0.246702 8.66106 2.0913 8.74693 4.2744L8.74698 4.27549C8.83297 6.11854 7.75872 7.78933 6.03876 8.4752L6.03872 8.4751L6.03356 8.47739C5.57479 8.68065 5.23257 9.22507 5.23257 9.76755V10.2384H3.66424V9.76755C3.66424 8.53918 4.3862 7.44473 5.48076 7.02504Z" fill="#5F73F1" stroke="white" stroke-width="0.3"/>
</svg>
