<svg width="19" height="19" viewBox="0 0 19 19" fill="none" xmlns="http://www.w3.org/2000/svg">
<path d="M13.6562 4.74976H16.625" stroke="#5F73F1" fill="none" stroke-linecap="round" stroke-linejoin="round"/>
<path d="M2.375 4.74976H11.2812" stroke="#5F73F1" fill="none" stroke-linecap="round" stroke-linejoin="round"/>
<path d="M13.6562 14.2489H16.625" stroke="#5F73F1" fill="none" stroke-linecap="round" stroke-linejoin="round"/>
<path d="M2.375 14.2489H11.2812" stroke="#5F73F1" fill="none" stroke-linecap="round" stroke-linejoin="round"/>
<path d="M7.71875 9.50012H16.625" stroke="#5F73F1" fill="none" stroke-linecap="round" stroke-linejoin="round"/>
<path d="M2.375 9.50012H5.34375" stroke="#5F73F1" fill="none" stroke-linecap="round" stroke-linejoin="round"/>
<path d="M12.4688 5.93793C13.1246 5.93793 13.6562 5.40627 13.6562 4.75043C13.6562 4.09459 13.1246 3.56293 12.4688 3.56293C11.8129 3.56293 11.2812 4.09459 11.2812 4.75043C11.2812 5.40627 11.8129 5.93793 12.4688 5.93793Z" stroke="#5F73F1" fill="none" stroke-linecap="round" stroke-linejoin="round"/>
<path d="M6.53125 10.6867C7.18709 10.6867 7.71875 10.1551 7.71875 9.49924C7.71875 8.8434 7.18709 8.31174 6.53125 8.31174C5.87541 8.31174 5.34375 8.8434 5.34375 9.49924C5.34375 10.1551 5.87541 10.6867 6.53125 10.6867Z" stroke="#5F73F1" fill="none" stroke-linecap="round" stroke-linejoin="round"/>
<path d="M12.4688 15.4363C13.1246 15.4363 13.6562 14.9047 13.6562 14.2488C13.6562 13.593 13.1246 13.0613 12.4688 13.0613C11.8129 13.0613 11.2812 13.593 11.2812 14.2488C11.2812 14.9047 11.8129 15.4363 12.4688 15.4363Z" stroke="#5F73F1" fill="none" stroke-linecap="round" stroke-linejoin="round"/>
</svg>
