<svg width="24" height="25" viewBox="0 0 24 25" fill="none" xmlns="http://www.w3.org/2000/svg">
<path d="M18.2712 8.08823V7.35294C18.2712 5.72857 19.58 4.41176 21.1946 4.41176H22.6562C23.0599 4.41176 23.3871 4.74097 23.3871 5.14706C23.3871 5.55315 23.0599 5.88235 22.6562 5.88235H21.1946C20.3873 5.88235 19.7329 6.54076 19.7329 7.35294V8.82353C19.7329 13.6966 15.8063 17.6471 10.9627 17.6471H8.77016C3.92653 17.6471 0 13.6966 0 8.82353C0 3.95043 3.92653 0 8.77016 0H10.2319C10.6355 0 10.9627 0.329203 10.9627 0.735294V7.35294C10.9627 7.75903 11.2899 8.08823 11.6935 8.08823H18.2712ZM9.50101 1.47059H8.77016C4.73381 1.47059 1.46169 4.76261 1.46169 8.82353C1.46169 12.8844 4.73381 16.1765 8.77016 16.1765H10.9627C14.7524 16.1765 17.8684 13.2745 18.2351 9.55882H11.6935C10.4826 9.55882 9.50101 8.57122 9.50101 7.35294V1.47059ZM5.11593 25C3.50139 25 2.19254 23.6832 2.19254 22.0588C2.19254 20.4345 3.50139 19.1176 5.11593 19.1176C6.73047 19.1176 8.03931 20.4345 8.03931 22.0588C8.03931 23.6832 6.73047 25 5.11593 25ZM5.11593 23.5294C5.9232 23.5294 6.57762 22.871 6.57762 22.0588C6.57762 21.2466 5.9232 20.5882 5.11593 20.5882C4.30866 20.5882 3.65423 21.2466 3.65423 22.0588C3.65423 22.871 4.30866 23.5294 5.11593 23.5294ZM13.8861 25C12.2715 25 10.9627 23.6832 10.9627 22.0588C10.9627 20.4345 12.2715 19.1176 13.8861 19.1176C15.5006 19.1176 16.8095 20.4345 16.8095 22.0588C16.8095 23.6832 15.5006 25 13.8861 25ZM13.8861 23.5294C14.6934 23.5294 15.3478 22.871 15.3478 22.0588C15.3478 21.2466 14.6934 20.5882 13.8861 20.5882C13.0788 20.5882 12.4244 21.2466 12.4244 22.0588C12.4244 22.871 13.0788 23.5294 13.8861 23.5294Z" fill="#5F73F1"/>
</svg>
