<svg width="30" height="26" viewBox="0 0 30 26" fill="none" xmlns="http://www.w3.org/2000/svg">
<path d="M26.5664 15.5485C26.478 15.6364 18.0535 24.1759 18.0535 24.1759C17.2395 24.9993 16.1603 25.4526 15.0113 25.4526C13.8623 25.4526 12.783 24.9993 11.969 24.1759L3.45616 15.5485C0.181281 12.2271 0.181281 6.82404 3.45616 3.50263C5.04708 1.88818 7.1683 1 9.41978 1C11.4991 1 13.4622 1.75865 15.0066 3.1418C16.551 1.75865 18.5141 1 20.5934 1C22.8496 1 24.9661 1.88818 26.5571 3.50263C29.8319 6.82404 29.8319 12.2271 26.5571 15.5485H26.5664ZM25.3429 4.69612C24.0776 3.41011 22.3937 2.70697 20.6027 2.70697C18.8118 2.70697 17.1278 3.41473 15.8625 4.69612C15.7974 4.76088 15.7416 4.83952 15.6625 4.90891C15.2299 5.28823 14.7275 5.26973 14.374 4.90891C14.2995 4.83027 14.2344 4.76088 14.1739 4.69612C12.9086 3.41011 11.2247 2.70697 9.43373 2.70697C7.64279 2.70697 5.95883 3.41473 4.69354 4.69612C2.06527 7.36065 2.06527 11.6905 4.69354 14.3551C4.77262 14.4337 13.2064 22.9824 13.2064 22.9824C13.6901 23.4728 14.3367 23.7457 15.0206 23.7457C15.7044 23.7457 16.351 23.4728 16.8348 22.9824L25.3476 14.3551C27.9759 11.6905 27.9759 7.36065 25.3476 4.69612H25.3429Z" fill="#5F73F1" stroke="#5F73F1" stroke-width="0.0845077" stroke-miterlimit="22.9256"/>
</svg>
