<svg width="32" height="25" viewBox="0 0 32 25" fill="none" xmlns="http://www.w3.org/2000/svg">
<path d="M4.06717 19.0212L4.06714 19.0212L4.06949 19.0246C5.45008 21.0163 7.99522 22.437 10.5109 22.437H20.6474V22.4566H20.8974C22.7148 22.4566 24.7754 21.6712 26.0388 20.5296C26.0832 20.4954 26.1271 20.4638 26.1712 20.4321C26.2956 20.3428 26.4219 20.252 26.5677 20.0946L26.573 20.0889L26.578 20.0828L27.4284 19.0402L27.4353 19.0317L27.4414 19.0227C29.6749 15.7372 29.1177 11.4495 26.4547 9.00232C26.3746 8.92476 26.3186 8.88194 26.265 8.84518C26.2517 8.83608 26.2401 8.82832 26.2294 8.82113C26.1983 8.8003 26.1742 8.78417 26.1367 8.75377L26.1367 8.75373L26.1328 8.75069C26.0428 8.68075 26.0103 8.64926 25.9106 8.55238L25.9108 8.55213L25.9009 8.54349C24.6341 7.4357 22.528 6.73092 20.7557 6.73092H10.6526C8.04203 6.73092 5.49677 8.0869 4.07251 10.139C3.77624 10.5304 3.56616 10.9199 3.34202 11.3753L3.34161 11.3761C2.39605 13.3156 2.41811 15.8545 3.34065 17.7898L3.34055 17.7898L3.34403 17.7966C3.5714 18.2384 3.79902 18.6204 4.06717 19.0212ZM14.5268 1.63028V1.38028H14.5014C14.5467 1.02023 14.6896 0.758654 14.8727 0.580129C15.0986 0.359928 15.4031 0.248974 15.7135 0.250007C16.0242 0.251041 16.3309 0.364413 16.5582 0.580481C16.7822 0.793407 16.9423 1.11847 16.9423 1.57127V4.1679V4.4179H17.1923C17.6696 4.4179 18.1295 4.41158 18.5756 4.40544C21.0365 4.3716 23.0755 4.34356 25.2822 5.41534C26.4929 6.01322 27.3429 6.62775 28.2569 7.49655L28.257 7.49659C30.0287 9.17967 31.2162 11.9661 31.2162 14.4561C31.2162 18.5449 28.9678 21.9621 25.2425 23.7719C24.295 24.2322 22.5914 24.75 21.2214 24.75H10.2477C8.83742 24.75 7.15454 24.2322 6.18794 23.7531L6.18615 23.7522C3.88457 22.6341 2.16862 20.9634 1.16258 18.7213C-0.101981 15.88 -0.00627495 13.2765 1.16518 10.4405C1.53611 9.54921 2.46715 8.20133 3.21172 7.49695L3.21173 7.49697L3.21412 7.49465C4.12671 6.60798 4.95522 6.01367 6.18615 5.41569C8.39425 4.343 10.4634 4.37163 12.9107 4.4055C13.3527 4.41162 13.807 4.4179 14.2768 4.4179H14.5268V4.1679V1.63028Z" fill="#5F73F1" stroke="white" stroke-width="0.5"/>
<path d="M8.58744 13.3881H8.83744V13.1381V11.7808C8.83744 11.2705 9.15298 10.9008 9.57372 10.7377C9.9993 10.5727 10.5006 10.6323 10.845 10.9589L10.8458 10.9596C11.1092 11.2073 11.1979 11.4377 11.2261 11.7515C11.2411 11.9179 11.2385 12.1064 11.2313 12.3381C11.2299 12.3826 11.2283 12.4285 11.2267 12.4759C11.22 12.6716 11.2125 12.8924 11.2125 13.1381V13.3881H11.4625C11.5563 13.3881 11.6573 13.3863 11.7632 13.3844C12.2022 13.3767 12.7265 13.3675 13.1833 13.4771C13.4614 13.5438 13.6856 13.6491 13.8388 13.8037C13.9855 13.9517 14.0875 14.165 14.0875 14.4954C14.0875 14.8768 13.9871 15.1229 13.8458 15.2891C13.7018 15.4586 13.4927 15.5717 13.2291 15.6435C12.7935 15.7621 12.2815 15.753 11.8085 15.7446C11.6901 15.7425 11.5742 15.7404 11.4625 15.7404H11.2125V15.9904V17.4265C11.2125 17.7764 11.0688 18.0303 10.8562 18.202C10.6377 18.3784 10.3362 18.4748 10.025 18.4748C9.71382 18.4748 9.41413 18.3786 9.19687 18.1972C8.98557 18.0208 8.83744 17.7524 8.83744 17.3675V16.0101V15.7601H8.58744C8.43766 15.7601 8.29128 15.7634 8.14774 15.7666C7.8606 15.773 7.58482 15.7791 7.31592 15.7584C6.92023 15.7279 6.60598 15.6411 6.38307 15.4481C5.84694 14.9753 5.85231 14.1514 6.38051 13.7023L6.38052 13.7023L6.38241 13.7007C6.60535 13.5073 6.91983 13.4203 7.31592 13.3898C7.58482 13.3691 7.8606 13.3752 8.14775 13.3816C8.29129 13.3848 8.43767 13.3881 8.58744 13.3881Z" fill="#5F73F1" stroke="white" stroke-width="0.5"/>
<path d="M20.9512 17.6867L20.9488 17.6857C20.6725 17.5767 20.5144 17.4267 20.4193 17.2494C20.3203 17.0647 20.2769 16.8263 20.2769 16.5216V16.5019C20.2769 16.2387 20.4221 15.9645 20.6663 15.7587C20.9096 15.5537 21.2236 15.4409 21.5192 15.4719L21.5212 15.4721C22.0091 15.5195 22.3037 15.7321 22.4642 15.9896C22.6293 16.2545 22.6696 16.5948 22.5907 16.9171C22.5119 17.2392 22.3196 17.5204 22.0496 17.6762C21.7869 17.8279 21.421 17.878 20.9512 17.6867Z" fill="#5F73F1" stroke="white" stroke-width="0.5"/>
<path d="M23.7566 11.4643L24.205 11.3771C24.2148 11.3752 24.2255 11.3729 24.2363 11.3701C24.2463 11.3675 24.2615 11.3631 24.2783 11.3561C24.2857 11.353 24.2954 11.3487 24.3062 11.3426C24.3104 11.3423 24.3147 11.3419 24.3192 11.3416L24.3263 11.341L24.3334 11.34C24.355 11.337 24.3722 11.3344 24.386 11.3322C24.394 11.3339 24.4031 11.3358 24.4133 11.3378L24.4222 11.3395L24.4312 11.3406C25.117 11.4229 25.4796 11.9394 25.4942 12.4665C25.5086 12.9845 25.1847 13.5207 24.4232 13.6386C23.9537 13.7092 23.5147 13.455 23.279 13.0575C23.0474 12.6667 23.0293 12.1654 23.3754 11.7468C23.4738 11.6356 23.5509 11.5748 23.7091 11.4894C23.7263 11.4802 23.7421 11.4718 23.7566 11.4643ZM24.341 11.3208L24.341 11.3208L24.341 11.3208Z" fill="#5F73F1" stroke="white" stroke-width="0.5"/>
</svg>
