<svg width="33" height="25" viewBox="0 0 33 25" fill="none" xmlns="http://www.w3.org/2000/svg">
<path d="M17.6412 1.90205C21.055 1.90205 24.6225 3.26115 27.433 5.61702L27.4217 5.62854L27.5435 5.73265C30.5815 8.3308 32.2432 11.6744 32.2432 15.1402C32.2432 18.5731 30.5674 21.2541 27.3715 22.9093L27.3715 22.9093C24.2793 24.5115 20.3821 24.85 17.6412 24.85C13.7522 24.85 10.8357 24.1995 8.69903 22.8787C6.08473 21.2547 4.74897 18.6609 4.74897 15.1402C4.74897 13.2761 5.13376 11.5074 5.81039 9.89367L5.84882 9.80202L5.77941 9.7309L3.64502 7.54386L3.58525 7.48261L3.50212 7.5029C3.26327 7.56117 3.02781 7.59529 2.79476 7.59529C1.33624 7.59529 0.15 6.3851 0.15 4.88159C0.15 3.60909 1.01142 2.54481 2.16016 2.24769L2.24525 2.22568L2.26765 2.14069C2.56963 0.994656 3.59764 0.15 4.81123 0.15C6.26974 0.15 7.45599 1.36019 7.45599 2.8637C7.45599 3.12117 7.43306 3.35952 7.36769 3.58279L7.34305 3.66695L7.4043 3.72971L8.87833 5.2401L8.97974 5.34401L9.08689 5.24603C11.3602 3.16752 14.3669 1.90205 17.6412 1.90205ZM10.8471 16.2819L10.8477 16.2827C11.6538 17.3339 12.8649 17.9364 14.1625 17.9364C15.1048 17.9364 15.9988 17.6225 16.7446 17.0212C18.566 15.5679 18.8819 12.8659 17.4662 11.0021C16.9243 10.2828 15.7702 9.50881 14.4448 8.91635C13.1154 8.32211 11.5845 7.89737 10.271 7.89737C9.56796 7.89737 8.97934 8.03231 8.61675 8.29611H8.60295L8.56189 8.3289C8.32687 8.5166 8.19364 8.78618 8.1252 9.08133C8.05687 9.37603 8.05055 9.70633 8.07705 10.0321C8.13003 10.6836 8.31692 11.346 8.4421 11.7308L8.44228 11.7314C9.03825 13.5389 10.1087 15.3055 10.8471 16.2819ZM3.5723 5.382H3.77351C4.01651 5.382 4.24891 5.47472 4.43266 5.66301L6.44913 7.72922L6.58717 7.87067L6.68626 7.69966C6.8988 7.33288 7.15413 7.04807 7.41784 6.84359C7.42599 6.83873 7.43308 6.83396 7.43884 6.8299C7.44734 6.82391 7.45538 6.81773 7.46081 6.81355L7.46154 6.81299C7.46791 6.8081 7.47131 6.80551 7.47422 6.80347C7.47478 6.80307 7.47522 6.80277 7.47553 6.80256L7.6549 6.71066L7.51287 6.56512L5.56801 4.57229C5.25005 4.23521 5.20052 3.72171 5.46558 3.3352L5.46562 3.33522L5.46761 3.33217C5.52566 3.24294 5.59801 3.09399 5.59801 2.88787C5.59801 2.45808 5.25126 2.09746 4.82302 2.09746C4.39478 2.09746 4.04803 2.45808 4.04803 2.88787V2.88841C4.04803 2.91523 4.04803 2.96464 4.06331 3.02891C4.12266 3.32756 4.02165 3.6497 3.79834 3.86812C3.57415 4.0874 3.27188 4.17993 2.96953 4.11904C2.90581 4.10323 2.85547 4.10325 2.81038 4.10326L2.80655 4.10326C2.37831 4.10326 2.03156 4.46388 2.03156 4.89367C2.03156 5.32345 2.37831 5.68407 2.80655 5.68407C3.00472 5.68407 3.16501 5.5917 3.24493 5.5371L3.24506 5.5373L3.25172 5.53218C3.3494 5.45711 3.45923 5.40836 3.5723 5.382ZM26.5426 21.182L26.7222 21.0888L26.7094 21.0757C27.9062 20.4299 28.8094 19.6317 29.42 18.6687C30.0611 17.6578 30.3735 16.475 30.3735 15.116C30.3735 11.9181 28.6542 9.0908 26.2125 7.06791C23.7714 5.04546 20.5927 3.81327 17.6412 3.81327C15.3328 3.81327 13.1923 4.5487 11.4233 5.78572L11.1105 6.0044L11.4885 6.05721C12.8972 6.25405 14.4294 6.756 15.7759 7.4279C17.1247 8.10098 18.2725 8.93721 18.9251 9.79363C20.9755 12.4968 20.5136 16.4036 17.8778 18.5149C16.7951 19.3765 15.5071 19.8355 14.1507 19.8355C12.276 19.8355 10.5393 18.9758 9.37627 17.4539C8.68733 16.5445 7.71575 14.9852 7.03752 13.3077L6.82974 12.7938L6.75001 13.3424C6.66652 13.9168 6.61874 14.5161 6.61874 15.116C6.61874 17.9244 7.61608 19.9355 9.67305 21.2125L9.67349 21.2128C11.5117 22.3454 14.1972 22.9146 17.653 22.9146C20.17 22.9146 23.7617 22.6251 26.5426 21.182Z" fill="#ffffff" stroke="white" stroke-width="0.3"/>
</svg>
