<svg width="28" height="25" viewBox="0 0 28 25" fill="none" xmlns="http://www.w3.org/2000/svg">
<path d="M16.45 7.5C16.45 6.92296 16.923 6.45 17.5 6.45C18.077 6.45 18.55 6.92296 18.55 7.5V8.75C18.55 11.402 16.402 13.55 13.75 13.55C11.098 13.55 8.95 11.402 8.95 8.75V7.5C8.95 6.92296 9.42296 6.45 10 6.45C10.577 6.45 11.05 6.92296 11.05 7.5V8.75C11.05 10.2355 12.2645 11.45 13.75 11.45C15.2355 11.45 16.45 10.2355 16.45 8.75V7.5Z" fill="#5F73F1" stroke="white" stroke-width="0.4"/>
<path d="M0.343247 19.314L0.34326 19.314L4.30556 4.43973C4.3056 4.43958 4.30564 4.43944 4.30568 4.43929C4.98228 1.93906 7.25317 0.2 9.8375 0.2H13.75H17.6625C20.2469 0.2 22.5178 1.93911 23.1944 4.4394C23.1944 4.43951 23.1944 4.43962 23.1944 4.43973L27.1567 19.314L27.1568 19.314C27.252 19.6712 27.3 20.0538 27.3 20.4375C27.3 22.8395 25.3395 24.8 22.9375 24.8H13.75H4.5625C2.16046 24.8 0.2 22.8395 0.2 20.4375C0.2 20.0538 0.248002 19.6712 0.343247 19.314ZM6.34425 4.98597L6.34425 4.98598L2.38219 19.8468C2.32744 20.039 2.3 20.232 2.3 20.4375C2.3 21.6855 3.31454 22.7 4.5625 22.7H13.75H22.9375C24.1855 22.7 25.2 21.6855 25.2 20.4375C25.2 20.232 25.1726 20.039 25.1178 19.8468L21.1558 4.98598C20.7324 3.39853 19.3032 2.3 17.6625 2.3H13.75H9.8375C8.19678 2.3 6.76757 3.39853 6.34425 4.98597Z" fill="#5F73F1" stroke="white" stroke-width="0.4"/>
</svg>
