<svg width="24" height="24" viewBox="0 0 24 24" fill="none" xmlns="http://www.w3.org/2000/svg">
<path d="M15.5171 21.2252H19.8C20.7787 21.2252 21.5727 20.4572 21.5727 19.4798V10.4594H19.1334L19.0484 10.5431L16.212 13.5173C16.0134 13.7267 15.7724 13.9082 15.5171 14.048V21.2252ZM15.5171 4.63639C15.7864 4.55268 16.0844 4.52478 16.3821 4.52478C17.3748 4.52478 18.2967 4.91569 18.9491 5.57207C19.6157 6.21438 20.0268 7.12215 20.0268 8.12746C20.0268 8.21118 20.0268 8.28106 20.0125 8.36478H21.5725V4.11978C21.5725 3.6449 21.3881 3.21227 21.0618 2.89099C20.7355 2.56971 20.2964 2.37438 19.8 2.37438H15.5171V4.63639ZM13.6594 7.10807C13.39 6.80087 12.9787 6.61937 12.5247 6.61937C11.6737 6.61937 10.9931 7.27575 10.9931 8.12746C10.9931 8.36478 11.0497 8.60234 11.1634 8.79767C11.1634 8.81175 11.1777 8.81175 11.1777 8.81175L11.192 8.85374L11.3053 9.02142L11.3763 9.10513L11.4046 9.13303L14.2269 12.0934L14.4539 12.205L14.6666 12.0793L17.4889 9.13303L17.5172 9.10513L17.5882 9.02142L17.6166 8.99351L17.6875 8.86782L17.7302 8.79793C17.8295 8.60234 17.9005 8.36503 17.9005 8.12772C17.9005 7.27601 17.2055 6.61962 16.3831 6.61962C15.9151 6.61962 15.5038 6.80113 15.2485 7.10833C15.2342 7.12241 15.2201 7.13623 15.2058 7.13623C15.2058 7.15031 15.2058 7.15031 15.1915 7.16414C15.1772 7.17822 15.1489 7.20612 15.1206 7.21994C15.1063 7.23403 15.0922 7.24785 15.0639 7.26193C15.0496 7.27601 15.0355 7.28983 15.0072 7.30391C14.9929 7.30391 14.9646 7.31799 14.9505 7.33182C14.9222 7.3459 14.8938 7.35972 14.8655 7.3738C14.8512 7.3738 14.8372 7.38788 14.8088 7.38788C14.7662 7.40196 14.7095 7.41578 14.6671 7.42986C14.5961 7.44394 14.5254 7.45777 14.4544 7.45777C14.3835 7.45777 14.3127 7.44369 14.2418 7.42986C14.1851 7.41578 14.1284 7.40196 14.0715 7.38788C14.0572 7.38788 14.0572 7.3738 14.0431 7.3738C14.0005 7.35972 13.9581 7.3459 13.9155 7.30391C13.8871 7.28983 13.8728 7.28983 13.8445 7.26193C13.8302 7.24785 13.8018 7.23403 13.7878 7.21994C13.7735 7.21994 13.7595 7.20586 13.7452 7.19204C13.716 7.16388 13.6877 7.13598 13.6594 7.10807ZM4.20005 2.37438C3.22141 2.37438 2.42737 3.17028 2.42737 4.11978V8.36478H8.88005C8.86575 8.29489 8.86575 8.21118 8.86575 8.12746C8.86575 7.12215 9.27707 6.21438 9.92941 5.57207C10.596 4.91569 11.5177 4.52478 12.5247 4.52478C12.8224 4.52478 13.1061 4.55268 13.3897 4.63639V2.37438H4.20005ZM4.20005 21.2252H13.3897V14.048C13.1204 13.9364 12.8791 13.7549 12.6664 13.5314L9.84439 10.5431C9.81605 10.5152 9.78771 10.4873 9.75937 10.4594H2.42737V19.4798C2.44141 20.4572 3.22141 21.2252 4.20005 21.2252ZM14.3543 23.3198H4.20005C3.13639 23.3198 2.14371 22.901 1.44873 22.2026C0.739709 21.5045 0.300049 20.5409 0.300049 19.4798V9.39799V9.38391V4.11978C0.314349 2.01137 2.04439 0.279785 4.20005 0.279785H14.8647H15.3611H19.8C21.9557 0.293865 23.7 2.01137 23.7 4.11978V9.31428V9.52369V19.4798C23.7 21.6161 21.9557 23.3198 19.8 23.3198H15.3611H14.8647H14.567H14.3543Z" fill="#5F73F1" stroke="white" stroke-width="0.5"/>
</svg>
