<svg width="26" height="24" viewBox="0 0 26 24" fill="none" xmlns="http://www.w3.org/2000/svg">
<path d="M7.22009 0.711914C3.65566 0.711914 0.760093 3.69671 0.760093 8.10391C0.759982 8.11091 0.759982 8.11791 0.760093 8.12491C0.827883 9.90111 1.5687 13.3812 2.70447 16.5564C3.27235 18.144 3.93688 19.6365 4.70197 20.7879C5.46705 21.9393 6.35443 22.8523 7.53884 22.8879C7.54593 22.888 7.55301 22.888 7.56009 22.8879C8.08911 22.8879 8.58129 22.6942 8.95197 22.3944C9.32264 22.0947 9.58356 21.703 9.79134 21.2814C10.2069 20.4382 10.4317 19.4392 10.6838 18.4569C10.936 17.4746 11.2181 16.5189 11.5976 15.8634C11.9651 15.2286 12.3442 14.9039 13.0001 14.8344C13.656 14.9039 14.0351 15.2286 14.4026 15.8634C14.7821 16.5189 15.0642 17.4746 15.3163 18.4569C15.5685 19.4392 15.7933 20.4382 16.2088 21.2814C16.4166 21.703 16.6775 22.0947 17.0482 22.3944C17.4189 22.6942 17.9111 22.8879 18.4401 22.8879C18.4472 22.888 18.4543 22.888 18.4613 22.8879C19.6458 22.8523 20.5331 21.9393 21.2982 20.7879C22.0633 19.6365 22.7278 18.144 23.2957 16.5564C24.4315 13.3812 25.1723 9.90111 25.2401 8.12491C25.2402 8.11791 25.2402 8.11091 25.2401 8.10391C25.2401 3.69671 22.3445 0.711914 18.7801 0.711914C16.5684 0.711914 14.5201 1.55786 13.0001 2.86441C11.4801 1.55786 9.4318 0.711914 7.22009 0.711914ZM7.22009 2.05591C9.2801 2.05591 11.2329 2.92649 12.5113 4.20841C12.5748 4.27318 12.6507 4.32469 12.7347 4.35986C12.8186 4.39504 12.9089 4.41316 13.0001 4.41316C13.0913 4.41316 13.1816 4.39504 13.2655 4.35986C13.3495 4.32469 13.4254 4.27318 13.4888 4.20841C14.7673 2.92649 16.7201 2.05591 18.7801 2.05591C21.592 2.05591 23.8671 4.24058 23.8801 8.07241C23.8801 8.07608 23.8801 8.07925 23.8801 8.08291C23.8799 8.08728 23.8803 8.09951 23.8801 8.10391C23.819 9.56701 23.1067 13.0687 22.0207 16.1049C21.4753 17.6298 20.8255 19.0535 20.1613 20.0529C19.5009 21.0469 18.8504 21.5263 18.4295 21.5439C18.1986 21.5406 18.0626 21.4792 17.9088 21.3549C17.7523 21.2283 17.5844 21.0052 17.4307 20.6934C17.1234 20.0698 16.8899 19.1185 16.6338 18.1209C16.3778 17.1234 16.1043 16.0751 15.5926 15.1914C15.0809 14.3077 14.2284 13.5707 13.0532 13.4799C13.0179 13.4772 12.9823 13.4772 12.947 13.4799C11.7718 13.5707 10.9193 14.3077 10.4076 15.1914C9.89593 16.0751 9.62239 17.1234 9.36634 18.1209C9.1103 19.1185 8.87679 20.0698 8.56947 20.6934C8.41581 21.0052 8.24786 21.2283 8.09134 21.3549C7.9376 21.4792 7.8016 21.542 7.57072 21.5439C7.14981 21.5264 6.49933 21.0469 5.83884 20.0529C5.17473 19.0535 4.52493 17.6298 3.97947 16.1049C2.89344 13.0688 2.18114 9.56701 2.12009 8.10391C2.12009 8.09655 2.12008 8.09027 2.12009 8.08291C2.12001 8.0809 2.12018 8.07456 2.12009 8.07241C2.13312 4.24058 4.40819 2.05591 7.22009 2.05591Z" fill="#5F73F1" stroke="#5F73F1" stroke-width="0.4"/>
</svg>
