<svg width="31" height="24" viewBox="0 0 31 24" fill="none" xmlns="http://www.w3.org/2000/svg">
<path fill-rule="evenodd" clip-rule="evenodd" d="M25.8208 3.01273L24.8122 1.529C24.6249 1.25368 24.3102 1.0885 23.9729 1.0885H19.0304C18.6932 1.0885 18.3782 1.25368 18.1912 1.52865L17.1825 3.01237C16.9338 3.37871 16.9613 3.86203 17.2505 4.19868L18.1997 5.30309C17.2114 5.66636 16.3009 6.187 15.5 6.83374C13.8618 5.51077 11.7646 4.71545 9.48158 4.71545C4.25324 4.71545 0 8.88637 0 14.0135C0 19.1406 4.25324 23.3115 9.48158 23.3115C11.7646 23.3115 13.8617 22.5162 15.5 21.1933C17.1382 22.5163 19.2354 23.3116 21.5184 23.3116C26.7468 23.3116 31 19.1406 31 14.0135C31 10.0214 28.4215 6.60904 24.8119 5.29382L25.753 4.19868C26.0421 3.86244 26.0697 3.37871 25.8208 3.01273ZM16.919 19.7746C18.1874 20.7506 19.7849 21.3332 21.5184 21.3332C25.6342 21.3332 28.9827 18.0495 28.9827 14.0135C28.9827 9.97739 25.6342 6.69371 21.5184 6.69371C19.7849 6.69371 18.1874 7.27629 16.9189 8.2523C18.1984 9.83737 18.9632 11.8395 18.9632 14.0135C18.9632 16.1875 18.1985 18.1896 16.919 19.7746ZM15.5 9.68837C16.4086 10.9009 16.9458 12.3968 16.9458 14.0135C16.9458 15.6301 16.4086 17.126 15.5 18.3386C14.5914 17.126 14.0542 15.6301 14.0542 14.0135C14.0542 12.3968 14.5914 10.9009 15.5 9.68837ZM14.0811 8.25231C12.8016 9.8374 12.0369 11.8395 12.0369 14.0135C12.0369 16.1875 12.8016 18.1896 14.081 19.7747C12.8126 20.7506 11.2151 21.3332 9.48158 21.3332C5.36585 21.3332 2.01736 18.0495 2.01736 14.0135C2.01736 9.97739 5.36585 6.69371 9.48158 6.69371C11.2152 6.69371 12.8126 7.2763 14.0811 8.25231ZM21.5184 4.71545C21.1364 4.71545 20.7595 4.73773 20.3892 4.78102L19.2813 3.49212L19.5701 3.06676H23.4334L23.7222 3.49212L22.6176 4.77754C22.2569 4.73653 21.8901 4.71545 21.5184 4.71545Z" fill="#5F73F1"/>
<path d="M24.8122 1.529L25.0189 1.38845L25.0189 1.3884L24.8122 1.529ZM25.8208 3.01273L25.6141 3.15328L25.6141 3.15329L25.8208 3.01273ZM18.1912 1.52865L17.9845 1.38808L17.9844 1.3881L18.1912 1.52865ZM17.1825 3.01237L16.9758 2.87182L16.9757 2.87192L17.1825 3.01237ZM17.2505 4.19868L17.0608 4.36158L17.0609 4.36164L17.2505 4.19868ZM18.1997 5.30309L18.286 5.53774L18.6242 5.41341L18.3893 5.14013L18.1997 5.30309ZM15.5 6.83374L15.343 7.02824L15.5 7.15508L15.6571 7.02824L15.5 6.83374ZM15.5 21.1933L15.657 20.9988L15.5 20.8719L15.3429 20.9988L15.5 21.1933ZM24.8119 5.29382L24.6223 5.13088L24.3867 5.40499L24.7263 5.52872L24.8119 5.29382ZM25.753 4.19868L25.5634 4.03571L25.5634 4.03574L25.753 4.19868ZM16.919 19.7746L16.7244 19.6176L16.5637 19.8167L16.7665 19.9728L16.919 19.7746ZM16.9189 8.2523L16.7665 8.05416L16.5637 8.21021L16.7244 8.40932L16.9189 8.2523ZM15.5 9.68837L15.7001 9.53846L15.5 9.27145L15.2999 9.53846L15.5 9.68837ZM15.5 18.3386L15.2999 18.4885L15.5 18.7555L15.7001 18.4885L15.5 18.3386ZM14.0811 8.25231L14.2756 8.40934L14.4364 8.21022L14.2335 8.05417L14.0811 8.25231ZM14.081 19.7747L14.2335 19.9728L14.4363 19.8168L14.2756 19.6176L14.081 19.7747ZM20.3892 4.78102L20.1996 4.94397L20.2862 5.04475L20.4182 5.02933L20.3892 4.78102ZM19.2813 3.49212L19.0745 3.35169L18.967 3.50998L19.0917 3.65508L19.2813 3.49212ZM19.5701 3.06676V2.81676H19.4377L19.3633 2.92633L19.5701 3.06676ZM23.4334 3.06676L23.6402 2.92633L23.5658 2.81676H23.4334V3.06676ZM23.7222 3.49212L23.9118 3.65506L24.0365 3.50996L23.929 3.35169L23.7222 3.49212ZM22.6176 4.77754L22.5893 5.02594L22.7209 5.0409L22.8072 4.94048L22.6176 4.77754ZM24.6054 1.66955L25.6141 3.15328L26.0276 2.87218L25.0189 1.38845L24.6054 1.66955ZM23.9729 1.3385C24.2287 1.3385 24.4655 1.46378 24.6055 1.66961L25.0189 1.3884C24.7843 1.04359 24.3917 0.838501 23.9729 0.838501V1.3385ZM19.0304 1.3385H23.9729V0.838501H19.0304V1.3385ZM18.3979 1.66922C18.5375 1.4639 18.7745 1.3385 19.0304 1.3385V0.838501C18.6119 0.838501 18.2188 1.04347 17.9845 1.38808L18.3979 1.66922ZM17.3893 3.15292L18.3979 1.6692L17.9844 1.3881L16.9758 2.87182L17.3893 3.15292ZM17.4401 4.03579C17.2243 3.78459 17.2041 3.42557 17.3894 3.15282L16.9757 2.87192C16.6634 3.33186 16.6983 3.93947 17.0608 4.36158L17.4401 4.03579ZM18.3893 5.14013L17.4401 4.03573L17.0609 4.36164L18.0101 5.46604L18.3893 5.14013ZM15.6571 7.02824C16.4369 6.39847 17.3236 5.89148 18.286 5.53774L18.1135 5.06844C17.0992 5.44124 16.1648 5.97553 15.343 6.63924L15.6571 7.02824ZM15.6571 6.63924C13.9758 5.28148 11.8236 4.46545 9.48158 4.46545V4.96545C11.7057 4.96545 13.7478 5.74006 15.343 7.02824L15.6571 6.63924ZM9.48158 4.46545C4.11979 4.46545 -0.25 8.74371 -0.25 14.0135H0.25C0.25 9.02903 4.38668 4.96545 9.48158 4.96545V4.46545ZM-0.25 14.0135C-0.25 19.2832 4.11979 23.5615 9.48158 23.5615V23.0615C4.38668 23.0615 0.25 18.9979 0.25 14.0135H-0.25ZM9.48158 23.5615C11.8235 23.5615 13.9757 22.7455 15.657 21.3878L15.3429 20.9988C13.7478 22.2869 11.7057 23.0615 9.48158 23.0615V23.5615ZM21.5184 23.0616C19.2943 23.0616 17.2522 22.287 15.657 20.9988L15.3429 21.3878C17.0242 22.7456 19.1764 23.5616 21.5184 23.5616V23.0616ZM30.75 14.0135C30.75 18.998 26.6133 23.0616 21.5184 23.0616V23.5616C26.8802 23.5616 31.25 19.2833 31.25 14.0135H30.75ZM24.7263 5.52872C28.243 6.81008 30.75 10.1325 30.75 14.0135H31.25C31.25 9.91025 28.6 6.40799 24.8975 5.05893L24.7263 5.52872ZM25.5634 4.03574L24.6223 5.13088L25.0015 5.45676L25.9426 4.36162L25.5634 4.03574ZM25.6141 3.15329C25.7993 3.42563 25.779 3.78495 25.5634 4.03571L25.9426 4.36165C26.3051 3.93993 26.3401 3.33179 26.0276 2.87216L25.6141 3.15329ZM16.7665 19.9728C18.0773 20.9814 19.7281 21.5832 21.5184 21.5832V21.0832C19.8417 21.0832 18.2975 20.5199 17.0714 19.5765L16.7665 19.9728ZM21.5184 21.5832C25.7676 21.5832 29.2327 18.1922 29.2327 14.0135H28.7327C28.7327 17.9069 25.5007 21.0832 21.5184 21.0832V21.5832ZM29.2327 14.0135C29.2327 9.83473 25.7676 6.44371 21.5184 6.44371V6.94371C25.5007 6.94371 28.7327 10.12 28.7327 14.0135H29.2327ZM21.5184 6.44371C19.728 6.44371 18.0773 7.04556 16.7665 8.05416L17.0714 8.45043C18.2975 7.50703 19.8417 6.94371 21.5184 6.94371V6.44371ZM19.2132 14.0135C19.2132 11.7796 18.4272 9.7227 17.1135 8.09527L16.7244 8.40932C17.9697 9.95205 18.7132 11.8993 18.7132 14.0135H19.2132ZM17.1135 19.9317C18.4272 18.3042 19.2132 16.2473 19.2132 14.0135H18.7132C18.7132 16.1277 17.9697 18.0749 16.7244 19.6176L17.1135 19.9317ZM15.2999 9.83828C16.1775 11.0095 16.6958 12.4533 16.6958 14.0135H17.1958C17.1958 12.3404 16.6396 10.7923 15.7001 9.53846L15.2999 9.83828ZM16.6958 14.0135C16.6958 15.5737 16.1775 17.0174 15.2999 18.1886L15.7001 18.4885C16.6396 17.2346 17.1958 15.6865 17.1958 14.0135H16.6958ZM13.8042 14.0135C13.8042 15.6865 14.3604 17.2346 15.2999 18.4885L15.7001 18.1886C14.8225 17.0174 14.3042 15.5737 14.3042 14.0135H13.8042ZM15.2999 9.53846C14.3604 10.7923 13.8042 12.3404 13.8042 14.0135H14.3042C14.3042 12.4532 14.8225 11.0095 15.7001 9.83828L15.2999 9.53846ZM12.2869 14.0135C12.2869 11.8993 13.0303 9.95208 14.2756 8.40934L13.8866 8.09528C12.5729 9.72273 11.7869 11.7797 11.7869 14.0135H12.2869ZM14.2756 19.6176C13.0303 18.0749 12.2869 16.1277 12.2869 14.0135H11.7869C11.7869 16.2473 12.5728 18.3043 13.8865 19.9317L14.2756 19.6176ZM13.9286 19.5765C12.7025 20.5199 11.1583 21.0832 9.48158 21.0832V21.5832C11.272 21.5832 12.9227 20.9814 14.2335 19.9728L13.9286 19.5765ZM9.48158 21.0832C5.49929 21.0832 2.26736 17.9069 2.26736 14.0135H1.76736C1.76736 18.1922 5.2324 21.5832 9.48158 21.5832V21.0832ZM2.26736 14.0135C2.26736 10.12 5.49929 6.94371 9.48158 6.94371V6.44371C5.2324 6.44371 1.76736 9.83473 1.76736 14.0135H2.26736ZM9.48158 6.94371C11.1584 6.94371 12.7026 7.50703 13.9286 8.45044L14.2335 8.05417C12.9227 7.04556 11.272 6.44371 9.48158 6.44371V6.94371ZM20.4182 5.02933C20.779 4.98716 21.1461 4.96545 21.5184 4.96545V4.46545C21.1267 4.46545 20.7401 4.48829 20.3601 4.53271L20.4182 5.02933ZM19.0917 3.65508L20.1996 4.94397L20.5788 4.61806L19.4709 3.32916L19.0917 3.65508ZM19.3633 2.92633L19.0745 3.35169L19.4882 3.63255L19.777 3.20719L19.3633 2.92633ZM23.4334 2.81676H19.5701V3.31676H23.4334V2.81676ZM23.929 3.35169L23.6402 2.92633L23.2266 3.20719L23.5154 3.63255L23.929 3.35169ZM22.8072 4.94048L23.9118 3.65506L23.5326 3.32918L22.428 4.6146L22.8072 4.94048ZM21.5184 4.96545C21.8807 4.96545 22.238 4.986 22.5893 5.02594L22.6458 4.52914C22.2758 4.48707 21.8996 4.46545 21.5184 4.46545V4.96545Z" fill="white"/>
</svg>
