<svg width="32" height="22" viewBox="0 0 32 22" fill="none" xmlns="http://www.w3.org/2000/svg">
<path d="M29.8125 19.05V8.40591C29.8125 8.12743 29.7006 7.86036 29.5013 7.66345C29.302 7.46653 29.0318 7.35591 28.75 7.35591H21.3125V2.10591C21.3125 1.82743 21.2006 1.56036 21.0013 1.36345C20.802 1.16653 20.5318 1.05591 20.25 1.05591H11.75C11.4682 1.05591 11.198 1.16653 10.9987 1.36345C10.7994 1.56036 10.6875 1.82743 10.6875 2.10591V5.25591H3.25C2.96821 5.25591 2.69796 5.36653 2.4987 5.56345C2.29944 5.76036 2.1875 6.02743 2.1875 6.30591V19.05C1.90571 19.05 1.63546 19.1606 1.4362 19.3576C1.23694 19.5545 1.125 19.8215 1.125 20.1C1.125 20.3785 1.23694 20.6456 1.4362 20.8425C1.63546 21.0394 1.90571 21.15 2.1875 21.15H29.8125C30.0943 21.15 30.3645 21.0394 30.5638 20.8425C30.7631 20.6456 30.875 20.3785 30.875 20.1C30.875 19.8215 30.7631 19.5545 30.5638 19.3576C30.3645 19.1606 30.0943 19.05 29.8125 19.05ZM4.3125 7.35591H10.6875V19.05H4.3125V7.35591ZM12.8125 3.15591H19.1875V19.05H12.8125V3.15591ZM21.3125 19.05V9.45591H27.6875V19.05H21.3125Z" fill="#5F73F1" stroke="white" stroke-width="0.5"/>
</svg>
