<svg width="28" height="34" viewBox="0 0 28 34" fill="none" xmlns="http://www.w3.org/2000/svg">
<path d="M21.6388 11.9C21.5221 11.5463 21.305 11.2318 21.0124 10.9927C20.7198 10.7536 20.3637 10.5996 19.985 10.5485L17.2725 10.2C17.2256 10.1915 17.1814 10.1725 17.1434 10.1444C17.1055 10.1164 17.0747 10.0801 17.0538 10.0385L15.8375 7.65C15.6687 7.31645 15.4071 7.03551 15.0823 6.83904C14.7576 6.64257 14.3826 6.53843 14 6.53843C13.6174 6.53843 13.2425 6.64257 12.9177 6.83904C12.5929 7.03551 12.3313 7.31645 12.1625 7.65L10.9463 10.03C10.9253 10.0716 10.8945 10.1079 10.8566 10.1359C10.8186 10.164 10.7744 10.183 10.7275 10.1915L8.015 10.574C7.63514 10.6259 7.27792 10.7804 6.98407 11.02C6.69021 11.2595 6.47154 11.5744 6.35298 11.9288C6.23441 12.2832 6.22071 12.6629 6.31345 13.0245C6.40619 13.3861 6.60163 13.7151 6.87751 13.974L8.83751 15.8355C8.87226 15.8679 8.89839 15.9081 8.91363 15.9525C8.92887 15.9969 8.93278 16.0443 8.925 16.0905L8.46126 18.7C8.39739 19.0659 8.43969 19.4418 8.58342 19.7856C8.72716 20.1294 8.96663 20.4275 9.27501 20.6465C9.62503 20.8962 10.0483 21.0302 10.4825 21.029C10.8148 21.0278 11.1419 20.9491 11.4363 20.7995L13.86 19.55C13.9035 19.529 13.9514 19.5181 14 19.5181C14.0486 19.5181 14.0965 19.529 14.14 19.55L16.5638 20.791C16.9016 20.9643 17.2825 21.0424 17.6636 21.0164C18.0447 20.9903 18.4107 20.8612 18.7202 20.6437C19.0298 20.4262 19.2704 20.1288 19.4151 19.7853C19.5597 19.4418 19.6026 19.0659 19.5388 18.7L19.075 16.0735C19.0672 16.0273 19.0711 15.9799 19.0864 15.9355C19.1016 15.8911 19.1277 15.8509 19.1625 15.8185L21.1225 13.957C21.4019 13.6979 21.599 13.3664 21.6905 13.0019C21.782 12.6373 21.764 12.2549 21.6388 11.9ZM19.8888 12.75L17.9375 14.6115C17.6998 14.8363 17.5221 15.1141 17.42 15.4207C17.3178 15.7273 17.2942 16.0535 17.3513 16.371L17.815 18.9975C17.8257 19.0508 17.8198 19.106 17.798 19.156C17.7761 19.206 17.7394 19.2485 17.6925 19.278C17.6456 19.3076 17.5909 19.3234 17.535 19.3234C17.4791 19.3234 17.4244 19.3076 17.3775 19.278L14.9538 18.037C14.6597 17.8866 14.3323 17.808 14 17.808C13.6677 17.808 13.3403 17.8866 13.0463 18.037L10.6225 19.278C10.5756 19.3076 10.5209 19.3234 10.465 19.3234C10.4091 19.3234 10.3544 19.3076 10.3075 19.278C10.2606 19.2485 10.2239 19.206 10.202 19.156C10.1802 19.106 10.1743 19.0508 10.185 18.9975L10.6488 16.371C10.7058 16.0535 10.6822 15.7273 10.58 15.4207C10.4779 15.1141 10.3002 14.8363 10.0625 14.6115L8.09375 12.75C8.0528 12.7129 8.02424 12.6647 8.01176 12.6117C7.99928 12.5586 8.00346 12.5032 8.02376 12.4525C8.03663 12.3997 8.06647 12.3524 8.10895 12.3172C8.15144 12.282 8.20435 12.261 8.26 12.257L10.9725 11.8745C11.3029 11.8276 11.6166 11.7033 11.8864 11.5122C12.1563 11.3212 12.3741 11.0692 12.5213 10.778L13.7288 8.398C13.7523 8.34731 13.7905 8.30431 13.8386 8.27415C13.8867 8.244 13.9427 8.22797 14 8.228C14.0561 8.2282 14.1111 8.24337 14.1589 8.27185C14.2067 8.30033 14.2456 8.34102 14.2713 8.3895L15.4788 10.778C15.6225 11.074 15.839 11.3311 16.109 11.5267C16.3791 11.7223 16.6945 11.8505 17.0275 11.9L19.74 12.2825C19.7957 12.2865 19.8486 12.3075 19.8911 12.3427C19.9335 12.3779 19.9634 12.4252 19.9763 12.478C19.9911 12.5252 19.9924 12.5755 19.9801 12.6234C19.9678 12.6714 19.9422 12.7151 19.9063 12.75H19.8888ZM14 1.7C11.5772 1.7 9.20877 2.39792 7.19427 3.70551C5.17977 5.0131 3.60965 6.87162 2.68248 9.04606C1.75531 11.2205 1.51272 13.6132 1.98539 15.9216C2.45805 18.2299 3.62475 20.3503 5.33795 22.0146C7.05114 23.6788 9.23388 24.8122 11.6101 25.2713C13.9864 25.7305 16.4495 25.4948 18.6879 24.5942C20.9263 23.6935 22.8395 22.1682 24.1855 20.2113C25.5316 18.2543 26.25 15.9536 26.25 13.6C26.25 10.4439 24.9594 7.41711 22.6621 5.18543C20.3647 2.95374 17.2489 1.7 14 1.7ZM14 23.8C11.9233 23.8 9.89323 23.2018 8.16652 22.081C6.4398 20.9602 5.09399 19.3672 4.29927 17.5034C3.50455 15.6396 3.29662 13.5887 3.70176 11.6101C4.1069 9.63147 5.10693 7.814 6.57538 6.38751C8.04384 4.96101 9.91476 3.98956 11.9516 3.59599C13.9884 3.20242 16.0996 3.40441 18.0182 4.17643C19.9368 4.94844 21.5767 6.2558 22.7304 7.93318C23.8842 9.61056 24.5 11.5826 24.5 13.6C24.5 16.3052 23.3938 18.8996 21.4246 20.8125C19.4555 22.7254 16.7848 23.8 14 23.8Z" fill="#5F73F1" stroke="white" stroke-width="0.3"/>
</svg>
