<svg width="22" height="27" viewBox="0 0 22 27" fill="none" xmlns="http://www.w3.org/2000/svg">
<path d="M18.4424 7.76471H18.8571C20.5929 7.76471 22 9.15526 22 10.8706V23.2941C22 25.0094 20.5929 26.4 18.8571 26.4H3.14286C1.4071 26.4 0 25.0094 0 23.2941V10.8706C0 9.15526 1.4071 7.76471 3.14286 7.76471H3.55756C2.81107 6.94047 2.35714 5.85203 2.35714 4.65882C2.35714 2.08583 4.4678 0 7.07143 0C8.71119 0 10.1554 0.827325 11 2.08264C11.8446 0.827325 13.2888 0 14.9286 0C17.5322 0 19.6429 2.08583 19.6429 4.65882C19.6429 5.85203 19.1889 6.94047 18.4424 7.76471ZM10.2143 9.31765H3.14286C2.27498 9.31765 1.57143 10.0129 1.57143 10.8706V16.3059H10.2143V9.31765ZM11.7857 9.31765V16.3059H20.4286V10.8706C20.4286 10.0129 19.725 9.31765 18.8571 9.31765H11.7857ZM20.4286 17.8588H11.7857V24.8471H18.8571C19.725 24.8471 20.4286 24.1518 20.4286 23.2941V17.8588ZM10.2143 24.8471V17.8588H1.57143V23.2941C1.57143 24.1518 2.27498 24.8471 3.14286 24.8471H10.2143ZM10.2143 7.76471V4.65882C10.2143 2.94349 8.80718 1.55294 7.07143 1.55294C5.33568 1.55294 3.92857 2.94349 3.92857 4.65882C3.92857 6.37416 5.33568 7.76471 7.07143 7.76471H10.2143ZM11.7857 7.76471H14.9286C16.6643 7.76471 18.0714 6.37416 18.0714 4.65882C18.0714 2.94349 16.6643 1.55294 14.9286 1.55294C13.1928 1.55294 11.7857 2.94349 11.7857 4.65882V7.76471Z" fill="#5F73F1"/>
</svg>
