<svg width="30" height="16" viewBox="0 0 30 16" fill="none" xmlns="http://www.w3.org/2000/svg">
<path d="M29.3595 13.5468C29.3677 13.5185 29.374 13.4902 29.379 13.4613C29.3847 13.4275 29.3879 13.3942 29.3897 13.3598C29.3904 13.3438 29.3948 13.3278 29.3948 13.3118V3.27608C29.3948 3.25946 29.3904 3.24407 29.3897 3.22746C29.3879 3.19361 29.3847 3.16038 29.379 3.12592C29.374 3.097 29.367 3.06869 29.3595 3.04038C29.3519 3.01146 29.3437 2.98315 29.3323 2.95484C29.3204 2.92284 29.3059 2.89269 29.2907 2.86254C29.2831 2.84838 29.2787 2.83238 29.2705 2.81823C29.2649 2.809 29.2573 2.80161 29.2516 2.79238C29.2339 2.76346 29.2131 2.737 29.1917 2.71054C29.174 2.68777 29.1564 2.66561 29.1368 2.64592C29.1154 2.62377 29.0927 2.60407 29.0693 2.58377C29.0466 2.56469 29.0245 2.545 28.9999 2.52777C28.9747 2.50992 28.9476 2.49515 28.9205 2.47977C28.8952 2.46561 28.8706 2.45146 28.8441 2.43977C28.8145 2.42623 28.7836 2.41638 28.7527 2.40592C28.7255 2.39731 28.6997 2.38808 28.6719 2.38131C28.641 2.37392 28.6095 2.36961 28.5779 2.36531C28.547 2.361 28.5168 2.35731 28.4859 2.35608C28.4732 2.35546 28.4619 2.35238 28.4493 2.35238C28.4303 2.35238 28.4121 2.35669 28.3931 2.35792C28.3616 2.35977 28.3307 2.36223 28.3004 2.36715C28.267 2.37208 28.2354 2.37946 28.2039 2.38808C28.1768 2.39546 28.1503 2.40284 28.1232 2.41269C28.0897 2.425 28.0576 2.43915 28.026 2.45454C28.0115 2.46192 27.9957 2.46623 27.9812 2.47423L22.4286 5.56469C20.7917 2.83977 16.7586 0.953613 11.9143 0.953613C5.57695 0.953613 0.612793 4.17761 0.612793 8.29331C0.612793 12.409 5.57695 15.6336 11.9143 15.6336C16.758 15.6336 20.7911 13.7481 22.4279 11.0232L27.9812 14.113C27.9926 14.1192 28.0039 14.121 28.0153 14.1259C28.0658 14.1518 28.1187 14.1727 28.1743 14.1899C28.1932 14.1955 28.2121 14.2028 28.2317 14.2072C28.301 14.2225 28.3729 14.2336 28.4474 14.2336C28.4486 14.2336 28.4493 14.2342 28.4499 14.2342C28.4505 14.2342 28.4505 14.2342 28.4505 14.2342C28.5275 14.2342 28.6007 14.2225 28.6726 14.2059C28.6921 14.201 28.711 14.1942 28.73 14.1887C28.7836 14.1727 28.8347 14.1524 28.8832 14.1278C28.9028 14.1173 28.923 14.1081 28.9419 14.0964C28.9993 14.0619 29.0535 14.0232 29.1021 13.9782C29.1072 13.9733 29.1141 13.9696 29.1185 13.9647C29.1728 13.9124 29.2169 13.8521 29.2573 13.7887C29.2617 13.7813 29.2686 13.7758 29.2724 13.769C29.2813 13.7548 29.2857 13.7388 29.2926 13.7241C29.3077 13.6939 29.3229 13.6638 29.3342 13.6324C29.3437 13.6035 29.3525 13.5758 29.3595 13.5468ZM2.50384 8.29392C2.50384 6.27977 4.47941 4.47977 7.33427 3.52408C7.87042 4.87977 8.16373 6.48038 8.16373 8.12407C8.16373 9.90007 7.82753 11.6059 7.21253 13.0207C4.42453 12.0545 2.50384 10.2785 2.50384 8.29392ZM11.913 13.7875C10.9183 13.7875 9.95511 13.689 9.04618 13.513C9.69839 11.9173 10.056 10.049 10.056 8.12346C10.056 6.30438 9.74949 4.57515 9.17233 3.04838C10.0434 2.88777 10.9643 2.79977 11.913 2.79977C17.0147 2.79977 21.3241 5.31546 21.3241 8.29331C21.3241 11.2712 17.0147 13.7875 11.913 13.7875ZM23.1085 7.31115L27.5025 4.865V11.7228L23.1079 9.27731C23.1723 8.95546 23.2164 8.62869 23.2164 8.29331C23.2164 7.95915 23.1723 7.63238 23.1085 7.31115Z" fill="#5F73F1" stroke="white" stroke-width="0.5"/>
</svg>
