<svg width="28" height="28" viewBox="0 0 28 28" fill="none" xmlns="http://www.w3.org/2000/svg">
<path d="M14 1C11.4288 1 8.91543 1.76244 6.77759 3.19089C4.63975 4.61935 2.97351 6.64967 1.98957 9.02511C1.00563 11.4006 0.748189 14.0144 1.2498 16.5362C1.7514 19.0579 2.98953 21.3743 4.80762 23.1924C6.6257 25.0105 8.94208 26.2486 11.4638 26.7502C13.9856 27.2518 16.5994 26.9944 18.9749 26.0104C21.3503 25.0265 23.3806 23.3602 24.8091 21.2224C26.2376 19.0846 27 16.5712 27 14C27 10.5522 25.6304 7.24558 23.1924 4.80761C20.7544 2.36964 17.4478 1 14 1ZM14 3.51613C15.7987 3.51643 17.5671 3.97949 19.135 4.8608C20.703 5.74211 22.0179 7.012 22.9532 8.54839H5.04678C5.9821 7.012 7.29697 5.74211 8.86496 4.8608C10.4329 3.97949 12.2013 3.51643 14 3.51613ZM3.93549 16.9355H7.29033C7.84643 16.9355 8.37975 17.1564 8.77297 17.5496C9.16619 17.9428 9.3871 18.4762 9.3871 19.0323V23.4103C8.07991 22.7669 6.92046 21.8593 5.98208 20.7448C5.0437 19.6303 4.34681 18.3332 3.93549 16.9355ZM18.6129 23.4103V19.0323C18.6129 18.4762 18.8338 17.9428 19.227 17.5496C19.6203 17.1564 20.1536 16.9355 20.7097 16.9355H24.0645C23.6532 18.3332 22.9563 19.6303 22.0179 20.7448C21.0795 21.8593 19.9201 22.7669 18.6129 23.4103ZM24.4839 14.4194H20.7097C19.4863 14.4194 18.313 14.9054 17.4479 15.7704C16.5828 16.6355 16.0968 17.8088 16.0968 19.0323V24.2742C14.7131 24.5555 13.2869 24.5555 11.9032 24.2742V19.0323C11.9032 17.8088 11.4172 16.6355 10.5521 15.7704C9.68705 14.9054 8.51374 14.4194 7.29033 14.4194H3.51613C3.51613 14.281 3.51613 14.1426 3.51613 14C3.51568 13.0065 3.65689 12.0181 3.93549 11.0645H24.0645C24.3431 12.0181 24.4843 13.0065 24.4839 14C24.4839 14.1426 24.4839 14.281 24.4839 14.4194Z" fill="#5F73F1" stroke="white"/>
</svg>
