<svg width="31" height="24" viewBox="0 0 31 24" fill="none" xmlns="http://www.w3.org/2000/svg">
<path fill-rule="evenodd" clip-rule="evenodd" d="M25.8208 3.0126L24.8122 1.52888C24.6249 1.25356 24.3102 1.08838 23.9729 1.08838H19.0304C18.6932 1.08838 18.3782 1.25356 18.1912 1.52853L17.1825 3.01225C16.9338 3.37859 16.9613 3.8619 17.2505 4.19856L18.1997 5.30297C17.2114 5.66624 16.3009 6.18688 15.5 6.83362C13.8618 5.51065 11.7646 4.71533 9.48158 4.71533C4.25324 4.71533 0 8.88625 0 14.0133C0 19.1404 4.25324 23.3114 9.48158 23.3114C11.7646 23.3114 13.8617 22.5161 15.5 21.1932C17.1382 22.5161 19.2354 23.3115 21.5184 23.3115C26.7468 23.3115 31 19.1405 31 14.0133C31 10.0213 28.4215 6.60891 24.8119 5.2937L25.753 4.19856C26.0421 3.86232 26.0697 3.37859 25.8208 3.0126ZM16.919 19.7745C18.1874 20.7505 19.7849 21.3331 21.5184 21.3331C25.6342 21.3331 28.9827 18.0494 28.9827 14.0133C28.9827 9.97726 25.6342 6.69359 21.5184 6.69359C19.7849 6.69359 18.1874 7.27617 16.9189 8.25217C18.1984 9.83725 18.9632 11.8393 18.9632 14.0133C18.9632 16.1873 18.1985 18.1894 16.919 19.7745ZM15.5 9.68824C16.4086 10.9008 16.9458 12.3967 16.9458 14.0133C16.9458 15.63 16.4086 17.1259 15.5 18.3384C14.5914 17.1259 14.0542 15.63 14.0542 14.0133C14.0542 12.3967 14.5914 10.9008 15.5 9.68824ZM14.0811 8.25219C12.8016 9.83728 12.0369 11.8394 12.0369 14.0134C12.0369 16.1874 12.8016 18.1895 14.081 19.7745C12.8126 20.7505 11.2151 21.3331 9.48158 21.3331C5.36585 21.3331 2.01736 18.0494 2.01736 14.0133C2.01736 9.97726 5.36585 6.69359 9.48158 6.69359C11.2152 6.69359 12.8126 7.27618 14.0811 8.25219ZM21.5184 4.71533C21.1364 4.71533 20.7595 4.7376 20.3892 4.78089L19.2813 3.492L19.5701 3.06664H23.4334L23.7222 3.492L22.6176 4.77742C22.2569 4.73641 21.8901 4.71533 21.5184 4.71533Z" fill="#5F73F1"/>
<path d="M24.8122 1.52888L25.0189 1.38833L25.0189 1.38828L24.8122 1.52888ZM25.8208 3.0126L25.6141 3.15315L25.6141 3.15317L25.8208 3.0126ZM18.1912 1.52853L17.9845 1.38795L17.9844 1.38798L18.1912 1.52853ZM17.1825 3.01225L16.9758 2.8717L16.9757 2.8718L17.1825 3.01225ZM17.2505 4.19856L17.0608 4.36146L17.0609 4.36152L17.2505 4.19856ZM18.1997 5.30297L18.286 5.53762L18.6242 5.41329L18.3893 5.14001L18.1997 5.30297ZM15.5 6.83362L15.343 7.02811L15.5 7.15495L15.6571 7.02811L15.5 6.83362ZM15.5 21.1932L15.657 20.9987L15.5 20.8718L15.3429 20.9987L15.5 21.1932ZM24.8119 5.2937L24.6223 5.13076L24.3867 5.40487L24.7263 5.52859L24.8119 5.2937ZM25.753 4.19856L25.5634 4.03559L25.5634 4.03562L25.753 4.19856ZM16.919 19.7745L16.7244 19.6175L16.5637 19.8166L16.7665 19.9727L16.919 19.7745ZM16.9189 8.25217L16.7665 8.05404L16.5637 8.21009L16.7244 8.4092L16.9189 8.25217ZM15.5 9.68824L15.7001 9.53833L15.5 9.27133L15.2999 9.53833L15.5 9.68824ZM15.5 18.3384L15.2999 18.4883L15.5 18.7554L15.7001 18.4883L15.5 18.3384ZM14.0811 8.25219L14.2756 8.40921L14.4364 8.2101L14.2335 8.05405L14.0811 8.25219ZM14.081 19.7745L14.2335 19.9727L14.4363 19.8166L14.2756 19.6175L14.081 19.7745ZM20.3892 4.78089L20.1996 4.94385L20.2862 5.04463L20.4182 5.0292L20.3892 4.78089ZM19.2813 3.492L19.0745 3.35157L18.967 3.50986L19.0917 3.65496L19.2813 3.492ZM19.5701 3.06664V2.81664H19.4377L19.3633 2.9262L19.5701 3.06664ZM23.4334 3.06664L23.6402 2.9262L23.5658 2.81664H23.4334V3.06664ZM23.7222 3.492L23.9118 3.65494L24.0365 3.50984L23.929 3.35157L23.7222 3.492ZM22.6176 4.77742L22.5893 5.02582L22.7209 5.04078L22.8072 4.94036L22.6176 4.77742ZM24.6054 1.66943L25.6141 3.15315L26.0276 2.87205L25.0189 1.38833L24.6054 1.66943ZM23.9729 1.33838C24.2287 1.33838 24.4655 1.46365 24.6055 1.66949L25.0189 1.38828C24.7843 1.04347 24.3917 0.838379 23.9729 0.838379V1.33838ZM19.0304 1.33838H23.9729V0.838379H19.0304V1.33838ZM18.3979 1.6691C18.5375 1.46377 18.7745 1.33838 19.0304 1.33838V0.838379C18.6119 0.838379 18.2188 1.04335 17.9845 1.38795L18.3979 1.6691ZM17.3893 3.1528L18.3979 1.66908L17.9844 1.38798L16.9758 2.8717L17.3893 3.1528ZM17.4401 4.03566C17.2243 3.78446 17.2041 3.42545 17.3894 3.1527L16.9757 2.8718C16.6634 3.33173 16.6983 3.93934 17.0608 4.36146L17.4401 4.03566ZM18.3893 5.14001L17.4401 4.0356L17.0609 4.36152L18.0101 5.46592L18.3893 5.14001ZM15.6571 7.02811C16.4369 6.39835 17.3236 5.89136 18.286 5.53762L18.1135 5.06832C17.0992 5.44112 16.1648 5.97541 15.343 6.63912L15.6571 7.02811ZM15.6571 6.63912C13.9758 5.28136 11.8236 4.46533 9.48158 4.46533V4.96533C11.7057 4.96533 13.7478 5.73994 15.343 7.02811L15.6571 6.63912ZM9.48158 4.46533C4.11979 4.46533 -0.25 8.74359 -0.25 14.0133H0.25C0.25 9.0289 4.38668 4.96533 9.48158 4.96533V4.46533ZM-0.25 14.0133C-0.25 19.2831 4.11979 23.5614 9.48158 23.5614V23.0614C4.38668 23.0614 0.25 18.9978 0.25 14.0133H-0.25ZM9.48158 23.5614C11.8235 23.5614 13.9757 22.7454 15.657 21.3877L15.3429 20.9987C13.7478 22.2868 11.7057 23.0614 9.48158 23.0614V23.5614ZM21.5184 23.0615C19.2943 23.0615 17.2522 22.2869 15.657 20.9987L15.3429 21.3877C17.0242 22.7454 19.1764 23.5615 21.5184 23.5615V23.0615ZM30.75 14.0133C30.75 18.9978 26.6133 23.0615 21.5184 23.0615V23.5615C26.8802 23.5615 31.25 19.2831 31.25 14.0133H30.75ZM24.7263 5.52859C28.243 6.80995 30.75 10.1324 30.75 14.0133H31.25C31.25 9.91013 28.6 6.40787 24.8975 5.05881L24.7263 5.52859ZM25.5634 4.03562L24.6223 5.13076L25.0015 5.45664L25.9426 4.3615L25.5634 4.03562ZM25.6141 3.15317C25.7993 3.42551 25.779 3.78483 25.5634 4.03559L25.9426 4.36153C26.3051 3.93981 26.3401 3.33167 26.0276 2.87204L25.6141 3.15317ZM16.7665 19.9727C18.0773 20.9813 19.7281 21.5831 21.5184 21.5831V21.0831C19.8417 21.0831 18.2975 20.5198 17.0714 19.5764L16.7665 19.9727ZM21.5184 21.5831C25.7676 21.5831 29.2327 18.1921 29.2327 14.0133H28.7327C28.7327 17.9068 25.5007 21.0831 21.5184 21.0831V21.5831ZM29.2327 14.0133C29.2327 9.83461 25.7676 6.44359 21.5184 6.44359V6.94359C25.5007 6.94359 28.7327 10.1199 28.7327 14.0133H29.2327ZM21.5184 6.44359C19.728 6.44359 18.0773 7.04543 16.7665 8.05404L17.0714 8.45031C18.2975 7.50691 19.8417 6.94359 21.5184 6.94359V6.44359ZM19.2132 14.0133C19.2132 11.7795 18.4272 9.72257 17.1135 8.09515L16.7244 8.4092C17.9697 9.95193 18.7132 11.8991 18.7132 14.0133H19.2132ZM17.1135 19.9316C18.4272 18.3041 19.2132 16.2472 19.2132 14.0133H18.7132C18.7132 16.1275 17.9697 18.0748 16.7244 19.6175L17.1135 19.9316ZM15.2999 9.83816C16.1775 11.0094 16.6958 12.4531 16.6958 14.0133H17.1958C17.1958 12.3403 16.6396 10.7922 15.7001 9.53833L15.2999 9.83816ZM16.6958 14.0133C16.6958 15.5736 16.1775 17.0173 15.2999 18.1885L15.7001 18.4883C16.6396 17.2345 17.1958 15.6864 17.1958 14.0133H16.6958ZM13.8042 14.0133C13.8042 15.6864 14.3604 17.2345 15.2999 18.4883L15.7001 18.1885C14.8225 17.0173 14.3042 15.5736 14.3042 14.0133H13.8042ZM15.2999 9.53833C14.3604 10.7922 13.8042 12.3403 13.8042 14.0133H14.3042C14.3042 12.4531 14.8225 11.0094 15.7001 9.83816L15.2999 9.53833ZM12.2869 14.0134C12.2869 11.8992 13.0303 9.95196 14.2756 8.40921L13.8866 8.09516C12.5729 9.7226 11.7869 11.7796 11.7869 14.0134H12.2869ZM14.2756 19.6175C13.0303 18.0748 12.2869 16.1276 12.2869 14.0134H11.7869C11.7869 16.2472 12.5728 18.3041 13.8865 19.9316L14.2756 19.6175ZM13.9286 19.5764C12.7025 20.5198 11.1583 21.0831 9.48158 21.0831V21.5831C11.272 21.5831 12.9227 20.9813 14.2335 19.9727L13.9286 19.5764ZM9.48158 21.0831C5.49929 21.0831 2.26736 17.9068 2.26736 14.0133H1.76736C1.76736 18.1921 5.2324 21.5831 9.48158 21.5831V21.0831ZM2.26736 14.0133C2.26736 10.1199 5.49929 6.94359 9.48158 6.94359V6.44359C5.2324 6.44359 1.76736 9.83461 1.76736 14.0133H2.26736ZM9.48158 6.94359C11.1584 6.94359 12.7026 7.50691 13.9286 8.45032L14.2335 8.05405C12.9227 7.04544 11.272 6.44359 9.48158 6.44359V6.94359ZM20.4182 5.0292C20.779 4.98704 21.1461 4.96533 21.5184 4.96533V4.46533C21.1267 4.46533 20.7401 4.48817 20.3601 4.53259L20.4182 5.0292ZM19.0917 3.65496L20.1996 4.94385L20.5788 4.61794L19.4709 3.32904L19.0917 3.65496ZM19.3633 2.9262L19.0745 3.35157L19.4882 3.63243L19.777 3.20707L19.3633 2.9262ZM23.4334 2.81664H19.5701V3.31664H23.4334V2.81664ZM23.929 3.35157L23.6402 2.9262L23.2266 3.20707L23.5154 3.63243L23.929 3.35157ZM22.8072 4.94036L23.9118 3.65494L23.5326 3.32906L22.428 4.61448L22.8072 4.94036ZM21.5184 4.96533C21.8807 4.96533 22.238 4.98588 22.5893 5.02582L22.6458 4.52902C22.2758 4.48695 21.8996 4.46533 21.5184 4.46533V4.96533Z" fill="white"/>
</svg>
