<svg width="29" height="27" viewBox="0 0 29 27" fill="none" xmlns="http://www.w3.org/2000/svg">
<path d="M16.1954 3.03955H12.5408C11.3355 3.03955 10.3925 3.66698 10.0413 4.61234H18.6754C18.2978 3.67353 17.357 3.03955 16.1954 3.03955Z" stroke="white" stroke-width="0.5"/>
<path d="M6.6173 14.962L10.7558 14.8853C11.1259 13.6098 12.2962 12.6748 13.681 12.6748H15.0549C16.5131 12.6748 17.7339 13.7109 18.033 15.0896L22.3554 14.9623C23.4971 14.9623 24.5517 14.519 25.3512 13.715C26.1513 12.9163 26.5903 11.8561 26.5903 10.7276C26.5903 8.3882 24.7024 6.48438 22.3827 6.48438H6.6173C5.49541 6.48438 4.44203 6.92679 3.65184 7.72894C2.84956 8.53577 2.40967 9.59969 2.40967 10.7273C2.40967 13.062 4.29726 14.962 6.6173 14.962Z" stroke="white" stroke-width="0.5"/>
<path d="M22.3827 16.8337L17.9668 16.9644C17.5796 18.2121 16.4208 19.1201 15.0549 19.1201H13.681C12.2417 19.1201 11.0352 18.1104 10.7168 16.7582L6.63441 16.8337C4.9911 16.8337 3.50372 16.1763 2.40942 15.1146V21.2969C2.40942 22.8759 3.68197 24.1601 5.24654 24.1601H23.7532C25.3178 24.1601 26.5904 22.8762 26.5904 21.2969V15.1074C25.4508 16.2181 23.9609 16.8337 22.3827 16.8337Z" stroke="white" stroke-width="0.5"/>
<path d="M13.6814 17.2486H15.0553C15.7113 17.2486 16.2454 16.7114 16.2454 16.0515V15.7445C16.2454 15.0837 15.7116 14.5464 15.0553 14.5464H13.6814C13.0255 14.5464 12.4919 15.0837 12.4919 15.7445V16.0515C12.4919 16.7114 13.0251 17.2486 13.6814 17.2486Z" stroke="white" stroke-width="0.5"/>
<path d="M22.3827 4.61245H20.6139C20.1827 2.62064 18.3971 1.16797 16.1954 1.16797H12.5408C10.2754 1.16797 8.50217 2.60005 8.1125 4.61245H6.61737C4.99576 4.61245 3.47335 5.25111 2.33379 6.40832C1.18338 7.56522 0.550049 9.09963 0.550049 10.727V21.297C0.550049 23.9078 2.65712 26.0319 5.24686 26.0319H23.7535C26.343 26.0319 28.45 23.9078 28.45 21.297V10.727C28.45 7.35587 25.7282 4.61245 22.3827 4.61245ZM12.5408 3.03966H16.1954C17.357 3.03966 18.2976 3.67364 18.6754 4.61245H10.0413C10.3925 3.66709 11.3356 3.03966 12.5408 3.03966ZM3.65191 7.7287C4.44241 6.92624 5.49548 6.48414 6.61737 6.48414H22.3827C24.7028 6.48414 26.5904 8.38765 26.5904 10.7273C26.5904 11.8558 26.1514 12.916 25.3513 13.7147C24.5518 14.5191 23.4972 14.9621 22.3554 14.9621L18.0331 15.0894C17.734 13.7107 16.5132 12.6745 15.0549 12.6745H13.681C12.2963 12.6745 11.126 13.6099 10.7559 14.885L6.61737 14.9618C4.29733 14.9618 2.40974 13.0617 2.40974 10.727C2.40974 9.59946 2.84963 8.53585 3.65191 7.7287ZM12.4919 15.7443C12.4919 15.0835 13.0254 14.5462 13.6813 14.5462H15.0553C15.7112 14.5462 16.2453 15.0835 16.2453 15.7443V16.0513C16.2453 16.7112 15.7115 17.2484 15.0553 17.2484H13.6813C13.0254 17.2484 12.4919 16.7112 12.4919 16.0513V15.7443ZM23.7532 24.1602H5.24686C3.68229 24.1602 2.40974 22.8763 2.40974 21.297V15.1144C3.50404 16.1764 4.99142 16.8335 6.63473 16.8335L10.7171 16.758C11.0355 18.1102 12.242 19.1198 13.6813 19.1198H15.0553C16.4211 19.1198 17.5799 18.2119 17.9671 16.9642L22.383 16.8335C23.9612 16.8335 25.4511 16.2179 26.5907 15.1072V21.297C26.5904 22.8763 25.3178 24.1602 23.7532 24.1602Z" fill="#5F73F1" stroke="white" stroke-width="0.5"/>
</svg>
