<svg width="28" height="24" viewBox="0 0 28 24" fill="none" xmlns="http://www.w3.org/2000/svg">
<path fill-rule="evenodd" clip-rule="evenodd" d="M21.0841 5.75H22.9312L23.7235 9.11734C23.1418 8.96841 22.6556 8.69324 22.2532 8.28753C21.5091 7.53726 21.2069 6.48525 21.0841 5.75ZM20.0116 4H14H7.87507H7.86282H5.25V2.25H22.75V4H20.1081C20.0752 3.99819 20.043 3.99823 20.0116 4ZM19.3141 5.75C19.4437 6.73152 19.8334 8.3273 21.0002 9.50903C21.8273 10.3465 22.8867 10.835 24.1582 10.9648L26.0749 19.1112L17.1359 21.346L14.8049 15.9052C14.5284 15.263 13.4714 15.263 13.1967 15.9052L10.8639 21.346L1.92492 19.1112L3.84165 10.9648C5.11331 10.8351 6.17285 10.3466 7.00007 9.509C8.16708 8.32697 8.55669 6.73144 8.68622 5.75H13.125V10.125C13.125 10.608 13.517 11 14 11C14.483 11 14.875 10.608 14.875 10.125V5.75H19.3141ZM25.7389 10.0436L27.9754 19.5487C28.0857 20.0142 27.8004 20.4815 27.3367 20.5987L16.8367 23.2237C16.7667 23.2412 16.6949 23.25 16.6249 23.25C16.2819 23.25 15.9617 23.047 15.8199 22.7197L13.9999 18.4725L12.1782 22.7215C12.0102 23.1152 11.5814 23.327 11.1614 23.2255L0.661416 20.6005C0.195916 20.485 -0.0875838 20.016 0.0209163 19.5505L2.26428 10.0162C2.2721 9.95325 2.2866 9.89239 2.30707 9.83433L3.5 4.76436V1.375C3.5 0.892 3.892 0.5 4.375 0.5H23.625C24.108 0.5 24.5 0.892 24.5 1.375V4.77819L25.6836 9.80861C25.7124 9.8826 25.7313 9.96146 25.7389 10.0436ZM5.75407 8.2805C5.3497 8.69036 4.86116 8.96775 4.27632 9.11744L5.06863 5.75H6.91488C6.79172 6.484 6.49054 7.53466 5.75407 8.2805Z" fill="#5F73F1"/>
<path d="M22.9312 5.75L23.0772 5.71565L23.05 5.6H22.9312V5.75ZM21.0841 5.75V5.6H20.907L20.9362 5.7747L21.0841 5.75ZM23.7235 9.11734L23.6863 9.26266L23.9262 9.32409L23.8695 9.08299L23.7235 9.11734ZM22.2532 8.28753L22.1467 8.39316L22.1467 8.39317L22.2532 8.28753ZM20.0116 4V4.15024L20.02 4.14976L20.0116 4ZM5.25 4H5.1V4.15H5.25V4ZM5.25 2.25V2.1H5.1V2.25H5.25ZM22.75 2.25H22.9V2.1H22.75V2.25ZM22.75 4V4.15H22.9V4H22.75ZM20.1081 4L20.0999 4.15H20.1081V4ZM21.0002 9.50903L20.8934 9.61442L20.8934 9.61444L21.0002 9.50903ZM19.3141 5.75L19.4628 5.73036L19.4456 5.6H19.3141V5.75ZM24.1582 10.9648L24.3042 10.9305L24.2797 10.8265L24.1734 10.8156L24.1582 10.9648ZM26.0749 19.1112L26.1113 19.2567L26.2548 19.2209L26.2209 19.0769L26.0749 19.1112ZM17.1359 21.346L16.998 21.405L17.0484 21.5225L17.1723 21.4915L17.1359 21.346ZM14.8049 15.9052L14.9428 15.8461L14.9427 15.8459L14.8049 15.9052ZM13.1967 15.9052L13.3345 15.9643L13.3346 15.9642L13.1967 15.9052ZM10.8639 21.346L10.8275 21.4915L10.9514 21.5225L11.0018 21.4051L10.8639 21.346ZM1.92492 19.1112L1.7789 19.0769L1.74502 19.2209L1.88854 19.2567L1.92492 19.1112ZM3.84165 10.9648L3.82642 10.8156L3.72011 10.8265L3.69564 10.9305L3.84165 10.9648ZM7.00007 9.509L7.10679 9.6144L7.10681 9.61438L7.00007 9.509ZM8.68622 5.75V5.6H8.55472L8.53751 5.73037L8.68622 5.75ZM13.125 5.75H13.275V5.6H13.125V5.75ZM14.875 5.75V5.6H14.725V5.75H14.875ZM27.9754 19.5487L27.8294 19.5831L27.8295 19.5833L27.9754 19.5487ZM25.7389 10.0436L25.5896 10.0574L25.5905 10.0678L25.5929 10.078L25.7389 10.0436ZM27.3367 20.5987L27.373 20.7442L27.3734 20.7441L27.3367 20.5987ZM16.8367 23.2237L16.873 23.3692H16.873L16.8367 23.2237ZM15.8199 22.7197L15.682 22.7788L15.6823 22.7793L15.8199 22.7197ZM13.9999 18.4725L14.1378 18.4134L14 18.0917L13.8621 18.4134L13.9999 18.4725ZM12.1782 22.7215L12.0403 22.6624L12.0402 22.6626L12.1782 22.7215ZM11.1614 23.2255L11.125 23.371L11.1262 23.3713L11.1614 23.2255ZM0.661416 20.6005L0.697797 20.4549L0.697539 20.4549L0.661416 20.6005ZM0.0209163 19.5505L-0.125097 19.5161L-0.125168 19.5164L0.0209163 19.5505ZM2.26428 10.0162L2.41029 10.0505L2.41214 10.0427L2.41314 10.0347L2.26428 10.0162ZM2.30707 9.83433L2.44854 9.88419L2.45123 9.87656L2.45308 9.86869L2.30707 9.83433ZM3.5 4.76436L3.64601 4.79872L3.65 4.78177V4.76436H3.5ZM24.5 4.77819H24.35V4.7956L24.354 4.81255L24.5 4.77819ZM25.6836 9.80861L25.5376 9.84296L25.54 9.85315L25.5438 9.86292L25.6836 9.80861ZM4.27632 9.11744L4.13031 9.08308L4.07359 9.32416L4.31351 9.26275L4.27632 9.11744ZM5.75407 8.2805L5.64733 8.17511L5.64729 8.17515L5.75407 8.2805ZM5.06863 5.75V5.6H4.94983L4.92262 5.71565L5.06863 5.75ZM6.91488 5.75L7.06281 5.77482L7.09215 5.6H6.91488V5.75ZM22.9312 5.6H21.0841V5.9H22.9312V5.6ZM23.8695 9.08299L23.0772 5.71565L22.7852 5.78435L23.5775 9.1517L23.8695 9.08299ZM22.1467 8.39317C22.569 8.81898 23.0796 9.10731 23.6863 9.26266L23.7607 8.97203C23.2041 8.82951 22.7421 8.56749 22.3597 8.1819L22.1467 8.39317ZM20.9362 5.7747C21.0608 6.52081 21.37 7.60996 22.1467 8.39316L22.3597 8.18191C21.6483 7.46456 21.353 6.44969 21.2321 5.7253L20.9362 5.7747ZM14 4.15H20.0116V3.85H14V4.15ZM7.87507 4.15H14V3.85H7.87507V4.15ZM7.86282 4.15H7.87507V3.85H7.86282V4.15ZM5.25 4.15H7.86282V3.85H5.25V4.15ZM5.1 2.25V4H5.4V2.25H5.1ZM22.75 2.1H5.25V2.4H22.75V2.1ZM22.9 4V2.25H22.6V4H22.9ZM20.1081 4.15H22.75V3.85H20.1081V4.15ZM20.02 4.14976C20.0458 4.14831 20.0725 4.14827 20.0999 4.14977L20.1163 3.85023C20.078 3.84812 20.0402 3.84815 20.0031 3.85024L20.02 4.14976ZM21.1069 9.40365C19.9742 8.25633 19.5908 6.69958 19.4628 5.73036L19.1654 5.76964C19.2966 6.76345 19.6927 8.39827 20.8934 9.61442L21.1069 9.40365ZM24.1734 10.8156C22.9334 10.689 21.9074 10.2142 21.1069 9.40363L20.8934 9.61444C21.7472 10.4789 22.84 10.981 24.1429 11.1141L24.1734 10.8156ZM26.2209 19.0769L24.3042 10.9305L24.0122 10.9992L25.9289 19.1456L26.2209 19.0769ZM17.1723 21.4915L26.1113 19.2567L26.0385 18.9657L17.0995 21.2004L17.1723 21.4915ZM14.667 15.9643L16.998 21.405L17.2738 21.2869L14.9428 15.8461L14.667 15.9643ZM13.3346 15.9642C13.4422 15.7127 13.7097 15.5735 14.0001 15.5735C14.2906 15.5735 14.5587 15.7127 14.6671 15.9645L14.9427 15.8459C14.7746 15.4555 14.376 15.2735 14.0001 15.2735C13.6243 15.2735 13.2259 15.4555 13.0588 15.8462L13.3346 15.9642ZM11.0018 21.4051L13.3345 15.9643L13.0588 15.8461L10.7261 21.2869L11.0018 21.4051ZM1.88854 19.2567L10.8275 21.4915L10.9003 21.2004L1.9613 18.9657L1.88854 19.2567ZM3.69564 10.9305L1.7789 19.0769L2.07093 19.1456L3.98766 10.9992L3.69564 10.9305ZM6.89334 9.4036C6.09277 10.2142 5.0666 10.6891 3.82642 10.8156L3.85688 11.1141C5.16002 10.9811 6.25294 10.479 7.10679 9.6144L6.89334 9.4036ZM8.53751 5.73037C8.40961 6.6995 8.02636 8.256 6.89333 9.40361L7.10681 9.61438C8.3078 8.39794 8.70378 6.76338 8.83493 5.76963L8.53751 5.73037ZM13.125 5.6H8.68622V5.9H13.125V5.6ZM13.275 10.125V5.75H12.975V10.125H13.275ZM14 10.85C13.5998 10.85 13.275 10.5252 13.275 10.125H12.975C12.975 10.6908 13.4342 11.15 14 11.15V10.85ZM14.725 10.125C14.725 10.5252 14.4002 10.85 14 10.85V11.15C14.5658 11.15 15.025 10.6908 15.025 10.125H14.725ZM14.725 5.75V10.125H15.025V5.75H14.725ZM19.3141 5.6H14.875V5.9H19.3141V5.6ZM28.1214 19.5144L25.8849 10.0092L25.5929 10.078L27.8294 19.5831L28.1214 19.5144ZM27.3734 20.7441C27.9162 20.6069 28.2506 20.0599 28.1214 19.5141L27.8295 19.5833C27.9207 19.9686 27.6847 20.356 27.2999 20.4533L27.3734 20.7441ZM16.873 23.3692L27.373 20.7442L27.3003 20.4532L16.8003 23.0782L16.873 23.3692ZM16.6249 23.4C16.7073 23.4 16.7912 23.3897 16.873 23.3692L16.8003 23.0782C16.7421 23.0927 16.6826 23.1 16.6249 23.1V23.4ZM15.6823 22.7793C15.8481 23.1622 16.223 23.4 16.6249 23.4V23.1C16.3409 23.1 16.0752 22.9317 15.9576 22.6601L15.6823 22.7793ZM13.862 18.5316L15.682 22.7788L15.9578 22.6606L14.1378 18.4134L13.862 18.5316ZM12.316 22.7806L14.1378 18.5316L13.8621 18.4134L12.0403 22.6624L12.316 22.7806ZM11.1262 23.3713C11.616 23.4896 12.1188 23.2428 12.3161 22.7803L12.0402 22.6626C11.9015 22.9877 11.5468 23.1643 11.1967 23.0797L11.1262 23.3713ZM0.625036 20.746L11.125 23.371L11.1978 23.0799L0.697797 20.4549L0.625036 20.746ZM-0.125168 19.5164C-0.252106 20.061 0.0794333 20.6106 0.625294 20.7461L0.697539 20.4549C0.312399 20.3593 0.0769381 19.9709 0.167001 19.5845L-0.125168 19.5164ZM2.11827 9.98182L-0.125096 19.5161L0.166929 19.5848L2.41029 10.0505L2.11827 9.98182ZM2.1656 9.78447C2.14159 9.85258 2.12458 9.92395 2.11542 9.99768L2.41314 10.0347C2.41961 9.98255 2.43162 9.9322 2.44854 9.88419L2.1656 9.78447ZM3.35399 4.73001L2.16105 9.79998L2.45308 9.86869L3.64601 4.79872L3.35399 4.73001ZM3.35 1.375V4.76436H3.65V1.375H3.35ZM4.375 0.35C3.80916 0.35 3.35 0.809157 3.35 1.375H3.65C3.65 0.974843 3.97484 0.65 4.375 0.65V0.35ZM23.625 0.35H4.375V0.65H23.625V0.35ZM24.65 1.375C24.65 0.809157 24.1908 0.35 23.625 0.35V0.65C24.0252 0.65 24.35 0.974843 24.35 1.375H24.65ZM24.65 4.77819V1.375H24.35V4.77819H24.65ZM25.8296 9.77425L24.646 4.74383L24.354 4.81255L25.5376 9.84296L25.8296 9.77425ZM25.5438 9.86292C25.5676 9.9241 25.5833 9.98934 25.5896 10.0574L25.8883 10.0298C25.8794 9.93358 25.8572 9.84109 25.8235 9.7543L25.5438 9.86292ZM4.31351 9.26275C4.92358 9.10661 5.43651 8.81595 5.86085 8.38585L5.64729 8.17515C5.26289 8.56477 4.79875 8.82889 4.23913 8.97212L4.31351 9.26275ZM4.92262 5.71565L4.13031 9.08308L4.42233 9.15179L5.21465 5.78435L4.92262 5.71565ZM6.91488 5.6H5.06863V5.9H6.91488V5.6ZM5.8608 8.38589C6.62981 7.60711 6.93789 6.51933 7.06281 5.77482L6.76695 5.72518C6.64555 6.44866 6.35127 7.46222 5.64733 8.17511L5.8608 8.38589Z" fill="white"/>
</svg>
