<svg width="30" height="20" viewBox="0 0 30 20" fill="none" xmlns="http://www.w3.org/2000/svg">
<path d="M29.1143 16.7338V3.13418C29.1142 3.01896 29.0842 2.90581 29.0273 2.80608C28.9705 2.70634 28.8888 2.62354 28.7904 2.56599C28.692 2.50843 28.5805 2.47815 28.4669 2.47818C28.3534 2.47821 28.2418 2.50855 28.1435 2.56616L20.9596 6.77212V4.28335C20.9596 3.41255 20.6187 2.57742 20.0118 1.96167C19.4049 1.34592 18.5818 1 17.7236 1H4.23599C3.37775 1 2.55467 1.34592 1.9478 1.96167C1.34093 2.57742 1 3.41255 1 4.28335V15.5846C1 16.4554 1.34093 17.2906 1.9478 17.9063C2.55467 18.522 3.37775 18.868 4.23599 18.868H17.7236C18.1486 18.868 18.5693 18.783 18.962 18.618C19.3546 18.453 19.7113 18.2112 20.0118 17.9063C20.3123 17.6014 20.5506 17.2395 20.7133 16.8411C20.8759 16.4428 20.9596 16.0158 20.9596 15.5846V13.0958L28.1435 17.3051C28.2418 17.3627 28.3534 17.393 28.4669 17.3931C28.5805 17.3931 28.692 17.3628 28.7904 17.3053C28.8888 17.2477 28.9705 17.1649 29.0273 17.0652C29.0842 16.9654 29.1142 16.8523 29.1143 16.7371V16.7338ZM19.6652 15.5846C19.6652 16.1071 19.4606 16.6082 19.0965 16.9776C18.7324 17.3471 18.2385 17.5546 17.7236 17.5546H4.23599C3.72105 17.5546 3.2272 17.3471 2.86308 16.9776C2.49896 16.6082 2.2944 16.1071 2.2944 15.5846V4.28335C2.2944 3.76087 2.49896 3.25979 2.86308 2.89034C3.2272 2.52089 3.72105 2.31334 4.23599 2.31334H17.7236C18.2385 2.31334 18.7324 2.52089 19.0965 2.89034C19.4606 3.25979 19.6652 3.76087 19.6652 4.28335V15.5846ZM27.8199 15.5846L20.9596 11.5757V8.29231L27.8199 4.2735V15.5846Z" fill="#5F73F1" stroke="#5F73F1" stroke-width="0.3"/>
</svg>
