<svg width="25" height="25" viewBox="0 0 25 25" fill="none" xmlns="http://www.w3.org/2000/svg">
<path d="M24.2188 8.9124C24.2188 6.5874 22.2656 4.6499 19.9219 4.6499C19.8438 4.6499 19.7656 4.6499 19.6875 4.6499C18.125 2.2474 15.3906 0.774902 12.5 0.774902C9.29688 0.774902 6.32812 2.5574 4.84375 5.4249C2.65625 5.3474 0.78125 7.1299 0.78125 9.2999C0.78125 11.2374 2.1875 12.7874 3.98438 13.0974L5.46875 23.3274C5.54688 23.7149 5.85938 24.0249 6.25 24.0249H18.75C19.1406 24.0249 19.4531 23.7149 19.5312 23.3274L21.0156 13.0199C22.8906 12.5549 24.2188 10.8499 24.2188 8.9124ZM18.0469 22.4749H6.95312L5.625 13.1749H19.4531L18.0469 22.4749ZM19.9219 11.6249C19.8438 11.6249 19.7656 11.6249 19.7656 11.6249H19.6875C19.6094 11.6249 19.6094 11.6249 19.6094 11.6249H5.625C5.46875 11.5474 5.3125 11.5474 5.15625 11.5474C5 11.6249 4.84375 11.6249 4.6875 11.6249C3.4375 11.6249 2.34375 10.5399 2.34375 9.2999C2.34375 7.9824 3.4375 6.9749 4.6875 6.9749C4.84375 6.9749 5 6.9749 5.15625 7.0524C5.54688 7.1299 5.85938 6.8974 6.01562 6.5874C7.10938 3.9524 9.6875 2.3249 12.5 2.3249C15 2.3249 17.3438 3.7199 18.5938 5.8899C18.75 6.1224 19.1406 6.2774 19.4531 6.1999C19.6094 6.1999 19.7656 6.1999 19.9219 6.1999C21.4062 6.1999 22.6562 7.4399 22.6562 8.9124C22.6562 10.3849 21.4062 11.6249 19.9219 11.6249Z" fill="#5F73F1"/>
<path d="M11.9531 21.4673C12.1094 21.6223 12.3438 21.6998 12.5 21.6998C12.7344 21.6998 12.8906 21.6223 13.0469 21.4673L15.625 18.6773C16.6406 17.5923 16.6406 15.8873 15.625 14.8023C14.8438 13.9498 13.4375 13.7173 12.4219 14.3373C11.7188 13.9498 10.8594 13.8723 10.1563 14.1823C9.84375 14.3373 9.53125 14.5698 9.29688 14.8023C8.28125 15.8873 8.28125 17.5923 9.29688 18.6773L11.9531 21.4673ZM10.4687 15.8098C10.5469 15.7323 10.7031 15.6548 10.7813 15.5773C10.9375 15.4998 11.0938 15.4998 11.1719 15.4998C11.4063 15.4998 11.7188 15.5773 11.875 15.8098C12.0312 15.9648 12.2656 16.0423 12.4219 16.0423C12.6562 16.0423 12.8125 15.9648 12.9688 15.8098C13.3594 15.4223 13.9844 15.4223 14.375 15.8098C14.8438 16.2748 14.8438 17.1273 14.375 17.5923L12.5 19.7623L10.4687 17.5923C10.0781 17.1273 10.0781 16.2748 10.4687 15.8098Z" fill="#5F73F1"/>
</svg>
