<svg width="29" height="16" viewBox="0 0 29 16" fill="none" xmlns="http://www.w3.org/2000/svg">
<path fill-rule="evenodd" clip-rule="evenodd" d="M24.4688 15.4001H16.3125C16.2219 15.4001 16.1331 15.3857 16.0479 15.3623L9.0625 13.2347V14.5001C9.0625 14.9969 8.6565 15.4001 8.15625 15.4001H0.90625C0.406 15.4001 0 14.9969 0 14.5001V1.90011C0 1.61391 0.13775 1.34391 0.36975 1.17471C0.603562 1.00551 0.90625 0.955111 1.17631 1.04151C5.22363 2.29971 7.54906 2.06751 11.5511 1.02891C11.919 0.935311 12.3069 1.07751 12.5262 1.38711C12.5697 1.44831 16.9324 7.56471 24.5449 8.20371C28.6665 8.54571 29.0018 10.4087 29 12.6227C29 14.6927 26.5586 15.4001 24.4688 15.4001ZM16.4484 13.6001H24.4688C25.5762 13.5965 27.1875 13.2455 27.1875 12.7001V12.6967C27.1875 10.9298 27.1875 10.2286 24.3926 9.99651C21.5062 9.75451 19.0602 8.83152 17.0815 7.70794L14.9676 8.97051C14.8207 9.05871 14.6594 9.10011 14.4999 9.10011C14.1936 9.10011 13.8946 8.94531 13.7242 8.66451C13.465 8.23971 13.6046 7.68531 14.0323 7.42791L15.3809 6.62243C15.0367 6.37729 14.7123 6.12997 14.4079 5.88457L12.247 7.17222C12.102 7.26042 11.9406 7.30002 11.7811 7.30002C11.473 7.30002 11.174 7.14342 11.0036 6.86262C10.7462 6.43782 10.8858 5.88342 11.3153 5.62782L12.9894 4.63029C12.2718 3.935 11.7473 3.32559 11.4224 2.92071C7.86263 3.80811 5.38494 4.03491 1.8125 3.09711V13.6001H7.25V12.0161C7.25 11.7317 7.38594 11.4617 7.61794 11.2925C7.84994 11.1215 8.15081 11.0693 8.42269 11.1575L16.4484 13.6001Z" fill="#5F73F1"/>
<path d="M16.0479 15.3623L16.0042 15.5059L16.0081 15.507L16.0479 15.3623ZM9.0625 13.2347L9.1062 13.0912L8.9125 13.0322V13.2347H9.0625ZM0.36975 1.17471L0.281811 1.05319L0.281363 1.05352L0.36975 1.17471ZM1.17631 1.04151L1.1306 1.18438L1.13178 1.18475L1.17631 1.04151ZM11.5511 1.02891L11.5141 0.88354L11.5134 0.883721L11.5511 1.02891ZM12.5262 1.38711L12.4038 1.47382L12.4039 1.47401L12.5262 1.38711ZM24.5449 8.20371L24.5323 8.35319L24.5325 8.3532L24.5449 8.20371ZM29 12.6227L28.85 12.6226V12.6227H29ZM24.4688 13.6001V13.7501L24.4692 13.7501L24.4688 13.6001ZM16.4484 13.6001L16.4048 13.7436L16.4261 13.7501H16.4484V13.6001ZM27.1875 12.6967H27.0375H27.1875ZM24.3926 9.99651L24.3801 10.146L24.3802 10.146L24.3926 9.99651ZM17.0815 7.70794L17.1556 7.5775L17.0796 7.53436L17.0046 7.57916L17.0815 7.70794ZM14.9676 8.97051L14.8906 8.84173L14.8903 8.84193L14.9676 8.97051ZM13.7242 8.66451L13.8524 8.5867L13.8522 8.58638L13.7242 8.66451ZM14.0323 7.42791L13.9554 7.29913L13.955 7.29938L14.0323 7.42791ZM15.3809 6.62243L15.4579 6.75121L15.655 6.63347L15.468 6.50025L15.3809 6.62243ZM14.4079 5.88457L14.5021 5.7678L14.4208 5.70229L14.3311 5.75571L14.4079 5.88457ZM12.247 7.17222L12.1702 7.04335L12.169 7.04406L12.247 7.17222ZM11.0036 6.86262L10.8753 6.94034L10.8753 6.94043L11.0036 6.86262ZM11.3153 5.62782L11.392 5.75672L11.3921 5.75668L11.3153 5.62782ZM12.9894 4.63029L13.0662 4.75915L13.2345 4.65888L13.0938 4.52257L12.9894 4.63029ZM11.4224 2.92071L11.5394 2.82684L11.4793 2.75194L11.3861 2.77517L11.4224 2.92071ZM1.8125 3.09711L1.85059 2.95203L1.6625 2.90265V3.09711H1.8125ZM1.8125 13.6001H1.6625V13.7501H1.8125V13.6001ZM7.25 13.6001V13.7501H7.4V13.6001H7.25ZM7.61794 11.2925L7.70633 11.4137L7.70694 11.4133L7.61794 11.2925ZM8.42269 11.1575L8.37639 11.3002L8.37901 11.301L8.42269 11.1575ZM16.3125 15.5501H24.4688V15.2501H16.3125V15.5501ZM16.0081 15.507C16.1037 15.5332 16.206 15.5501 16.3125 15.5501V15.2501C16.2377 15.2501 16.1624 15.2382 16.0876 15.2177L16.0081 15.507ZM9.0188 13.3782L16.0042 15.5058L16.0916 15.2188L9.1062 13.0912L9.0188 13.3782ZM9.2125 14.5001V13.2347H8.9125V14.5001H9.2125ZM8.15625 15.5501C8.73836 15.5501 9.2125 15.0807 9.2125 14.5001H8.9125C8.9125 14.9131 8.57464 15.2501 8.15625 15.2501V15.5501ZM0.90625 15.5501H8.15625V15.2501H0.90625V15.5501ZM-0.15 14.5001C-0.15 15.0807 0.324138 15.5501 0.90625 15.5501V15.2501C0.487862 15.2501 0.15 14.9131 0.15 14.5001H-0.15ZM-0.15 1.90011V14.5001H0.15V1.90011H-0.15ZM0.281363 1.05352C0.0108559 1.2508 -0.15 1.56573 -0.15 1.90011H0.15C0.15 1.66209 0.264644 1.43702 0.458137 1.2959L0.281363 1.05352ZM1.22202 0.898645C0.905351 0.797334 0.55322 0.856787 0.281812 1.05319L0.457688 1.29623C0.653905 1.15424 0.907149 1.11289 1.13061 1.18438L1.22202 0.898645ZM11.5134 0.883721C9.51536 1.40225 7.94727 1.71629 6.37779 1.74654C4.81031 1.77675 3.23348 1.52395 1.22084 0.898273L1.13178 1.18475C3.16645 1.81727 4.776 2.07747 6.38357 2.04648C7.98914 2.01554 9.58476 1.69418 11.5887 1.1741L11.5134 0.883721ZM12.6486 1.30041C12.3933 0.939998 11.942 0.77469 11.5141 0.883542L11.588 1.17428C11.896 1.09593 12.2205 1.21503 12.4038 1.47382L12.6486 1.30041ZM24.5574 8.05424C17.0164 7.42124 12.6885 1.35663 12.6484 1.30021L12.4039 1.47401C12.4508 1.54 16.8483 7.70818 24.5323 8.35319L24.5574 8.05424ZM29.15 12.6228C29.1509 11.5165 29.0704 10.4496 28.438 9.62026C27.8015 8.78551 26.6355 8.22667 24.5573 8.05423L24.5325 8.3532C26.5759 8.52275 27.6384 9.06641 28.1994 9.80217C28.7647 10.5434 28.8509 11.5149 28.85 12.6226L29.15 12.6228ZM24.4688 15.5501C25.5268 15.5501 26.6852 15.3716 27.5851 14.9218C28.4901 14.4695 29.15 13.7317 29.15 12.6227H28.85C28.85 13.5837 28.2892 14.2346 27.451 14.6535C26.6077 15.0749 25.5006 15.2501 24.4688 15.2501V15.5501ZM24.4688 13.4501H16.4484V13.7501H24.4688V13.4501ZM27.0375 12.7001C27.0375 12.7572 26.9938 12.8422 26.8366 12.9446C26.686 13.0427 26.466 13.1329 26.2018 13.2092C25.6751 13.3613 25.0094 13.4484 24.4683 13.4501L24.4692 13.7501C25.0356 13.7483 25.7292 13.658 26.285 13.4974C26.5621 13.4173 26.8142 13.3172 27.0003 13.196C27.1798 13.0791 27.3375 12.9157 27.3375 12.7001H27.0375ZM27.0375 12.6967V12.7001H27.3375V12.6967H27.0375ZM24.3802 10.146C25.0745 10.2036 25.5855 10.2898 25.9626 10.4107C26.3384 10.5311 26.5717 10.683 26.7222 10.8663C26.8728 11.0495 26.9536 11.2798 26.9952 11.5824C27.0372 11.8879 27.0375 12.2516 27.0375 12.6967H27.3375C27.3375 12.2583 27.3378 11.8718 27.2924 11.5416C27.2467 11.2086 27.1528 10.9177 26.954 10.6758C26.7553 10.4339 26.4645 10.2565 26.0542 10.125C25.6453 9.99393 25.1082 9.90541 24.405 9.84703L24.3802 10.146ZM17.0075 7.83838C19.0017 8.9708 21.4685 9.90188 24.3801 10.146L24.4052 9.84704C21.5439 9.60715 19.1187 8.69225 17.1556 7.5775L17.0075 7.83838ZM17.0046 7.57916L14.8906 8.84173L15.0445 9.09929L17.1584 7.83672L17.0046 7.57916ZM14.8903 8.84193C14.7677 8.91558 14.6333 8.95011 14.4999 8.95011V9.25011C14.6856 9.25011 14.8738 9.20184 15.0448 9.09909L14.8903 8.84193ZM14.4999 8.95011C14.2436 8.95011 13.9944 8.82065 13.8524 8.5867L13.5959 8.74232C13.7947 9.06996 14.1436 9.25011 14.4999 9.25011V8.95011ZM13.8522 8.58638C13.637 8.23365 13.7521 7.77157 14.1096 7.55643L13.955 7.29938C13.457 7.59905 13.293 8.24576 13.5961 8.74263L13.8522 8.58638ZM14.1092 7.55669L15.4579 6.75121L15.304 6.49365L13.9554 7.29913L14.1092 7.55669ZM14.3138 6.00135C14.6204 6.24853 14.9472 6.49765 15.2939 6.74461L15.468 6.50025C15.1263 6.25692 14.8043 6.01142 14.5021 5.7678L14.3138 6.00135ZM12.3237 7.30107L14.4847 6.01343L14.3311 5.75571L12.1702 7.04336L12.3237 7.30107ZM11.7811 7.45002C11.9655 7.45002 12.1543 7.40417 12.3249 7.30037L12.169 7.04406C12.0496 7.11667 11.9158 7.15002 11.7811 7.15002V7.45002ZM10.8753 6.94043C11.0739 7.26771 11.4226 7.45002 11.7811 7.45002V7.15002C11.5235 7.15002 11.274 7.01912 11.1318 6.78481L10.8753 6.94043ZM11.2386 5.49891C10.7381 5.79676 10.5744 6.4437 10.8753 6.94034L11.1319 6.78489C10.918 6.43193 11.0335 5.97008 11.392 5.75672L11.2386 5.49891ZM12.9126 4.50144L11.2385 5.49896L11.3921 5.75668L13.0662 4.75915L12.9126 4.50144ZM11.3054 3.01459C11.6335 3.42356 12.1623 4.03773 12.885 4.73802L13.0938 4.52257C12.3813 3.83226 11.861 3.22762 11.5394 2.82684L11.3054 3.01459ZM1.77441 3.2422C5.37849 4.1883 7.883 3.95762 11.4587 3.06626L11.3861 2.77517C7.84225 3.6586 5.39138 3.88152 1.85059 2.95203L1.77441 3.2422ZM1.9625 13.6001V3.09711H1.6625V13.6001H1.9625ZM7.25 13.4501H1.8125V13.7501H7.25V13.4501ZM7.1 12.0161V13.6001H7.4V12.0161H7.1ZM7.52955 11.1713C7.25865 11.3689 7.1 11.684 7.1 12.0161H7.4C7.4 11.7794 7.51322 11.5545 7.70632 11.4137L7.52955 11.1713ZM8.46898 11.0148C8.14962 10.9112 7.79859 10.973 7.52894 11.1718L7.70694 11.4133C7.90129 11.27 8.152 11.2274 8.3764 11.3002L8.46898 11.0148ZM16.4921 13.4566L8.46636 11.014L8.37901 11.301L16.4048 13.7436L16.4921 13.4566Z" fill="white"/>
</svg>
