<svg width="26" height="26" viewBox="0 0 26 26" fill="none" xmlns="http://www.w3.org/2000/svg">
<path fill-rule="evenodd" clip-rule="evenodd" d="M16.3599 4.60796V3.58396C16.3599 2.76922 16.0059 1.98784 15.3758 1.41173C14.7457 0.835619 13.891 0.511963 12.9999 0.511963C12.1088 0.511963 11.2541 0.835619 10.624 1.41173C9.99389 1.98784 9.63989 2.76922 9.63989 3.58396V4.60796C9.63989 5.42271 9.99389 6.20408 10.624 6.7802C11.2541 7.35631 12.1088 7.67996 12.9999 7.67996C13.891 7.67996 14.7457 7.35631 15.3758 6.7802C16.0059 6.20408 16.3599 5.42271 16.3599 4.60796ZM11.8799 4.60796V3.58396C11.8799 3.31238 11.9979 3.05192 12.2079 2.85989C12.418 2.66785 12.7029 2.55996 12.9999 2.55996C13.2969 2.55996 13.5818 2.66785 13.7919 2.85989C14.0019 3.05192 14.1199 3.31238 14.1199 3.58396V4.60796C14.1199 4.87954 14.0019 5.14 13.7919 5.33204C13.5818 5.52408 13.2969 5.63196 12.9999 5.63196C12.7029 5.63196 12.418 5.52408 12.2079 5.33204C11.9979 5.14 11.8799 4.87954 11.8799 4.60796ZM7.39993 9.72801V10.752C7.39993 11.5668 7.04593 12.3481 6.41581 12.9242C5.78569 13.5003 4.93106 13.824 4.03993 13.824C3.1488 13.824 2.29417 13.5003 1.66405 12.9242C1.03393 12.3481 0.679932 11.5668 0.679932 10.752V9.72801C0.679932 8.91326 1.03393 8.13189 1.66405 7.55577C2.29417 6.97966 3.1488 6.65601 4.03993 6.65601C4.93106 6.65601 5.78569 6.97966 6.41581 7.55577C7.04593 8.13189 7.39993 8.91326 7.39993 9.72801ZM2.91993 9.72801V10.752C2.91993 11.0236 3.03793 11.284 3.24797 11.4761C3.45801 11.6681 3.74289 11.776 4.03993 11.776C4.33697 11.776 4.62185 11.6681 4.83189 11.4761C5.04193 11.284 5.15993 11.0236 5.15993 10.752V9.72801C5.15993 9.45642 5.04193 9.19597 4.83189 9.00393C4.62185 8.81189 4.33697 8.70401 4.03993 8.70401C3.74289 8.70401 3.45801 8.81189 3.24797 9.00393C3.03793 9.19597 2.91993 9.45642 2.91993 9.72801ZM10.1831 24.1024C9.35251 24.7469 8.29607 25.0967 7.20672 25.088C4.84352 25.088 2.91992 23.5034 2.91992 21.5552C2.92854 20.6189 3.30519 19.7166 3.98112 19.0131C5.59208 17.3228 6.96109 15.4517 8.05512 13.4451L8.87272 11.9296C9.59512 10.5933 11.2163 9.72803 12.9999 9.72803C14.7835 9.72803 16.4047 10.5933 17.1271 11.9322L18.3759 14.2362C19.1488 15.6514 20.2247 16.9102 21.5399 17.938C22.0154 18.3045 22.3991 18.7604 22.6648 19.2746C22.9305 19.7887 23.0721 20.3492 23.0799 20.9178V21.5552C23.0799 23.5034 21.1563 25.088 18.7931 25.088C17.7049 25.098 16.6492 24.749 15.8195 24.105L15.6235 23.9488C14.886 23.3897 13.958 23.0837 12.9999 23.0837C12.0418 23.0837 11.1139 23.3897 10.3763 23.9488L10.1831 24.1024ZM10.0627 14.3514C8.89781 16.4961 7.43843 18.4963 5.71992 20.3034C5.36955 20.6425 5.1699 21.0888 5.15992 21.5552C5.15992 22.3744 6.08672 23.04 7.20672 23.04C7.75632 23.0457 8.29059 22.8745 8.71592 22.5562L8.90912 22.4C10.0448 21.5003 11.4972 21.005 12.9999 21.005C14.5027 21.005 15.955 21.5003 17.0907 22.4L17.2867 22.5562C17.7107 22.8749 18.2443 23.0462 18.7931 23.04C19.9215 23.04 20.8399 22.3744 20.8399 21.5552V20.9178C20.832 20.644 20.7594 20.3749 20.6269 20.1292C20.4945 19.8835 20.3054 19.667 20.0727 19.4944C18.532 18.2842 17.2716 16.8045 16.3655 15.1424L15.1167 12.8384C14.7751 12.2035 13.9239 11.776 12.9999 11.776C12.0759 11.776 11.2247 12.2035 10.8831 12.8359L10.0627 14.3514ZM25.3201 8.70408V9.72808C25.3201 10.5428 24.9661 11.3242 24.336 11.9003C23.7059 12.4764 22.8512 12.8001 21.9601 12.8001C21.069 12.8001 20.2143 12.4764 19.5842 11.9003C18.9541 11.3242 18.6001 10.5428 18.6001 9.72808V8.70408C18.6001 7.88934 18.9541 7.10796 19.5842 6.53185C20.2143 5.95574 21.069 5.63208 21.9601 5.63208C22.8512 5.63208 23.7059 5.95574 24.336 6.53185C24.9661 7.10796 25.3201 7.88934 25.3201 8.70408ZM22.7521 10.4522C22.9621 10.2601 23.0801 9.99966 23.0801 9.72808V8.70408C23.0801 8.4325 22.9621 8.17204 22.7521 7.98C22.542 7.78797 22.2571 7.68008 21.9601 7.68008C21.6631 7.68008 21.3782 7.78797 21.1681 7.98C20.9581 8.17204 20.8401 8.4325 20.8401 8.70408V9.72808C20.8401 9.99966 20.9581 10.2601 21.1681 10.4522C21.3782 10.6442 21.6631 10.7521 21.9601 10.7521C22.2571 10.7521 22.542 10.6442 22.7521 10.4522Z" fill="#5F73F1"/>
<path d="M15.3758 1.41173L15.1733 1.63314L15.3758 1.41173ZM10.624 1.41173L10.8264 1.63314L10.624 1.41173ZM12.2079 2.85989L12.4104 3.08129V3.08129L12.2079 2.85989ZM13.7919 2.85989L13.5894 3.08129V3.08129L13.7919 2.85989ZM13.7919 5.33204L13.5894 5.11063V5.11063L13.7919 5.33204ZM12.2079 5.33204L12.4104 5.11063V5.11063L12.2079 5.33204ZM6.41581 12.9242L6.21338 12.7028L6.41581 12.9242ZM1.66405 12.9242L1.46162 13.1456L1.66405 12.9242ZM1.66405 7.55577L1.46162 7.33436L1.46162 7.33437L1.66405 7.55577ZM6.41581 7.55577L6.61824 7.33436L6.41581 7.55577ZM3.24797 11.4761L3.4504 11.2547H3.4504L3.24797 11.4761ZM4.83189 11.4761L4.62946 11.2547H4.62946L4.83189 11.4761ZM4.83189 9.00393L4.62946 9.22534H4.62946L4.83189 9.00393ZM3.24797 9.00393L3.4504 9.22534H3.4504L3.24797 9.00393ZM7.20672 25.088L7.20912 24.788H7.20672V25.088ZM10.1831 24.1024L10.367 24.3395L10.3698 24.3373L10.1831 24.1024ZM2.91992 21.5552L2.61992 21.5525V21.5552H2.91992ZM3.98112 19.0131L4.19745 19.221L4.1983 19.2201L3.98112 19.0131ZM8.05512 13.4451L8.31852 13.5888L8.31915 13.5876L8.05512 13.4451ZM8.87272 11.9296L8.60881 11.787L8.60869 11.7872L8.87272 11.9296ZM17.1271 11.9322L16.8631 12.0746L16.8634 12.0751L17.1271 11.9322ZM18.3759 14.2362L18.1122 14.3791L18.1126 14.38L18.3759 14.2362ZM21.5399 17.938L21.3552 18.1743L21.3568 18.1755L21.5399 17.938ZM22.6648 19.2746L22.3983 19.4123L22.6648 19.2746ZM23.0799 20.9178H23.3799L23.3799 20.9137L23.0799 20.9178ZM18.7931 25.088V24.788L18.7904 24.788L18.7931 25.088ZM15.8195 24.105L15.6326 24.3396L15.6356 24.342L15.8195 24.105ZM15.6235 23.9488L15.8105 23.7141L15.8048 23.7098L15.6235 23.9488ZM10.3763 23.9488L10.195 23.7097L10.1896 23.714L10.3763 23.9488ZM5.71992 20.3034L5.92875 20.5191L5.93732 20.5101L5.71992 20.3034ZM10.0627 14.3514L10.3263 14.4946L10.3265 14.4942L10.0627 14.3514ZM5.15992 21.5552L4.85992 21.5488V21.5552H5.15992ZM7.20672 23.04L7.20984 22.74H7.20672V23.04ZM8.71592 22.5562L8.89579 22.7966L8.90451 22.7895L8.71592 22.5562ZM8.90912 22.4L8.72282 22.1649L8.72054 22.1667L8.90912 22.4ZM17.0907 22.4L17.2777 22.1654L17.277 22.1649L17.0907 22.4ZM17.2867 22.5562L17.0997 22.7909L17.1065 22.796L17.2867 22.5562ZM18.7931 23.04V22.74L18.7897 22.7401L18.7931 23.04ZM20.8399 20.9178H21.14L21.1398 20.9091L20.8399 20.9178ZM20.6269 20.1292L20.3628 20.2716L20.6269 20.1292ZM20.0727 19.4944L19.8873 19.7304L19.894 19.7354L20.0727 19.4944ZM16.3655 15.1424L16.1018 15.2854L16.1021 15.286L16.3655 15.1424ZM15.1167 12.8384L14.8525 12.9806L14.853 12.9814L15.1167 12.8384ZM10.8831 12.8359L11.1469 12.9787L11.1471 12.9785L10.8831 12.8359ZM24.336 11.9003L24.1335 11.6789L24.336 11.9003ZM19.5842 11.9003L19.7866 11.6789L19.5842 11.9003ZM19.5842 6.53185L19.7866 6.75326V6.75326L19.5842 6.53185ZM24.336 6.53185L24.1335 6.75326V6.75326L24.336 6.53185ZM22.7521 10.4522L22.9545 10.6736V10.6736L22.7521 10.4522ZM22.7521 7.98L22.9545 7.75859L22.9545 7.75859L22.7521 7.98ZM21.9601 7.68008V7.98008V7.68008ZM21.1681 7.98L21.3706 8.20141V8.20141L21.1681 7.98ZM21.1681 10.4522L21.3706 10.2307L21.3706 10.2307L21.1681 10.4522ZM16.0599 3.58396V4.60796H16.6599V3.58396H16.0599ZM15.1733 1.63314C15.7447 2.15549 16.0599 2.8579 16.0599 3.58396H16.6599C16.6599 2.68054 16.2671 1.82019 15.5782 1.19032L15.1733 1.63314ZM12.9999 0.811963C13.8197 0.811963 14.6011 1.10996 15.1733 1.63314L15.5782 1.19032C14.8902 0.561275 13.9623 0.211963 12.9999 0.211963V0.811963ZM10.8264 1.63314C11.3987 1.10996 12.1801 0.811963 12.9999 0.811963V0.211963C12.0374 0.211963 11.1096 0.561275 10.4216 1.19032L10.8264 1.63314ZM9.93989 3.58396C9.93989 2.8579 10.2551 2.15549 10.8264 1.63314L10.4216 1.19032C9.73266 1.82019 9.33989 2.68054 9.33989 3.58396H9.93989ZM9.93989 4.60796V3.58396H9.33989V4.60796H9.93989ZM10.8264 6.55879C10.2551 6.03643 9.93989 5.33403 9.93989 4.60796H9.33989C9.33989 5.51139 9.73266 6.37174 10.4216 7.0016L10.8264 6.55879ZM12.9999 7.37996C12.1801 7.37996 11.3987 7.08196 10.8264 6.55879L10.4216 7.0016C11.1096 7.63065 12.0374 7.97996 12.9999 7.97996V7.37996ZM15.1733 6.55879C14.6011 7.08196 13.8197 7.37996 12.9999 7.37996V7.97996C13.9623 7.97996 14.8902 7.63065 15.5782 7.0016L15.1733 6.55879ZM16.0599 4.60796C16.0599 5.33403 15.7447 6.03643 15.1733 6.55879L15.5782 7.0016C16.2671 6.37174 16.6599 5.51139 16.6599 4.60796H16.0599ZM11.5799 3.58396V4.60796H12.1799V3.58396H11.5799ZM12.0055 2.63848C11.7367 2.88427 11.5799 3.2237 11.5799 3.58396H12.1799C12.1799 3.40106 12.2591 3.21957 12.4104 3.08129L12.0055 2.63848ZM12.9999 2.25996C12.6315 2.25996 12.2734 2.3935 12.0055 2.63848L12.4104 3.08129C12.5625 2.94219 12.7742 2.85996 12.9999 2.85996V2.25996ZM13.9943 2.63848C13.7263 2.3935 13.3683 2.25996 12.9999 2.25996V2.85996C13.2256 2.85996 13.4373 2.94219 13.5894 3.08129L13.9943 2.63848ZM14.4199 3.58396C14.4199 3.2237 14.2631 2.88427 13.9943 2.63848L13.5894 3.08129C13.7407 3.21957 13.8199 3.40106 13.8199 3.58396H14.4199ZM14.4199 4.60796V3.58396H13.8199V4.60796H14.4199ZM13.9943 5.55345C14.2631 5.30766 14.4199 4.96823 14.4199 4.60796H13.8199C13.8199 4.79086 13.7407 4.97235 13.5894 5.11063L13.9943 5.55345ZM12.9999 5.93196C13.3683 5.93196 13.7263 5.79842 13.9943 5.55345L13.5894 5.11063C13.4373 5.24973 13.2256 5.33196 12.9999 5.33196V5.93196ZM12.0055 5.55345C12.2734 5.79842 12.6315 5.93196 12.9999 5.93196V5.33196C12.7742 5.33196 12.5625 5.24973 12.4104 5.11063L12.0055 5.55345ZM11.5799 4.60796C11.5799 4.96823 11.7367 5.30766 12.0055 5.55345L12.4104 5.11063C12.2591 4.97235 12.1799 4.79086 12.1799 4.60796H11.5799ZM7.69993 10.752V9.72801H7.09993V10.752H7.69993ZM6.61824 13.1456C7.30716 12.5158 7.69993 11.6554 7.69993 10.752H7.09993C7.09993 11.4781 6.7847 12.1805 6.21338 12.7028L6.61824 13.1456ZM4.03993 14.124C5.00238 14.124 5.93022 13.7747 6.61824 13.1456L6.21338 12.7028C5.64115 13.226 4.85974 13.524 4.03993 13.524V14.124ZM1.46162 13.1456C2.14964 13.7747 3.07748 14.124 4.03993 14.124V13.524C3.22012 13.524 2.43871 13.226 1.86648 12.7028L1.46162 13.1456ZM0.379932 10.752C0.379932 11.6554 0.772703 12.5158 1.46162 13.1456L1.86648 12.7028C1.29516 12.1805 0.979932 11.4781 0.979932 10.752H0.379932ZM0.379932 9.72801V10.752H0.979932V9.72801H0.379932ZM1.46162 7.33437C0.772703 7.96423 0.379932 8.82458 0.379932 9.72801H0.979932C0.979932 9.00194 1.29516 8.29954 1.86648 7.77718L1.46162 7.33437ZM4.03993 6.35601C3.07748 6.35601 2.14964 6.70532 1.46162 7.33436L1.86648 7.77718C2.43871 7.25401 3.22012 6.95601 4.03993 6.95601V6.35601ZM6.61824 7.33436C5.93022 6.70532 5.00238 6.35601 4.03993 6.35601V6.95601C4.85974 6.95601 5.64115 7.25401 6.21338 7.77718L6.61824 7.33436ZM7.69993 9.72801C7.69993 8.82458 7.30716 7.96423 6.61824 7.33436L6.21338 7.77718C6.7847 8.29954 7.09993 9.00194 7.09993 9.72801H7.69993ZM3.21993 10.752V9.72801H2.61993V10.752H3.21993ZM3.4504 11.2547C3.29916 11.1164 3.21993 10.9349 3.21993 10.752H2.61993C2.61993 11.1123 2.7767 11.4517 3.04554 11.6975L3.4504 11.2547ZM4.03993 11.476C3.81421 11.476 3.60254 11.3938 3.4504 11.2547L3.04554 11.6975C3.31348 11.9425 3.67157 12.076 4.03993 12.076V11.476ZM4.62946 11.2547C4.47732 11.3938 4.26565 11.476 4.03993 11.476V12.076C4.40829 12.076 4.76638 11.9425 5.03432 11.6975L4.62946 11.2547ZM4.85993 10.752C4.85993 10.9349 4.7807 11.1164 4.62946 11.2547L5.03432 11.6975C5.30316 11.4517 5.45993 11.1123 5.45993 10.752H4.85993ZM4.85993 9.72801V10.752H5.45993V9.72801H4.85993ZM4.62946 9.22534C4.7807 9.36362 4.85993 9.54511 4.85993 9.72801H5.45993C5.45993 9.36774 5.30316 9.02831 5.03432 8.78252L4.62946 9.22534ZM4.03993 9.00401C4.26565 9.00401 4.47732 9.08624 4.62946 9.22534L5.03432 8.78252C4.76638 8.53755 4.40829 8.40401 4.03993 8.40401V9.00401ZM3.4504 9.22534C3.60254 9.08624 3.81421 9.00401 4.03993 9.00401V8.40401C3.67157 8.40401 3.31348 8.53755 3.04554 8.78252L3.4504 9.22534ZM3.21993 9.72801C3.21993 9.54511 3.29916 9.36362 3.4504 9.22534L3.04554 8.78252C2.7767 9.02831 2.61993 9.36774 2.61993 9.72801H3.21993ZM7.20433 25.388C8.35846 25.3972 9.4811 25.0268 10.367 24.3395L9.99922 23.8654C9.22391 24.467 8.23369 24.7962 7.20912 24.788L7.20433 25.388ZM2.61992 21.5552C2.61992 23.7208 4.73478 25.388 7.20672 25.388V24.788C4.95227 24.788 3.21992 23.286 3.21992 21.5552H2.61992ZM3.7648 18.8053C3.03829 19.5614 2.62929 20.5361 2.61993 21.5525L3.21991 21.558C3.22779 20.7017 3.57209 19.8718 4.19745 19.221L3.7648 18.8053ZM7.79173 13.3015C6.71053 15.2845 5.35719 17.1344 3.76395 18.8062L4.1983 19.2201C5.82697 17.5111 7.21164 15.6189 8.31852 13.5888L7.79173 13.3015ZM8.60869 11.7872L7.79109 13.3027L8.31915 13.5876L9.13675 12.0721L8.60869 11.7872ZM12.9999 9.42803C11.1291 9.42803 9.39371 10.335 8.60882 11.787L9.13663 12.0723C9.79653 10.8516 11.3035 10.028 12.9999 10.028V9.42803ZM17.3911 11.7897C16.6063 10.3351 14.8708 9.42803 12.9999 9.42803V10.028C14.6963 10.028 16.2032 10.8515 16.8631 12.0746L17.3911 11.7897ZM18.6397 14.0932L17.3909 11.7892L16.8634 12.0751L18.1122 14.3791L18.6397 14.0932ZM21.7246 17.7016C20.4405 16.6981 19.3918 15.4704 18.6392 14.0924L18.1126 14.38C18.9058 15.8324 20.0089 17.1223 21.3552 18.1743L21.7246 17.7016ZM22.9313 19.1368C22.6447 18.5822 22.232 18.0927 21.7231 17.7004L21.3568 18.1755C21.7989 18.5164 22.1535 18.9386 22.3983 19.4123L22.9313 19.1368ZM23.3799 20.9137C23.3714 20.2977 23.218 19.6916 22.9313 19.1368L22.3983 19.4123C22.643 19.8859 22.7728 20.4007 22.7799 20.9219L23.3799 20.9137ZM23.3799 21.5552V20.9178H22.7799V21.5552H23.3799ZM18.7931 25.388C21.2651 25.388 23.3799 23.7208 23.3799 21.5552H22.7799C22.7799 23.286 21.0476 24.788 18.7931 24.788V25.388ZM15.6356 24.342C16.5206 25.029 17.6427 25.3985 18.7959 25.388L18.7904 24.788C17.767 24.7974 16.7777 24.469 16.0035 23.868L15.6356 24.342ZM15.4366 24.1835L15.6326 24.3396L16.0065 23.8704L15.8105 23.7142L15.4366 24.1835ZM12.9999 23.3837C13.895 23.3837 14.7588 23.6698 15.4423 24.1879L15.8048 23.7098C15.0131 23.1096 14.021 22.7837 12.9999 22.7837V23.3837ZM10.5576 24.1879C11.241 23.6698 12.1048 23.3837 12.9999 23.3837V22.7837C11.9789 22.7837 10.9867 23.1096 10.1951 23.7098L10.5576 24.1879ZM10.3698 24.3373L10.563 24.1837L10.1896 23.714L9.99642 23.8676L10.3698 24.3373ZM5.93732 20.5101C7.67356 18.6844 9.1486 16.6629 10.3263 14.4946L9.7991 14.2082C8.64701 16.3293 7.2033 18.3082 5.50253 20.0967L5.93732 20.5101ZM5.45985 21.5616C5.46806 21.1781 5.63213 20.8059 5.92857 20.519L5.51128 20.0878C5.10697 20.4792 4.87175 20.9995 4.85999 21.5488L5.45985 21.5616ZM7.20672 22.74C6.7036 22.74 6.25483 22.59 5.93912 22.3617C5.62271 22.1329 5.45992 21.8436 5.45992 21.5552H4.85992C4.85992 22.0861 5.16053 22.5391 5.58752 22.8479C6.01522 23.1572 6.58984 23.34 7.20672 23.34V22.74ZM8.53619 22.316C8.16552 22.5934 7.69603 22.7451 7.20984 22.74L7.2036 23.34C7.81661 23.3464 8.41566 23.1556 8.89566 22.7964L8.53619 22.316ZM8.72054 22.1667L8.52734 22.3229L8.90451 22.7895L9.09771 22.6333L8.72054 22.1667ZM12.9999 20.705C11.4323 20.705 9.91362 21.2215 8.72283 22.1649L9.09542 22.6352C10.176 21.7791 11.5621 21.305 12.9999 21.305V20.705ZM17.277 22.1649C16.0862 21.2215 14.5676 20.705 12.9999 20.705V21.305C14.4377 21.305 15.8238 21.7791 16.9044 22.6352L17.277 22.1649ZM17.4737 22.3216L17.2777 22.1654L16.9038 22.6347L17.0998 22.7908L17.4737 22.3216ZM18.7897 22.7401C18.3046 22.7455 17.8361 22.5938 17.467 22.3164L17.1065 22.796C17.5853 23.1559 18.184 23.3469 18.7965 23.34L18.7897 22.7401ZM20.5399 21.5552C20.5399 21.8446 20.3782 22.1338 20.0635 22.362C19.7493 22.5899 19.3008 22.74 18.7931 22.74V23.34C19.4138 23.34 19.9887 23.1574 20.4158 22.8477C20.8424 22.5383 21.1399 22.0851 21.1399 21.5552H20.5399ZM20.5399 20.9178V21.5552H21.1399V20.9178H20.5399ZM20.3628 20.2716C20.4735 20.4769 20.5335 20.7003 20.54 20.9264L21.1398 20.9091C21.1305 20.5877 21.0452 20.273 20.891 19.9869L20.3628 20.2716ZM19.894 19.7354C20.0928 19.8828 20.2521 20.0661 20.3628 20.2716L20.891 19.9869C20.7369 19.701 20.5181 19.4512 20.2514 19.2534L19.894 19.7354ZM16.1021 15.286C17.0284 16.9851 18.3158 18.4959 19.8874 19.7304L20.258 19.2585C18.7482 18.0726 17.5148 16.6239 16.6289 14.9988L16.1021 15.286ZM14.853 12.9814L16.1018 15.2854L16.6293 14.9995L15.3805 12.6955L14.853 12.9814ZM12.9999 12.076C13.8498 12.076 14.5784 12.4711 14.8525 12.9806L15.3809 12.6963C14.9718 11.936 13.9981 11.476 12.9999 11.476V12.076ZM11.1471 12.9785C11.4211 12.4712 12.15 12.076 12.9999 12.076V11.476C12.0019 11.476 11.0284 11.9359 10.6192 12.6933L11.1471 12.9785ZM10.3265 14.4942L11.1469 12.9787L10.6193 12.6931L9.7989 14.2086L10.3265 14.4942ZM25.6201 9.72808V8.70408H25.0201V9.72808H25.6201ZM24.5384 12.1217C25.2273 11.4919 25.6201 10.6315 25.6201 9.72808H25.0201C25.0201 10.4541 24.7049 11.1565 24.1335 11.6789L24.5384 12.1217ZM21.9601 13.1001C22.9225 13.1001 23.8504 12.7508 24.5384 12.1217L24.1335 11.6789C23.5613 12.2021 22.7799 12.5001 21.9601 12.5001V13.1001ZM19.3818 12.1217C20.0698 12.7508 20.9977 13.1001 21.9601 13.1001V12.5001C21.1403 12.5001 20.3589 12.2021 19.7866 11.6789L19.3818 12.1217ZM18.3001 9.72808C18.3001 10.6315 18.6929 11.4919 19.3818 12.1217L19.7866 11.6789C19.2153 11.1565 18.9001 10.4541 18.9001 9.72808H18.3001ZM18.3001 8.70408V9.72808H18.9001V8.70408H18.3001ZM19.3818 6.31044C18.6929 6.94031 18.3001 7.80065 18.3001 8.70408H18.9001C18.9001 7.97802 19.2153 7.27561 19.7866 6.75326L19.3818 6.31044ZM21.9601 5.33208C20.9977 5.33208 20.0698 5.68139 19.3818 6.31044L19.7866 6.75326C20.3589 6.23008 21.1403 5.93208 21.9601 5.93208V5.33208ZM24.5384 6.31044C23.8504 5.68139 22.9225 5.33208 21.9601 5.33208V5.93208C22.7799 5.93208 23.5613 6.23008 24.1335 6.75326L24.5384 6.31044ZM25.6201 8.70408C25.6201 7.80065 25.2273 6.94031 24.5384 6.31044L24.1335 6.75326C24.7049 7.27561 25.0201 7.97802 25.0201 8.70408H25.6201ZM22.7801 9.72808C22.7801 9.91098 22.7009 10.0925 22.5496 10.2307L22.9545 10.6736C23.2233 10.4278 23.3801 10.0883 23.3801 9.72808H22.7801ZM22.7801 8.70408V9.72808H23.3801V8.70408H22.7801ZM22.5496 8.20141C22.7009 8.33969 22.7801 8.52118 22.7801 8.70408H23.3801C23.3801 8.34382 23.2233 8.00439 22.9545 7.75859L22.5496 8.20141ZM21.9601 7.98008C22.1858 7.98008 22.3975 8.06231 22.5496 8.20141L22.9545 7.75859C22.6866 7.51362 22.3285 7.38008 21.9601 7.38008V7.98008ZM21.3706 8.20141C21.5227 8.06231 21.7344 7.98008 21.9601 7.98008V7.38008C21.5917 7.38008 21.2336 7.51362 20.9657 7.75859L21.3706 8.20141ZM21.1401 8.70408C21.1401 8.52118 21.2193 8.33969 21.3706 8.20141L20.9657 7.75859C20.6969 8.00439 20.5401 8.34382 20.5401 8.70408H21.1401ZM21.1401 9.72808V8.70408H20.5401V9.72808H21.1401ZM21.3706 10.2307C21.2193 10.0925 21.1401 9.91098 21.1401 9.72808H20.5401C20.5401 10.0883 20.6969 10.4278 20.9657 10.6736L21.3706 10.2307ZM21.9601 10.4521C21.7344 10.4521 21.5227 10.3699 21.3706 10.2307L20.9657 10.6736C21.2336 10.9185 21.5917 11.0521 21.9601 11.0521V10.4521ZM22.5496 10.2307C22.3975 10.3699 22.1858 10.4521 21.9601 10.4521V11.0521C22.3285 11.0521 22.6866 10.9185 22.9545 10.6736L22.5496 10.2307Z" fill="white"/>
</svg>
