<svg width="29" height="25" viewBox="0 0 29 25" fill="none" xmlns="http://www.w3.org/2000/svg">
<path d="M25.8361 14.8222C25.7477 14.9101 17.3233 23.4495 17.3233 23.4495C16.5093 24.2729 15.43 24.7263 14.281 24.7263C13.132 24.7263 12.0528 24.2729 11.2387 23.4495L2.72593 14.8222C-0.548944 11.5007 -0.548944 6.09766 2.72593 2.77625C4.31685 1.1618 6.43808 0.273621 8.68956 0.273621C10.7689 0.273621 12.732 1.03227 14.2764 2.41542C15.8208 1.03227 17.7838 0.273621 19.8632 0.273621C22.1193 0.273621 24.2359 1.1618 25.8268 2.77625C29.1017 6.09766 29.1017 11.5007 25.8268 14.8222H25.8361ZM24.6127 3.96974C23.3474 2.68373 21.6635 1.98059 19.8725 1.98059C18.0816 1.98059 16.3976 2.68835 15.1323 3.96974C15.0672 4.0345 15.0114 4.11314 14.9323 4.18253C14.4997 4.56185 13.9973 4.54335 13.6437 4.18253C13.5693 4.10389 13.5042 4.0345 13.4437 3.96974C12.1784 2.68373 10.4945 1.98059 8.70351 1.98059C6.91256 1.98059 5.22861 2.68835 3.96331 3.96974C1.33504 6.63427 1.33504 10.9641 3.96331 13.6287C4.0424 13.7073 12.4761 22.256 12.4761 22.256C12.9599 22.7464 13.6065 23.0193 14.2903 23.0193C14.9742 23.0193 15.6208 22.7464 16.1045 22.256L24.6174 13.6287C27.2456 10.9641 27.2456 6.63427 24.6174 3.96974H24.6127Z" fill="#5F73F1" stroke="#5F73F1" stroke-width="0.0845077" stroke-miterlimit="22.9256"/>
</svg>
