<svg width="25" height="26" viewBox="0 0 25 26" fill="none" xmlns="http://www.w3.org/2000/svg">
<path d="M17.5605 7.46721C18.2983 8.44733 19.4707 9.08222 20.7888 9.08222C23.0162 9.08222 24.8281 7.26944 24.8281 5.04117C24.8281 2.8129 23.0162 1 20.7888 1C19.0826 1 17.6212 2.06432 17.0301 3.5637C15.5244 3.57179 10.8367 3.87037 7.43119 7.09453C5.03654 9.36151 3.80915 12.5691 3.77963 16.6288C2.20591 16.883 1 18.2508 1 19.8952V21.6907C1 23.5154 2.48444 25 4.30908 25H19.822C21.6467 25 23.1312 23.5154 23.1312 21.6907V19.8952C23.1312 18.2789 21.966 16.9305 20.432 16.6432C20.3906 14.2006 19.2319 12.5447 18.2067 11.081C17.7962 10.4951 17.4086 9.94164 17.1323 9.38865C16.8383 8.80084 16.8481 8.32061 17.1629 7.87739C17.2857 7.70426 17.4339 7.56687 17.5605 7.46721ZM20.7888 2.65472C22.1038 2.65472 23.1737 3.72534 23.1737 5.04129C23.1737 6.35724 22.1038 7.42771 20.7888 7.42771C19.4738 7.42771 18.4038 6.35724 18.4038 5.04129C18.4038 3.72534 19.4737 2.65472 20.7888 2.65472ZM21.4765 19.8952V21.6907C21.4765 22.6031 20.7343 23.3453 19.822 23.3453H4.30912C3.39672 23.3453 2.65448 22.6031 2.65448 21.6907V19.8952C2.65448 18.9827 3.39672 18.2405 4.30912 18.2405H19.8221C20.7344 18.2405 21.4765 18.9827 21.4765 19.8952ZM18.7762 16.586H5.43462C5.471 13.0256 6.52133 10.2399 8.55932 8.30499C11.3198 5.68415 15.2129 5.28036 16.7539 5.22734C16.7651 5.47088 16.7984 5.70832 16.8508 5.93879C15.7605 6.61109 14.668 8.15929 15.6523 10.1284C15.9831 10.7906 16.4246 11.4209 16.8515 12.0303C17.7687 13.3396 18.7159 14.6922 18.7762 16.586Z" fill="#5F73F1" stroke="white" stroke-width="0.2"/>
</svg>
