<svg width="25" height="24" viewBox="0 0 25 24" fill="none" xmlns="http://www.w3.org/2000/svg">
<path fill-rule="evenodd" clip-rule="evenodd" d="M17.6074 3.89059H19.8998C20.9873 3.89059 22.0302 4.32536 22.7991 5.09925C23.568 5.87315 24 6.92277 24 8.01722V18.5214C24 19.6158 23.568 20.6655 22.7991 21.4394C22.0302 22.2132 20.9873 22.648 19.8998 22.648H4.99007C3.90264 22.648 2.85974 22.2132 2.09081 21.4394C1.32187 20.6655 0.889893 19.6158 0.889893 18.5214V8.01722C0.889893 6.92277 1.32187 5.87315 2.09081 5.09925C2.85974 4.32536 3.90264 3.89059 4.99007 3.89059H7.28245L8.0503 2.34123C8.26695 1.90505 8.59999 1.5382 9.01211 1.28178C9.42423 1.02536 9.89916 0.889491 10.3837 0.889404H14.5062C14.9901 0.890186 15.4642 1.02638 15.8756 1.28276C16.287 1.53915 16.6195 1.90562 16.8359 2.34123L17.6074 3.89059ZM21.2177 19.8477C21.5672 19.496 21.7635 19.0189 21.7635 18.5214V8.01722C21.7635 7.51975 21.5672 7.04264 21.2177 6.69087C20.8682 6.3391 20.3941 6.14148 19.8998 6.14148H16.2283L14.838 3.34663C14.807 3.28476 14.7596 3.23273 14.701 3.19631C14.6425 3.15989 14.5751 3.1405 14.5062 3.1403H10.3799C10.3111 3.1405 10.2437 3.15989 10.1851 3.19631C10.1266 3.23273 10.0792 3.28476 10.0482 3.34663L8.6616 6.14148H4.99007C4.49578 6.14148 4.02174 6.3391 3.67222 6.69087C3.32271 7.04264 3.12635 7.51975 3.12635 8.01722V18.5214C3.12635 19.0189 3.32271 19.496 3.67222 19.8477C4.02174 20.1995 4.49578 20.3971 4.99007 20.3971H19.8998C20.3941 20.3971 20.8682 20.1995 21.2177 19.8477ZM9.75293 9.21427C10.5498 8.67839 11.4867 8.39236 12.445 8.39236C13.0814 8.39236 13.7115 8.51851 14.2994 8.7636C14.8873 9.00868 15.4215 9.36792 15.8714 9.82078C16.3214 10.2736 16.6783 10.8113 16.9219 11.403C17.1654 11.9947 17.2907 12.6288 17.2907 13.2693C17.2907 14.2339 17.0065 15.1768 16.4741 15.9788C15.9416 16.7808 15.1848 17.4059 14.2994 17.775C13.414 18.1441 12.4397 18.2407 11.4997 18.0525C10.5597 17.8643 9.69632 17.3999 9.01864 16.7178C8.34096 16.0358 7.87945 15.1668 7.69248 14.2207C7.50551 13.2747 7.60147 12.2941 7.96823 11.403C8.33499 10.5118 8.95607 9.75016 9.75293 9.21427ZM10.9954 15.4528C11.4245 15.7413 11.929 15.8953 12.445 15.8953C13.137 15.8953 13.8007 15.6187 14.29 15.1262C14.7794 14.6337 15.0542 13.9658 15.0542 13.2693C15.0542 12.7499 14.9012 12.2422 14.6145 11.8103C14.3278 11.3785 13.9203 11.0419 13.4435 10.8431C12.9668 10.6444 12.4421 10.5924 11.936 10.6937C11.4299 10.795 10.965 11.0451 10.6001 11.4124C10.2352 11.7797 9.98665 12.2476 9.88597 12.757C9.7853 13.2664 9.83697 13.7944 10.0345 14.2742C10.2319 14.7541 10.5664 15.1642 10.9954 15.4528Z" fill="#5F73F1"/>
<path d="M17.6074 3.89059L17.2494 4.0689L17.3598 4.29059H17.6074V3.89059ZM22.7991 5.09925L23.0828 4.81732V4.81732L22.7991 5.09925ZM22.7991 21.4394L23.0828 21.7213V21.7213L22.7991 21.4394ZM2.09081 5.09925L1.80706 4.81732H1.80706L2.09081 5.09925ZM7.28245 3.89059V4.29059H7.53064L7.64085 4.06821L7.28245 3.89059ZM8.0503 2.34123L7.69205 2.16329L7.6919 2.16361L8.0503 2.34123ZM9.01211 1.28178L8.8008 0.942152V0.942152L9.01211 1.28178ZM10.3837 0.889404V0.489404H10.3836L10.3837 0.889404ZM14.5062 0.889404L14.5069 0.489404H14.5062V0.889404ZM15.8756 1.28276L15.6641 1.62224L15.8756 1.28276ZM16.8359 2.34123L16.4776 2.51917L16.4778 2.51954L16.8359 2.34123ZM21.2177 19.8477L20.9339 19.5658V19.5658L21.2177 19.8477ZM21.2177 6.69087L20.9339 6.97281V6.97281L21.2177 6.69087ZM16.2283 6.14148L15.8702 6.31964L15.9805 6.54148H16.2283V6.14148ZM14.838 3.34663L15.1961 3.16847L15.1956 3.16755L14.838 3.34663ZM14.701 3.19631L14.9123 2.85665L14.9123 2.85665L14.701 3.19631ZM14.5062 3.1403L14.5074 2.7403H14.5062V3.1403ZM10.3799 3.1403V2.74029L10.3787 2.7403L10.3799 3.1403ZM10.1851 3.19631L9.97387 2.85665L9.97387 2.85665L10.1851 3.19631ZM10.0482 3.34663L9.69053 3.16755L9.68988 3.16885L10.0482 3.34663ZM8.6616 6.14148V6.54148H8.90967L9.01992 6.31926L8.6616 6.14148ZM9.75293 9.21427L9.97615 9.5462H9.97615L9.75293 9.21427ZM14.2994 8.7636L14.1455 9.1328L14.2994 8.7636ZM16.9219 11.403L16.552 11.5552V11.5552L16.9219 11.403ZM16.4741 15.9788L16.8073 16.2L16.8073 16.2L16.4741 15.9788ZM14.2994 17.775L14.1455 17.4058L14.2994 17.775ZM11.4997 18.0525L11.5782 17.6603H11.5782L11.4997 18.0525ZM9.01864 16.7178L9.30239 16.4359L9.01864 16.7178ZM7.69248 14.2207L8.08489 14.1432H8.08489L7.69248 14.2207ZM7.96823 11.403L8.33813 11.5552L8.33813 11.5552L7.96823 11.403ZM10.9954 15.4528L10.7722 15.7847H10.7722L10.9954 15.4528ZM14.29 15.1262L14.0063 14.8443L14.29 15.1262ZM14.6145 11.8103L14.2813 12.0316H14.2813L14.6145 11.8103ZM13.4435 10.8431L13.5975 10.4739L13.5975 10.4739L13.4435 10.8431ZM11.936 10.6937L12.0145 11.0859H12.0145L11.936 10.6937ZM10.6001 11.4124L10.3163 11.1305L10.6001 11.4124ZM9.88597 12.757L10.2784 12.8345L9.88597 12.757ZM10.0345 14.2742L10.4043 14.122L10.0345 14.2742ZM19.8998 3.49059H17.6074V4.29059H19.8998V3.49059ZM23.0828 4.81732C22.2391 3.96813 21.0942 3.49059 19.8998 3.49059V4.29059C20.8803 4.29059 21.8212 4.68259 22.5153 5.38119L23.0828 4.81732ZM24.4 8.01722C24.4 6.81751 23.9265 5.66643 23.0828 4.81732L22.5153 5.38119C23.2095 6.07987 23.6 7.02803 23.6 8.01722H24.4ZM24.4 18.5214V8.01722H23.6V18.5214H24.4ZM23.0828 21.7213C23.9265 20.8722 24.4 19.7211 24.4 18.5214H23.6C23.6 19.5106 23.2095 20.4587 22.5153 21.1574L23.0828 21.7213ZM19.8998 23.048C21.0942 23.048 22.2391 22.5705 23.0828 21.7213L22.5153 21.1574C21.8212 21.856 20.8803 22.248 19.8998 22.248V23.048ZM4.99007 23.048H19.8998V22.248H4.99007V23.048ZM1.80706 21.7213C2.6508 22.5705 3.79572 23.048 4.99007 23.048V22.248C4.00956 22.248 3.06868 21.856 2.37456 21.1574L1.80706 21.7213ZM0.489893 18.5214C0.489893 19.7211 0.963396 20.8722 1.80706 21.7213L2.37456 21.1574C1.68035 20.4587 1.28989 19.5106 1.28989 18.5214H0.489893ZM0.489893 8.01722V18.5214H1.28989V8.01722H0.489893ZM1.80706 4.81732C0.963396 5.66643 0.489893 6.81751 0.489893 8.01722H1.28989C1.28989 7.02803 1.68035 6.07987 2.37456 5.38119L1.80706 4.81732ZM4.99007 3.49059C3.79572 3.49059 2.6508 3.96813 1.80706 4.81732L2.37456 5.38119C3.06868 4.68259 4.00956 4.29059 4.99007 4.29059V3.49059ZM7.28245 3.49059H4.99007V4.29059H7.28245V3.49059ZM7.6919 2.16361L6.92405 3.71297L7.64085 4.06821L8.4087 2.51885L7.6919 2.16361ZM8.8008 0.942152C8.32542 1.23793 7.94161 1.66086 7.69206 2.16329L8.40854 2.51917C8.59228 2.14924 8.87456 1.83847 9.22343 1.6214L8.8008 0.942152ZM10.3836 0.489404C9.82427 0.489504 9.2762 0.646357 8.8008 0.942152L9.22343 1.6214C9.57227 1.40435 9.97404 1.28948 10.3837 1.2894L10.3836 0.489404ZM14.5062 0.489404H10.3837V1.2894H14.5062V0.489404ZM16.0872 0.943288C15.6126 0.647539 15.0655 0.490308 14.5069 0.489405L14.5056 1.2894C14.9147 1.29007 15.3158 1.40522 15.6641 1.62224L16.0872 0.943288ZM17.1941 2.16329C16.9449 1.66152 16.5617 1.23902 16.0872 0.943288L15.6641 1.62224C16.0123 1.83927 16.2941 2.14972 16.4776 2.51917L17.1941 2.16329ZM17.9655 3.71228L17.1939 2.16292L16.4778 2.51954L17.2494 4.0689L17.9655 3.71228ZM21.3635 18.5214C21.3635 18.9136 21.2087 19.2892 20.9339 19.5658L21.5014 20.1297C21.9257 19.7027 22.1635 19.1241 22.1635 18.5214H21.3635ZM21.3635 8.01722V18.5214H22.1635V8.01722H21.3635ZM20.9339 6.97281C21.2087 7.24937 21.3635 7.62501 21.3635 8.01722H22.1635C22.1635 7.41449 21.9257 6.83592 21.5014 6.40894L20.9339 6.97281ZM19.8998 6.54148C20.2872 6.54148 20.6592 6.69633 20.9339 6.97281L21.5014 6.40894C21.0771 5.98188 20.501 5.74148 19.8998 5.74148V6.54148ZM16.2283 6.54148H19.8998V5.74148H16.2283V6.54148ZM14.4798 3.52478L15.8702 6.31964L16.5864 5.96332L15.1961 3.16847L14.4798 3.52478ZM14.4898 3.53597C14.4854 3.53326 14.4822 3.52961 14.4803 3.5257L15.1956 3.16755C15.1317 3.0399 15.0338 2.9322 14.9123 2.85665L14.4898 3.53597ZM14.505 3.54029C14.4994 3.54028 14.4942 3.5387 14.4898 3.53598L14.9123 2.85665C14.7908 2.78109 14.6507 2.74073 14.5074 2.7403L14.505 3.54029ZM10.3799 3.5403H14.5062V2.7403H10.3799V3.5403ZM10.3964 3.53598C10.392 3.5387 10.3867 3.54028 10.3812 3.54029L10.3787 2.7403C10.2355 2.74073 10.0954 2.78109 9.97387 2.85665L10.3964 3.53598ZM10.4059 3.5257C10.4039 3.52962 10.4007 3.53327 10.3964 3.53597L9.97387 2.85665C9.8524 2.9322 9.75444 3.0399 9.69053 3.16755L10.4059 3.5257ZM9.01992 6.31926L10.4065 3.5244L9.68988 3.16885L8.30327 5.96371L9.01992 6.31926ZM4.99007 6.54148H8.6616V5.74148H4.99007V6.54148ZM3.95598 6.97281C4.23068 6.69633 4.6027 6.54148 4.99007 6.54148V5.74148C4.38886 5.74148 3.8128 5.98188 3.38847 6.40894L3.95598 6.97281ZM3.52635 8.01722C3.52635 7.62501 3.68119 7.24937 3.95598 6.97281L3.38847 6.40894C2.96423 6.83592 2.72635 7.41449 2.72635 8.01722H3.52635ZM3.52635 18.5214V8.01722H2.72635V18.5214H3.52635ZM3.95598 19.5658C3.68119 19.2892 3.52635 18.9136 3.52635 18.5214H2.72635C2.72635 19.1241 2.96423 19.7027 3.38847 20.1297L3.95598 19.5658ZM4.99007 19.9971C4.6027 19.9971 4.23068 19.8423 3.95598 19.5658L3.38847 20.1297C3.8128 20.5567 4.38887 20.7971 4.99007 20.7971V19.9971ZM19.8998 19.9971H4.99007V20.7971H19.8998V19.9971ZM20.9339 19.5658C20.6592 19.8423 20.2872 19.9971 19.8998 19.9971V20.7971C20.501 20.7971 21.0771 20.5567 21.5014 20.1297L20.9339 19.5658ZM12.445 7.99236C11.407 7.99236 10.3924 8.30218 9.52972 8.88235L9.97615 9.5462C10.7072 9.05459 11.5663 8.79236 12.445 8.79236V7.99236ZM14.4533 8.39439C13.8167 8.12899 13.1343 7.99236 12.445 7.99236V8.79236C13.0285 8.79236 13.6063 8.90802 14.1455 9.1328L14.4533 8.39439ZM16.1552 9.53885C15.6682 9.04872 15.0899 8.65979 14.4533 8.39439L14.1455 9.1328C14.6847 9.35758 15.1748 9.68711 15.5877 10.1027L16.1552 9.53885ZM17.2918 11.2507C17.0283 10.6107 16.6422 10.029 16.1552 9.53885L15.5877 10.1027C16.0006 10.5183 16.3283 11.0119 16.552 11.5552L17.2918 11.2507ZM17.6907 13.2693C17.6907 12.5767 17.5552 11.8908 17.2918 11.2507L16.552 11.5552C16.7756 12.0986 16.8907 12.681 16.8907 13.2693H17.6907ZM16.8073 16.2C17.3834 15.3323 17.6907 14.3124 17.6907 13.2693H16.8907C16.8907 14.1553 16.6296 15.0212 16.1408 15.7575L16.8073 16.2ZM14.4533 18.1442C15.4121 17.7445 16.2312 17.0678 16.8073 16.2L16.1408 15.7575C15.652 16.4938 14.9575 17.0673 14.1455 17.4058L14.4533 18.1442ZM11.4212 18.4447C12.4392 18.6485 13.4945 18.5439 14.4533 18.1442L14.1455 17.4058C13.3335 17.7443 12.4401 17.8328 11.5782 17.6603L11.4212 18.4447ZM8.73489 16.9997C9.46834 17.7379 10.4031 18.2409 11.4212 18.4447L11.5782 17.6603C10.7163 17.4878 9.9243 17.0618 9.30239 16.4359L8.73489 16.9997ZM7.30007 14.2983C7.50228 15.3214 8.00146 16.2616 8.73489 16.9997L9.30239 16.4359C8.68046 15.8099 8.25662 15.0121 8.08489 14.1432L7.30007 14.2983ZM7.59833 11.2507C7.20162 12.2147 7.09787 13.2752 7.30007 14.2983L8.08489 14.1432C7.91316 13.2742 8.00132 12.3736 8.33813 11.5552L7.59833 11.2507ZM9.52972 8.88235C8.66704 9.46249 7.99505 10.2868 7.59833 11.2507L8.33813 11.5552C8.67492 10.7369 9.2451 10.0378 9.97615 9.5462L9.52972 8.88235ZM12.445 15.4953C12.0087 15.4953 11.5819 15.3651 11.2187 15.1208L10.7722 15.7847C11.2672 16.1175 11.8493 16.2953 12.445 16.2953V15.4953ZM14.0063 14.8443C13.5918 15.2614 13.0301 15.4953 12.445 15.4953V16.2953C13.244 16.2953 14.0096 15.9759 14.5738 15.4081L14.0063 14.8443ZM14.6542 13.2693C14.6542 13.8605 14.4209 14.427 14.0063 14.8443L14.5738 15.4081C15.1378 14.8404 15.4542 14.071 15.4542 13.2693H14.6542ZM14.2813 12.0316C14.5244 12.3977 14.6542 12.8285 14.6542 13.2693H15.4542C15.4542 12.6714 15.2781 12.0867 14.9478 11.5891L14.2813 12.0316ZM13.2896 11.2123C13.693 11.3805 14.0382 11.6655 14.2813 12.0316L14.9478 11.5891C14.6174 11.0915 14.1476 10.7033 13.5975 10.4739L13.2896 11.2123ZM12.0145 11.0859C12.4426 11.0002 12.8863 11.0442 13.2896 11.2124L13.5975 10.4739C13.0473 10.2446 12.4417 10.1845 11.8575 10.3015L12.0145 11.0859ZM10.8838 11.6943C11.1929 11.3832 11.5865 11.1716 12.0145 11.0859L11.8575 10.3015C11.2733 10.4185 10.737 10.7071 10.3163 11.1305L10.8838 11.6943ZM10.2784 12.8345C10.3638 12.4022 10.5746 12.0055 10.8838 11.6943L10.3163 11.1305C9.89565 11.5538 9.60948 12.0929 9.49356 12.6794L10.2784 12.8345ZM10.4043 14.122C10.2368 13.7149 10.1929 13.2668 10.2784 12.8345L9.49356 12.6794C9.37765 13.2659 9.43712 13.8738 9.66455 14.4265L10.4043 14.122ZM11.2187 15.1208C10.8554 14.8765 10.5719 14.529 10.4043 14.122L9.66455 14.4265C9.892 14.9791 10.2773 15.4519 10.7722 15.7847L11.2187 15.1208Z" fill="white"/>
</svg>
