<svg width="26" height="29" viewBox="0 0 26 29" fill="none" xmlns="http://www.w3.org/2000/svg">
<path d="M22.744 3.4849H14.12V1.4977C14.12 0.864103 13.616 0.345703 13 0.345703C12.384 0.345703 11.88 0.864103 11.88 1.4977V3.4849H3.25602C2.05202 3.4849 1.07202 4.4929 1.07202 5.7313V19.2385C1.07202 20.4769 2.05202 21.4849 3.25602 21.4849H7.42802L4.96402 26.2081C4.68402 26.7553 4.88002 27.4753 5.41202 27.7633C5.58002 27.8497 5.74802 27.9073 5.94402 27.9073C6.33602 27.9073 6.72802 27.6769 6.92402 27.3025L9.94802 21.4849H11.88V27.2737C11.88 27.9073 12.384 28.4257 13 28.4257C13.616 28.4257 14.12 27.9073 14.12 27.2737V21.5137H16.024L19.048 27.3313C19.244 27.7057 19.636 27.9361 20.028 27.9361C20.196 27.9361 20.392 27.8785 20.56 27.7921C21.092 27.5041 21.316 26.7841 21.008 26.2369L18.544 21.5137H22.716C23.92 21.5137 24.9 20.5057 24.9 19.2673V5.7601C24.928 4.4929 23.948 3.4849 22.744 3.4849ZM22.688 19.2097H3.31202V5.7889H22.716V19.2097H22.688Z" fill="#5F73F1" stroke="white" stroke-width="0.6"/>
</svg>
