<svg width="28" height="28" viewBox="0 0 28 28" fill="none" xmlns="http://www.w3.org/2000/svg">
<path d="M22.5398 24.0195L23.1783 23.3922L23.2343 23.3362C23.3799 23.1906 23.5031 23.045 23.6488 22.8881L24.108 22.3841L24.164 22.3057C25.7607 20.3589 26.7535 17.9878 27.0203 15.4842C27.0203 15.4842 27.0203 15.4282 27.0203 15.4058C27.065 14.9629 27.0875 14.518 27.0875 14.0728C27.0877 13.6277 27.0653 13.1828 27.0203 12.7399C27.0203 12.7399 27.0203 12.7399 27.0203 12.6615C26.7515 10.1759 25.767 7.82177 24.1864 5.88478L24.1304 5.81757C23.9826 5.63779 23.8256 5.46581 23.66 5.30232C23.5255 5.1567 23.4023 4.99989 23.2567 4.86547L23.2007 4.76466L22.5622 4.1374C20.201 2.11287 17.1933 1 14.083 1C10.9726 1 7.96493 2.11287 5.60368 4.1374L4.92041 4.76466V4.82067C4.78599 4.95508 4.65158 5.1119 4.51717 5.25751C4.38275 5.40313 4.19233 5.59355 4.04672 5.77277V5.83998C2.44803 7.78988 1.4551 10.1651 1.19042 12.6727C1.19042 12.6727 1.19042 12.7287 1.19042 12.7511C1.1034 13.1993 1.03984 13.6516 1 14.1064C1.00004 14.5516 1.02247 14.9965 1.06721 15.4394C1.06721 15.4394 1.06721 15.4394 1.06721 15.5178C1.33401 18.0214 2.32682 20.3925 3.9235 22.3393V22.4177L4.39395 22.933L4.79719 23.3698V23.4258L5.43566 24.0531C7.79385 26.0841 10.8027 27.2012 13.9149 27.2012C17.0272 27.2012 20.036 26.0841 22.3942 24.0531L22.5398 24.0195ZM5.48047 21.32L5.26764 21.0512C5.104 20.8578 4.9507 20.6559 4.8084 20.4463L4.65158 20.1999C4.50596 19.987 4.37155 19.763 4.23714 19.539L4.11392 19.3262C3.99071 19.091 3.8787 18.8445 3.76669 18.5981L3.66588 18.3517C3.56507 18.1052 3.47546 17.8588 3.38585 17.6124C3.36272 17.517 3.33277 17.4234 3.29624 17.3324C3.22903 17.0859 3.16182 16.8283 3.10582 16.5819L3.03861 16.2795C2.98261 16.0218 2.949 15.753 2.9154 15.4954V15.1929C2.90948 15.1334 2.90948 15.0733 2.9154 15.0137H8.29196C8.10694 17.3893 7.16468 19.6429 5.60368 21.4432L5.48047 21.32ZM2.9154 12.7175C2.9154 12.4487 2.98261 12.191 3.03861 11.9334L3.10582 11.631C3.16182 11.3734 3.22903 11.1269 3.29624 10.8805C3.36345 10.6341 3.36345 10.6901 3.38585 10.6005C3.40825 10.5109 3.56507 10.0964 3.66588 9.86119L3.76669 9.61477C3.8787 9.36834 3.99071 9.12192 4.11392 8.88669L4.23714 8.65147C4.37155 8.42744 4.50596 8.20342 4.65158 7.9906C4.69723 7.90443 4.74967 7.82202 4.8084 7.74417C4.94407 7.54276 5.08987 7.34835 5.24524 7.16171C5.31245 7.0721 5.37965 6.97129 5.45806 6.88168L5.55887 6.76967C7.11987 8.56995 8.06214 10.8235 8.24715 13.1991H2.87059C2.86519 13.1358 2.86519 13.0721 2.87059 13.0087L2.9154 12.7175ZM22.663 6.88168C22.7415 6.97129 22.8087 7.0721 22.8759 7.16171C23.0312 7.34835 23.177 7.54276 23.3127 7.74417L23.4807 7.9906C23.6151 8.20342 23.7608 8.42744 23.884 8.65147L24.0072 8.88669C24.1304 9.12192 24.2536 9.36834 24.3544 9.61477L24.4552 9.86119C24.556 10.0964 24.6569 10.354 24.7353 10.6005C24.8137 10.8469 24.7353 10.7797 24.8249 10.8805C24.9145 10.9813 24.9593 11.3734 25.0153 11.631C25.043 11.7305 25.0655 11.8315 25.0825 11.9334C25.1385 12.191 25.1721 12.4487 25.2057 12.7175C25.2057 12.8183 25.2057 12.9079 25.2057 13.0087V13.1991H19.8292C20.0142 10.8235 20.9564 8.56995 22.5174 6.76967L22.663 6.88168ZM25.2057 15.4954C25.2057 15.753 25.1385 16.0218 25.0825 16.2795C25.0655 16.3814 25.043 16.4823 25.0153 16.5819C24.9593 16.8283 24.8921 17.0859 24.8249 17.3324C24.7577 17.5788 24.7689 17.5116 24.7353 17.6124C24.7017 17.7132 24.556 18.1052 24.4552 18.3517L24.3544 18.5981C24.2536 18.8445 24.1304 19.091 24.0072 19.3262L23.884 19.5614C23.7608 19.7854 23.6151 20.0094 23.4807 20.2223L23.3127 20.4687C23.177 20.6701 23.0312 20.8645 22.8759 21.0512L22.663 21.32L22.5622 21.4432C21.0012 19.6429 20.059 17.3893 19.874 15.0137H25.2505V15.1929C25.2393 15.2938 25.2169 15.3946 25.2057 15.4954ZM18.0594 15.0137C18.2537 17.8563 19.3841 20.5544 21.2741 22.6865C19.4905 24.1792 17.2864 25.0796 14.9679 25.2628V15.0137H18.0594ZM18.0594 13.1991H14.9679V2.91647C17.2864 3.09969 19.4905 4.0001 21.2741 5.49274C19.3773 7.63379 18.2464 10.3448 18.0594 13.1991ZM13.1533 13.1991H10.0729C9.87696 10.3449 8.74279 7.63547 6.84701 5.49274C8.63065 4.0001 10.8347 3.09969 13.1533 2.91647V13.1991ZM10.0729 15.0137H13.1533V25.2964C10.8309 25.1036 8.62642 24.1913 6.84701 22.6865C8.736 20.5528 9.86971 17.8563 10.0729 15.0137Z" fill="#5F73F1" stroke="white" stroke-width="0.5"/>
</svg>
