<svg width="29" height="16" viewBox="0 0 29 16" fill="none" xmlns="http://www.w3.org/2000/svg">
<path fill-rule="evenodd" clip-rule="evenodd" d="M24.4688 15.4H16.3125C16.2219 15.4 16.1331 15.3856 16.0479 15.3622L9.0625 13.2346V14.5C9.0625 14.9968 8.6565 15.4 8.15625 15.4H0.90625C0.406 15.4 0 14.9968 0 14.5V1.89999C0 1.61379 0.13775 1.34379 0.36975 1.17459C0.603562 1.00539 0.90625 0.954989 1.17631 1.04139C5.22363 2.29959 7.54906 2.06739 11.5511 1.02879C11.919 0.935189 12.3069 1.07739 12.5262 1.38699C12.5697 1.44819 16.9324 7.56459 24.5449 8.20359C28.6665 8.54559 29.0018 10.4086 29 12.6226C29 14.6926 26.5586 15.4 24.4688 15.4ZM16.4484 13.6H24.4688C25.5762 13.5964 27.1875 13.2454 27.1875 12.7V12.6966C27.1875 10.9297 27.1875 10.2284 24.3926 9.99639C21.5062 9.75439 19.0602 8.8314 17.0815 7.70782L14.9676 8.97039C14.8207 9.05859 14.6594 9.09998 14.4999 9.09998C14.1936 9.09998 13.8946 8.94518 13.7242 8.66438C13.465 8.23958 13.6046 7.68518 14.0323 7.42778L15.3809 6.62231C15.0367 6.37717 14.7123 6.12985 14.4079 5.88445L12.247 7.17209C12.102 7.26029 11.9406 7.29989 11.7811 7.29989C11.473 7.29989 11.174 7.14329 11.0036 6.86249C10.7462 6.43769 10.8858 5.88329 11.3153 5.62769L12.9894 4.63017C12.2718 3.93487 11.7473 3.32547 11.4224 2.92059C7.86263 3.80799 5.38494 4.03479 1.8125 3.09699V13.6H7.25V12.016C7.25 11.7316 7.38594 11.4616 7.61794 11.2924C7.84994 11.1214 8.15081 11.0692 8.42269 11.1574L16.4484 13.6Z" fill="#5F73F1"/>
<path d="M16.0479 15.3622L16.0042 15.5057L16.0081 15.5068L16.0479 15.3622ZM9.0625 13.2346L9.1062 13.0911L8.9125 13.0321V13.2346H9.0625ZM0.36975 1.17459L0.281811 1.05307L0.281363 1.0534L0.36975 1.17459ZM1.17631 1.04139L1.1306 1.18426L1.13178 1.18463L1.17631 1.04139ZM11.5511 1.02879L11.5141 0.883418L11.5134 0.883599L11.5511 1.02879ZM12.5262 1.38699L12.4038 1.4737L12.4039 1.47389L12.5262 1.38699ZM24.5449 8.20359L24.5323 8.35306L24.5325 8.35308L24.5449 8.20359ZM29 12.6226L28.85 12.6225V12.6226H29ZM24.4688 13.6V13.75L24.4692 13.75L24.4688 13.6ZM16.4484 13.6L16.4048 13.7435L16.4261 13.75H16.4484V13.6ZM27.1875 12.6966H27.0375H27.1875ZM24.3926 9.99639L24.3801 10.1459L24.3802 10.1459L24.3926 9.99639ZM17.0815 7.70782L17.1556 7.57738L17.0796 7.53424L17.0046 7.57904L17.0815 7.70782ZM14.9676 8.97039L14.8906 8.8416L14.8903 8.8418L14.9676 8.97039ZM13.7242 8.66438L13.8524 8.58658L13.8522 8.58626L13.7242 8.66438ZM14.0323 7.42778L13.9554 7.299L13.955 7.29926L14.0323 7.42778ZM15.3809 6.62231L15.4579 6.75109L15.655 6.63335L15.468 6.50013L15.3809 6.62231ZM14.4079 5.88445L14.5021 5.76767L14.4208 5.70216L14.3311 5.75559L14.4079 5.88445ZM12.247 7.17209L12.1702 7.04323L12.169 7.04394L12.247 7.17209ZM11.0036 6.86249L10.8753 6.94022L10.8753 6.9403L11.0036 6.86249ZM11.3153 5.62769L11.392 5.7566L11.3921 5.75655L11.3153 5.62769ZM12.9894 4.63017L13.0662 4.75903L13.2345 4.65876L13.0938 4.52244L12.9894 4.63017ZM11.4224 2.92059L11.5394 2.82671L11.4793 2.75182L11.3861 2.77504L11.4224 2.92059ZM1.8125 3.09699L1.85059 2.95191L1.6625 2.90253V3.09699H1.8125ZM1.8125 13.6H1.6625V13.75H1.8125V13.6ZM7.25 13.6V13.75H7.4V13.6H7.25ZM7.61794 11.2924L7.70633 11.4136L7.70694 11.4131L7.61794 11.2924ZM8.42269 11.1574L8.37639 11.3001L8.37901 11.3009L8.42269 11.1574ZM16.3125 15.55H24.4688V15.25H16.3125V15.55ZM16.0081 15.5068C16.1037 15.5331 16.206 15.55 16.3125 15.55V15.25C16.2377 15.25 16.1624 15.2381 16.0876 15.2175L16.0081 15.5068ZM9.0188 13.3781L16.0042 15.5057L16.0916 15.2187L9.1062 13.0911L9.0188 13.3781ZM9.2125 14.5V13.2346H8.9125V14.5H9.2125ZM8.15625 15.55C8.73836 15.55 9.2125 15.0806 9.2125 14.5H8.9125C8.9125 14.913 8.57464 15.25 8.15625 15.25V15.55ZM0.90625 15.55H8.15625V15.25H0.90625V15.55ZM-0.15 14.5C-0.15 15.0806 0.324138 15.55 0.90625 15.55V15.25C0.487862 15.25 0.15 14.913 0.15 14.5H-0.15ZM-0.15 1.89999V14.5H0.15V1.89999H-0.15ZM0.281363 1.0534C0.0108559 1.25068 -0.15 1.56561 -0.15 1.89999H0.15C0.15 1.66197 0.264644 1.4369 0.458137 1.29578L0.281363 1.0534ZM1.22202 0.898523C0.905351 0.797212 0.55322 0.856665 0.281812 1.05307L0.457688 1.29611C0.653905 1.15412 0.907149 1.11277 1.13061 1.18426L1.22202 0.898523ZM11.5134 0.883599C9.51536 1.40213 7.94727 1.71617 6.37779 1.74642C4.81031 1.77663 3.23348 1.52383 1.22084 0.898151L1.13178 1.18463C3.16645 1.81715 4.776 2.07735 6.38357 2.04636C7.98914 2.01541 9.58476 1.69405 11.5887 1.17398L11.5134 0.883599ZM12.6486 1.30028C12.3933 0.939876 11.942 0.774568 11.5141 0.883419L11.588 1.17416C11.896 1.09581 12.2205 1.2149 12.4038 1.4737L12.6486 1.30028ZM24.5574 8.05412C17.0164 7.42112 12.6885 1.3565 12.6484 1.30009L12.4039 1.47389C12.4508 1.53988 16.8483 7.70806 24.5323 8.35306L24.5574 8.05412ZM29.15 12.6227C29.1509 11.5164 29.0704 10.4495 28.438 9.62013C27.8015 8.78539 26.6355 8.22655 24.5573 8.0541L24.5325 8.35308C26.5759 8.52263 27.6384 9.06629 28.1994 9.80205C28.7647 10.5432 28.8509 11.5148 28.85 12.6225L29.15 12.6227ZM24.4688 15.55C25.5268 15.55 26.6852 15.3715 27.5851 14.9217C28.4901 14.4694 29.15 13.7316 29.15 12.6226H28.85C28.85 13.5836 28.2892 14.2345 27.451 14.6534C26.6077 15.0748 25.5006 15.25 24.4688 15.25V15.55ZM24.4688 13.45H16.4484V13.75H24.4688V13.45ZM27.0375 12.7C27.0375 12.7571 26.9938 12.8421 26.8366 12.9445C26.686 13.0426 26.466 13.1327 26.2018 13.2091C25.6751 13.3612 25.0094 13.4482 24.4683 13.45L24.4692 13.75C25.0356 13.7481 25.7292 13.6579 26.285 13.4973C26.5621 13.4172 26.8142 13.3171 27.0003 13.1959C27.1798 13.079 27.3375 12.9156 27.3375 12.7H27.0375ZM27.0375 12.6966V12.7H27.3375V12.6966H27.0375ZM24.3802 10.1459C25.0745 10.2035 25.5855 10.2897 25.9626 10.4106C26.3384 10.531 26.5717 10.6829 26.7222 10.8661C26.8728 11.0494 26.9536 11.2797 26.9952 11.5823C27.0372 11.8878 27.0375 12.2515 27.0375 12.6966H27.3375C27.3375 12.2582 27.3378 11.8716 27.2924 11.5415C27.2467 11.2084 27.1528 10.9176 26.954 10.6757C26.7553 10.4338 26.4645 10.2564 26.0542 10.1249C25.6453 9.9938 25.1082 9.90528 24.405 9.8469L24.3802 10.1459ZM17.0075 7.83826C19.0017 8.97068 21.4685 9.90176 24.3801 10.1459L24.4052 9.84692C21.5439 9.60703 19.1187 8.69212 17.1556 7.57738L17.0075 7.83826ZM17.0046 7.57904L14.8906 8.84161L15.0445 9.09916L17.1584 7.8366L17.0046 7.57904ZM14.8903 8.8418C14.7677 8.91546 14.6333 8.94998 14.4999 8.94998V9.24998C14.6856 9.24998 14.8738 9.20171 15.0448 9.09897L14.8903 8.8418ZM14.4999 8.94998C14.2436 8.94998 13.9944 8.82053 13.8524 8.58658L13.5959 8.74219C13.7947 9.06984 14.1436 9.24998 14.4999 9.24998V8.94998ZM13.8522 8.58626C13.637 8.23353 13.7521 7.77144 14.1096 7.55631L13.955 7.29926C13.457 7.59893 13.293 8.24564 13.5961 8.74251L13.8522 8.58626ZM14.1092 7.55656L15.4579 6.75109L15.304 6.49353L13.9554 7.299L14.1092 7.55656ZM14.3138 6.00123C14.6204 6.2484 14.9472 6.49753 15.2939 6.74449L15.468 6.50013C15.1263 6.2568 14.8043 6.0113 14.5021 5.76767L14.3138 6.00123ZM12.3237 7.30095L14.4847 6.01331L14.3311 5.75559L12.1702 7.04324L12.3237 7.30095ZM11.7811 7.44989C11.9655 7.44989 12.1543 7.40404 12.3249 7.30025L12.169 7.04394C12.0496 7.11654 11.9158 7.14989 11.7811 7.14989V7.44989ZM10.8753 6.9403C11.0739 7.26759 11.4226 7.44989 11.7811 7.44989V7.14989C11.5235 7.14989 11.274 7.019 11.1318 6.78468L10.8753 6.9403ZM11.2386 5.49879C10.7381 5.79664 10.5744 6.44358 10.8753 6.94022L11.1319 6.78477C10.918 6.43181 11.0335 5.96995 11.392 5.7566L11.2386 5.49879ZM12.9126 4.50131L11.2385 5.49884L11.3921 5.75655L13.0662 4.75903L12.9126 4.50131ZM11.3054 3.01447C11.6335 3.42344 12.1623 4.03761 12.885 4.7379L13.0938 4.52244C12.3813 3.83214 11.861 3.2275 11.5394 2.82671L11.3054 3.01447ZM1.77441 3.24207C5.37849 4.18818 7.883 3.9575 11.4587 3.06614L11.3861 2.77504C7.84225 3.65848 5.39138 3.8814 1.85059 2.95191L1.77441 3.24207ZM1.9625 13.6V3.09699H1.6625V13.6H1.9625ZM7.25 13.45H1.8125V13.75H7.25V13.45ZM7.1 12.016V13.6H7.4V12.016H7.1ZM7.52955 11.1712C7.25865 11.3688 7.1 11.6839 7.1 12.016H7.4C7.4 11.7793 7.51322 11.5544 7.70632 11.4136L7.52955 11.1712ZM8.46898 11.0147C8.14962 10.9111 7.79859 10.9729 7.52894 11.1716L7.70694 11.4131C7.90129 11.2699 8.152 11.2273 8.3764 11.3001L8.46898 11.0147ZM16.4921 13.4565L8.46636 11.0139L8.37901 11.3009L16.4048 13.7435L16.4921 13.4565Z" fill="white"/>
</svg>
