<svg width="26" height="29" viewBox="0 0 26 29" fill="none" xmlns="http://www.w3.org/2000/svg">
<path d="M25.5208 13.9937C25.5208 13.15 25.2343 12.3062 24.7187 11.6875C24.9479 11.1812 25.0625 10.675 25.0625 10.1125C25.0625 8.48124 24.0885 7.07499 22.5416 6.39999C22.5416 6.23124 22.5989 6.11874 22.5989 5.94999C22.5989 4.0375 20.651 2.51875 18.2448 2.51875C17.6719 2.51875 17.0989 2.63125 16.5833 2.8C15.7239 1.675 14.1771 1 12.5156 1C10.2812 1 8.39062 2.18125 7.87499 3.86875C7.58853 3.8125 7.35937 3.8125 7.1302 3.8125C4.49479 3.8125 2.375 5.78124 2.375 8.19999C2.375 8.59374 2.43229 8.98749 2.54687 9.32499C1.63021 9.94374 1 10.9562 1 12.0812C1 12.5875 1.11458 13.0375 1.34375 13.4875C1.17187 13.8812 1.11458 14.275 1.11458 14.6125C1.11458 15.9062 1.91667 17.0312 3.00521 17.4812C3.00521 17.5937 3.00521 17.7625 3.00521 17.875C3.00521 23.4437 7.58853 28 13.2604 28C18.9323 28 23.5729 23.4437 23.5729 17.9312C23.5729 17.7625 23.5729 17.5375 23.5729 17.3687C24.7187 16.75 25.5208 15.4562 25.5208 13.9937ZM13.2604 26.875C8.21874 26.875 4.15104 22.825 4.15104 17.9312C4.15104 17.875 4.15104 17.8187 4.15104 17.7625C4.20833 17.7625 4.26562 17.7625 4.26562 17.7625C4.32291 17.7625 6.90103 17.65 7.07291 14.6687C7.07291 14.6125 7.07291 14.5 7.07291 14.4437C7.58853 13.9375 7.93228 13.3187 8.04687 12.6437C9.53645 12.3625 10.7969 11.4062 11.4844 10.1687C12.2864 10.9562 13.3177 11.4062 14.5208 11.4062C15.2083 11.4062 15.8958 11.2375 16.526 10.9562C16.7552 12.0812 17.4427 13.0937 18.4739 13.7125C18.4739 13.8812 18.4739 13.9937 18.4739 14.1625C18.8177 18.325 22.4843 17.875 22.5416 17.875C22.5416 17.9312 22.5416 17.9875 22.5416 18.1C22.4271 22.825 18.3021 26.875 13.2604 26.875ZM21.9687 16.5812C20.5937 16.5812 19.5052 15.4 19.5052 13.9937C19.5052 13.7687 19.5052 13.5437 19.5625 13.375C19.6198 13.0937 19.5052 12.8687 19.276 12.7C18.1875 12.1937 17.5 11.1812 17.5 10.0562C17.5 9.94374 17.5 9.83124 17.5 9.77499C17.5 9.54999 17.3854 9.32499 17.1562 9.21249C17.0989 9.15624 16.9844 9.15624 16.9271 9.15624C16.8125 9.15624 16.6406 9.21249 16.526 9.32499C15.9531 9.83124 15.2083 10.1125 14.4062 10.1125C13.2604 10.1125 12.2292 9.49374 11.7135 8.53749C11.5989 8.31249 11.3698 8.19999 11.1406 8.25624C10.9114 8.31249 10.6823 8.48124 10.6823 8.70624C10.3958 10.1687 9.07811 11.2937 7.47395 11.4625C7.18749 11.4625 6.95833 11.7437 6.95833 12.025C6.95833 12.6437 6.67187 13.2625 6.15624 13.6562C5.98437 13.7687 5.92708 13.9937 5.92708 14.1625C5.92708 14.275 5.98437 14.4437 5.98437 14.5562C5.98437 15.625 5.18229 16.525 4.15104 16.525C3.11979 16.525 2.31771 15.625 2.31771 14.5562C2.31771 14.2187 2.375 13.9375 2.54687 13.6562C2.66146 13.4875 2.60416 13.2625 2.54687 13.0937C2.375 12.7562 2.26042 12.4187 2.26042 12.025C2.26042 11.1812 2.77604 10.45 3.57812 10.0562C3.86458 9.94374 3.97916 9.60624 3.86458 9.32499C3.57812 9.04374 3.52083 8.64999 3.52083 8.19999C3.52083 6.39999 5.125 4.93749 7.1302 4.93749C7.47395 4.93749 7.8177 4.99374 8.16145 5.10624C8.33332 5.16249 8.5052 5.10624 8.61978 5.04999C8.73436 4.93749 8.84895 4.82499 8.84895 4.65624C8.96353 3.30625 10.5677 2.2375 12.4583 2.2375C13.9479 2.2375 15.2656 2.9125 15.7812 3.86875C15.9531 4.14999 16.2396 4.26249 16.526 4.09374C16.9844 3.86875 17.5573 3.75625 18.1875 3.75625C19.9635 3.75625 21.3958 4.82499 21.3958 6.06249C21.3958 6.28749 21.3385 6.45624 21.2812 6.68124C21.2239 6.84999 21.2239 6.96249 21.2812 7.13124C21.3385 7.24374 21.4531 7.35624 21.625 7.41249C22.9427 7.80624 23.8593 8.93124 23.8593 10.225C23.8593 10.675 23.7448 11.1812 23.5156 11.575C23.401 11.8 23.4583 12.025 23.6302 12.25C24.0885 12.7562 24.375 13.375 24.375 14.1062C24.375 15.4562 23.2864 16.5812 21.9687 16.5812Z" fill="#5F73F1" stroke="#5F73F1" stroke-width="0.3"/>
<path d="M14.6926 15.7938C14.4635 16.0188 14.4635 16.3563 14.6926 16.5813C14.9218 16.8063 15.2655 16.8063 15.4947 16.5813C16.0676 16.0188 16.9843 16.0188 17.4999 16.5813C17.6145 16.6938 17.7291 16.75 17.901 16.75C18.0728 16.75 18.1874 16.6938 18.302 16.5813C18.5312 16.3563 18.5312 16.0188 18.302 15.7938C17.328 14.7813 15.6666 14.7813 14.6926 15.7938Z" fill="#5F73F1" stroke="#5F73F1" stroke-width="0.3"/>
<path d="M11.0262 16.5812C11.1408 16.6937 11.2554 16.75 11.4272 16.75C11.5991 16.75 11.7137 16.6937 11.8283 16.5812C12.0574 16.3562 12.0574 16.0187 11.8283 15.7937C10.8543 14.8375 9.19287 14.8375 8.16162 15.7937C7.93245 16.0187 7.93245 16.3562 8.16162 16.5812C8.39079 16.8062 8.73454 16.8062 8.9637 16.5812C9.59391 16.0187 10.5106 16.0187 11.0262 16.5812Z" fill="#5F73F1" stroke="#5F73F1" stroke-width="0.3"/>
<path d="M16.5264 22.5437C15.6671 23.3875 14.5212 23.8375 13.2608 23.8375C12.0004 23.8375 10.8546 23.3875 9.9952 22.5437C9.76603 22.3188 9.42228 22.3188 9.19311 22.5437C8.96395 22.7687 8.96395 23.1063 9.19311 23.3313C10.2817 24.4 11.7139 24.9625 13.2608 24.9625C14.8077 24.9625 16.24 24.4 17.3285 23.3313C17.5577 23.1063 17.5577 22.7687 17.3285 22.5437C17.0994 22.3188 16.7556 22.3188 16.5264 22.5437Z" fill="#5F73F1" stroke="#5F73F1" stroke-width="0.3"/>
<path d="M10.9121 19.8436C10.9121 21.0811 11.9434 22.1498 13.2611 22.1498C14.5215 22.1498 15.61 21.1373 15.61 19.8436C15.61 18.6061 14.5788 17.5374 13.2611 17.5374C12.0006 17.5936 10.9121 18.6061 10.9121 19.8436ZM13.2611 18.7186C13.8913 18.7186 14.4642 19.2248 14.4642 19.8998C14.4642 20.5186 13.9486 21.0811 13.2611 21.0811C12.6309 21.0811 12.0579 20.5748 12.0579 19.8998C12.0579 19.2248 12.6309 18.7186 13.2611 18.7186Z" fill="#5F73F1" stroke="#5F73F1" stroke-width="0.3"/>
</svg>
