<svg width="29" height="28" viewBox="0 0 29 28" fill="none" xmlns="http://www.w3.org/2000/svg">
<path d="M25.8653 13.6391C26.245 13.7158 26.6416 13.6196 26.9413 13.3739C27.2422 13.1269 27.4166 12.7577 27.4166 12.3664V7.1001C27.4166 6.3812 26.8379 5.8001 26.1249 5.8001H20.9118C20.9428 5.5856 20.9583 5.3698 20.9583 5.1501C20.9583 2.6411 18.9303 0.600098 16.4374 0.600098C13.9445 0.600098 11.9166 2.6411 11.9166 5.1501C11.9166 5.3698 11.9321 5.5856 11.9631 5.8001H8.04159C7.32859 5.8001 6.74992 6.3812 6.74992 7.1001V11.0469C6.53679 11.0157 6.32109 11.0001 6.10409 11.0001C3.61117 11.0001 1.58325 13.0411 1.58325 15.5501C1.58325 18.0591 3.61117 20.1001 6.10409 20.1001C6.32109 20.1001 6.53679 20.0845 6.74992 20.0533V25.3001C6.74992 26.019 7.32859 26.6001 8.04159 26.6001H13.2728C13.6603 26.6001 14.0272 26.4246 14.2726 26.123C14.518 25.8214 14.6149 25.4236 14.5387 25.0414C14.5141 24.9153 14.4999 24.784 14.4999 24.6501C14.4999 23.575 15.3692 22.7001 16.4374 22.7001C17.5056 22.7001 18.3749 23.575 18.3749 24.6501C18.3749 24.784 18.3607 24.9153 18.3362 25.0414C18.2587 25.4236 18.3568 25.8214 18.6023 26.123C18.8477 26.4246 19.2132 26.6001 19.602 26.6001H26.1249C26.8379 26.6001 27.4166 26.019 27.4166 25.3001V18.7338C27.4166 18.3425 27.2422 17.9733 26.9413 17.7263C26.6416 17.4806 26.2463 17.3818 25.8653 17.4611C24.6847 17.7029 23.5416 16.7552 23.5416 15.5501C23.5416 14.345 24.6912 13.3934 25.8653 13.6391ZM24.8333 20.0546V24.0001H20.9118C20.5979 21.7979 18.7108 20.1001 16.4374 20.1001C14.1641 20.1001 12.277 21.7979 11.9631 24.0001H9.33325V18.1345C9.33325 17.6405 9.05554 17.1894 8.61638 16.9697C8.1785 16.7487 7.6515 16.7981 7.26142 17.0984C7.02117 17.2817 6.62592 17.5001 6.10409 17.5001C5.03588 17.5001 4.16659 16.6252 4.16659 15.5501C4.16659 14.475 5.03588 13.6001 6.10409 13.6001C6.62592 13.6001 7.02117 13.8185 7.26142 14.0018C7.65279 14.3021 8.1785 14.3515 8.61638 14.1305C9.05554 13.9095 9.33325 13.4597 9.33325 12.9657V8.4001H13.8683C14.3578 8.4001 14.806 8.1206 15.0243 7.6786C15.2426 7.2379 15.1948 6.7101 14.899 6.3162C14.7169 6.0744 14.4999 5.674 14.4999 5.1501C14.4999 4.075 15.3692 3.2001 16.4374 3.2001C17.5056 3.2001 18.3749 4.075 18.3749 5.1501C18.3749 5.674 18.1579 6.0744 17.9758 6.3162C17.68 6.7101 17.6309 7.2379 17.8505 7.6786C18.0688 8.1206 18.5157 8.4001 19.0065 8.4001H24.8333V11.0456C22.6452 11.3628 20.9583 13.2621 20.9583 15.5501C20.9583 17.8381 22.6452 19.7374 24.8333 20.0546Z" fill="#5F73F1" stroke="white" stroke-width="1.2"/>
</svg>
