<svg width="28" height="28" viewBox="0 0 28 28" fill="none" xmlns="http://www.w3.org/2000/svg">
<path fill-rule="evenodd" clip-rule="evenodd" d="M24.4461 18.3237C24.4532 18.3418 24.4602 18.3598 24.4671 18.3778C24.6421 18.8372 24.7241 19.3376 24.746 19.827C24.7843 20.7102 24.5464 21.6235 24.1007 22.3864C23.6441 23.163 22.9441 23.8438 22.1292 24.2349C21.3308 24.6177 20.4284 24.8255 19.5425 24.7188C19.1159 24.667 18.7238 24.5867 18.3295 24.4412C18.3183 24.4663 18.307 24.4914 18.2956 24.5165C18.096 24.9567 17.8034 25.3614 17.478 25.7169C16.8847 26.3622 16.078 26.8407 15.2304 27.0649C14.3499 27.2946 13.3683 27.281 12.507 26.9829C11.6784 26.6931 10.9019 26.2009 10.3495 25.5091C10.1855 25.304 10.0269 25.0962 9.89289 24.8692C9.81206 24.7323 9.74317 24.5894 9.67902 24.4436C9.66099 24.4506 9.64296 24.4576 9.62492 24.4645C9.16555 24.6395 8.66516 24.7216 8.1757 24.7435C7.2925 24.7817 6.37922 24.5438 5.61633 24.0981C4.83977 23.6415 4.15891 22.9415 3.76789 22.1267C3.38508 21.3282 3.17727 20.4259 3.28391 19.5399C3.33576 19.1133 3.41606 18.7213 3.56157 18.3269C3.53644 18.3157 3.51133 18.3044 3.48625 18.2931C3.04602 18.0935 2.64133 17.8009 2.28586 17.4755C1.64055 16.8821 1.16203 16.0755 0.937813 15.2278C0.708125 14.3474 0.721797 13.3657 1.01984 12.5044C1.30969 11.6759 1.80188 10.8993 2.49367 10.347C2.69875 10.1829 2.90656 10.0243 3.13352 9.89033C3.27043 9.80949 3.41332 9.74061 3.55918 9.67646C3.55214 9.65843 3.54515 9.64039 3.5382 9.62236C3.3632 9.16298 3.28117 8.66259 3.2593 8.17314C3.22102 7.28994 3.45891 6.37665 3.90461 5.61376C4.36125 4.8372 5.06125 4.15634 5.87609 3.76533C6.67453 3.38251 7.57688 3.1747 8.46281 3.28134C8.88942 3.3332 9.28149 3.41349 9.6758 3.55901C9.68701 3.53387 9.69831 3.50877 9.70969 3.48369C9.9093 3.04345 10.2019 2.63876 10.5273 2.2833C11.1206 1.63798 11.9273 1.15947 12.7749 0.935249C13.6554 0.705562 14.637 0.719233 15.4984 1.01728C16.3269 1.30712 17.1034 1.79931 17.6558 2.49111C17.8198 2.69619 17.9784 2.904 18.1124 3.13095C18.1933 3.26787 18.2621 3.41076 18.3263 3.55662C18.3443 3.54958 18.3624 3.54259 18.3804 3.53564C18.8398 3.36064 19.3402 3.27861 19.8296 3.25673C20.7128 3.21845 21.6261 3.45634 22.389 3.90205C23.1655 4.35869 23.8464 5.05869 24.2374 5.87353C24.6202 6.67197 24.828 7.57431 24.7214 8.46025C24.6696 8.88686 24.5893 9.27893 24.4437 9.67324C24.4689 9.68444 24.494 9.69575 24.5191 9.70712C24.9593 9.90673 25.364 10.1993 25.7195 10.5247C26.3648 11.1181 26.8433 11.9247 27.0675 12.7724C27.2972 13.6528 27.2835 14.6345 26.9855 15.4958C26.6956 16.3243 26.2034 17.1009 25.5116 17.6532C25.3066 17.8173 25.0988 17.9759 24.8718 18.1099C24.7349 18.1907 24.592 18.2596 24.4461 18.3237ZM21.7627 17.9186C21.7637 17.9268 21.7646 17.9349 21.7655 17.9431C21.7786 17.9897 21.7942 18.0348 21.8124 18.0783C21.8618 18.2039 21.9341 18.3196 22.0336 18.4144C22.1608 18.5948 22.2716 18.7849 22.3651 18.9855C22.4444 19.1998 22.5042 19.4194 22.5434 19.6434C22.5636 19.8675 22.5636 20.0928 22.5432 20.3182C22.5036 20.5439 22.4434 20.7652 22.3645 20.9811C22.2673 21.1877 22.1517 21.3852 22.02 21.5715C21.8811 21.7352 21.7292 21.8868 21.5651 22.0254C21.38 22.1571 21.1846 22.2705 20.9781 22.3666C20.7639 22.4456 20.5444 22.5041 20.3206 22.543C20.0918 22.5635 19.8618 22.5621 19.6317 22.5415C19.4131 22.5026 19.1988 22.444 18.9895 22.3668C18.774 22.2661 18.5683 22.1453 18.3748 22.0056C18.2435 21.9022 18.107 21.8116 17.9429 21.7657C17.705 21.7001 17.4562 21.7247 17.232 21.8204C17.0515 21.897 16.9148 22.0036 16.7945 22.1567C16.6385 22.3584 16.5883 22.5521 16.5607 22.8056C16.5216 23.024 16.4642 23.2373 16.3876 23.4454C16.2887 23.6566 16.1719 23.8573 16.0371 24.0475C15.9001 24.2086 15.7507 24.3582 15.5899 24.4943C15.4009 24.629 15.2015 24.7458 14.9918 24.8449C14.7785 24.9228 14.5588 24.9816 14.3347 25.0214C14.1099 25.0412 13.8843 25.0409 13.6595 25.0204C13.4397 24.9821 13.2243 24.9242 13.015 24.8465C12.8063 24.7498 12.607 24.6341 12.4203 24.4994C12.2583 24.3638 12.109 24.215 11.9731 24.0546C11.8375 23.8647 11.7189 23.6642 11.6207 23.4533C11.5427 23.2431 11.4844 23.0275 11.4448 22.8065C11.4256 22.6191 11.3947 22.4321 11.2956 22.2661C11.1753 22.061 10.9894 21.9106 10.7734 21.8177C10.5874 21.7384 10.407 21.7165 10.2073 21.7438C10.0044 21.7722 9.85364 21.8424 9.69817 21.953L9.70695 21.9462C9.7027 21.9494 9.69844 21.9526 9.69418 21.9559C9.67631 21.9687 9.65837 21.982 9.64028 21.9958C9.44527 22.1378 9.23892 22.2605 9.02 22.3625C8.8057 22.4419 8.58607 22.5016 8.36209 22.5408C8.13793 22.5611 7.9127 22.561 7.68727 22.5406C7.46158 22.5011 7.2403 22.4409 7.02444 22.362C6.81783 22.2647 6.62031 22.1492 6.43398 22.0174C6.27024 21.8785 6.11868 21.7266 5.98008 21.5626C5.84834 21.3774 5.73495 21.182 5.63888 20.9755C5.55986 20.7613 5.50138 20.5419 5.46245 20.318C5.442 20.0892 5.44342 19.8593 5.46397 19.6291C5.50292 19.4106 5.56145 19.1962 5.63865 18.9869C5.73936 18.7714 5.86017 18.5657 5.9999 18.3722C6.10328 18.2409 6.1939 18.1045 6.23977 17.9403C6.30539 17.7024 6.28078 17.4536 6.18508 17.2294C6.10852 17.0489 6.00188 16.9122 5.84875 16.7919C5.64708 16.6359 5.45335 16.5857 5.19994 16.5581C4.98147 16.5191 4.7682 16.4617 4.56013 16.385C4.34894 16.2862 4.14824 16.1694 3.95802 16.0346C3.79684 15.8975 3.64732 15.7482 3.51113 15.5873C3.37648 15.3983 3.25963 15.1989 3.16058 14.9892C3.08269 14.7759 3.02384 14.5563 2.98404 14.3322C2.96426 14.1073 2.9646 13.8817 2.98504 13.6569C3.02336 13.4371 3.08132 13.2217 3.15894 13.0124C3.25567 12.8038 3.37139 12.6045 3.5061 12.4177C3.64163 12.2557 3.79046 12.1064 3.9509 11.9705C4.14083 11.8349 4.34124 11.7163 4.55214 11.6181C4.76243 11.5401 4.97804 11.4818 5.19896 11.4422C5.38638 11.423 5.57337 11.3921 5.73938 11.2931C5.94445 11.1727 6.09484 10.9868 6.18781 10.7708C6.26711 10.5849 6.28899 10.4044 6.26164 10.2048C6.23327 10.0018 6.16309 9.85109 6.05248 9.69563L6.0593 9.70439C6.05607 9.70015 6.05286 9.6959 6.04965 9.69165C6.03684 9.67376 6.02351 9.65579 6.00964 9.63767C5.86766 9.44267 5.74502 9.23633 5.64293 9.01743C5.56361 8.80314 5.50386 8.58351 5.46467 8.35955C5.44442 8.13537 5.44449 7.91013 5.46488 7.68469C5.50441 7.459 5.56463 7.23773 5.64351 7.02187C5.74077 6.81526 5.85632 6.61774 5.98806 6.43141C6.12698 6.26767 6.27885 6.11611 6.4429 5.97752C6.62809 5.84577 6.82343 5.73238 7.02997 5.63632C7.24413 5.5573 7.46362 5.49881 7.68745 5.45988C7.91628 5.43943 8.14623 5.44086 8.37638 5.4614C8.5949 5.50035 8.80926 5.55889 9.01855 5.63609C9.23406 5.7368 9.43975 5.8576 9.63324 5.99733C9.76456 6.10072 9.90101 6.19134 10.0652 6.2372C10.303 6.30283 10.5519 6.27822 10.7761 6.18251C10.9566 6.10595 11.0933 5.99931 11.2136 5.84619C11.3696 5.64451 11.4197 5.45077 11.4474 5.19736C11.4864 4.9789 11.5438 4.76563 11.6205 4.55756C11.7193 4.34637 11.8361 4.14567 11.9709 3.95545C12.108 3.79428 12.2573 3.64475 12.4182 3.50857C12.6072 3.37392 12.8065 3.25706 13.0163 3.15801C13.2296 3.08013 13.4492 3.02128 13.6733 2.98148C13.8981 2.9617 14.1238 2.96203 14.3486 2.98247C14.5683 3.02079 14.7838 3.07876 14.9931 3.15637C15.2017 3.2531 15.401 3.36882 15.5878 3.50354C15.7498 3.63907 15.8991 3.78789 16.0349 3.94834C16.1706 4.13827 16.2892 4.33868 16.3874 4.54958C16.4654 4.75987 16.5237 4.97548 16.5632 5.19639C16.5825 5.38382 16.6134 5.5708 16.7124 5.73681C16.8327 5.94189 17.0187 6.09228 17.2347 6.18525C17.4206 6.26455 17.6011 6.28642 17.8007 6.25908C18.0037 6.2307 18.1544 6.16052 18.3099 6.04992L18.3011 6.05673C18.3053 6.05351 18.3096 6.05029 18.3138 6.04709C18.3317 6.03428 18.3497 6.02094 18.3678 6.00707C18.5628 5.86509 18.7692 5.74245 18.988 5.64037C19.2023 5.56104 19.422 5.50129 19.6459 5.4621C19.8701 5.44185 20.0954 5.44192 20.3208 5.46231C20.5465 5.50185 20.7678 5.56206 20.9836 5.64095C21.1902 5.73821 21.3877 5.85376 21.5741 5.9855C21.7378 6.12441 21.8894 6.27629 22.028 6.44034C22.1597 6.62552 22.2731 6.82087 22.3692 7.02741C22.4482 7.24157 22.5067 7.46106 22.5456 7.6849C22.5661 7.91372 22.5646 8.14367 22.5441 8.3738C22.5051 8.59232 22.4466 8.80669 22.3694 9.01599C22.2687 9.23151 22.1479 9.4372 22.0081 9.63069C21.9048 9.76201 21.8141 9.89845 21.7683 10.0626C21.7027 10.3005 21.7273 10.5493 21.823 10.7735C21.8995 10.954 22.0062 11.0907 22.1593 11.211C22.361 11.367 22.5547 11.4172 22.8081 11.4448C23.0266 11.4839 23.2399 11.5413 23.4479 11.6179C23.6591 11.7167 23.8598 11.8336 24.05 11.9684C24.2112 12.1054 24.3607 12.2548 24.4969 12.4156C24.6316 12.6046 24.7484 12.804 24.8475 13.0137C24.9254 13.227 24.9842 13.4467 25.024 13.6707C25.0438 13.8956 25.0435 14.1212 25.023 14.346C24.9847 14.5658 24.9267 14.7812 24.8491 14.9905C24.7524 15.1992 24.6367 15.3985 24.5019 15.5852C24.3664 15.7472 24.2176 15.8965 24.0572 16.0324C23.8672 16.168 23.6668 16.2866 23.4559 16.3848C23.2477 16.462 23.0343 16.52 22.8157 16.5595C22.5488 16.5611 22.2319 16.6811 22.0472 16.8794C21.968 16.9586 21.8965 17.0595 21.8412 17.1701C21.7693 17.309 21.7252 17.4616 21.7264 17.6204C21.7264 17.6314 21.7267 17.6423 21.7273 17.6532C21.7307 17.7419 21.7421 17.8315 21.7627 17.9186ZM22.8775 16.5545C22.8929 16.5528 22.9084 16.5508 22.9238 16.5488C22.9346 16.5475 22.9454 16.5461 22.9561 16.5448C22.93 16.5479 22.9038 16.5511 22.8775 16.5545ZM23.6085 16.3243C23.5892 16.3325 23.5699 16.3404 23.5505 16.3482C23.5698 16.3402 23.5892 16.3322 23.6085 16.3243ZM24.5956 15.4685C24.5877 15.4788 24.5797 15.489 24.5717 15.4993L24.5956 15.4685ZM24.7898 15.1403C24.7975 15.1213 24.8054 15.1022 24.8133 15.0832C24.8056 15.1023 24.7978 15.1213 24.7898 15.1403ZM25.0058 13.5052C25.0095 13.5331 25.0129 13.5611 25.0159 13.5891C25.0124 13.561 25.009 13.533 25.0058 13.5052ZM24.7898 12.8653C24.7931 12.8733 24.7963 12.8813 24.7996 12.8893C24.7963 12.8813 24.793 12.8733 24.7898 12.8653ZM23.6085 11.6813C23.5892 11.6735 23.5698 11.6655 23.5505 11.6574C23.5699 11.6652 23.5892 11.6732 23.6085 11.6813ZM22.1238 9.48564C22.111 9.50265 22.0982 9.51892 22.0855 9.53484L22.1238 9.48564ZM22.3152 9.15478C22.3185 9.14667 22.3218 9.13856 22.3251 9.13045C22.3218 9.13857 22.3185 9.14668 22.3152 9.15478ZM22.5667 7.8204C22.5651 7.80934 22.5636 7.79823 22.562 7.7871C22.5636 7.79819 22.5652 7.80929 22.5667 7.8204ZM22.5388 7.61574C22.5351 7.5872 22.5317 7.55876 22.5284 7.53056C22.5322 7.55893 22.5357 7.58733 22.5388 7.61574ZM22.3179 6.89619C22.3211 6.90398 22.3243 6.91177 22.3275 6.91958C22.3243 6.91178 22.3211 6.90398 22.3179 6.89619ZM19.7777 5.4415C19.7672 5.44299 19.7567 5.44449 19.7462 5.44598C19.7567 5.44444 19.7672 5.44295 19.7777 5.4415ZM19.5762 5.46906C19.5466 5.47284 19.5171 5.47644 19.4878 5.47978C19.5173 5.47586 19.5467 5.47228 19.5762 5.46906ZM18.8534 5.69306C18.8615 5.68973 18.8696 5.68643 18.8777 5.68315C18.8696 5.68647 18.8615 5.68978 18.8534 5.69306ZM16.5571 5.12812C16.5553 5.11266 16.5534 5.09713 16.5514 5.0817C16.55 5.07081 16.5487 5.05997 16.5474 5.04923C16.5504 5.07538 16.5537 5.10172 16.5571 5.12812ZM16.3269 4.39697C16.335 4.41626 16.343 4.43561 16.3508 4.455C16.3427 4.43565 16.3347 4.41631 16.3269 4.39697ZM15.471 3.40986C15.4813 3.41779 15.4916 3.42578 15.5018 3.43381L15.471 3.40986ZM15.1429 3.21572C15.1239 3.20799 15.1048 3.20012 15.0858 3.19219C15.1049 3.19987 15.1239 3.20771 15.1429 3.21572ZM13.5077 2.9997C13.5357 2.996 13.5637 2.99262 13.5917 2.98954C13.5636 2.99312 13.5355 2.99652 13.5077 2.9997ZM12.8679 3.21572C12.8758 3.21244 12.8838 3.20918 12.8918 3.20595C12.8838 3.20923 12.8759 3.21248 12.8679 3.21572ZM11.6839 4.39697C11.676 4.41631 11.6681 4.43565 11.66 4.455C11.6678 4.43561 11.6758 4.41626 11.6839 4.39697ZM9.4882 5.88173C9.5052 5.89448 9.52146 5.90723 9.53737 5.91997L9.4882 5.88173ZM9.15734 5.69033C9.14927 5.68705 9.14119 5.68374 9.13311 5.68042C9.1412 5.68369 9.14928 5.687 9.15734 5.69033ZM7.82297 5.43876C7.81189 5.44035 7.80078 5.44193 7.78964 5.44351C7.80074 5.44188 7.81185 5.4403 7.82297 5.43876ZM7.6183 5.46673C7.58977 5.47036 7.56133 5.47382 7.53313 5.47705C7.5615 5.47326 7.58989 5.46983 7.6183 5.46673ZM6.89875 5.68759C6.90652 5.68439 6.91429 5.68121 6.92207 5.67806C6.9143 5.68125 6.90653 5.68443 6.89875 5.68759ZM5.44406 8.22783C5.44556 8.23829 5.44705 8.24878 5.44854 8.2593C5.447 8.24882 5.44551 8.23833 5.44406 8.22783ZM5.47163 8.42931C5.4754 8.45891 5.479 8.48842 5.48234 8.51767C5.47842 8.48824 5.47485 8.45878 5.47163 8.42931ZM5.69563 9.15205C5.69229 9.14397 5.68899 9.13589 5.68571 9.12779C5.68903 9.13588 5.69234 9.14396 5.69563 9.15205ZM5.13068 11.4484C5.11521 11.4502 5.09968 11.4521 5.08424 11.4541C5.07338 11.4555 5.06256 11.4568 5.05185 11.4581C5.07798 11.455 5.1043 11.4518 5.13068 11.4484ZM4.39953 11.6786C4.41882 11.6705 4.43816 11.6625 4.45755 11.6547C4.43821 11.6628 4.41887 11.6708 4.39953 11.6786ZM3.41242 12.5345C3.42036 12.5241 3.42835 12.5139 3.43638 12.5037L3.41242 12.5345ZM3.21828 12.8626C3.21055 12.8816 3.20269 12.9007 3.19475 12.9197C3.20243 12.9006 3.21027 12.8816 3.21828 12.8626ZM3.00227 14.4977C2.99857 14.4698 2.99518 14.4418 2.99211 14.4138C2.99568 14.4419 2.99909 14.4699 3.00227 14.4977ZM3.21828 15.1376C3.215 15.1296 3.21174 15.1217 3.20852 15.1137C3.21179 15.1217 3.21505 15.1296 3.21828 15.1376ZM4.39953 16.3216C4.41887 16.3294 4.43822 16.3374 4.45756 16.3455C4.43817 16.3377 4.41883 16.3297 4.39953 16.3216ZM5.69289 18.8481C5.6896 18.8562 5.6863 18.8643 5.68297 18.8724C5.68625 18.8643 5.68955 18.8562 5.69289 18.8481ZM5.44133 20.1825C5.44291 20.1936 5.44449 20.2047 5.44607 20.2158C5.44444 20.2047 5.44286 20.1936 5.44133 20.1825ZM5.4693 20.3872C5.47293 20.4157 5.47639 20.4442 5.47961 20.4724C5.47583 20.444 5.47239 20.4156 5.4693 20.3872ZM5.69016 21.1067C5.68695 21.099 5.68378 21.0912 5.68063 21.0834C5.68382 21.0912 5.687 21.099 5.69016 21.1067ZM8.23039 22.5614C8.24086 22.5599 8.25135 22.5584 8.26188 22.5569C8.25139 22.5585 8.2409 22.56 8.23039 22.5614ZM8.43184 22.5339C8.46145 22.5301 8.49097 22.5265 8.52024 22.5231C8.49079 22.5271 8.46132 22.5306 8.43184 22.5339ZM9.15461 22.3099C9.14656 22.3132 9.1385 22.3165 9.13044 22.3197C9.1385 22.3164 9.14655 22.3131 9.15461 22.3099ZM11.451 22.8748C11.4527 22.8903 11.4547 22.9058 11.4566 22.9212C11.458 22.9321 11.4594 22.943 11.4607 22.9537C11.4576 22.9276 11.4544 22.9012 11.451 22.8748ZM11.6812 23.606C11.673 23.5867 11.6651 23.5673 11.6573 23.5479C11.6653 23.5673 11.6733 23.5866 11.6812 23.606ZM12.537 24.5931C12.5267 24.5851 12.5164 24.5771 12.5062 24.5691L12.537 24.5931ZM12.8652 24.7872C12.8842 24.7949 12.9033 24.8028 12.9223 24.8107C12.9032 24.8031 12.8841 24.7952 12.8652 24.7872ZM14.5003 25.0032C14.4724 25.0069 14.4444 25.0103 14.4164 25.0134C14.4445 25.0098 14.4725 25.0064 14.5003 25.0032ZM15.1402 24.7872C15.1322 24.7905 15.1242 24.7938 15.1162 24.797C15.1242 24.7937 15.1322 24.7904 15.1402 24.7872ZM16.3241 23.606C16.332 23.5866 16.34 23.5673 16.3481 23.5479C16.3403 23.5673 16.3323 23.5867 16.3241 23.606ZM18.5198 22.1212C18.5028 22.1084 18.4866 22.0957 18.4706 22.0829L18.5198 22.1212ZM18.8507 22.3126C18.8588 22.3159 18.8669 22.3192 18.875 22.3225C18.8669 22.3192 18.8588 22.3159 18.8507 22.3126ZM20.1851 22.5642C20.1962 22.5626 20.2073 22.561 20.2184 22.5594C20.2073 22.561 20.1962 22.5626 20.1851 22.5642ZM20.3897 22.5362C20.4183 22.5326 20.4467 22.5291 20.4749 22.5259C20.4466 22.5297 20.4182 22.5331 20.3897 22.5362ZM21.1093 22.3153C21.1015 22.3185 21.0937 22.3217 21.0859 22.3249C21.0937 22.3217 21.1015 22.3185 21.1093 22.3153ZM22.564 19.7751C22.5625 19.7646 22.561 19.7541 22.5595 19.7436C22.561 19.7541 22.5625 19.7646 22.564 19.7751ZM22.5364 19.5736C22.5326 19.544 22.529 19.5145 22.5257 19.4852C22.5296 19.5147 22.5332 19.5441 22.5364 19.5736ZM22.3124 18.8509C22.3158 18.859 22.3191 18.867 22.3223 18.8751C22.319 18.8671 22.3157 18.859 22.3124 18.8509ZM5.92255 18.4681L5.8843 18.5173C5.89705 18.5003 5.9098 18.484 5.92255 18.4681ZM17.2527 14.4258C17.2662 14.2845 17.273 14.1422 17.273 14C17.273 13.8528 17.2658 13.7056 17.2513 13.5585C17.2047 13.2802 17.1312 13.0082 17.0318 12.7434C16.9095 12.4779 16.7633 12.2246 16.5919 11.9878C16.413 11.7731 16.2156 11.5771 16.0017 11.3989C15.7696 11.2316 15.5219 11.0883 15.2624 10.9679C14.9907 10.8666 14.7112 10.7909 14.4253 10.7421C14.1353 10.7143 13.8456 10.7146 13.5571 10.7429C13.2783 10.7895 13.0058 10.8631 12.7407 10.9626C12.4751 11.085 12.2218 11.2312 11.985 11.4026C11.7703 11.5814 11.5743 11.7789 11.3961 11.9928C11.2288 12.2249 11.0855 12.4725 10.9651 12.7321C10.8638 13.0038 10.7881 13.2833 10.7393 13.5692C10.7115 13.8592 10.7118 14.1489 10.7402 14.4374C10.7867 14.7161 10.8603 14.9886 10.9599 15.2538C11.0822 15.5194 11.2284 15.7726 11.3998 16.0095C11.5787 16.2242 11.7761 16.4201 11.99 16.5983C12.2221 16.7657 12.4697 16.909 12.7293 17.0294C13.001 17.1307 13.2805 17.2063 13.5664 17.2551C13.8564 17.2829 14.1461 17.2827 14.4346 17.2543C14.7133 17.2077 14.9859 17.1341 15.251 17.0346C15.5166 16.9123 15.7698 16.7661 16.0067 16.5947C16.2214 16.4158 16.4173 16.2184 16.5955 16.0045C16.7629 15.7724 16.9062 15.5247 17.0266 15.2652C17.1281 14.9927 17.2039 14.7125 17.2527 14.4258ZM16.9695 15.4109C16.972 15.4047 16.9746 15.3984 16.9772 15.3921C16.9746 15.3984 16.972 15.4047 16.9695 15.4109ZM15.4081 16.9723C15.3912 16.9793 15.3743 16.9863 15.3573 16.9932C15.3743 16.9861 15.3912 16.9791 15.4081 16.9723ZM14.3117 17.273C14.3243 17.2712 14.337 17.2694 14.3497 17.2676C14.337 17.2695 14.3243 17.2713 14.3117 17.273ZM14.487 17.2488C14.5254 17.2438 14.5637 17.2391 14.6015 17.2348C14.5634 17.2399 14.5252 17.2446 14.487 17.2488ZM12.5835 16.9723C12.5898 16.9748 12.596 16.9773 12.6023 16.9799C12.596 16.9774 12.5898 16.9748 12.5835 16.9723ZM11.0222 15.4109C11.0151 15.394 11.0082 15.3771 11.0013 15.3601C11.0083 15.377 11.0153 15.394 11.0222 15.4109ZM10.7214 14.3144C10.7232 14.3271 10.725 14.3398 10.7268 14.3525C10.725 14.3398 10.7232 14.3271 10.7214 14.3144ZM10.7456 14.4898C10.7506 14.5282 10.7554 14.5665 10.7597 14.6043C10.7545 14.5662 10.7498 14.528 10.7456 14.4898ZM11.0222 12.5863C11.0197 12.5926 11.0171 12.5988 11.0145 12.6051C11.0171 12.5988 11.0196 12.5926 11.0222 12.5863ZM12.5835 11.025C12.6004 11.0179 12.6174 11.011 12.6343 11.0041C12.6174 11.0111 12.6005 11.0181 12.5835 11.025ZM13.68 10.7242C13.6674 10.726 13.6547 10.7278 13.642 10.7296C13.6547 10.7278 13.6673 10.726 13.68 10.7242ZM13.5046 10.7484C13.4663 10.7534 13.428 10.7582 13.3902 10.7625C13.4283 10.7573 13.4665 10.7526 13.5046 10.7484ZM15.4081 11.025C15.4019 11.0225 15.3956 11.0199 15.3894 11.0173C15.3956 11.0199 15.4019 11.0224 15.4081 11.025ZM16.9695 12.5863C16.9766 12.6033 16.9835 12.6202 16.9904 12.6372C16.9834 12.6202 16.9764 12.6033 16.9695 12.5863ZM17.2703 13.6828C17.2685 13.6702 17.2667 13.6575 17.2649 13.6448C17.2667 13.6575 17.2685 13.6701 17.2703 13.6828ZM17.2456 13.5037C17.2407 13.4666 17.2362 13.4296 17.232 13.393C17.237 13.4299 17.2415 13.4668 17.2456 13.5037ZM19.4525 14.1366C19.458 14.0921 19.4607 14.0465 19.4605 14C19.455 12.9117 19.1324 11.7906 18.4925 10.9019C18.1234 10.3879 17.7132 9.96953 17.2101 9.58945C16.7781 9.26132 16.2941 9.02617 15.7855 8.84023C14.7519 8.46289 13.557 8.44375 12.5042 8.74453C11.4871 9.03437 10.5218 9.63593 9.84642 10.4535C9.65228 10.6914 9.46361 10.9375 9.30502 11.2C9.14369 11.468 9.02064 11.7523 8.90306 12.0394C8.69252 12.5535 8.59135 13.1004 8.5476 13.6527C8.46283 14.7383 8.74994 15.8785 9.31322 16.8082C9.85736 17.7078 10.6804 18.4844 11.6429 18.9219C11.9273 19.0504 12.2171 19.1707 12.5179 19.2555C12.8269 19.343 13.1441 19.3867 13.464 19.425C14.0246 19.4934 14.596 19.4441 15.1484 19.332C17.2511 18.9109 19.0339 17.0898 19.3648 14.9652C19.4068 14.6896 19.4429 14.4139 19.4525 14.1366Z" fill="#5F73F1"/>
<path d="M24.4671 18.3778L24.8409 18.2354L24.8404 18.234L24.4671 18.3778ZM24.4461 18.3237L24.2851 17.9576L23.9341 18.1119L24.0735 18.4691L24.4461 18.3237ZM24.746 19.827L25.1456 19.8097L25.1456 19.8092L24.746 19.827ZM24.1007 22.3864L24.4455 22.5892L24.4461 22.5882L24.1007 22.3864ZM22.1292 24.2349L22.3022 24.5955L22.3023 24.5955L22.1292 24.2349ZM19.5425 24.7188L19.4942 25.1159L19.4947 25.116L19.5425 24.7188ZM18.3295 24.4412L18.468 24.0659L18.1166 23.9362L17.9642 24.2783L18.3295 24.4412ZM18.2956 24.5165L17.9314 24.3512L17.9313 24.3513L18.2956 24.5165ZM17.478 25.7169L17.7725 25.9876L17.7731 25.987L17.478 25.7169ZM15.2304 27.0649L15.3314 27.452L15.3327 27.4516L15.2304 27.0649ZM12.507 26.9829L12.3749 27.3605L12.3762 27.3609L12.507 26.9829ZM10.3495 25.5091L10.6621 25.2595L10.6619 25.2592L10.3495 25.5091ZM9.89289 24.8692L10.2373 24.6659L9.89289 24.8692ZM9.67902 24.4436L10.0452 24.2825L9.89081 23.9315L9.53361 24.0709L9.67902 24.4436ZM9.62492 24.4645L9.76732 24.8383L9.76876 24.8378L9.62492 24.4645ZM8.1757 24.7435L8.19302 25.1431L8.19356 25.1431L8.1757 24.7435ZM5.61633 24.0981L5.41357 24.4429L5.41455 24.4435L5.61633 24.0981ZM3.76789 22.1267L3.4072 22.2996L3.40726 22.2997L3.76789 22.1267ZM3.28391 19.5399L2.88683 19.4917L2.88677 19.4921L3.28391 19.5399ZM3.56157 18.3269L3.93684 18.4654L4.06651 18.1141L3.72441 17.9616L3.56157 18.3269ZM3.48625 18.2931L3.6515 17.9288L3.65143 17.9288L3.48625 18.2931ZM2.28586 17.4755L2.01512 17.7699L2.01578 17.7705L2.28586 17.4755ZM0.937813 15.2278L0.550763 15.3288L0.551112 15.3301L0.937813 15.2278ZM1.01984 12.5044L0.642279 12.3723L0.641835 12.3736L1.01984 12.5044ZM2.49367 10.347L2.74325 10.6596L2.74355 10.6593L2.49367 10.347ZM3.13352 9.89033L3.33687 10.2348H3.33687L3.13352 9.89033ZM3.55918 9.67646L3.72022 10.0426L4.07122 9.88824L3.93181 9.53103L3.55918 9.67646ZM3.5382 9.62236L3.16441 9.76476L3.16496 9.7662L3.5382 9.62236ZM3.2593 8.17314L2.85967 8.19046L2.8597 8.191L3.2593 8.17314ZM3.90461 5.61376L3.5598 5.41101L3.55923 5.41198L3.90461 5.61376ZM5.87609 3.76533L5.70316 3.40464L5.70304 3.4047L5.87609 3.76533ZM8.46281 3.28134L8.51108 2.88426L8.51062 2.88421L8.46281 3.28134ZM9.6758 3.55901L9.53732 3.93427L9.88868 4.06394L10.0412 3.72185L9.6758 3.55901ZM9.70969 3.48369L10.074 3.64892L10.074 3.64887L9.70969 3.48369ZM10.5273 2.2833L10.2328 2.01255L10.2322 2.01321L10.5273 2.2833ZM12.7749 0.935249L12.674 0.5482L12.6726 0.548549L12.7749 0.935249ZM15.4984 1.01728L15.6304 0.639715L15.6292 0.639272L15.4984 1.01728ZM17.6558 2.49111L17.3432 2.74068L17.3434 2.74099L17.6558 2.49111ZM18.1124 3.13095L18.4569 2.9276V2.9276L18.1124 3.13095ZM18.3263 3.55662L17.9601 3.71766L18.1145 4.06865L18.4717 3.92924L18.3263 3.55662ZM18.3804 3.53564L18.238 3.16184L18.2365 3.1624L18.3804 3.53564ZM19.8296 3.25673L19.8123 2.85711L19.8118 2.85713L19.8296 3.25673ZM22.389 3.90205L22.5917 3.55724L22.5908 3.55667L22.389 3.90205ZM24.2374 5.87353L24.5981 5.7006L24.5981 5.70048L24.2374 5.87353ZM24.7214 8.46025L25.1185 8.50851L25.1185 8.50805L24.7214 8.46025ZM24.4437 9.67324L24.0685 9.53475L23.9388 9.88612L24.2809 10.0386L24.4437 9.67324ZM24.5191 9.70712L24.3538 10.0714L24.3539 10.0714L24.5191 9.70712ZM25.7195 10.5247L25.9902 10.2303L25.9895 10.2297L25.7195 10.5247ZM27.0675 12.7724L27.4546 12.6714L27.4542 12.6701L27.0675 12.7724ZM26.9855 15.4958L27.363 15.6279L27.3635 15.6266L26.9855 15.4958ZM25.5116 17.6532L25.2621 17.3406L25.2618 17.3409L25.5116 17.6532ZM24.8718 18.1099L24.6684 17.7654H24.6684L24.8718 18.1099ZM21.7627 17.9186L22.1599 17.8716L22.1572 17.8488L22.152 17.8265L21.7627 17.9186ZM21.7655 17.9431L21.3681 17.9885L21.3717 18.0201L21.3803 18.0507L21.7655 17.9431ZM21.8124 18.0783L22.1848 17.9319L22.1814 17.9238L21.8124 18.0783ZM22.0336 18.4144L22.3606 18.184L22.338 18.1519L22.3096 18.1248L22.0336 18.4144ZM22.3651 18.9855L22.7402 18.8466L22.7346 18.8313L22.7276 18.8164L22.3651 18.9855ZM22.5434 19.6434L22.9418 19.6074L22.9403 19.5908L22.9374 19.5744L22.5434 19.6434ZM22.5432 20.3182L22.9372 20.3873L22.94 20.3709L22.9415 20.3543L22.5432 20.3182ZM22.3645 20.9811L22.7264 21.1514L22.7341 21.1352L22.7402 21.1184L22.3645 20.9811ZM22.02 21.5715L22.325 21.8303L22.3364 21.8168L22.3466 21.8024L22.02 21.5715ZM21.5651 22.0254L21.797 22.3513L21.8106 22.3417L21.8233 22.331L21.5651 22.0254ZM20.9781 22.3666L21.1166 22.7419L21.1319 22.7362L21.1468 22.7293L20.9781 22.3666ZM20.3206 22.543L20.3562 22.9414L20.3728 22.94L20.3892 22.9371L20.3206 22.543ZM19.6317 22.5415L19.5615 22.9353L19.5787 22.9384L19.5961 22.9399L19.6317 22.5415ZM18.9895 22.3668L18.8202 22.7292L18.8353 22.7363L18.8511 22.7421L18.9895 22.3668ZM18.3748 22.0056L18.1274 22.3199L18.1339 22.325L18.1407 22.3299L18.3748 22.0056ZM17.9429 21.7657L18.0505 21.3805L18.0493 21.3801L17.9429 21.7657ZM17.232 21.8204L17.3882 22.1886L17.389 22.1883L17.232 21.8204ZM16.7945 22.1567L16.4799 21.9096L16.478 21.912L16.7945 22.1567ZM16.5607 22.8056L16.9544 22.876L16.9568 22.8625L16.9583 22.8489L16.5607 22.8056ZM16.3876 23.4454L16.7499 23.6149L16.757 23.5996L16.7629 23.5836L16.3876 23.4454ZM16.0371 24.0475L16.3419 24.3066L16.3533 24.2931L16.3635 24.2787L16.0371 24.0475ZM15.5899 24.4943L15.822 24.8201L15.8356 24.8104L15.8484 24.7996L15.5899 24.4943ZM14.9918 24.8449L15.129 25.2206L15.1461 25.2144L15.1625 25.2066L14.9918 24.8449ZM14.3347 25.0214L14.3698 25.4199L14.3873 25.4184L14.4047 25.4153L14.3347 25.0214ZM13.6595 25.0204L13.5907 25.4145L13.6069 25.4173L13.6232 25.4188L13.6595 25.0204ZM13.015 24.8465L12.8467 25.2094L12.8611 25.2161L12.8759 25.2216L13.015 24.8465ZM12.4203 24.4994L12.1636 24.8061L12.1746 24.8154L12.1862 24.8238L12.4203 24.4994ZM11.9731 24.0546L11.6476 24.2871L11.6572 24.3005L11.6678 24.3131L11.9731 24.0546ZM11.6207 23.4533L11.2457 23.5925L11.2513 23.6076L11.2581 23.6222L11.6207 23.4533ZM11.4448 22.8065L11.0469 22.8473L11.0484 22.8623L11.0511 22.877L11.4448 22.8065ZM11.2956 22.2661L10.9506 22.4685L10.9521 22.4711L11.2956 22.2661ZM10.7734 21.8177L10.9315 21.4503L10.9303 21.4497L10.7734 21.8177ZM10.2073 21.7438L10.1531 21.3475L10.152 21.3477L10.2073 21.7438ZM9.69817 21.953L9.45261 21.6373L9.93006 22.2789L9.69817 21.953ZM9.70695 21.9462L9.95252 22.2619L9.46472 21.6279L9.70695 21.9462ZM9.69418 21.9559L9.92702 22.2813L9.93509 22.2752L9.69418 21.9559ZM9.64028 21.9958L9.87579 22.3193L9.88342 22.3134L9.64028 21.9958ZM9.02 22.3625L9.15886 22.7377L9.17422 22.732L9.18906 22.7251L9.02 22.3625ZM8.36209 22.5408L8.39808 22.9392L8.41465 22.9377L8.43104 22.9348L8.36209 22.5408ZM7.68727 22.5406L7.61826 22.9346L7.63466 22.9375L7.65124 22.939L7.68727 22.5406ZM7.02444 22.362L6.85408 22.7239L6.8703 22.7315L6.88714 22.7377L7.02444 22.362ZM6.43398 22.0174L6.1752 22.3224L6.18866 22.3339L6.20306 22.344L6.43398 22.0174ZM5.98008 21.5626L5.65415 21.7945L5.66379 21.808L5.67453 21.8207L5.98008 21.5626ZM5.63888 20.9755L5.26361 21.114L5.26928 21.1293L5.27619 21.1442L5.63888 20.9755ZM5.46245 20.318L5.06403 20.3536L5.06551 20.3702L5.06836 20.3866L5.46245 20.318ZM5.46397 19.6291L5.07018 19.5589L5.06711 19.5761L5.06555 19.5935L5.46397 19.6291ZM5.63865 18.9869L5.27627 18.8176L5.26917 18.8328L5.26337 18.8485L5.63865 18.9869ZM5.9999 18.3722L5.68561 18.1248L5.68047 18.1313L5.67561 18.1381L5.9999 18.3722ZM6.23977 17.9403L6.62501 18.048L6.62536 18.0467L6.23977 17.9403ZM6.18508 17.2294L5.81685 17.3856L5.81719 17.3864L6.18508 17.2294ZM5.84875 16.7919L6.09589 16.4774L6.09345 16.4755L5.84875 16.7919ZM5.19994 16.5581L5.12955 16.9519L5.143 16.9543L5.15658 16.9558L5.19994 16.5581ZM4.56013 16.385L4.39057 16.7473L4.40594 16.7545L4.42186 16.7604L4.56013 16.385ZM3.95802 16.0346L3.69891 16.3393L3.71235 16.3507L3.72675 16.3609L3.95802 16.0346ZM3.51113 15.5873L3.18536 15.8194L3.19506 15.833L3.20586 15.8458L3.51113 15.5873ZM3.16058 14.9892L2.78485 15.1264L2.7911 15.1435L2.79888 15.16L3.16058 14.9892ZM2.98404 14.3322L2.58558 14.3672L2.58713 14.3848L2.59021 14.4021L2.98404 14.3322ZM2.98504 13.6569L2.59098 13.5882L2.58817 13.6043L2.58668 13.6207L2.98504 13.6569ZM3.15894 13.0124L2.79604 12.8441L2.78939 12.8585L2.78389 12.8733L3.15894 13.0124ZM3.5061 12.4177L3.19932 12.161L3.1901 12.1721L3.1817 12.1837L3.5061 12.4177ZM3.9509 11.9705L3.71842 11.645L3.70501 11.6546L3.69243 11.6653L3.9509 11.9705ZM4.55214 11.6181L4.41301 11.2431L4.39791 11.2487L4.38331 11.2555L4.55214 11.6181ZM5.19896 11.4422L5.15817 11.0443L5.14324 11.0459L5.12847 11.0485L5.19896 11.4422ZM5.73938 11.2931L5.53696 10.948L5.53439 10.9496L5.73938 11.2931ZM6.18781 10.7708L6.55523 10.9289L6.55575 10.9277L6.18781 10.7708ZM6.26164 10.2048L6.65794 10.1505L6.65779 10.1494L6.26164 10.2048ZM6.05248 9.69563L6.36823 9.45006L5.72655 9.92751L6.05248 9.69563ZM6.0593 9.70439L5.74355 9.94996L6.37762 9.46217L6.0593 9.70439ZM6.04965 9.69165L5.72423 9.92448L5.73036 9.9326L6.04965 9.69165ZM6.00964 9.63767L5.68617 9.87318L5.69201 9.88081L6.00964 9.63767ZM5.64293 9.01743L5.26781 9.15629L5.2735 9.17165L5.28042 9.18649L5.64293 9.01743ZM5.46467 8.35955L5.06629 8.39554L5.06779 8.41211L5.07065 8.42849L5.46467 8.35955ZM5.46488 7.68469L5.07088 7.61567L5.06801 7.63207L5.06651 7.64865L5.46488 7.68469ZM5.64351 7.02187L5.28161 6.85151L5.27397 6.86773L5.26781 6.88458L5.64351 7.02187ZM5.98806 6.43141L5.68304 6.17264L5.67163 6.18609L5.66145 6.20049L5.98806 6.43141ZM6.4429 5.97752L6.21102 5.65159L6.19747 5.66123L6.18476 5.67197L6.4429 5.97752ZM7.02997 5.63632L6.8915 5.26105L6.87613 5.26672L6.86127 5.27363L7.02997 5.63632ZM7.68745 5.45988L7.65184 5.06147L7.63528 5.06295L7.6189 5.0658L7.68745 5.45988ZM8.37638 5.4614L8.44658 5.06761L8.42936 5.06454L8.41195 5.06299L8.37638 5.4614ZM9.01855 5.63609L9.18789 5.2737L9.1727 5.26661L9.15698 5.26081L9.01855 5.63609ZM9.63324 5.99733L9.88068 5.68304L9.87415 5.6779L9.86741 5.67304L9.63324 5.99733ZM10.0652 6.2372L9.95751 6.62245L9.95879 6.6228L10.0652 6.2372ZM10.7761 6.18251L10.6199 5.81428L10.6191 5.81462L10.7761 6.18251ZM11.2136 5.84619L11.5281 6.09332L11.53 6.09088L11.2136 5.84619ZM11.4474 5.19736L11.0536 5.12697L11.0512 5.14042L11.0497 5.15401L11.4474 5.19736ZM11.6205 4.55756L11.2582 4.38801L11.251 4.40337L11.2451 4.41929L11.6205 4.55756ZM11.9709 3.95545L11.6662 3.69634L11.6548 3.70978L11.6446 3.72418L11.9709 3.95545ZM12.4182 3.50857L12.1861 3.1828L12.1724 3.1925L12.1597 3.2033L12.4182 3.50857ZM13.0163 3.15801L12.8791 2.78228L12.862 2.78853L12.8455 2.79631L13.0163 3.15801ZM13.6733 2.98148L13.6383 2.58302L13.6207 2.58456L13.6034 2.58764L13.6733 2.98148ZM14.3486 2.98247L14.4173 2.58842L14.4012 2.5856L14.3848 2.58412L14.3486 2.98247ZM14.9931 3.15637L15.1614 2.79348L15.147 2.78682L15.1322 2.78132L14.9931 3.15637ZM15.5878 3.50354L15.8444 3.19675L15.8334 3.18754L15.8218 3.17913L15.5878 3.50354ZM16.0349 3.94834L16.3604 3.71586L16.3509 3.70245L16.3402 3.68987L16.0349 3.94834ZM16.3874 4.54958L16.7624 4.41045L16.7568 4.39535L16.75 4.38075L16.3874 4.54958ZM16.5632 5.19639L16.9612 5.1556L16.9596 5.14067L16.957 5.1259L16.5632 5.19639ZM16.7124 5.73681L17.0574 5.5344L17.0559 5.53183L16.7124 5.73681ZM17.2347 6.18525L17.0766 6.55267L17.0778 6.55318L17.2347 6.18525ZM17.8007 6.25908L17.855 6.65538L17.8561 6.65522L17.8007 6.25908ZM18.3099 6.04992L18.5554 6.36566L18.078 5.72399L18.3099 6.04992ZM18.3011 6.05673L18.0555 5.741L18.5433 6.37509L18.3011 6.05673ZM18.3138 6.04709L18.081 5.72168L18.0729 5.7278L18.3138 6.04709ZM18.3678 6.00707L18.1323 5.6836L18.1247 5.68944L18.3678 6.00707ZM18.988 5.64037L18.8492 5.26525L18.8338 5.27093L18.819 5.27785L18.988 5.64037ZM19.6459 5.4621L19.61 5.06372L19.5934 5.06522L19.577 5.06809L19.6459 5.4621ZM20.3208 5.46231L20.3898 5.06831L20.3734 5.06544L20.3568 5.06394L20.3208 5.46231ZM20.9836 5.64095L21.154 5.27904L21.1378 5.2714L21.1209 5.26525L20.9836 5.64095ZM21.5741 5.9855L21.8329 5.68048L21.8194 5.66907L21.805 5.65889L21.5741 5.9855ZM22.028 6.44034L22.3539 6.20846L22.3443 6.1949L22.3335 6.1822L22.028 6.44034ZM22.3692 7.02741L22.7444 6.88894L22.7388 6.87357L22.7319 6.85871L22.3692 7.02741ZM22.5456 7.6849L22.944 7.6493L22.9425 7.63274L22.9397 7.61636L22.5456 7.6849ZM22.5441 8.3738L22.9379 8.44399L22.9409 8.42678L22.9425 8.40936L22.5441 8.3738ZM22.3694 9.01599L22.7318 9.18533L22.7389 9.17014L22.7447 9.15442L22.3694 9.01599ZM22.0081 9.63069L22.3224 9.87813L22.3276 9.8716L22.3324 9.86487L22.0081 9.63069ZM21.7683 10.0626L21.383 9.95495L21.3827 9.95622L21.7683 10.0626ZM21.823 10.7735L22.1912 10.6173L22.1909 10.6165L21.823 10.7735ZM22.1593 11.211L21.9122 11.5256L21.9146 11.5274L22.1593 11.211ZM22.8081 11.4448L22.8785 11.051L22.8651 11.0486L22.8515 11.0472L22.8081 11.4448ZM23.4479 11.6179L23.6175 11.2556L23.6021 11.2484L23.5862 11.2426L23.4479 11.6179ZM24.05 11.9684L24.3091 11.6636L24.2957 11.6522L24.2813 11.642L24.05 11.9684ZM24.4969 12.4156L24.8227 12.1835L24.813 12.1699L24.8022 12.1571L24.4969 12.4156ZM24.8475 13.0137L25.2232 12.8765L25.217 12.8594L25.2092 12.8429L24.8475 13.0137ZM25.024 13.6707L25.4225 13.6357L25.4209 13.6181L25.4178 13.6008L25.024 13.6707ZM25.023 14.346L25.4171 14.4148L25.4199 14.3986L25.4214 14.3823L25.023 14.346ZM24.8491 14.9905L25.212 15.1588L25.2187 15.1444L25.2242 15.1296L24.8491 14.9905ZM24.5019 15.5852L24.8087 15.8419L24.8179 15.8309L24.8263 15.8192L24.5019 15.5852ZM24.0572 16.0324L24.2896 16.3579L24.3031 16.3483L24.3156 16.3376L24.0572 16.0324ZM23.4559 16.3848L23.595 16.7598L23.6101 16.7542L23.6247 16.7474L23.4559 16.3848ZM22.8157 16.5595L22.8181 16.9595L22.8528 16.9593L22.8869 16.9531L22.8157 16.5595ZM22.0472 16.8794L22.33 17.1622L22.335 17.1572L22.3399 17.152L22.0472 16.8794ZM21.8412 17.1701L22.1964 17.3542L22.199 17.3489L21.8412 17.1701ZM21.7264 17.6204L22.1264 17.6186L22.1264 17.6175L21.7264 17.6204ZM21.7273 17.6532L22.127 17.6378L22.1268 17.6332L21.7273 17.6532ZM22.9238 16.5488L22.974 16.9457H22.974L22.9238 16.5488ZM22.8775 16.5545L22.8266 16.1577L22.9222 16.952L22.8775 16.5545ZM22.9561 16.5448L23.0036 16.942L22.9096 16.1475L22.9561 16.5448ZM23.6085 16.3243L23.764 16.6928L23.458 15.9537L23.6085 16.3243ZM23.5505 16.3482L23.3965 15.979L23.6998 16.7193L23.5505 16.3482ZM24.5956 15.4685L24.9127 15.7123L24.2799 15.2229L24.5956 15.4685ZM24.5717 15.4993L24.2559 15.2537L24.8861 15.7465L24.5717 15.4993ZM24.7898 15.1403L24.4192 14.9898L25.1583 15.2959L24.7898 15.1403ZM24.8133 15.0832L25.1844 15.2324L24.4441 14.9293L24.8133 15.0832ZM25.0058 13.5052L25.4023 13.4527L24.6084 13.5506L25.0058 13.5052ZM25.0159 13.5891L24.6191 13.6395L25.4135 13.5455L25.0159 13.5891ZM24.7898 12.8653L25.1595 12.7127L24.4192 13.0159L24.7898 12.8653ZM24.7996 12.8893L24.4297 13.0415L25.1703 12.7391L24.7996 12.8893ZM23.6085 11.6813L23.458 12.0519L23.764 11.3128L23.6085 11.6813ZM23.5505 11.6574L23.6998 11.2863L23.3965 12.0266L23.5505 11.6574ZM22.1238 9.48564L22.4437 9.72564L21.808 9.24006L22.1238 9.48564ZM22.0855 9.53484L21.7697 9.28926L22.3976 9.78495L22.0855 9.53484ZM22.3152 9.15478L21.9446 9.00424L22.6849 9.30738L22.3152 9.15478ZM22.3251 9.13045L22.6958 9.28063L21.9552 8.97827L22.3251 9.13045ZM22.5667 7.8204L22.1707 7.87698L22.963 7.76572L22.5667 7.8204ZM22.562 7.7871L22.9577 7.72905L22.1659 7.84322L22.562 7.7871ZM22.5388 7.61574L22.1419 7.66618L22.9364 7.57244L22.5388 7.61574ZM22.5284 7.53056L22.9249 7.47771L22.131 7.57598L22.5284 7.53056ZM22.3179 6.89619L22.6876 6.74355L21.9473 7.04676L22.3179 6.89619ZM22.3275 6.91958L21.9575 7.0717L22.6982 6.76944L22.3275 6.91958ZM19.7777 5.4415L19.8342 5.83748L19.723 5.04525L19.7777 5.4415ZM19.7462 5.44598L19.6881 5.05022L19.8023 5.84202L19.7462 5.44598ZM19.5762 5.46906L19.6268 5.86585L19.5327 5.07143L19.5762 5.46906ZM19.4878 5.47978L19.435 5.08329L19.5332 5.87719L19.4878 5.47978ZM18.8534 5.69306L18.7008 5.32334L19.004 6.06365L18.8534 5.69306ZM18.8777 5.68315L19.0299 6.05306L18.7275 5.31241L18.8777 5.68315ZM16.5514 5.0817L16.9482 5.03148L16.9482 5.03147L16.5514 5.0817ZM16.5571 5.12812L16.1603 5.179L16.9546 5.08336L16.5571 5.12812ZM16.5474 5.04923L16.9446 5.00176L16.1501 5.09566L16.5474 5.04923ZM16.3269 4.39697L16.6954 4.24145L15.9563 4.54752L16.3269 4.39697ZM16.3508 4.455L15.9816 4.60895L16.7219 4.3057L16.3508 4.455ZM15.471 3.40986L15.7149 3.09281L15.2254 3.7256L15.471 3.40986ZM15.5018 3.43381L15.2562 3.74955L15.7491 3.11939L15.5018 3.43381ZM15.1429 3.21572L14.9923 3.58631L15.2984 2.84719L15.1429 3.21572ZM15.0858 3.19219L15.235 2.82108L14.9319 3.56139L15.0858 3.19219ZM13.5077 2.9997L13.4553 2.60315L13.5532 3.39712L13.5077 2.9997ZM13.5917 2.98954L13.6421 3.38636L13.5481 2.59193L13.5917 2.98954ZM12.8679 3.21572L12.7153 2.84599L13.0184 3.5863L12.8679 3.21572ZM12.8918 3.20595L13.044 3.57587L12.7416 2.83521L12.8918 3.20595ZM11.6839 4.39697L12.0545 4.54752L11.3154 4.24144L11.6839 4.39697ZM11.66 4.455L11.2889 4.3057L12.0292 4.60895L11.66 4.455ZM9.4882 5.88173L9.72821 5.56174L9.24263 6.19747L9.4882 5.88173ZM9.53737 5.91997L9.29179 6.23571L9.78748 5.60781L9.53737 5.91997ZM9.15734 5.69033L9.00679 6.06091L9.30998 5.32059L9.15734 5.69033ZM9.13311 5.68042L9.28328 5.30968L8.9809 6.05032L9.13311 5.68042ZM7.82297 5.43876L7.87954 5.83474L7.76831 5.04252L7.82297 5.43876ZM7.78964 5.44351L7.73158 5.04774L7.84574 5.83955L7.78964 5.44351ZM7.6183 5.46673L7.66875 5.86354L7.57501 5.06908L7.6183 5.46673ZM7.53313 5.47705L7.48026 5.08055L7.57854 5.87446L7.53313 5.47705ZM6.89875 5.68759L6.74612 5.31786L7.04931 6.05818L6.89875 5.68759ZM6.92207 5.67806L7.07423 6.04799L6.77194 5.3073L6.92207 5.67806ZM5.44406 8.22783L5.84004 8.17126L5.04781 8.28248L5.44406 8.22783ZM5.44854 8.2593L5.05278 8.31736L5.84459 8.20317L5.44854 8.2593ZM5.47163 8.42931L5.86841 8.37871L5.07399 8.47275L5.47163 8.42931ZM5.48234 8.51767L5.08585 8.57054L5.87976 8.47225L5.48234 8.51767ZM5.69563 9.15205L5.3259 9.30469L6.06621 9.00149L5.69563 9.15205ZM5.68571 9.12779L6.05561 8.97557L5.31497 9.27797L5.68571 9.12779ZM5.08424 11.4541L5.03402 11.0572L5.034 11.0572L5.08424 11.4541ZM5.13068 11.4484L5.18156 11.8452L5.08594 11.0509L5.13068 11.4484ZM5.05185 11.4581L5.00437 11.0609L5.09828 11.8554L5.05185 11.4581ZM4.39953 11.6786L4.24401 11.3101L4.55009 12.0492L4.39953 11.6786ZM4.45755 11.6547L4.6115 12.0239L4.30824 11.2836L4.45755 11.6547ZM3.41242 12.5345L3.09537 12.2906L3.72816 12.78L3.41242 12.5345ZM3.43638 12.5037L3.75212 12.7492L3.12196 12.2564L3.43638 12.5037ZM3.21828 12.8626L3.58887 13.0131L2.84975 12.7071L3.21828 12.8626ZM3.19475 12.9197L2.82364 12.7704L3.56396 13.0736L3.19475 12.9197ZM3.00227 14.4977L2.60572 14.5502L3.39968 14.4523L3.00227 14.4977ZM2.99211 14.4138L3.38892 14.3634L2.59449 14.4574L2.99211 14.4138ZM3.21828 15.1376L2.84856 15.2902L3.58887 14.987L3.21828 15.1376ZM3.20852 15.1137L3.57843 14.9615L2.83777 15.2639L3.20852 15.1137ZM4.39953 16.3216L4.55009 15.951L4.244 16.6901L4.39953 16.3216ZM4.45756 16.3455L4.30826 16.7166L4.61152 15.9763L4.45756 16.3455ZM5.69289 18.8481L6.06348 18.9987L5.32316 18.6955L5.69289 18.8481ZM5.68297 18.8724L5.31222 18.7222L6.05287 19.0246L5.68297 18.8724ZM5.44133 20.1825L5.83731 20.1259L5.04508 20.2372L5.44133 20.1825ZM5.44607 20.2158L5.05031 20.2739L5.84212 20.1597L5.44607 20.2158ZM5.4693 20.3872L5.8661 20.3367L5.07165 20.4305L5.4693 20.3872ZM5.47961 20.4724L5.08312 20.5252L5.87702 20.4269L5.47961 20.4724ZM5.69016 21.1067L5.32043 21.2594L6.06073 20.9562L5.69016 21.1067ZM5.68063 21.0834L6.05055 20.9313L5.30987 21.2336L5.68063 21.0834ZM8.23039 22.5614L8.17381 22.1654L8.28507 22.9577L8.23039 22.5614ZM8.26188 22.5569L8.31997 22.9527L8.20574 22.1609L8.26188 22.5569ZM8.43184 22.5339L8.38124 22.1371L8.47528 22.9315L8.43184 22.5339ZM8.52024 22.5231L8.57309 22.9196L8.47483 22.1257L8.52024 22.5231ZM9.15461 22.3099L9.30724 22.6796L9.00406 21.9393L9.15461 22.3099ZM9.13044 22.3197L8.97824 21.9498L9.28064 22.6905L9.13044 22.3197ZM11.4566 22.9212L11.0598 22.9714V22.9714L11.4566 22.9212ZM11.451 22.8748L11.8477 22.8239L11.0535 22.9196L11.451 22.8748ZM11.4607 22.9537L11.0635 23.0012L11.858 22.9073L11.4607 22.9537ZM11.6812 23.606L11.3126 23.7615L12.0518 23.4554L11.6812 23.606ZM11.6573 23.5479L12.0264 23.394L11.2862 23.6972L11.6573 23.5479ZM12.537 24.5931L12.2932 24.9101L12.7826 24.2773L12.537 24.5931ZM12.5062 24.5691L12.7518 24.2533L12.2589 24.8835L12.5062 24.5691ZM12.8652 24.7872L13.0157 24.4166L12.7096 25.1557L12.8652 24.7872ZM12.9223 24.8107L12.773 25.1819L13.0762 24.4415L12.9223 24.8107ZM14.5003 25.0032L14.5528 25.3998L14.4549 24.6058L14.5003 25.0032ZM14.4164 25.0134L14.366 24.6166L14.46 25.411L14.4164 25.0134ZM15.1402 24.7872L15.2928 25.1569L14.9896 24.4166L15.1402 24.7872ZM15.1162 24.797L14.9641 24.4271L15.2664 25.1677L15.1162 24.797ZM16.3241 23.606L15.9536 23.4554L16.6927 23.7615L16.3241 23.606ZM16.3481 23.5479L16.7191 23.6972L15.9789 23.394L16.3481 23.5479ZM18.5198 22.1212L18.2798 22.4412L18.7654 21.8054L18.5198 22.1212ZM18.4706 22.0829L18.7162 21.7672L18.2205 22.3951L18.4706 22.0829ZM18.8507 22.3126L19.0013 21.942L18.6981 22.6823L18.8507 22.3126ZM18.875 22.3225L18.7248 22.6933L19.0272 21.9526L18.875 22.3225ZM20.1851 22.5642L20.1285 22.1682L20.2397 22.9604L20.1851 22.5642ZM20.2184 22.5594L20.2764 22.9552L20.1623 22.1634L20.2184 22.5594ZM20.3897 22.5362L20.3393 22.1394L20.433 22.9338L20.3897 22.5362ZM20.4749 22.5259L20.5278 22.9224L20.4295 22.1285L20.4749 22.5259ZM21.1093 22.3153L21.2619 22.6851L20.9588 21.9447L21.1093 22.3153ZM21.0859 22.3249L20.9338 21.955L21.236 22.6956L21.0859 22.3249ZM22.564 19.7751L22.168 19.8317L22.9602 19.7205L22.564 19.7751ZM22.5595 19.7436L22.9553 19.6856L22.1635 19.7998L22.5595 19.7436ZM22.5364 19.5736L22.1396 19.6242L22.9341 19.5302L22.5364 19.5736ZM22.5257 19.4852L22.9222 19.4324L22.1283 19.5307L22.5257 19.4852ZM22.3124 18.8509L22.6822 18.6982L21.9418 19.0014L22.3124 18.8509ZM22.3223 18.8751L21.9524 19.0273L22.6931 18.725L22.3223 18.8751ZM5.92255 18.4681L6.23829 18.7137L5.61039 18.218L5.92255 18.4681ZM5.8843 18.5173L5.5643 18.2773L6.20004 18.7629L5.8843 18.5173ZM17.2527 14.4258L17.6471 14.4929L17.6495 14.4784L17.6509 14.4638L17.2527 14.4258ZM17.2513 13.5585L17.6494 13.5193L17.648 13.5058L17.6458 13.4924L17.2513 13.5585ZM17.0318 12.7434L17.4063 12.6029L17.4012 12.5893L17.3951 12.5761L17.0318 12.7434ZM16.5919 11.9878L16.916 11.7533L16.908 11.7422L16.8992 11.7317L16.5919 11.9878ZM16.0017 11.3989L16.2577 11.0916L16.247 11.0827L16.2356 11.0745L16.0017 11.3989ZM15.2624 10.9679L15.4307 10.605L15.4166 10.5985L15.4021 10.5931L15.2624 10.9679ZM14.4253 10.7421L14.4925 10.3478L14.4781 10.3454L14.4634 10.344L14.4253 10.7421ZM13.5571 10.7429L13.5179 10.3449L13.5045 10.3462L13.4911 10.3484L13.5571 10.7429ZM12.7407 10.9626L12.6001 10.5881L12.5865 10.5933L12.5733 10.5993L12.7407 10.9626ZM11.985 11.4026L11.7505 11.0785L11.7394 11.0865L11.7289 11.0952L11.985 11.4026ZM11.3961 11.9928L11.0888 11.7368L11.0799 11.7475L11.0717 11.7588L11.3961 11.9928ZM10.9651 12.7321L10.6022 12.5638L10.5957 12.5778L10.5903 12.5924L10.9651 12.7321ZM10.7393 13.5692L10.345 13.5019L10.3426 13.5164L10.3412 13.531L10.7393 13.5692ZM10.7402 14.4374L10.3421 14.4765L10.3434 14.49L10.3456 14.5033L10.7402 14.4374ZM10.9599 15.2538L10.5854 15.3944L10.5905 15.408L10.5966 15.4212L10.9599 15.2538ZM11.3998 16.0095L11.0757 16.244L11.0837 16.255L11.0925 16.2655L11.3998 16.0095ZM11.99 16.5983L11.734 16.9057L11.7447 16.9146L11.756 16.9228L11.99 16.5983ZM12.7293 17.0294L12.561 17.3922L12.5751 17.3988L12.5896 17.4042L12.7293 17.0294ZM13.5664 17.2551L13.4991 17.6494L13.5136 17.6519L13.5282 17.6533L13.5664 17.2551ZM14.4346 17.2543L14.4737 17.6524L14.4872 17.6511L14.5006 17.6488L14.4346 17.2543ZM15.251 17.0346L15.3916 17.4091L15.4052 17.404L15.4184 17.3979L15.251 17.0346ZM16.0067 16.5947L16.2412 16.9188L16.2522 16.9108L16.2627 16.902L16.0067 16.5947ZM16.5955 16.0045L16.9029 16.2605L16.9118 16.2498L16.92 16.2384L16.5955 16.0045ZM17.0266 15.2652L17.3894 15.4335L17.396 15.4194L17.4014 15.4049L17.0266 15.2652ZM16.9695 15.4109L16.5989 15.2604L17.3395 15.563L16.9695 15.4109ZM16.9772 15.3921L17.3478 15.5425L16.6071 15.2403L16.9772 15.3921ZM15.4081 16.9723L15.5626 17.3412L15.2576 16.6017L15.4081 16.9723ZM15.3573 16.9932L15.2037 16.6238L15.5073 17.364L15.3573 16.9932ZM14.3117 17.273L14.2551 16.8771L14.3662 17.6693L14.3117 17.273ZM14.3497 17.2676L14.4078 17.6634L14.2936 16.8716L14.3497 17.2676ZM14.487 17.2488L14.4352 16.8522L14.5308 17.6464L14.487 17.2488ZM14.6015 17.2348L14.6554 17.6311L14.5561 16.8373L14.6015 17.2348ZM12.5835 16.9723L12.7341 16.6017L12.4315 17.3423L12.5835 16.9723ZM12.6023 16.9799L12.4518 17.3505L12.7541 16.6098L12.6023 16.9799ZM11.0222 15.4109L10.6532 15.5654L11.3928 15.2604L11.0222 15.4109ZM11.0013 15.3601L11.3706 15.2065L10.6305 15.5101L11.0013 15.3601ZM10.7214 14.3144L11.1174 14.2579L10.3252 14.369L10.7214 14.3144ZM10.7268 14.3525L10.3311 14.4105L11.1229 14.2965L10.7268 14.3525ZM10.7456 14.4898L11.1423 14.438L10.348 14.5336L10.7456 14.4898ZM10.7597 14.6043L10.3634 14.6582L11.1571 14.5589L10.7597 14.6043ZM11.0222 12.5863L11.3928 12.7369L10.6522 12.4343L11.0222 12.5863ZM11.0145 12.6051L10.6439 12.4547L11.3846 12.757L11.0145 12.6051ZM12.5835 11.025L12.4291 10.656L12.7341 11.3956L12.5835 11.025ZM12.6343 11.0041L12.788 11.3734L12.4844 10.6333L12.6343 11.0041ZM13.68 10.7242L13.7366 11.1202L13.6255 10.328L13.68 10.7242ZM13.642 10.7296L13.5839 10.3339L13.698 11.1257L13.642 10.7296ZM13.5046 10.7484L13.5565 11.145L13.4609 10.3508L13.5046 10.7484ZM13.3902 10.7625L13.3363 10.3661L13.4356 11.1599L13.3902 10.7625ZM15.4081 11.025L15.2576 11.3956L15.5602 10.655L15.4081 11.025ZM15.3894 11.0173L15.5398 10.6467L15.2375 11.3874L15.3894 11.0173ZM16.9695 12.5863L17.3385 12.4319L16.5989 12.7369L16.9695 12.5863ZM16.9904 12.6372L16.6211 12.7909L17.3612 12.4872L16.9904 12.6372ZM17.2703 13.6828L16.8743 13.7394L17.6665 13.6283L17.2703 13.6828ZM17.2649 13.6448L17.6606 13.5868L16.8688 13.7008L17.2649 13.6448ZM17.2456 13.5037L16.8489 13.5553L17.6432 13.4597L17.2456 13.5037ZM17.232 13.393L17.6284 13.3394L16.8346 13.4384L17.232 13.393ZM19.4525 14.1366L19.0555 14.0879L19.0534 14.1052L19.0528 14.1227L19.4525 14.1366ZM19.4605 14L19.8605 13.9982V13.998L19.4605 14ZM18.4925 10.9019L18.1676 11.1353L18.1679 11.1357L18.4925 10.9019ZM17.2101 9.58945L16.9682 9.90799L16.969 9.90861L17.2101 9.58945ZM15.7855 8.84023L15.9228 8.46455L15.9227 8.46449L15.7855 8.84023ZM12.5042 8.74453L12.6139 9.12921L12.6141 9.12914L12.5042 8.74453ZM9.84642 10.4535L9.53803 10.1988L9.53652 10.2006L9.84642 10.4535ZM9.30502 11.2L8.96265 10.9932L8.96233 10.9937L9.30502 11.2ZM8.90306 12.0394L9.27322 12.1911L9.27323 12.191L8.90306 12.0394ZM8.5476 13.6527L8.14884 13.6211L8.14881 13.6216L8.5476 13.6527ZM9.31322 16.8082L9.65548 16.6012L9.65533 16.6009L9.31322 16.8082ZM11.6429 18.9219L11.4774 19.286L11.4782 19.2864L11.6429 18.9219ZM12.5179 19.2555L12.6269 18.8706L12.6264 18.8705L12.5179 19.2555ZM13.464 19.425L13.5124 19.0279L13.5115 19.0278L13.464 19.425ZM15.1484 19.332L15.0698 18.9398L15.0688 18.94L15.1484 19.332ZM19.3648 14.9652L19.76 15.0268L19.7602 15.0255L19.3648 14.9652ZM24.8404 18.234C24.8332 18.2154 24.826 18.1969 24.8188 18.1783L24.0735 18.4691C24.0803 18.4866 24.0871 18.5041 24.0939 18.5217L24.8404 18.234ZM25.1456 19.8092C25.1224 19.2893 25.0349 18.7447 24.8409 18.2354L24.0933 18.5202C24.2493 18.9297 24.3259 19.3858 24.3464 19.8449L25.1456 19.8092ZM24.4461 22.5882C24.9287 21.7621 25.1874 20.7731 25.1456 19.8097L24.3464 19.8444C24.3812 20.6474 24.1641 21.485 23.7553 22.1846L24.4461 22.5882ZM22.3023 24.5955C23.196 24.1666 23.9528 23.427 24.4455 22.5892L23.7559 22.1837C23.3353 22.899 22.6921 23.5211 21.9562 23.8742L22.3023 24.5955ZM19.4947 25.116C20.4729 25.2337 21.4521 25.0031 22.3022 24.5955L21.9563 23.8742C21.2095 24.2322 20.384 24.4172 19.5903 24.3217L19.4947 25.116ZM18.191 24.8164C18.6227 24.9758 19.047 25.0616 19.4942 25.1159L19.5908 24.3218C19.1848 24.2724 18.8249 24.1976 18.468 24.0659L18.191 24.8164ZM18.6599 24.6817C18.6716 24.656 18.6833 24.6301 18.6949 24.604L17.9642 24.2783C17.9534 24.3026 17.9424 24.3269 17.9314 24.3512L18.6599 24.6817ZM17.7731 25.987C18.1185 25.6096 18.4384 25.1702 18.6599 24.6817L17.9313 24.3513C17.7536 24.7432 17.4883 25.1132 17.183 25.4468L17.7731 25.987ZM15.3327 27.4516C16.252 27.2085 17.126 26.6908 17.7725 25.9876L17.1836 25.4461C16.6434 26.0336 15.9041 26.473 15.1281 26.6782L15.3327 27.4516ZM12.3762 27.3609C13.3189 27.6871 14.3817 27.6997 15.3314 27.452L15.1294 26.6779C14.3182 26.8895 13.4176 26.8748 12.6378 26.6049L12.3762 27.3609ZM10.0369 25.7587C10.6449 26.5202 11.4898 27.0508 12.3749 27.3605L12.639 26.6053C11.8671 26.3353 11.1588 25.8816 10.6621 25.2595L10.0369 25.7587ZM9.54844 25.0726C9.6974 25.3249 9.87063 25.5508 10.0372 25.759L10.6619 25.2592C10.5003 25.0572 10.3564 24.8675 10.2373 24.6659L9.54844 25.0726ZM9.31287 24.6046C9.38049 24.7583 9.45654 24.9169 9.54844 25.0726L10.2373 24.6659C10.1676 24.5477 10.1059 24.4205 10.0452 24.2825L9.31287 24.6046ZM9.76876 24.8378C9.78728 24.8307 9.80584 24.8235 9.82444 24.8162L9.53361 24.0709C9.51615 24.0778 9.49864 24.0845 9.48108 24.0913L9.76876 24.8378ZM8.19356 25.1431C8.71341 25.1198 9.25805 25.0323 9.76732 24.8383L9.48252 24.0908C9.07304 24.2467 8.6169 24.3233 8.15784 24.3439L8.19356 25.1431ZM5.41455 24.4435C6.24068 24.9262 7.22961 25.1848 8.19302 25.1431L8.15838 24.3438C7.35539 24.3786 6.51776 24.1615 5.81811 23.7528L5.41455 24.4435ZM3.40726 22.2997C3.83614 23.1934 4.57575 23.9503 5.41357 24.4429L5.81908 23.7533C5.10378 23.3327 4.48167 22.6895 4.12852 21.9536L3.40726 22.2997ZM2.88677 19.4921C2.76903 20.4703 2.99963 21.4495 3.4072 22.2996L4.12858 21.9537C3.77053 21.2069 3.58551 20.3814 3.68104 19.5877L2.88677 19.4921ZM3.18631 18.1885C3.02699 18.6202 2.94119 19.0445 2.88683 19.4917L3.68098 19.5882C3.73033 19.1822 3.80513 18.8223 3.93684 18.4654L3.18631 18.1885ZM3.321 18.6573C3.34677 18.669 3.37268 18.6807 3.39874 18.6923L3.72441 17.9616C3.70019 17.9508 3.6759 17.9399 3.6515 17.9288L3.321 18.6573ZM2.01578 17.7705C2.39314 18.116 2.83252 18.4358 3.32107 18.6574L3.65143 17.9288C3.25951 17.7511 2.88952 17.4858 2.55594 17.1804L2.01578 17.7705ZM0.551112 15.3301C0.794284 16.2494 1.31199 17.1234 2.01512 17.7699L2.5566 17.181C1.96911 16.6408 1.52978 15.9015 1.32451 15.1255L0.551112 15.3301ZM0.641835 12.3736C0.315606 13.3164 0.303024 14.3791 0.550766 15.3288L1.32486 15.1269C1.11323 14.3156 1.12799 13.4151 1.39785 12.6352L0.641835 12.3736ZM2.2441 10.0344C1.48259 10.6424 0.951904 11.4873 0.642281 12.3723L1.39741 12.6365C1.66747 11.8645 2.12117 11.1562 2.74325 10.6596L2.2441 10.0344ZM2.93016 9.54587C2.67784 9.69483 2.45199 9.86806 2.24379 10.0346L2.74355 10.6593C2.94551 10.4977 3.13528 10.3538 3.33687 10.2348L2.93016 9.54587ZM3.39814 9.31031C3.24441 9.37792 3.08583 9.45398 2.93016 9.54587L3.33687 10.2348C3.45504 10.165 3.58223 10.1033 3.72022 10.0426L3.39814 9.31031ZM3.16496 9.7662C3.1721 9.78471 3.17929 9.80328 3.18655 9.82189L3.93181 9.53103C3.925 9.51358 3.91821 9.49608 3.91144 9.47851L3.16496 9.7662ZM2.8597 8.191C2.88293 8.71084 2.9704 9.25549 3.16441 9.76476L3.912 9.47996C3.75601 9.07048 3.67941 8.61434 3.6589 8.15528L2.8597 8.191ZM3.55923 5.41198C3.07659 6.23811 2.81791 7.22705 2.85967 8.19046L3.65892 8.15582C3.62412 7.35282 3.84123 6.5152 4.24999 5.81554L3.55923 5.41198ZM5.70304 3.4047C4.8093 3.83358 4.05247 4.57318 3.5598 5.41101L4.24941 5.81652C4.67003 5.10122 5.3132 4.47911 6.04915 4.12596L5.70304 3.4047ZM8.51062 2.88421C7.53241 2.76646 6.55325 2.99706 5.70316 3.40464L6.04903 4.12601C6.79581 3.76797 7.62134 3.58294 8.41501 3.67848L8.51062 2.88421ZM9.81429 3.18375C9.38257 3.02443 8.95829 2.93862 8.51108 2.88427L8.41455 3.67842C8.82056 3.72777 9.18042 3.80256 9.53732 3.93427L9.81429 3.18375ZM9.34541 3.31845C9.33373 3.3442 9.32206 3.37011 9.31045 3.39616L10.0412 3.72185C10.052 3.69763 10.0629 3.67333 10.074 3.64892L9.34541 3.31845ZM10.2322 2.01321C9.88678 2.39058 9.5669 2.82996 9.34539 3.31851L10.074 3.64887C10.2517 3.25695 10.517 2.88695 10.8223 2.55338L10.2322 2.01321ZM12.6726 0.548549C11.7533 0.79172 10.8793 1.30942 10.2328 2.01255L10.8217 2.55404C11.3619 1.96654 12.1012 1.52722 12.8772 1.32195L12.6726 0.548549ZM15.6292 0.639272C14.6864 0.313042 13.6236 0.30046 12.674 0.548202L12.8759 1.3223C13.6872 1.11066 14.5877 1.12542 15.3676 1.39529L15.6292 0.639272ZM17.9684 2.24153C17.3604 1.48002 16.5155 0.94934 15.6304 0.639718L15.3663 1.39484C16.1383 1.66491 16.8465 2.1186 17.3432 2.74068L17.9684 2.24153ZM18.4569 2.9276C18.3079 2.67528 18.1347 2.44943 17.9681 2.24123L17.3434 2.74099C17.505 2.94295 17.649 3.13272 17.768 3.33431L18.4569 2.9276ZM18.6924 3.39558C18.6248 3.24185 18.5488 3.08327 18.4569 2.9276L17.768 3.3343C17.8377 3.45248 17.8995 3.57967 17.9601 3.71766L18.6924 3.39558ZM18.2365 3.1624C18.218 3.16953 18.1995 3.17672 18.1809 3.18399L18.4717 3.92924C18.4892 3.92244 18.5067 3.91565 18.5242 3.90888L18.2365 3.1624ZM19.8118 2.85713C19.2919 2.88037 18.7473 2.96784 18.238 3.16184L18.5228 3.90943C18.9323 3.75344 19.3884 3.67685 19.8475 3.65633L19.8118 2.85713ZM22.5908 3.55667C21.7646 3.07402 20.7757 2.81535 19.8123 2.85711L19.8469 3.65636C20.6499 3.62155 21.4876 3.83866 22.1872 4.24742L22.5908 3.55667ZM24.5981 5.70048C24.1692 4.80673 23.4296 4.04991 22.5917 3.55724L22.1862 4.24685C22.9015 4.66747 23.5236 5.31064 23.8768 6.04658L24.5981 5.70048ZM25.1185 8.50805C25.2363 7.52984 25.0057 6.55069 24.5981 5.7006L23.8767 6.04646C24.2348 6.79325 24.4198 7.61878 24.3243 8.41245L25.1185 8.50805ZM24.819 9.81172C24.9783 9.38 25.0641 8.95572 25.1185 8.50851L24.3243 8.41198C24.275 8.81799 24.2002 9.17786 24.0685 9.53475L24.819 9.81172ZM24.6843 9.34285C24.6585 9.33117 24.6326 9.3195 24.6066 9.30789L24.2809 10.0386C24.3051 10.0494 24.3294 10.0603 24.3538 10.0714L24.6843 9.34285ZM25.9895 10.2297C25.6122 9.88422 25.1728 9.56434 24.6842 9.34282L24.3539 10.0714C24.7458 10.2491 25.1158 10.5144 25.4494 10.8198L25.9895 10.2297ZM27.4542 12.6701C27.211 11.7508 26.6933 10.8768 25.9902 10.2303L25.4487 10.8191C26.0362 11.3593 26.4755 12.0986 26.6808 12.8746L27.4542 12.6701ZM27.3635 15.6266C27.6897 14.6838 27.7023 13.6211 27.4546 12.6714L26.6805 12.8733C26.8921 13.6846 26.8773 14.5851 26.6075 15.365L27.3635 15.6266ZM25.7612 17.9658C26.5227 17.3578 27.0534 16.5129 27.363 15.6279L26.6079 15.3637C26.3378 16.1357 25.8841 16.8439 25.2621 17.3406L25.7612 17.9658ZM25.0751 18.4543C25.3275 18.3054 25.5533 18.1321 25.7615 17.9656L25.2618 17.3409C25.0598 17.5024 24.87 17.6464 24.6684 17.7654L25.0751 18.4543ZM24.6072 18.6899C24.7609 18.6223 24.9195 18.5462 25.0752 18.4543L24.6684 17.7654C24.5503 17.8352 24.4231 17.8969 24.2851 17.9576L24.6072 18.6899ZM21.3655 17.9656C21.3664 17.9733 21.3673 17.9809 21.3681 17.9885L22.163 17.8977C22.162 17.8889 22.161 17.8802 22.1599 17.8716L21.3655 17.9656ZM21.3803 18.0507C21.3976 18.1128 21.4186 18.1735 21.4435 18.2328L22.1814 17.9238C22.1697 17.896 22.1595 17.8666 22.1508 17.8354L21.3803 18.0507ZM21.4402 18.2247C21.5075 18.3961 21.6099 18.5632 21.7577 18.704L22.3096 18.1248C22.2583 18.0759 22.2161 18.0117 22.1847 17.9319L21.4402 18.2247ZM21.7066 18.6448C21.8206 18.8065 21.9194 18.976 22.0026 19.1545L22.7276 18.8164C22.6238 18.5937 22.501 18.3832 22.3606 18.184L21.7066 18.6448ZM21.99 19.1243C22.0611 19.3165 22.1144 19.5127 22.1494 19.7123L22.9374 19.5744C22.8939 19.3261 22.8278 19.0831 22.7402 18.8466L21.99 19.1243ZM22.145 19.6793C22.1631 19.8794 22.163 20.0806 22.1448 20.2822L22.9415 20.3543C22.9641 20.105 22.9642 19.8557 22.9418 19.6074L22.145 19.6793ZM22.1492 20.2492C22.1139 20.4506 22.06 20.6491 21.9888 20.8438L22.7402 21.1184C22.8269 20.8813 22.8934 20.6372 22.9372 20.3873L22.1492 20.2492ZM22.0026 20.8107C21.9155 20.9957 21.8119 21.173 21.6934 21.3406L22.3466 21.8024C22.4916 21.5973 22.619 21.3796 22.7264 21.1514L22.0026 20.8107ZM21.715 21.3127C21.5904 21.4596 21.4542 21.5955 21.307 21.7199L21.8233 22.331C22.0042 22.1781 22.1718 22.0109 22.325 21.8303L21.715 21.3127ZM21.3333 21.6995C21.1682 21.8169 20.994 21.918 20.8094 22.0039L21.1468 22.7293C21.3752 22.623 21.5917 22.4974 21.797 22.3513L21.3333 21.6995ZM20.8396 21.9913C20.6487 22.0618 20.4527 22.1141 20.2521 22.149L20.3892 22.9371C20.6362 22.8941 20.8792 22.8295 21.1166 22.7419L20.8396 21.9913ZM20.285 22.1446C20.0816 22.1628 19.8755 22.1617 19.6672 22.1431L19.5961 22.9399C19.8482 22.9624 20.102 22.9642 20.3562 22.9414L20.285 22.1446ZM19.7019 22.1477C19.5071 22.113 19.3155 22.0608 19.1279 21.9915L18.8511 22.7421C19.082 22.8273 19.3192 22.8921 19.5615 22.9353L19.7019 22.1477ZM19.1588 22.0044C18.9661 21.9144 18.7821 21.8063 18.609 21.6813L18.1407 22.3299C18.3545 22.4843 18.5819 22.6179 18.8202 22.7292L19.1588 22.0044ZM18.6223 21.6913C18.4773 21.5772 18.2911 21.4477 18.0505 21.3805L17.8352 22.151C17.923 22.1755 18.0097 22.2272 18.1274 22.3199L18.6223 21.6913ZM18.0493 21.3801C17.7159 21.2882 17.3743 21.3247 17.0749 21.4525L17.389 22.1883C17.5381 22.1247 17.6941 22.112 17.8365 22.1513L18.0493 21.3801ZM17.0757 21.4522C16.8311 21.556 16.6406 21.7052 16.4799 21.9096L17.109 22.4039C17.189 22.302 17.2719 22.238 17.3882 22.1886L17.0757 21.4522ZM16.478 21.912C16.2592 22.195 16.1948 22.4709 16.163 22.7622L16.9583 22.8489C16.9818 22.6334 17.0178 22.5218 17.1109 22.4014L16.478 21.912ZM16.1669 22.7352C16.1319 22.931 16.0806 23.1216 16.0122 23.3071L16.7629 23.5836C16.8479 23.353 16.9113 23.117 16.9544 22.876L16.1669 22.7352ZM16.0253 23.2758C15.9366 23.4654 15.8318 23.6454 15.7108 23.8162L16.3635 24.2787C16.5121 24.0691 16.6409 23.8477 16.7499 23.6149L16.0253 23.2758ZM15.7324 23.7884C15.6092 23.9333 15.4752 24.0673 15.3314 24.1891L15.8484 24.7996C16.0262 24.649 16.191 24.484 16.3419 24.3066L15.7324 23.7884ZM15.3578 24.1686C15.1881 24.2895 15.0093 24.3943 14.821 24.4832L15.1625 25.2066C15.3938 25.0974 15.6137 24.9685 15.822 24.8201L15.3578 24.1686ZM14.8545 24.4692C14.6634 24.539 14.4663 24.5918 14.2648 24.6276L14.4047 25.4153C14.6513 25.3715 14.8935 25.3066 15.129 25.2206L14.8545 24.4692ZM14.2997 24.623C14.0986 24.6407 13.8968 24.6404 13.6957 24.6221L13.6232 25.4188C13.8717 25.4414 14.1213 25.4418 14.3698 25.4199L14.2997 24.623ZM13.7282 24.6264C13.5322 24.5922 13.3403 24.5406 13.154 24.4715L12.8759 25.2216C13.1083 25.3078 13.3473 25.372 13.5907 25.4145L13.7282 24.6264ZM13.1832 24.4837C12.9968 24.3972 12.8197 24.2943 12.6543 24.175L12.1862 24.8238C12.3944 24.9739 12.6158 25.1024 12.8467 25.2094L13.1832 24.4837ZM12.6769 24.1926C12.5327 24.0719 12.3996 23.9393 12.2784 23.7961L11.6678 24.3131C11.8183 24.4907 11.9838 24.6558 12.1636 24.8061L12.6769 24.1926ZM12.2986 23.8221C12.1762 23.6508 12.0704 23.4716 11.9833 23.2845L11.2581 23.6222C11.3674 23.8569 11.4987 24.0785 11.6476 24.2871L12.2986 23.8221ZM11.9957 23.3142C11.9262 23.1267 11.874 22.9341 11.8386 22.736L11.0511 22.877C11.0947 23.1208 11.1592 23.3594 11.2457 23.5925L11.9957 23.3142ZM11.8427 22.7657C11.8226 22.5697 11.7859 22.3072 11.6391 22.0611L10.9521 22.4711C11.0034 22.5571 11.0286 22.6686 11.0469 22.8473L11.8427 22.7657ZM11.6406 22.0637C11.4713 21.7751 11.2144 21.572 10.9315 21.4503L10.6152 22.1851C10.7644 22.2493 10.8793 22.347 10.9506 22.4685L11.6406 22.0637ZM10.9303 21.4497C10.6748 21.3408 10.421 21.3108 10.1531 21.3475L10.2616 22.1401C10.3929 22.1222 10.5001 22.136 10.6164 22.1856L10.9303 21.4497ZM10.152 21.3477C9.87402 21.3865 9.6639 21.4865 9.46629 21.6271L9.93006 22.2789C10.0434 22.1983 10.1347 22.1579 10.2627 22.14L10.152 21.3477ZM9.94374 22.2688L9.95252 22.2619L9.46139 21.6304L9.45261 21.6373L9.94374 22.2688ZM9.46472 21.6279C9.46091 21.6308 9.45709 21.6337 9.45326 21.6366L9.93509 22.2752C9.9398 22.2716 9.94449 22.2681 9.94919 22.2645L9.46472 21.6279ZM9.46141 21.6306C9.43969 21.6461 9.41829 21.662 9.39714 21.6782L9.88342 22.3134C9.89846 22.3019 9.91293 22.2912 9.92695 22.2812L9.46141 21.6306ZM9.40483 21.6724C9.22991 21.7998 9.04571 21.9092 8.85094 22L9.18906 22.7251C9.43212 22.6117 9.66063 22.4758 9.87573 22.3192L9.40483 21.6724ZM8.88114 21.9874C8.68902 22.0585 8.49278 22.1119 8.29315 22.1468L8.43104 22.9348C8.67936 22.8914 8.92237 22.8252 9.15886 22.7377L8.88114 21.9874ZM8.32611 22.1424C8.12604 22.1605 7.92491 22.1605 7.7233 22.1422L7.65124 22.939C7.90049 22.9615 8.14982 22.9616 8.39808 22.9392L8.32611 22.1424ZM7.75628 22.1466C7.55488 22.1113 7.35643 22.0574 7.16174 21.9863L6.88714 22.7377C7.12418 22.8243 7.36828 22.8908 7.61826 22.9346L7.75628 22.1466ZM7.19481 22.0001C7.00976 21.913 6.83247 21.8093 6.6649 21.6908L6.20306 22.344C6.40815 22.489 6.6259 22.6165 6.85408 22.7239L7.19481 22.0001ZM6.69276 21.7124C6.54588 21.5878 6.40996 21.4516 6.28564 21.3044L5.67453 21.8207C5.82739 22.0017 5.9946 22.1692 6.1752 22.3224L6.69276 21.7124ZM6.30602 21.3307C6.18859 21.1656 6.08745 20.9915 6.00157 20.8068L5.27619 21.1442C5.38244 21.3726 5.50809 21.5892 5.65415 21.7945L6.30602 21.3307ZM6.01415 20.837C5.94371 20.6461 5.89142 20.4501 5.85653 20.2495L5.06836 20.3866C5.11133 20.6336 5.17601 20.8766 5.26361 21.114L6.01415 20.837ZM5.86086 20.2824C5.84268 20.079 5.8438 19.8729 5.86238 19.6647L5.06555 19.5935C5.04305 19.8456 5.04132 20.0994 5.06403 20.3536L5.86086 20.2824ZM5.85776 19.6993C5.89248 19.5045 5.94473 19.313 6.01394 19.1254L5.26337 18.8485C5.17817 19.0795 5.11336 19.3167 5.07018 19.5589L5.85776 19.6993ZM6.00104 19.1563C6.09112 18.9635 6.19918 18.7795 6.32418 18.6064L5.67561 18.1381C5.52116 18.3519 5.3876 18.5793 5.27627 18.8176L6.00104 19.1563ZM6.31418 18.6197C6.42832 18.4747 6.5578 18.2885 6.62501 18.048L5.85452 17.8327C5.83 17.9204 5.77825 18.0071 5.68561 18.1248L6.31418 18.6197ZM6.62536 18.0467C6.71731 17.7134 6.68074 17.3717 6.55297 17.0724L5.81719 17.3864C5.88082 17.5355 5.89347 17.6915 5.85417 17.834L6.62536 18.0467ZM6.55331 17.0732C6.44952 16.8285 6.30032 16.638 6.09588 16.4774L5.60162 17.1064C5.70343 17.1864 5.76751 17.2693 5.81685 17.3856L6.55331 17.0732ZM6.09345 16.4755C5.81052 16.2567 5.53456 16.1922 5.24329 16.1605L5.15658 16.9558C5.37213 16.9793 5.48365 17.0152 5.60405 17.1083L6.09345 16.4755ZM5.27033 16.1644C5.07445 16.1293 4.88392 16.078 4.69839 16.0097L4.42186 16.7604C4.65248 16.8453 4.8885 16.9088 5.12955 16.9519L5.27033 16.1644ZM4.72968 16.0227C4.54009 15.934 4.36004 15.8292 4.18929 15.7082L3.72675 16.3609C3.93643 16.5095 4.15779 16.6383 4.39057 16.7473L4.72968 16.0227ZM4.21713 15.7298C4.07222 15.6066 3.93818 15.4727 3.8164 15.3288L3.20586 15.8458C3.35645 16.0236 3.52147 16.1884 3.69891 16.3393L4.21713 15.7298ZM3.8369 15.3552C3.71602 15.1855 3.61119 15.0067 3.52228 14.8184L2.79888 15.16C2.90806 15.3912 3.03694 15.6111 3.18536 15.8194L3.8369 15.3552ZM3.53631 14.852C3.46652 14.6609 3.41367 14.4637 3.37788 14.2622L2.59021 14.4021C2.63402 14.6488 2.69886 14.8909 2.78485 15.1264L3.53631 14.852ZM3.3825 14.2971C3.36481 14.096 3.36511 13.8942 3.38339 13.6931L2.58668 13.6207C2.56408 13.8692 2.56372 14.1187 2.58558 14.3672L3.3825 14.2971ZM3.37909 13.7256C3.41327 13.5296 3.46492 13.3377 3.53398 13.1515L2.78389 12.8733C2.69772 13.1057 2.63344 13.3447 2.59098 13.5882L3.37909 13.7256ZM3.52183 13.1806C3.60824 12.9943 3.71121 12.8171 3.83051 12.6517L3.1817 12.1837C3.03157 12.3918 2.90309 12.6132 2.79604 12.8441L3.52183 13.1806ZM3.81289 12.6744C3.93356 12.5302 4.06618 12.3971 4.20937 12.2758L3.69243 11.6653C3.51473 11.8157 3.34971 11.9813 3.19932 12.161L3.81289 12.6744ZM4.18338 12.2961C4.35472 12.1737 4.53393 12.0678 4.72097 11.9808L4.38331 11.2555C4.14856 11.3648 3.92694 11.4961 3.71842 11.645L4.18338 12.2961ZM4.69127 11.9932C4.87877 11.9236 5.07138 11.8714 5.26945 11.836L5.12847 11.0485C4.88471 11.0921 4.6461 11.1566 4.41301 11.2431L4.69127 11.9932ZM5.23975 11.8402C5.43585 11.8201 5.69831 11.7834 5.94436 11.6365L5.53439 10.9496C5.44842 11.0009 5.33692 11.026 5.15817 11.0443L5.23975 11.8402ZM5.94178 11.6381C6.2304 11.4688 6.43348 11.2118 6.55523 10.9289L5.8204 10.6127C5.75621 10.7618 5.65851 10.8767 5.53697 10.948L5.94178 11.6381ZM6.55575 10.9277C6.66471 10.6722 6.69465 10.4185 6.65794 10.1505L5.86534 10.2591C5.88332 10.3903 5.86951 10.4975 5.81988 10.6139L6.55575 10.9277ZM6.65779 10.1494C6.61894 9.87147 6.519 9.66135 6.37842 9.46375L5.72655 9.92751C5.80717 10.0408 5.8476 10.1321 5.86549 10.2602L6.65779 10.1494ZM5.73674 9.9412L5.74355 9.94996L6.37504 9.45882L6.36823 9.45006L5.73674 9.9412ZM6.37762 9.46217C6.37473 9.45837 6.37184 9.45455 6.36893 9.4507L5.73036 9.9326C5.73387 9.93726 5.73741 9.94193 5.74097 9.94661L6.37762 9.46217ZM6.37496 9.4589C6.35938 9.43713 6.34345 9.41569 6.32726 9.39453L5.69201 9.88081C5.70356 9.8959 5.71431 9.91039 5.72434 9.9244L6.37496 9.4589ZM6.333 9.40223C6.20565 9.22731 6.09628 9.04313 6.00545 8.84838L5.28042 9.18649C5.39376 9.42953 5.52967 9.65803 5.68627 9.87311L6.333 9.40223ZM6.01806 8.87857C5.94694 8.68646 5.89361 8.49022 5.85868 8.2906L5.07065 8.42849C5.1141 8.67681 5.18027 8.91981 5.26781 9.15629L6.01806 8.87857ZM5.86304 8.32356C5.84497 8.12348 5.84502 7.92234 5.86325 7.72072L5.06651 7.64865C5.04396 7.89792 5.04386 8.14727 5.06629 8.39554L5.86304 8.32356ZM5.85888 7.7537C5.89416 7.5523 5.94806 7.35385 6.01921 7.15917L5.26781 6.88458C5.18119 7.1216 5.11467 7.3657 5.07088 7.61567L5.85888 7.7537ZM6.00542 7.19224C6.09253 7.00719 6.1962 6.8299 6.31467 6.66234L5.66145 6.20049C5.51644 6.40559 5.38902 6.62333 5.28161 6.85151L6.00542 7.19224ZM6.29307 6.69019C6.41769 6.54331 6.55388 6.4074 6.70104 6.28307L6.18476 5.67197C6.00382 5.82483 5.83627 5.99203 5.68304 6.17264L6.29307 6.69019ZM6.67478 6.30345C6.83984 6.18602 7.01401 6.08489 7.19867 5.99901L6.86127 5.27363C6.63285 5.37988 6.41633 5.50553 6.21102 5.65159L6.67478 6.30345ZM7.16844 6.01159C7.35935 5.94114 7.5554 5.88886 7.75599 5.85397L7.6189 5.0658C7.37183 5.10877 7.12891 5.17345 6.8915 5.26105L7.16844 6.01159ZM7.72305 5.85829C7.92651 5.84011 8.13258 5.84123 8.34082 5.85982L8.41195 5.06299C8.15989 5.04049 7.90606 5.03875 7.65184 5.06147L7.72305 5.85829ZM8.30619 5.8552C8.50096 5.88991 8.6925 5.94217 8.88012 6.01137L9.15698 5.26081C8.92601 5.17561 8.68884 5.11079 8.44658 5.06761L8.30619 5.8552ZM8.84921 5.99848C9.04198 6.08856 9.22596 6.19661 9.39907 6.32162L9.86741 5.67304C9.65354 5.5186 9.42614 5.38504 9.18789 5.2737L8.84921 5.99848ZM9.3858 6.31161C9.53077 6.42575 9.71696 6.55523 9.95752 6.62245L10.1728 5.85196C10.085 5.82744 9.99834 5.77568 9.88068 5.68304L9.3858 6.31161ZM9.95879 6.6228C10.2921 6.71475 10.6338 6.67818 10.9331 6.5504L10.6191 5.81462C10.47 5.87826 10.314 5.8909 10.1715 5.8516L9.95879 6.6228ZM10.9323 6.55075C11.177 6.44696 11.3675 6.29775 11.5281 6.09332L10.8991 5.59906C10.8191 5.70087 10.7362 5.76495 10.6199 5.81428L10.9323 6.55075ZM11.53 6.09088C11.7488 5.80795 11.8133 5.53199 11.845 5.24071L11.0497 5.15401C11.0262 5.36956 10.9903 5.48108 10.8972 5.60149L11.53 6.09088ZM11.8411 5.26775C11.8761 5.07187 11.9275 4.88135 11.9958 4.69583L11.2451 4.41929C11.1602 4.64991 11.0967 4.88592 11.0536 5.12697L11.8411 5.26775ZM11.9828 4.72711C12.0715 4.53752 12.1763 4.35748 12.2973 4.18672L11.6446 3.72418C11.496 3.93386 11.3671 4.15522 11.2582 4.38801L11.9828 4.72711ZM12.2757 4.21456C12.3989 4.06965 12.5328 3.93562 12.6766 3.81384L12.1597 3.2033C11.9818 3.35388 11.8171 3.5189 11.6662 3.69634L12.2757 4.21456ZM12.6503 3.83434C12.8199 3.71345 12.9988 3.60863 13.1871 3.51972L12.8455 2.79631C12.6143 2.9055 12.3944 3.03438 12.1861 3.1828L12.6503 3.83434ZM13.1535 3.53375C13.3446 3.46395 13.5417 3.41111 13.7433 3.37531L13.6034 2.58764C13.3567 2.63145 13.1146 2.6963 12.8791 2.78228L13.1535 3.53375ZM13.7084 3.37994C13.9095 3.36225 14.1113 3.36254 14.3124 3.38083L14.3848 2.58412C14.1363 2.56152 13.8868 2.56115 13.6383 2.58302L13.7084 3.37994ZM14.2799 3.37653C14.4759 3.41071 14.6678 3.46236 14.854 3.53142L15.1322 2.78132C14.8998 2.69516 14.6608 2.63087 14.4173 2.58842L14.2799 3.37653ZM14.8248 3.51927C15.0112 3.60567 15.1884 3.70865 15.3538 3.82794L15.8218 3.17913C15.6137 3.029 15.3922 2.90053 15.1614 2.79348L14.8248 3.51927ZM15.3311 3.81032C15.4753 3.93099 15.6084 4.06362 15.7297 4.20681L16.3402 3.68987C16.1898 3.51217 16.0242 3.34714 15.8444 3.19675L15.3311 3.81032ZM15.7094 4.18082C15.8318 4.35216 15.9377 4.53137 16.0247 4.71841L16.75 4.38075C16.6407 4.14599 16.5094 3.92438 16.3604 3.71586L15.7094 4.18082ZM16.0123 4.68871C16.0819 4.87621 16.134 5.06881 16.1695 5.26688L16.957 5.1259C16.9133 4.88214 16.8489 4.64353 16.7624 4.41045L16.0123 4.68871ZM16.1653 5.23718C16.1854 5.43328 16.2221 5.69575 16.3689 5.9418L17.0559 5.53183C17.0046 5.44586 16.9795 5.33435 16.9612 5.1556L16.1653 5.23718ZM16.3674 5.93922C16.5367 6.22783 16.7937 6.43091 17.0766 6.55267L17.3928 5.81783C17.2437 5.75365 17.1287 5.65595 17.0574 5.53441L16.3674 5.93922ZM17.0778 6.55318C17.3333 6.66214 17.587 6.69208 17.855 6.65538L17.7464 5.86278C17.6152 5.88076 17.508 5.86695 17.3916 5.81731L17.0778 6.55318ZM17.8561 6.65522C18.134 6.61637 18.3441 6.51644 18.5417 6.37586L18.078 5.72399C17.9647 5.80461 17.8733 5.84503 17.7453 5.86293L17.8561 6.65522ZM18.0643 5.73419L18.0555 5.741L18.5467 6.37247L18.5554 6.36566L18.0643 5.73419ZM18.5433 6.37509C18.5471 6.37214 18.551 6.36924 18.5548 6.36638L18.0729 5.7278C18.0682 5.73135 18.0635 5.73487 18.0589 5.73837L18.5433 6.37509ZM18.5466 6.3724C18.5684 6.35682 18.5898 6.34089 18.611 6.32469L18.1247 5.68944C18.1096 5.70099 18.0951 5.71175 18.0811 5.72178L18.5466 6.3724ZM18.6033 6.33044C18.7782 6.20308 18.9624 6.09371 19.1571 6.00289L18.819 5.27785C18.576 5.39119 18.3475 5.5271 18.1324 5.6837L18.6033 6.33044ZM19.1269 6.0155C19.319 5.94438 19.5153 5.89104 19.7149 5.85611L19.577 5.06809C19.3287 5.11154 19.0857 5.17771 18.8492 5.26525L19.1269 6.0155ZM19.6819 5.86048C19.882 5.84241 20.0831 5.84245 20.2848 5.86069L20.3568 5.06394C20.1076 5.04139 19.8582 5.0413 19.61 5.06372L19.6819 5.86048ZM20.2518 5.85632C20.4532 5.89159 20.6516 5.9455 20.8463 6.01664L21.1209 5.26525C20.8839 5.17863 20.6398 5.1121 20.3898 5.06831L20.2518 5.85632ZM20.8132 6.00285C20.9983 6.08996 21.1756 6.19364 21.3432 6.31211L21.805 5.65889C21.5999 5.51388 21.3822 5.38645 21.154 5.27904L20.8132 6.00285ZM21.3153 6.29051C21.4622 6.41512 21.5981 6.55132 21.7224 6.69848L22.3335 6.1822C22.1807 6.00126 22.0135 5.83371 21.8329 5.68048L21.3153 6.29051ZM21.702 6.67221C21.8195 6.83728 21.9206 7.01145 22.0065 7.1961L22.7319 6.85871C22.6256 6.63029 22.5 6.41376 22.3539 6.20846L21.702 6.67221ZM21.9939 7.16587C22.0643 7.35679 22.1166 7.55285 22.1515 7.75344L22.9397 7.61636C22.8967 7.36928 22.832 7.12635 22.7444 6.88894L21.9939 7.16587ZM22.1472 7.7205C22.1654 7.92394 22.1643 8.13 22.1457 8.33824L22.9425 8.40936C22.965 8.15733 22.9667 7.90351 22.944 7.6493L22.1472 7.7205ZM22.1503 8.30361C22.1156 8.49839 22.0633 8.68994 21.9941 8.87755L22.7447 9.15442C22.8299 8.92344 22.8947 8.68626 22.9379 8.44399L22.1503 8.30361ZM22.007 8.84665C21.9169 9.03942 21.8089 9.2234 21.6839 9.39652L22.3324 9.86487C22.4869 9.65099 22.6204 9.42359 22.7318 9.18533L22.007 8.84665ZM21.6939 9.38326C21.5797 9.52822 21.4502 9.71441 21.383 9.95495L22.1535 10.1702C22.178 10.0825 22.2298 9.99579 22.3224 9.87813L21.6939 9.38326ZM21.3827 9.95622C21.2907 10.2895 21.3273 10.6312 21.4551 10.9306L22.1909 10.6165C22.1272 10.4674 22.1146 10.3114 22.1539 10.169L21.3827 9.95622ZM21.4547 10.9297C21.5585 11.1744 21.7077 11.3649 21.9122 11.5256L22.4064 10.8965C22.3046 10.8165 22.2405 10.7336 22.1912 10.6173L21.4547 10.9297ZM21.9146 11.5274C22.1975 11.7463 22.4735 11.8107 22.7648 11.8424L22.8515 11.0472C22.6359 11.0237 22.5244 10.9877 22.404 10.8946L21.9146 11.5274ZM22.7377 11.8386C22.9336 11.8736 23.1241 11.9249 23.3097 11.9933L23.5862 11.2426C23.3556 11.1576 23.1196 11.0941 22.8785 11.051L22.7377 11.8386ZM23.2784 11.9802C23.468 12.0689 23.648 12.1737 23.8188 12.2947L24.2813 11.642C24.0716 11.4934 23.8503 11.3646 23.6175 11.2556L23.2784 11.9802ZM23.7909 12.2731C23.9358 12.3963 24.0699 12.5302 24.1916 12.6741L24.8022 12.1571C24.6516 11.9793 24.4866 11.8145 24.3091 11.6636L23.7909 12.2731ZM24.1711 12.6477C24.292 12.8174 24.3969 12.9962 24.4858 13.1845L25.2092 12.8429C25.1 12.6117 24.9711 12.3918 24.8227 12.1835L24.1711 12.6477ZM24.4717 13.1509C24.5415 13.3421 24.5944 13.5392 24.6302 13.7407L25.4178 13.6008C25.374 13.3542 25.3092 13.112 25.2232 12.8765L24.4717 13.1509ZM24.6255 13.7058C24.6432 13.9069 24.6429 14.1087 24.6247 14.3098L25.4214 14.3823C25.444 14.1337 25.4443 13.8842 25.4225 13.6357L24.6255 13.7058ZM24.629 14.2773C24.5948 14.4733 24.5431 14.6652 24.4741 14.8515L25.2242 15.1296C25.3103 14.8972 25.3746 14.6582 25.4171 14.4148L24.629 14.2773ZM24.4862 14.8223C24.3998 15.0086 24.2968 15.1858 24.1775 15.3512L24.8263 15.8192C24.9765 15.6111 25.105 15.3897 25.212 15.1588L24.4862 14.8223ZM24.1952 15.3285C24.0745 15.4727 23.9419 15.6059 23.7987 15.7271L24.3156 16.3376C24.4933 16.1872 24.6583 16.0216 24.8087 15.8419L24.1952 15.3285ZM23.8247 15.7069C23.6533 15.8292 23.4741 15.9351 23.2871 16.0222L23.6247 16.7474C23.8595 16.6381 24.0811 16.5068 24.2896 16.3579L23.8247 15.7069ZM23.3168 16.0098C23.1312 16.0786 22.9405 16.1304 22.7446 16.1659L22.8869 16.9531C23.1281 16.9095 23.3643 16.8454 23.595 16.7598L23.3168 16.0098ZM22.8134 16.1595C22.4533 16.1616 22.0252 16.3162 21.7545 16.6067L22.3399 17.152C22.4387 17.046 22.6444 16.9605 22.8181 16.9595L22.8134 16.1595ZM21.7643 16.5965C21.6518 16.7091 21.5559 16.8461 21.4834 16.9913L22.199 17.3489C22.237 17.2728 22.2842 17.208 22.33 17.1622L21.7643 16.5965ZM21.4861 16.9861C21.3901 17.1713 21.3247 17.3878 21.3264 17.6234L22.1264 17.6175C22.1258 17.5354 22.1485 17.4466 22.1964 17.3541L21.4861 16.9861ZM21.3264 17.6222C21.3265 17.6391 21.3269 17.6561 21.3278 17.6732L22.1268 17.6332C22.1265 17.6286 22.1264 17.6237 22.1264 17.6186L21.3264 17.6222ZM21.3276 17.6686C21.3319 17.7809 21.3464 17.8962 21.3735 18.0107L22.152 17.8265C22.1378 17.7667 22.1295 17.703 22.127 17.6378L21.3276 17.6686ZM22.8736 16.152C22.8577 16.154 22.8449 16.1556 22.8327 16.157L22.9222 16.952C22.9408 16.9499 22.9591 16.9476 22.974 16.9457L22.8736 16.152ZM22.9086 16.1477C22.8963 16.1491 22.8842 16.1507 22.8736 16.152L22.974 16.9457C22.9851 16.9443 22.9945 16.9431 23.0036 16.942L22.9086 16.1477ZM22.9283 16.9512C22.9534 16.948 22.9781 16.945 23.0025 16.9421L22.9096 16.1475C22.8819 16.1508 22.8541 16.1542 22.8266 16.1577L22.9283 16.9512ZM23.453 15.9558C23.4358 15.9631 23.4185 15.9702 23.4012 15.9771L23.6998 16.7193C23.7213 16.7107 23.7427 16.7019 23.764 16.6928L23.453 15.9558ZM23.7044 16.7174C23.723 16.7097 23.7412 16.7022 23.7591 16.6949L23.458 15.9537C23.4372 15.9622 23.4167 15.9706 23.3965 15.979L23.7044 16.7174ZM24.2786 15.2246C24.2715 15.2338 24.2644 15.2429 24.2572 15.252L24.8861 15.7465C24.895 15.7352 24.9039 15.7238 24.9127 15.7123L24.2786 15.2246ZM24.8874 15.7449L24.9114 15.714L24.2799 15.2229L24.2559 15.2537L24.8874 15.7449ZM25.1604 15.2909C25.1675 15.2732 25.1749 15.2554 25.1825 15.2371L24.4441 14.9293C24.4358 14.9491 24.4275 14.9693 24.4192 14.9898L25.1604 15.2909ZM24.4422 14.9339C24.4354 14.951 24.4284 14.9679 24.4212 14.9848L25.1583 15.2959C25.1672 15.2748 25.1759 15.2536 25.1844 15.2324L24.4422 14.9339ZM24.6092 13.5576C24.6125 13.5826 24.6156 13.6077 24.6183 13.6327L25.4135 13.5455C25.4102 13.5145 25.4064 13.4836 25.4023 13.4527L24.6092 13.5576ZM25.4128 13.5387C25.4094 13.512 25.4062 13.4856 25.4032 13.4597L24.6084 13.5506C24.6118 13.5803 24.6154 13.61 24.6191 13.6395L25.4128 13.5387ZM24.42 13.0179C24.423 13.0251 24.4259 13.0323 24.4288 13.0394L25.1703 12.7391C25.1667 12.7303 25.1631 12.7215 25.1595 12.7127L24.42 13.0179ZM25.1695 12.737C25.1664 12.7296 25.1634 12.7222 25.1604 12.7148L24.4192 13.0159C24.4226 13.0244 24.4261 13.0329 24.4297 13.0415L25.1695 12.737ZM23.7591 11.3108C23.7412 11.3035 23.723 11.296 23.7044 11.2882L23.3965 12.0266C23.4167 12.035 23.4372 12.0435 23.458 12.0519L23.7591 11.3108ZM23.4012 12.0285C23.4185 12.0355 23.4358 12.0426 23.453 12.0499L23.764 11.3128C23.7427 11.3038 23.7213 11.295 23.6998 11.2863L23.4012 12.0285ZM21.8038 9.24563C21.7943 9.25825 21.7843 9.27101 21.7733 9.28473L22.3976 9.78495C22.4122 9.76683 22.4277 9.74705 22.4437 9.72564L21.8038 9.24563ZM22.4012 9.78042L22.4395 9.73122L21.808 9.24006L21.7697 9.28926L22.4012 9.78042ZM22.6858 9.30532C22.6888 9.29785 22.6919 9.2903 22.695 9.28263L21.9552 8.97827C21.9517 8.98682 21.9481 8.99549 21.9446 9.00424L22.6858 9.30532ZM21.9544 8.98028C21.9514 8.98754 21.9484 8.99484 21.9454 9.00218L22.6849 9.30738C22.6886 9.29851 22.6922 9.2896 22.6958 9.28063L21.9544 8.98028ZM22.9627 7.76383C22.9611 7.75293 22.9596 7.74198 22.958 7.73098L22.1659 7.84322C22.1675 7.85449 22.1691 7.86575 22.1707 7.87698L22.9627 7.76383ZM22.1662 7.84516C22.1677 7.85506 22.1691 7.86504 22.1705 7.87509L22.963 7.76572C22.9613 7.75355 22.9595 7.74132 22.9577 7.72905L22.1662 7.84516ZM22.9356 7.56529C22.9321 7.53816 22.9289 7.51141 22.9259 7.48514L22.131 7.57598C22.1345 7.60611 22.1381 7.63624 22.1419 7.66618L22.9356 7.56529ZM22.1319 7.58342C22.1353 7.60859 22.1384 7.63379 22.1411 7.65904L22.9364 7.57244C22.933 7.54086 22.9291 7.50928 22.9249 7.47771L22.1319 7.58342ZM21.9482 7.04882C21.951 7.05575 21.9539 7.06272 21.9567 7.06972L22.6982 6.76944C22.6947 6.76083 22.6912 6.7522 22.6876 6.74355L21.9482 7.04882ZM22.6974 6.76745C22.6944 6.76012 22.6914 6.75284 22.6885 6.74562L21.9473 7.04676C21.9507 7.05513 21.9541 7.06344 21.9575 7.0717L22.6974 6.76745ZM19.7211 5.04552C19.7107 5.047 19.7004 5.04847 19.6901 5.04994L19.8023 5.84202C19.813 5.84051 19.8236 5.83899 19.8342 5.83748L19.7211 5.04552ZM19.8042 5.84174C19.8136 5.84037 19.823 5.83904 19.8323 5.83775L19.723 5.04525C19.7114 5.04686 19.6997 5.04851 19.6881 5.05022L19.8042 5.84174ZM19.5256 5.07228C19.4974 5.07587 19.4696 5.07925 19.4424 5.08237L19.5332 5.87719C19.5645 5.87362 19.5957 5.86981 19.6268 5.86585L19.5256 5.07228ZM19.5407 5.87627C19.567 5.87276 19.5933 5.86957 19.6196 5.8667L19.5327 5.07143C19.5001 5.07499 19.4675 5.07895 19.435 5.08329L19.5407 5.87627ZM19.0061 6.06278C19.0133 6.0598 19.0206 6.05684 19.0279 6.05389L18.7275 5.31241C18.7186 5.31601 18.7097 5.31966 18.7008 5.32334L19.0061 6.06278ZM18.7255 5.31324C18.7179 5.31636 18.7104 5.31944 18.7029 5.32247L19.004 6.06365C19.0127 6.06012 19.0213 6.05658 19.0299 6.05306L18.7255 5.31324ZM16.1546 5.13192C16.1566 5.1478 16.1582 5.1606 16.1596 5.17288L16.9546 5.08336C16.9525 5.06471 16.9501 5.04646 16.9482 5.03148L16.1546 5.13192ZM16.1502 5.09669C16.1517 5.10904 16.1532 5.12125 16.1546 5.13192L16.9482 5.03147C16.9468 5.02037 16.9456 5.0109 16.9446 5.00176L16.1502 5.09669ZM16.9538 5.07724C16.9506 5.05208 16.9475 5.02725 16.9447 5.0028L16.1501 5.09566C16.1533 5.12351 16.1568 5.15135 16.1603 5.179L16.9538 5.07724ZM15.9583 4.55249C15.9656 4.56973 15.9727 4.587 15.9797 4.60429L16.7219 4.3057C16.7132 4.28421 16.7044 4.2628 16.6954 4.24145L15.9583 4.55249ZM16.72 4.30104C16.7122 4.28248 16.7047 4.26432 16.6975 4.24641L15.9563 4.54752C15.9647 4.56831 15.9732 4.58883 15.9816 4.60895L16.72 4.30104ZM15.2271 3.72691C15.2363 3.73397 15.2455 3.74108 15.2546 3.74823L15.7491 3.11939C15.7377 3.11047 15.7263 3.10161 15.7149 3.09281L15.2271 3.72691ZM15.7474 3.11807L15.7166 3.09412L15.2254 3.7256L15.2562 3.74955L15.7474 3.11807ZM15.2934 2.84513C15.2758 2.83798 15.258 2.8306 15.2397 2.82299L14.9319 3.56139C14.9517 3.56965 14.9719 3.578 14.9923 3.58631L15.2934 2.84513ZM14.9365 3.5633C14.9535 3.57014 14.9705 3.57712 14.9874 3.58424L15.2984 2.84719C15.2774 2.8383 15.2562 2.8296 15.235 2.82108L14.9365 3.5633ZM13.5602 3.39625C13.5852 3.39294 13.6103 3.38991 13.6353 3.38716L13.5481 2.59193C13.5171 2.59533 13.4862 2.59907 13.4553 2.60315L13.5602 3.39625ZM13.5413 2.59273C13.5146 2.59613 13.4882 2.59933 13.4623 2.60229L13.5532 3.39712C13.5829 3.39372 13.6126 3.39011 13.6421 3.38636L13.5413 2.59273ZM13.0205 3.58545C13.0277 3.58251 13.0348 3.57959 13.0419 3.5767L12.7416 2.83521C12.7328 2.83877 12.724 2.84236 12.7153 2.84599L13.0205 3.58545ZM12.7396 2.83604C12.7321 2.83911 12.7247 2.84214 12.7173 2.84513L13.0184 3.5863C13.027 3.58282 13.0355 3.57934 13.044 3.57587L12.7396 2.83604ZM11.3133 4.24641C11.306 4.26431 11.2985 4.28248 11.2908 4.30104L12.0292 4.60895C12.0376 4.58883 12.046 4.56831 12.0545 4.54752L11.3133 4.24641ZM12.0311 4.60429C12.038 4.587 12.0452 4.56973 12.0524 4.55249L11.3154 4.24144C11.3064 4.2628 11.2975 4.28421 11.2889 4.3057L12.0311 4.60429ZM9.2482 6.20173C9.26081 6.21119 9.27357 6.22116 9.28726 6.23213L9.78748 5.60781C9.76936 5.59329 9.74959 5.57777 9.72821 5.56174L9.2482 6.20173ZM9.78295 5.60423L9.73378 5.56599L9.24263 6.19747L9.29179 6.23571L9.78295 5.60423ZM9.30789 5.31974C9.30043 5.31671 9.29291 5.31363 9.28533 5.31051L8.9809 6.05032C8.98947 6.05385 8.9981 6.05738 9.00679 6.06091L9.30789 5.31974ZM8.98295 6.05116C8.99019 6.05409 8.99744 6.05706 9.00471 6.06006L9.30998 5.32059C9.30111 5.31693 9.29221 5.31329 9.28328 5.30968L8.98295 6.05116ZM7.7664 5.04279C7.75545 5.04435 7.7445 5.04591 7.73353 5.04746L7.84574 5.83955C7.85706 5.83795 7.86833 5.83634 7.87954 5.83474L7.7664 5.04279ZM7.84769 5.83927C7.85765 5.83781 7.86763 5.83639 7.87762 5.83501L7.76831 5.04252C7.75607 5.0442 7.74383 5.04595 7.73158 5.04774L7.84769 5.83927ZM7.56786 5.06993C7.54072 5.07338 7.51397 5.07663 7.48771 5.07963L7.57854 5.87446C7.60868 5.87101 7.63882 5.86735 7.66875 5.86354L7.56786 5.06993ZM7.58599 5.87354C7.61116 5.87018 7.63636 5.86713 7.6616 5.86438L7.57501 5.06908C7.54343 5.07252 7.51184 5.07634 7.48026 5.08055L7.58599 5.87354ZM7.05138 6.05733C7.05832 6.05446 7.06526 6.05163 7.0722 6.04881L6.77194 5.3073C6.76333 5.31079 6.75472 5.31431 6.74612 5.31786L7.05138 6.05733ZM6.76992 5.30813C6.76263 5.31112 6.75539 5.31409 6.74819 5.31701L7.04931 6.05818C7.05766 6.05478 7.06597 6.05138 7.07423 6.04799L6.76992 5.30813ZM5.04808 8.2844C5.04956 8.29475 5.05103 8.30509 5.0525 8.31542L5.84459 8.20317C5.84307 8.19247 5.84155 8.18183 5.84004 8.17126L5.04808 8.2844ZM5.84431 8.20123C5.84293 8.19188 5.8416 8.18252 5.84031 8.17317L5.04781 8.28248C5.04942 8.29413 5.05108 8.30576 5.05278 8.31736L5.84431 8.20123ZM5.07484 8.47991C5.07843 8.50809 5.08182 8.53584 5.08493 8.56309L5.87976 8.47225C5.87619 8.441 5.87237 8.40974 5.86841 8.37871L5.07484 8.47991ZM5.87884 8.4648C5.87533 8.4385 5.87214 8.41219 5.86926 8.38587L5.07399 8.47275C5.07756 8.50538 5.08151 8.53797 5.08585 8.57054L5.87884 8.4648ZM6.06536 8.9994C6.06236 8.99214 6.05939 8.98488 6.05645 8.97762L5.31497 9.27797C5.31858 9.28689 5.32223 9.2958 5.3259 9.30469L6.06536 8.9994ZM5.3158 9.28001C5.31892 9.28759 5.322 9.29512 5.32504 9.3026L6.06621 9.00149C6.06268 8.9928 6.05915 8.98416 6.05561 8.97557L5.3158 9.28001ZM5.13446 11.8509C5.15036 11.8489 5.16315 11.8473 5.17543 11.8459L5.08594 11.0509C5.06727 11.053 5.049 11.0553 5.03402 11.0572L5.13446 11.8509ZM5.09932 11.8553C5.11164 11.8538 5.12383 11.8523 5.13448 11.8509L5.034 11.0572C5.02292 11.0586 5.01348 11.0598 5.00437 11.0609L5.09932 11.8553ZM5.0798 11.0517C5.05466 11.0549 5.02984 11.0579 5.00541 11.0608L5.09828 11.8554C5.12612 11.8521 5.15393 11.8487 5.18156 11.8452L5.0798 11.0517ZM4.55505 12.0471C4.57228 12.0399 4.58955 12.0328 4.60685 12.0258L4.30824 11.2836C4.28678 11.2922 4.26537 11.3011 4.24401 11.3101L4.55505 12.0471ZM4.30359 11.2855C4.28504 11.2933 4.26688 11.3008 4.24898 11.308L4.55009 12.0492C4.57086 12.0408 4.59138 12.0323 4.6115 12.0239L4.30359 11.2855ZM3.72947 12.7783C3.73654 12.7692 3.74365 12.76 3.75081 12.7509L3.12196 12.2564C3.11305 12.2677 3.10418 12.2791 3.09537 12.2906L3.72947 12.7783ZM3.12065 12.2581L3.09668 12.2889L3.72816 12.78L3.75212 12.7492L3.12065 12.2581ZM2.84769 12.712C2.84054 12.7297 2.83316 12.7475 2.82555 12.7658L3.56396 13.0736C3.57222 13.0538 3.58056 13.0336 3.58887 13.0131L2.84769 12.712ZM3.56587 13.0689C3.5727 13.052 3.57968 13.035 3.58681 13.0181L2.84975 12.7071C2.84087 12.7281 2.83216 12.7493 2.82364 12.7704L3.56587 13.0689ZM3.39881 14.4453C3.3955 14.4203 3.39247 14.3952 3.38972 14.3701L2.59449 14.4574C2.59789 14.4884 2.60163 14.5193 2.60572 14.5502L3.39881 14.4453ZM2.59529 14.4642C2.59869 14.4909 2.60189 14.5173 2.60485 14.5432L3.39968 14.4523C3.39628 14.4226 3.39267 14.3929 3.38892 14.3634L2.59529 14.4642ZM3.58801 14.9849C3.58507 14.9778 3.58216 14.9707 3.57927 14.9636L2.83777 15.2639C2.84133 15.2727 2.84493 15.2815 2.84856 15.2902L3.58801 14.9849ZM2.8386 15.2659C2.84168 15.2734 2.84471 15.2808 2.84769 15.2881L3.58887 14.987C3.58539 14.9785 3.5819 14.97 3.57843 14.9615L2.8386 15.2659ZM4.24897 16.6922C4.26688 16.6994 4.28505 16.7069 4.3036 16.7147L4.61152 15.9763C4.59138 15.9679 4.57087 15.9594 4.55009 15.951L4.24897 16.6922ZM4.60686 15.9744C4.58956 15.9674 4.57229 15.9603 4.55506 15.9531L4.244 16.6901C4.26536 16.6991 4.28678 16.7079 4.30826 16.7166L4.60686 15.9744ZM5.32231 18.6976C5.31926 18.7051 5.31618 18.7126 5.31306 18.7202L6.05287 19.0246C6.05641 19.016 6.05995 19.0074 6.06348 18.9987L5.32231 18.6976ZM6.05371 19.0226C6.05665 19.0153 6.05962 19.008 6.06262 19.0008L5.32316 18.6955C5.31949 18.7044 5.31584 18.7133 5.31222 18.7222L6.05371 19.0226ZM5.04535 20.2391C5.04691 20.25 5.04847 20.261 5.05002 20.2719L5.84212 20.1597C5.84051 20.1484 5.83891 20.1371 5.83731 20.1259L5.04535 20.2391ZM5.84184 20.1578C5.84037 20.1478 5.83896 20.1379 5.83758 20.1279L5.04508 20.2372C5.04677 20.2494 5.04851 20.2617 5.05031 20.2739L5.84184 20.1578ZM5.07249 20.4376C5.07594 20.4648 5.07919 20.4915 5.0822 20.5178L5.87702 20.4269C5.87358 20.3968 5.86991 20.3667 5.8661 20.3367L5.07249 20.4376ZM5.8761 20.4195C5.87275 20.3943 5.8697 20.3691 5.86695 20.3439L5.07165 20.4305C5.07509 20.4621 5.07891 20.4936 5.08312 20.5252L5.8761 20.4195ZM6.05988 20.9541C6.05703 20.9472 6.0542 20.9402 6.05138 20.9333L5.30987 21.2336C5.31335 21.2422 5.31687 21.2508 5.32043 21.2594L6.05988 20.9541ZM5.3107 21.2356C5.31369 21.2429 5.31665 21.2501 5.31958 21.2573L6.06073 20.9562C6.05735 20.9478 6.05396 20.9395 6.05055 20.9313L5.3107 21.2356ZM8.28698 22.9574C8.29728 22.9559 8.30762 22.9545 8.31801 22.953L8.20574 22.1609C8.19508 22.1624 8.18444 22.1639 8.17381 22.1654L8.28698 22.9574ZM8.20378 22.1612C8.1945 22.1625 8.18515 22.1639 8.17571 22.1652L8.28507 22.9577C8.29664 22.9561 8.30828 22.9544 8.31997 22.9527L8.20378 22.1612ZM8.48243 22.9306C8.51064 22.9271 8.5384 22.9237 8.56564 22.9206L8.47483 22.1257C8.44354 22.1293 8.41227 22.1331 8.38124 22.1371L8.48243 22.9306ZM8.46738 22.1266C8.44106 22.1302 8.41473 22.1334 8.38839 22.1362L8.47528 22.9315C8.50792 22.9279 8.54053 22.924 8.57309 22.9196L8.46738 22.1266ZM9.00198 21.9401C8.99477 21.9431 8.98752 21.9461 8.98024 21.949L9.28064 22.6905C9.28949 22.6869 9.29836 22.6833 9.30724 22.6796L9.00198 21.9401ZM9.28264 22.6897C9.2902 22.6865 9.2977 22.6835 9.30516 22.6804L9.00406 21.9393C8.9954 21.9428 8.98679 21.9463 8.97824 21.9498L9.28264 22.6897ZM11.8535 22.871C11.8515 22.8551 11.8499 22.8423 11.8485 22.8301L11.0535 22.9196C11.0556 22.9382 11.0579 22.9565 11.0598 22.9714L11.8535 22.871ZM11.8579 22.9063C11.8564 22.8939 11.8548 22.8817 11.8535 22.871L11.0598 22.9714C11.0612 22.9826 11.0624 22.9921 11.0635 23.0012L11.8579 22.9063ZM11.0542 22.9257C11.0575 22.9509 11.0605 22.9757 11.0634 23.0002L11.858 22.9073C11.8547 22.8795 11.8513 22.8516 11.8477 22.8239L11.0542 22.9257ZM12.0497 23.4504C12.0424 23.4332 12.0353 23.4159 12.0284 23.3986L11.2862 23.6972C11.2948 23.7187 11.3036 23.7401 11.3126 23.7615L12.0497 23.4504ZM11.2881 23.7019C11.2958 23.7205 11.3033 23.7386 11.3106 23.7565L12.0518 23.4554C12.0433 23.4346 12.0348 23.4141 12.0264 23.394L11.2881 23.7019ZM12.7809 24.276C12.7717 24.2689 12.7626 24.2618 12.7534 24.2546L12.2589 24.8835C12.2703 24.8924 12.2817 24.9013 12.2932 24.9101L12.7809 24.276ZM12.2606 24.8848L12.2915 24.9088L12.7826 24.2773L12.7518 24.2533L12.2606 24.8848ZM12.7146 25.1578C12.7322 25.1649 12.7501 25.1723 12.7684 25.18L13.0762 24.4415C13.0564 24.4333 13.0362 24.4249 13.0157 24.4166L12.7146 25.1578ZM13.0716 24.4396C13.0546 24.4328 13.0376 24.4258 13.0207 24.4187L12.7096 25.1557C12.7307 25.1646 12.7518 25.1733 12.773 25.1819L13.0716 24.4396ZM14.4479 24.6067C14.4228 24.61 14.3978 24.613 14.3728 24.6158L14.46 25.411C14.491 25.4076 14.5219 25.4038 14.5528 25.3998L14.4479 24.6067ZM14.4668 25.4102C14.4935 25.4068 14.5199 25.4036 14.5457 25.4006L14.4549 24.6058C14.4252 24.6092 14.3955 24.6128 14.366 24.6166L14.4668 25.4102ZM14.9875 24.4175C14.9804 24.4204 14.9732 24.4233 14.9661 24.4262L15.2664 25.1677C15.2752 25.1642 15.284 25.1606 15.2928 25.1569L14.9875 24.4175ZM15.2684 25.1669C15.276 25.1638 15.2834 25.1608 15.2907 25.1578L14.9896 24.4166C14.981 24.4201 14.9725 24.4236 14.9641 24.4271L15.2684 25.1669ZM16.6947 23.7565C16.702 23.7386 16.7095 23.7205 16.7172 23.7019L15.9789 23.394C15.9705 23.4141 15.962 23.4346 15.9536 23.4554L16.6947 23.7565ZM15.977 23.3986C15.97 23.4159 15.9629 23.4332 15.9556 23.4504L16.6927 23.7615C16.7017 23.7401 16.7105 23.7187 16.7191 23.6972L15.977 23.3986ZM18.7598 21.8012C18.7472 21.7917 18.7345 21.7817 18.7208 21.7708L18.2205 22.3951C18.2387 22.4096 18.2584 22.4251 18.2798 22.4412L18.7598 21.8012ZM18.2251 22.3987L18.2743 22.4369L18.7654 21.8054L18.7162 21.7672L18.2251 22.3987ZM18.7001 22.6832C18.7077 22.6862 18.7152 22.6893 18.7227 22.6924L19.0272 21.9526C19.0185 21.9491 19.0099 21.9455 19.0013 21.942L18.7001 22.6832ZM19.0251 21.9518C19.0179 21.9488 19.0106 21.9459 19.0034 21.9429L18.6981 22.6823C18.707 22.686 18.7159 22.6896 18.7248 22.6933L19.0251 21.9518ZM20.2416 22.9601C20.2526 22.9586 20.2636 22.957 20.2745 22.9555L20.1623 22.1634C20.151 22.165 20.1397 22.1666 20.1285 22.1682L20.2416 22.9601ZM20.1604 22.1636C20.1504 22.1651 20.1404 22.1665 20.1304 22.1679L20.2397 22.9604C20.252 22.9587 20.2642 22.957 20.2764 22.9552L20.1604 22.1636ZM20.4402 22.933C20.4673 22.9295 20.4941 22.9263 20.5203 22.9233L20.4295 22.1285C20.3994 22.1319 20.3692 22.1356 20.3393 22.1394L20.4402 22.933ZM20.4221 22.1294C20.3969 22.1327 20.3717 22.1358 20.3464 22.1385L20.433 22.9338C20.4646 22.9304 20.4962 22.9266 20.5278 22.9224L20.4221 22.1294ZM20.9567 21.9456C20.9497 21.9485 20.9428 21.9513 20.9358 21.9541L21.236 22.6956C21.2447 22.6921 21.2533 22.6886 21.2619 22.6851L20.9567 21.9456ZM21.2381 22.6948C21.2454 22.6918 21.2526 22.6888 21.2598 22.6859L20.9588 21.9447C20.9504 21.9481 20.942 21.9515 20.9338 21.955L21.2381 22.6948ZM22.96 19.7185C22.9585 19.7082 22.957 19.6978 22.9555 19.6875L22.1635 19.7998C22.165 19.8104 22.1665 19.8211 22.168 19.8317L22.96 19.7185ZM22.1637 19.8017C22.1651 19.8111 22.1665 19.8204 22.1677 19.8297L22.9602 19.7205C22.9586 19.7088 22.957 19.6971 22.9553 19.6856L22.1637 19.8017ZM22.9332 19.523C22.9296 19.4948 22.9262 19.4671 22.9231 19.4398L22.1283 19.5307C22.1319 19.5619 22.1357 19.5932 22.1396 19.6242L22.9332 19.523ZM22.1292 19.5381C22.1327 19.5644 22.1359 19.5907 22.1388 19.6171L22.9341 19.5302C22.9305 19.4976 22.9265 19.465 22.9222 19.4324L22.1292 19.5381ZM21.9427 19.0035C21.9457 19.0108 21.9487 19.0181 21.9516 19.0253L22.6931 18.725C22.6895 18.716 22.6858 18.7071 22.6822 18.6982L21.9427 19.0035ZM22.6923 18.723C22.6891 18.7153 22.686 18.7078 22.683 18.7003L21.9418 19.0014C21.9454 19.0102 21.9489 19.0188 21.9524 19.0273L22.6923 18.723ZM5.60681 18.2225L5.56856 18.2717L6.20004 18.7629L6.23829 18.7137L5.60681 18.2225ZM6.20429 18.7573C6.21375 18.7447 6.22373 18.7319 6.23471 18.7182L5.61039 18.218C5.59587 18.2361 5.58034 18.2559 5.5643 18.2773L6.20429 18.7573ZM16.873 14C16.873 14.1296 16.8668 14.2591 16.8545 14.3877L17.6509 14.4638C17.6656 14.3098 17.673 14.1549 17.673 14H16.873ZM16.8532 13.5976C16.8664 13.7318 16.873 13.8659 16.873 14H17.673C17.673 13.8397 17.6651 13.6795 17.6494 13.5193L16.8532 13.5976ZM16.6573 12.884C16.7478 13.125 16.8145 13.3721 16.8568 13.6245L17.6458 13.4924C17.5949 13.1883 17.5146 12.8914 17.4063 12.6029L16.6573 12.884ZM16.2678 12.2222C16.4231 12.4369 16.5564 12.6675 16.6685 12.9108L17.3951 12.5761C17.2625 12.2882 17.1034 12.0124 16.916 11.7533L16.2678 12.2222ZM15.7456 11.7062C15.9417 11.8696 16.1218 12.0485 16.2846 12.2438L16.8992 11.7317C16.7042 11.4976 16.4894 11.2847 16.2577 11.0916L15.7456 11.7062ZM15.0941 11.3308C15.3318 11.4411 15.5574 11.5716 15.7677 11.7233L16.2356 11.0745C15.9819 10.8915 15.712 10.7355 15.4307 10.605L15.0941 11.3308ZM14.358 11.1364C14.6188 11.181 14.874 11.25 15.1226 11.3427L15.4021 10.5931C15.1073 10.4832 14.8036 10.4009 14.4925 10.3478L14.358 11.1364ZM13.5962 11.141C13.8589 11.1152 14.1227 11.115 14.3871 11.1403L14.4634 10.344C14.1479 10.3137 13.8323 10.314 13.5179 10.3449L13.5962 11.141ZM12.8812 11.3371C13.1226 11.2465 13.3702 11.1797 13.623 11.1375L13.4911 10.3484C13.1865 10.3993 12.889 10.4797 12.6001 10.5881L12.8812 11.3371ZM12.2194 11.7266C12.4341 11.5713 12.6647 11.438 12.908 11.3259L12.5733 10.5993C12.2855 10.7319 12.0096 10.8911 11.7505 11.0785L12.2194 11.7266ZM11.7034 12.2489C11.8668 12.0528 12.0457 11.8726 12.241 11.7099L11.7289 11.0952C11.4949 11.2903 11.2819 11.505 11.0888 11.7368L11.7034 12.2489ZM11.328 12.9004C11.4383 12.6626 11.5689 12.4371 11.7205 12.2268L11.0717 11.7588C10.8887 12.0126 10.7327 12.2824 10.6022 12.5638L11.328 12.9004ZM11.1336 13.6365C11.1782 13.3756 11.2472 13.1204 11.3399 12.8718L10.5903 12.5924C10.4804 12.8872 10.3981 13.1909 10.345 13.5019L11.1336 13.6365ZM11.1382 14.3983C11.1124 14.1356 11.1122 13.8718 11.1375 13.6074L10.3412 13.531C10.3109 13.8466 10.3112 14.1622 10.3421 14.4765L11.1382 14.3983ZM11.3343 15.1133C11.2437 14.8718 11.1769 14.6243 11.1347 14.3715L10.3456 14.5033C10.3965 14.8079 10.4769 15.1054 10.5854 15.3944L11.3343 15.1133ZM11.7239 15.775C11.5686 15.5604 11.4353 15.3298 11.3232 15.0864L10.5966 15.4212C10.7292 15.709 10.8883 15.9849 11.0757 16.244L11.7239 15.775ZM12.2461 16.291C12.05 16.1277 11.8698 15.9488 11.7071 15.7535L11.0925 16.2655C11.2875 16.4996 11.5023 16.7126 11.734 16.9057L12.2461 16.291ZM12.8976 16.6665C12.6598 16.5562 12.4343 16.4256 12.224 16.2739L11.756 16.9228C12.0098 17.1058 12.2796 17.2617 12.561 17.3922L12.8976 16.6665ZM13.6337 16.8608C13.3728 16.8163 13.1176 16.7472 12.869 16.6546L12.5896 17.4042C12.8844 17.5141 13.1881 17.5963 13.4991 17.6494L13.6337 16.8608ZM14.3955 16.8562C14.1328 16.882 13.869 16.8823 13.6046 16.8569L13.5282 17.6533C13.8438 17.6836 14.1594 17.6833 14.4737 17.6524L14.3955 16.8562ZM15.1105 16.6601C14.8691 16.7507 14.6215 16.8175 14.3687 16.8598L14.5006 17.6488C14.8052 17.5979 15.1026 17.5175 15.3916 17.4091L15.1105 16.6601ZM15.7723 16.2706C15.5576 16.4259 15.327 16.5592 15.0837 16.6713L15.4184 17.3979C15.7062 17.2653 15.9821 17.1062 16.2412 16.9188L15.7723 16.2706ZM16.2882 15.7484C16.1249 15.9445 15.946 16.1246 15.7507 16.2874L16.2627 16.902C16.4968 16.707 16.7098 16.4922 16.9029 16.2605L16.2882 15.7484ZM16.6637 15.0969C16.5534 15.3346 16.4228 15.5602 16.2711 15.7705L16.92 16.2384C17.103 15.9847 17.2589 15.7148 17.3894 15.4335L16.6637 15.0969ZM16.8584 14.3587C16.8139 14.6203 16.7447 14.8762 16.6518 15.1254L17.4014 15.4049C17.5116 15.1093 17.594 14.8048 17.6471 14.4929L16.8584 14.3587ZM17.3401 15.5614C17.3424 15.5557 17.3448 15.5499 17.3472 15.544L16.6071 15.2403C16.6044 15.2469 16.6016 15.2536 16.5989 15.2604L17.3401 15.5614ZM16.6065 15.2417C16.6042 15.2474 16.6019 15.2531 16.5995 15.2589L17.3395 15.563C17.3422 15.5562 17.345 15.5494 17.3478 15.5425L16.6065 15.2417ZM15.2537 16.6033C15.2383 16.6097 15.2228 16.6161 15.2074 16.6223L15.5073 17.364C15.5258 17.3565 15.5442 17.3489 15.5626 17.3412L15.2537 16.6033ZM15.511 17.3625C15.5271 17.3558 15.543 17.3492 15.5587 17.3428L15.2576 16.6017C15.2394 16.6091 15.2214 16.6165 15.2037 16.6238L15.511 17.3625ZM14.3682 17.669C14.3807 17.6672 14.3932 17.6655 14.4057 17.6637L14.2936 16.8716C14.2807 16.8734 14.2679 16.8752 14.2551 16.8771L14.3682 17.669ZM14.2916 16.8719C14.2801 16.8736 14.2686 16.8752 14.2571 16.8768L14.3662 17.6693C14.3801 17.6674 14.3939 17.6654 14.4078 17.6634L14.2916 16.8719ZM14.5389 17.6455C14.5756 17.6407 14.6117 17.6362 14.6469 17.6322L14.5561 16.8373C14.5157 16.842 14.4752 16.847 14.4352 16.8522L14.5389 17.6455ZM14.5476 16.8384C14.5128 16.8431 14.478 16.8474 14.4433 16.8513L14.5308 17.6464C14.5724 17.6419 14.6139 17.6368 14.6554 17.6311L14.5476 16.8384ZM12.433 17.3428C12.4387 17.3452 12.4445 17.3476 12.4504 17.35L12.7541 16.6098C12.7475 16.6071 12.7408 16.6044 12.7341 16.6017L12.433 17.3428ZM12.7527 16.6093C12.747 16.607 12.7412 16.6046 12.7355 16.6023L12.4315 17.3423C12.4383 17.345 12.4451 17.3478 12.4518 17.3505L12.7527 16.6093ZM11.3912 15.2565C11.3847 15.241 11.3784 15.2256 11.3721 15.2101L10.6305 15.5101C10.6379 15.5286 10.6455 15.547 10.6532 15.5654L11.3912 15.2565ZM10.632 15.5137C10.6387 15.5299 10.6453 15.5458 10.6516 15.5615L11.3928 15.2604C11.3854 15.2422 11.378 15.2242 11.3706 15.2065L10.632 15.5137ZM10.3254 14.371C10.3272 14.3835 10.329 14.396 10.3308 14.4085L11.1229 14.2965C11.1211 14.2835 11.1192 14.2706 11.1174 14.2579L10.3254 14.371ZM11.1226 14.2944C11.1209 14.2829 11.1193 14.2714 11.1177 14.2599L10.3252 14.369C10.3271 14.3829 10.329 14.3967 10.3311 14.4105L11.1226 14.2944ZM10.349 14.5416C10.3538 14.5784 10.3583 14.6144 10.3623 14.6497L11.1571 14.5589C11.1525 14.5185 11.1475 14.478 11.1423 14.438L10.349 14.5416ZM11.1561 14.5504C11.1513 14.5156 11.147 14.4808 11.1432 14.446L10.348 14.5336C10.3526 14.5752 10.3577 14.6167 10.3634 14.6582L11.1561 14.5504ZM10.6516 12.4358C10.6493 12.4416 10.6469 12.4474 10.6445 12.4532L11.3846 12.757C11.3873 12.7503 11.3901 12.7436 11.3928 12.7369L10.6516 12.4358ZM11.3852 12.7555C11.3875 12.7498 11.3898 12.7441 11.3922 12.7383L10.6522 12.4343C10.6494 12.4411 10.6467 12.4478 10.6439 12.4547L11.3852 12.7555ZM12.738 11.394C12.7534 11.3875 12.7689 11.3812 12.7843 11.3749L12.4844 10.6333C12.4659 10.6407 12.4475 10.6483 12.4291 10.656L12.738 11.394ZM12.4807 10.6348C12.4645 10.6415 12.4486 10.648 12.433 10.6544L12.7341 11.3956C12.7523 11.3882 12.7703 11.3808 12.788 11.3734L12.4807 10.6348ZM13.6234 10.3282C13.611 10.33 13.5985 10.3318 13.586 10.3336L13.698 11.1257C13.711 11.1238 13.7238 11.122 13.7366 11.1202L13.6234 10.3282ZM13.7001 11.1254C13.7116 11.1237 13.7231 11.1221 13.7346 11.1205L13.6255 10.328C13.6116 10.3299 13.5978 10.3318 13.5839 10.3339L13.7001 11.1254ZM13.4528 10.3518C13.4161 10.3566 13.38 10.3611 13.3448 10.3651L13.4356 11.1599C13.476 11.1553 13.5165 11.1503 13.5565 11.145L13.4528 10.3518ZM13.4441 11.1588C13.4789 11.1541 13.5136 11.1498 13.5484 11.146L13.4609 10.3508C13.4193 10.3554 13.3778 10.3605 13.3363 10.3661L13.4441 11.1588ZM15.5587 10.6544C15.5529 10.6521 15.5471 10.6497 15.5412 10.6473L15.2375 11.3874C15.2442 11.3901 15.2509 11.3929 15.2576 11.3956L15.5587 10.6544ZM15.2389 11.388C15.2447 11.3903 15.2504 11.3926 15.2561 11.395L15.5602 10.655C15.5534 10.6522 15.5466 10.6494 15.5398 10.6467L15.2389 11.388ZM16.6005 12.7408C16.607 12.7562 16.6133 12.7717 16.6196 12.7872L17.3612 12.4872C17.3538 12.4687 17.3462 12.4503 17.3385 12.4319L16.6005 12.7408ZM17.3597 12.4836C17.353 12.4674 17.3464 12.4515 17.3401 12.4358L16.5989 12.7369C16.6063 12.7551 16.6137 12.7731 16.6211 12.7909L17.3597 12.4836ZM17.6662 13.6263C17.6645 13.6137 17.6627 13.6013 17.6609 13.5888L16.8688 13.7008C16.8706 13.7138 16.8725 13.7266 16.8743 13.7394L17.6662 13.6263ZM16.8691 13.7029C16.8708 13.7144 16.8724 13.7259 16.874 13.7374L17.6665 13.6283C17.6646 13.6144 17.6626 13.6005 17.6606 13.5868L16.8691 13.7029ZM17.6422 13.452C17.6376 13.4165 17.6333 13.3816 17.6294 13.3475L16.8346 13.4384C16.839 13.4775 16.8439 13.5166 16.8489 13.5553L17.6422 13.452ZM16.8356 13.4465C16.8401 13.4802 16.8443 13.5139 16.848 13.5476L17.6432 13.4597C17.6387 13.4196 17.6338 13.3795 17.6284 13.3394L16.8356 13.4465ZM19.8495 14.1853C19.8571 14.1239 19.8608 14.0615 19.8605 13.9982L19.0605 14.0018C19.0606 14.0315 19.0589 14.0602 19.0555 14.0879L19.8495 14.1853ZM19.8605 13.998C19.8547 12.8367 19.5112 11.6322 18.8171 10.6682L18.1679 11.1357C18.7535 11.949 19.0554 12.9868 19.0605 14.002L19.8605 13.998ZM18.8174 10.6686C18.4245 10.1215 17.986 9.6743 17.4512 9.27028L16.969 9.90861C17.4404 10.2648 17.8222 10.6543 18.1676 11.1353L18.8174 10.6686ZM17.452 9.27091C16.9788 8.91146 16.4559 8.65944 15.9228 8.46455L15.6481 9.21591C16.1323 9.3929 16.5774 9.61119 16.9682 9.90799L17.452 9.27091ZM15.9227 8.46449C14.8044 8.05624 13.5227 8.03753 12.3944 8.35992L12.6141 9.12914C13.5912 8.84996 14.6994 8.86953 15.6483 9.21597L15.9227 8.46449ZM12.3946 8.35984C11.3057 8.67012 10.2689 9.31398 9.53804 10.1988L10.1548 10.7083C10.7747 9.95788 11.6684 9.39862 12.6139 9.12921L12.3946 8.35984ZM9.53652 10.2006C9.3383 10.4435 9.13576 10.7066 8.96265 10.9932L9.64738 11.4068C9.79146 11.1684 9.96627 10.9393 10.1563 10.7064L9.53652 10.2006ZM8.96233 10.9937C8.78409 11.2897 8.65144 11.5984 8.5329 11.8879L9.27323 12.191C9.38985 11.9063 9.50328 11.6462 9.64771 11.4063L8.96233 10.9937ZM8.53291 11.8878C8.30188 12.4519 8.19468 13.0424 8.14884 13.6211L8.94635 13.6843C8.98801 13.1583 9.08316 12.6551 9.27322 12.1911L8.53291 11.8878ZM8.14881 13.6216C8.05723 14.7944 8.36649 16.0176 8.97112 17.0155L9.65533 16.6009C9.13338 15.7395 8.86843 14.6821 8.94638 13.6839L8.14881 13.6216ZM8.97096 17.0152C9.55231 17.9763 10.4339 18.8117 11.4774 19.286L11.8084 18.5577C10.9269 18.157 10.1624 17.4393 9.65548 16.6012L8.97096 17.0152ZM11.4782 19.2864C11.7685 19.4176 12.0797 19.5476 12.4094 19.6405L12.6264 18.8705C12.3545 18.7938 12.0861 18.6832 11.8076 18.5574L11.4782 19.2864ZM12.4089 19.6403C12.7506 19.7371 13.095 19.7837 13.4165 19.8222L13.5115 19.0278C13.1932 18.9897 12.9032 18.9488 12.6269 18.8706L12.4089 19.6403ZM13.4156 19.8221C14.0305 19.897 14.6468 19.842 15.2279 19.724L15.0688 18.94C14.5452 19.0463 14.0186 19.0897 13.5124 19.0279L13.4156 19.8221ZM15.2269 19.7242C17.4902 19.271 19.4028 17.321 19.76 15.0268L18.9696 14.9037C18.6651 16.8587 17.012 18.5509 15.0698 18.9398L15.2269 19.7242ZM19.7602 15.0255C19.8029 14.7459 19.8418 14.4517 19.8523 14.1505L19.0528 14.1227C19.044 14.3762 19.0108 14.6333 18.9694 14.9049L19.7602 15.0255Z" fill="white"/>
</svg>
