<svg width="30" height="25" viewBox="0 0 30 25" fill="none" xmlns="http://www.w3.org/2000/svg">
<path d="M28.77 10.1936L23.46 6.33284V2.41124C23.46 1.77284 22.95 1.22564 22.29 1.22564C21.63 1.22564 21.12 1.74244 21.12 2.41124V4.63044L15.69 0.648044C15.27 0.344044 14.73 0.344044 14.34 0.648044L1.22996 10.1936C0.719957 10.5888 0.599957 11.3184 0.959957 11.8352C1.34996 12.352 2.06996 12.4736 2.57996 12.1088L4.25996 10.8928V22.8096C4.25996 23.448 4.76996 23.9952 5.42996 23.9952H12.06C12.36 23.9952 12.66 23.8736 12.87 23.6608C13.08 23.448 13.2 23.144 13.2 22.84V14.9664H16.8V22.84C16.8 23.144 16.92 23.448 17.13 23.6608C17.34 23.8736 17.64 23.9952 17.94 23.9952H24.54C25.17 23.9952 25.71 23.4784 25.71 22.8096V10.8928L27.39 12.1088C27.6 12.2608 27.84 12.3216 28.08 12.3216C28.44 12.3216 28.8 12.1392 29.01 11.8352C29.4 11.3184 29.28 10.5888 28.77 10.1936ZM23.4 21.624H19.11V13.7504C19.11 13.4464 18.99 13.1424 18.78 12.9296C18.57 12.7168 18.27 12.5952 17.97 12.5952H12.06C11.76 12.5952 11.46 12.7168 11.25 12.9296C11.04 13.1424 10.92 13.4464 10.92 13.7504V21.624H6.59996V9.19044L15 3.04964L23.4 9.19044V21.624Z" fill="#5F73F1" stroke="white" stroke-width="0.7"/>
</svg>
