<svg width="23" height="29" viewBox="0 0 23 29" fill="none" xmlns="http://www.w3.org/2000/svg">
<path d="M11.4999 0.780029C8.50929 0.780029 6.06242 3.24003 6.06242 6.24003V8.49003H1.83325C1.31971 8.49003 0.927002 8.88003 0.927002 9.39003V23.49C0.927002 25.98 2.95096 27.99 5.45825 27.99H17.5416C20.0489 27.99 22.0728 25.98 22.0728 23.49V9.39003C22.0728 8.88003 21.6801 8.49003 21.1666 8.49003H16.9374V6.24003C16.9374 3.24003 14.4905 0.780029 11.4999 0.780029ZM7.87492 6.24003C7.87492 4.23003 9.50617 2.58003 11.4999 2.58003C13.4937 2.58003 15.1249 4.23003 15.1249 6.24003V8.49003H7.87492V6.24003ZM20.2603 10.32V23.52C20.2603 25.02 19.052 26.22 17.5416 26.22H5.45825C3.94783 26.22 2.7395 25.02 2.7395 23.52V10.32H6.06242V11.88C6.06242 12.39 6.45513 12.78 6.96867 12.78C7.48221 12.78 7.87492 12.39 7.87492 11.88V10.32H15.1249V11.88C15.1249 12.39 15.5176 12.78 16.0312 12.78C16.5447 12.78 16.9374 12.39 16.9374 11.88V10.32H20.2603Z" fill="#5F73F1" stroke="white" stroke-width="0.3"/>
</svg>
