<svg width="24" height="23" viewBox="0 0 24 23" fill="none" xmlns="http://www.w3.org/2000/svg">
<path d="M4.05925 19.0405C5.53714 20.6158 7.46334 21.7154 9.58607 22.1957C11.7088 22.6759 13.9293 22.5144 15.9573 21.7322C17.9853 20.9501 19.7265 19.5837 20.9533 17.8117C22.1801 16.0397 22.8353 13.9445 22.8334 11.8V5.39997C22.8335 5.25428 22.8032 5.11012 22.7446 4.97638C22.6859 4.84264 22.6 4.72216 22.4922 4.62237C22.3853 4.52111 22.2581 4.44305 22.1187 4.39326C21.9793 4.34347 21.8308 4.32304 21.6829 4.3333C20.2704 4.46793 18.8733 4.72892 17.5088 5.11303C16.2101 3.33883 14.4155 1.97467 12.3435 1.18663C12.1208 1.11194 11.8793 1.11194 11.6567 1.18663C9.59363 1.97251 7.8057 3.32951 6.50867 5.09383C5.13922 4.71142 3.73625 4.45679 2.31833 4.3333C2.17043 4.32411 2.02219 4.34489 1.88277 4.39436C1.74335 4.44384 1.61573 4.52095 1.50779 4.62093C1.39985 4.72091 1.31389 4.84163 1.25523 4.97563C1.19657 5.10963 1.16646 5.25405 1.16675 5.39997V11.8C1.17032 14.441 2.17473 16.9857 3.98342 18.936C4.00675 18.9721 4.03206 19.007 4.05925 19.0405ZM17.3507 7.35623C17.3843 7.34663 17.4081 7.3189 17.4395 7.3061C18.4969 6.9943 19.5753 6.75655 20.6667 6.59463V11.8C20.6642 14.0624 19.7502 16.2314 18.1255 17.8311C16.5007 19.4309 14.2978 20.3308 12.0001 20.3333C9.78925 20.3404 7.66141 19.5048 6.06233 18.0016C6.097 17.8682 6.13275 17.7349 6.17067 17.6037C6.25517 17.3146 6.34508 17.032 6.44475 16.7578C6.526 16.5317 6.6105 16.3088 6.70258 16.0901C6.79467 15.8714 6.90192 15.641 7.007 15.4234C7.12508 15.1802 7.24425 14.937 7.37642 14.7024C7.46308 14.5466 7.55625 14.3994 7.64833 14.249C7.82058 13.9696 7.99608 13.6912 8.19 13.4245C8.24092 13.353 8.29833 13.2858 8.34708 13.2112C9.49847 11.7035 10.9327 10.4272 12.5721 9.45117C14.0685 8.55663 15.6742 7.85269 17.3507 7.35623ZM12.0001 3.34983C13.2684 3.91495 14.3946 4.7482 15.2988 5.79037C14.1592 6.20731 13.056 6.71495 12.0001 7.30823C11.9643 7.28797 11.9253 7.2709 11.8918 7.2517C11.4209 6.9893 10.9514 6.75001 10.4834 6.53383L10.3112 6.4549C9.7695 6.21063 9.24083 5.99197 8.72192 5.79997L8.70458 5.7925C9.61102 4.75349 10.7353 3.92016 12.0001 3.34983ZM3.33342 6.60317C4.49251 6.78489 5.63664 7.04941 6.75675 7.39463C7.14025 7.51303 7.51508 7.63783 7.88558 7.77223L7.95058 7.79463C8.33697 7.93685 8.71469 8.08868 9.08375 8.2501C9.19208 8.29703 9.30042 8.3493 9.40875 8.3973C9.58642 8.47837 9.76083 8.5637 9.93525 8.64903C7.4786 10.4401 5.59805 12.8902 4.51858 15.7061C4.49908 15.7573 4.47633 15.8053 4.45683 15.8576C4.44817 15.88 4.43733 15.9024 4.42867 15.9258C3.71071 14.6656 3.33357 13.2449 3.33342 11.8V6.60317Z" fill="#5F73F1" stroke="white" stroke-width="0.7"/>
</svg>
