<svg width="20" height="26" viewBox="0 0 20 26" fill="none" xmlns="http://www.w3.org/2000/svg">
<path d="M4.78571 8.22462C4.57866 8.07636 4.30888 8.05048 4.07792 8.1571C2.69608 8.79232 1.4428 10.5874 0.806462 12.8405C-0.0495912 15.8714 0.376325 18.9797 1.97393 21.3698C3.69701 23.9472 6.85031 25.5488 10.2031 25.5488C12.8871 25.5488 15.3872 24.511 17.0619 22.701C20.2931 19.211 19.2987 14.1301 16.647 10.9154C16.1414 10.3016 15.6426 9.74852 15.1602 9.21261C12.8579 6.65795 11.3371 4.97004 12.9558 1.11738C13.0624 0.864193 13.0123 0.572747 12.8283 0.369073C12.6449 0.165679 12.3591 0.0871912 12.0969 0.167367C8.09065 1.39617 6.5071 3.93197 7.25766 7.92079C7.30492 8.17257 7.37356 8.44433 7.44671 8.7324C7.89682 10.5112 7.94183 11.3672 7.01967 11.74C6.93021 11.7763 6.84497 11.7937 6.75973 11.7937C6.44212 11.7937 6.14814 11.5416 5.95797 11.3304C5.39533 10.7056 4.9998 9.60336 5.07604 8.87277C5.10276 8.62043 4.99164 8.37259 4.78571 8.22462ZM7.54995 13.0506C9.7704 12.1527 9.17344 9.79466 8.81701 8.38581C8.74949 8.11997 8.6862 7.86875 8.64681 7.65945C8.12328 4.8758 8.8744 3.1319 11.1413 2.04461C10.146 5.75998 11.9999 7.81755 14.1097 10.159C14.5824 10.6831 15.0707 11.2249 15.5566 11.8148C17.7627 14.489 18.6764 18.877 16.0247 21.7409C14.6164 23.2628 12.4944 24.1354 10.2034 24.1354C7.31646 24.1354 4.61383 22.775 3.14957 20.5844C1.78208 18.5392 1.42367 15.8568 2.1672 13.2251C2.52532 11.9563 3.12593 10.8308 3.79294 10.1142C3.99071 10.905 4.38849 11.7006 4.90781 12.2767C5.67693 13.1308 6.65226 13.4149 7.54995 13.0506Z" fill="#5F73F1"/>
<path d="M10.9847 22.0407C12.4479 22.0407 14.2269 21.5214 14.832 20.0656C15.9931 17.2772 13.686 14.7397 12.3072 13.2234C12.1595 13.0608 12.0208 12.9091 11.8985 12.7688C11.7072 12.5507 11.4016 12.4703 11.1288 12.5693C10.855 12.6672 10.6694 12.9221 10.6607 13.2124C10.6162 14.6063 9.81332 15.4438 8.96345 16.3305C8.04973 17.2834 7.01391 18.3636 7.38807 20.0729C7.6857 21.432 9.40878 22.0407 10.9847 22.0407ZM9.98352 17.3081C10.6258 16.6383 11.3803 15.8515 11.7845 14.7566C12.9399 16.0731 14.2323 17.828 13.5262 19.5224C13.2091 20.2856 12.0211 20.6268 10.9844 20.6268C9.73174 20.6268 8.85852 20.1823 8.7685 19.7702C8.56595 18.8427 9.07204 18.2593 9.98352 17.3081Z" fill="#5F73F1"/>
</svg>
