<svg width="32" height="20" viewBox="0 0 32 20" fill="none" xmlns="http://www.w3.org/2000/svg">
<path d="M31 7.00002C31 6.73481 30.8946 6.48045 30.7071 6.29292C30.5196 6.10538 30.2652 6.00002 30 6.00002C29.835 6.00391 29.6735 6.04857 29.53 6.13002C28.8892 4.59291 27.8028 3.28284 26.4109 2.36855C25.019 1.45426 23.3852 0.977621 21.72 1.00002C19.6106 0.991215 17.5728 1.76431 16 3.17002C14.4272 1.76431 12.3894 0.991215 10.28 1.00002C8.6148 0.977621 6.98103 1.45426 5.5891 2.36855C4.19717 3.28284 3.11083 4.59291 2.47 6.13002C2.32646 6.04857 2.16499 6.00391 2 6.00002C1.73478 6.00002 1.48043 6.10538 1.29289 6.29292C1.10536 6.48045 1 6.73481 1 7.00002C1 7.53002 1.4 8.00002 2.06 8.33002L2.73 10C3.79 12.653 5.62089 14.9274 7.98631 16.5295C10.3517 18.1317 13.1431 18.988 16 18.988C18.8569 18.988 21.6483 18.1317 24.0137 16.5295C26.3791 14.9274 28.21 12.653 29.27 10L29.93 8.36002C30.6 8.00002 31 7.53002 31 7.00002ZM10.28 3.00002C11.227 2.98815 12.1652 3.18337 13.0289 3.57202C13.8925 3.96067 14.6608 4.53337 15.28 5.25002C15.3739 5.3598 15.4904 5.44794 15.6216 5.50837C15.7528 5.56881 15.8956 5.6001 16.04 5.6001C16.1844 5.6001 16.3272 5.56881 16.4584 5.50837C16.5896 5.44794 16.7061 5.3598 16.8 5.25002C17.4192 4.53337 18.1875 3.96067 19.0511 3.57202C19.9148 3.18337 20.853 2.98815 21.8 3.00002C23.096 2.97857 24.3672 3.35675 25.4407 4.08316C26.5142 4.80958 27.338 5.84897 27.8 7.06002C23.91 7.78204 19.9553 8.09707 16 8.00002C12.0614 8.0936 8.12366 7.77858 4.25 7.06002C4.71375 5.84408 5.54211 4.80126 6.6216 4.07444C7.7011 3.34761 8.97892 2.97234 10.28 3.00002ZM16 17C13.5409 17.0104 11.136 16.278 9.10011 14.8988C7.06423 13.5195 5.49225 11.5576 4.59 9.27002V9.15002C8.35905 9.78404 12.1786 10.0686 16 10C19.8381 10.0713 23.6745 9.78678 27.46 9.15002L27.41 9.27002C26.5077 11.5576 24.9358 13.5195 22.8999 14.8988C20.864 16.278 18.4591 17.0104 16 17Z" fill="#5F73F1" stroke="white" stroke-width="0.3"/>
</svg>
