<svg width="24" height="22" viewBox="0 0 24 22" fill="none" xmlns="http://www.w3.org/2000/svg">
<path d="M21.6411 0.352783H2.35943C2.06836 0.352718 1.78012 0.409106 1.51118 0.51873C1.24224 0.628353 0.997858 0.789063 0.792001 0.991684C0.586143 1.1943 0.422838 1.43487 0.311409 1.69963C0.19998 1.9644 0.142612 2.24818 0.142578 2.53478V15.1673C0.142511 15.4539 0.199807 15.7378 0.31119 16.0027C0.422574 16.2675 0.585864 16.5082 0.791731 16.7109C0.997599 16.9136 1.24201 17.0743 1.511 17.184C1.77999 17.2937 2.06829 17.3501 2.35943 17.35H11.2492V20.1863H8.91834C8.5291 20.1863 8.19522 20.477 8.16703 20.8593C8.15945 20.9591 8.17286 21.0593 8.20643 21.1538C8.23999 21.2482 8.29298 21.3349 8.36209 21.4082C8.4312 21.4816 8.51494 21.5401 8.60807 21.5802C8.7012 21.6203 8.80173 21.641 8.90336 21.641H15.0575C15.4468 21.641 15.7807 21.3503 15.8088 20.968C15.8164 20.8682 15.803 20.768 15.7695 20.6735C15.7359 20.5791 15.6829 20.4925 15.6138 20.4191C15.5447 20.3457 15.4609 20.2872 15.3678 20.2471C15.2747 20.2071 15.1742 20.1863 15.0725 20.1863H12.7267V17.35H21.6411C21.9322 17.35 22.2204 17.2936 22.4894 17.1839C22.7583 17.0742 23.0026 16.9134 23.2084 16.7107C23.4143 16.508 23.5775 16.2674 23.6889 16.0025C23.8002 15.7377 23.8575 15.4539 23.8574 15.1673V2.53478C23.8574 1.95606 23.6238 1.40106 23.2082 0.991861C22.7925 0.582664 22.2288 0.352783 21.6411 0.352783ZM2.35943 1.78328H21.6657C21.8617 1.78328 22.0496 1.85993 22.1882 1.99636C22.3267 2.1328 22.4046 2.31784 22.4046 2.51078V10.6333H1.62082V2.51053C1.62089 2.31767 1.69873 2.13273 1.83723 1.99636C1.97573 1.85999 2.16356 1.78335 2.35943 1.78328ZM21.6657 15.8945H2.35943C2.16347 15.8945 1.97554 15.8179 1.83698 15.6815C1.69841 15.545 1.62057 15.36 1.62057 15.167V12.1123H22.4043V15.1673C22.4042 15.3601 22.3264 15.5451 22.1879 15.6815C22.0494 15.8178 21.8616 15.8945 21.6657 15.8945Z" fill="#5F73F1"/>
</svg>
