<svg width="25" height="32" viewBox="0 0 25 32" fill="none" xmlns="http://www.w3.org/2000/svg">
<path d="M4.16659 25.2631C3.50732 25.2631 2.86285 25.0656 2.31469 24.6955C1.76652 24.3253 1.33928 23.7993 1.08699 23.1838C0.834696 22.5683 0.768685 21.891 0.897303 21.2376C1.02592 20.5842 1.34339 19.984 1.80956 19.5129C2.27574 19.0418 2.86968 18.721 3.51628 18.591C4.16289 18.4611 4.83311 18.5278 5.4422 18.7827C6.05128 19.0377 6.57188 19.4694 6.93815 20.0233C7.30442 20.5773 7.49992 21.2285 7.49992 21.8947C7.49992 22.7881 7.14873 23.6449 6.52361 24.2766C5.89849 24.9083 5.05064 25.2631 4.16659 25.2631ZM4.16659 19.2748C3.65382 19.2748 3.15257 19.4285 2.72622 19.7164C2.29987 20.0043 1.96757 20.4134 1.77134 20.8921C1.57512 21.3709 1.52377 21.8976 1.62381 22.4058C1.72385 22.914 1.97077 23.3809 2.33335 23.7473C2.69593 24.1137 3.15788 24.3632 3.6608 24.4643C4.16371 24.5654 4.68499 24.5135 5.15873 24.3152C5.63246 24.1169 6.03737 23.7811 6.32225 23.3503C6.60713 22.9194 6.75918 22.4129 6.75918 21.8947C6.75918 21.1999 6.48603 20.5335 5.99983 20.0422C5.51362 19.5509 4.85418 19.2748 4.16659 19.2748Z" fill="#5F73F1" stroke="#5F73F1" stroke-width="0.8"/>
<path d="M12.5001 25.2631C11.8408 25.2631 11.1963 25.0656 10.6482 24.6955C10.1 24.3253 9.67278 23.7993 9.42048 23.1838C9.16819 22.5683 9.10218 21.891 9.2308 21.2376C9.35942 20.5842 9.67689 19.984 10.1431 19.5129C10.6092 19.0418 11.2032 18.721 11.8498 18.591C12.4964 18.4611 13.1666 18.5278 13.7757 18.7827C14.3848 19.0377 14.9054 19.4694 15.2716 20.0233C15.6379 20.5773 15.8334 21.2285 15.8334 21.8947C15.8334 22.7881 15.4822 23.6449 14.8571 24.2766C14.232 24.9083 13.3841 25.2631 12.5001 25.2631ZM12.5001 19.2748C11.9873 19.2748 11.4861 19.4285 11.0597 19.7164C10.6334 20.0043 10.3011 20.4134 10.1048 20.8921C9.90861 21.3709 9.85727 21.8976 9.95731 22.4058C10.0573 22.914 10.3043 23.3809 10.6668 23.7473C11.0294 24.1137 11.4914 24.3632 11.9943 24.4643C12.4972 24.5654 13.0185 24.5135 13.4922 24.3152C13.966 24.1169 14.3709 23.7811 14.6557 23.3503C14.9406 22.9194 15.0927 22.4129 15.0927 21.8947C15.0927 21.1999 14.8195 20.5335 14.3333 20.0422C13.8471 19.5509 13.1877 19.2748 12.5001 19.2748Z" fill="#5F73F1" stroke="#5F73F1" stroke-width="0.8"/>
<path d="M20.8333 25.2631C20.1741 25.2631 19.5296 25.0656 18.9814 24.6955C18.4333 24.3253 18.006 23.7993 17.7537 23.1838C17.5014 22.5683 17.4354 21.891 17.5641 21.2376C17.6927 20.5842 18.0101 19.984 18.4763 19.5129C18.9425 19.0418 19.5364 18.721 20.183 18.591C20.8296 18.4611 21.4999 18.5278 22.1089 18.7827C22.718 19.0377 23.2386 19.4694 23.6049 20.0233C23.9712 20.5773 24.1667 21.2285 24.1667 21.8947C24.1667 22.7881 23.8155 23.6449 23.1904 24.2766C22.5652 24.9083 21.7174 25.2631 20.8333 25.2631ZM20.8333 19.2748C20.3206 19.2748 19.8193 19.4285 19.393 19.7164C18.9666 20.0043 18.6343 20.4134 18.4381 20.8921C18.2419 21.3709 18.1905 21.8976 18.2906 22.4058C18.3906 22.914 18.6375 23.3809 19.0001 23.7473C19.3627 24.1137 19.8246 24.3632 20.3275 24.4643C20.8305 24.5654 21.3517 24.5135 21.8255 24.3152C22.2992 24.1169 22.7041 23.7811 22.989 23.3503C23.2739 22.9194 23.4259 22.4129 23.4259 21.8947C23.4259 21.1999 23.1528 20.5335 22.6666 20.0422C22.1804 19.5509 21.5209 19.2748 20.8333 19.2748Z" fill="#5F73F1" stroke="#5F73F1" stroke-width="0.8"/>
<path d="M23.7997 22.7368C23.7024 22.7368 23.609 22.6972 23.5402 22.6266C23.4714 22.556 23.4327 22.4602 23.4327 22.3603V18.8155C23.4327 16.2571 20.5681 13.1678 17.0099 13.1678H16.4594C15.6527 13.1722 14.8537 13.0063 14.1122 12.6805C13.3706 12.3547 12.7023 11.8759 12.1488 11.2739C11.5444 10.6065 11.0782 9.82033 10.7782 8.96289C10.4783 8.10545 10.3508 7.19454 10.4036 6.28517L10.5871 2.98129C10.5825 2.85184 10.5285 2.72945 10.4366 2.64054C10.3343 2.52171 10.1907 2.44872 10.0366 2.43723H2.03377C1.93643 2.43723 1.84307 2.39756 1.77424 2.32695C1.70542 2.25634 1.66675 2.16057 1.66675 2.06072C1.66675 1.96086 1.70542 1.86509 1.77424 1.79448C1.84307 1.72387 1.93643 1.6842 2.03377 1.6842H10.0366C10.2127 1.68971 10.3861 1.73117 10.5464 1.80616C10.7068 1.88114 10.851 1.98816 10.9706 2.12096C11.0853 2.23924 11.1755 2.38011 11.2357 2.53508C11.296 2.69005 11.325 2.85591 11.3211 3.0227L11.1376 6.32659C11.09 7.13359 11.2022 7.94213 11.4674 8.70344C11.7326 9.46475 12.1455 10.1631 12.6809 10.7562C13.1663 11.2837 13.7521 11.703 14.4021 11.9884C15.0521 12.2737 15.7524 12.4188 16.4594 12.4148H17.0099C20.9131 12.4148 23.9667 15.6396 24.1576 18.5312C24.1637 18.559 24.1668 18.5874 24.1667 18.6159V22.3584C24.167 22.408 24.1577 22.4572 24.1393 22.5031C24.121 22.549 24.094 22.5907 24.0599 22.6259C24.0258 22.6611 23.9853 22.689 23.9406 22.708C23.896 22.727 23.8481 22.7368 23.7997 22.7368Z" fill="#5F73F1" stroke="#5F73F1" stroke-width="0.8"/>
<path d="M1.20301 22.7368C1.10494 22.7368 1.01089 22.6972 0.941551 22.6267C0.872208 22.5563 0.833252 22.4607 0.833252 22.361V18.2264C0.854093 12.8102 1.16267 7.39916 1.75764 2.01684C1.76359 1.96748 1.77904 1.9198 1.80312 1.87651C1.8272 1.83322 1.85943 1.79517 1.89797 1.76455C1.93651 1.73392 1.98061 1.71131 2.02775 1.69801C2.07488 1.6847 2.12414 1.68097 2.17269 1.68701C2.22125 1.69306 2.26816 1.70877 2.31075 1.73325C2.35333 1.75772 2.39076 1.79048 2.42088 1.82966C2.45101 1.86884 2.47326 1.91367 2.48634 1.96159C2.49943 2.0095 2.5031 2.05957 2.49715 2.10893C1.90393 7.46058 1.59535 12.8409 1.57276 18.2264V22.361C1.57276 22.4607 1.53381 22.5563 1.46447 22.6267C1.39512 22.6972 1.30107 22.7368 1.20301 22.7368Z" fill="#5F73F1" stroke="#5F73F1" stroke-width="0.8"/>
<path d="M9.62971 22.7369H7.03712C6.93889 22.7369 6.84468 22.6925 6.77523 22.6135C6.70577 22.5346 6.66675 22.4275 6.66675 22.3158C6.66675 22.2041 6.70577 22.097 6.77523 22.0181C6.84468 21.9391 6.93889 21.8947 7.03712 21.8947H9.62971C9.72794 21.8947 9.82214 21.9391 9.8916 22.0181C9.96106 22.097 10.0001 22.2041 10.0001 22.3158C10.0001 22.4275 9.96106 22.5346 9.8916 22.6135C9.82214 22.6925 9.72794 22.7369 9.62971 22.7369Z" fill="#5F73F1" stroke="#5F73F1" stroke-width="0.8"/>
<path d="M17.963 22.7369H15.3704C15.2721 22.7369 15.1779 22.6925 15.1085 22.6135C15.039 22.5346 15 22.4275 15 22.3158C15 22.2041 15.039 22.097 15.1085 22.0181C15.1779 21.9391 15.2721 21.8947 15.3704 21.8947H17.963C18.0612 21.8947 18.1554 21.9391 18.2249 22.0181C18.2943 22.097 18.3333 22.2041 18.3333 22.3158C18.3333 22.4275 18.2943 22.5346 18.2249 22.6135C18.1554 22.6925 18.0612 22.7369 17.963 22.7369Z" fill="#5F73F1" stroke="#5F73F1" stroke-width="0.8"/>
<path d="M16.2499 15.1579C16.1394 15.1579 16.0334 15.1266 15.9553 15.0709C15.8772 15.0151 15.8333 14.9395 15.8333 14.8607V12.9288C15.8333 12.85 15.8772 12.7744 15.9553 12.7186C16.0334 12.6629 16.1394 12.6316 16.2499 12.6316C16.3604 12.6316 16.4664 12.6629 16.5445 12.7186C16.6227 12.7744 16.6666 12.85 16.6666 12.9288V14.8607C16.6666 14.9395 16.6227 15.0151 16.5445 15.0709C16.4664 15.1266 16.3604 15.1579 16.2499 15.1579Z" fill="#5F73F1" stroke="#5F73F1" stroke-width="0.8"/>
<path d="M11.3158 9.26317H7.2807C5.85263 9.26317 5 8.47613 5 7.15791C5 5.83969 5.85263 5.05264 7.2807 5.05264H10.7895C10.8825 5.05264 10.9718 5.08677 11.0376 5.14751C11.1034 5.20825 11.1404 5.29063 11.1404 5.37653C11.1404 5.46243 11.1034 5.54481 11.0376 5.60555C10.9718 5.66629 10.8825 5.70042 10.7895 5.70042H7.2807C6.24737 5.70042 5.70175 6.20406 5.70175 7.15791C5.70175 8.11175 6.24737 8.6154 7.2807 8.6154H11.3158C11.4088 8.6154 11.4981 8.64952 11.5639 8.71026C11.6297 8.771 11.6667 8.85338 11.6667 8.93928C11.6667 9.02518 11.6297 9.10756 11.5639 9.16831C11.4981 9.22905 11.4088 9.26317 11.3158 9.26317Z" fill="#5F73F1" stroke="#5F73F1" stroke-width="0.8"/>
<path d="M13.7499 15.1579C13.6394 15.1579 13.5334 15.1241 13.4553 15.0639C13.3772 15.0038 13.3333 14.9222 13.3333 14.8371V12.1103C13.3333 12.0252 13.3772 11.9436 13.4553 11.8834C13.5334 11.8233 13.6394 11.7895 13.7499 11.7895C13.8604 11.7895 13.9664 11.8233 14.0445 11.8834C14.1227 11.9436 14.1666 12.0252 14.1666 12.1103V14.8371C14.1666 14.9222 14.1227 15.0038 14.0445 15.0639C13.9664 15.1241 13.8604 15.1579 13.7499 15.1579Z" fill="#5F73F1" stroke="#5F73F1" stroke-width="0.8"/>
</svg>
