<svg width="23" height="25" viewBox="0 0 23 25" fill="none" xmlns="http://www.w3.org/2000/svg">
<path d="M22.4375 3.73337V11.4C22.4376 11.5843 22.3709 11.7625 22.2497 11.9019C22.1284 12.0413 21.9608 12.1326 21.7774 12.159L11.6621 13.6211L14.6418 23.3126C14.7032 23.4294 14.7332 23.56 14.729 23.6917C14.7247 23.8235 14.6864 23.9519 14.6177 24.0646C14.5489 24.1772 14.4522 24.2704 14.3367 24.335C14.2212 24.3996 14.0909 24.4335 13.9583 24.4334H8.56251C8.42277 24.4333 8.28567 24.3956 8.16582 24.3241C8.04597 24.2526 7.94788 24.1501 7.88202 24.0276L4.71605 13.9162C3.11165 13.3949 1.76322 12.2923 0.938842 10.8274C0.114463 9.3626 -0.125484 7.64285 0.266703 6.0101C0.658891 4.37734 1.65449 2.95117 3.05556 2.01512C4.45664 1.07907 6.16057 0.701703 7.8286 0.958035L21.7774 2.97437C21.9608 3.00083 22.1284 3.09212 22.2497 3.23151C22.3709 3.3709 22.4376 3.54906 22.4375 3.73337ZM10.1431 13.8406L7.82182 14.1762C7.48429 14.2279 7.14328 14.2538 6.80177 14.2537C6.67674 14.2537 6.55256 14.2441 6.42815 14.2372L9.22319 22.9H12.8984L10.1431 13.8406ZM17.8125 3.95103L7.60051 2.47481C6.86208 2.36081 6.10759 2.40704 5.38881 2.61032C4.67004 2.81361 4.00398 3.16913 3.43634 3.65251C2.8687 4.13589 2.41291 4.73568 2.10024 5.41073C1.78758 6.08578 1.62543 6.82011 1.62494 7.56334C1.62444 8.30657 1.78561 9.04112 2.09737 9.71658C2.40914 10.392 2.86413 10.9924 3.43113 11.4766C3.99812 11.9607 4.66371 12.3171 5.38221 12.5213C6.10072 12.7255 6.85515 12.7728 7.59373 12.6597L10.6043 12.2245L10.6176 12.2226L17.8125 11.1825V3.95103ZM20.8958 4.39669L19.3542 4.17382V10.9596L20.8958 10.7367V4.39669Z" fill="#5F73F1"/>
</svg>
