<svg width="22" height="27" viewBox="0 0 22 27" fill="none" xmlns="http://www.w3.org/2000/svg">
<path d="M21.1343 9.48468H19.2532C19.1013 7.25585 18.3137 5.17946 16.9964 3.56984C15.4841 1.7222 13.4588 0.70459 11.2937 0.70459C9.12857 0.70459 7.10336 1.7222 5.59113 3.56984C4.2737 5.17946 3.48617 7.25585 3.33434 9.48468H1.45312C1.01088 9.48468 0.652344 9.84104 0.652344 10.2806C0.652344 13.4128 1.67504 16.3874 3.53203 18.6565C4.49172 19.8289 5.62572 20.7579 6.90269 21.4178C8.0431 22.007 9.24762 22.3563 10.493 22.4609V25.1128H7.64367C7.20143 25.1128 6.8429 25.4691 6.8429 25.9087C6.8429 26.3482 7.20143 26.7046 7.64367 26.7046H14.9438C15.3861 26.7046 15.7446 26.3482 15.7446 25.9087C15.7446 25.4691 15.3861 25.1128 14.9438 25.1128H12.0945V22.4608C13.3398 22.3561 14.5443 22.007 15.6848 21.4178C16.9618 20.7578 18.0958 19.8288 19.0554 18.6564C20.9124 16.3874 21.935 13.4129 21.935 10.2805C21.935 9.84104 21.5766 9.48468 21.1343 9.48468ZM11.2937 2.29643C14.8146 2.29643 17.6792 5.87811 17.6792 10.2806C17.6792 14.6831 14.8146 18.2649 11.2937 18.2649C7.77275 18.2649 4.90829 14.6831 4.90829 10.2806C4.90829 5.87811 7.77275 2.29643 11.2937 2.29643ZM17.813 17.6519C16.9924 18.6545 16.0278 19.4463 14.9461 20.0054C13.7932 20.6011 12.5644 20.9031 11.2937 20.9031C10.023 20.9031 8.79422 20.6011 7.64148 20.0054C6.5598 19.4464 5.59519 18.6545 4.7744 17.6519C3.30573 15.8574 2.43331 13.547 2.27866 11.0765H3.33429C3.48617 13.3054 4.2737 15.3817 5.59102 16.9915C7.10336 18.8391 9.12857 19.8568 11.2936 19.8568C13.4587 19.8568 15.484 18.8391 16.9963 16.9915C18.3137 15.3817 19.1012 13.3054 19.253 11.0765H20.3085C20.1541 13.5469 19.2817 15.8574 17.813 17.6519Z" fill="#5F73F1" stroke="white" stroke-width="0.1"/>
</svg>
