<svg width="23" height="24" viewBox="0 0 23 24" fill="none" xmlns="http://www.w3.org/2000/svg">
<path fill-rule="evenodd" clip-rule="evenodd" d="M7.95409 9.86002V3.7217C7.95409 2.8517 7.427 2.17503 6.80409 2.17503H6.13325C5.51034 2.17503 4.98325 2.90003 4.98325 3.7217V9.86002H7.95409ZM3.1145 10.2002V3.7217C3.1145 1.78837 4.45617 0.241699 6.13325 0.241699H6.80409C8.48117 0.241699 9.82284 1.78837 9.82284 3.7217V10.1893C10.8525 10.721 11.6024 11.8468 11.7395 13.195L12.6978 21.75C12.6978 21.7984 12.7098 21.8346 12.7218 21.8709C12.7338 21.9071 12.7458 21.9434 12.7458 21.9917C12.7458 22.5234 12.3145 22.9584 11.8353 22.9584H1.19784C0.910335 22.9584 0.670752 22.8617 0.479085 22.62C0.287419 22.4267 0.239502 22.1367 0.239502 21.895L1.19784 13.195C1.33399 11.8559 2.09885 10.7364 3.1145 10.2002ZM4.49894 11.7934C3.78259 11.7968 3.21011 12.5205 3.1145 13.4367L2.20409 21.0734H10.7333L9.87075 13.4367C9.77515 12.5205 9.15497 11.7968 8.48598 11.7934H4.49894ZM15.1898 6.83912L15.1895 6.81494V1.44994C15.1895 0.918276 15.6207 0.483276 16.1478 0.483276H16.7228C19.2624 0.483276 21.2749 2.56161 21.2749 5.07494V6.81494L21.2746 6.84015L21.2749 6.8633V11.2616H21.8499C22.377 11.2616 22.8083 11.6966 22.8083 12.2282V20.1066C22.7604 21.5566 21.6104 22.6683 20.2208 22.6683H16.2437C14.8541 22.6683 13.7041 21.5082 13.7041 20.1066V12.2282C13.7041 11.6966 14.1354 11.2616 14.6624 11.2616H15.1895V6.8633L15.1898 6.83912ZM19.3582 5.89661H17.0582V2.41661C18.352 2.60994 19.3582 3.76994 19.3582 5.12328V5.89661ZM20.3165 13.195H16.1478L16.1381 13.1949H15.5729V20.1549C15.5729 20.5416 15.8604 20.8316 16.2437 20.8316H20.2208C20.6041 20.8316 20.8916 20.5416 20.8916 20.1549V13.1949H20.3263L20.3165 13.195ZM17.0582 11.2616H19.3582V7.82997H17.0582V11.2616Z" fill="#5F73F1"/>
<path d="M7.95409 9.86002V10.11H8.20409V9.86002H7.95409ZM4.98325 9.86002H4.73325V10.11H4.98325V9.86002ZM3.1145 10.2002L3.23121 10.4213L3.3645 10.351V10.2002H3.1145ZM9.82284 10.1893H9.57284V10.3415L9.70812 10.4114L9.82284 10.1893ZM11.7395 13.195L11.4908 13.2203L11.4911 13.2228L11.7395 13.195ZM12.6978 21.75H12.9478V21.7361L12.9463 21.7222L12.6978 21.75ZM12.7218 21.8709L12.4844 21.9493L12.4844 21.9493L12.7218 21.8709ZM0.479085 22.62L0.67496 22.4647L0.666365 22.4538L0.656626 22.444L0.479085 22.62ZM0.239502 21.895L-0.008995 21.8676L-0.010498 21.8813V21.895H0.239502ZM1.19784 13.195L1.44634 13.2224L1.44655 13.2203L1.19784 13.195ZM3.1145 13.4367L3.36277 13.4663L3.36315 13.4626L3.1145 13.4367ZM4.49894 11.7934V11.5434L4.49773 11.5434L4.49894 11.7934ZM2.20409 21.0734L1.95584 21.0438L1.92251 21.3234H2.20409V21.0734ZM10.7333 21.0734V21.3234H11.0131L10.9817 21.0453L10.7333 21.0734ZM9.87075 13.4367L9.62209 13.4626L9.62233 13.4647L9.87075 13.4367ZM8.48598 11.7934L8.48726 11.5434H8.48598V11.7934ZM15.1895 6.81494H14.9394L14.9395 6.81802L15.1895 6.81494ZM15.1898 6.83912L15.4398 6.8422L15.4397 6.83605L15.1898 6.83912ZM21.2749 6.81494L21.5249 6.81765V6.81494H21.2749ZM21.2746 6.84015L21.0246 6.83744L21.0246 6.84309L21.2746 6.84015ZM21.2749 6.8633H21.5249L21.5249 6.86036L21.2749 6.8633ZM21.2749 11.2616H21.0249V11.5116H21.2749V11.2616ZM22.8083 20.1066L23.0583 20.1148V20.1066H22.8083ZM15.1895 11.2616V11.5116H15.4395V11.2616H15.1895ZM15.1895 6.8633L14.9395 6.86022V6.8633H15.1895ZM17.0582 5.89661H16.8082V6.14661H17.0582V5.89661ZM19.3582 5.89661V6.14661H19.6082V5.89661H19.3582ZM17.0582 2.41661L17.0952 2.16936L16.8082 2.12647V2.41661H17.0582ZM16.1478 13.195L16.1465 13.445H16.1478V13.195ZM20.3165 13.195V13.445L20.3178 13.445L20.3165 13.195ZM16.1381 13.1949L16.1393 12.9449H16.1381V13.1949ZM15.5729 13.1949V12.9449H15.3229V13.1949H15.5729ZM20.8916 13.1949H21.1416V12.9449H20.8916V13.1949ZM20.3263 13.1949V12.9449L20.325 12.9449L20.3263 13.1949ZM19.3582 11.2616V11.5116H19.6082V11.2616H19.3582ZM17.0582 11.2616H16.8082V11.5116H17.0582V11.2616ZM19.3582 7.82997H19.6082V7.57997H19.3582V7.82997ZM17.0582 7.82997V7.57997H16.8082V7.82997H17.0582ZM8.20409 9.86002V3.7217H7.70409V9.86002H8.20409ZM8.20409 3.7217C8.20409 3.23773 8.0577 2.79694 7.81227 2.47157C7.56714 2.1466 7.21164 1.92503 6.80409 1.92503V2.42503C7.01945 2.42503 7.23895 2.5418 7.41309 2.77267C7.58693 3.00312 7.70409 3.33567 7.70409 3.7217H8.20409ZM6.80409 1.92503H6.13325V2.42503H6.80409V1.92503ZM6.13325 1.92503C5.7196 1.92503 5.36485 2.16488 5.12353 2.49176C4.88087 2.82044 4.73325 3.25961 4.73325 3.7217H5.23325C5.23325 3.36212 5.34917 3.02796 5.52579 2.78873C5.70373 2.54769 5.92399 2.42503 6.13325 2.42503V1.92503ZM4.73325 3.7217V9.86002H5.23325V3.7217H4.73325ZM7.95409 9.61002H4.98325V10.11H7.95409V9.61002ZM3.3645 10.2002V3.7217H2.8645V10.2002H3.3645ZM3.3645 3.7217C3.3645 1.89188 4.62643 0.491699 6.13325 0.491699V-0.00830078C4.28591 -0.00830078 2.8645 1.68485 2.8645 3.7217H3.3645ZM6.13325 0.491699H6.80409V-0.00830078H6.13325V0.491699ZM6.80409 0.491699C8.31091 0.491699 9.57284 1.89188 9.57284 3.7217H10.0728C10.0728 1.68485 8.65143 -0.00830078 6.80409 -0.00830078V0.491699ZM9.57284 3.7217V10.1893H10.0728V3.7217H9.57284ZM11.9882 13.1697C11.8435 11.7469 11.0503 10.5419 9.93755 9.96715L9.70812 10.4114C10.6546 10.9002 11.3613 11.9466 11.4908 13.2203L11.9882 13.1697ZM12.9463 21.7222L11.9879 13.1672L11.4911 13.2228L12.4494 21.7778L12.9463 21.7222ZM12.9592 21.7924C12.9527 21.7729 12.9505 21.7656 12.949 21.7592C12.948 21.7549 12.9478 21.7526 12.9478 21.75H12.4478C12.4478 21.8426 12.4724 21.9129 12.4844 21.9493L12.9592 21.7924ZM12.9958 21.9917C12.9958 21.8991 12.9712 21.8288 12.9592 21.7924L12.4844 21.9493C12.4909 21.9688 12.4931 21.9761 12.4946 21.9825C12.4955 21.9868 12.4958 21.9891 12.4958 21.9917H12.9958ZM11.8353 23.2084C12.4628 23.2084 12.9958 22.651 12.9958 21.9917H12.4958C12.4958 22.3957 12.1662 22.7084 11.8353 22.7084V23.2084ZM1.19784 23.2084H11.8353V22.7084H1.19784V23.2084ZM0.283211 22.7754C0.527691 23.0836 0.843138 23.2084 1.19784 23.2084V22.7084C0.977533 22.7084 0.813813 22.6397 0.67496 22.4647L0.283211 22.7754ZM-0.010498 21.895C-0.010498 22.1557 0.0385006 22.5307 0.301544 22.796L0.656626 22.444C0.536337 22.3227 0.489502 22.1177 0.489502 21.895H-0.010498ZM0.949338 13.1676L-0.008995 21.8676L0.487999 21.9224L1.44633 13.2224L0.949338 13.1676ZM2.99779 9.97915C1.903 10.5571 1.09313 11.7534 0.949118 13.1697L1.44655 13.2203C1.57485 11.9585 2.2947 10.9157 3.23121 10.4213L2.99779 9.97915ZM3.36315 13.4626C3.45273 12.6043 3.9705 12.0459 4.50014 12.0434L4.49773 11.5434C3.59469 11.5477 2.96748 12.4368 2.86585 13.4107L3.36315 13.4626ZM2.45233 21.1029L3.36274 13.4663L2.86626 13.4071L1.95584 21.0438L2.45233 21.1029ZM10.7333 20.8234H2.20409V21.3234H10.7333V20.8234ZM9.62233 13.4647L10.4848 21.1014L10.9817 21.0453L10.1192 13.4086L9.62233 13.4647ZM8.48469 12.0434C8.72661 12.0446 8.98493 12.1773 9.20262 12.4344C9.4189 12.6897 9.57921 13.0517 9.6221 13.4626L10.1194 13.4107C10.0667 12.9056 9.86911 12.4476 9.58415 12.1112C9.3006 11.7764 8.91434 11.5456 8.48726 11.5434L8.48469 12.0434ZM8.48598 11.5434H4.49894V12.0434H8.48598V11.5434ZM14.9395 6.81802L14.9398 6.8422L15.4397 6.83605L15.4394 6.81187L14.9395 6.81802ZM14.9395 1.44994V6.81494H15.4395V1.44994H14.9395ZM16.1478 0.233276C15.4806 0.233276 14.9395 0.78225 14.9395 1.44994H15.4395C15.4395 1.0543 15.7608 0.733276 16.1478 0.733276V0.233276ZM16.7228 0.233276H16.1478V0.733276H16.7228V0.233276ZM21.5249 5.07494C21.5249 2.42731 19.4042 0.233276 16.7228 0.233276V0.733276C19.1206 0.733276 21.0249 2.69591 21.0249 5.07494H21.5249ZM21.5249 6.81494V5.07494H21.0249V6.81494H21.5249ZM21.5246 6.84285L21.5249 6.81765L21.0249 6.81224L21.0246 6.83744L21.5246 6.84285ZM21.5249 6.86036L21.5246 6.8372L21.0246 6.84309L21.0249 6.86625L21.5249 6.86036ZM21.5249 11.2616V6.8633H21.0249V11.2616H21.5249ZM21.8499 11.0116H21.2749V11.5116H21.8499V11.0116ZM23.0583 12.2282C23.0583 11.5606 22.5171 11.0116 21.8499 11.0116V11.5116C22.2369 11.5116 22.5583 11.8326 22.5583 12.2282H23.0583ZM23.0583 20.1066V12.2282H22.5583V20.1066H23.0583ZM20.2208 22.9183C21.7488 22.9183 23.0059 21.696 23.0581 20.1148L22.5584 20.0983C22.5148 21.4172 21.4719 22.4183 20.2208 22.4183V22.9183ZM16.2437 22.9183H20.2208V22.4183H16.2437V22.9183ZM13.4541 20.1066C13.4541 21.6443 14.714 22.9183 16.2437 22.9183V22.4183C14.9942 22.4183 13.9541 21.3722 13.9541 20.1066H13.4541ZM13.4541 12.2282V20.1066H13.9541V12.2282H13.4541ZM14.6624 11.0116C13.9952 11.0116 13.4541 11.5606 13.4541 12.2282H13.9541C13.9541 11.8326 14.2755 11.5116 14.6624 11.5116V11.0116ZM15.1895 11.0116H14.6624V11.5116H15.1895V11.0116ZM14.9395 6.8633V11.2616H15.4395V6.8633H14.9395ZM14.9398 6.83605L14.9395 6.86022L15.4394 6.86638L15.4397 6.8422L14.9398 6.83605ZM17.0582 6.14661H19.3582V5.64661H17.0582V6.14661ZM16.8082 2.41661V5.89661H17.3082V2.41661H16.8082ZM19.6082 5.12328C19.6082 3.64782 18.513 2.38123 17.0952 2.16936L17.0213 2.66386C18.1909 2.83865 19.1082 3.89207 19.1082 5.12328H19.6082ZM19.6082 5.89661V5.12328H19.1082V5.89661H19.6082ZM16.1478 13.445H20.3165V12.945H16.1478V13.445ZM16.1368 13.4449L16.1465 13.445L16.1491 12.945L16.1393 12.9449L16.1368 13.4449ZM15.5729 13.4449H16.1381V12.9449H15.5729V13.4449ZM15.8229 20.1549V13.1949H15.3229V20.1549H15.8229ZM16.2437 20.5816C16.0005 20.5816 15.8229 20.4056 15.8229 20.1549H15.3229C15.3229 20.6776 15.7202 21.0816 16.2437 21.0816V20.5816ZM20.2208 20.5816H16.2437V21.0816H20.2208V20.5816ZM20.6416 20.1549C20.6416 20.4056 20.464 20.5816 20.2208 20.5816V21.0816C20.7442 21.0816 21.1416 20.6776 21.1416 20.1549H20.6416ZM20.6416 13.1949V20.1549H21.1416V13.1949H20.6416ZM20.3263 13.4449H20.8916V12.9449H20.3263V13.4449ZM20.3178 13.445L20.3276 13.4449L20.325 12.9449L20.3153 12.945L20.3178 13.445ZM19.3582 11.0116H17.0582V11.5116H19.3582V11.0116ZM19.1082 7.82997V11.2616H19.6082V7.82997H19.1082ZM17.0582 8.07997H19.3582V7.57997H17.0582V8.07997ZM17.3082 11.2616V7.82997H16.8082V11.2616H17.3082Z" fill="white"/>
</svg>
