<svg width="32" height="22" viewBox="0 0 32 22" fill="none" xmlns="http://www.w3.org/2000/svg">
<path d="M29.8125 19.0498V8.40566C29.8125 8.12719 29.7006 7.86012 29.5013 7.6632C29.302 7.46629 29.0318 7.35566 28.75 7.35566H21.3125V2.10566C21.3125 1.82719 21.2006 1.56012 21.0013 1.3632C20.802 1.16629 20.5318 1.05566 20.25 1.05566H11.75C11.4682 1.05566 11.198 1.16629 10.9987 1.3632C10.7994 1.56012 10.6875 1.82719 10.6875 2.10566V5.25566H3.25C2.96821 5.25566 2.69796 5.36629 2.4987 5.5632C2.29944 5.76011 2.1875 6.02719 2.1875 6.30566V19.0498C1.90571 19.0498 1.63546 19.1604 1.4362 19.3573C1.23694 19.5542 1.125 19.8213 1.125 20.0998C1.125 20.3783 1.23694 20.6453 1.4362 20.8422C1.63546 21.0392 1.90571 21.1498 2.1875 21.1498H29.8125C30.0943 21.1498 30.3645 21.0392 30.5638 20.8422C30.7631 20.6453 30.875 20.3783 30.875 20.0998C30.875 19.8213 30.7631 19.5542 30.5638 19.3573C30.3645 19.1604 30.0943 19.0498 29.8125 19.0498ZM4.3125 7.35566H10.6875V19.0498H4.3125V7.35566ZM12.8125 3.15566H19.1875V19.0498H12.8125V3.15566ZM21.3125 19.0498V9.45566H27.6875V19.0498H21.3125Z" fill="#5F73F1" stroke="white" stroke-width="0.5"/>
</svg>
