<svg width="26" height="25" viewBox="0 0 26 25" fill="none" xmlns="http://www.w3.org/2000/svg">
<path d="M20.6388 10.9C20.5221 10.5463 20.305 10.2318 20.0124 9.99271C19.7198 9.75361 19.3637 9.59964 18.985 9.54851L16.2725 9.20001C16.2256 9.1915 16.1814 9.17247 16.1434 9.14443C16.1055 9.11639 16.0747 9.08012 16.0538 9.03851L14.8375 6.65001C14.6687 6.31646 14.4071 6.03552 14.0823 5.83906C13.7576 5.64259 13.3826 5.53845 13 5.53845C12.6174 5.53845 12.2425 5.64259 11.9177 5.83906C11.5929 6.03552 11.3313 6.31646 11.1625 6.65001L9.94626 9.03001C9.92526 9.07162 9.89455 9.10789 9.85657 9.13593C9.81859 9.16397 9.7744 9.183 9.72751 9.19151L7.015 9.57401C6.63514 9.62592 6.27792 9.78045 5.98407 10.02C5.69021 10.2595 5.47154 10.5744 5.35298 10.9288C5.23441 11.2832 5.22071 11.6629 5.31345 12.0245C5.40619 12.3861 5.60163 12.7151 5.87751 12.974L7.83751 14.8355C7.87226 14.868 7.89839 14.9081 7.91363 14.9525C7.92887 14.9969 7.93278 15.0443 7.925 15.0905L7.46126 17.7C7.39739 18.0659 7.43969 18.4418 7.58342 18.7856C7.72716 19.1294 7.96663 19.4275 8.27501 19.6465C8.62503 19.8962 9.04825 20.0303 9.4825 20.029C9.81476 20.0278 10.1419 19.9491 10.4363 19.7995L12.86 18.55C12.9035 18.529 12.9514 18.5181 13 18.5181C13.0486 18.5181 13.0965 18.529 13.14 18.55L15.5638 19.791C15.9016 19.9643 16.2825 20.0424 16.6636 20.0164C17.0447 19.9903 17.4107 19.8613 17.7202 19.6437C18.0298 19.4262 18.2704 19.1288 18.4151 18.7854C18.5597 18.4419 18.6026 18.0659 18.5388 17.7L18.075 15.0735C18.0672 15.0273 18.0711 14.9799 18.0864 14.9355C18.1016 14.8911 18.1277 14.851 18.1625 14.8185L20.1225 12.957C20.4019 12.6979 20.599 12.3665 20.6905 12.0019C20.782 11.6373 20.764 11.255 20.6388 10.9ZM18.8888 11.75L16.9375 13.6115C16.6998 13.8363 16.5221 14.1141 16.42 14.4207C16.3178 14.7273 16.2942 15.0535 16.3513 15.371L16.815 17.9975C16.8257 18.0508 16.8198 18.106 16.798 18.156C16.7761 18.206 16.7394 18.2485 16.6925 18.278C16.6456 18.3076 16.5909 18.3234 16.535 18.3234C16.4791 18.3234 16.4244 18.3076 16.3775 18.278L13.9538 17.037C13.6597 16.8866 13.3323 16.808 13 16.808C12.6677 16.808 12.3403 16.8866 12.0463 17.037L9.62251 18.278C9.57564 18.3076 9.52092 18.3234 9.465 18.3234C9.40909 18.3234 9.35437 18.3076 9.3075 18.278C9.2606 18.2485 9.22386 18.206 9.20203 18.156C9.1802 18.106 9.17427 18.0508 9.18501 17.9975L9.64876 15.371C9.70578 15.0535 9.68219 14.7273 9.58003 14.4207C9.47786 14.1141 9.30022 13.8363 9.06251 13.6115L7.09375 11.75C7.0528 11.7129 7.02424 11.6647 7.01176 11.6117C6.99928 11.5587 7.00346 11.5032 7.02376 11.4525C7.03663 11.3998 7.06647 11.3524 7.10895 11.3172C7.15144 11.2821 7.20435 11.261 7.26 11.257L9.97251 10.8745C10.3029 10.8276 10.6166 10.7033 10.8864 10.5123C11.1563 10.3212 11.3741 10.0692 11.5213 9.77801L12.7288 7.39801C12.7523 7.34732 12.7905 7.30432 12.8386 7.27417C12.8867 7.24401 12.9427 7.22799 13 7.22801C13.0561 7.22821 13.1111 7.24338 13.1589 7.27186C13.2067 7.30034 13.2456 7.34104 13.2713 7.38951L14.4788 9.77801C14.6225 10.074 14.839 10.3311 15.109 10.5267C15.3791 10.7224 15.6945 10.8505 16.0275 10.9L18.74 11.2825C18.7957 11.2865 18.8486 11.3076 18.8911 11.3427C18.9335 11.3779 18.9634 11.4253 18.9763 11.478C18.9911 11.5253 18.9924 11.5755 18.9801 11.6234C18.9678 11.6714 18.9422 11.7151 18.9063 11.75H18.8888ZM13 0.700012C10.5772 0.700012 8.20877 1.39794 6.19427 2.70552C4.17977 4.01311 2.60965 5.87164 1.68248 8.04608C0.755308 10.2205 0.512717 12.6132 0.985386 14.9216C1.45805 17.23 2.62475 19.3503 4.33795 21.0146C6.05114 22.6788 8.23388 23.8122 10.6101 24.2714C12.9864 24.7305 15.4495 24.4949 17.6879 23.5942C19.9263 22.6935 21.8395 21.1682 23.1855 19.2113C24.5316 17.2544 25.25 14.9536 25.25 12.6C25.25 9.44394 23.9594 6.41712 21.6621 4.18544C19.3647 1.95376 16.2489 0.700012 13 0.700012ZM13 22.8C10.9233 22.8 8.89323 22.2018 7.16652 21.081C5.4398 19.9602 4.09399 18.3672 3.29927 16.5034C2.50455 14.6396 2.29662 12.5887 2.70176 10.6101C3.1069 8.63148 4.10693 6.81402 5.57538 5.38752C7.04384 3.96103 8.91476 2.98957 10.9516 2.596C12.9884 2.20243 15.0996 2.40443 17.0182 3.17644C18.9368 3.94845 20.5767 5.25582 21.7304 6.9332C22.8842 8.61058 23.5 10.5826 23.5 12.6C23.5 15.3052 22.3938 17.8996 20.4246 19.8125C18.4555 21.7254 15.7848 22.8 13 22.8Z" fill="#5F73F1" stroke="white" stroke-width="0.3"/>
</svg>
