<svg width="32" height="26" viewBox="0 0 32 26" fill="none" xmlns="http://www.w3.org/2000/svg">
<path d="M12.8322 20.7437C13.1202 20.7437 13.3762 20.6477 13.5682 20.4557L19.9362 14.0877C20.1282 13.8957 20.2242 13.6397 20.2242 13.3517C20.2242 13.0637 20.1282 12.8077 19.9362 12.6157C19.5202 12.1997 18.8802 12.1997 18.4642 12.6157L12.0962 18.9837C11.6802 19.3997 11.6802 20.0397 12.0962 20.4557C12.2882 20.6477 12.5442 20.7437 12.8322 20.7437Z" fill="#5F73F1" stroke="white" stroke-width="0.6"/>
<path d="M13.3441 15.4001C14.1747 15.4001 14.8481 14.7267 14.8481 13.8961C14.8481 13.0655 14.1747 12.3921 13.3441 12.3921C12.5135 12.3921 11.8401 13.0655 11.8401 13.8961C11.8401 14.7267 12.5135 15.4001 13.3441 15.4001Z" fill="#5F73F1" stroke="white" stroke-width="0.6"/>
<path d="M18.6561 20.7121C19.4867 20.7121 20.1601 20.0387 20.1601 19.2081C20.1601 18.3775 19.4867 17.7041 18.6561 17.7041C17.8255 17.7041 17.1521 18.3775 17.1521 19.2081C17.1521 20.0387 17.8255 20.7121 18.6561 20.7121Z" fill="#5F73F1" stroke="white" stroke-width="0.6"/>
<path d="M30.08 7.81592H27.904L22.464 1.15992C22.08 0.679924 21.344 0.615924 20.864 0.999924C20.384 1.38392 20.32 2.11992 20.704 2.59992L24.992 7.84792H7.00805L11.296 2.59992C11.68 2.11992 11.616 1.41592 11.136 0.999924C10.656 0.615924 9.95205 0.679924 9.53605 1.15992L4.09605 7.81592H1.92005C1.31205 7.81592 0.800049 8.32792 0.800049 8.93592C0.800049 9.54392 1.31205 10.0559 1.92005 10.0559H3.29605L5.50405 24.2639C5.60005 24.8079 6.04805 25.2239 6.62405 25.2239H25.376C25.92 25.2239 26.4 24.8079 26.496 24.2639L28.704 10.0559H30.08C30.688 10.0559 31.2 9.54392 31.2 8.93592C31.2 8.32792 30.688 7.81592 30.08 7.81592ZM24.416 23.0159H7.58405L5.56805 10.0879H26.432L24.416 23.0159Z" fill="#5F73F1" stroke="white" stroke-width="0.6"/>
</svg>
