<svg width="28" height="28" viewBox="0 0 28 28" fill="none" xmlns="http://www.w3.org/2000/svg">
<path fill-rule="evenodd" clip-rule="evenodd" d="M24.4461 18.3239C24.4532 18.3419 24.4602 18.3599 24.4671 18.3779C24.6421 18.8373 24.7241 19.3377 24.746 19.8272C24.7843 20.7104 24.5464 21.6237 24.1007 22.3865C23.6441 23.1631 22.9441 23.844 22.1292 24.235C21.3308 24.6178 20.4284 24.8256 19.5425 24.719C19.1159 24.6671 18.7238 24.5868 18.3295 24.4413C18.3183 24.4664 18.307 24.4915 18.2956 24.5166C18.096 24.9569 17.8034 25.3615 17.478 25.717C16.8847 26.3623 16.078 26.8408 15.2304 27.0651C14.3499 27.2947 13.3683 27.2811 12.507 26.983C11.6784 26.6932 10.9019 26.201 10.3495 25.5092C10.1855 25.3041 10.0269 25.0963 9.89289 24.8694C9.81206 24.7324 9.74317 24.5896 9.67902 24.4437C9.66099 24.4507 9.64296 24.4577 9.62492 24.4647C9.16555 24.6397 8.66516 24.7217 8.1757 24.7436C7.2925 24.7819 6.37922 24.544 5.61633 24.0983C4.83977 23.6416 4.15891 22.9416 3.76789 22.1268C3.38508 21.3283 3.17727 20.426 3.28391 19.5401C3.33576 19.1134 3.41606 18.7214 3.56157 18.3271C3.53644 18.3159 3.51133 18.3046 3.48625 18.2932C3.04602 18.0936 2.64133 17.801 2.28586 17.4756C1.64055 16.8822 1.16203 16.0756 0.937813 15.2279C0.708125 14.3475 0.721797 13.3658 1.01984 12.5045C1.30969 11.676 1.80188 10.8994 2.49367 10.3471C2.69875 10.183 2.90656 10.0244 3.13352 9.89045C3.27043 9.80962 3.41332 9.74073 3.55918 9.67658C3.55214 9.65855 3.54515 9.64052 3.5382 9.62248C3.3632 9.16311 3.28117 8.66271 3.2593 8.17326C3.22102 7.29006 3.45891 6.37678 3.90461 5.61389C4.36125 4.83732 5.06125 4.15646 5.87609 3.76545C6.67453 3.38264 7.57688 3.17482 8.46281 3.28146C8.88942 3.33332 9.28149 3.41362 9.6758 3.55913C9.68701 3.53399 9.69831 3.50889 9.70969 3.48381C9.9093 3.04357 10.2019 2.63889 10.5273 2.28342C11.1206 1.63811 11.9273 1.15959 12.7749 0.935371C13.6554 0.705684 14.637 0.719356 15.4984 1.0174C16.3269 1.30725 17.1034 1.79943 17.6558 2.49123C17.8198 2.69631 17.9784 2.90412 18.1124 3.13107C18.1933 3.26799 18.2621 3.41088 18.3263 3.55674C18.3443 3.5497 18.3624 3.54271 18.3804 3.53576C18.8398 3.36076 19.3402 3.27873 19.8296 3.25686C20.7128 3.21857 21.6261 3.45646 22.389 3.90217C23.1655 4.35881 23.8464 5.05881 24.2374 5.87365C24.6202 6.67209 24.828 7.57443 24.7214 8.46037C24.6696 8.88698 24.5893 9.27905 24.4437 9.67336C24.4689 9.68457 24.494 9.69587 24.5191 9.70724C24.9593 9.90685 25.364 10.1994 25.7195 10.5248C26.3648 11.1182 26.8433 11.9248 27.0675 12.7725C27.2972 13.6529 27.2835 14.6346 26.9855 15.4959C26.6956 16.3244 26.2034 17.101 25.5116 17.6533C25.3066 17.8174 25.0988 17.976 24.8718 18.11C24.7349 18.1908 24.592 18.2597 24.4461 18.3239ZM21.7627 17.9187C21.7637 17.9269 21.7646 17.9351 21.7655 17.9432C21.7786 17.9898 21.7942 18.0349 21.8124 18.0784C21.8618 18.204 21.9341 18.3197 22.0336 18.4145C22.1608 18.595 22.2716 18.785 22.3651 18.9856C22.4444 19.1999 22.5042 19.4195 22.5434 19.6435C22.5636 19.8677 22.5636 20.0929 22.5432 20.3184C22.5036 20.544 22.4434 20.7653 22.3645 20.9812C22.2673 21.1878 22.1517 21.3853 22.02 21.5716C21.8811 21.7354 21.7292 21.8869 21.5651 22.0255C21.38 22.1573 21.1846 22.2707 20.9781 22.3667C20.7639 22.4457 20.5444 22.5042 20.3206 22.5432C20.0918 22.5636 19.8618 22.5622 19.6317 22.5416C19.4131 22.5027 19.1988 22.4441 18.9895 22.3669C18.774 22.2662 18.5683 22.1454 18.3748 22.0057C18.2435 21.9023 18.107 21.8117 17.9429 21.7658C17.705 21.7002 17.4562 21.7248 17.232 21.8205C17.0515 21.8971 16.9148 22.0037 16.7945 22.1569C16.6385 22.3585 16.5883 22.5523 16.5607 22.8057C16.5216 23.0242 16.4642 23.2374 16.3876 23.4455C16.2887 23.6567 16.1719 23.8574 16.0371 24.0476C15.9001 24.2088 15.7507 24.3583 15.5899 24.4945C15.4009 24.6291 15.2015 24.746 14.9918 24.845C14.7785 24.9229 14.5588 24.9818 14.3347 25.0216C14.1099 25.0413 13.8843 25.041 13.6595 25.0206C13.4397 24.9823 13.2243 24.9243 13.015 24.8467C12.8063 24.7499 12.607 24.6342 12.4203 24.4995C12.2583 24.364 12.109 24.2151 11.9731 24.0547C11.8375 23.8648 11.7189 23.6644 11.6207 23.4535C11.5427 23.2432 11.4844 23.0276 11.4448 22.8067C11.4256 22.6192 11.3947 22.4322 11.2956 22.2662C11.1753 22.0612 10.9894 21.9108 10.7734 21.8178C10.5874 21.7385 10.407 21.7166 10.2073 21.744C10.0044 21.7723 9.85364 21.8425 9.69817 21.9531L9.70695 21.9463C9.7027 21.9495 9.69844 21.9528 9.69418 21.956C9.67631 21.9688 9.65837 21.9821 9.64028 21.9959C9.44527 22.1379 9.23892 22.2606 9.02 22.3627C8.8057 22.442 8.58607 22.5018 8.36209 22.5409C8.13793 22.5612 7.9127 22.5611 7.68727 22.5407C7.46158 22.5012 7.2403 22.441 7.02444 22.3621C6.81783 22.2648 6.62031 22.1493 6.43398 22.0175C6.27024 21.8786 6.11868 21.7268 5.98008 21.5627C5.84834 21.3775 5.73495 21.1822 5.63888 20.9756C5.55986 20.7615 5.50138 20.542 5.46245 20.3182C5.442 20.0893 5.44342 19.8594 5.46397 19.6292C5.50292 19.4107 5.56145 19.1964 5.63865 18.9871C5.73936 18.7715 5.86017 18.5659 5.9999 18.3724C6.10328 18.241 6.1939 18.1046 6.23977 17.9404C6.30539 17.7026 6.28078 17.4537 6.18508 17.2295C6.10852 17.049 6.00188 16.9123 5.84875 16.792C5.64708 16.6361 5.45335 16.5859 5.19994 16.5582C4.98147 16.5192 4.7682 16.4618 4.56013 16.3851C4.34894 16.2863 4.14824 16.1695 3.95802 16.0347C3.79684 15.8976 3.64732 15.7483 3.51113 15.5874C3.37648 15.3984 3.25963 15.1991 3.16058 14.9893C3.08269 14.776 3.02384 14.5564 2.98404 14.3323C2.96426 14.1075 2.9646 13.8818 2.98504 13.657C3.02336 13.4373 3.08132 13.2218 3.15894 13.0125C3.25567 12.8039 3.37139 12.6046 3.5061 12.4178C3.64163 12.2559 3.79046 12.1065 3.9509 11.9707C4.14083 11.835 4.34124 11.7164 4.55214 11.6183C4.76243 11.5402 4.97804 11.4819 5.19896 11.4424C5.38638 11.4232 5.57337 11.3923 5.73938 11.2932C5.94445 11.1729 6.09484 10.9869 6.18781 10.7709C6.26711 10.585 6.28899 10.4045 6.26164 10.2049C6.23327 10.0019 6.16309 9.85121 6.05248 9.69575L6.0593 9.70451C6.05607 9.70027 6.05286 9.69602 6.04965 9.69177C6.03684 9.67388 6.02351 9.65592 6.00964 9.6378C5.86766 9.44279 5.74502 9.23645 5.64293 9.01755C5.56361 8.80326 5.50386 8.58364 5.46467 8.35967C5.44442 8.1355 5.44449 7.91025 5.46488 7.68481C5.50441 7.45912 5.56463 7.23785 5.64351 7.022C5.74077 6.81538 5.85632 6.61787 5.98806 6.43154C6.12698 6.2678 6.27885 6.11623 6.4429 5.97764C6.62809 5.8459 6.82343 5.73251 7.02997 5.63644C7.24413 5.55742 7.46362 5.49894 7.68745 5.46C7.91628 5.43955 8.14623 5.44098 8.37638 5.46153C8.5949 5.50048 8.80926 5.55901 9.01855 5.63621C9.23406 5.73692 9.43975 5.85773 9.63324 5.99745C9.76456 6.10084 9.90101 6.19146 10.0652 6.23732C10.303 6.30295 10.5519 6.27834 10.7761 6.18264C10.9566 6.10607 11.0933 5.99943 11.2136 5.84631C11.3696 5.64464 11.4197 5.4509 11.4474 5.19748C11.4864 4.97902 11.5438 4.76576 11.6205 4.55768C11.7193 4.34649 11.8361 4.14579 11.9709 3.95557C12.108 3.7944 12.2573 3.64487 12.4182 3.50869C12.6072 3.37404 12.8065 3.25719 13.0163 3.15814C13.2296 3.08025 13.4492 3.0214 13.6733 2.9816C13.8981 2.96182 14.1238 2.96215 14.3486 2.98259C14.5683 3.02091 14.7838 3.07888 14.9931 3.1565C15.2017 3.25322 15.401 3.36894 15.5878 3.50366C15.7498 3.63919 15.8991 3.78802 16.0349 3.94846C16.1706 4.13839 16.2892 4.3388 16.3874 4.5497C16.4654 4.75999 16.5237 4.9756 16.5632 5.19652C16.5825 5.38394 16.6134 5.57092 16.7124 5.73693C16.8327 5.94201 17.0187 6.0924 17.2347 6.18537C17.4206 6.26467 17.6011 6.28654 17.8007 6.2592C18.0037 6.23083 18.1544 6.16065 18.3099 6.05005L18.3011 6.05686C18.3053 6.05363 18.3096 6.05042 18.3138 6.04721C18.3317 6.0344 18.3497 6.02106 18.3678 6.00719C18.5628 5.86521 18.7692 5.74257 18.988 5.64049C19.2023 5.56117 19.422 5.50141 19.6459 5.46222C19.8701 5.44197 20.0954 5.44204 20.3208 5.46244C20.5465 5.50197 20.7678 5.56219 20.9836 5.64107C21.1902 5.73833 21.3877 5.85388 21.5741 5.98562C21.7378 6.12454 21.8894 6.27641 22.028 6.44046C22.1597 6.62564 22.2731 6.82099 22.3692 7.02753C22.4482 7.24169 22.5067 7.46118 22.5456 7.68502C22.5661 7.91385 22.5646 8.14379 22.5441 8.37392C22.5051 8.59245 22.4466 8.80681 22.3694 9.01611C22.2687 9.23163 22.1479 9.43732 22.0081 9.63082C21.9048 9.76213 21.8141 9.89857 21.7683 10.0627C21.7027 10.3006 21.7273 10.5494 21.823 10.7737C21.8995 10.9541 22.0062 11.0908 22.1593 11.2112C22.361 11.3671 22.5547 11.4173 22.8081 11.4449C23.0266 11.484 23.2399 11.5414 23.4479 11.618C23.6591 11.7169 23.8598 11.8337 24.05 11.9685C24.2112 12.1055 24.3607 12.2549 24.4969 12.4157C24.6316 12.6047 24.7484 12.8041 24.8475 13.0139C24.9254 13.2271 24.9842 13.4468 25.024 13.6709C25.0438 13.8957 25.0435 14.1214 25.023 14.3462C24.9847 14.5659 24.9267 14.7813 24.8491 14.9906C24.7524 15.1993 24.6367 15.3986 24.5019 15.5853C24.3664 15.7473 24.2176 15.8966 24.0572 16.0325C23.8672 16.1681 23.6668 16.2867 23.4559 16.3849C23.2477 16.4621 23.0343 16.5201 22.8157 16.5596C22.5488 16.5612 22.2319 16.6812 22.0472 16.8795C21.968 16.9587 21.8965 17.0596 21.8412 17.1702C21.7693 17.3091 21.7252 17.4617 21.7264 17.6206C21.7264 17.6315 21.7267 17.6425 21.7273 17.6533C21.7307 17.7421 21.7421 17.8316 21.7627 17.9187ZM22.8775 16.5546C22.8929 16.5529 22.9084 16.5509 22.9238 16.549C22.9346 16.5476 22.9454 16.5462 22.9561 16.545C22.93 16.548 22.9038 16.5512 22.8775 16.5546ZM23.6085 16.3244C23.5892 16.3326 23.5699 16.3405 23.5505 16.3483C23.5698 16.3403 23.5892 16.3323 23.6085 16.3244ZM24.5956 15.4686C24.5877 15.4789 24.5797 15.4892 24.5717 15.4994L24.5956 15.4686ZM24.7898 15.1404C24.7975 15.1214 24.8054 15.1024 24.8133 15.0833C24.8056 15.1024 24.7978 15.1215 24.7898 15.1404ZM25.0058 13.5053C25.0095 13.5332 25.0129 13.5612 25.0159 13.5892C25.0124 13.5611 25.009 13.5331 25.0058 13.5053ZM24.7898 12.8654C24.7931 12.8734 24.7963 12.8814 24.7996 12.8894C24.7963 12.8814 24.793 12.8734 24.7898 12.8654ZM23.6085 11.6815C23.5892 11.6736 23.5698 11.6656 23.5505 11.6575C23.5699 11.6653 23.5892 11.6733 23.6085 11.6815ZM22.1238 9.48576C22.111 9.50277 22.0982 9.51904 22.0855 9.53496L22.1238 9.48576ZM22.3152 9.1549C22.3185 9.14679 22.3218 9.13868 22.3251 9.13057C22.3218 9.13869 22.3185 9.1468 22.3152 9.1549ZM22.5667 7.82053C22.5651 7.80946 22.5636 7.79836 22.562 7.78722C22.5636 7.79832 22.5652 7.80942 22.5667 7.82053ZM22.5388 7.61586C22.5351 7.58732 22.5317 7.55888 22.5284 7.53068C22.5322 7.55906 22.5357 7.58745 22.5388 7.61586ZM22.3179 6.89631C22.3211 6.9041 22.3243 6.91189 22.3275 6.9197C22.3243 6.9119 22.3211 6.90411 22.3179 6.89631ZM19.7777 5.44162C19.7672 5.44312 19.7567 5.44461 19.7462 5.4461C19.7567 5.44456 19.7672 5.44307 19.7777 5.44162ZM19.5762 5.46918C19.5466 5.47296 19.5171 5.47656 19.4878 5.4799C19.5173 5.47598 19.5467 5.4724 19.5762 5.46918ZM18.8534 5.69318C18.8615 5.68985 18.8696 5.68655 18.8777 5.68327C18.8696 5.6866 18.8615 5.6899 18.8534 5.69318ZM16.5571 5.12824C16.5553 5.11278 16.5534 5.09725 16.5514 5.08182C16.55 5.07093 16.5487 5.06009 16.5474 5.04935C16.5504 5.0755 16.5537 5.10184 16.5571 5.12824ZM16.3269 4.39709C16.335 4.41639 16.343 4.43573 16.3508 4.45512C16.3427 4.43577 16.3347 4.41643 16.3269 4.39709ZM15.471 3.40998C15.4813 3.41791 15.4916 3.4259 15.5018 3.43393L15.471 3.40998ZM15.1429 3.21584C15.1239 3.20811 15.1048 3.20025 15.0858 3.19231C15.1049 3.19999 15.1239 3.20783 15.1429 3.21584ZM13.5077 2.99982C13.5357 2.99613 13.5637 2.99274 13.5917 2.98967C13.5636 2.99324 13.5355 2.99665 13.5077 2.99982ZM12.8679 3.21584C12.8758 3.21256 12.8838 3.2093 12.8918 3.20608C12.8838 3.20935 12.8759 3.21261 12.8679 3.21584ZM11.6839 4.39709C11.676 4.41643 11.6681 4.43577 11.66 4.45512C11.6678 4.43573 11.6758 4.41639 11.6839 4.39709ZM9.4882 5.88186C9.5052 5.8946 9.52146 5.90735 9.53737 5.92009L9.4882 5.88186ZM9.15734 5.69045C9.14927 5.68717 9.14119 5.68386 9.13311 5.68054C9.1412 5.68381 9.14928 5.68712 9.15734 5.69045ZM7.82297 5.43889C7.81189 5.44047 7.80078 5.44205 7.78964 5.44363C7.80074 5.442 7.81185 5.44042 7.82297 5.43889ZM7.6183 5.46686C7.58977 5.47048 7.56133 5.47394 7.53313 5.47717C7.5615 5.47338 7.58989 5.46995 7.6183 5.46686ZM6.89875 5.68771C6.90652 5.68451 6.91429 5.68133 6.92207 5.67818C6.9143 5.68138 6.90653 5.68456 6.89875 5.68771ZM5.44406 8.22795C5.44556 8.23841 5.44705 8.2489 5.44854 8.25942C5.447 8.24894 5.44551 8.23845 5.44406 8.22795ZM5.47163 8.42943C5.4754 8.45904 5.479 8.48854 5.48234 8.51779C5.47842 8.48836 5.47485 8.45891 5.47163 8.42943ZM5.69563 9.15217C5.69229 9.14409 5.68899 9.13601 5.68571 9.12792C5.68903 9.136 5.69234 9.14408 5.69563 9.15217ZM5.13068 11.4485C5.11521 11.4503 5.09968 11.4522 5.08424 11.4542C5.07338 11.4556 5.06256 11.4569 5.05185 11.4582C5.07798 11.4552 5.1043 11.4519 5.13068 11.4485ZM4.39953 11.6787C4.41882 11.6706 4.43816 11.6626 4.45755 11.6548C4.43821 11.6629 4.41887 11.6709 4.39953 11.6787ZM3.41242 12.5346C3.42036 12.5243 3.42835 12.514 3.43638 12.5038L3.41242 12.5346ZM3.21828 12.8627C3.21055 12.8817 3.20269 12.9008 3.19475 12.9198C3.20243 12.9007 3.21027 12.8817 3.21828 12.8627ZM3.00227 14.4979C2.99857 14.4699 2.99518 14.4419 2.99211 14.4139C2.99568 14.442 2.99909 14.4701 3.00227 14.4979ZM3.21828 15.1377C3.215 15.1298 3.21174 15.1218 3.20852 15.1138C3.21179 15.1218 3.21505 15.1298 3.21828 15.1377ZM4.39953 16.3217C4.41887 16.3296 4.43822 16.3375 4.45756 16.3456C4.43817 16.3378 4.41883 16.3298 4.39953 16.3217ZM5.69289 18.8483C5.6896 18.8563 5.6863 18.8644 5.68297 18.8725C5.68625 18.8644 5.68955 18.8563 5.69289 18.8483ZM5.44133 20.1826C5.44291 20.1937 5.44449 20.2048 5.44607 20.216C5.44444 20.2049 5.44286 20.1938 5.44133 20.1826ZM5.4693 20.3873C5.47293 20.4158 5.47639 20.4443 5.47961 20.4725C5.47583 20.4441 5.47239 20.4157 5.4693 20.3873ZM5.69016 21.1069C5.68695 21.0991 5.68378 21.0913 5.68063 21.0835C5.68382 21.0913 5.687 21.0991 5.69016 21.1069ZM8.23039 22.5615C8.24086 22.56 8.25135 22.5586 8.26188 22.5571C8.25139 22.5586 8.2409 22.5601 8.23039 22.5615ZM8.43184 22.534C8.46145 22.5302 8.49097 22.5266 8.52024 22.5233C8.49079 22.5272 8.46132 22.5308 8.43184 22.534ZM9.15461 22.31C9.14656 22.3133 9.1385 22.3166 9.13044 22.3199C9.1385 22.3165 9.14655 22.3133 9.15461 22.31ZM11.451 22.8749C11.4527 22.8904 11.4547 22.9059 11.4566 22.9214C11.458 22.9323 11.4594 22.9431 11.4607 22.9539C11.4576 22.9277 11.4544 22.9014 11.451 22.8749ZM11.6812 23.6061C11.673 23.5868 11.6651 23.5674 11.6573 23.5481C11.6653 23.5674 11.6733 23.5867 11.6812 23.6061ZM12.537 24.5932C12.5267 24.5852 12.5164 24.5772 12.5062 24.5692L12.537 24.5932ZM12.8652 24.7873C12.8842 24.7951 12.9033 24.8029 12.9223 24.8109C12.9032 24.8032 12.8841 24.7953 12.8652 24.7873ZM14.5003 25.0033C14.4724 25.007 14.4444 25.0104 14.4164 25.0135C14.4445 25.0099 14.4725 25.0065 14.5003 25.0033ZM15.1402 24.7873C15.1322 24.7906 15.1242 24.7939 15.1162 24.7971C15.1242 24.7938 15.1322 24.7906 15.1402 24.7873ZM16.3241 23.6061C16.332 23.5867 16.34 23.5674 16.3481 23.5481C16.3403 23.5674 16.3323 23.5868 16.3241 23.6061ZM18.5198 22.1213C18.5028 22.1086 18.4866 22.0958 18.4706 22.083L18.5198 22.1213ZM18.8507 22.3127C18.8588 22.316 18.8669 22.3193 18.875 22.3226C18.8669 22.3194 18.8588 22.316 18.8507 22.3127ZM20.1851 22.5643C20.1962 22.5627 20.2073 22.5611 20.2184 22.5595C20.2073 22.5612 20.1962 22.5627 20.1851 22.5643ZM20.3897 22.5363C20.4183 22.5327 20.4467 22.5292 20.4749 22.526C20.4466 22.5298 20.4182 22.5332 20.3897 22.5363ZM21.1093 22.3154C21.1015 22.3187 21.0937 22.3218 21.0859 22.325C21.0937 22.3218 21.1015 22.3186 21.1093 22.3154ZM22.564 19.7752C22.5625 19.7648 22.561 19.7543 22.5595 19.7437C22.561 19.7542 22.5625 19.7647 22.564 19.7752ZM22.5364 19.5737C22.5326 19.5441 22.529 19.5146 22.5257 19.4854C22.5296 19.5148 22.5332 19.5443 22.5364 19.5737ZM22.3124 18.851C22.3158 18.8591 22.3191 18.8672 22.3223 18.8753C22.319 18.8672 22.3157 18.8591 22.3124 18.851ZM5.92255 18.4682L5.8843 18.5174C5.89705 18.5004 5.9098 18.4841 5.92255 18.4682ZM17.2527 14.4259C17.2662 14.2846 17.273 14.1424 17.273 14.0001C17.273 13.8529 17.2658 13.7058 17.2513 13.5586C17.2047 13.2804 17.1312 13.0083 17.0318 12.7436C16.9095 12.478 16.7633 12.2248 16.5919 11.9879C16.413 11.7732 16.2156 11.5772 16.0017 11.399C15.7696 11.2317 15.5219 11.0884 15.2624 10.968C14.9907 10.8667 14.7112 10.7911 14.4253 10.7423C14.1353 10.7144 13.8456 10.7147 13.5571 10.7431C13.2783 10.7896 13.0058 10.8632 12.7407 10.9628C12.4751 11.0851 12.2218 11.2313 11.985 11.4027C11.7703 11.5816 11.5743 11.779 11.3961 11.9929C11.2288 12.225 11.0855 12.4727 10.9651 12.7322C10.8638 13.0039 10.7881 13.2834 10.7393 13.5693C10.7115 13.8593 10.7118 14.149 10.7402 14.4375C10.7867 14.7162 10.8603 14.9888 10.9599 15.2539C11.0822 15.5195 11.2284 15.7727 11.3998 16.0096C11.5787 16.2243 11.7761 16.4203 11.99 16.5985C12.2221 16.7658 12.4697 16.9091 12.7293 17.0295C13.001 17.1308 13.2805 17.2064 13.5664 17.2552C13.8564 17.2831 14.1461 17.2828 14.4346 17.2544C14.7133 17.2079 14.9859 17.1343 15.251 17.0347C15.5166 16.9124 15.7698 16.7662 16.0067 16.5948C16.2214 16.4159 16.4173 16.2185 16.5955 16.0046C16.7629 15.7725 16.9062 15.5249 17.0266 15.2653C17.1281 14.9929 17.2039 14.7126 17.2527 14.4259ZM16.9695 15.4111C16.972 15.4048 16.9746 15.3985 16.9772 15.3922C16.9746 15.3985 16.972 15.4048 16.9695 15.4111ZM15.4081 16.9724C15.3912 16.9795 15.3743 16.9864 15.3573 16.9933C15.3743 16.9862 15.3912 16.9793 15.4081 16.9724ZM14.3117 17.2732C14.3243 17.2714 14.337 17.2696 14.3497 17.2678C14.337 17.2696 14.3243 17.2714 14.3117 17.2732ZM14.487 17.249C14.5254 17.244 14.5637 17.2392 14.6015 17.2349C14.5634 17.2401 14.5252 17.2448 14.487 17.249ZM12.5835 16.9724C12.5898 16.9749 12.596 16.9775 12.6023 16.98C12.596 16.9775 12.5898 16.9749 12.5835 16.9724ZM11.0222 15.4111C11.0151 15.3941 11.0082 15.3772 11.0013 15.3602C11.0083 15.3772 11.0153 15.3941 11.0222 15.4111ZM10.7214 14.3146C10.7232 14.3272 10.725 14.3399 10.7268 14.3526C10.725 14.3399 10.7232 14.3273 10.7214 14.3146ZM10.7456 14.49C10.7506 14.5283 10.7554 14.5666 10.7597 14.6044C10.7545 14.5663 10.7498 14.5281 10.7456 14.49ZM11.0222 12.5864C11.0197 12.5927 11.0171 12.5989 11.0145 12.6052C11.0171 12.5989 11.0196 12.5927 11.0222 12.5864ZM12.5835 11.0251C12.6004 11.018 12.6174 11.0111 12.6343 11.0042C12.6174 11.0113 12.6005 11.0182 12.5835 11.0251ZM13.68 10.7243C13.6674 10.7261 13.6547 10.7279 13.642 10.7297C13.6547 10.7279 13.6673 10.7261 13.68 10.7243ZM13.5046 10.7485C13.4663 10.7535 13.428 10.7583 13.3902 10.7626C13.4283 10.7574 13.4665 10.7527 13.5046 10.7485ZM15.4081 11.0251C15.4019 11.0226 15.3956 11.02 15.3894 11.0175C15.3956 11.02 15.4019 11.0225 15.4081 11.0251ZM16.9695 12.5864C16.9766 12.6034 16.9835 12.6203 16.9904 12.6373C16.9834 12.6204 16.9764 12.6034 16.9695 12.5864ZM17.2703 13.6829C17.2685 13.6703 17.2667 13.6576 17.2649 13.6449C17.2667 13.6576 17.2685 13.6703 17.2703 13.6829ZM17.2456 13.5038C17.2407 13.4667 17.2362 13.4297 17.232 13.3931C17.237 13.43 17.2415 13.4669 17.2456 13.5038ZM19.4525 14.1367C19.458 14.0922 19.4607 14.0466 19.4605 14.0001C19.455 12.9118 19.1324 11.7907 18.4925 10.9021C18.1234 10.388 17.7132 9.96965 17.2101 9.58957C16.7781 9.26145 16.2941 9.02629 15.7855 8.84035C14.7519 8.46301 13.557 8.44387 12.5042 8.74465C11.4871 9.03449 10.5218 9.63605 9.84642 10.4536C9.65228 10.6915 9.46361 10.9376 9.30502 11.2001C9.14369 11.4681 9.02064 11.7525 8.90306 12.0396C8.69252 12.5536 8.59135 13.1005 8.5476 13.6529C8.46283 14.7384 8.74994 15.8786 9.31322 16.8083C9.85736 17.7079 10.6804 18.4845 11.6429 18.922C11.9273 19.0505 12.2171 19.1708 12.5179 19.2556C12.8269 19.3431 13.1441 19.3868 13.464 19.4251C14.0246 19.4935 14.596 19.4443 15.1484 19.3321C17.2511 18.9111 19.0339 17.09 19.3648 14.9654C19.4068 14.6897 19.4429 14.4141 19.4525 14.1367Z" fill="#5F73F1"/>
<path d="M24.4671 18.3779L24.8409 18.2355L24.8404 18.2341L24.4671 18.3779ZM24.4461 18.3239L24.2851 17.9577L23.9341 18.1121L24.0735 18.4693L24.4461 18.3239ZM24.746 19.8272L25.1456 19.8098L25.1456 19.8093L24.746 19.8272ZM24.1007 22.3865L24.4455 22.5893L24.4461 22.5883L24.1007 22.3865ZM22.1292 24.235L22.3022 24.5957L22.3023 24.5956L22.1292 24.235ZM19.5425 24.719L19.4942 25.116L19.4947 25.1161L19.5425 24.719ZM18.3295 24.4413L18.468 24.066L18.1166 23.9364L17.9642 24.2785L18.3295 24.4413ZM18.2956 24.5166L17.9314 24.3514L17.9313 24.3514L18.2956 24.5166ZM17.478 25.717L17.7725 25.9878L17.7731 25.9871L17.478 25.717ZM15.2304 27.0651L15.3314 27.4521L15.3327 27.4518L15.2304 27.0651ZM12.507 26.983L12.3749 27.3606L12.3762 27.361L12.507 26.983ZM10.3495 25.5092L10.6621 25.2596L10.6619 25.2593L10.3495 25.5092ZM9.89289 24.8694L10.2373 24.666L9.89289 24.8694ZM9.67902 24.4437L10.0452 24.2827L9.89081 23.9317L9.53361 24.0711L9.67902 24.4437ZM9.62492 24.4647L9.76732 24.8385L9.76876 24.8379L9.62492 24.4647ZM8.1757 24.7436L8.19302 25.1432L8.19356 25.1432L8.1757 24.7436ZM5.61633 24.0983L5.41357 24.4431L5.41455 24.4436L5.61633 24.0983ZM3.76789 22.1268L3.4072 22.2997L3.40726 22.2998L3.76789 22.1268ZM3.28391 19.5401L2.88683 19.4918L2.88677 19.4923L3.28391 19.5401ZM3.56157 18.3271L3.93684 18.4656L4.06651 18.1142L3.72441 17.9617L3.56157 18.3271ZM3.48625 18.2932L3.6515 17.9289L3.65143 17.9289L3.48625 18.2932ZM2.28586 17.4756L2.01512 17.7701L2.01578 17.7707L2.28586 17.4756ZM0.937813 15.2279L0.550763 15.3289L0.551112 15.3302L0.937813 15.2279ZM1.01984 12.5045L0.642279 12.3724L0.641835 12.3737L1.01984 12.5045ZM2.49367 10.3471L2.74325 10.6597L2.74355 10.6594L2.49367 10.3471ZM3.13352 9.89045L3.33687 10.2349H3.33687L3.13352 9.89045ZM3.55918 9.67658L3.72022 10.0427L4.07122 9.88836L3.93181 9.53115L3.55918 9.67658ZM3.5382 9.62248L3.16441 9.76488L3.16496 9.76633L3.5382 9.62248ZM3.2593 8.17326L2.85967 8.19058L2.8597 8.19112L3.2593 8.17326ZM3.90461 5.61389L3.5598 5.41113L3.55923 5.41211L3.90461 5.61389ZM5.87609 3.76545L5.70316 3.40476L5.70304 3.40482L5.87609 3.76545ZM8.46281 3.28146L8.51108 2.88439L8.51062 2.88433L8.46281 3.28146ZM9.6758 3.55913L9.53732 3.93439L9.88868 4.06406L10.0412 3.72198L9.6758 3.55913ZM9.70969 3.48381L10.074 3.64904L10.074 3.64899L9.70969 3.48381ZM10.5273 2.28342L10.2328 2.01268L10.2322 2.01333L10.5273 2.28342ZM12.7749 0.935371L12.674 0.548322L12.6726 0.548671L12.7749 0.935371ZM15.4984 1.0174L15.6304 0.639837L15.6292 0.639394L15.4984 1.0174ZM17.6558 2.49123L17.3432 2.74081L17.3434 2.74111L17.6558 2.49123ZM18.1124 3.13107L18.4569 2.92772V2.92772L18.1124 3.13107ZM18.3263 3.55674L17.9601 3.71778L18.1145 4.06877L18.4717 3.92937L18.3263 3.55674ZM18.3804 3.53576L18.238 3.16196L18.2365 3.16252L18.3804 3.53576ZM19.8296 3.25686L19.8123 2.85723L19.8118 2.85725L19.8296 3.25686ZM22.389 3.90217L22.5917 3.55736L22.5908 3.55679L22.389 3.90217ZM24.2374 5.87365L24.5981 5.70072L24.5981 5.7006L24.2374 5.87365ZM24.7214 8.46037L25.1185 8.50863L25.1185 8.50817L24.7214 8.46037ZM24.4437 9.67336L24.0685 9.53487L23.9388 9.88624L24.2809 10.0387L24.4437 9.67336ZM24.5191 9.70724L24.3538 10.0715L24.3539 10.0715L24.5191 9.70724ZM25.7195 10.5248L25.9902 10.2304L25.9895 10.2298L25.7195 10.5248ZM27.0675 12.7725L27.4546 12.6715L27.4542 12.6702L27.0675 12.7725ZM26.9855 15.4959L27.363 15.628L27.3635 15.6267L26.9855 15.4959ZM25.5116 17.6533L25.2621 17.3408L25.2618 17.341L25.5116 17.6533ZM24.8718 18.11L24.6684 17.7655H24.6684L24.8718 18.11ZM21.7627 17.9187L22.1599 17.8717L22.1572 17.8489L22.152 17.8266L21.7627 17.9187ZM21.7655 17.9432L21.3681 17.9886L21.3717 18.0202L21.3803 18.0508L21.7655 17.9432ZM21.8124 18.0784L22.1848 17.932L22.1814 17.9239L21.8124 18.0784ZM22.0336 18.4145L22.3606 18.1841L22.338 18.152L22.3096 18.1249L22.0336 18.4145ZM22.3651 18.9856L22.7402 18.8467L22.7346 18.8314L22.7276 18.8166L22.3651 18.9856ZM22.5434 19.6435L22.9418 19.6075L22.9403 19.5909L22.9374 19.5745L22.5434 19.6435ZM22.5432 20.3184L22.9372 20.3874L22.94 20.371L22.9415 20.3544L22.5432 20.3184ZM22.3645 20.9812L22.7264 21.1515L22.7341 21.1353L22.7402 21.1185L22.3645 20.9812ZM22.02 21.5716L22.325 21.8304L22.3364 21.817L22.3466 21.8025L22.02 21.5716ZM21.5651 22.0255L21.797 22.3515L21.8106 22.3418L21.8233 22.3311L21.5651 22.0255ZM20.9781 22.3667L21.1166 22.742L21.1319 22.7363L21.1468 22.7294L20.9781 22.3667ZM20.3206 22.5432L20.3562 22.9416L20.3728 22.9401L20.3892 22.9372L20.3206 22.5432ZM19.6317 22.5416L19.5615 22.9354L19.5787 22.9385L19.5961 22.9401L19.6317 22.5416ZM18.9895 22.3669L18.8202 22.7293L18.8353 22.7364L18.8511 22.7422L18.9895 22.3669ZM18.3748 22.0057L18.1274 22.32L18.1339 22.3251L18.1407 22.33L18.3748 22.0057ZM17.9429 21.7658L18.0505 21.3806L18.0493 21.3802L17.9429 21.7658ZM17.232 21.8205L17.3882 22.1888L17.389 22.1884L17.232 21.8205ZM16.7945 22.1569L16.4799 21.9097L16.478 21.9122L16.7945 22.1569ZM16.5607 22.8057L16.9544 22.8761L16.9568 22.8626L16.9583 22.849L16.5607 22.8057ZM16.3876 23.4455L16.7499 23.615L16.757 23.5997L16.7629 23.5838L16.3876 23.4455ZM16.0371 24.0476L16.3419 24.3067L16.3533 24.2933L16.3635 24.2789L16.0371 24.0476ZM15.5899 24.4945L15.822 24.8202L15.8356 24.8105L15.8484 24.7997L15.5899 24.4945ZM14.9918 24.845L15.129 25.2208L15.1461 25.2145L15.1625 25.2067L14.9918 24.845ZM14.3347 25.0216L14.3698 25.42L14.3873 25.4185L14.4047 25.4154L14.3347 25.0216ZM13.6595 25.0206L13.5907 25.4146L13.6069 25.4174L13.6232 25.4189L13.6595 25.0206ZM13.015 24.8467L12.8467 25.2096L12.8611 25.2162L12.8759 25.2217L13.015 24.8467ZM12.4203 24.4995L12.1636 24.8063L12.1746 24.8155L12.1862 24.8239L12.4203 24.4995ZM11.9731 24.0547L11.6476 24.2872L11.6572 24.3006L11.6678 24.3132L11.9731 24.0547ZM11.6207 23.4535L11.2457 23.5926L11.2513 23.6077L11.2581 23.6223L11.6207 23.4535ZM11.4448 22.8067L11.0469 22.8475L11.0484 22.8624L11.0511 22.8772L11.4448 22.8067ZM11.2956 22.2662L10.9506 22.4686L10.9521 22.4712L11.2956 22.2662ZM10.7734 21.8178L10.9315 21.4504L10.9303 21.4499L10.7734 21.8178ZM10.2073 21.744L10.1531 21.3477L10.152 21.3478L10.2073 21.744ZM9.69817 21.9531L9.45261 21.6374L9.93006 22.2791L9.69817 21.9531ZM9.70695 21.9463L9.95252 22.2621L9.46472 21.628L9.70695 21.9463ZM9.69418 21.956L9.92702 22.2814L9.93509 22.2753L9.69418 21.956ZM9.64028 21.9959L9.87579 22.3194L9.88342 22.3136L9.64028 21.9959ZM9.02 22.3627L9.15886 22.7378L9.17422 22.7321L9.18906 22.7252L9.02 22.3627ZM8.36209 22.5409L8.39808 22.9393L8.41465 22.9378L8.43104 22.935L8.36209 22.5409ZM7.68727 22.5407L7.61826 22.9347L7.63466 22.9376L7.65124 22.9391L7.68727 22.5407ZM7.02444 22.3621L6.85408 22.724L6.8703 22.7316L6.88714 22.7378L7.02444 22.3621ZM6.43398 22.0175L6.1752 22.3226L6.18866 22.334L6.20306 22.3442L6.43398 22.0175ZM5.98008 21.5627L5.65415 21.7946L5.66379 21.8081L5.67453 21.8208L5.98008 21.5627ZM5.63888 20.9756L5.26361 21.1141L5.26928 21.1295L5.27619 21.1443L5.63888 20.9756ZM5.46245 20.3182L5.06403 20.3538L5.06551 20.3703L5.06836 20.3867L5.46245 20.3182ZM5.46397 19.6292L5.07018 19.559L5.06711 19.5763L5.06555 19.5937L5.46397 19.6292ZM5.63865 18.9871L5.27627 18.8177L5.26917 18.8329L5.26337 18.8486L5.63865 18.9871ZM5.9999 18.3724L5.68561 18.1249L5.68047 18.1315L5.67561 18.1382L5.9999 18.3724ZM6.23977 17.9404L6.62501 18.0481L6.62536 18.0468L6.23977 17.9404ZM6.18508 17.2295L5.81685 17.3857L5.81719 17.3865L6.18508 17.2295ZM5.84875 16.792L6.09589 16.4775L6.09345 16.4756L5.84875 16.792ZM5.19994 16.5582L5.12955 16.952L5.143 16.9544L5.15658 16.9559L5.19994 16.5582ZM4.56013 16.3851L4.39057 16.7474L4.40594 16.7546L4.42186 16.7605L4.56013 16.3851ZM3.95802 16.0347L3.69891 16.3394L3.71235 16.3509L3.72675 16.3611L3.95802 16.0347ZM3.51113 15.5874L3.18536 15.8195L3.19506 15.8332L3.20586 15.8459L3.51113 15.5874ZM3.16058 14.9893L2.78485 15.1265L2.7911 15.1436L2.79888 15.1601L3.16058 14.9893ZM2.98404 14.3323L2.58558 14.3674L2.58713 14.3849L2.59021 14.4023L2.98404 14.3323ZM2.98504 13.657L2.59098 13.5883L2.58817 13.6044L2.58668 13.6208L2.98504 13.657ZM3.15894 13.0125L2.79604 12.8443L2.78939 12.8586L2.78389 12.8734L3.15894 13.0125ZM3.5061 12.4178L3.19932 12.1612L3.1901 12.1722L3.1817 12.1838L3.5061 12.4178ZM3.9509 11.9707L3.71842 11.6452L3.70501 11.6547L3.69243 11.6654L3.9509 11.9707ZM4.55214 11.6183L4.41301 11.2432L4.39791 11.2488L4.38331 11.2556L4.55214 11.6183ZM5.19896 11.4424L5.15817 11.0445L5.14324 11.046L5.12847 11.0486L5.19896 11.4424ZM5.73938 11.2932L5.53696 10.9482L5.53439 10.9497L5.73938 11.2932ZM6.18781 10.7709L6.55523 10.929L6.55575 10.9278L6.18781 10.7709ZM6.26164 10.2049L6.65794 10.1506L6.65779 10.1495L6.26164 10.2049ZM6.05248 9.69575L6.36823 9.45018L5.72655 9.92763L6.05248 9.69575ZM6.0593 9.70451L5.74355 9.95008L6.37762 9.46229L6.0593 9.70451ZM6.04965 9.69177L5.72423 9.9246L5.73036 9.93272L6.04965 9.69177ZM6.00964 9.6378L5.68617 9.8733L5.69201 9.88093L6.00964 9.6378ZM5.64293 9.01755L5.26781 9.15641L5.2735 9.17177L5.28042 9.18661L5.64293 9.01755ZM5.46467 8.35967L5.06629 8.39566L5.06779 8.41223L5.07065 8.42862L5.46467 8.35967ZM5.46488 7.68481L5.07088 7.61579L5.06801 7.63219L5.06651 7.64877L5.46488 7.68481ZM5.64351 7.022L5.28161 6.85163L5.27397 6.86786L5.26781 6.8847L5.64351 7.022ZM5.98806 6.43154L5.68304 6.17276L5.67163 6.18621L5.66145 6.20061L5.98806 6.43154ZM6.4429 5.97764L6.21102 5.65171L6.19747 5.66135L6.18476 5.67209L6.4429 5.97764ZM7.02997 5.63644L6.8915 5.26117L6.87613 5.26684L6.86127 5.27375L7.02997 5.63644ZM7.68745 5.46L7.65184 5.06159L7.63528 5.06307L7.6189 5.06592L7.68745 5.46ZM8.37638 5.46153L8.44658 5.06773L8.42936 5.06466L8.41195 5.06311L8.37638 5.46153ZM9.01855 5.63621L9.18789 5.27383L9.1727 5.26673L9.15698 5.26093L9.01855 5.63621ZM9.63324 5.99745L9.88068 5.68317L9.87415 5.67803L9.86741 5.67316L9.63324 5.99745ZM10.0652 6.23732L9.95751 6.62257L9.95879 6.62292L10.0652 6.23732ZM10.7761 6.18264L10.6199 5.8144L10.6191 5.81475L10.7761 6.18264ZM11.2136 5.84631L11.5281 6.09344L11.53 6.09101L11.2136 5.84631ZM11.4474 5.19748L11.0536 5.12709L11.0512 5.14054L11.0497 5.15413L11.4474 5.19748ZM11.6205 4.55768L11.2582 4.38813L11.251 4.4035L11.2451 4.41942L11.6205 4.55768ZM11.9709 3.95557L11.6662 3.69646L11.6548 3.70991L11.6446 3.7243L11.9709 3.95557ZM12.4182 3.50869L12.1861 3.18292L12.1724 3.19262L12.1597 3.20343L12.4182 3.50869ZM13.0163 3.15814L12.8791 2.78241L12.862 2.78865L12.8455 2.79643L13.0163 3.15814ZM13.6733 2.9816L13.6383 2.58314L13.6207 2.58468L13.6034 2.58776L13.6733 2.9816ZM14.3486 2.98259L14.4173 2.58854L14.4012 2.58572L14.3848 2.58424L14.3486 2.98259ZM14.9931 3.1565L15.1614 2.7936L15.147 2.78695L15.1322 2.78145L14.9931 3.1565ZM15.5878 3.50366L15.8444 3.19687L15.8334 3.18766L15.8218 3.17925L15.5878 3.50366ZM16.0349 3.94846L16.3604 3.71598L16.3509 3.70257L16.3402 3.68999L16.0349 3.94846ZM16.3874 4.5497L16.7624 4.41057L16.7568 4.39547L16.75 4.38087L16.3874 4.5497ZM16.5632 5.19652L16.9612 5.15573L16.9596 5.1408L16.957 5.12602L16.5632 5.19652ZM16.7124 5.73693L17.0574 5.53452L17.0559 5.53195L16.7124 5.73693ZM17.2347 6.18537L17.0766 6.55279L17.0778 6.55331L17.2347 6.18537ZM17.8007 6.2592L17.855 6.6555L17.8561 6.65535L17.8007 6.2592ZM18.3099 6.05005L18.5554 6.36578L18.078 5.72411L18.3099 6.05005ZM18.3011 6.05686L18.0555 5.74112L18.5433 6.37521L18.3011 6.05686ZM18.3138 6.04721L18.081 5.7218L18.0729 5.72792L18.3138 6.04721ZM18.3678 6.00719L18.1323 5.68373L18.1247 5.68956L18.3678 6.00719ZM18.988 5.64049L18.8492 5.26537L18.8338 5.27106L18.819 5.27798L18.988 5.64049ZM19.6459 5.46222L19.61 5.06385L19.5934 5.06534L19.577 5.06821L19.6459 5.46222ZM20.3208 5.46244L20.3898 5.06844L20.3734 5.06556L20.3568 5.06406L20.3208 5.46244ZM20.9836 5.64107L21.154 5.27916L21.1378 5.27153L21.1209 5.26537L20.9836 5.64107ZM21.5741 5.98562L21.8329 5.6806L21.8194 5.66919L21.805 5.65901L21.5741 5.98562ZM22.028 6.44046L22.3539 6.20858L22.3443 6.19503L22.3335 6.18232L22.028 6.44046ZM22.3692 7.02753L22.7444 6.88906L22.7388 6.87369L22.7319 6.85883L22.3692 7.02753ZM22.5456 7.68502L22.944 7.64942L22.9425 7.63286L22.9397 7.61648L22.5456 7.68502ZM22.5441 8.37392L22.9379 8.44412L22.9409 8.4269L22.9425 8.40949L22.5441 8.37392ZM22.3694 9.01611L22.7318 9.18545L22.7389 9.17026L22.7447 9.15454L22.3694 9.01611ZM22.0081 9.63082L22.3224 9.87825L22.3276 9.87173L22.3324 9.86499L22.0081 9.63082ZM21.7683 10.0627L21.383 9.95507L21.3827 9.95634L21.7683 10.0627ZM21.823 10.7737L22.1912 10.6174L22.1909 10.6166L21.823 10.7737ZM22.1593 11.2112L21.9122 11.5257L21.9146 11.5276L22.1593 11.2112ZM22.8081 11.4449L22.8785 11.0512L22.8651 11.0488L22.8515 11.0473L22.8081 11.4449ZM23.4479 11.618L23.6175 11.2557L23.6021 11.2486L23.5862 11.2427L23.4479 11.618ZM24.05 11.9685L24.3091 11.6637L24.2957 11.6523L24.2813 11.6421L24.05 11.9685ZM24.4969 12.4157L24.8227 12.1836L24.813 12.17L24.8022 12.1572L24.4969 12.4157ZM24.8475 13.0139L25.2232 12.8766L25.217 12.8595L25.2092 12.8431L24.8475 13.0139ZM25.024 13.6709L25.4225 13.6358L25.4209 13.6183L25.4178 13.6009L25.024 13.6709ZM25.023 14.3462L25.4171 14.4149L25.4199 14.3987L25.4214 14.3824L25.023 14.3462ZM24.8491 14.9906L25.212 15.1589L25.2187 15.1445L25.2242 15.1297L24.8491 14.9906ZM24.5019 15.5853L24.8087 15.842L24.8179 15.831L24.8263 15.8193L24.5019 15.5853ZM24.0572 16.0325L24.2896 16.358L24.3031 16.3484L24.3156 16.3378L24.0572 16.0325ZM23.4559 16.3849L23.595 16.7599L23.6101 16.7543L23.6247 16.7475L23.4559 16.3849ZM22.8157 16.5596L22.8181 16.9596L22.8528 16.9594L22.8869 16.9532L22.8157 16.5596ZM22.0472 16.8795L22.33 17.1624L22.335 17.1573L22.3399 17.1522L22.0472 16.8795ZM21.8412 17.1702L22.1964 17.3543L22.199 17.349L21.8412 17.1702ZM21.7264 17.6206L22.1264 17.6187L22.1264 17.6176L21.7264 17.6206ZM21.7273 17.6533L22.127 17.638L22.1268 17.6334L21.7273 17.6533ZM22.9238 16.549L22.974 16.9458H22.974L22.9238 16.549ZM22.8775 16.5546L22.8266 16.1579L22.9222 16.9521L22.8775 16.5546ZM22.9561 16.545L23.0036 16.9421L22.9096 16.1477L22.9561 16.545ZM23.6085 16.3244L23.764 16.693L23.458 15.9538L23.6085 16.3244ZM23.5505 16.3483L23.3965 15.9792L23.6998 16.7194L23.5505 16.3483ZM24.5956 15.4686L24.9127 15.7125L24.2799 15.223L24.5956 15.4686ZM24.5717 15.4994L24.2559 15.2538L24.8861 15.7467L24.5717 15.4994ZM24.7898 15.1404L24.4192 14.9899L25.1583 15.296L24.7898 15.1404ZM24.8133 15.0833L25.1844 15.2326L24.4441 14.9294L24.8133 15.0833ZM25.0058 13.5053L25.4023 13.4529L24.6084 13.5507L25.0058 13.5053ZM25.0159 13.5892L24.6191 13.6396L25.4135 13.5456L25.0159 13.5892ZM24.7898 12.8654L25.1595 12.7128L24.4192 13.016L24.7898 12.8654ZM24.7996 12.8894L24.4297 13.0416L25.1703 12.7392L24.7996 12.8894ZM23.6085 11.6815L23.458 12.052L23.764 11.3129L23.6085 11.6815ZM23.5505 11.6575L23.6998 11.2865L23.3965 12.0267L23.5505 11.6575ZM22.1238 9.48576L22.4437 9.72577L21.808 9.24018L22.1238 9.48576ZM22.0855 9.53496L21.7697 9.28938L22.3976 9.78507L22.0855 9.53496ZM22.3152 9.1549L21.9446 9.00436L22.6849 9.3075L22.3152 9.1549ZM22.3251 9.13057L22.6958 9.28075L21.9552 8.97839L22.3251 9.13057ZM22.5667 7.82053L22.1707 7.8771L22.963 7.76584L22.5667 7.82053ZM22.562 7.78722L22.9577 7.72917L22.1659 7.84334L22.562 7.78722ZM22.5388 7.61586L22.1419 7.66631L22.9364 7.57256L22.5388 7.61586ZM22.5284 7.53068L22.9249 7.47783L22.131 7.57611L22.5284 7.53068ZM22.3179 6.89631L22.6876 6.74367L21.9473 7.04688L22.3179 6.89631ZM22.3275 6.9197L21.9575 7.07182L22.6982 6.76956L22.3275 6.9197ZM19.7777 5.44162L19.8342 5.8376L19.723 5.04537L19.7777 5.44162ZM19.7462 5.4461L19.6881 5.05034L19.8023 5.84214L19.7462 5.4461ZM19.5762 5.46918L19.6268 5.86597L19.5327 5.07155L19.5762 5.46918ZM19.4878 5.4799L19.435 5.08341L19.5332 5.87731L19.4878 5.4799ZM18.8534 5.69318L18.7008 5.32346L19.004 6.06377L18.8534 5.69318ZM18.8777 5.68327L19.0299 6.05318L18.7275 5.31253L18.8777 5.68327ZM16.5514 5.08182L16.9482 5.0316L16.9482 5.03159L16.5514 5.08182ZM16.5571 5.12824L16.1603 5.17913L16.9546 5.08348L16.5571 5.12824ZM16.5474 5.04935L16.9446 5.00188L16.1501 5.09578L16.5474 5.04935ZM16.3269 4.39709L16.6954 4.24157L15.9563 4.54765L16.3269 4.39709ZM16.3508 4.45512L15.9816 4.60907L16.7219 4.30582L16.3508 4.45512ZM15.471 3.40998L15.7149 3.09293L15.2254 3.72572L15.471 3.40998ZM15.5018 3.43393L15.2562 3.74967L15.7491 3.11951L15.5018 3.43393ZM15.1429 3.21584L14.9923 3.58643L15.2984 2.84731L15.1429 3.21584ZM15.0858 3.19231L15.235 2.8212L14.9319 3.56151L15.0858 3.19231ZM13.5077 2.99982L13.4553 2.60328L13.5532 3.39724L13.5077 2.99982ZM13.5917 2.98967L13.6421 3.38648L13.5481 2.59205L13.5917 2.98967ZM12.8679 3.21584L12.7153 2.84611L13.0184 3.58642L12.8679 3.21584ZM12.8918 3.20608L13.044 3.57599L12.7416 2.83533L12.8918 3.20608ZM11.6839 4.39709L12.0545 4.54765L11.3154 4.24157L11.6839 4.39709ZM11.66 4.45512L11.2889 4.30582L12.0292 4.60907L11.66 4.45512ZM9.4882 5.88186L9.72821 5.56186L9.24263 6.1976L9.4882 5.88186ZM9.53737 5.92009L9.29179 6.23584L9.78748 5.60794L9.53737 5.92009ZM9.15734 5.69045L9.00679 6.06104L9.30998 5.32072L9.15734 5.69045ZM9.13311 5.68054L9.28328 5.3098L8.9809 6.05044L9.13311 5.68054ZM7.82297 5.43889L7.87954 5.83487L7.76831 5.04264L7.82297 5.43889ZM7.78964 5.44363L7.73158 5.04786L7.84574 5.83968L7.78964 5.44363ZM7.6183 5.46686L7.66875 5.86366L7.57501 5.06921L7.6183 5.46686ZM7.53313 5.47717L7.48026 5.08068L7.57854 5.87458L7.53313 5.47717ZM6.89875 5.68771L6.74612 5.31798L7.04931 6.0583L6.89875 5.68771ZM6.92207 5.67818L7.07423 6.04811L6.77194 5.30742L6.92207 5.67818ZM5.44406 8.22795L5.84004 8.17138L5.04781 8.2826L5.44406 8.22795ZM5.44854 8.25942L5.05278 8.31748L5.84459 8.2033L5.44854 8.25942ZM5.47163 8.42943L5.86841 8.37883L5.07399 8.47287L5.47163 8.42943ZM5.48234 8.51779L5.08585 8.57066L5.87976 8.47237L5.48234 8.51779ZM5.69563 9.15217L5.3259 9.30481L6.06621 9.00161L5.69563 9.15217ZM5.68571 9.12792L6.05561 8.9757L5.31497 9.27809L5.68571 9.12792ZM5.08424 11.4542L5.03402 11.0574L5.034 11.0574L5.08424 11.4542ZM5.13068 11.4485L5.18156 11.8453L5.08594 11.051L5.13068 11.4485ZM5.05185 11.4582L5.00437 11.061L5.09828 11.8555L5.05185 11.4582ZM4.39953 11.6787L4.24401 11.3102L4.55009 12.0493L4.39953 11.6787ZM4.45755 11.6548L4.6115 12.024L4.30824 11.2837L4.45755 11.6548ZM3.41242 12.5346L3.09537 12.2907L3.72816 12.7802L3.41242 12.5346ZM3.43638 12.5038L3.75212 12.7494L3.12196 12.2565L3.43638 12.5038ZM3.21828 12.8627L3.58887 13.0133L2.84975 12.7072L3.21828 12.8627ZM3.19475 12.9198L2.82364 12.7706L3.56396 13.0737L3.19475 12.9198ZM3.00227 14.4979L2.60572 14.5503L3.39968 14.4524L3.00227 14.4979ZM2.99211 14.4139L3.38892 14.3635L2.59449 14.4575L2.99211 14.4139ZM3.21828 15.1377L2.84856 15.2904L3.58887 14.9872L3.21828 15.1377ZM3.20852 15.1138L3.57843 14.9616L2.83777 15.264L3.20852 15.1138ZM4.39953 16.3217L4.55009 15.9511L4.244 16.6902L4.39953 16.3217ZM4.45756 16.3456L4.30826 16.7167L4.61152 15.9764L4.45756 16.3456ZM5.69289 18.8483L6.06347 18.9988L5.32316 18.6956L5.69289 18.8483ZM5.68297 18.8725L5.31222 18.7224L6.05287 19.0248L5.68297 18.8725ZM5.44133 20.1826L5.83731 20.1261L5.04508 20.2373L5.44133 20.1826ZM5.44607 20.216L5.05031 20.274L5.84212 20.1599L5.44607 20.216ZM5.4693 20.3873L5.8661 20.3369L5.07165 20.4306L5.4693 20.3873ZM5.47961 20.4725L5.08312 20.5253L5.87702 20.4271L5.47961 20.4725ZM5.69016 21.1069L5.32043 21.2595L6.06073 20.9563L5.69016 21.1069ZM5.68063 21.0835L6.05055 20.9314L5.30987 21.2337L5.68063 21.0835ZM8.23039 22.5615L8.17381 22.1656L8.28507 22.9578L8.23039 22.5615ZM8.26188 22.5571L8.31997 22.9528L8.20574 22.161L8.26188 22.5571ZM8.43184 22.534L8.38124 22.1372L8.47528 22.9316L8.43184 22.534ZM8.52024 22.5233L8.57309 22.9198L8.47483 22.1258L8.52024 22.5233ZM9.15461 22.31L9.30724 22.6797L9.00406 21.9394L9.15461 22.31ZM9.13044 22.3199L8.97824 21.95L9.28064 22.6906L9.13044 22.3199ZM11.4566 22.9214L11.0598 22.9716V22.9716L11.4566 22.9214ZM11.451 22.8749L11.8477 22.8241L11.0535 22.9197L11.451 22.8749ZM11.4607 22.9539L11.0635 23.0013L11.858 22.9074L11.4607 22.9539ZM11.6812 23.6061L11.3126 23.7616L12.0518 23.4555L11.6812 23.6061ZM11.6573 23.5481L12.0264 23.3941L11.2862 23.6974L11.6573 23.5481ZM12.537 24.5932L12.2932 24.9102L12.7826 24.2774L12.537 24.5932ZM12.5062 24.5692L12.7518 24.2535L12.2589 24.8836L12.5062 24.5692ZM12.8652 24.7873L13.0157 24.4167L12.7096 25.1559L12.8652 24.7873ZM12.9223 24.8109L12.773 25.182L13.0762 24.4417L12.9223 24.8109ZM14.5003 25.0033L14.5528 25.3999L14.4549 24.6059L14.5003 25.0033ZM14.4164 25.0135L14.366 24.6167L14.46 25.4111L14.4164 25.0135ZM15.1402 24.7873L15.2928 25.157L14.9896 24.4167L15.1402 24.7873ZM15.1162 24.7971L14.9641 24.4272L15.2664 25.1679L15.1162 24.7971ZM16.3241 23.6061L15.9536 23.4555L16.6927 23.7616L16.3241 23.6061ZM16.3481 23.5481L16.7191 23.6974L15.9789 23.3941L16.3481 23.5481ZM18.5198 22.1213L18.2798 22.4413L18.7654 21.8056L18.5198 22.1213ZM18.4706 22.083L18.7162 21.7673L18.2205 22.3952L18.4706 22.083ZM18.8507 22.3127L19.0013 21.9421L18.6981 22.6824L18.8507 22.3127ZM18.875 22.3226L18.7248 22.6934L19.0272 21.9527L18.875 22.3226ZM20.1851 22.5643L20.1285 22.1683L20.2397 22.9605L20.1851 22.5643ZM20.2184 22.5595L20.2764 22.9553L20.1623 22.1635L20.2184 22.5595ZM20.3897 22.5363L20.3393 22.1395L20.433 22.934L20.3897 22.5363ZM20.4749 22.526L20.5278 22.9225L20.4295 22.1286L20.4749 22.526ZM21.1093 22.3154L21.2619 22.6852L20.9588 21.9448L21.1093 22.3154ZM21.0859 22.325L20.9338 21.9551L21.236 22.6958L21.0859 22.325ZM22.564 19.7752L22.168 19.8318L22.9602 19.7206L22.564 19.7752ZM22.5595 19.7437L22.9553 19.6857L22.1635 19.7999L22.5595 19.7437ZM22.5364 19.5737L22.1396 19.6244L22.9341 19.5303L22.5364 19.5737ZM22.5257 19.4854L22.9222 19.4325L22.1283 19.5308L22.5257 19.4854ZM22.3124 18.851L22.6822 18.6984L21.9418 19.0015L22.3124 18.851ZM22.3223 18.8753L21.9524 19.0274L22.6931 18.7251L22.3223 18.8753ZM5.92255 18.4682L6.23829 18.7138L5.61039 18.2181L5.92255 18.4682ZM5.8843 18.5174L5.5643 18.2774L6.20004 18.763L5.8843 18.5174ZM17.2527 14.4259L17.6471 14.493L17.6495 14.4785L17.6509 14.464L17.2527 14.4259ZM17.2513 13.5586L17.6494 13.5195L17.648 13.5059L17.6458 13.4925L17.2513 13.5586ZM17.0318 12.7436L17.4063 12.603L17.4012 12.5894L17.3951 12.5762L17.0318 12.7436ZM16.5919 11.9879L16.916 11.7534L16.908 11.7423L16.8992 11.7318L16.5919 11.9879ZM16.0017 11.399L16.2577 11.0917L16.247 11.0828L16.2356 11.0746L16.0017 11.399ZM15.2624 10.968L15.4307 10.6052L15.4166 10.5986L15.4021 10.5932L15.2624 10.968ZM14.4253 10.7423L14.4925 10.348L14.4781 10.3455L14.4634 10.3441L14.4253 10.7423ZM13.5571 10.7431L13.5179 10.345L13.5045 10.3463L13.4911 10.3485L13.5571 10.7431ZM12.7407 10.9628L12.6001 10.5883L12.5865 10.5934L12.5733 10.5995L12.7407 10.9628ZM11.985 11.4027L11.7505 11.0786L11.7394 11.0866L11.7289 11.0954L11.985 11.4027ZM11.3961 11.9929L11.0888 11.7369L11.0799 11.7476L11.0717 11.759L11.3961 11.9929ZM10.9651 12.7322L10.6022 12.5639L10.5957 12.578L10.5903 12.5925L10.9651 12.7322ZM10.7393 13.5693L10.345 13.5021L10.3426 13.5165L10.3412 13.5312L10.7393 13.5693ZM10.7402 14.4375L10.3421 14.4766L10.3434 14.4901L10.3456 14.5035L10.7402 14.4375ZM10.9599 15.2539L10.5854 15.3945L10.5905 15.4081L10.5966 15.4213L10.9599 15.2539ZM11.3998 16.0096L11.0757 16.2441L11.0837 16.2552L11.0925 16.2657L11.3998 16.0096ZM11.99 16.5985L11.734 16.9058L11.7447 16.9147L11.756 16.9229L11.99 16.5985ZM12.7293 17.0295L12.561 17.3924L12.5751 17.3989L12.5896 17.4043L12.7293 17.0295ZM13.5664 17.2552L13.4991 17.6495L13.5136 17.652L13.5282 17.6534L13.5664 17.2552ZM14.4346 17.2544L14.4737 17.6525L14.4872 17.6512L14.5006 17.649L14.4346 17.2544ZM15.251 17.0347L15.3916 17.4092L15.4052 17.4041L15.4184 17.398L15.251 17.0347ZM16.0067 16.5948L16.2412 16.9189L16.2522 16.9109L16.2627 16.9021L16.0067 16.5948ZM16.5955 16.0046L16.9029 16.2606L16.9118 16.2499L16.92 16.2386L16.5955 16.0046ZM17.0266 15.2653L17.3894 15.4336L17.396 15.4196L17.4014 15.405L17.0266 15.2653ZM16.9695 15.4111L16.5989 15.2605L17.3395 15.5631L16.9695 15.4111ZM16.9772 15.3922L17.3478 15.5426L16.6071 15.2404L16.9772 15.3922ZM15.4081 16.9724L15.5626 17.3414L15.2576 16.6018L15.4081 16.9724ZM15.3573 16.9933L15.2037 16.624L15.5073 17.3641L15.3573 16.9933ZM14.3117 17.2732L14.2551 16.8772L14.3662 17.6694L14.3117 17.2732ZM14.3497 17.2678L14.4078 17.6635L14.2936 16.8717L14.3497 17.2678ZM14.487 17.249L14.4352 16.8523L14.5308 17.6466L14.487 17.249ZM14.6015 17.2349L14.6554 17.6312L14.5561 16.8375L14.6015 17.2349ZM12.5835 16.9724L12.7341 16.6018L12.4315 17.3424L12.5835 16.9724ZM12.6023 16.98L12.4518 17.3506L12.7541 16.61L12.6023 16.98ZM11.0222 15.4111L10.6532 15.5655L11.3928 15.2605L11.0222 15.4111ZM11.0013 15.3602L11.3706 15.2066L10.6305 15.5102L11.0013 15.3602ZM10.7214 14.3146L11.1174 14.258L10.3252 14.3691L10.7214 14.3146ZM10.7268 14.3526L10.3311 14.4107L11.1229 14.2966L10.7268 14.3526ZM10.7456 14.49L11.1423 14.4381L10.348 14.5337L10.7456 14.49ZM10.7597 14.6044L10.3634 14.6583L11.1571 14.559L10.7597 14.6044ZM11.0222 12.5864L11.3928 12.737L10.6522 12.4344L11.0222 12.5864ZM11.0145 12.6052L10.6439 12.4548L11.3846 12.7571L11.0145 12.6052ZM12.5835 11.0251L12.4291 10.6561L12.7341 11.3957L12.5835 11.0251ZM12.6343 11.0042L12.788 11.3735L12.4844 10.6334L12.6343 11.0042ZM13.68 10.7243L13.7366 11.1203L13.6255 10.3281L13.68 10.7243ZM13.642 10.7297L13.5839 10.334L13.698 11.1258L13.642 10.7297ZM13.5046 10.7485L13.5565 11.1452L13.4609 10.3509L13.5046 10.7485ZM13.3902 10.7626L13.3363 10.3663L13.4356 11.16L13.3902 10.7626ZM15.4081 11.0251L15.2576 11.3957L15.5602 10.6551L15.4081 11.0251ZM15.3894 11.0175L15.5398 10.6468L15.2375 11.3875L15.3894 11.0175ZM16.9695 12.5864L17.3385 12.432L16.5989 12.737L16.9695 12.5864ZM16.9904 12.6373L16.6211 12.791L17.3612 12.4873L16.9904 12.6373ZM17.2703 13.6829L16.8743 13.7395L17.6665 13.6284L17.2703 13.6829ZM17.2649 13.6449L17.6606 13.5869L16.8688 13.7009L17.2649 13.6449ZM17.2456 13.5038L16.8489 13.5554L17.6432 13.4599L17.2456 13.5038ZM17.232 13.3931L17.6284 13.3395L16.8346 13.4385L17.232 13.3931ZM19.4525 14.1367L19.0555 14.088L19.0534 14.1054L19.0528 14.1229L19.4525 14.1367ZM19.4605 14.0001L19.8605 13.9983V13.9981L19.4605 14.0001ZM18.4925 10.9021L18.1676 11.1354L18.1679 11.1358L18.4925 10.9021ZM17.2101 9.58957L16.9682 9.90811L16.969 9.90874L17.2101 9.58957ZM15.7855 8.84035L15.9228 8.46467L15.9227 8.46461L15.7855 8.84035ZM12.5042 8.74465L12.6139 9.12934L12.6141 9.12926L12.5042 8.74465ZM9.84642 10.4536L9.53803 10.1989L9.53652 10.2007L9.84642 10.4536ZM9.30502 11.2001L8.96265 10.9933L8.96233 10.9938L9.30502 11.2001ZM8.90306 12.0396L9.27322 12.1912L9.27323 12.1912L8.90306 12.0396ZM8.5476 13.6529L8.14884 13.6213L8.14881 13.6217L8.5476 13.6529ZM9.31322 16.8083L9.65548 16.6013L9.65533 16.601L9.31322 16.8083ZM11.6429 18.922L11.4774 19.2861L11.4782 19.2865L11.6429 18.922ZM12.5179 19.2556L12.6269 18.8707L12.6264 18.8706L12.5179 19.2556ZM13.464 19.4251L13.5124 19.0281L13.5115 19.028L13.464 19.4251ZM15.1484 19.3321L15.0698 18.9399L15.0688 18.9401L15.1484 19.3321ZM19.3648 14.9654L19.76 15.0269L19.7602 15.0257L19.3648 14.9654ZM24.8404 18.2341C24.8332 18.2156 24.826 18.197 24.8188 18.1784L24.0735 18.4693C24.0803 18.4868 24.0871 18.5043 24.0939 18.5218L24.8404 18.2341ZM25.1456 19.8093C25.1224 19.2895 25.0349 18.7448 24.8409 18.2355L24.0933 18.5203C24.2493 18.9298 24.3259 19.386 24.3464 19.845L25.1456 19.8093ZM24.4461 22.5883C24.9287 21.7622 25.1874 20.7733 25.1456 19.8098L24.3464 19.8445C24.3812 20.6475 24.1641 21.4851 23.7553 22.1848L24.4461 22.5883ZM22.3023 24.5956C23.196 24.1667 23.9528 23.4271 24.4455 22.5893L23.7559 22.1838C23.3353 22.8991 22.6921 23.5212 21.9562 23.8744L22.3023 24.5956ZM19.4947 25.1161C20.4729 25.2338 21.4521 25.0032 22.3022 24.5957L21.9563 23.8743C21.2095 24.2323 20.384 24.4174 19.5903 24.3218L19.4947 25.1161ZM18.191 24.8166C18.6227 24.9759 19.047 25.0617 19.4942 25.116L19.5908 24.3219C19.1848 24.2725 18.8249 24.1977 18.468 24.066L18.191 24.8166ZM18.6599 24.6819C18.6716 24.6561 18.6833 24.6302 18.6949 24.6041L17.9642 24.2785C17.9534 24.3027 17.9424 24.327 17.9314 24.3514L18.6599 24.6819ZM17.7731 25.9871C18.1185 25.6097 18.4384 25.1703 18.6599 24.6818L17.9313 24.3514C17.7536 24.7434 17.4883 25.1134 17.183 25.4469L17.7731 25.9871ZM15.3327 27.4518C16.252 27.2086 17.126 26.6909 17.7725 25.9878L17.1836 25.4463C16.6434 26.0338 15.9041 26.4731 15.1281 26.6784L15.3327 27.4518ZM12.3762 27.361C13.3189 27.6873 14.3817 27.6998 15.3314 27.4521L15.1294 26.678C14.3182 26.8896 13.4176 26.8749 12.6378 26.605L12.3762 27.361ZM10.0369 25.7588C10.6449 26.5203 11.4898 27.051 12.3749 27.3606L12.639 26.6055C11.8671 26.3354 11.1588 25.8817 10.6621 25.2596L10.0369 25.7588ZM9.54844 25.0727C9.6974 25.325 9.87063 25.5509 10.0372 25.7591L10.6619 25.2593C10.5003 25.0574 10.3564 24.8676 10.2373 24.666L9.54844 25.0727ZM9.31287 24.6047C9.38049 24.7585 9.45654 24.917 9.54844 25.0727L10.2373 24.666C10.1676 24.5478 10.1059 24.4206 10.0452 24.2827L9.31287 24.6047ZM9.76876 24.8379C9.78727 24.8308 9.80584 24.8236 9.82444 24.8163L9.53361 24.0711C9.51615 24.0779 9.49864 24.0847 9.48108 24.0914L9.76876 24.8379ZM8.19356 25.1432C8.71341 25.1199 9.25805 25.0325 9.76732 24.8385L9.48252 24.0909C9.07304 24.2469 8.6169 24.3235 8.15784 24.344L8.19356 25.1432ZM5.41455 24.4436C6.24068 24.9263 7.22961 25.185 8.19302 25.1432L8.15838 24.344C7.35539 24.3788 6.51776 24.1616 5.81811 23.7529L5.41455 24.4436ZM3.40726 22.2998C3.83614 23.1936 4.57575 23.9504 5.41357 24.4431L5.81908 23.7535C5.10378 23.3328 4.48167 22.6897 4.12852 21.9537L3.40726 22.2998ZM2.88677 19.4923C2.76903 20.4705 2.99963 21.4496 3.4072 22.2997L4.12858 21.9538C3.77053 21.2071 3.58551 20.3815 3.68104 19.5879L2.88677 19.4923ZM3.18631 18.1886C3.02699 18.6203 2.94119 19.0446 2.88683 19.4918L3.68098 19.5883C3.73033 19.1823 3.80513 18.8224 3.93684 18.4656L3.18631 18.1886ZM3.321 18.6575C3.34677 18.6691 3.37268 18.6808 3.39874 18.6924L3.72441 17.9617C3.70019 17.9509 3.6759 17.94 3.6515 17.9289L3.321 18.6575ZM2.01578 17.7707C2.39314 18.1161 2.83252 18.436 3.32107 18.6575L3.65143 17.9289C3.25951 17.7512 2.88952 17.4859 2.55594 17.1806L2.01578 17.7707ZM0.551112 15.3302C0.794284 16.2495 1.31199 17.1235 2.01512 17.7701L2.5566 17.1812C1.96911 16.641 1.52978 15.9017 1.32451 15.1257L0.551112 15.3302ZM0.641835 12.3737C0.315606 13.3165 0.303024 14.3792 0.550766 15.3289L1.32486 15.127C1.11323 14.3157 1.12799 13.4152 1.39785 12.6353L0.641835 12.3737ZM2.2441 10.0345C1.48259 10.6425 0.951904 11.4874 0.642281 12.3724L1.39741 12.6366C1.66747 11.8646 2.12117 11.1564 2.74325 10.6597L2.2441 10.0345ZM2.93016 9.546C2.67784 9.69496 2.45199 9.86818 2.24379 10.0347L2.74355 10.6594C2.94551 10.4979 3.13528 10.3539 3.33687 10.2349L2.93016 9.546ZM3.39814 9.31043C3.24441 9.37804 3.08583 9.4541 2.93016 9.546L3.33687 10.2349C3.45504 10.1651 3.58223 10.1034 3.72022 10.0427L3.39814 9.31043ZM3.16496 9.76633C3.1721 9.78483 3.17929 9.8034 3.18655 9.82201L3.93181 9.53115C3.925 9.5137 3.91821 9.4962 3.91144 9.47863L3.16496 9.76633ZM2.8597 8.19112C2.88293 8.71097 2.9704 9.25561 3.16441 9.76488L3.912 9.48008C3.75601 9.0706 3.67941 8.61446 3.6589 8.1554L2.8597 8.19112ZM3.55923 5.41211C3.07659 6.23823 2.81791 7.22717 2.85967 8.19058L3.65892 8.15594C3.62412 7.35295 3.84123 6.51532 4.24999 5.81567L3.55923 5.41211ZM5.70304 3.40482C4.8093 3.8337 4.05247 4.57331 3.5598 5.41113L4.24941 5.81664C4.67003 5.10134 5.3132 4.47923 6.04915 4.12608L5.70304 3.40482ZM8.51062 2.88433C7.53241 2.76658 6.55325 2.99718 5.70316 3.40476L6.04903 4.12614C6.79581 3.76809 7.62134 3.58306 8.41501 3.6786L8.51062 2.88433ZM9.81429 3.18387C9.38257 3.02455 8.95829 2.93874 8.51108 2.88439L8.41455 3.67854C8.82056 3.72789 9.18042 3.80269 9.53732 3.93439L9.81429 3.18387ZM9.34541 3.31857C9.33373 3.34433 9.32206 3.37024 9.31045 3.39629L10.0412 3.72198C10.052 3.69775 10.0629 3.67345 10.074 3.64904L9.34541 3.31857ZM10.2322 2.01333C9.88678 2.3907 9.5669 2.83008 9.34539 3.31863L10.074 3.64899C10.2517 3.25707 10.517 2.88707 10.8223 2.5535L10.2322 2.01333ZM12.6726 0.548671C11.7533 0.791843 10.8793 1.30955 10.2328 2.01268L10.8217 2.55416C11.3619 1.96666 12.1012 1.52734 12.8772 1.32207L12.6726 0.548671ZM15.6292 0.639394C14.6864 0.313164 13.6236 0.300582 12.674 0.548324L12.8759 1.32242C13.6872 1.11079 14.5877 1.12555 15.3676 1.39541L15.6292 0.639394ZM17.9684 2.24165C17.3604 1.48014 16.5155 0.949462 15.6304 0.63984L15.3663 1.39497C16.1383 1.66503 16.8465 2.11872 17.3432 2.74081L17.9684 2.24165ZM18.4569 2.92772C18.3079 2.6754 18.1347 2.44955 17.9681 2.24135L17.3434 2.74111C17.505 2.94307 17.649 3.13284 17.768 3.33443L18.4569 2.92772ZM18.6924 3.3957C18.6248 3.24197 18.5488 3.08339 18.4569 2.92772L17.768 3.33443C17.8377 3.4526 17.8995 3.57979 17.9601 3.71778L18.6924 3.3957ZM18.2365 3.16252C18.218 3.16965 18.1995 3.17685 18.1809 3.18411L18.4717 3.92937C18.4892 3.92256 18.5067 3.91577 18.5242 3.909L18.2365 3.16252ZM19.8118 2.85725C19.2919 2.88049 18.7473 2.96796 18.238 3.16197L18.5228 3.90956C18.9323 3.75356 19.3884 3.67697 19.8475 3.65646L19.8118 2.85725ZM22.5908 3.55679C21.7646 3.07414 20.7757 2.81547 19.8123 2.85723L19.8469 3.65648C20.6499 3.62168 21.4876 3.83879 22.1872 4.24754L22.5908 3.55679ZM24.5981 5.7006C24.1692 4.80686 23.4296 4.05003 22.5917 3.55736L22.1862 4.24697C22.9015 4.66759 23.5236 5.31076 23.8768 6.04671L24.5981 5.7006ZM25.1185 8.50817C25.2363 7.52996 25.0057 6.55081 24.5981 5.70072L23.8767 6.04658C24.2348 6.79337 24.4198 7.6189 24.3243 8.41257L25.1185 8.50817ZM24.819 9.81185C24.9783 9.38012 25.0641 8.95584 25.1185 8.50863L24.3243 8.41211C24.275 8.81812 24.2002 9.17798 24.0685 9.53487L24.819 9.81185ZM24.6843 9.34297C24.6585 9.33129 24.6326 9.31962 24.6066 9.30801L24.2809 10.0387C24.3051 10.0495 24.3294 10.0604 24.3538 10.0715L24.6843 9.34297ZM25.9895 10.2298C25.6122 9.88434 25.1728 9.56446 24.6842 9.34294L24.3539 10.0715C24.7458 10.2492 25.1158 10.5145 25.4494 10.8199L25.9895 10.2298ZM27.4542 12.6702C27.211 11.7509 26.6933 10.8769 25.9902 10.2304L25.4487 10.8193C26.0362 11.3595 26.4755 12.0988 26.6808 12.8748L27.4542 12.6702ZM27.3635 15.6267C27.6897 14.6839 27.7023 13.6212 27.4546 12.6715L26.6805 12.8734C26.8921 13.6847 26.8773 14.5852 26.6075 15.3651L27.3635 15.6267ZM25.7612 17.9659C26.5227 17.3579 27.0534 16.5131 27.363 15.628L26.6079 15.3638C26.3378 16.1358 25.8841 16.8441 25.2621 17.3408L25.7612 17.9659ZM25.0751 18.4544C25.3275 18.3055 25.5533 18.1322 25.7615 17.9657L25.2618 17.341C25.0598 17.5026 24.87 17.6465 24.6684 17.7655L25.0751 18.4544ZM24.6072 18.69C24.7609 18.6224 24.9195 18.5463 25.0752 18.4544L24.6684 17.7655C24.5503 17.8353 24.4231 17.897 24.2851 17.9577L24.6072 18.69ZM21.3655 17.9658C21.3664 17.9734 21.3673 17.981 21.3681 17.9886L22.163 17.8978C22.162 17.8891 22.161 17.8804 22.1599 17.8717L21.3655 17.9658ZM21.3803 18.0508C21.3976 18.1129 21.4186 18.1736 21.4435 18.2329L22.1814 17.9239C22.1697 17.8962 22.1595 17.8668 22.1508 17.8355L21.3803 18.0508ZM21.4402 18.2248C21.5075 18.3962 21.6099 18.5633 21.7577 18.7041L22.3096 18.1249C22.2583 18.0761 22.2161 18.0119 22.1847 17.9321L21.4402 18.2248ZM21.7066 18.6449C21.8206 18.8066 21.9194 18.9762 22.0026 19.1547L22.7276 18.8166C22.6238 18.5939 22.501 18.3833 22.3606 18.1841L21.7066 18.6449ZM21.99 19.1245C22.0611 19.3166 22.1144 19.5128 22.1494 19.7124L22.9374 19.5745C22.8939 19.3262 22.8278 19.0832 22.7402 18.8467L21.99 19.1245ZM22.145 19.6795C22.1631 19.8796 22.163 20.0807 22.1448 20.2823L22.9415 20.3544C22.9641 20.1051 22.9642 19.8558 22.9418 19.6075L22.145 19.6795ZM22.1492 20.2493C22.1139 20.4507 22.06 20.6492 21.9888 20.8439L22.7402 21.1185C22.8269 20.8814 22.8934 20.6373 22.9372 20.3874L22.1492 20.2493ZM22.0026 20.8108C21.9155 20.9959 21.8119 21.1731 21.6934 21.3407L22.3466 21.8025C22.4916 21.5975 22.619 21.3797 22.7264 21.1515L22.0026 20.8108ZM21.715 21.3128C21.5904 21.4597 21.4542 21.5956 21.307 21.72L21.8233 22.3311C22.0042 22.1782 22.1718 22.011 22.325 21.8304L21.715 21.3128ZM21.3333 21.6996C21.1682 21.817 20.994 21.9181 20.8094 22.004L21.1468 22.7294C21.3752 22.6232 21.5917 22.4975 21.797 22.3515L21.3333 21.6996ZM20.8396 21.9915C20.6487 22.0619 20.4527 22.1142 20.2521 22.1491L20.3892 22.9372C20.6362 22.8943 20.8792 22.8296 21.1166 22.742L20.8396 21.9915ZM20.285 22.1447C20.0816 22.1629 19.8755 22.1618 19.6672 22.1432L19.5961 22.9401C19.8482 22.9626 20.102 22.9643 20.3562 22.9416L20.285 22.1447ZM19.7019 22.1478C19.5071 22.1131 19.3155 22.0609 19.1279 21.9917L18.8511 22.7422C19.082 22.8274 19.3192 22.8922 19.5615 22.9354L19.7019 22.1478ZM19.1588 22.0046C18.9661 21.9145 18.7821 21.8064 18.609 21.6814L18.1407 22.33C18.3545 22.4844 18.5819 22.618 18.8202 22.7293L19.1588 22.0046ZM18.6223 21.6914C18.4773 21.5773 18.2911 21.4478 18.0505 21.3806L17.8352 22.1511C17.923 22.1756 18.0097 22.2274 18.1274 22.32L18.6223 21.6914ZM18.0493 21.3802C17.7159 21.2883 17.3743 21.3249 17.0749 21.4526L17.389 22.1884C17.5381 22.1248 17.6941 22.1121 17.8365 22.1514L18.0493 21.3802ZM17.0757 21.4523C16.8311 21.5561 16.6406 21.7053 16.4799 21.9097L17.109 22.404C17.189 22.3022 17.2719 22.2381 17.3882 22.1888L17.0757 21.4523ZM16.478 21.9122C16.2592 22.1951 16.1948 22.4711 16.163 22.7623L16.9583 22.849C16.9818 22.6335 17.0178 22.522 17.1109 22.4016L16.478 21.9122ZM16.1669 22.7353C16.1319 22.9312 16.0806 23.1217 16.0122 23.3072L16.7629 23.5838C16.8479 23.3531 16.9113 23.1171 16.9544 22.8761L16.1669 22.7353ZM16.0253 23.2759C15.9366 23.4655 15.8318 23.6456 15.7108 23.8163L16.3635 24.2789C16.5121 24.0692 16.6409 23.8478 16.7499 23.615L16.0253 23.2759ZM15.7324 23.7885C15.6092 23.9334 15.4752 24.0674 15.3314 24.1892L15.8484 24.7997C16.0262 24.6491 16.191 24.4841 16.3419 24.3067L15.7324 23.7885ZM15.3578 24.1687C15.1881 24.2896 15.0093 24.3944 14.821 24.4833L15.1625 25.2067C15.3938 25.0975 15.6137 24.9687 15.822 24.8202L15.3578 24.1687ZM14.8545 24.4693C14.6634 24.5391 14.4663 24.5919 14.2648 24.6277L14.4047 25.4154C14.6513 25.3716 14.8935 25.3067 15.129 25.2208L14.8545 24.4693ZM14.2997 24.6231C14.0986 24.6408 13.8968 24.6405 13.6957 24.6222L13.6232 25.4189C13.8717 25.4415 14.1213 25.4419 14.3698 25.42L14.2997 24.6231ZM13.7282 24.6265C13.5322 24.5923 13.3403 24.5407 13.154 24.4716L12.8759 25.2217C13.1083 25.3079 13.3473 25.3722 13.5907 25.4146L13.7282 24.6265ZM13.1832 24.4838C12.9968 24.3974 12.8197 24.2944 12.6543 24.1751L12.1862 24.8239C12.3944 24.974 12.6158 25.1025 12.8467 25.2096L13.1832 24.4838ZM12.6769 24.1927C12.5327 24.072 12.3996 23.9394 12.2784 23.7962L11.6678 24.3132C11.8183 24.4909 11.9838 24.6559 12.1636 24.8063L12.6769 24.1927ZM12.2986 23.8222C12.1762 23.6509 12.0704 23.4717 11.9833 23.2846L11.2581 23.6223C11.3674 23.8571 11.4987 24.0787 11.6476 24.2872L12.2986 23.8222ZM11.9957 23.3143C11.9262 23.1268 11.874 22.9342 11.8386 22.7362L11.0511 22.8772C11.0947 23.1209 11.1592 23.3595 11.2457 23.5926L11.9957 23.3143ZM11.8427 22.7659C11.8226 22.5698 11.7859 22.3073 11.6391 22.0612L10.9521 22.4712C11.0034 22.5572 11.0286 22.6687 11.0469 22.8475L11.8427 22.7659ZM11.6406 22.0638C11.4713 21.7752 11.2144 21.5721 10.9315 21.4504L10.6152 22.1852C10.7644 22.2494 10.8793 22.3471 10.9506 22.4686L11.6406 22.0638ZM10.9303 21.4499C10.6748 21.3409 10.421 21.311 10.1531 21.3477L10.2616 22.1403C10.3929 22.1223 10.5001 22.1361 10.6164 22.1857L10.9303 21.4499ZM10.152 21.3478C9.87402 21.3867 9.6639 21.4866 9.46629 21.6272L9.93006 22.2791C10.0434 22.1984 10.1347 22.158 10.2627 22.1401L10.152 21.3478ZM9.94374 22.2689L9.95252 22.2621L9.46139 21.6306L9.45261 21.6374L9.94374 22.2689ZM9.46472 21.628C9.46091 21.6309 9.45709 21.6338 9.45326 21.6367L9.93509 22.2753C9.9398 22.2718 9.94449 22.2682 9.94919 22.2646L9.46472 21.628ZM9.46141 21.6307C9.43969 21.6462 9.41829 21.6621 9.39714 21.6783L9.88342 22.3136C9.89846 22.302 9.91293 22.2913 9.92695 22.2813L9.46141 21.6307ZM9.40483 21.6726C9.22991 21.7999 9.04571 21.9093 8.85094 22.0002L9.18906 22.7252C9.43212 22.6118 9.66063 22.4759 9.87573 22.3193L9.40483 21.6726ZM8.88114 21.9875C8.68902 22.0587 8.49278 22.112 8.29315 22.1469L8.43104 22.935C8.67936 22.8915 8.92237 22.8253 9.15886 22.7378L8.88114 21.9875ZM8.32611 22.1426C8.12604 22.1606 7.92491 22.1606 7.7233 22.1424L7.65124 22.9391C7.90049 22.9616 8.14982 22.9617 8.39808 22.9393L8.32611 22.1426ZM7.75628 22.1467C7.55488 22.1114 7.35643 22.0575 7.16174 21.9864L6.88714 22.7378C7.12418 22.8244 7.36828 22.8909 7.61826 22.9347L7.75628 22.1467ZM7.19481 22.0002C7.00976 21.9131 6.83247 21.8094 6.6649 21.6909L6.20306 22.3442C6.40815 22.4892 6.6259 22.6166 6.85408 22.724L7.19481 22.0002ZM6.69276 21.7125C6.54588 21.5879 6.40996 21.4517 6.28564 21.3046L5.67453 21.8208C5.82739 22.0018 5.9946 22.1693 6.1752 22.3226L6.69276 21.7125ZM6.30602 21.3308C6.18859 21.1658 6.08745 20.9916 6.00157 20.8069L5.27619 21.1443C5.38244 21.3727 5.50809 21.5893 5.65415 21.7946L6.30602 21.3308ZM6.01415 20.8372C5.94371 20.6463 5.89142 20.4502 5.85653 20.2496L5.06836 20.3867C5.11133 20.6338 5.17601 20.8767 5.26361 21.1141L6.01415 20.8372ZM5.86086 20.2825C5.84268 20.0791 5.8438 19.873 5.86238 19.6648L5.06555 19.5937C5.04305 19.8457 5.04132 20.0995 5.06403 20.3538L5.86086 20.2825ZM5.85776 19.6994C5.89248 19.5047 5.94473 19.3131 6.01394 19.1255L5.26337 18.8486C5.17817 19.0796 5.11336 19.3168 5.07018 19.559L5.85776 19.6994ZM6.00104 19.1564C6.09112 18.9636 6.19918 18.7796 6.32418 18.6065L5.67561 18.1382C5.52116 18.3521 5.3876 18.5795 5.27627 18.8177L6.00104 19.1564ZM6.31418 18.6198C6.42832 18.4748 6.5578 18.2886 6.62501 18.0481L5.85452 17.8328C5.83 17.9206 5.77825 18.0073 5.68561 18.1249L6.31418 18.6198ZM6.62536 18.0468C6.71731 17.7135 6.68074 17.3718 6.55297 17.0725L5.81719 17.3865C5.88082 17.5356 5.89347 17.6916 5.85417 17.8341L6.62536 18.0468ZM6.55331 17.0733C6.44952 16.8286 6.30032 16.6381 6.09588 16.4775L5.60162 17.1065C5.70343 17.1865 5.76751 17.2694 5.81685 17.3857L6.55331 17.0733ZM6.09345 16.4756C5.81052 16.2568 5.53456 16.1924 5.24329 16.1606L5.15658 16.9559C5.37213 16.9794 5.48365 17.0153 5.60405 17.1084L6.09345 16.4756ZM5.27033 16.1645C5.07445 16.1295 4.88392 16.0781 4.69839 16.0098L4.42186 16.7605C4.65248 16.8454 4.8885 16.9089 5.12955 16.952L5.27033 16.1645ZM4.72968 16.0228C4.54009 15.9341 4.36004 15.8293 4.18929 15.7083L3.72675 16.3611C3.93643 16.5096 4.15779 16.6385 4.39057 16.7474L4.72968 16.0228ZM4.21713 15.73C4.07222 15.6067 3.93818 15.4728 3.8164 15.329L3.20586 15.8459C3.35645 16.0238 3.52147 16.1885 3.69891 16.3394L4.21713 15.73ZM3.8369 15.3553C3.71602 15.1857 3.61119 15.0068 3.52228 14.8185L2.79888 15.1601C2.90806 15.3913 3.03694 15.6112 3.18536 15.8195L3.8369 15.3553ZM3.53631 14.8521C3.46652 14.661 3.41367 14.4639 3.37788 14.2623L2.59021 14.4023C2.63402 14.6489 2.69886 14.8911 2.78485 15.1265L3.53631 14.8521ZM3.3825 14.2972C3.36481 14.0961 3.36511 13.8943 3.38339 13.6932L2.58668 13.6208C2.56408 13.8693 2.56372 14.1188 2.58558 14.3674L3.3825 14.2972ZM3.37909 13.7257C3.41327 13.5297 3.46492 13.3378 3.53398 13.1516L2.78389 12.8734C2.69772 13.1058 2.63344 13.3448 2.59098 13.5883L3.37909 13.7257ZM3.52183 13.1808C3.60824 12.9944 3.71121 12.8172 3.83051 12.6519L3.1817 12.1838C3.03157 12.3919 2.90309 12.6134 2.79604 12.8443L3.52183 13.1808ZM3.81289 12.6745C3.93356 12.5303 4.06618 12.3972 4.20937 12.2759L3.69243 11.6654C3.51473 11.8159 3.34971 11.9814 3.19932 12.1612L3.81289 12.6745ZM4.18338 12.2962C4.35472 12.1738 4.53393 12.068 4.72097 11.9809L4.38331 11.2556C4.14856 11.3649 3.92694 11.4962 3.71842 11.6452L4.18338 12.2962ZM4.69127 11.9933C4.87877 11.9237 5.07138 11.8716 5.26945 11.8361L5.12847 11.0486C4.88471 11.0923 4.6461 11.1568 4.41301 11.2432L4.69127 11.9933ZM5.23975 11.8403C5.43585 11.8202 5.69831 11.7835 5.94436 11.6367L5.53439 10.9497C5.44842 11.001 5.33692 11.0261 5.15817 11.0445L5.23975 11.8403ZM5.94178 11.6382C6.2304 11.4689 6.43348 11.2119 6.55523 10.929L5.8204 10.6128C5.75621 10.7619 5.65851 10.8769 5.53697 10.9482L5.94178 11.6382ZM6.55575 10.9278C6.66471 10.6723 6.69465 10.4186 6.65794 10.1506L5.86534 10.2592C5.88332 10.3904 5.86951 10.4976 5.81988 10.614L6.55575 10.9278ZM6.65779 10.1495C6.61894 9.87159 6.519 9.66147 6.37842 9.46387L5.72655 9.92763C5.80717 10.041 5.8476 10.1323 5.86549 10.2603L6.65779 10.1495ZM5.73674 9.94132L5.74355 9.95008L6.37504 9.45894L6.36823 9.45018L5.73674 9.94132ZM6.37762 9.46229C6.37473 9.45849 6.37184 9.45467 6.36893 9.45082L5.73036 9.93272C5.73387 9.93738 5.73741 9.94205 5.74097 9.94673L6.37762 9.46229ZM6.37496 9.45903C6.35938 9.43725 6.34345 9.41581 6.32726 9.39466L5.69201 9.88093C5.70356 9.89602 5.71431 9.91051 5.72434 9.92452L6.37496 9.45903ZM6.333 9.40235C6.20565 9.22744 6.09628 9.04325 6.00545 8.8485L5.28042 9.18661C5.39376 9.42966 5.52967 9.65815 5.68627 9.87324L6.333 9.40235ZM6.01806 8.87869C5.94694 8.68658 5.89361 8.49034 5.85868 8.29073L5.07065 8.42862C5.1141 8.67693 5.18027 8.91993 5.26781 9.15641L6.01806 8.87869ZM5.86304 8.32369C5.84497 8.1236 5.84502 7.92246 5.86325 7.72084L5.06651 7.64877C5.04396 7.89804 5.04386 8.14739 5.06629 8.39566L5.86304 8.32369ZM5.85888 7.75383C5.89416 7.55243 5.94806 7.35398 6.01921 7.15929L5.26781 6.8847C5.18119 7.12172 5.11467 7.36582 5.07088 7.61579L5.85888 7.75383ZM6.00542 7.19236C6.09253 7.00731 6.1962 6.83002 6.31467 6.66246L5.66145 6.20061C5.51644 6.40571 5.38902 6.62346 5.28161 6.85163L6.00542 7.19236ZM6.29307 6.69031C6.41769 6.54343 6.55388 6.40752 6.70104 6.2832L6.18476 5.67209C6.00382 5.82495 5.83627 5.99216 5.68304 6.17276L6.29307 6.69031ZM6.67478 6.30358C6.83984 6.18614 7.01401 6.08501 7.19867 5.99913L6.86127 5.27375C6.63285 5.38 6.41633 5.50565 6.21102 5.65171L6.67478 6.30358ZM7.16844 6.01171C7.35935 5.94127 7.5554 5.88898 7.75599 5.85409L7.6189 5.06592C7.37183 5.10889 7.12891 5.17357 6.8915 5.26117L7.16844 6.01171ZM7.72305 5.85842C7.9265 5.84023 8.13258 5.84135 8.34082 5.85994L8.41195 5.06311C8.15989 5.04061 7.90606 5.03887 7.65184 5.06159L7.72305 5.85842ZM8.30619 5.85532C8.50096 5.89004 8.6925 5.94229 8.88012 6.01149L9.15698 5.26093C8.92601 5.17573 8.68884 5.11092 8.44658 5.06773L8.30619 5.85532ZM8.84921 5.9986C9.04198 6.08868 9.22596 6.19673 9.39907 6.32174L9.86741 5.67316C9.65354 5.51872 9.42614 5.38516 9.18789 5.27383L8.84921 5.9986ZM9.3858 6.31173C9.53077 6.42587 9.71696 6.55536 9.95752 6.62257L10.1728 5.85208C10.085 5.82756 9.99834 5.77581 9.88068 5.68317L9.3858 6.31173ZM9.95879 6.62292C10.2921 6.71487 10.6338 6.6783 10.9331 6.55053L10.6191 5.81475C10.47 5.87838 10.314 5.89103 10.1715 5.85173L9.95879 6.62292ZM10.9323 6.55087C11.177 6.44708 11.3675 6.29787 11.5281 6.09344L10.8991 5.59918C10.8191 5.70099 10.7362 5.76507 10.6199 5.8144L10.9323 6.55087ZM11.53 6.09101C11.7488 5.80807 11.8133 5.53211 11.845 5.24083L11.0497 5.15413C11.0262 5.36968 10.9903 5.4812 10.8972 5.60161L11.53 6.09101ZM11.8411 5.26787C11.8761 5.072 11.9275 4.88148 11.9958 4.69595L11.2451 4.41942C11.1602 4.65003 11.0967 4.88604 11.0536 5.12709L11.8411 5.26787ZM11.9828 4.72724C12.0715 4.53765 12.1763 4.3576 12.2973 4.18684L11.6446 3.7243C11.496 3.93398 11.3671 4.15534 11.2582 4.38813L11.9828 4.72724ZM12.2757 4.21468C12.3989 4.06977 12.5328 3.93574 12.6766 3.81396L12.1597 3.20343C11.9818 3.35401 11.8171 3.51902 11.6662 3.69646L12.2757 4.21468ZM12.6503 3.83446C12.8199 3.71358 12.9988 3.60875 13.1871 3.51984L12.8455 2.79643C12.6143 2.90562 12.3944 3.0345 12.1861 3.18292L12.6503 3.83446ZM13.1535 3.53387C13.3446 3.46408 13.5417 3.41123 13.7433 3.37544L13.6034 2.58776C13.3567 2.63157 13.1146 2.69642 12.8791 2.78241L13.1535 3.53387ZM13.7084 3.38006C13.9095 3.36237 14.1113 3.36267 14.3124 3.38095L14.3848 2.58424C14.1363 2.56164 13.8868 2.56128 13.6383 2.58314L13.7084 3.38006ZM14.2799 3.37665C14.4759 3.41083 14.6678 3.46248 14.854 3.53154L15.1322 2.78145C14.8998 2.69528 14.6608 2.631 14.4173 2.58854L14.2799 3.37665ZM14.8248 3.51939C15.0112 3.60579 15.1884 3.70877 15.3538 3.82806L15.8218 3.17925C15.6137 3.02912 15.3922 2.90065 15.1614 2.7936L14.8248 3.51939ZM15.3311 3.81044C15.4753 3.93111 15.6084 4.06374 15.7297 4.20693L16.3402 3.68999C16.1898 3.51229 16.0242 3.34726 15.8444 3.19687L15.3311 3.81044ZM15.7094 4.18094C15.8318 4.35228 15.9377 4.53149 16.0247 4.71853L16.75 4.38087C16.6407 4.14612 16.5094 3.9245 16.3604 3.71598L15.7094 4.18094ZM16.0123 4.68883C16.0819 4.87633 16.134 5.06893 16.1695 5.26701L16.957 5.12602C16.9133 4.88226 16.8489 4.64365 16.7624 4.41057L16.0123 4.68883ZM16.1653 5.23731C16.1854 5.4334 16.2221 5.69587 16.3689 5.94192L17.0559 5.53195C17.0046 5.44598 16.9795 5.33447 16.9612 5.15573L16.1653 5.23731ZM16.3674 5.93934C16.5367 6.22795 16.7937 6.43104 17.0766 6.55279L17.3928 5.81795C17.2437 5.75377 17.1287 5.65607 17.0574 5.53453L16.3674 5.93934ZM17.0778 6.55331C17.3333 6.66227 17.587 6.69221 17.855 6.6555L17.7464 5.8629C17.6152 5.88088 17.508 5.86707 17.3916 5.81743L17.0778 6.55331ZM17.8561 6.65535C18.134 6.6165 18.3441 6.51656 18.5417 6.37598L18.078 5.72411C17.9647 5.80473 17.8733 5.84516 17.7453 5.86305L17.8561 6.65535ZM18.0643 5.73431L18.0555 5.74112L18.5467 6.37259L18.5554 6.36578L18.0643 5.73431ZM18.5433 6.37521C18.5471 6.37227 18.551 6.36936 18.5548 6.3665L18.0729 5.72792C18.0682 5.73147 18.0635 5.735 18.0589 5.7385L18.5433 6.37521ZM18.5466 6.37252C18.5684 6.35694 18.5898 6.34101 18.611 6.32481L18.1247 5.68956C18.1096 5.70111 18.0951 5.71187 18.0811 5.7219L18.5466 6.37252ZM18.6033 6.33056C18.7782 6.2032 18.9624 6.09383 19.1571 6.00301L18.819 5.27798C18.576 5.39131 18.3475 5.52722 18.1324 5.68382L18.6033 6.33056ZM19.1269 6.01562C19.319 5.9445 19.5153 5.89117 19.7149 5.85624L19.577 5.06821C19.3287 5.11166 19.0857 5.17783 18.8492 5.26537L19.1269 6.01562ZM19.6819 5.8606C19.882 5.84253 20.0831 5.84257 20.2848 5.86081L20.3568 5.06406C20.1076 5.04152 19.8582 5.04142 19.61 5.06385L19.6819 5.8606ZM20.2518 5.85644C20.4532 5.89172 20.6516 5.94562 20.8463 6.01677L21.1209 5.26537C20.8839 5.17875 20.6398 5.11222 20.3898 5.06844L20.2518 5.85644ZM20.8132 6.00297C20.9983 6.09009 21.1756 6.19376 21.3432 6.31223L21.805 5.65901C21.5999 5.514 21.3822 5.38658 21.154 5.27916L20.8132 6.00297ZM21.3153 6.29064C21.4622 6.41525 21.5981 6.55144 21.7224 6.6986L22.3335 6.18232C22.1807 6.00138 22.0135 5.83383 21.8329 5.6806L21.3153 6.29064ZM21.702 6.67234C21.8195 6.8374 21.9206 7.01157 22.0065 7.19622L22.7319 6.85883C22.6256 6.63041 22.5 6.41389 22.3539 6.20858L21.702 6.67234ZM21.9939 7.16599C22.0643 7.35691 22.1166 7.55297 22.1515 7.75356L22.9397 7.61648C22.8967 7.3694 22.832 7.12647 22.7444 6.88906L21.9939 7.16599ZM22.1472 7.72063C22.1654 7.92407 22.1643 8.13013 22.1457 8.33836L22.9425 8.40949C22.965 8.15745 22.9667 7.90363 22.944 7.64942L22.1472 7.72063ZM22.1503 8.30373C22.1156 8.49851 22.0633 8.69006 21.9941 8.87768L22.7447 9.15454C22.8299 8.92356 22.8947 8.68638 22.9379 8.44412L22.1503 8.30373ZM22.007 8.84677C21.9169 9.03954 21.8089 9.22353 21.6839 9.39664L22.3324 9.86499C22.4869 9.65111 22.6204 9.42371 22.7318 9.18545L22.007 8.84677ZM21.6939 9.38338C21.5797 9.52835 21.4502 9.71453 21.383 9.95508L22.1535 10.1704C22.178 10.0826 22.2298 9.99591 22.3224 9.87825L21.6939 9.38338ZM21.3827 9.95634C21.2907 10.2897 21.3273 10.6313 21.4551 10.9307L22.1909 10.6166C22.1272 10.4675 22.1146 10.3115 22.1539 10.1691L21.3827 9.95634ZM21.4547 10.9299C21.5585 11.1745 21.7077 11.3651 21.9122 11.5257L22.4064 10.8966C22.3046 10.8166 22.2405 10.7337 22.1912 10.6174L21.4547 10.9299ZM21.9146 11.5276C22.1975 11.7464 22.4735 11.8108 22.7648 11.8426L22.8515 11.0473C22.6359 11.0238 22.5244 10.9878 22.404 10.8947L21.9146 11.5276ZM22.7377 11.8387C22.9336 11.8737 23.1241 11.925 23.3097 11.9934L23.5862 11.2427C23.3556 11.1577 23.1196 11.0943 22.8785 11.0512L22.7377 11.8387ZM23.2784 11.9803C23.468 12.069 23.648 12.1738 23.8188 12.2948L24.2813 11.6421C24.0716 11.4935 23.8503 11.3647 23.6175 11.2557L23.2784 11.9803ZM23.7909 12.2732C23.9358 12.3964 24.0699 12.5304 24.1916 12.6742L24.8022 12.1572C24.6516 11.9794 24.4866 11.8146 24.3091 11.6637L23.7909 12.2732ZM24.1711 12.6478C24.292 12.8175 24.3969 12.9964 24.4858 13.1846L25.2092 12.8431C25.1 12.6118 24.9711 12.3919 24.8227 12.1836L24.1711 12.6478ZM24.4717 13.1511C24.5415 13.3422 24.5944 13.5393 24.6302 13.7408L25.4178 13.6009C25.374 13.3543 25.3092 13.1121 25.2232 12.8766L24.4717 13.1511ZM24.6255 13.7059C24.6432 13.907 24.6429 14.1088 24.6247 14.3099L25.4214 14.3824C25.444 14.1339 25.4443 13.8844 25.4225 13.6358L24.6255 13.7059ZM24.629 14.2774C24.5948 14.4735 24.5431 14.6653 24.4741 14.8516L25.2242 15.1297C25.3103 14.8973 25.3746 14.6583 25.4171 14.4149L24.629 14.2774ZM24.4862 14.8224C24.3998 15.0088 24.2968 15.1859 24.1775 15.3513L24.8263 15.8193C24.9765 15.6112 25.105 15.3898 25.212 15.1589L24.4862 14.8224ZM24.1952 15.3287C24.0745 15.4729 23.9419 15.606 23.7987 15.7272L24.3156 16.3378C24.4933 16.1873 24.6583 16.0218 24.8087 15.842L24.1952 15.3287ZM23.8247 15.707C23.6533 15.8294 23.4741 15.9352 23.2871 16.0223L23.6247 16.7475C23.8595 16.6382 24.0811 16.5069 24.2896 16.358L23.8247 15.707ZM23.3168 16.0099C23.1312 16.0788 22.9405 16.1306 22.7446 16.166L22.8869 16.9532C23.1281 16.9096 23.3643 16.8455 23.595 16.7599L23.3168 16.0099ZM22.8134 16.1596C22.4533 16.1617 22.0252 16.3163 21.7545 16.6069L22.3399 17.1522C22.4387 17.0461 22.6444 16.9606 22.8181 16.9596L22.8134 16.1596ZM21.7643 16.5967C21.6518 16.7093 21.5559 16.8463 21.4834 16.9914L22.199 17.349C22.237 17.2729 22.2842 17.2082 22.33 17.1624L21.7643 16.5967ZM21.4861 16.9862C21.3901 17.1714 21.3247 17.3879 21.3264 17.6235L22.1264 17.6176C22.1258 17.5355 22.1485 17.4467 22.1964 17.3543L21.4861 16.9862ZM21.3264 17.6224C21.3265 17.6392 21.3269 17.6562 21.3278 17.6733L22.1268 17.6334C22.1265 17.6287 22.1264 17.6238 22.1264 17.6187L21.3264 17.6224ZM21.3276 17.6687C21.3319 17.781 21.3464 17.8964 21.3735 18.0108L22.152 17.8266C22.1378 17.7668 22.1295 17.7031 22.127 17.638L21.3276 17.6687ZM22.8736 16.1521C22.8577 16.1541 22.8449 16.1557 22.8327 16.1571L22.9222 16.9521C22.9408 16.95 22.9591 16.9477 22.974 16.9458L22.8736 16.1521ZM22.9086 16.1478C22.8963 16.1493 22.8842 16.1508 22.8736 16.1521L22.974 16.9458C22.9851 16.9444 22.9945 16.9432 23.0036 16.9421L22.9086 16.1478ZM22.9283 16.9514C22.9534 16.9482 22.9781 16.9451 23.0025 16.9423L22.9096 16.1477C22.8819 16.1509 22.8541 16.1543 22.8266 16.1579L22.9283 16.9514ZM23.453 15.9559C23.4358 15.9632 23.4185 15.9703 23.4012 15.9773L23.6998 16.7194C23.7213 16.7108 23.7427 16.702 23.764 16.693L23.453 15.9559ZM23.7044 16.7175C23.723 16.7098 23.7412 16.7023 23.7591 16.695L23.458 15.9538C23.4372 15.9623 23.4167 15.9708 23.3965 15.9792L23.7044 16.7175ZM24.2786 15.2247C24.2715 15.2339 24.2644 15.243 24.2572 15.2521L24.8861 15.7467C24.895 15.7353 24.9039 15.7239 24.9127 15.7125L24.2786 15.2247ZM24.8874 15.745L24.9114 15.7142L24.2799 15.223L24.2559 15.2538L24.8874 15.745ZM25.1604 15.291C25.1675 15.2734 25.1749 15.2555 25.1825 15.2373L24.4441 14.9294C24.4358 14.9492 24.4275 14.9694 24.4192 14.9899L25.1604 15.291ZM24.4422 14.9341C24.4354 14.9511 24.4284 14.968 24.4212 14.9849L25.1583 15.296C25.1672 15.2749 25.1759 15.2538 25.1844 15.2326L24.4422 14.9341ZM24.6092 13.5577C24.6125 13.5828 24.6156 13.6078 24.6183 13.6328L25.4135 13.5456C25.4102 13.5146 25.4064 13.4837 25.4023 13.4529L24.6092 13.5577ZM25.4128 13.5388C25.4094 13.5121 25.4062 13.4857 25.4032 13.4599L24.6084 13.5507C24.6118 13.5804 24.6154 13.6101 24.6191 13.6396L25.4128 13.5388ZM24.42 13.0181C24.423 13.0252 24.4259 13.0324 24.4288 13.0396L25.1703 12.7392C25.1667 12.7304 25.1631 12.7216 25.1595 12.7128L24.42 13.0181ZM25.1695 12.7372C25.1664 12.7298 25.1634 12.7223 25.1604 12.7149L24.4192 13.016C24.4226 13.0245 24.4261 13.0331 24.4297 13.0416L25.1695 12.7372ZM23.7591 11.3109C23.7412 11.3036 23.723 11.2961 23.7044 11.2884L23.3965 12.0267C23.4167 12.0351 23.4372 12.0436 23.458 12.052L23.7591 11.3109ZM23.4012 12.0286C23.4185 12.0356 23.4358 12.0427 23.453 12.05L23.764 11.3129C23.7427 11.3039 23.7213 11.2951 23.6998 11.2865L23.4012 12.0286ZM21.8038 9.24576C21.7943 9.25837 21.7843 9.27113 21.7733 9.28485L22.3976 9.78507C22.4122 9.76695 22.4277 9.74717 22.4437 9.72577L21.8038 9.24576ZM22.4012 9.78054L22.4395 9.73134L21.808 9.24018L21.7697 9.28938L22.4012 9.78054ZM22.6858 9.30544C22.6888 9.29797 22.6919 9.29042 22.695 9.28275L21.9552 8.97839C21.9517 8.98695 21.9481 8.99561 21.9446 9.00436L22.6858 9.30544ZM21.9544 8.9804C21.9514 8.98767 21.9484 8.99497 21.9454 9.0023L22.6849 9.3075C22.6886 9.29863 22.6922 9.28972 22.6958 9.28075L21.9544 8.9804ZM22.9627 7.76395C22.9611 7.75305 22.9596 7.7421 22.958 7.7311L22.1659 7.84334C22.1675 7.85461 22.1691 7.86587 22.1707 7.8771L22.9627 7.76395ZM22.1662 7.84528C22.1677 7.85518 22.1691 7.86516 22.1705 7.87522L22.963 7.76584C22.9613 7.75367 22.9595 7.74145 22.9577 7.72917L22.1662 7.84528ZM22.9356 7.56542C22.9321 7.53828 22.9289 7.51154 22.9259 7.48526L22.131 7.57611C22.1345 7.60623 22.1381 7.63637 22.1419 7.66631L22.9356 7.56542ZM22.1319 7.58354C22.1353 7.60871 22.1384 7.63392 22.1411 7.65916L22.9364 7.57256C22.933 7.54098 22.9291 7.5094 22.9249 7.47783L22.1319 7.58354ZM21.9482 7.04894C21.951 7.05588 21.9539 7.06284 21.9567 7.06984L22.6982 6.76956C22.6947 6.76095 22.6912 6.75232 22.6876 6.74367L21.9482 7.04894ZM22.6974 6.76758C22.6944 6.76024 22.6914 6.75296 22.6885 6.74574L21.9473 7.04688C21.9507 7.05525 21.9541 7.06357 21.9575 7.07182L22.6974 6.76758ZM19.7211 5.04564C19.7107 5.04712 19.7004 5.04859 19.6901 5.05006L19.8023 5.84214C19.813 5.84063 19.8236 5.83911 19.8342 5.8376L19.7211 5.04564ZM19.8042 5.84186C19.8136 5.84049 19.823 5.83916 19.8323 5.83787L19.723 5.04537C19.7114 5.04698 19.6997 5.04863 19.6881 5.05034L19.8042 5.84186ZM19.5256 5.0724C19.4974 5.07599 19.4696 5.07937 19.4424 5.08249L19.5332 5.87731C19.5645 5.87374 19.5957 5.86993 19.6268 5.86597L19.5256 5.0724ZM19.5407 5.87639C19.567 5.87289 19.5933 5.86969 19.6196 5.86682L19.5327 5.07155C19.5001 5.07512 19.4675 5.07907 19.435 5.08341L19.5407 5.87639ZM19.0061 6.06291C19.0133 6.05992 19.0206 6.05696 19.0279 6.05401L18.7275 5.31253C18.7186 5.31614 18.7097 5.31978 18.7008 5.32346L19.0061 6.06291ZM18.7255 5.31336C18.7179 5.31649 18.7104 5.31956 18.7029 5.32259L19.004 6.06377C19.0127 6.06024 19.0213 6.05671 19.0299 6.05318L18.7255 5.31336ZM16.1546 5.13204C16.1566 5.14792 16.1582 5.16073 16.1596 5.17301L16.9546 5.08348C16.9525 5.06483 16.9501 5.04658 16.9482 5.0316L16.1546 5.13204ZM16.1502 5.09681C16.1517 5.10916 16.1532 5.12137 16.1546 5.13204L16.9482 5.03159C16.9468 5.02049 16.9456 5.01102 16.9446 5.00188L16.1502 5.09681ZM16.9538 5.07736C16.9506 5.05221 16.9475 5.02737 16.9447 5.00292L16.1501 5.09578C16.1533 5.12363 16.1568 5.15147 16.1603 5.17913L16.9538 5.07736ZM15.9583 4.55261C15.9656 4.56985 15.9727 4.58712 15.9797 4.60441L16.7219 4.30582C16.7132 4.28434 16.7044 4.26292 16.6954 4.24157L15.9583 4.55261ZM16.72 4.30116C16.7122 4.2826 16.7047 4.26444 16.6975 4.24653L15.9563 4.54765C15.9647 4.56843 15.9732 4.58895 15.9816 4.60907L16.72 4.30116ZM15.2271 3.72703C15.2363 3.73409 15.2455 3.7412 15.2546 3.74836L15.7491 3.11951C15.7377 3.11059 15.7263 3.10173 15.7149 3.09293L15.2271 3.72703ZM15.7474 3.11819L15.7166 3.09424L15.2254 3.72572L15.2562 3.74967L15.7474 3.11819ZM15.2934 2.84525C15.2758 2.8381 15.258 2.83072 15.2397 2.82311L14.9319 3.56151C14.9517 3.56977 14.9719 3.57812 14.9923 3.58643L15.2934 2.84525ZM14.9365 3.56343C14.9535 3.57026 14.9705 3.57724 14.9874 3.58437L15.2984 2.84731C15.2774 2.83842 15.2562 2.82972 15.235 2.8212L14.9365 3.56343ZM13.5602 3.39637C13.5852 3.39306 13.6103 3.39003 13.6353 3.38728L13.5481 2.59205C13.5171 2.59545 13.4862 2.59919 13.4553 2.60328L13.5602 3.39637ZM13.5413 2.59285C13.5146 2.59625 13.4882 2.59945 13.4623 2.60241L13.5532 3.39724C13.5829 3.39384 13.6126 3.39023 13.6421 3.38648L13.5413 2.59285ZM13.0205 3.58557C13.0277 3.58263 13.0348 3.57971 13.0419 3.57682L12.7416 2.83533C12.7328 2.83889 12.724 2.84249 12.7153 2.84611L13.0205 3.58557ZM12.7396 2.83616C12.7321 2.83923 12.7247 2.84227 12.7173 2.84525L13.0184 3.58642C13.027 3.58295 13.0355 3.57947 13.044 3.57599L12.7396 2.83616ZM11.3133 4.24653C11.306 4.26444 11.2985 4.2826 11.2908 4.30116L12.0292 4.60907C12.0376 4.58895 12.046 4.56843 12.0545 4.54765L11.3133 4.24653ZM12.0311 4.60441C12.038 4.58712 12.0452 4.56985 12.0524 4.55261L11.3154 4.24157C11.3064 4.26292 11.2975 4.28434 11.2889 4.30582L12.0311 4.60441ZM9.2482 6.20185C9.26081 6.21131 9.27357 6.22128 9.28726 6.23225L9.78748 5.60794C9.76936 5.59341 9.74959 5.57789 9.72821 5.56186L9.2482 6.20185ZM9.78295 5.60435L9.73378 5.56611L9.24263 6.1976L9.29179 6.23584L9.78295 5.60435ZM9.30789 5.31986C9.30043 5.31683 9.29291 5.31375 9.28533 5.31063L8.9809 6.05044C8.98947 6.05397 8.9981 6.05751 9.00679 6.06104L9.30789 5.31986ZM8.98295 6.05128C8.99019 6.05421 8.99744 6.05718 9.00471 6.06018L9.30998 5.32072C9.30111 5.31705 9.29221 5.31341 9.28328 5.3098L8.98295 6.05128ZM7.7664 5.04291C7.75545 5.04447 7.7445 5.04603 7.73353 5.04758L7.84574 5.83968C7.85706 5.83807 7.86833 5.83647 7.87954 5.83487L7.7664 5.04291ZM7.84769 5.83939C7.85765 5.83793 7.86763 5.83651 7.87762 5.83513L7.76831 5.04264C7.75607 5.04433 7.74383 5.04607 7.73158 5.04786L7.84769 5.83939ZM7.56786 5.07005C7.54072 5.0735 7.51397 5.07675 7.48771 5.07975L7.57854 5.87458C7.60868 5.87114 7.63882 5.86747 7.66875 5.86366L7.56786 5.07005ZM7.58599 5.87366C7.61116 5.8703 7.63636 5.86725 7.6616 5.86451L7.57501 5.06921C7.54343 5.07264 7.51184 5.07647 7.48026 5.08068L7.58599 5.87366ZM7.05138 6.05745C7.05832 6.05459 7.06526 6.05175 7.0722 6.04894L6.77194 5.30742C6.76333 5.31091 6.75472 5.31443 6.74612 5.31798L7.05138 6.05745ZM6.76992 5.30825C6.76263 5.31125 6.75539 5.31421 6.74819 5.31713L7.04931 6.0583C7.05766 6.0549 7.06597 6.05151 7.07423 6.04811L6.76992 5.30825ZM5.04808 8.28452C5.04956 8.29487 5.05103 8.30521 5.0525 8.31554L5.84459 8.2033C5.84307 8.19259 5.84155 8.18195 5.84004 8.17138L5.04808 8.28452ZM5.84431 8.20135C5.84293 8.192 5.8416 8.18265 5.84031 8.1733L5.04781 8.2826C5.04942 8.29425 5.05108 8.30588 5.05278 8.31748L5.84431 8.20135ZM5.07484 8.48004C5.07843 8.50821 5.08182 8.53597 5.08493 8.56321L5.87976 8.47237C5.87619 8.44112 5.87237 8.40986 5.86841 8.37883L5.07484 8.48004ZM5.87884 8.46492C5.87533 8.43862 5.87214 8.41231 5.86926 8.38599L5.07399 8.47287C5.07756 8.5055 5.08151 8.5381 5.08585 8.57066L5.87884 8.46492ZM6.06536 8.99953C6.06236 8.99226 6.05939 8.985 6.05645 8.97774L5.31497 9.27809C5.31858 9.28701 5.32223 9.29592 5.3259 9.30481L6.06536 8.99953ZM5.3158 9.28014C5.31892 9.28771 5.322 9.29524 5.32504 9.30272L6.06621 9.00161C6.06268 8.99293 6.05915 8.98429 6.05561 8.9757L5.3158 9.28014ZM5.13446 11.851C5.15036 11.849 5.16315 11.8474 5.17543 11.846L5.08594 11.051C5.06727 11.0531 5.049 11.0555 5.03402 11.0574L5.13446 11.851ZM5.09932 11.8554C5.11164 11.8539 5.12383 11.8524 5.13448 11.851L5.034 11.0574C5.02292 11.0588 5.01348 11.06 5.00437 11.061L5.09932 11.8554ZM5.0798 11.0518C5.05466 11.055 5.02984 11.0581 5.00541 11.0609L5.09828 11.8555C5.12612 11.8523 5.15393 11.8488 5.18156 11.8453L5.0798 11.0518ZM4.55505 12.0473C4.57228 12.04 4.58955 12.0329 4.60685 12.0259L4.30824 11.2837C4.28678 11.2924 4.26537 11.3012 4.24401 11.3102L4.55505 12.0473ZM4.30359 11.2856C4.28504 11.2934 4.26688 11.3009 4.24898 11.3081L4.55009 12.0493C4.57086 12.0409 4.59138 12.0324 4.6115 12.024L4.30359 11.2856ZM3.72947 12.7785C3.73654 12.7693 3.74365 12.7601 3.75081 12.751L3.12196 12.2565C3.11305 12.2679 3.10418 12.2793 3.09537 12.2907L3.72947 12.7785ZM3.12065 12.2582L3.09668 12.289L3.72816 12.7802L3.75212 12.7494L3.12065 12.2582ZM2.84769 12.7122C2.84054 12.7298 2.83316 12.7476 2.82555 12.7659L3.56396 13.0737C3.57222 13.0539 3.58056 13.0337 3.58887 13.0133L2.84769 12.7122ZM3.56587 13.0691C3.5727 13.0521 3.57968 13.0351 3.58681 13.0182L2.84975 12.7072C2.84087 12.7282 2.83216 12.7494 2.82364 12.7706L3.56587 13.0691ZM3.39881 14.4454C3.3955 14.4204 3.39247 14.3953 3.38972 14.3703L2.59449 14.4575C2.59789 14.4885 2.60163 14.5194 2.60572 14.5503L3.39881 14.4454ZM2.59529 14.4643C2.59869 14.491 2.60189 14.5174 2.60485 14.5433L3.39968 14.4524C3.39628 14.4227 3.39267 14.393 3.38892 14.3635L2.59529 14.4643ZM3.58801 14.9851C3.58507 14.9779 3.58216 14.9708 3.57927 14.9637L2.83777 15.264C2.84133 15.2728 2.84493 15.2816 2.84856 15.2904L3.58801 14.9851ZM2.8386 15.266C2.84168 15.2735 2.84471 15.2809 2.84769 15.2883L3.58887 14.9872C3.58539 14.9786 3.5819 14.9701 3.57843 14.9616L2.8386 15.266ZM4.24897 16.6923C4.26688 16.6996 4.28505 16.7071 4.3036 16.7148L4.61152 15.9764C4.59138 15.968 4.57087 15.9596 4.55009 15.9511L4.24897 16.6923ZM4.60686 15.9745C4.58956 15.9676 4.57229 15.9604 4.55506 15.9532L4.244 16.6902C4.26536 16.6992 4.28678 16.7081 4.30826 16.7167L4.60686 15.9745ZM5.32231 18.6977C5.31926 18.7052 5.31618 18.7127 5.31306 18.7203L6.05287 19.0248C6.05641 19.0161 6.05995 19.0075 6.06347 18.9988L5.32231 18.6977ZM6.05371 19.0227C6.05665 19.0154 6.05962 19.0082 6.06262 19.0009L5.32316 18.6956C5.31949 18.7045 5.31584 18.7134 5.31222 18.7224L6.05371 19.0227ZM5.04535 20.2392C5.04691 20.2502 5.04847 20.2611 5.05002 20.2721L5.84212 20.1599C5.84051 20.1485 5.83891 20.1373 5.83731 20.1261L5.04535 20.2392ZM5.84184 20.1579C5.84037 20.1479 5.83896 20.138 5.83758 20.128L5.04508 20.2373C5.04677 20.2495 5.04851 20.2618 5.05031 20.274L5.84184 20.1579ZM5.07249 20.4377C5.07594 20.4649 5.07919 20.4916 5.0822 20.5179L5.87702 20.4271C5.87358 20.3969 5.86991 20.3668 5.8661 20.3369L5.07249 20.4377ZM5.8761 20.4196C5.87275 20.3944 5.8697 20.3692 5.86695 20.344L5.07165 20.4306C5.07509 20.4622 5.07891 20.4938 5.08312 20.5253L5.8761 20.4196ZM6.05988 20.9542C6.05703 20.9473 6.0542 20.9404 6.05138 20.9334L5.30987 21.2337C5.31335 21.2423 5.31687 21.2509 5.32043 21.2595L6.05988 20.9542ZM5.3107 21.2357C5.31369 21.243 5.31665 21.2502 5.31958 21.2574L6.06073 20.9563C6.05735 20.948 6.05396 20.9397 6.05055 20.9314L5.3107 21.2357ZM8.28698 22.9575C8.29728 22.956 8.30762 22.9546 8.31801 22.9531L8.20574 22.161C8.19508 22.1625 8.18444 22.164 8.17381 22.1656L8.28698 22.9575ZM8.20378 22.1613C8.1945 22.1627 8.18515 22.164 8.17571 22.1653L8.28507 22.9578C8.29664 22.9562 8.30828 22.9545 8.31997 22.9528L8.20378 22.1613ZM8.48243 22.9308C8.51064 22.9272 8.5384 22.9238 8.56564 22.9207L8.47483 22.1258C8.44354 22.1294 8.41227 22.1332 8.38124 22.1372L8.48243 22.9308ZM8.46738 22.1268C8.44106 22.1303 8.41473 22.1335 8.38839 22.1363L8.47528 22.9316C8.50792 22.9281 8.54053 22.9241 8.57309 22.9198L8.46738 22.1268ZM9.00198 21.9402C8.99477 21.9432 8.98752 21.9462 8.98024 21.9491L9.28064 22.6906C9.28949 22.687 9.29836 22.6834 9.30724 22.6797L9.00198 21.9402ZM9.28264 22.6898C9.2902 22.6867 9.2977 22.6836 9.30516 22.6806L9.00406 21.9394C8.9954 21.9429 8.98679 21.9464 8.97824 21.95L9.28264 22.6898ZM11.8535 22.8711C11.8515 22.8553 11.8499 22.8425 11.8485 22.8302L11.0535 22.9197C11.0556 22.9383 11.0579 22.9566 11.0598 22.9716L11.8535 22.8711ZM11.8579 22.9064C11.8564 22.894 11.8548 22.8818 11.8535 22.8711L11.0598 22.9716C11.0612 22.9827 11.0624 22.9922 11.0635 23.0013L11.8579 22.9064ZM11.0542 22.9258C11.0575 22.951 11.0605 22.9758 11.0634 23.0003L11.858 22.9074C11.8547 22.8796 11.8513 22.8517 11.8477 22.8241L11.0542 22.9258ZM12.0497 23.4506C12.0424 23.4333 12.0353 23.416 12.0284 23.3988L11.2862 23.6974C11.2948 23.7188 11.3036 23.7402 11.3126 23.7616L12.0497 23.4506ZM11.2881 23.702C11.2958 23.7206 11.3033 23.7387 11.3106 23.7566L12.0518 23.4555C12.0433 23.4347 12.0348 23.4142 12.0264 23.3941L11.2881 23.702ZM12.7809 24.2761C12.7717 24.2691 12.7626 24.2619 12.7534 24.2548L12.2589 24.8836C12.2703 24.8925 12.2817 24.9014 12.2932 24.9102L12.7809 24.2761ZM12.2606 24.8849L12.2915 24.9089L12.7826 24.2774L12.7518 24.2535L12.2606 24.8849ZM12.7146 25.1579C12.7322 25.1651 12.7501 25.1725 12.7684 25.1801L13.0762 24.4417C13.0564 24.4334 13.0362 24.4251 13.0157 24.4167L12.7146 25.1579ZM13.0716 24.4398C13.0546 24.4329 13.0376 24.4259 13.0207 24.4188L12.7096 25.1559C12.7307 25.1647 12.7518 25.1735 12.773 25.182L13.0716 24.4398ZM14.4479 24.6068C14.4228 24.6101 14.3978 24.6131 14.3728 24.6159L14.46 25.4111C14.491 25.4077 14.5219 25.404 14.5528 25.3999L14.4479 24.6068ZM14.4668 25.4103C14.4935 25.4069 14.5199 25.4037 14.5457 25.4008L14.4549 24.6059C14.4252 24.6093 14.3955 24.6129 14.366 24.6167L14.4668 25.4103ZM14.9875 24.4176C14.9804 24.4205 14.9732 24.4235 14.9661 24.4263L15.2664 25.1679C15.2752 25.1643 15.284 25.1607 15.2928 25.157L14.9875 24.4176ZM15.2684 25.167C15.276 25.1639 15.2834 25.1609 15.2907 25.1579L14.9896 24.4167C14.981 24.4202 14.9725 24.4237 14.9641 24.4272L15.2684 25.167ZM16.6947 23.7566C16.702 23.7387 16.7095 23.7206 16.7172 23.702L15.9789 23.3941C15.9705 23.4142 15.962 23.4347 15.9536 23.4555L16.6947 23.7566ZM15.977 23.3988C15.97 23.416 15.9629 23.4333 15.9556 23.4506L16.6927 23.7616C16.7017 23.7402 16.7105 23.7188 16.7191 23.6974L15.977 23.3988ZM18.7598 21.8013C18.7472 21.7918 18.7345 21.7819 18.7208 21.7709L18.2205 22.3952C18.2387 22.4097 18.2584 22.4253 18.2798 22.4413L18.7598 21.8013ZM18.2251 22.3988L18.2743 22.437L18.7654 21.8056L18.7162 21.7673L18.2251 22.3988ZM18.7001 22.6833C18.7077 22.6864 18.7152 22.6894 18.7227 22.6925L19.0272 21.9527C19.0185 21.9492 19.0099 21.9456 19.0013 21.9421L18.7001 22.6833ZM19.0251 21.9519C19.0179 21.9489 19.0106 21.946 19.0034 21.943L18.6981 22.6824C18.707 22.6861 18.7159 22.6898 18.7248 22.6934L19.0251 21.9519ZM20.2416 22.9603C20.2526 22.9587 20.2636 22.9571 20.2745 22.9556L20.1623 22.1635C20.151 22.1651 20.1397 22.1667 20.1285 22.1683L20.2416 22.9603ZM20.1604 22.1638C20.1504 22.1652 20.1404 22.1667 20.1304 22.168L20.2397 22.9605C20.252 22.9588 20.2642 22.9571 20.2764 22.9553L20.1604 22.1638ZM20.4402 22.9331C20.4673 22.9297 20.4941 22.9264 20.5203 22.9234L20.4295 22.1286C20.3994 22.132 20.3692 22.1357 20.3393 22.1395L20.4402 22.9331ZM20.4221 22.1295C20.3969 22.1329 20.3717 22.1359 20.3464 22.1387L20.433 22.934C20.4646 22.9305 20.4962 22.9267 20.5278 22.9225L20.4221 22.1295ZM20.9567 21.9457C20.9497 21.9486 20.9428 21.9514 20.9358 21.9542L21.236 22.6958C21.2447 22.6923 21.2533 22.6887 21.2619 22.6852L20.9567 21.9457ZM21.2381 22.6949C21.2454 22.6919 21.2526 22.689 21.2598 22.686L20.9588 21.9448C20.9504 21.9483 20.942 21.9517 20.9338 21.9551L21.2381 22.6949ZM22.96 19.7186C22.9585 19.7083 22.957 19.698 22.9555 19.6876L22.1635 19.7999C22.165 19.8105 22.1665 19.8212 22.168 19.8318L22.96 19.7186ZM22.1637 19.8018C22.1651 19.8112 22.1665 19.8206 22.1677 19.8298L22.9602 19.7206C22.9586 19.7089 22.957 19.6973 22.9553 19.6857L22.1637 19.8018ZM22.9332 19.5231C22.9296 19.495 22.9262 19.4672 22.9231 19.44L22.1283 19.5308C22.1319 19.5621 22.1357 19.5933 22.1396 19.6244L22.9332 19.5231ZM22.1292 19.5382C22.1327 19.5645 22.1359 19.5909 22.1388 19.6172L22.9341 19.5303C22.9305 19.4977 22.9265 19.4651 22.9222 19.4325L22.1292 19.5382ZM21.9427 19.0036C21.9457 19.0109 21.9487 19.0182 21.9516 19.0254L22.6931 18.7251C22.6895 18.7162 22.6858 18.7073 22.6822 18.6984L21.9427 19.0036ZM22.6923 18.7231C22.6891 18.7154 22.686 18.7079 22.683 18.7005L21.9418 19.0015C21.9454 19.0103 21.9489 19.0189 21.9524 19.0274L22.6923 18.7231ZM5.60681 18.2226L5.56856 18.2718L6.20004 18.763L6.23829 18.7138L5.60681 18.2226ZM6.20429 18.7574C6.21375 18.7448 6.22373 18.732 6.23471 18.7183L5.61039 18.2181C5.59587 18.2362 5.58034 18.256 5.5643 18.2774L6.20429 18.7574ZM16.873 14.0001C16.873 14.1297 16.8668 14.2592 16.8545 14.3878L17.6509 14.464C17.6656 14.3099 17.673 14.155 17.673 14.0001H16.873ZM16.8532 13.5977C16.8664 13.732 16.873 13.8661 16.873 14.0001H17.673C17.673 13.8398 17.6651 13.6796 17.6494 13.5195L16.8532 13.5977ZM16.6573 12.8841C16.7478 13.1251 16.8145 13.3722 16.8568 13.6246L17.6458 13.4925C17.5949 13.1885 17.5146 12.8915 17.4063 12.603L16.6573 12.8841ZM16.2678 12.2223C16.4231 12.437 16.5564 12.6676 16.6685 12.9109L17.3951 12.5762C17.2625 12.2884 17.1034 12.0125 16.916 11.7534L16.2678 12.2223ZM15.7456 11.7064C15.9417 11.8697 16.1218 12.0486 16.2846 12.2439L16.8992 11.7318C16.7042 11.4978 16.4894 11.2848 16.2577 11.0917L15.7456 11.7064ZM15.0941 11.3309C15.3318 11.4412 15.5574 11.5718 15.7677 11.7235L16.2356 11.0746C15.9819 10.8916 15.712 10.7357 15.4307 10.6052L15.0941 11.3309ZM14.358 11.1366C14.6188 11.1811 14.874 11.2501 15.1226 11.3428L15.4021 10.5932C15.1073 10.4833 14.8036 10.401 14.4925 10.348L14.358 11.1366ZM13.5962 11.1412C13.8589 11.1153 14.1227 11.1151 14.3871 11.1404L14.4634 10.3441C14.1479 10.3138 13.8323 10.3141 13.5179 10.345L13.5962 11.1412ZM12.8812 11.3373C13.1226 11.2467 13.3702 11.1798 13.623 11.1376L13.4911 10.3485C13.1865 10.3994 12.889 10.4798 12.6001 10.5883L12.8812 11.3373ZM12.2194 11.7268C12.4341 11.5715 12.6647 11.4382 12.908 11.3261L12.5733 10.5995C12.2855 10.7321 12.0096 10.8912 11.7505 11.0786L12.2194 11.7268ZM11.7034 12.249C11.8668 12.0529 12.0457 11.8727 12.241 11.71L11.7289 11.0954C11.4949 11.2904 11.2819 11.5052 11.0888 11.7369L11.7034 12.249ZM11.328 12.9005C11.4383 12.6628 11.5689 12.4372 11.7205 12.2269L11.0717 11.759C10.8887 12.0127 10.7327 12.2826 10.6022 12.5639L11.328 12.9005ZM11.1336 13.6366C11.1782 13.3758 11.2472 13.1205 11.3399 12.872L10.5903 12.5925C10.4804 12.8873 10.3981 13.191 10.345 13.5021L11.1336 13.6366ZM11.1382 14.3984C11.1124 14.1357 11.1122 13.8719 11.1375 13.6075L10.3412 13.5312C10.3109 13.8467 10.3112 14.1623 10.3421 14.4766L11.1382 14.3984ZM11.3343 15.1134C11.2437 14.872 11.1769 14.6244 11.1347 14.3716L10.3456 14.5035C10.3965 14.8081 10.4769 15.1055 10.5854 15.3945L11.3343 15.1134ZM11.7239 15.7752C11.5686 15.5605 11.4353 15.3299 11.3232 15.0866L10.5966 15.4213C10.7292 15.7091 10.8883 15.985 11.0757 16.2441L11.7239 15.7752ZM12.2461 16.2912C12.05 16.1278 11.8698 15.9489 11.7071 15.7536L11.0925 16.2657C11.2875 16.4997 11.5023 16.7127 11.734 16.9058L12.2461 16.2912ZM12.8976 16.6666C12.6598 16.5563 12.4343 16.4257 12.224 16.274L11.756 16.9229C12.0098 17.1059 12.2796 17.2618 12.561 17.3924L12.8976 16.6666ZM13.6337 16.8609C13.3728 16.8164 13.1176 16.7474 12.869 16.6547L12.5896 17.4043C12.8844 17.5142 13.1881 17.5965 13.4991 17.6495L13.6337 16.8609ZM14.3955 16.8563C14.1328 16.8822 13.869 16.8824 13.6046 16.8571L13.5282 17.6534C13.8438 17.6837 14.1594 17.6834 14.4737 17.6525L14.3955 16.8563ZM15.1105 16.6602C14.8691 16.7508 14.6215 16.8177 14.3687 16.8599L14.5006 17.649C14.8052 17.5981 15.1026 17.5177 15.3916 17.4092L15.1105 16.6602ZM15.7723 16.2707C15.5576 16.426 15.327 16.5593 15.0837 16.6714L15.4184 17.398C15.7062 17.2654 15.9821 17.1063 16.2412 16.9189L15.7723 16.2707ZM16.2882 15.7485C16.1249 15.9446 15.946 16.1248 15.7507 16.2875L16.2627 16.9021C16.4968 16.7071 16.7098 16.4924 16.9029 16.2606L16.2882 15.7485ZM16.6637 15.097C16.5534 15.3348 16.4228 15.5603 16.2711 15.7706L16.92 16.2386C17.103 15.9848 17.2589 15.715 17.3894 15.4336L16.6637 15.097ZM16.8584 14.3588C16.8139 14.6204 16.7447 14.8763 16.6518 15.1256L17.4014 15.405C17.5116 15.1094 17.594 14.8049 17.6471 14.493L16.8584 14.3588ZM17.3401 15.5616C17.3424 15.5558 17.3448 15.55 17.3472 15.5441L16.6071 15.2404C16.6044 15.247 16.6016 15.2537 16.5989 15.2605L17.3401 15.5616ZM16.6065 15.2418C16.6042 15.2475 16.6019 15.2533 16.5995 15.259L17.3395 15.5631C17.3422 15.5563 17.345 15.5495 17.3478 15.5426L16.6065 15.2418ZM15.2537 16.6034C15.2383 16.6099 15.2228 16.6162 15.2074 16.6225L15.5073 17.3641C15.5258 17.3566 15.5442 17.3491 15.5626 17.3414L15.2537 16.6034ZM15.511 17.3626C15.5271 17.3559 15.543 17.3493 15.5587 17.343L15.2576 16.6018C15.2394 16.6092 15.2214 16.6166 15.2037 16.624L15.511 17.3626ZM14.3682 17.6691C14.3807 17.6674 14.3932 17.6656 14.4057 17.6638L14.2936 16.8717C14.2807 16.8735 14.2679 16.8754 14.2551 16.8772L14.3682 17.6691ZM14.2916 16.872C14.2801 16.8737 14.2686 16.8753 14.2571 16.8769L14.3662 17.6694C14.3801 17.6675 14.3939 17.6656 14.4078 17.6635L14.2916 16.872ZM14.5389 17.6456C14.5756 17.6408 14.6117 17.6363 14.6469 17.6323L14.5561 16.8375C14.5157 16.8421 14.4752 16.8471 14.4352 16.8523L14.5389 17.6456ZM14.5476 16.8385C14.5128 16.8433 14.478 16.8475 14.4433 16.8514L14.5308 17.6466C14.5724 17.642 14.6139 17.6369 14.6554 17.6312L14.5476 16.8385ZM12.433 17.343C12.4387 17.3453 12.4445 17.3477 12.4504 17.3501L12.7541 16.61C12.7475 16.6073 12.7408 16.6045 12.7341 16.6018L12.433 17.343ZM12.7527 16.6094C12.747 16.6071 12.7412 16.6047 12.7355 16.6024L12.4315 17.3424C12.4383 17.3452 12.4451 17.3479 12.4518 17.3506L12.7527 16.6094ZM11.3912 15.2566C11.3847 15.2412 11.3784 15.2257 11.3721 15.2103L10.6305 15.5102C10.6379 15.5287 10.6455 15.5471 10.6532 15.5655L11.3912 15.2566ZM10.632 15.5139C10.6387 15.5301 10.6453 15.5459 10.6516 15.5616L11.3928 15.2605C11.3854 15.2423 11.378 15.2243 11.3706 15.2066L10.632 15.5139ZM10.3254 14.3711C10.3272 14.3836 10.329 14.3961 10.3308 14.4086L11.1229 14.2966C11.1211 14.2836 11.1192 14.2708 11.1174 14.258L10.3254 14.3711ZM11.1226 14.2945C11.1209 14.283 11.1193 14.2715 11.1177 14.26L10.3252 14.3691C10.3271 14.383 10.329 14.3968 10.3311 14.4107L11.1226 14.2945ZM10.349 14.5418C10.3538 14.5785 10.3583 14.6146 10.3623 14.6498L11.1571 14.559C11.1525 14.5186 11.1475 14.4781 11.1423 14.4381L10.349 14.5418ZM11.1561 14.5505C11.1513 14.5157 11.147 14.481 11.1432 14.4462L10.348 14.5337C10.3526 14.5753 10.3577 14.6168 10.3634 14.6583L11.1561 14.5505ZM10.6516 12.4359C10.6493 12.4417 10.6469 12.4475 10.6445 12.4533L11.3846 12.7571C11.3873 12.7504 11.3901 12.7437 11.3928 12.737L10.6516 12.4359ZM11.3852 12.7556C11.3875 12.7499 11.3898 12.7442 11.3922 12.7385L10.6522 12.4344C10.6494 12.4412 10.6467 12.448 10.6439 12.4548L11.3852 12.7556ZM12.738 11.3941C12.7534 11.3876 12.7689 11.3813 12.7843 11.375L12.4844 10.6334C12.4659 10.6409 12.4475 10.6484 12.4291 10.6561L12.738 11.3941ZM12.4807 10.6349C12.4645 10.6416 12.4486 10.6482 12.433 10.6545L12.7341 11.3957C12.7523 11.3883 12.7703 11.3809 12.788 11.3735L12.4807 10.6349ZM13.6234 10.3284C13.611 10.3301 13.5985 10.3319 13.586 10.3337L13.698 11.1258C13.711 11.124 13.7238 11.1221 13.7366 11.1203L13.6234 10.3284ZM13.7001 11.1255C13.7116 11.1238 13.7231 11.1222 13.7346 11.1206L13.6255 10.3281C13.6116 10.33 13.5978 10.332 13.5839 10.334L13.7001 11.1255ZM13.4528 10.3519C13.4161 10.3567 13.38 10.3612 13.3448 10.3652L13.4356 11.16C13.476 11.1554 13.5165 11.1504 13.5565 11.1452L13.4528 10.3519ZM13.4441 11.159C13.4789 11.1542 13.5136 11.15 13.5484 11.1461L13.4609 10.3509C13.4193 10.3555 13.3778 10.3606 13.3363 10.3663L13.4441 11.159ZM15.5587 10.6545C15.5529 10.6522 15.5471 10.6498 15.5412 10.6474L15.2375 11.3875C15.2442 11.3902 15.2509 11.393 15.2576 11.3957L15.5587 10.6545ZM15.2389 11.3881C15.2447 11.3904 15.2504 11.3928 15.2561 11.3951L15.5602 10.6551C15.5534 10.6523 15.5466 10.6496 15.5398 10.6468L15.2389 11.3881ZM16.6005 12.7409C16.607 12.7563 16.6133 12.7718 16.6196 12.7873L17.3612 12.4873C17.3538 12.4689 17.3462 12.4504 17.3385 12.432L16.6005 12.7409ZM17.3597 12.4837C17.353 12.4675 17.3464 12.4516 17.3401 12.4359L16.5989 12.737C16.6063 12.7552 16.6137 12.7733 16.6211 12.791L17.3597 12.4837ZM17.6662 13.6264C17.6645 13.6139 17.6627 13.6014 17.6609 13.5889L16.8688 13.7009C16.8706 13.7139 16.8725 13.7268 16.8743 13.7395L17.6662 13.6264ZM16.8691 13.703C16.8708 13.7145 16.8724 13.726 16.874 13.7375L17.6665 13.6284C17.6646 13.6145 17.6626 13.6007 17.6606 13.5869L16.8691 13.703ZM17.6422 13.4521C17.6376 13.4166 17.6333 13.3818 17.6294 13.3477L16.8346 13.4385C16.839 13.4776 16.8439 13.5167 16.8489 13.5554L17.6422 13.4521ZM16.8356 13.4466C16.8401 13.4804 16.8443 13.514 16.848 13.5477L17.6432 13.4599C17.6387 13.4197 17.6338 13.3796 17.6284 13.3395L16.8356 13.4466ZM19.8495 14.1854C19.8571 14.1241 19.8608 14.0616 19.8605 13.9983L19.0605 14.0019C19.0606 14.0316 19.0589 14.0603 19.0555 14.088L19.8495 14.1854ZM19.8605 13.9981C19.8547 12.8368 19.5112 11.6323 18.8171 10.6683L18.1679 11.1358C18.7535 11.9491 19.0554 12.9869 19.0605 14.0021L19.8605 13.9981ZM18.8174 10.6688C18.4245 10.1216 17.986 9.67443 17.4512 9.27041L16.969 9.90874C17.4404 10.2649 17.8222 10.6544 18.1676 11.1354L18.8174 10.6688ZM17.452 9.27103C16.9788 8.91158 16.4559 8.65956 15.9228 8.46467L15.6481 9.21603C16.1323 9.39302 16.5774 9.61131 16.9682 9.90811L17.452 9.27103ZM15.9227 8.46461C14.8044 8.05636 13.5227 8.03765 12.3944 8.36004L12.6141 9.12926C13.5912 8.85008 14.6994 8.86966 15.6483 9.21609L15.9227 8.46461ZM12.3946 8.35996C11.3057 8.67024 10.2689 9.31411 9.53804 10.1989L10.1548 10.7084C10.7747 9.958 11.6684 9.39874 12.6139 9.12934L12.3946 8.35996ZM9.53652 10.2007C9.3383 10.4436 9.13576 10.7068 8.96265 10.9933L9.64738 11.407C9.79146 11.1685 9.96627 10.9394 10.1563 10.7065L9.53652 10.2007ZM8.96233 10.9938C8.78409 11.2899 8.65144 11.5985 8.5329 11.888L9.27323 12.1912C9.38985 11.9064 9.50328 11.6463 9.64771 11.4064L8.96233 10.9938ZM8.53291 11.888C8.30188 12.452 8.19468 13.0426 8.14884 13.6213L8.94635 13.6844C8.98801 13.1585 9.08316 12.6552 9.27322 12.1912L8.53291 11.888ZM8.14881 13.6217C8.05723 14.7945 8.36649 16.0177 8.97112 17.0156L9.65533 16.601C9.13338 15.7396 8.86843 14.6823 8.94638 13.684L8.14881 13.6217ZM8.97096 17.0153C9.55231 17.9765 10.4339 18.8118 11.4774 19.2861L11.8084 18.5578C10.9269 18.1572 10.1624 17.4394 9.65548 16.6013L8.97096 17.0153ZM11.4782 19.2865C11.7685 19.4177 12.0797 19.5477 12.4094 19.6406L12.6264 18.8706C12.3545 18.794 12.0861 18.6833 11.8076 18.5575L11.4782 19.2865ZM12.4089 19.6405C12.7506 19.7372 13.095 19.7838 13.4165 19.8223L13.5115 19.028C13.1932 18.9899 12.9032 18.949 12.6269 18.8707L12.4089 19.6405ZM13.4156 19.8222C14.0305 19.8972 14.6468 19.8421 15.2279 19.7242L15.0688 18.9401C14.5452 19.0464 14.0186 19.0898 13.5124 19.0281L13.4156 19.8222ZM15.2269 19.7244C17.4902 19.2711 19.4028 17.3211 19.76 15.0269L18.9696 14.9038C18.6651 16.8588 17.012 18.551 15.0698 18.9399L15.2269 19.7244ZM19.7602 15.0257C19.8029 14.746 19.8418 14.4518 19.8523 14.1506L19.0528 14.1229C19.044 14.3763 19.0108 14.6334 18.9694 14.905L19.7602 15.0257Z" fill="white"/>
</svg>
