<svg width="31" height="22" viewBox="0 0 31 22" fill="none" xmlns="http://www.w3.org/2000/svg">
<path d="M15.6038 1C13.6165 1 11.8052 2.39339 11.8052 4.34206C11.8052 4.87314 12.2726 5.3579 12.7989 5.3579C13.3251 5.3579 13.7925 4.87355 13.7925 4.34206C13.7925 3.6925 14.5056 2.99539 15.6042 2.99539C16.7025 2.99539 17.4159 3.6925 17.4159 4.34206C17.4159 5.56983 17.0187 5.85352 16.3177 6.56189C15.7096 7.16431 14.9032 8.07377 14.6811 9.51431C13.4422 9.95151 12.2614 10.6599 11.8758 11.7462C11.7239 12.1834 11.2212 12.7028 10.2392 13.211C9.25761 13.7187 7.93649 14.1914 6.59254 14.687C5.24817 15.1947 3.8926 15.7383 2.78191 16.5176C1.67164 17.3086 0.759766 18.49 0.759766 19.9894C0.759766 20.5205 1.22712 20.9931 1.75341 20.9931H29.4554C29.9817 20.9931 30.4495 20.5205 30.4495 19.9894C30.4495 18.4896 29.5376 17.3086 28.4269 16.5176C27.3171 15.7383 25.9723 15.1947 24.6283 14.687C23.2844 14.1914 21.9517 13.7187 20.9701 13.211C19.9884 12.7028 19.5207 12.1718 19.3455 11.7462C18.9014 10.6365 17.5807 9.77421 16.6572 9.53809C16.7975 8.82971 17.1711 8.51056 17.7085 7.97949C18.3984 7.28279 19.4036 6.18434 19.4036 4.34206C19.4024 2.39339 17.5907 1 15.6038 1ZM17.5795 12.6202C18.0933 13.6832 18.9931 14.4271 20.0578 14.9823C21.2382 15.5964 22.629 16.0687 23.9385 16.5647C25.2476 17.0486 26.4741 17.5685 27.293 18.1588C27.7014 18.4425 27.9828 18.7024 28.1816 18.9973H3.03883C3.22561 18.7024 3.51781 18.4425 3.92705 18.1588C4.74513 17.5685 5.97245 17.0486 7.28194 16.5647C8.59103 16.0687 9.97026 15.5964 11.1507 14.9823C12.2145 14.4271 13.1143 13.6832 13.6286 12.6202C13.9677 11.9119 14.8675 11.4041 15.6507 11.4158C16.399 11.4158 17.2283 11.8881 17.5795 12.6202Z" fill="#5F73F1" stroke="white" stroke-width="0.3"/>
</svg>
