<svg width="22" height="26" viewBox="0 0 22 26" fill="none" xmlns="http://www.w3.org/2000/svg">
<path d="M16.9438 0.774902H5.05625C3.89759 0.774902 2.78638 1.22904 1.96708 2.03742C1.14778 2.84579 0.6875 3.94219 0.6875 5.0854V23.8999C0.6875 24.1452 0.786272 24.3805 0.962088 24.554C1.1379 24.7274 1.37636 24.8249 1.625 24.8249H20.375C20.6236 24.8249 20.8621 24.7274 21.0379 24.554C21.2137 24.3805 21.3125 24.1452 21.3125 23.8999V5.0854C21.3125 3.94219 20.8522 2.84579 20.0329 2.03742C19.2136 1.22904 18.1024 0.774902 16.9438 0.774902ZM5.05625 2.6249H16.9438C17.6051 2.6249 18.2394 2.88413 18.7071 3.34557C19.1748 3.807 19.4375 4.43284 19.4375 5.0854V6.3249H2.5625V5.0854C2.5625 4.43284 2.82523 3.807 3.2929 3.34557C3.76057 2.88413 4.39487 2.6249 5.05625 2.6249ZM2.5625 22.9749V8.1749H19.4375V22.9749H2.5625Z" fill="#5F73F1" stroke="white" stroke-width="0.5"/>
<path d="M11 10.0249C9.88748 10.0249 8.79995 10.3504 7.87492 10.9602C6.94989 11.5701 6.22892 12.4369 5.80318 13.451C5.37744 14.4651 5.26604 15.5811 5.48309 16.6577C5.70013 17.7342 6.23586 18.7232 7.02253 19.4993C7.8092 20.2755 8.81148 20.8041 9.90262 21.0183C10.9938 21.2324 12.1248 21.1225 13.1526 20.7024C14.1804 20.2824 15.0589 19.571 15.677 18.6583C16.2951 17.7456 16.625 16.6726 16.625 15.5749C16.625 14.103 16.0324 12.6913 14.9775 11.6505C13.9226 10.6096 12.4918 10.0249 11 10.0249ZM11 19.2749C10.2583 19.2749 9.5333 19.0579 8.91661 18.6513C8.29993 18.2448 7.81928 17.6669 7.53545 16.9908C7.25163 16.3147 7.17736 15.5708 7.32206 14.8531C7.46675 14.1353 7.8239 13.4761 8.34835 12.9586C8.8728 12.4412 9.54098 12.0888 10.2684 11.946C10.9958 11.8032 11.7498 11.8765 12.4351 12.1565C13.1203 12.4366 13.706 12.9108 14.118 13.5193C14.5301 14.1278 14.75 14.8431 14.75 15.5749C14.75 16.5562 14.3549 17.4973 13.6517 18.1912C12.9484 18.8851 11.9946 19.2749 11 19.2749Z" fill="#5F73F1" stroke="white" stroke-width="0.5"/>
<path d="M14.3938 5.33505C14.5365 5.39292 14.6916 5.41512 14.8451 5.39968C14.9987 5.38423 15.146 5.33162 15.274 5.24652C15.4019 5.16141 15.5067 5.04645 15.5788 4.91182C15.6509 4.7772 15.6883 4.62709 15.6875 4.4748C15.6875 4.22948 15.5887 3.9942 15.4129 3.82073C15.2371 3.64726 14.9987 3.5498 14.75 3.5498C14.5014 3.5498 14.2629 3.64726 14.0871 3.82073C13.9113 3.9942 13.8125 4.22948 13.8125 4.4748C13.8118 4.59654 13.8355 4.71722 13.8821 4.82992C13.9288 4.94262 13.9975 5.04512 14.0844 5.13155C14.1753 5.21599 14.2798 5.28477 14.3938 5.33505Z" fill="#5F73F1" stroke="white" stroke-width="0.5"/>
<path d="M17.5626 5.39977C17.8112 5.39977 18.0497 5.30232 18.2255 5.12885C18.4013 4.95538 18.5001 4.7201 18.5001 4.47477C18.4995 4.35239 18.4744 4.23132 18.4261 4.11859C18.3779 4.00585 18.3074 3.90369 18.2188 3.81802C18.1782 3.77393 18.1307 3.73646 18.0782 3.70702C18.0303 3.67041 17.9764 3.64224 17.9188 3.62377C17.8642 3.58915 17.8039 3.56411 17.7407 3.54977C17.6204 3.52215 17.4953 3.52215 17.3751 3.54977C17.3163 3.5599 17.2595 3.5786 17.2063 3.60527C17.1466 3.62552 17.0898 3.65351 17.0376 3.68852L16.8969 3.79952C16.8078 3.88814 16.7377 3.99366 16.691 4.10971C16.6443 4.22576 16.6218 4.34994 16.6251 4.47477C16.6251 4.7201 16.7238 4.95538 16.8996 5.12885C17.0755 5.30232 17.3139 5.39977 17.5626 5.39977Z" fill="#5F73F1" stroke="white" stroke-width="0.5"/>
<path d="M4.4375 5.3998H6.3125C6.56114 5.3998 6.7996 5.30235 6.97541 5.12888C7.15123 4.95541 7.25 4.72013 7.25 4.4748C7.25 4.22948 7.15123 3.9942 6.97541 3.82073C6.7996 3.64726 6.56114 3.5498 6.3125 3.5498H4.4375C4.18886 3.5498 3.9504 3.64726 3.77459 3.82073C3.59877 3.9942 3.5 4.22948 3.5 4.4748C3.5 4.72013 3.59877 4.95541 3.77459 5.12888C3.9504 5.30235 4.18886 5.3998 4.4375 5.3998Z" fill="#5F73F1" stroke="white" stroke-width="0.5"/>
</svg>
