<svg width="25" height="13" viewBox="0 0 25 13" fill="none" xmlns="http://www.w3.org/2000/svg">
<path d="M13.2812 10.5H11.7188C10.4266 10.5 9.375 9.45685 9.375 8.175V5.075C9.375 3.79315 10.4266 2.75 11.7188 2.75H13.2812C14.5734 2.75 15.625 3.79315 15.625 5.075V8.175C15.625 9.45685 14.5734 10.5 13.2812 10.5ZM11.7188 4.3C11.2875 4.3 10.9375 4.6472 10.9375 5.075V8.175C10.9375 8.60125 11.2875 8.95 11.7188 8.95H13.2812C13.7109 8.95 14.0625 8.60125 14.0625 8.175V5.075C14.0625 4.6472 13.7109 4.3 13.2812 4.3H11.7188Z" fill="#5F73F1"/>
<path d="M2.34844 12.7321C1.90469 12.7321 1.46406 12.6065 1.07656 12.3585C0.401563 11.9292 0 11.1991 0 10.4071V2.84308C0 2.05103 0.401563 1.32253 1.075 0.891628C1.75313 0.460728 2.59219 0.397178 3.32344 0.727328L10.5312 4.03038C10.9219 4.21018 11.0938 4.67053 10.9125 5.05803C10.7328 5.44863 10.2703 5.61758 9.875 5.43778L2.67188 2.13628C2.42656 2.02468 2.15313 2.04483 1.92031 2.19518C1.69219 2.33933 1.5625 2.57648 1.5625 2.84308V10.4071C1.5625 10.6737 1.69219 10.9093 1.92031 11.055C2.15156 11.2022 2.42656 11.2239 2.675 11.1108L9.875 7.81238C10.2688 7.63258 10.7313 7.80308 10.9125 8.19058C11.0938 8.57963 10.9219 9.03998 10.5297 9.21978L3.32656 12.5213C3.01406 12.6639 2.67969 12.7321 2.34844 12.7321Z" fill="#5F73F1"/>
<path d="M22.6499 12.732C22.3202 12.732 21.9874 12.6622 21.6764 12.5212L14.4686 9.21968C14.078 9.03988 13.9061 8.57953 14.0874 8.19048C14.2702 7.80143 14.7327 7.63403 15.1249 7.81228L22.328 11.1138C22.5733 11.2238 22.8483 11.2037 23.078 11.0564C23.3061 10.9107 23.4374 10.6736 23.4374 10.407V2.84298C23.4374 2.57638 23.3061 2.33923 23.0796 2.19508C22.8483 2.04628 22.5717 2.02768 22.3249 2.13773L15.1249 5.43768C14.7327 5.61438 14.2702 5.44853 14.0874 5.05793C13.9061 4.67043 14.078 4.21008 14.4686 4.03028L21.6717 0.728784C22.4077 0.398634 23.2467 0.459084 23.9249 0.891534C24.5983 1.32243 24.9999 2.05093 24.9999 2.84298V10.407C24.9999 11.199 24.5967 11.9275 23.9249 12.3584C23.5358 12.6064 23.0936 12.732 22.6499 12.732Z" fill="#5F73F1"/>
</svg>
